<svg xmlns="http://www.w3.org/2000/svg" width="35.78" height="39.589" viewBox="0 0 35.78 39.589">
  <g id="Grupo_1136" data-name="Grupo 1136" transform="translate(-160.764 -4616.983)">
    <path id="Trazado_5554" data-name="Trazado 5554" d="M18.273,0V1.557H16.711V3.119H15.193V4.682H13.676V6.244H12.158V7.762H10.641V9.324H9.123v1.562H7.606v1.562H6.043v1.563H4.526v1.562H3.008v1.562H1.491V18.7H0v9.287H1.494V26.434H3.012V24.871H4.529V23.353H6.047V21.791H7.609V20.228H9.127V18.666h1.518V17.1h1.518V15.541h1.518V13.979H15.2V12.416h1.518V10.854h1.562V9.313h3.047V10.87h1.517v1.562h1.518v1.562h1.518v1.562h1.562v1.562h1.518v1.562h1.518v1.562h1.518v1.563h1.517v1.562h1.518v1.518h1.518v1.562h1.562v1.543h1.483V18.683h-1.51V17.121H36.517V15.558H35V14H33.481V12.434H31.964V10.871H30.446V9.309H28.929V7.746H27.411V6.229H25.849V4.666H24.331V3.1H22.814V1.541H21.3V0Z" transform="translate(160.764 4656.572) rotate(-90)" fill="#f0f0f2"/>
    <path id="Trazado_5555" data-name="Trazado 5555" d="M18.273,0V1.557H16.711V3.119H15.193V4.682H13.676V6.244H12.158V7.762H10.641V9.324H9.123v1.562H7.606v1.562H6.043v1.563H4.526v1.562H3.008v1.562H1.491V18.7H0v9.287H1.494V26.434H3.012V24.871H4.529V23.353H6.047V21.791H7.609V20.228H9.127V18.666h1.518V17.1h1.518V15.541h1.518V13.979H15.2V12.416h1.518V10.854h1.562V9.313h3.047V10.87h1.517v1.562h1.518v1.562h1.518v1.562h1.562v1.562h1.518v1.562h1.518v1.562h1.518v1.563h1.517v1.562h1.518v1.518h1.518v1.562h1.562v1.543h1.483V18.683h-1.51V17.121H36.517V15.558H35V14H33.481V12.434H31.964V10.871H30.446V9.309H28.929V7.746H27.411V6.229H25.849V4.666H24.331V3.1H22.814V1.541H21.3V0Z" transform="translate(168.553 4656.572) rotate(-90)" fill="#f0f0f2"/>
  </g>
</svg>
