<svg xmlns="http://www.w3.org/2000/svg" width="35.781" height="39.589" viewBox="0 0 35.781 39.589">
  <g id="Grupo_1137" data-name="Grupo 1137" transform="translate(0 0)">
    <path id="Trazado_5554" data-name="Trazado 5554" d="M18.273,27.992V26.435H16.711V24.872H15.193V23.31H13.676V21.747H12.158V20.23H10.641V18.667H9.123V17.1H7.606V15.543H6.043V13.98H4.526V12.418H3.008V10.855H1.491V9.293H0V.006H1.494V1.558H3.012V3.12H4.529V4.638H6.047V6.2H7.609V7.763H9.127V9.325h1.518v1.562h1.518V12.45h1.518v1.563H15.2v1.562h1.518v1.562h1.562v1.541h3.047V17.122h1.517V15.56h1.518V14h1.518V12.435h1.562V10.872h1.518V9.31h1.518V7.748h1.518V6.185h1.517V4.623h1.518V3.1h1.518V1.543h1.562V0h1.483V9.308h-1.51v1.562H36.517v1.563H35V14H33.481v1.562H31.964V17.12H30.446v1.562H28.929v1.563H27.411v1.518H25.849v1.562H24.331v1.562H22.814V26.45H21.3v1.541Z" transform="translate(7.789 39.589) rotate(-90)" fill="#f0f0f2"/>
    <path id="Trazado_5555" data-name="Trazado 5555" d="M18.273,27.992V26.435H16.711V24.872H15.193V23.31H13.676V21.747H12.158V20.23H10.641V18.667H9.123V17.1H7.606V15.543H6.043V13.98H4.526V12.418H3.008V10.855H1.491V9.293H0V.006H1.494V1.558H3.012V3.12H4.529V4.638H6.047V6.2H7.609V7.763H9.127V9.325h1.518v1.562h1.518V12.45h1.518v1.563H15.2v1.562h1.518v1.562h1.562v1.541h3.047V17.122h1.517V15.56h1.518V14h1.518V12.435h1.562V10.872h1.518V9.31h1.518V7.748h1.518V6.185h1.517V4.623h1.518V3.1h1.518V1.543h1.562V0h1.483V9.308h-1.51v1.562H36.517v1.563H35V14H33.481v1.562H31.964V17.12H30.446v1.562H28.929v1.563H27.411v1.518H25.849v1.562H24.331v1.562H22.814V26.45H21.3v1.541Z" transform="translate(0 39.589) rotate(-90)" fill="#f0f0f2"/>
  </g>
</svg>
