<svg xmlns="http://www.w3.org/2000/svg" width="1602.58" height="117.974" viewBox="0 0 1602.58 117.974">
  <g id="Grupo_793" data-name="Grupo 793" transform="translate(118 -5188.013)">
    <g id="Grupo_706" data-name="Grupo 706" transform="translate(-118 1533.013)">
      <g id="Grupo_704" data-name="Grupo 704" transform="translate(401.885 3772.974) rotate(180)">
        <path id="Trazado_5548" data-name="Trazado 5548" d="M347.752,0V3.954h-3.967V7.921h-3.854v3.968h-3.854v3.968h-3.854v3.855h-3.854v3.968h-3.854v3.968h-3.854v3.968h-3.967v3.968H312.84v3.968h-3.854v3.968h-3.854v3.968h-3.774v-.039h-3.835V43.48h-3.967V39.512H289.7V35.544h-3.854V31.576h-3.854V27.608H278.14V23.641h-3.854V19.672h-3.854V15.818h-3.967V11.85h-3.854V7.882h-3.854V3.915H254.9V0h-7.677V3.954h-3.967V7.921H239.4v3.968H235.55v3.968H231.7v3.855h-3.854v3.968h-3.854v3.968h-3.854v3.968h-3.967v3.968h-3.854v3.968h-3.854v3.968h-3.854v3.968h-3.54v-.039h-3.835V43.48h-3.967V39.512H189.41V35.544h-3.854V31.576H181.7V27.608h-3.854V23.641h-3.854V19.672h-3.854V15.818h-3.967V11.85h-3.854V7.882h-3.854V3.915H154.61V0h-7.677V3.954h-3.967V7.921h-3.854v3.968h-3.854v3.968H131.4v3.855h-3.854v3.968H123.7v3.968h-3.854v3.968h-3.968v3.968H112.02v3.968h-3.854v3.968h-3.854v3.968h-3.774v-.039H96.7V43.48H92.736V39.512H88.882V35.544H85.028V31.576H81.175V27.608H77.32V23.641H73.466V19.672H69.612V15.818H65.645V11.85H61.791V7.882H57.937V3.915H54.083V0H46.405V3.954H42.439V7.921H38.585v3.968H34.731v3.968H30.877v3.855H27.023v3.968H23.169v3.968H19.315v3.968H15.347v3.968H11.493v3.968H7.639v3.968H3.785v3.968H0V71.071H3.794V67.13H7.648V63.162H11.5V59.307h3.854V55.34h3.967V51.372h3.854V47.4h3.854V43.436h3.854V39.468H34.74V35.5h3.854V31.533h3.854V27.564h3.968V23.652h7.737V27.6h3.854v3.968H61.86V35.54h3.854v3.968h3.967v3.968h3.854v3.968h3.854v3.968h3.854v3.968H85.1v3.968h3.854V63.2h3.854v3.968h3.967v3.918h3.766v-.016h3.783V67.13h3.854V63.162h3.854V59.307h3.854V55.34h3.967V51.372H123.7V47.4h3.854V43.436h3.854V39.468h3.854V35.5h3.854V31.533h3.854V27.564h3.967V23.652h7.737V27.6h3.854v3.968h3.854V35.54h3.854v3.968h3.968v3.968h3.854v3.968h3.854v3.968h3.854v3.968h3.854v3.968h3.854V63.2h3.854v3.968H197.3v3.918h3.765v-.016h3.549V67.13h3.854V63.162h3.854V59.307h3.854V55.34h3.968V51.372H224V47.4h3.854V43.436h3.854V39.468h3.854V35.5h3.854V31.533h3.854V27.564h3.967V23.652h7.738V27.6h3.854v3.968h3.854V35.54h3.854v3.968H270.5v3.968h3.854v3.968h3.854v3.968h3.854v3.968h3.854v3.968h3.854V63.2h3.854v3.968h3.968v3.918h3.765v-.016h3.783V67.13H309V63.162h3.854V59.307H316.7V55.34h3.968V51.372h3.854V47.4h3.854V43.436h3.854V39.468h3.853V35.5h3.854V31.533h3.854V27.564h3.968V23.652H355.5V27.6h3.854v3.968h3.854V35.54h3.854v3.968h3.967v3.968h3.854v3.968h3.854v3.968h3.854v3.968h3.854v3.968H390.3V63.2h3.854v3.968h3.967v3.918h3.765V47.447h-3.834V43.48h-3.968V39.512h-3.854V35.544h-3.854V31.576h-3.854V27.608h-3.854V23.641h-3.854V19.672h-3.854V15.818h-3.967V11.85h-3.854V7.882h-3.854V3.915H355.43V0Z" transform="translate(0 0)" fill="#3a3c6a"/>
        <path id="Trazado_5549" data-name="Trazado 5549" d="M347.752,0V3.954h-3.967V7.921h-3.854V11.89h-3.854v3.968h-3.854v3.855h-3.854v3.968h-3.854v3.968h-3.854v3.968h-3.967v3.968H312.84v3.968h-3.854v3.968h-3.854v3.968h-3.774v-.039h-3.835V43.48h-3.967V39.511H289.7V35.544h-3.854V31.576h-3.854V27.608H278.14V23.641h-3.854V19.672h-3.854V15.818h-3.967V11.85h-3.854V7.882h-3.854V3.914H254.9V0h-7.677V3.954h-3.967V7.921H239.4V11.89H235.55v3.968H231.7v3.855h-3.854v3.968h-3.854v3.968h-3.854v3.968h-3.967v3.968h-3.854v3.968h-3.854v3.968h-3.854v3.968h-3.54v-.039h-3.835V43.48h-3.967V39.511H189.41V35.544h-3.854V31.576H181.7V27.608h-3.854V23.641h-3.854V19.672h-3.854V15.818h-3.967V11.85h-3.854V7.882h-3.854V3.914H154.61V0h-7.677V3.954h-3.967V7.921h-3.854V11.89h-3.854v3.968H131.4v3.855h-3.854v3.968H123.7v3.968h-3.854v3.968h-3.968v3.968H112.02v3.968h-3.854v3.968h-3.854v3.968h-3.774v-.039H96.7V43.48H92.736V39.511H88.882V35.544H85.028V31.576H81.175V27.608H77.32V23.641H73.466V19.672H69.612V15.818H65.645V11.85H61.791V7.882H57.937V3.914H54.083V0H46.405V3.954H42.439V7.921H38.585V11.89H34.731v3.968H30.877v3.855H27.023v3.968H23.169v3.968H19.315v3.968H15.347v3.968H11.493v3.968H7.639v3.968H3.785v3.968H0V71.071H3.794V67.13H7.648V63.162H11.5V59.307h3.854V55.34h3.967V51.372h3.854V47.4h3.854V43.436h3.854V39.468H34.74V35.5h3.854V31.532h3.854V27.564h3.968V23.652h7.737V27.6h3.854v3.968H61.86V35.54h3.854v3.968h3.967v3.967h3.854v3.969h3.854v3.968h3.854v3.967H85.1v3.968h3.854V63.2h3.854v3.968h3.967v3.918h3.766v-.015h3.783V67.13h3.854V63.162h3.854V59.307h3.854V55.34h3.967V51.372H123.7V47.4h3.854V43.436h3.854V39.468h3.854V35.5h3.854V31.532h3.854V27.564h3.967V23.652h7.737V27.6h3.854v3.968h3.854V35.54h3.854v3.968h3.968v3.967h3.854v3.969h3.854v3.968h3.854v3.967h3.854v3.968h3.854V63.2h3.854v3.968H197.3v3.918h3.765v-.015h3.549V67.13h3.854V63.162h3.854V59.307h3.854V55.34h3.968V51.372H224V47.4h3.854V43.436h3.854V39.468h3.854V35.5h3.854V31.532h3.854V27.564h3.967V23.652h7.738V27.6h3.854v3.968h3.854V35.54h3.854v3.968H270.5v3.967h3.854v3.969h3.854v3.968h3.854v3.967h3.854v3.968h3.854V63.2h3.854v3.968h3.968v3.918h3.765v-.015h3.783V67.13H309V63.162h3.854V59.307H316.7V55.34h3.968V51.372h3.854V47.4h3.854V43.436h3.854V39.468h3.853V35.5h3.854V31.532h3.854V27.564h3.968V23.652H355.5V27.6h3.854v3.968h3.854V35.54h3.854v3.968h3.967v3.967h3.854v3.969h3.854v3.968h3.854v3.967h3.854v3.968H390.3V63.2h3.854v3.968h3.967v3.918h3.765V47.447h-3.834V43.48h-3.968V39.511h-3.854V35.544h-3.854V31.576h-3.854V27.608h-3.854V23.641h-3.854V19.672h-3.854V15.818h-3.967V11.85h-3.854V7.882h-3.854V3.914H355.43V0Z" transform="translate(0 23.444)" fill="#c3296a"/>
        <path id="Trazado_5550" data-name="Trazado 5550" d="M347.752,0V3.954h-3.967V7.921h-3.854v3.968h-3.854v3.968h-3.854v3.854h-3.854v3.968h-3.854v3.968h-3.854v3.968h-3.967v3.968H312.84v3.968h-3.854v3.968h-3.854v3.968h-3.774v-.039h-3.835V43.479h-3.967V39.511H289.7V35.544h-3.854V31.576h-3.854V27.608H278.14V23.64h-3.854V19.672h-3.854V15.818h-3.967V11.85h-3.854V7.882h-3.854V3.914H254.9V0h-7.677V3.954h-3.967V7.921H239.4v3.968H235.55v3.968H231.7v3.854h-3.854v3.968h-3.854v3.968h-3.854v3.968h-3.967v3.968h-3.854v3.968h-3.854v3.968h-3.854v3.968h-3.54v-.039h-3.835V43.479h-3.967V39.511H189.41V35.544h-3.854V31.576H181.7V27.608h-3.854V23.64h-3.854V19.672h-3.854V15.818h-3.967V11.85h-3.854V7.882h-3.854V3.914H154.61V0h-7.677V3.954h-3.967V7.921h-3.854v3.968h-3.854v3.968H131.4v3.854h-3.854v3.968H123.7v3.968h-3.854v3.968h-3.968v3.968H112.02v3.968h-3.854v3.968h-3.854v3.968h-3.774v-.039H96.7V43.479H92.736V39.511H88.882V35.544H85.028V31.576H81.175V27.608H77.32V23.64H73.466V19.672H69.612V15.818H65.645V11.85H61.791V7.882H57.937V3.914H54.083V0H46.405V3.954H42.439V7.921H38.585v3.968H34.731v3.968H30.877v3.854H27.023v3.968H23.169v3.968H19.315v3.968H15.347v3.968H11.493v3.968H7.639v3.968H3.785v3.968H0V71.071H3.794V67.129H7.648V63.162H11.5V59.307h3.854V55.34h3.967V51.372h3.854V47.4h3.854V43.436h3.854V39.468H34.74V35.5h3.854V31.532h3.854V27.564h3.968V23.652h7.737V27.6h3.854v3.968H61.86V35.54h3.854v3.967h3.967v3.968h3.854v3.968h3.854v3.968h3.854v3.968H85.1v3.968h3.854V63.2h3.854v3.968h3.967v3.918h3.766v-.015h3.783V67.129h3.854V63.162h3.854V59.307h3.854V55.34h3.967V51.372H123.7V47.4h3.854V43.436h3.854V39.468h3.854V35.5h3.854V31.532h3.854V27.564h3.967V23.652h7.737V27.6h3.854v3.968h3.854V35.54h3.854v3.967h3.968v3.968h3.854v3.968h3.854v3.968h3.854v3.968h3.854v3.968h3.854V63.2h3.854v3.968H197.3v3.918h3.765v-.015h3.549V67.129h3.854V63.162h3.854V59.307h3.854V55.34h3.968V51.372H224V47.4h3.854V43.436h3.854V39.468h3.854V35.5h3.854V31.532h3.854V27.564h3.967V23.652h7.738V27.6h3.854v3.968h3.854V35.54h3.854v3.967H270.5v3.968h3.854v3.968h3.854v3.968h3.854v3.968h3.854v3.968h3.854V63.2h3.854v3.968h3.968v3.918h3.765v-.015h3.783V67.129H309V63.162h3.854V59.307H316.7V55.34h3.968V51.372h3.854V47.4h3.854V43.436h3.854V39.468h3.853V35.5h3.854V31.532h3.854V27.564h3.968V23.652H355.5V27.6h3.854v3.968h3.854V35.54h3.854v3.967h3.967v3.968h3.854v3.968h3.854v3.968h3.854v3.968h3.854v3.968H390.3V63.2h3.854v3.968h3.967v3.918h3.765V47.447h-3.834V43.479h-3.968V39.511h-3.854V35.544h-3.854V31.576h-3.854V27.608h-3.854V23.64h-3.854V19.672h-3.854V15.818h-3.967V11.85h-3.854V7.882h-3.854V3.914H355.43V0Z" transform="translate(0 46.888)" fill="#602162"/>
      </g>
      <g id="Grupo_705" data-name="Grupo 705" transform="translate(801.79 3772.974) rotate(180)">
        <path id="Trazado_5548-2" data-name="Trazado 5548" d="M347.752,0V3.954h-3.967V7.921h-3.854v3.968h-3.854v3.968h-3.854v3.855h-3.854v3.968h-3.854v3.968h-3.854v3.968h-3.967v3.968H312.84v3.968h-3.854v3.968h-3.854v3.968h-3.774v-.039h-3.835V43.48h-3.967V39.512H289.7V35.544h-3.854V31.576h-3.854V27.608H278.14V23.641h-3.854V19.672h-3.854V15.818h-3.967V11.85h-3.854V7.882h-3.854V3.915H254.9V0h-7.677V3.954h-3.967V7.921H239.4v3.968H235.55v3.968H231.7v3.855h-3.854v3.968h-3.854v3.968h-3.854v3.968h-3.967v3.968h-3.854v3.968h-3.854v3.968h-3.854v3.968h-3.54v-.039h-3.835V43.48h-3.967V39.512H189.41V35.544h-3.854V31.576H181.7V27.608h-3.854V23.641h-3.854V19.672h-3.854V15.818h-3.967V11.85h-3.854V7.882h-3.854V3.915H154.61V0h-7.677V3.954h-3.967V7.921h-3.854v3.968h-3.854v3.968H131.4v3.855h-3.854v3.968H123.7v3.968h-3.854v3.968h-3.968v3.968H112.02v3.968h-3.854v3.968h-3.854v3.968h-3.774v-.039H96.7V43.48H92.736V39.512H88.882V35.544H85.028V31.576H81.175V27.608H77.32V23.641H73.466V19.672H69.612V15.818H65.645V11.85H61.791V7.882H57.937V3.915H54.083V0H46.405V3.954H42.439V7.921H38.585v3.968H34.731v3.968H30.877v3.855H27.023v3.968H23.169v3.968H19.315v3.968H15.347v3.968H11.493v3.968H7.639v3.968H3.785v3.968H0V71.071H3.794V67.13H7.648V63.162H11.5V59.307h3.854V55.34h3.967V51.372h3.854V47.4h3.854V43.436h3.854V39.468H34.74V35.5h3.854V31.533h3.854V27.564h3.968V23.652h7.737V27.6h3.854v3.968H61.86V35.54h3.854v3.968h3.967v3.968h3.854v3.968h3.854v3.968h3.854v3.968H85.1v3.968h3.854V63.2h3.854v3.968h3.967v3.918h3.766v-.016h3.783V67.13h3.854V63.162h3.854V59.307h3.854V55.34h3.967V51.372H123.7V47.4h3.854V43.436h3.854V39.468h3.854V35.5h3.854V31.533h3.854V27.564h3.967V23.652h7.737V27.6h3.854v3.968h3.854V35.54h3.854v3.968h3.968v3.968h3.854v3.968h3.854v3.968h3.854v3.968h3.854v3.968h3.854V63.2h3.854v3.968H197.3v3.918h3.765v-.016h3.549V67.13h3.854V63.162h3.854V59.307h3.854V55.34h3.968V51.372H224V47.4h3.854V43.436h3.854V39.468h3.854V35.5h3.854V31.533h3.854V27.564h3.967V23.652h7.738V27.6h3.854v3.968h3.854V35.54h3.854v3.968H270.5v3.968h3.854v3.968h3.854v3.968h3.854v3.968h3.854v3.968h3.854V63.2h3.854v3.968h3.968v3.918h3.765v-.016h3.783V67.13H309V63.162h3.854V59.307H316.7V55.34h3.968V51.372h3.854V47.4h3.854V43.436h3.854V39.468h3.853V35.5h3.854V31.533h3.854V27.564h3.968V23.652H355.5V27.6h3.854v3.968h3.854V35.54h3.854v3.968h3.967v3.968h3.854v3.968h3.854v3.968h3.854v3.968h3.854v3.968H390.3V63.2h3.854v3.968h3.967v3.918h3.765V47.447h-3.834V43.48h-3.968V39.512h-3.854V35.544h-3.854V31.576h-3.854V27.608h-3.854V23.641h-3.854V19.672h-3.854V15.818h-3.967V11.85h-3.854V7.882h-3.854V3.915H355.43V0Z" transform="translate(0 0)" fill="#3a3c6a"/>
        <path id="Trazado_5549-2" data-name="Trazado 5549" d="M347.752,0V3.954h-3.967V7.921h-3.854V11.89h-3.854v3.968h-3.854v3.855h-3.854v3.968h-3.854v3.968h-3.854v3.968h-3.967v3.968H312.84v3.968h-3.854v3.968h-3.854v3.968h-3.774v-.039h-3.835V43.48h-3.967V39.511H289.7V35.544h-3.854V31.576h-3.854V27.608H278.14V23.641h-3.854V19.672h-3.854V15.818h-3.967V11.85h-3.854V7.882h-3.854V3.914H254.9V0h-7.677V3.954h-3.967V7.921H239.4V11.89H235.55v3.968H231.7v3.855h-3.854v3.968h-3.854v3.968h-3.854v3.968h-3.967v3.968h-3.854v3.968h-3.854v3.968h-3.854v3.968h-3.54v-.039h-3.835V43.48h-3.967V39.511H189.41V35.544h-3.854V31.576H181.7V27.608h-3.854V23.641h-3.854V19.672h-3.854V15.818h-3.967V11.85h-3.854V7.882h-3.854V3.914H154.61V0h-7.677V3.954h-3.967V7.921h-3.854V11.89h-3.854v3.968H131.4v3.855h-3.854v3.968H123.7v3.968h-3.854v3.968h-3.968v3.968H112.02v3.968h-3.854v3.968h-3.854v3.968h-3.774v-.039H96.7V43.48H92.736V39.511H88.882V35.544H85.028V31.576H81.175V27.608H77.32V23.641H73.466V19.672H69.612V15.818H65.645V11.85H61.791V7.882H57.937V3.914H54.083V0H46.405V3.954H42.439V7.921H38.585V11.89H34.731v3.968H30.877v3.855H27.023v3.968H23.169v3.968H19.315v3.968H15.347v3.968H11.493v3.968H7.639v3.968H3.785v3.968H0V71.071H3.794V67.13H7.648V63.162H11.5V59.307h3.854V55.34h3.967V51.372h3.854V47.4h3.854V43.436h3.854V39.468H34.74V35.5h3.854V31.532h3.854V27.564h3.968V23.652h7.737V27.6h3.854v3.968H61.86V35.54h3.854v3.968h3.967v3.967h3.854v3.969h3.854v3.968h3.854v3.967H85.1v3.968h3.854V63.2h3.854v3.968h3.967v3.918h3.766v-.015h3.783V67.13h3.854V63.162h3.854V59.307h3.854V55.34h3.967V51.372H123.7V47.4h3.854V43.436h3.854V39.468h3.854V35.5h3.854V31.532h3.854V27.564h3.967V23.652h7.737V27.6h3.854v3.968h3.854V35.54h3.854v3.968h3.968v3.967h3.854v3.969h3.854v3.968h3.854v3.967h3.854v3.968h3.854V63.2h3.854v3.968H197.3v3.918h3.765v-.015h3.549V67.13h3.854V63.162h3.854V59.307h3.854V55.34h3.968V51.372H224V47.4h3.854V43.436h3.854V39.468h3.854V35.5h3.854V31.532h3.854V27.564h3.967V23.652h7.738V27.6h3.854v3.968h3.854V35.54h3.854v3.968H270.5v3.967h3.854v3.969h3.854v3.968h3.854v3.967h3.854v3.968h3.854V63.2h3.854v3.968h3.968v3.918h3.765v-.015h3.783V67.13H309V63.162h3.854V59.307H316.7V55.34h3.968V51.372h3.854V47.4h3.854V43.436h3.854V39.468h3.853V35.5h3.854V31.532h3.854V27.564h3.968V23.652H355.5V27.6h3.854v3.968h3.854V35.54h3.854v3.968h3.967v3.967h3.854v3.969h3.854v3.968h3.854v3.967h3.854v3.968H390.3V63.2h3.854v3.968h3.967v3.918h3.765V47.447h-3.834V43.48h-3.968V39.511h-3.854V35.544h-3.854V31.576h-3.854V27.608h-3.854V23.641h-3.854V19.672h-3.854V15.818h-3.967V11.85h-3.854V7.882h-3.854V3.914H355.43V0Z" transform="translate(0 23.444)" fill="#c3296a"/>
        <path id="Trazado_5550-2" data-name="Trazado 5550" d="M347.752,0V3.954h-3.967V7.921h-3.854v3.968h-3.854v3.968h-3.854v3.854h-3.854v3.968h-3.854v3.968h-3.854v3.968h-3.967v3.968H312.84v3.968h-3.854v3.968h-3.854v3.968h-3.774v-.039h-3.835V43.479h-3.967V39.511H289.7V35.544h-3.854V31.576h-3.854V27.608H278.14V23.64h-3.854V19.672h-3.854V15.818h-3.967V11.85h-3.854V7.882h-3.854V3.914H254.9V0h-7.677V3.954h-3.967V7.921H239.4v3.968H235.55v3.968H231.7v3.854h-3.854v3.968h-3.854v3.968h-3.854v3.968h-3.967v3.968h-3.854v3.968h-3.854v3.968h-3.854v3.968h-3.54v-.039h-3.835V43.479h-3.967V39.511H189.41V35.544h-3.854V31.576H181.7V27.608h-3.854V23.64h-3.854V19.672h-3.854V15.818h-3.967V11.85h-3.854V7.882h-3.854V3.914H154.61V0h-7.677V3.954h-3.967V7.921h-3.854v3.968h-3.854v3.968H131.4v3.854h-3.854v3.968H123.7v3.968h-3.854v3.968h-3.968v3.968H112.02v3.968h-3.854v3.968h-3.854v3.968h-3.774v-.039H96.7V43.479H92.736V39.511H88.882V35.544H85.028V31.576H81.175V27.608H77.32V23.64H73.466V19.672H69.612V15.818H65.645V11.85H61.791V7.882H57.937V3.914H54.083V0H46.405V3.954H42.439V7.921H38.585v3.968H34.731v3.968H30.877v3.854H27.023v3.968H23.169v3.968H19.315v3.968H15.347v3.968H11.493v3.968H7.639v3.968H3.785v3.968H0V71.071H3.794V67.129H7.648V63.162H11.5V59.307h3.854V55.34h3.967V51.372h3.854V47.4h3.854V43.436h3.854V39.468H34.74V35.5h3.854V31.532h3.854V27.564h3.968V23.652h7.737V27.6h3.854v3.968H61.86V35.54h3.854v3.967h3.967v3.968h3.854v3.968h3.854v3.968h3.854v3.968H85.1v3.968h3.854V63.2h3.854v3.968h3.967v3.918h3.766v-.015h3.783V67.129h3.854V63.162h3.854V59.307h3.854V55.34h3.967V51.372H123.7V47.4h3.854V43.436h3.854V39.468h3.854V35.5h3.854V31.532h3.854V27.564h3.967V23.652h7.737V27.6h3.854v3.968h3.854V35.54h3.854v3.967h3.968v3.968h3.854v3.968h3.854v3.968h3.854v3.968h3.854v3.968h3.854V63.2h3.854v3.968H197.3v3.918h3.765v-.015h3.549V67.129h3.854V63.162h3.854V59.307h3.854V55.34h3.968V51.372H224V47.4h3.854V43.436h3.854V39.468h3.854V35.5h3.854V31.532h3.854V27.564h3.967V23.652h7.738V27.6h3.854v3.968h3.854V35.54h3.854v3.967H270.5v3.968h3.854v3.968h3.854v3.968h3.854v3.968h3.854v3.968h3.854V63.2h3.854v3.968h3.968v3.918h3.765v-.015h3.783V67.129H309V63.162h3.854V59.307H316.7V55.34h3.968V51.372h3.854V47.4h3.854V43.436h3.854V39.468h3.853V35.5h3.854V31.532h3.854V27.564h3.968V23.652H355.5V27.6h3.854v3.968h3.854V35.54h3.854v3.967h3.967v3.968h3.854v3.968h3.854v3.968h3.854v3.968h3.854v3.968H390.3V63.2h3.854v3.968h3.967v3.918h3.765V47.447h-3.834V43.479h-3.968V39.511h-3.854V35.544h-3.854V31.576h-3.854V27.608h-3.854V23.64h-3.854V19.672h-3.854V15.818h-3.967V11.85h-3.854V7.882h-3.854V3.914H355.43V0Z" transform="translate(0 46.888)" fill="#602162"/>
      </g>
    </g>
    <g id="Grupo_707" data-name="Grupo 707" transform="translate(682.79 1533.013)">
      <g id="Grupo_704-2" data-name="Grupo 704" transform="translate(401.885 3772.974) rotate(180)">
        <path id="Trazado_5548-3" data-name="Trazado 5548" d="M347.752,0V3.954h-3.967V7.921h-3.854v3.968h-3.854v3.968h-3.854v3.855h-3.854v3.968h-3.854v3.968h-3.854v3.968h-3.967v3.968H312.84v3.968h-3.854v3.968h-3.854v3.968h-3.774v-.039h-3.835V43.48h-3.967V39.512H289.7V35.544h-3.854V31.576h-3.854V27.608H278.14V23.641h-3.854V19.672h-3.854V15.818h-3.967V11.85h-3.854V7.882h-3.854V3.915H254.9V0h-7.677V3.954h-3.967V7.921H239.4v3.968H235.55v3.968H231.7v3.855h-3.854v3.968h-3.854v3.968h-3.854v3.968h-3.967v3.968h-3.854v3.968h-3.854v3.968h-3.854v3.968h-3.54v-.039h-3.835V43.48h-3.967V39.512H189.41V35.544h-3.854V31.576H181.7V27.608h-3.854V23.641h-3.854V19.672h-3.854V15.818h-3.967V11.85h-3.854V7.882h-3.854V3.915H154.61V0h-7.677V3.954h-3.967V7.921h-3.854v3.968h-3.854v3.968H131.4v3.855h-3.854v3.968H123.7v3.968h-3.854v3.968h-3.968v3.968H112.02v3.968h-3.854v3.968h-3.854v3.968h-3.774v-.039H96.7V43.48H92.736V39.512H88.882V35.544H85.028V31.576H81.175V27.608H77.32V23.641H73.466V19.672H69.612V15.818H65.645V11.85H61.791V7.882H57.937V3.915H54.083V0H46.405V3.954H42.439V7.921H38.585v3.968H34.731v3.968H30.877v3.855H27.023v3.968H23.169v3.968H19.315v3.968H15.347v3.968H11.493v3.968H7.639v3.968H3.785v3.968H0V71.071H3.794V67.13H7.648V63.162H11.5V59.307h3.854V55.34h3.967V51.372h3.854V47.4h3.854V43.436h3.854V39.468H34.74V35.5h3.854V31.533h3.854V27.564h3.968V23.652h7.737V27.6h3.854v3.968H61.86V35.54h3.854v3.968h3.967v3.968h3.854v3.968h3.854v3.968h3.854v3.968H85.1v3.968h3.854V63.2h3.854v3.968h3.967v3.918h3.766v-.016h3.783V67.13h3.854V63.162h3.854V59.307h3.854V55.34h3.967V51.372H123.7V47.4h3.854V43.436h3.854V39.468h3.854V35.5h3.854V31.533h3.854V27.564h3.967V23.652h7.737V27.6h3.854v3.968h3.854V35.54h3.854v3.968h3.968v3.968h3.854v3.968h3.854v3.968h3.854v3.968h3.854v3.968h3.854V63.2h3.854v3.968H197.3v3.918h3.765v-.016h3.549V67.13h3.854V63.162h3.854V59.307h3.854V55.34h3.968V51.372H224V47.4h3.854V43.436h3.854V39.468h3.854V35.5h3.854V31.533h3.854V27.564h3.967V23.652h7.738V27.6h3.854v3.968h3.854V35.54h3.854v3.968H270.5v3.968h3.854v3.968h3.854v3.968h3.854v3.968h3.854v3.968h3.854V63.2h3.854v3.968h3.968v3.918h3.765v-.016h3.783V67.13H309V63.162h3.854V59.307H316.7V55.34h3.968V51.372h3.854V47.4h3.854V43.436h3.854V39.468h3.853V35.5h3.854V31.533h3.854V27.564h3.968V23.652H355.5V27.6h3.854v3.968h3.854V35.54h3.854v3.968h3.967v3.968h3.854v3.968h3.854v3.968h3.854v3.968h3.854v3.968H390.3V63.2h3.854v3.968h3.967v3.918h3.765V47.447h-3.834V43.48h-3.968V39.512h-3.854V35.544h-3.854V31.576h-3.854V27.608h-3.854V23.641h-3.854V19.672h-3.854V15.818h-3.967V11.85h-3.854V7.882h-3.854V3.915H355.43V0Z" transform="translate(0 0)" fill="#3a3c6a"/>
        <path id="Trazado_5549-3" data-name="Trazado 5549" d="M347.752,0V3.954h-3.967V7.921h-3.854V11.89h-3.854v3.968h-3.854v3.855h-3.854v3.968h-3.854v3.968h-3.854v3.968h-3.967v3.968H312.84v3.968h-3.854v3.968h-3.854v3.968h-3.774v-.039h-3.835V43.48h-3.967V39.511H289.7V35.544h-3.854V31.576h-3.854V27.608H278.14V23.641h-3.854V19.672h-3.854V15.818h-3.967V11.85h-3.854V7.882h-3.854V3.914H254.9V0h-7.677V3.954h-3.967V7.921H239.4V11.89H235.55v3.968H231.7v3.855h-3.854v3.968h-3.854v3.968h-3.854v3.968h-3.967v3.968h-3.854v3.968h-3.854v3.968h-3.854v3.968h-3.54v-.039h-3.835V43.48h-3.967V39.511H189.41V35.544h-3.854V31.576H181.7V27.608h-3.854V23.641h-3.854V19.672h-3.854V15.818h-3.967V11.85h-3.854V7.882h-3.854V3.914H154.61V0h-7.677V3.954h-3.967V7.921h-3.854V11.89h-3.854v3.968H131.4v3.855h-3.854v3.968H123.7v3.968h-3.854v3.968h-3.968v3.968H112.02v3.968h-3.854v3.968h-3.854v3.968h-3.774v-.039H96.7V43.48H92.736V39.511H88.882V35.544H85.028V31.576H81.175V27.608H77.32V23.641H73.466V19.672H69.612V15.818H65.645V11.85H61.791V7.882H57.937V3.914H54.083V0H46.405V3.954H42.439V7.921H38.585V11.89H34.731v3.968H30.877v3.855H27.023v3.968H23.169v3.968H19.315v3.968H15.347v3.968H11.493v3.968H7.639v3.968H3.785v3.968H0V71.071H3.794V67.13H7.648V63.162H11.5V59.307h3.854V55.34h3.967V51.372h3.854V47.4h3.854V43.436h3.854V39.468H34.74V35.5h3.854V31.532h3.854V27.564h3.968V23.652h7.737V27.6h3.854v3.968H61.86V35.54h3.854v3.968h3.967v3.967h3.854v3.969h3.854v3.968h3.854v3.967H85.1v3.968h3.854V63.2h3.854v3.968h3.967v3.918h3.766v-.015h3.783V67.13h3.854V63.162h3.854V59.307h3.854V55.34h3.967V51.372H123.7V47.4h3.854V43.436h3.854V39.468h3.854V35.5h3.854V31.532h3.854V27.564h3.967V23.652h7.737V27.6h3.854v3.968h3.854V35.54h3.854v3.968h3.968v3.967h3.854v3.969h3.854v3.968h3.854v3.967h3.854v3.968h3.854V63.2h3.854v3.968H197.3v3.918h3.765v-.015h3.549V67.13h3.854V63.162h3.854V59.307h3.854V55.34h3.968V51.372H224V47.4h3.854V43.436h3.854V39.468h3.854V35.5h3.854V31.532h3.854V27.564h3.967V23.652h7.738V27.6h3.854v3.968h3.854V35.54h3.854v3.968H270.5v3.967h3.854v3.969h3.854v3.968h3.854v3.967h3.854v3.968h3.854V63.2h3.854v3.968h3.968v3.918h3.765v-.015h3.783V67.13H309V63.162h3.854V59.307H316.7V55.34h3.968V51.372h3.854V47.4h3.854V43.436h3.854V39.468h3.853V35.5h3.854V31.532h3.854V27.564h3.968V23.652H355.5V27.6h3.854v3.968h3.854V35.54h3.854v3.968h3.967v3.967h3.854v3.969h3.854v3.968h3.854v3.967h3.854v3.968H390.3V63.2h3.854v3.968h3.967v3.918h3.765V47.447h-3.834V43.48h-3.968V39.511h-3.854V35.544h-3.854V31.576h-3.854V27.608h-3.854V23.641h-3.854V19.672h-3.854V15.818h-3.967V11.85h-3.854V7.882h-3.854V3.914H355.43V0Z" transform="translate(0 23.444)" fill="#c3296a"/>
        <path id="Trazado_5550-3" data-name="Trazado 5550" d="M347.752,0V3.954h-3.967V7.921h-3.854v3.968h-3.854v3.968h-3.854v3.854h-3.854v3.968h-3.854v3.968h-3.854v3.968h-3.967v3.968H312.84v3.968h-3.854v3.968h-3.854v3.968h-3.774v-.039h-3.835V43.479h-3.967V39.511H289.7V35.544h-3.854V31.576h-3.854V27.608H278.14V23.64h-3.854V19.672h-3.854V15.818h-3.967V11.85h-3.854V7.882h-3.854V3.914H254.9V0h-7.677V3.954h-3.967V7.921H239.4v3.968H235.55v3.968H231.7v3.854h-3.854v3.968h-3.854v3.968h-3.854v3.968h-3.967v3.968h-3.854v3.968h-3.854v3.968h-3.854v3.968h-3.54v-.039h-3.835V43.479h-3.967V39.511H189.41V35.544h-3.854V31.576H181.7V27.608h-3.854V23.64h-3.854V19.672h-3.854V15.818h-3.967V11.85h-3.854V7.882h-3.854V3.914H154.61V0h-7.677V3.954h-3.967V7.921h-3.854v3.968h-3.854v3.968H131.4v3.854h-3.854v3.968H123.7v3.968h-3.854v3.968h-3.968v3.968H112.02v3.968h-3.854v3.968h-3.854v3.968h-3.774v-.039H96.7V43.479H92.736V39.511H88.882V35.544H85.028V31.576H81.175V27.608H77.32V23.64H73.466V19.672H69.612V15.818H65.645V11.85H61.791V7.882H57.937V3.914H54.083V0H46.405V3.954H42.439V7.921H38.585v3.968H34.731v3.968H30.877v3.854H27.023v3.968H23.169v3.968H19.315v3.968H15.347v3.968H11.493v3.968H7.639v3.968H3.785v3.968H0V71.071H3.794V67.129H7.648V63.162H11.5V59.307h3.854V55.34h3.967V51.372h3.854V47.4h3.854V43.436h3.854V39.468H34.74V35.5h3.854V31.532h3.854V27.564h3.968V23.652h7.737V27.6h3.854v3.968H61.86V35.54h3.854v3.967h3.967v3.968h3.854v3.968h3.854v3.968h3.854v3.968H85.1v3.968h3.854V63.2h3.854v3.968h3.967v3.918h3.766v-.015h3.783V67.129h3.854V63.162h3.854V59.307h3.854V55.34h3.967V51.372H123.7V47.4h3.854V43.436h3.854V39.468h3.854V35.5h3.854V31.532h3.854V27.564h3.967V23.652h7.737V27.6h3.854v3.968h3.854V35.54h3.854v3.967h3.968v3.968h3.854v3.968h3.854v3.968h3.854v3.968h3.854v3.968h3.854V63.2h3.854v3.968H197.3v3.918h3.765v-.015h3.549V67.129h3.854V63.162h3.854V59.307h3.854V55.34h3.968V51.372H224V47.4h3.854V43.436h3.854V39.468h3.854V35.5h3.854V31.532h3.854V27.564h3.967V23.652h7.738V27.6h3.854v3.968h3.854V35.54h3.854v3.967H270.5v3.968h3.854v3.968h3.854v3.968h3.854v3.968h3.854v3.968h3.854V63.2h3.854v3.968h3.968v3.918h3.765v-.015h3.783V67.129H309V63.162h3.854V59.307H316.7V55.34h3.968V51.372h3.854V47.4h3.854V43.436h3.854V39.468h3.853V35.5h3.854V31.532h3.854V27.564h3.968V23.652H355.5V27.6h3.854v3.968h3.854V35.54h3.854v3.967h3.967v3.968h3.854v3.968h3.854v3.968h3.854v3.968h3.854v3.968H390.3V63.2h3.854v3.968h3.967v3.918h3.765V47.447h-3.834V43.479h-3.968V39.511h-3.854V35.544h-3.854V31.576h-3.854V27.608h-3.854V23.64h-3.854V19.672h-3.854V15.818h-3.967V11.85h-3.854V7.882h-3.854V3.914H355.43V0Z" transform="translate(0 46.888)" fill="#602162"/>
      </g>
      <g id="Grupo_705-2" data-name="Grupo 705" transform="translate(801.79 3772.974) rotate(180)">
        <path id="Trazado_5548-4" data-name="Trazado 5548" d="M347.752,0V3.954h-3.967V7.921h-3.854v3.968h-3.854v3.968h-3.854v3.855h-3.854v3.968h-3.854v3.968h-3.854v3.968h-3.967v3.968H312.84v3.968h-3.854v3.968h-3.854v3.968h-3.774v-.039h-3.835V43.48h-3.967V39.512H289.7V35.544h-3.854V31.576h-3.854V27.608H278.14V23.641h-3.854V19.672h-3.854V15.818h-3.967V11.85h-3.854V7.882h-3.854V3.915H254.9V0h-7.677V3.954h-3.967V7.921H239.4v3.968H235.55v3.968H231.7v3.855h-3.854v3.968h-3.854v3.968h-3.854v3.968h-3.967v3.968h-3.854v3.968h-3.854v3.968h-3.854v3.968h-3.54v-.039h-3.835V43.48h-3.967V39.512H189.41V35.544h-3.854V31.576H181.7V27.608h-3.854V23.641h-3.854V19.672h-3.854V15.818h-3.967V11.85h-3.854V7.882h-3.854V3.915H154.61V0h-7.677V3.954h-3.967V7.921h-3.854v3.968h-3.854v3.968H131.4v3.855h-3.854v3.968H123.7v3.968h-3.854v3.968h-3.968v3.968H112.02v3.968h-3.854v3.968h-3.854v3.968h-3.774v-.039H96.7V43.48H92.736V39.512H88.882V35.544H85.028V31.576H81.175V27.608H77.32V23.641H73.466V19.672H69.612V15.818H65.645V11.85H61.791V7.882H57.937V3.915H54.083V0H46.405V3.954H42.439V7.921H38.585v3.968H34.731v3.968H30.877v3.855H27.023v3.968H23.169v3.968H19.315v3.968H15.347v3.968H11.493v3.968H7.639v3.968H3.785v3.968H0V71.071H3.794V67.13H7.648V63.162H11.5V59.307h3.854V55.34h3.967V51.372h3.854V47.4h3.854V43.436h3.854V39.468H34.74V35.5h3.854V31.533h3.854V27.564h3.968V23.652h7.737V27.6h3.854v3.968H61.86V35.54h3.854v3.968h3.967v3.968h3.854v3.968h3.854v3.968h3.854v3.968H85.1v3.968h3.854V63.2h3.854v3.968h3.967v3.918h3.766v-.016h3.783V67.13h3.854V63.162h3.854V59.307h3.854V55.34h3.967V51.372H123.7V47.4h3.854V43.436h3.854V39.468h3.854V35.5h3.854V31.533h3.854V27.564h3.967V23.652h7.737V27.6h3.854v3.968h3.854V35.54h3.854v3.968h3.968v3.968h3.854v3.968h3.854v3.968h3.854v3.968h3.854v3.968h3.854V63.2h3.854v3.968H197.3v3.918h3.765v-.016h3.549V67.13h3.854V63.162h3.854V59.307h3.854V55.34h3.968V51.372H224V47.4h3.854V43.436h3.854V39.468h3.854V35.5h3.854V31.533h3.854V27.564h3.967V23.652h7.738V27.6h3.854v3.968h3.854V35.54h3.854v3.968H270.5v3.968h3.854v3.968h3.854v3.968h3.854v3.968h3.854v3.968h3.854V63.2h3.854v3.968h3.968v3.918h3.765v-.016h3.783V67.13H309V63.162h3.854V59.307H316.7V55.34h3.968V51.372h3.854V47.4h3.854V43.436h3.854V39.468h3.853V35.5h3.854V31.533h3.854V27.564h3.968V23.652H355.5V27.6h3.854v3.968h3.854V35.54h3.854v3.968h3.967v3.968h3.854v3.968h3.854v3.968h3.854v3.968h3.854v3.968H390.3V63.2h3.854v3.968h3.967v3.918h3.765V47.447h-3.834V43.48h-3.968V39.512h-3.854V35.544h-3.854V31.576h-3.854V27.608h-3.854V23.641h-3.854V19.672h-3.854V15.818h-3.967V11.85h-3.854V7.882h-3.854V3.915H355.43V0Z" transform="translate(0 0)" fill="#3a3c6a"/>
        <path id="Trazado_5549-4" data-name="Trazado 5549" d="M347.752,0V3.954h-3.967V7.921h-3.854V11.89h-3.854v3.968h-3.854v3.855h-3.854v3.968h-3.854v3.968h-3.854v3.968h-3.967v3.968H312.84v3.968h-3.854v3.968h-3.854v3.968h-3.774v-.039h-3.835V43.48h-3.967V39.511H289.7V35.544h-3.854V31.576h-3.854V27.608H278.14V23.641h-3.854V19.672h-3.854V15.818h-3.967V11.85h-3.854V7.882h-3.854V3.914H254.9V0h-7.677V3.954h-3.967V7.921H239.4V11.89H235.55v3.968H231.7v3.855h-3.854v3.968h-3.854v3.968h-3.854v3.968h-3.967v3.968h-3.854v3.968h-3.854v3.968h-3.854v3.968h-3.54v-.039h-3.835V43.48h-3.967V39.511H189.41V35.544h-3.854V31.576H181.7V27.608h-3.854V23.641h-3.854V19.672h-3.854V15.818h-3.967V11.85h-3.854V7.882h-3.854V3.914H154.61V0h-7.677V3.954h-3.967V7.921h-3.854V11.89h-3.854v3.968H131.4v3.855h-3.854v3.968H123.7v3.968h-3.854v3.968h-3.968v3.968H112.02v3.968h-3.854v3.968h-3.854v3.968h-3.774v-.039H96.7V43.48H92.736V39.511H88.882V35.544H85.028V31.576H81.175V27.608H77.32V23.641H73.466V19.672H69.612V15.818H65.645V11.85H61.791V7.882H57.937V3.914H54.083V0H46.405V3.954H42.439V7.921H38.585V11.89H34.731v3.968H30.877v3.855H27.023v3.968H23.169v3.968H19.315v3.968H15.347v3.968H11.493v3.968H7.639v3.968H3.785v3.968H0V71.071H3.794V67.13H7.648V63.162H11.5V59.307h3.854V55.34h3.967V51.372h3.854V47.4h3.854V43.436h3.854V39.468H34.74V35.5h3.854V31.532h3.854V27.564h3.968V23.652h7.737V27.6h3.854v3.968H61.86V35.54h3.854v3.968h3.967v3.967h3.854v3.969h3.854v3.968h3.854v3.967H85.1v3.968h3.854V63.2h3.854v3.968h3.967v3.918h3.766v-.015h3.783V67.13h3.854V63.162h3.854V59.307h3.854V55.34h3.967V51.372H123.7V47.4h3.854V43.436h3.854V39.468h3.854V35.5h3.854V31.532h3.854V27.564h3.967V23.652h7.737V27.6h3.854v3.968h3.854V35.54h3.854v3.968h3.968v3.967h3.854v3.969h3.854v3.968h3.854v3.967h3.854v3.968h3.854V63.2h3.854v3.968H197.3v3.918h3.765v-.015h3.549V67.13h3.854V63.162h3.854V59.307h3.854V55.34h3.968V51.372H224V47.4h3.854V43.436h3.854V39.468h3.854V35.5h3.854V31.532h3.854V27.564h3.967V23.652h7.738V27.6h3.854v3.968h3.854V35.54h3.854v3.968H270.5v3.967h3.854v3.969h3.854v3.968h3.854v3.967h3.854v3.968h3.854V63.2h3.854v3.968h3.968v3.918h3.765v-.015h3.783V67.13H309V63.162h3.854V59.307H316.7V55.34h3.968V51.372h3.854V47.4h3.854V43.436h3.854V39.468h3.853V35.5h3.854V31.532h3.854V27.564h3.968V23.652H355.5V27.6h3.854v3.968h3.854V35.54h3.854v3.968h3.967v3.967h3.854v3.969h3.854v3.968h3.854v3.967h3.854v3.968H390.3V63.2h3.854v3.968h3.967v3.918h3.765V47.447h-3.834V43.48h-3.968V39.511h-3.854V35.544h-3.854V31.576h-3.854V27.608h-3.854V23.641h-3.854V19.672h-3.854V15.818h-3.967V11.85h-3.854V7.882h-3.854V3.914H355.43V0Z" transform="translate(0 23.444)" fill="#c3296a"/>
        <path id="Trazado_5550-4" data-name="Trazado 5550" d="M347.752,0V3.954h-3.967V7.921h-3.854v3.968h-3.854v3.968h-3.854v3.854h-3.854v3.968h-3.854v3.968h-3.854v3.968h-3.967v3.968H312.84v3.968h-3.854v3.968h-3.854v3.968h-3.774v-.039h-3.835V43.479h-3.967V39.511H289.7V35.544h-3.854V31.576h-3.854V27.608H278.14V23.64h-3.854V19.672h-3.854V15.818h-3.967V11.85h-3.854V7.882h-3.854V3.914H254.9V0h-7.677V3.954h-3.967V7.921H239.4v3.968H235.55v3.968H231.7v3.854h-3.854v3.968h-3.854v3.968h-3.854v3.968h-3.967v3.968h-3.854v3.968h-3.854v3.968h-3.854v3.968h-3.54v-.039h-3.835V43.479h-3.967V39.511H189.41V35.544h-3.854V31.576H181.7V27.608h-3.854V23.64h-3.854V19.672h-3.854V15.818h-3.967V11.85h-3.854V7.882h-3.854V3.914H154.61V0h-7.677V3.954h-3.967V7.921h-3.854v3.968h-3.854v3.968H131.4v3.854h-3.854v3.968H123.7v3.968h-3.854v3.968h-3.968v3.968H112.02v3.968h-3.854v3.968h-3.854v3.968h-3.774v-.039H96.7V43.479H92.736V39.511H88.882V35.544H85.028V31.576H81.175V27.608H77.32V23.64H73.466V19.672H69.612V15.818H65.645V11.85H61.791V7.882H57.937V3.914H54.083V0H46.405V3.954H42.439V7.921H38.585v3.968H34.731v3.968H30.877v3.854H27.023v3.968H23.169v3.968H19.315v3.968H15.347v3.968H11.493v3.968H7.639v3.968H3.785v3.968H0V71.071H3.794V67.129H7.648V63.162H11.5V59.307h3.854V55.34h3.967V51.372h3.854V47.4h3.854V43.436h3.854V39.468H34.74V35.5h3.854V31.532h3.854V27.564h3.968V23.652h7.737V27.6h3.854v3.968H61.86V35.54h3.854v3.967h3.967v3.968h3.854v3.968h3.854v3.968h3.854v3.968H85.1v3.968h3.854V63.2h3.854v3.968h3.967v3.918h3.766v-.015h3.783V67.129h3.854V63.162h3.854V59.307h3.854V55.34h3.967V51.372H123.7V47.4h3.854V43.436h3.854V39.468h3.854V35.5h3.854V31.532h3.854V27.564h3.967V23.652h7.737V27.6h3.854v3.968h3.854V35.54h3.854v3.967h3.968v3.968h3.854v3.968h3.854v3.968h3.854v3.968h3.854v3.968h3.854V63.2h3.854v3.968H197.3v3.918h3.765v-.015h3.549V67.129h3.854V63.162h3.854V59.307h3.854V55.34h3.968V51.372H224V47.4h3.854V43.436h3.854V39.468h3.854V35.5h3.854V31.532h3.854V27.564h3.967V23.652h7.738V27.6h3.854v3.968h3.854V35.54h3.854v3.967H270.5v3.968h3.854v3.968h3.854v3.968h3.854v3.968h3.854v3.968h3.854V63.2h3.854v3.968h3.968v3.918h3.765v-.015h3.783V67.129H309V63.162h3.854V59.307H316.7V55.34h3.968V51.372h3.854V47.4h3.854V43.436h3.854V39.468h3.853V35.5h3.854V31.532h3.854V27.564h3.968V23.652H355.5V27.6h3.854v3.968h3.854V35.54h3.854v3.967h3.967v3.968h3.854v3.968h3.854v3.968h3.854v3.968h3.854v3.968H390.3V63.2h3.854v3.968h3.967v3.918h3.765V47.447h-3.834V43.479h-3.968V39.511h-3.854V35.544h-3.854V31.576h-3.854V27.608h-3.854V23.64h-3.854V19.672h-3.854V15.818h-3.967V11.85h-3.854V7.882h-3.854V3.914H355.43V0Z" transform="translate(0 46.888)" fill="#602162"/>
      </g>
    </g>
  </g>
</svg>
