<svg xmlns="http://www.w3.org/2000/svg" width="53.335" height="22.288" viewBox="0 0 53.335 22.288">
  <g id="Grupo_1288" data-name="Grupo 1288" opacity="0.35">
    <path id="Trazado_1445" data-name="Trazado 1445" d="M9.954,8.234v.884c.017.008.025.016.033.016.244.017.248.017.251.259,0,.3,0,.6,0,.924h.3V11.5l.3.014v1.162l.291.023v.888h.3v1.191h.3v1.184l.267.016v.866c.024.013.032.021.041.022.242.018.247.018.251.262.006.3,0,.6,0,.923h.3v1.186h.3v1.176l.3.024v.887l.286.013v.271h-.864l-.017.3H11.458l-.025.295h-.868c-.013.023-.022.031-.022.039-.019.245-.018.246-.272.255-.1,0-.2,0-.307,0v-.583l-.269-.013V20.734l-.3-.014c0-.206,0-.4,0-.6,0-.084,0-.169,0-.253s.019-.211-.028-.274S9.2,19.545,9.1,19.52v-.871L8.8,18.636V17.459H8.5V16.28L8.2,16.259v-.884l-.289-.014L7.9,15.084H7.62v.966c0,.221.018.209-.211.207-.02,0-.039,0-.075.008v.884l-.3.014v1.174l-.3.013v1.171l-.3.017v.884l-.289.018v1.171h-.3V22.5H5.295v-.283H4.111l-.017-.3H3.257c-.016-.022-.025-.03-.026-.038-.028-.23-.028-.237-.267-.249-.2-.01-.4,0-.614,0v-.3a.479.479,0,0,1,.113-.015c.12.013.165-.03.163-.157,0-.3.007-.594.013-.891,0-.038,0-.077.006-.123l.285-.016V18.96l.3-.016V17.769h.292v-.895l.265-.02V15.688l.305-.016V14.5h.3v-.89c.293-.067.3-.067.3-.4,0-.262,0-.524,0-.8l.289-.017V11.221h.3V10.035l.3-.015V9.136l.261-.018V7.936h.3V7.647H5.849v.293H5.579v.285h-.3v.3h-.3v.3h-.3v.3h-.3v.3h-.3v.3h-.3v.3l-.268.013v.286h-.3v.3h-.3v.3h-.3v.3h-.3v.3h-.3v.3h-.3v.294H1.483V11.8h-.3v-.3h-.3v-.3h-.3v-.3h-.3v-.3H0V10.33H.282v-.3h.3v-.3h.3v-.3h.3v-.3h.3v-.3l.273-.013v-.29h.3v-.3h.3v-.3h.3v-.3h.3v-.3h.3v-.3h.3V6.76L3.8,6.748V6.459h.3v-.3h.3v-.3h.3v-.3h.3v-.3h.3v-.3h.3v-.3H6.14V4.367H5.858v-.3L5.59,4.059V3.475H5.3V2l.282-.015v-.58l.282-.013c0-.154.005-.3,0-.448C5.854.838,5.9.8,6,.809c.142.006.285,0,.442,0v-.3h.585L7.044.219H8.49c.006.087.011.169.018.275h.57c.005.109.01.2.015.3h.582v.594l.27.016V1.98L10.233,2v1.47H9.951v.592l-.268.013v.288H9.39v.306h.55v.3h.3v.3h.3v.3h.3v.3h.3v.3h.3v.3h.3v.3l.268.013v.285h.3v.3h.3v.3h.3v.3h.3v.3h.3v.3h.3v.3l.268.014v.285h.3v.3h.3v.3h.294l.016.294.283.014c0,.091.008.179.013.283l.281.014V10.6H15.25v.3h-.3v.3h-.3v.3h-.3v.3h-.3v.291H13.8V11.8h-.3v-.3h-.3v-.3h-.3v-.3h-.3v-.3h-.3v-.3h-.3v-.294l-.268-.014V9.722h-.3v-.3h-.3v-.3h-.3v-.3h-.3v-.3h-.3v-.3h-.31V7.945H9.693v.289Z" transform="translate(12.635 -0.219)" fill="#fafafa"/>
    <path id="Trazado_5988" data-name="Trazado 5988" d="M9.954,8.234v.884c.017.008.025.016.033.016.244.017.248.017.251.259,0,.3,0,.6,0,.924h.3V11.5l.3.014v1.162l.291.023v.888h.3v1.191h.3v1.184l.267.016v.866c.024.013.032.021.041.022.242.018.247.018.251.262.006.3,0,.6,0,.923h.3v1.186h.3v1.176l.3.024v.887l.286.013v.271h-.864l-.017.3H11.458l-.025.295h-.868c-.013.023-.022.031-.022.039-.019.245-.018.246-.272.255-.1,0-.2,0-.307,0v-.583l-.269-.013V20.734l-.3-.014c0-.206,0-.4,0-.6,0-.084,0-.169,0-.253s.019-.211-.028-.274S9.2,19.545,9.1,19.52v-.871L8.8,18.636V17.459H8.5V16.28L8.2,16.259v-.884l-.289-.014L7.9,15.084H7.62v.966c0,.221.018.209-.211.207-.02,0-.039,0-.075.008v.884l-.3.014v1.174l-.3.013v1.171l-.3.017v.884l-.289.018v1.171h-.3V22.5H5.295v-.283H4.111l-.017-.3H3.257c-.016-.022-.025-.03-.026-.038-.028-.23-.028-.237-.267-.249-.2-.01-.4,0-.614,0v-.3a.479.479,0,0,1,.113-.015c.12.013.165-.03.163-.157,0-.3.007-.594.013-.891,0-.038,0-.077.006-.123l.285-.016V18.96l.3-.016V17.769h.292v-.895l.265-.02V15.688l.305-.016V14.5h.3v-.89c.293-.067.3-.067.3-.4,0-.262,0-.524,0-.8l.289-.017V11.221h.3V10.035l.3-.015V9.136l.261-.018V7.936h.3V7.647H5.849v.293H5.579v.285h-.3v.3h-.3v.3h-.3v.3h-.3v.3h-.3v.3h-.3v.3l-.268.013v.286h-.3v.3h-.3v.3h-.3v.3h-.3v.3h-.3v.3h-.3v.294H1.483V11.8h-.3v-.3h-.3v-.3h-.3v-.3h-.3v-.3H0V10.33H.282v-.3h.3v-.3h.3v-.3h.3v-.3h.3v-.3l.273-.013v-.29h.3v-.3h.3v-.3h.3v-.3h.3v-.3h.3v-.3h.3V6.76L3.8,6.748V6.459h.3v-.3h.3v-.3h.3v-.3h.3v-.3h.3v-.3h.3v-.3H6.14V4.367H5.858v-.3L5.59,4.059V3.475H5.3V2l.282-.015v-.58l.282-.013c0-.154.005-.3,0-.448C5.854.838,5.9.8,6,.809c.142.006.285,0,.442,0v-.3h.585L7.044.219H8.49c.006.087.011.169.018.275h.57c.005.109.01.2.015.3h.582v.594l.27.016V1.98L10.233,2v1.47H9.951v.592l-.268.013v.288H9.39v.306h.55v.3h.3v.3h.3v.3h.3v.3h.3v.3h.3v.3h.3v.3l.268.013v.285h.3v.3h.3v.3h.3v.3h.3v.3h.3v.3h.3v.3l.268.014v.285h.3v.3h.3v.3h.294l.016.294.283.014c0,.091.008.179.013.283l.281.014V10.6H15.25v.3h-.3v.3h-.3v.3h-.3v.3h-.3v.291H13.8V11.8h-.3v-.3h-.3v-.3h-.3v-.3h-.3v-.3h-.3v-.3h-.3v-.294l-.268-.014V9.722h-.3v-.3h-.3v-.3h-.3v-.3h-.3v-.3h-.3v-.3h-.31V7.945H9.693v.289Z" transform="translate(37.802 -0.219)" fill="#fafafa"/>
    <path id="Trazado_1446" data-name="Trazado 1446" d="M136.012,8.148v.584h.286V9.59l.286.023v.576h.289v.583h.3v.859l.291.023v.573l.261.014v.572h.292v.865l.289.016v.578h.3v.584h.3v.864l.28.017v.28h-.849l-.02.284h-.276v1.171l.28.014c0,.187,0,.365,0,.543,0,.15.017.3.011.45-.005.122.037.17.157.155a.625.625,0,0,1,.115.009v.873h.294v1.166h.288v.279l-.276.012v.282h-1.162c-.006.106-.01.191-.016.3h-1.113l-.021.281h-.857v-.568l-.267-.013V20.105l-.288-.016v-.867l-.287-.013v-1.15h-.294v-.866h-.577l-.02.266h-.831v-.272h-.3v.567h-.293v1.166h-.3v.86c-.023.015-.03.023-.039.024-.225.025-.235.025-.243.261-.01.295,0,.59,0,.893l-.293.015v.866h-.822l-.029,0c-.262-.012-.262-.012-.288-.288h-.87l-.019-.279H128.56c-.006-.106-.01-.191-.015-.292l-.269-.014V20.4h.279V19.241l.287-.014V18.36l.288-.017V17.2l.292-.015v-.874h-.571v-.291h-.577c0-.272,0-.532,0-.792,0-.023.056-.058.091-.065a1.025,1.025,0,0,1,.186,0v-.584l.289-.013v-.57l.291-.013v-.571l.288-.015v-.857l.265-.014v-.573h.291v-.583h.3V10.78l.281-.017v-.85l.3-.015V9.329l.291-.014V8.746l.3-.015V7.868h.249v-.3h-.258v.284h-.292v.286h-.291v.291h-.291v.291h-.291v.291h-.291v.291h-.291v.287l-.262.012V9.89h-.291v.291h-.291v.291h-.291v.291h-.291v.291h-.291v.291h-.291v.287h-.248v-.281h-.3v-.291h-.291V10.77h-.291v-.291h-.291v-.291h-.286V9.618h.282V9.33l.289-.013c0-.094.008-.179.013-.278h.279V8.747h.292l.014-.289.278-.014c0-.089.009-.174.014-.275l.235-.015c.009-.017.017-.025.018-.033.018-.243.018-.255.352-.268.156-.006.236-.031.216-.207-.012-.108.083-.082.146-.086s.161.013.144-.1c-.024-.161.052-.207.2-.187a.474.474,0,0,0,.089-.007c.006-.084.012-.169.019-.27l.276-.019.019-.272.276-.017.015-.274.249-.016c.005-.093.01-.179.016-.275l.277-.014c0-.088.008-.173.013-.276l.28-.014c0-.092.008-.177.013-.278l.279-.013.014-.278h.279V4.954h.293V4.663h.292v-.3h.548v-.3h-.274V3.78l-.267-.013V3.192h-.283V1.457h.277V.878L131.7.864V.583h.291v-.3h.569L132.58,0h2l.023.277h.557v.3h.291V.862l.262.013v.572h.285V3.183l-.277.013v.568l-.262.015v.277l-.287.013v.294h.545l.017.274.277.022.017.256a.188.188,0,0,0,.066.019c.157-.018.254.02.226.207,0,.023.045.073.075.079a1.248,1.248,0,0,0,.3.025c.143-.01.2.043.178.182a.521.521,0,0,0,.007.1c.086.008.2-.014.248.031s.038.159.057.263l.267.013.013.277.251.012.013.282h.278l.014.292h.278c0,.1.009.189.013.292h.279l.013.292h.279c0,.1.008.189.013.287h.279v.291h.292v.29l.262.014v.283h.3v.291h.291v.291h.291v.291h.291V9.61h.286v.57h-.278v.292h-.292v.292h-.292v.291h-.292v.291h-.291v.285h-.254v-.277H139.2v-.291H138.9v-.291h-.291v-.291h-.291v-.291h-.291V9.9h-.291V9.609l-.262-.014V9.315h-.291V9.023h-.291V8.732H136.6V8.441h-.291v-.29h-.3v-.29h-.283v.287Z" transform="translate(-125.969 0)" fill="#fafafa"/>
    <path id="Trazado_5989" data-name="Trazado 5989" d="M136.012,8.148v.584h.286V9.59l.286.023v.576h.289v.583h.3v.859l.291.023v.573l.261.014v.572h.292v.865l.289.016v.578h.3v.584h.3v.864l.28.017v.28h-.849l-.02.284h-.276v1.171l.28.014c0,.187,0,.365,0,.543,0,.15.017.3.011.45-.005.122.037.17.157.155a.625.625,0,0,1,.115.009v.873h.294v1.166h.288v.279l-.276.012v.282h-1.162c-.006.106-.01.191-.016.3h-1.113l-.021.281h-.857v-.568l-.267-.013V20.105l-.288-.016v-.867l-.287-.013v-1.15h-.294v-.866h-.577l-.02.266h-.831v-.272h-.3v.567h-.293v1.166h-.3v.86c-.023.015-.03.023-.039.024-.225.025-.235.025-.243.261-.01.295,0,.59,0,.893l-.293.015v.866h-.822l-.029,0c-.262-.012-.262-.012-.288-.288h-.87l-.019-.279H128.56c-.006-.106-.01-.191-.015-.292l-.269-.014V20.4h.279V19.241l.287-.014V18.36l.288-.017V17.2l.292-.015v-.874h-.571v-.291h-.577c0-.272,0-.532,0-.792,0-.023.056-.058.091-.065a1.025,1.025,0,0,1,.186,0v-.584l.289-.013v-.57l.291-.013v-.571l.288-.015v-.857l.265-.014v-.573h.291v-.583h.3V10.78l.281-.017v-.85l.3-.015V9.329l.291-.014V8.746l.3-.015V7.868h.249v-.3h-.258v.284h-.292v.286h-.291v.291h-.291v.291h-.291v.291h-.291v.291h-.291v.287l-.262.012V9.89h-.291v.291h-.291v.291h-.291v.291h-.291v.291h-.291v.291h-.291v.287h-.248v-.281h-.3v-.291h-.291V10.77h-.291v-.291h-.291v-.291h-.286V9.618h.282V9.33l.289-.013c0-.094.008-.179.013-.278h.279V8.747h.292l.014-.289.278-.014c0-.089.009-.174.014-.275l.235-.015c.009-.017.017-.025.018-.033.018-.243.018-.255.352-.268.156-.006.236-.031.216-.207-.012-.108.083-.082.146-.086s.161.013.144-.1c-.024-.161.052-.207.2-.187a.474.474,0,0,0,.089-.007c.006-.084.012-.169.019-.27l.276-.019.019-.272.276-.017.015-.274.249-.016c.005-.093.01-.179.016-.275l.277-.014c0-.088.008-.173.013-.276l.28-.014c0-.092.008-.177.013-.278l.279-.013.014-.278h.279V4.954h.293V4.663h.292v-.3h.548v-.3h-.274V3.78l-.267-.013V3.192h-.283V1.457h.277V.878L131.7.864V.583h.291v-.3h.569L132.58,0h2l.023.277h.557v.3h.291V.862l.262.013v.572h.285V3.183l-.277.013v.568l-.262.015v.277l-.287.013v.294h.545l.017.274.277.022.017.256a.188.188,0,0,0,.066.019c.157-.018.254.02.226.207,0,.023.045.073.075.079a1.248,1.248,0,0,0,.3.025c.143-.01.2.043.178.182a.521.521,0,0,0,.007.1c.086.008.2-.014.248.031s.038.159.057.263l.267.013.013.277.251.012.013.282h.278l.014.292h.278c0,.1.009.189.013.292h.279l.013.292h.279c0,.1.008.189.013.287h.279v.291h.292v.29l.262.014v.283h.3v.291h.291v.291h.291v.291h.291V9.61h.286v.57h-.278v.292h-.292v.292h-.292v.291h-.292v.291h-.291v.285h-.254v-.277H139.2v-.291H138.9v-.291h-.291v-.291h-.291v-.291h-.291V9.9h-.291V9.609l-.262-.014V9.315h-.291V9.023h-.291V8.732H136.6V8.441h-.291v-.29h-.3v-.29h-.283v.287Z" transform="translate(-100.801 0)" fill="#fafafa"/>
  </g>
</svg>
