<svg xmlns="http://www.w3.org/2000/svg" xmlns:xlink="http://www.w3.org/1999/xlink" width="44.728" height="32.697" viewBox="0 0 44.728 32.697">
  <defs>
    <clipPath id="clip-path">
      <rect id="Rectángulo_2223" data-name="Rectángulo 2223" width="44.728" height="32.697" fill="#fafafa"/>
    </clipPath>
  </defs>
  <g id="Grupo_1292" data-name="Grupo 1292" opacity="0.35">
    <g id="Grupo_1181" data-name="Grupo 1181" clip-path="url(#clip-path)">
      <path id="Trazado_5993" data-name="Trazado 5993" d="M106.572,50.35a4.929,4.929,0,0,0,1.232-5.508.8.8,0,0,1,.4-.953,3.453,3.453,0,0,1,1.337-.484,56.814,56.814,0,0,1,6.924-.069,4.655,4.655,0,0,1,3.911,3.185c1.356,3.209,2.634,6.451,3.933,9.683a28.935,28.935,0,0,1,1.123,3.04.823.823,0,0,1-.026.439.805.805,0,0,1-1.067.531.848.848,0,0,1-.457-.326c-1.243-2.287-2.37-4.637-3.593-6.936a.9.9,0,0,0-.074-.117.8.8,0,0,0-1.442.424s0,.008,0,.013c-.054,2.566-.044,5.134-.06,7.7,0,.174-.008.347-.017.531a.806.806,0,0,1-.8.763c-1.041.011-2.038.033-3.027-.044-.31-.024-.683-.481-.856-.826-.789-1.575-1.473-3.2-2.279-4.77-1.125-2.186-2.524-4.084-4.884-4.941a.806.806,0,0,1-.282-1.339" transform="translate(-80.725 -32.841)" fill="#fafafa"/>
      <path id="Trazado_5994" data-name="Trazado 5994" d="M17.631,45.035a4.618,4.618,0,0,0,1.12,4.527,1.14,1.14,0,0,1-.384,1.811c-3.4,1.5-4.674,4.892-6.037,8.1-.771,1.814-1.664,2.721-3.678,2.361a6.573,6.573,0,0,0-1.386-.062A1.014,1.014,0,0,1,6.23,60.594l1.556-9.58a2.369,2.369,0,0,0,.115-.825,3.564,3.564,0,0,0-.454-.856c-.254.146-.609.231-.743.45-.438.716-.8,1.478-1.182,2.228Q3.7,55.6,1.879,59.192c-.28.553-.569,1.161-1.336.852-.788-.317-.551-.951-.322-1.528q2.369-5.975,4.745-11.947a5.7,5.7,0,0,1,5.744-3.923c1.794.013,3.593.116,5.379.3l.019,0a1.739,1.739,0,0,1,1.525,2.089" transform="translate(0 -32.378)" fill="#fafafa"/>
      <path id="Trazado_5995" data-name="Trazado 5995" d="M64.4,94.817H57.048a.932.932,0,0,1-.931-.941c.012-1.123.033-2.214-.037-3.3a1.152,1.152,0,0,0-.047-.251A.925.925,0,0,0,54.459,90a1.737,1.737,0,0,0-.116.15c-.727,1.055-1.323,2.2-2.092,3.223a.99.99,0,0,1-.394.287.926.926,0,0,1-1.274-.618.75.75,0,0,1,0-.484c1.143-2.512,2.312-5.02,3.635-7.441a6.006,6.006,0,0,1,5.968-3.283c.8.042,1.607-.027,2.4.039A5.08,5.08,0,0,1,66.812,84.3c1.556,2.744,2.926,5.6,4.3,8.438a.6.6,0,0,1-.024.434.941.941,0,0,1-1.165.6.852.852,0,0,1-.458-.264c-.812-1.089-1.458-2.3-2.236-3.418l-.008-.011a.927.927,0,0,0-1.653.426c0,.011,0,.021,0,.032-.119,1.111-.172,2.23-.235,3.4a.932.932,0,0,1-.93.882" transform="translate(-38.375 -62.12)" fill="#fafafa"/>
      <path id="Trazado_5996" data-name="Trazado 5996" d="M124.532,4.633a4.642,4.642,0,0,1-4.67,4.658A4.724,4.724,0,0,1,115.191,4.6,4.73,4.73,0,0,1,119.832,0a4.658,4.658,0,0,1,4.7,4.633" transform="translate(-87.456 0)" fill="#fafafa"/>
      <path id="Trazado_5997" data-name="Trazado 5997" d="M38.784,4.66A4.077,4.077,0,0,1,42.92,8.745,4.151,4.151,0,0,1,38.87,12.83,4.1,4.1,0,0,1,34.7,8.771,4.017,4.017,0,0,1,38.784,4.66" transform="translate(-26.344 -3.538)" fill="#fafafa"/>
      <path id="Trazado_5998" data-name="Trazado 5998" d="M81.53,49.708A3.63,3.63,0,0,1,77.823,46.1a3.7,3.7,0,0,1,3.693-3.775,3.774,3.774,0,0,1,3.743,3.639,3.715,3.715,0,0,1-3.728,3.747" transform="translate(-59.085 -32.132)" fill="#fafafa"/>
    </g>
  </g>
</svg>
