<svg xmlns="http://www.w3.org/2000/svg" xmlns:xlink="http://www.w3.org/1999/xlink" width="108.922" height="105.588" viewBox="0 0 108.922 105.588">
  <defs>
    <clipPath id="clip-path">
      <rect id="Rectángulo_2313" data-name="Rectángulo 2313" width="108.922" height="105.588" transform="translate(-0.131 0)" fill="#fff" stroke="#707070" stroke-width="1"/>
    </clipPath>
  </defs>
  <g id="Enmascarar_grupo_58" data-name="Enmascarar grupo 58" transform="translate(0.131 0)" clip-path="url(#clip-path)">
    <g id="Grupo_1285" data-name="Grupo 1285" transform="translate(127.643 197.971) rotate(-180)">
      <path id="Trazado_6024" data-name="Trazado 6024" d="M154.961,105.823a24.474,24.474,0,0,1-15.989-30.644l13.915-44.75A16.227,16.227,0,1,0,121.9,20.784l-1.836,5.9A18.319,18.319,0,0,1,97.186,38.794L85.007,35A9.045,9.045,0,0,0,73.712,40.98,26.5,26.5,0,0,1,40.613,58.5L0,45.856l2.759-8.874,40.613,12.64A17.231,17.231,0,0,0,64.889,38.235,18.319,18.319,0,0,1,87.766,26.129l12.18,3.79a9.044,9.044,0,0,0,11.295-5.977l1.836-5.9a25.467,25.467,0,1,1,48.633,15.136l-13.915,44.75a15.127,15.127,0,1,0,28.887,8.99l6.332-20.363A18.319,18.319,0,0,1,205.89,54.446l35.6,11.08L238.732,74.4l-35.6-11.08A9.044,9.044,0,0,0,191.836,69.3L185.5,89.661a24.458,24.458,0,0,1-30.543,16.162" transform="translate(67.993 262.444) rotate(-106)" fill="#818184" opacity="0.708"/>
      <path id="Trazado_6025" data-name="Trazado 6025" d="M150.248,97.549a.266.266,0,0,1,.138-.512,19.348,19.348,0,0,0,4.363.482.265.265,0,0,1,0,.531,19.888,19.888,0,0,1-4.482-.494l-.02-.006m-4.2-1.465-.036-.014a19.843,19.843,0,0,1-3.816-2.405.266.266,0,0,1-.041-.373.263.263,0,0,1,.371-.042,19.336,19.336,0,0,0,3.715,2.341.265.265,0,0,1-.193.493m13.046,1.427a.264.264,0,0,1-.179-.193.267.267,0,0,1,.2-.319,19.579,19.579,0,0,0,4.14-1.488.263.263,0,0,1,.353.122.267.267,0,0,1-.122.355,20.134,20.134,0,0,1-4.252,1.528.265.265,0,0,1-.138,0m-19.946-6.965a.261.261,0,0,1-.128-.088,20.181,20.181,0,0,1-2.381-3.842.267.267,0,0,1,.125-.354.263.263,0,0,1,.352.125,19.633,19.633,0,0,0,2.318,3.741.267.267,0,0,1-.044.373.263.263,0,0,1-.243.046m27.9,3.048a.261.261,0,0,1-.127-.086.267.267,0,0,1,.04-.373,19.6,19.6,0,0,0,3.087-3.146.264.264,0,1,1,.415.327,20.125,20.125,0,0,1-3.171,3.232.264.264,0,0,1-.245.047m-31.7-11.065a.264.264,0,0,1-.179-.2,20.115,20.115,0,0,1-.474-4.508.264.264,0,1,1,.528,0,19.578,19.578,0,0,0,.462,4.388.266.266,0,0,1-.2.317.261.261,0,0,1-.136-.005M34.4,49.817l-.145-.045a.266.266,0,0,1,.157-.507l.145.045a21.556,21.556,0,0,0,4.16.858.266.266,0,0,1-.056.528,22.115,22.115,0,0,1-4.262-.879m-4.4-1.37-4.258-1.325a.266.266,0,0,1,.158-.507l4.258,1.325a.266.266,0,0,1-.158.507M21.477,45.8l-4.258-1.325a.266.266,0,0,1,.158-.507l4.258,1.325a.266.266,0,0,1-.158.507M12.96,43.146,8.7,41.82a.266.266,0,0,1,.158-.507l4.258,1.325a.266.266,0,0,1-.157.507M4.443,40.5.186,39.17a.266.266,0,0,1,.157-.507L4.6,39.988a.266.266,0,0,1-.158.507M43.061,50.687a.266.266,0,0,1,.052-.518,21.474,21.474,0,0,0,4.31-.9.263.263,0,0,1,.331.173.266.266,0,0,1-.173.333,22,22,0,0,1-4.416.924.261.261,0,0,1-.1-.01m129.453,35.9-.034-.013a.265.265,0,0,1-.127-.353,19.961,19.961,0,0,0,.971-2.511l.521-1.675a.264.264,0,1,1,.5.157l-.521,1.675a20.525,20.525,0,0,1-1,2.579.265.265,0,0,1-.318.141m-121-38.6a.261.261,0,0,1-.152-.124.266.266,0,0,1,.1-.361,21.787,21.787,0,0,0,3.606-2.544.263.263,0,0,1,.372.026.266.266,0,0,1-.028.375,22.3,22.3,0,0,1-3.693,2.606.261.261,0,0,1-.207.022m83.909,25.647a.264.264,0,0,1-.178-.314c.107-.45.231-.9.369-1.347l.922-2.967a.264.264,0,1,1,.5.157l-.923,2.967c-.134.432-.255.873-.359,1.311a.265.265,0,0,1-.318.2l-.018-.005m-77.2-31.487a.257.257,0,0,1-.082-.042.266.266,0,0,1-.049-.372,21.661,21.661,0,0,0,2.3-3.775.264.264,0,1,1,.476.228,22.165,22.165,0,0,1-2.356,3.868.263.263,0,0,1-.288.093M175.35,78.088a.265.265,0,0,1-.173-.332l1.332-4.284a.264.264,0,1,1,.5.157l-1.332,4.283a.265.265,0,0,1-.331.175M138.042,65.061a.265.265,0,0,1-.173-.332l1.332-4.283a.264.264,0,1,1,.5.157l-1.332,4.283a.265.265,0,0,1-.331.175M62.148,34.146l-.024-.008a.266.266,0,0,1-.142-.347,13.936,13.936,0,0,1,2.409-3.86.264.264,0,1,1,.4.351,13.4,13.4,0,0,0-2.316,3.713.265.265,0,0,1-.322.152M178.014,69.521a.265.265,0,0,1-.173-.332l1.332-4.283a.264.264,0,1,1,.5.157l-1.332,4.283a.265.265,0,0,1-.331.175M140.706,56.494a.265.265,0,0,1-.173-.332l1.332-4.283a.264.264,0,1,1,.5.157l-1.332,4.283a.265.265,0,0,1-.331.175M67.959,27.537a.262.262,0,0,1-.15-.121.267.267,0,0,1,.1-.362,13.923,13.923,0,0,1,4.242-1.6.263.263,0,0,1,.31.209.266.266,0,0,1-.209.312,13.391,13.391,0,0,0-4.082,1.537.262.262,0,0,1-.21.023M180.951,61.062a.247.247,0,0,1-.051-.022.266.266,0,0,1-.1-.361,13.921,13.921,0,0,1,2.83-3.561.264.264,0,0,1,.373.019.266.266,0,0,1-.02.375,13.374,13.374,0,0,0-2.722,3.425.264.264,0,0,1-.309.124M143.37,47.927a.265.265,0,0,1-.173-.332l1.332-4.283a.264.264,0,1,1,.5.157L143.7,47.751a.265.265,0,0,1-.331.175m-66.81-22.1a.266.266,0,0,1,.115-.517,13.991,13.991,0,0,1,2.274.5l2.073.645a.265.265,0,0,1-.158.507l-2.074-.645A13.427,13.427,0,0,0,76.6,25.84a.293.293,0,0,1-.043-.009m12.821,3.791L85.123,28.3a.266.266,0,0,1,.158-.507l4.258,1.325a.266.266,0,0,1-.158.507M93.7,30.669a.266.266,0,0,1,.105-.518,13.2,13.2,0,0,0,4.345-.3.263.263,0,0,1,.317.2.266.266,0,0,1-.2.32,13.728,13.728,0,0,1-4.518.312.248.248,0,0,1-.053-.011m8.535-2.027a.261.261,0,0,1-.145-.113.266.266,0,0,1,.085-.366,13.426,13.426,0,0,0,3.277-2.891.263.263,0,0,1,.372-.038.266.266,0,0,1,.036.374,13.96,13.96,0,0,1-3.406,3,.262.262,0,0,1-.218.028m85.231,26.514a.263.263,0,0,1-.164-.148.267.267,0,0,1,.138-.349,13.85,13.85,0,0,1,4.393-1.105.265.265,0,0,1,.041.529,13.314,13.314,0,0,0-4.226,1.063.264.264,0,0,1-.183.01m-41.436-15.8a.265.265,0,0,1-.173-.332l1.332-4.283a.264.264,0,1,1,.5.157l-1.332,4.283a.265.265,0,0,1-.331.175M196.2,54.441a.266.266,0,0,1,.144-.511c.241.061.485.13.726.2l3.552,1.105a.266.266,0,0,1-.158.507l-3.552-1.105c-.231-.072-.466-.138-.7-.2l-.014,0M226.017,63.7l-4.259-1.325a.266.266,0,0,1,.158-.507l4.258,1.325a.266.266,0,0,1-.157.507M217.5,61.049l-4.258-1.325a.266.266,0,0,1,.158-.507l4.258,1.325a.266.266,0,0,1-.158.507M208.983,58.4l-4.258-1.325a.266.266,0,0,1,.158-.507l4.258,1.325a.266.266,0,0,1-.158.507M107.8,21.822l-.015-.005a.265.265,0,0,1-.154-.341c.09-.24.174-.487.251-.733l1.1-3.529a.264.264,0,1,1,.5.157l-1.1,3.529c-.08.256-.167.513-.261.762a.264.264,0,0,1-.326.161m40.9,8.97a.265.265,0,0,1-.173-.332l1.005-3.232c.107-.345.207-.7.3-1.046a.264.264,0,1,1,.512.13c-.091.358-.193.719-.3,1.072l-1.005,3.232a.265.265,0,0,1-.331.175m-38.124-17.5-.023-.008a.265.265,0,0,1-.142-.347,21.3,21.3,0,0,1,2.18-3.975.264.264,0,1,1,.432.3,20.744,20.744,0,0,0-2.125,3.874.264.264,0,0,1-.322.152m40.071,8.779a.265.265,0,0,1-.185-.263,20.693,20.693,0,0,0-.309-4.405.266.266,0,0,1,.213-.309.263.263,0,0,1,.307.213,21.2,21.2,0,0,1,.317,4.519.266.266,0,0,1-.274.256.259.259,0,0,1-.069-.012M115.66,6a.262.262,0,0,1-.115-.073.266.266,0,0,1,.016-.375,21.312,21.312,0,0,1,3.625-2.706.264.264,0,0,1,.361.094.267.267,0,0,1-.094.364,20.784,20.784,0,0,0-3.534,2.639A.264.264,0,0,1,115.66,6m33.421,7.326a.262.262,0,0,1-.165-.152,20.816,20.816,0,0,0-2.1-3.876.267.267,0,0,1,.067-.37.263.263,0,0,1,.367.067,21.327,21.327,0,0,1,2.152,3.974.267.267,0,0,1-.144.347.262.262,0,0,1-.179.009M123.3,1.469a.263.263,0,0,1-.172-.17.266.266,0,0,1,.168-.335A21.1,21.1,0,0,1,127.7,0a.265.265,0,0,1,.055.528,20.562,20.562,0,0,0-4.3.938.263.263,0,0,1-.161,0M144.05,6.014a.26.26,0,0,1-.1-.059,20.429,20.429,0,0,0-3.512-2.646.265.265,0,0,1,.27-.457,20.925,20.925,0,0,1,3.6,2.714.266.266,0,0,1-.26.448M132.1.523a.266.266,0,0,1,.109-.517,21.153,21.153,0,0,1,3.969.829c.139.047.289.091.432.139a.265.265,0,0,1,.166.335.268.268,0,0,1-.334.168q-.208-.07-.419-.135h0a20.609,20.609,0,0,0-3.87-.808.274.274,0,0,1-.05-.011" transform="translate(70.242 253.98) rotate(-106)" fill="#fff"/>
      <path id="Trazado_6026" data-name="Trazado 6026" d="M2.328,1.186.185.519A.266.266,0,0,1,.343.012L2.486.679a.266.266,0,0,1-.158.507" transform="translate(68.829 14.92) rotate(-106)" fill="#fff"/>
      <path id="Trazado_6027" data-name="Trazado 6027" d="M.168.374,242.4,0l-.168,109.348L0,109.721Z" transform="translate(66.814 263.25) rotate(-106)" fill="none"/>
    </g>
  </g>
</svg>
