<svg id="Grupo_1287" data-name="Grupo 1287" xmlns="http://www.w3.org/2000/svg" xmlns:xlink="http://www.w3.org/1999/xlink" width="214.864" height="70.513" viewBox="0 0 214.864 70.513">
  <defs>
    <clipPath id="clip-path">
      <rect id="Rectángulo_2224" data-name="Rectángulo 2224" width="64.912" height="70.513" fill="none"/>
    </clipPath>
    <clipPath id="clip-path-2">
      <rect id="Rectángulo_2227" data-name="Rectángulo 2227" width="19.713" height="28.766" fill="none"/>
    </clipPath>
  </defs>
  <g id="Grupo_1184" data-name="Grupo 1184" transform="translate(149.952)">
    <g id="Grupo_1183" data-name="Grupo 1183" clip-path="url(#clip-path)">
      <path id="Trazado_5999" data-name="Trazado 5999" d="M202.987,155.518v2.967h1.651l-.8,4.057L203,162.6v2.9l.761.074,1.088,4.01H203v3.073h5.8v4.609H185.7V130.659h24.019c.011.236.03.464.03.692,0,6.432-.006,12.865.015,19.3a1.129,1.129,0,0,1-.629,1.191,7.654,7.654,0,0,0-2.909,3.148.892.892,0,0,1-.933.543c-.753-.039-1.508-.011-2.309-.011m-14.9-18.21h4.334v-2.883h-4.334Zm14.884-.008h4.348v-2.866h-4.348Zm4.332,4.169h-4.33v2.889h4.33Zm-7.429,7.026h-4.35v2.9h4.35Zm-7.419-.04c-1.4,0-2.736-.008-4.068.015a.459.459,0,0,0-.312.323c-.027.86-.015,1.721-.015,2.587h4.4ZM188.1,158.45h4.321v-2.89H188.1Zm11.759-2.892h-4.328v2.911h4.328Zm-7.428,7.071h-4.339v2.864h4.339Zm7.412-28.2h-4.322v2.88h4.322Zm3.144,16.961h4.325v-2.913h-4.325Zm-7.5-7.043h4.371v-2.934c-1.364,0-2.677-.012-3.988.018a.556.556,0,0,0-.366.4c-.036.815-.017,1.633-.017,2.517m-3.054-2.934c-1.375,0-2.688-.01-4,.015a.5.5,0,0,0-.362.333c-.032.858-.017,1.719-.017,2.587h4.38Zm3.09,24.094h4.338v-2.9h-4.338Zm-7.42,7.044h4.318v-2.9H188.1Zm11.766-2.886h-4.324v2.874h4.324Z" transform="translate(-161.56 -112.184)" fill="#656563"/>
      <path id="Trazado_6000" data-name="Trazado 6000" d="M92.525,15.45v49.63H81.661c0-.5,0-1.006,0-1.513,0-1.46-.008-2.921.009-4.381a1.268,1.268,0,0,1,.19-.707,9.537,9.537,0,0,0,1.854-5.539A19.431,19.431,0,0,0,81.9,43.8a2.33,2.33,0,0,1-.229-.929q-.017-17.244-.01-34.488V7.91L108.529,0V15.45Zm-7.67-3.14H105.4V9.429H84.855Zm.02,7.244h3.894v-2.9H84.875ZM88.79,45.637H84.87V48.53h3.92Zm-.021,7.253h-3.9v2.885h3.9ZM84.873,41.3h3.892V38.4H84.873Zm3.9-17.379H84.864V26.8h3.909Zm.008,7.25h-3.9v2.9h3.9Z" transform="translate(-71.042)" fill="#b9b9b9"/>
      <path id="Trazado_6002" data-name="Trazado 6002" d="M351.053,312.295v7.079h-1.627V312.31c-.387-.106-.722-.178-1.045-.289-1.952-.672-2.808-2.291-2.989-4.354a15.064,15.064,0,0,1,2.128-9.274,6.673,6.673,0,0,1,1.265-1.5,1.876,1.876,0,0,1,2.924.058,11.27,11.27,0,0,1,1.877,2.665,14.873,14.873,0,0,1,1.535,7.207c-.082,2.679-.973,4.888-4.067,5.473" transform="translate(-300.431 -254.336)" fill="#4f7435"/>
      <path id="Trazado_6003" data-name="Trazado 6003" d="M4.127,312.726a4.3,4.3,0,0,1-3.869-3.535A9.285,9.285,0,0,1,0,307.1a15.384,15.384,0,0,1,2.175-8.218,7.471,7.471,0,0,1,1.151-1.428,2,2,0,0,1,3.091-.049,7.645,7.645,0,0,1,1.348,1.7A15.224,15.224,0,0,1,9.8,307.365c-.107,3.149-1.236,4.618-4.081,5.4v7.058H4.127Z" transform="translate(0.001 -254.744)" fill="#81a347"/>
      <path id="Trazado_6004" data-name="Trazado 6004" d="M438.491,312.259v7.151H436.9v-6.946c-.881-.445-1.647-.806-2.384-1.228a.7.7,0,0,1-.186-.6,15.977,15.977,0,0,0-.07-9.562,1.994,1.994,0,0,1,.2-1.776,17.912,17.912,0,0,1,1.576-2.222,1.969,1.969,0,0,1,3.217-.067,10.694,10.694,0,0,1,1.871,2.756,14.4,14.4,0,0,1,1.307,8.48,4.374,4.374,0,0,1-3.944,4.019" transform="translate(-377.7 -254.322)" fill="#81a347"/>
    </g>
  </g>
  <text id="_._" data-name="………………………………….…" transform="translate(9.856 60.757)" fill="#b7b7b7" font-size="6" font-family="FuturaPT-Heavy, Futura PT" font-weight="800"><tspan x="0" y="0">………………………………….…</tspan></text>
  <g id="Grupo_1186" data-name="Grupo 1186" transform="translate(0 34.954)">
    <g id="Grupo_1185" data-name="Grupo 1185" clip-path="url(#clip-path-2)">
      <path id="Trazado_6005" data-name="Trazado 6005" d="M.079,9.6A9.83,9.83,0,0,1,19.088,6.314,8.759,8.759,0,0,1,19,13.022a27.142,27.142,0,0,1-3.348,5.825c-1.67,2.265-3.414,4.475-5.126,6.709-.146.19-.288.383-.434.573-.125.163-.259.182-.389.01-2.414-3.19-5.045-6.22-7.137-9.648A17.663,17.663,0,0,1,.389,11.781C.2,11.072.126,10.336,0,9.612L.079,9.6m6.434.645A3.386,3.386,0,1,0,9.891,6.887a3.379,3.379,0,0,0-3.378,3.355" transform="translate(0 0)" fill="#c5296a"/>
    </g>
  </g>
</svg>
