<svg xmlns="http://www.w3.org/2000/svg" width="611.844" height="32.262" viewBox="0 0 611.844 32.262">
  <g id="Grupo_1294" data-name="Grupo 1294" transform="translate(0)" opacity="0.15">
    <path id="Trazado_5374" data-name="Trazado 5374" d="M32.262,32.262H0V0Z" transform="translate(225.131) rotate(90)" fill="#3a3d81" opacity="0.607"/>
    <path id="Trazado_6029" data-name="Trazado 6029" d="M32.262,32.262H0V0Z" transform="translate(482.901) rotate(90)" fill="#3a3d81" opacity="0.607"/>
    <path id="Trazado_5384" data-name="Trazado 5384" d="M0,32.262H32.262V0Z" transform="translate(257.77) rotate(90)" fill="#3a3d81" opacity="0.607"/>
    <path id="Trazado_6031" data-name="Trazado 6031" d="M0,32.262H32.262V0Z" transform="translate(515.54) rotate(90)" fill="#3a3d81" opacity="0.607"/>
    <path id="Trazado_5385" data-name="Trazado 5385" d="M32.262,32.262H0V0Z" transform="translate(160.735) rotate(90)" fill="#3a3d81" opacity="0.607"/>
    <path id="Trazado_6032" data-name="Trazado 6032" d="M32.262,32.262H0V0Z" transform="translate(418.505) rotate(90)" fill="#3a3d81" opacity="0.607"/>
    <path id="Trazado_6047" data-name="Trazado 6047" d="M32.262,32.262H0V0Z" transform="translate(611.844) rotate(90)" fill="#3a3d81" opacity="0.607"/>
    <path id="Trazado_5395" data-name="Trazado 5395" d="M0,0V32.262L32.262,0Z" transform="translate(32.262) rotate(90)" fill="#3a3d81" opacity="0.607"/>
    <path id="Trazado_6035" data-name="Trazado 6035" d="M0,0V32.262L32.262,0Z" transform="translate(290.032) rotate(90)" fill="#3a3d81" opacity="0.607"/>
    <path id="Trazado_5397" data-name="Trazado 5397" d="M0,32.262H32.262V0Z" transform="translate(96.693) rotate(90)" fill="#3a3d81" opacity="0.607"/>
    <path id="Trazado_6037" data-name="Trazado 6037" d="M0,32.262H32.262V0Z" transform="translate(354.463) rotate(90)" fill="#3a3d81" opacity="0.607"/>
    <path id="Trazado_6048" data-name="Trazado 6048" d="M0,32.262H32.262V0Z" transform="translate(547.802) rotate(90)" fill="#3a3d81" opacity="0.607"/>
    <path id="Trazado_5418" data-name="Trazado 5418" d="M32.262,0H0V32.262Z" transform="translate(193.339) rotate(90)" fill="#3a3d81" opacity="0.607"/>
    <path id="Trazado_6040" data-name="Trazado 6040" d="M32.262,0H0V32.262Z" transform="translate(451.109) rotate(90)" fill="#3a3d81" opacity="0.607"/>
    <path id="Trazado_5429" data-name="Trazado 5429" d="M32.262,32.262H0V0Z" transform="translate(128.767) rotate(90)" fill="#3a3d81" opacity="0.607"/>
    <path id="Trazado_6042" data-name="Trazado 6042" d="M32.262,32.262H0V0Z" transform="translate(386.537) rotate(90)" fill="#3a3d81" opacity="0.607"/>
    <path id="Trazado_6049" data-name="Trazado 6049" d="M32.262,32.262H0V0Z" transform="translate(579.876) rotate(90)" fill="#3a3d81" opacity="0.607"/>
    <path id="Trazado_5430" data-name="Trazado 5430" d="M32.262,32.262H0V0Z" transform="translate(64.524) rotate(90)" fill="#3a3d81" opacity="0.607"/>
    <path id="Trazado_6043" data-name="Trazado 6043" d="M32.262,32.262H0V0Z" transform="translate(322.294) rotate(90)" fill="#3a3d81" opacity="0.607"/>
  </g>
</svg>
