<svg xmlns="http://www.w3.org/2000/svg" xmlns:xlink="http://www.w3.org/1999/xlink" width="1366" height="347" viewBox="0 0 1366 347">
  <defs>
    <clipPath id="clip-path">
      <rect id="Rectángulo_2262" data-name="Rectángulo 2262" width="1366" height="347" transform="translate(0 2720)" fill="#fff" stroke="#707070" stroke-width="1"/>
    </clipPath>
    <clipPath id="clip-path-2">
      <rect id="Rectángulo_2259" data-name="Rectángulo 2259" width="116.397" height="95.596" fill="#963b62"/>
    </clipPath>
    <clipPath id="clip-path-18">
      <rect id="Rectángulo_2260" data-name="Rectángulo 2260" width="52.861" height="112.301" fill="#963b62"/>
    </clipPath>
    <clipPath id="clip-path-34">
      <rect id="Rectángulo_2261" data-name="Rectángulo 2261" width="85.511" height="112.301" fill="#963b62"/>
    </clipPath>
  </defs>
  <g id="Grupo_1284" data-name="Grupo 1284" transform="translate(0 -2384)">
    <rect id="Rectángulo_2230" data-name="Rectángulo 2230" width="1366" height="347" transform="translate(0 2384)" fill="#3a3c6a"/>
    <g id="Enmascarar_grupo_56" data-name="Enmascarar grupo 56" transform="translate(0 -336)" opacity="0.564" clip-path="url(#clip-path)">
      <g id="Grupo_1249" data-name="Grupo 1249" transform="translate(0 -297.871)">
        <g id="Grupo_1195" data-name="Grupo 1195" transform="translate(79.241 2994.474)" opacity="0.43">
          <g id="Grupo_1192" data-name="Grupo 1192" transform="translate(0)" clip-path="url(#clip-path-2)">
            <path id="Trazado_6011" data-name="Trazado 6011" d="M.04,49.371c.271-1.733,5.834-2.4,8.426-4.615,3.8-3.246,11.16-27.813,12.088-29.7a44.469,44.469,0,0,1,5.8-8.625c2.7-2.818,8-10.675,9.064-3.486C35.5,4.875,33.805,5.917,32.1,8.2c-2.855,3.8-6.336,8.412-5.894,9.94C28.644,15.568,35.315,7.22,40,6.723c3.821-.407,14.724-4.582,13.159,1.6-.984,3.886-6.939,3.247-9.907,4.32-3.536,1.279-12.309,8.431-11.707,9.893,2.641-.783,8.615-4.727,10.55-4.985a20.147,20.147,0,0,1,11.4,1.558c.482.218,1.19,1.5,2.145,2.759,1.443,1.9,3.859,2.961,2.275,5.688-1.332,2.293-4.319.836-6.683-1.9-1.758-2.038-8.325-2.258-6.983-2.23.868.019-3.167.443-6.889,3.163-2.357,1.719-3.742,2.223-4,5.1a77.917,77.917,0,0,1,10.986-2.315c1.024-.1,11.056,4.294,11.584,7.461.228,1.354,3.234,12.579-4.132,7.658-2.053-1.373-1.325-3.839-2.707-5.465-.645-.759-4.754-1.86-5.8-2.221-.792-.274-5.592,1.942-10.3,4.434a32.071,32.071,0,0,0-1.58,6.787,40.672,40.672,0,0,0,5.6,6.866c5.424-.6,10.385-.932,11.35-2.106,1.186-1.44,3.018-6.121,5.089-6.411a3.194,3.194,0,0,1,3.629,3.472c-.1,3.331-2.956,8.759-6.013,10.389-2.009,1.073-18.556,7.475-27.676,6.7-5.371-.457-9.5.506-13.483,4.666C3.923,66.676-.473,52.627.04,49.371M106.5,23.988c-3.98,4.16-8.112,5.123-13.485,4.669-9.117-.778-25.665,5.625-27.676,6.7-3.056,1.633-5.915,7.06-6.012,10.389a3.2,3.2,0,0,0,3.628,3.474c2.072-.29,3.9-4.971,5.09-6.414.966-1.173,5.925-1.5,11.35-2.1a40.756,40.756,0,0,1,5.6,6.863,32.06,32.06,0,0,1-1.58,6.786C78.7,56.844,73.9,59.06,73.1,58.786c-1.045-.361-5.151-1.464-5.8-2.223-1.383-1.623-.653-4.09-2.708-5.463-7.367-4.922-4.361,6.3-4.132,7.655.529,3.167,10.56,7.557,11.582,7.461A77.815,77.815,0,0,0,83.035,63.9c-.261,2.881-1.648,3.385-4.007,5.107-3.722,2.72-7.756,3.141-6.89,3.16,1.346.03-5.222-.192-6.98-2.228-2.364-2.738-5.351-4.2-6.685-1.9-1.582,2.725.833,3.788,2.276,5.688.957,1.256,1.664,2.542,2.146,2.76a20.188,20.188,0,0,0,11.4,1.558c1.935-.26,7.907-4.2,10.547-4.985.6,1.462-8.168,8.611-11.707,9.89-2.965,1.073-8.92.433-9.905,4.32-1.563,6.179,9.339,2.005,13.159,1.6,4.688-.5,11.357-8.846,13.8-11.415.442,1.529-3.039,6.142-5.893,9.942-1.714,2.277-3.4,3.319-3.322,5.247,1.058,7.189,6.365-.668,9.061-3.486a44.582,44.582,0,0,0,5.8-8.625c.928-1.883,8.286-26.45,12.086-29.7,2.594-2.211,8.156-2.881,8.428-4.612.51-3.259-3.884-17.307-9.861-22.236" transform="translate(0 0.001)" fill="#963b62"/>
          </g>
        </g>
        <g id="Grupo_1236" data-name="Grupo 1236" transform="translate(79.241 3219.076)" opacity="0.43">
          <g id="Grupo_1192-2" data-name="Grupo 1192" transform="translate(0)" clip-path="url(#clip-path-2)">
            <path id="Trazado_6011-2" data-name="Trazado 6011" d="M.04,49.371c.271-1.733,5.834-2.4,8.426-4.615,3.8-3.246,11.16-27.813,12.088-29.7a44.469,44.469,0,0,1,5.8-8.625c2.7-2.818,8-10.675,9.064-3.486C35.5,4.875,33.805,5.917,32.1,8.2c-2.855,3.8-6.336,8.412-5.894,9.94C28.644,15.568,35.315,7.22,40,6.723c3.821-.407,14.724-4.582,13.159,1.6-.984,3.886-6.939,3.247-9.907,4.32-3.536,1.279-12.309,8.431-11.707,9.893,2.641-.783,8.615-4.727,10.55-4.985a20.147,20.147,0,0,1,11.4,1.558c.482.218,1.19,1.5,2.145,2.759,1.443,1.9,3.859,2.961,2.275,5.688-1.332,2.293-4.319.836-6.683-1.9-1.758-2.038-8.325-2.258-6.983-2.23.868.019-3.167.443-6.889,3.163-2.357,1.719-3.742,2.223-4,5.1a77.917,77.917,0,0,1,10.986-2.315c1.024-.1,11.056,4.294,11.584,7.461.228,1.354,3.234,12.579-4.132,7.658-2.053-1.373-1.325-3.839-2.707-5.465-.645-.759-4.754-1.86-5.8-2.221-.792-.274-5.592,1.942-10.3,4.434a32.071,32.071,0,0,0-1.58,6.787,40.672,40.672,0,0,0,5.6,6.866c5.424-.6,10.385-.932,11.35-2.106,1.186-1.44,3.018-6.121,5.089-6.411a3.194,3.194,0,0,1,3.629,3.472c-.1,3.331-2.956,8.759-6.013,10.389-2.009,1.073-18.556,7.475-27.676,6.7-5.371-.457-9.5.506-13.483,4.666C3.923,66.676-.473,52.627.04,49.371M106.5,23.988c-3.98,4.16-8.112,5.123-13.485,4.669-9.117-.778-25.665,5.625-27.676,6.7-3.056,1.633-5.915,7.06-6.012,10.389a3.2,3.2,0,0,0,3.628,3.474c2.072-.29,3.9-4.971,5.09-6.414.966-1.173,5.925-1.5,11.35-2.1a40.756,40.756,0,0,1,5.6,6.863,32.06,32.06,0,0,1-1.58,6.786C78.7,56.844,73.9,59.06,73.1,58.786c-1.045-.361-5.151-1.464-5.8-2.223-1.383-1.623-.653-4.09-2.708-5.463-7.367-4.922-4.361,6.3-4.132,7.655.529,3.167,10.56,7.557,11.582,7.461A77.815,77.815,0,0,0,83.035,63.9c-.261,2.881-1.648,3.385-4.007,5.107-3.722,2.72-7.756,3.141-6.89,3.16,1.346.03-5.222-.192-6.98-2.228-2.364-2.738-5.351-4.2-6.685-1.9-1.582,2.725.833,3.788,2.276,5.688.957,1.256,1.664,2.542,2.146,2.76a20.188,20.188,0,0,0,11.4,1.558c1.935-.26,7.907-4.2,10.547-4.985.6,1.462-8.168,8.611-11.707,9.89-2.965,1.073-8.92.433-9.905,4.32-1.563,6.179,9.339,2.005,13.159,1.6,4.688-.5,11.357-8.846,13.8-11.415.442,1.529-3.039,6.142-5.893,9.942-1.714,2.277-3.4,3.319-3.322,5.247,1.058,7.189,6.365-.668,9.061-3.486a44.582,44.582,0,0,0,5.8-8.625c.928-1.883,8.286-26.45,12.086-29.7,2.594-2.211,8.156-2.881,8.428-4.612.51-3.259-3.884-17.307-9.861-22.236" transform="translate(0 0.001)" fill="#963b62"/>
          </g>
        </g>
        <g id="Grupo_1213" data-name="Grupo 1213" transform="translate(138.679 3106.775)" opacity="0.43">
          <g id="Grupo_1192-3" data-name="Grupo 1192" transform="translate(0)" clip-path="url(#clip-path-2)">
            <path id="Trazado_6011-3" data-name="Trazado 6011" d="M.04,49.371c.271-1.733,5.834-2.4,8.426-4.615,3.8-3.246,11.16-27.813,12.088-29.7a44.469,44.469,0,0,1,5.8-8.625c2.7-2.818,8-10.675,9.064-3.486C35.5,4.875,33.805,5.917,32.1,8.2c-2.855,3.8-6.336,8.412-5.894,9.94C28.644,15.568,35.315,7.22,40,6.723c3.821-.407,14.724-4.582,13.159,1.6-.984,3.886-6.939,3.247-9.907,4.32-3.536,1.279-12.309,8.431-11.707,9.893,2.641-.783,8.615-4.727,10.55-4.985a20.147,20.147,0,0,1,11.4,1.558c.482.218,1.19,1.5,2.145,2.759,1.443,1.9,3.859,2.961,2.275,5.688-1.332,2.293-4.319.836-6.683-1.9-1.758-2.038-8.325-2.258-6.983-2.23.868.019-3.167.443-6.889,3.163-2.357,1.719-3.742,2.223-4,5.1a77.917,77.917,0,0,1,10.986-2.315c1.024-.1,11.056,4.294,11.584,7.461.228,1.354,3.234,12.579-4.132,7.658-2.053-1.373-1.325-3.839-2.707-5.465-.645-.759-4.754-1.86-5.8-2.221-.792-.274-5.592,1.942-10.3,4.434a32.071,32.071,0,0,0-1.58,6.787,40.672,40.672,0,0,0,5.6,6.866c5.424-.6,10.385-.932,11.35-2.106,1.186-1.44,3.018-6.121,5.089-6.411a3.194,3.194,0,0,1,3.629,3.472c-.1,3.331-2.956,8.759-6.013,10.389-2.009,1.073-18.556,7.475-27.676,6.7-5.371-.457-9.5.506-13.483,4.666C3.923,66.676-.473,52.627.04,49.371M106.5,23.988c-3.98,4.16-8.112,5.123-13.485,4.669-9.117-.778-25.665,5.625-27.676,6.7-3.056,1.633-5.915,7.06-6.012,10.389a3.2,3.2,0,0,0,3.628,3.474c2.072-.29,3.9-4.971,5.09-6.414.966-1.173,5.925-1.5,11.35-2.1a40.756,40.756,0,0,1,5.6,6.863,32.06,32.06,0,0,1-1.58,6.786C78.7,56.844,73.9,59.06,73.1,58.786c-1.045-.361-5.151-1.464-5.8-2.223-1.383-1.623-.653-4.09-2.708-5.463-7.367-4.922-4.361,6.3-4.132,7.655.529,3.167,10.56,7.557,11.582,7.461A77.815,77.815,0,0,0,83.035,63.9c-.261,2.881-1.648,3.385-4.007,5.107-3.722,2.72-7.756,3.141-6.89,3.16,1.346.03-5.222-.192-6.98-2.228-2.364-2.738-5.351-4.2-6.685-1.9-1.582,2.725.833,3.788,2.276,5.688.957,1.256,1.664,2.542,2.146,2.76a20.188,20.188,0,0,0,11.4,1.558c1.935-.26,7.907-4.2,10.547-4.985.6,1.462-8.168,8.611-11.707,9.89-2.965,1.073-8.92.433-9.905,4.32-1.563,6.179,9.339,2.005,13.159,1.6,4.688-.5,11.357-8.846,13.8-11.415.442,1.529-3.039,6.142-5.893,9.942-1.714,2.277-3.4,3.319-3.322,5.247,1.058,7.189,6.365-.668,9.061-3.486a44.582,44.582,0,0,0,5.8-8.625c.928-1.883,8.286-26.45,12.086-29.7,2.594-2.211,8.156-2.881,8.428-4.612.51-3.259-3.884-17.307-9.861-22.236" transform="translate(0 0.001)" fill="#963b62"/>
          </g>
        </g>
        <g id="Grupo_1225" data-name="Grupo 1225" transform="translate(138.679 3331.378)" opacity="0.43">
          <g id="Grupo_1192-4" data-name="Grupo 1192" transform="translate(0)" clip-path="url(#clip-path-2)">
            <path id="Trazado_6011-4" data-name="Trazado 6011" d="M.04,49.371c.271-1.733,5.834-2.4,8.426-4.615,3.8-3.246,11.16-27.813,12.088-29.7a44.469,44.469,0,0,1,5.8-8.625c2.7-2.818,8-10.675,9.064-3.486C35.5,4.875,33.805,5.917,32.1,8.2c-2.855,3.8-6.336,8.412-5.894,9.94C28.644,15.568,35.315,7.22,40,6.723c3.821-.407,14.724-4.582,13.159,1.6-.984,3.886-6.939,3.247-9.907,4.32-3.536,1.279-12.309,8.431-11.707,9.893,2.641-.783,8.615-4.727,10.55-4.985a20.147,20.147,0,0,1,11.4,1.558c.482.218,1.19,1.5,2.145,2.759,1.443,1.9,3.859,2.961,2.275,5.688-1.332,2.293-4.319.836-6.683-1.9-1.758-2.038-8.325-2.258-6.983-2.23.868.019-3.167.443-6.889,3.163-2.357,1.719-3.742,2.223-4,5.1a77.917,77.917,0,0,1,10.986-2.315c1.024-.1,11.056,4.294,11.584,7.461.228,1.354,3.234,12.579-4.132,7.658-2.053-1.373-1.325-3.839-2.707-5.465-.645-.759-4.754-1.86-5.8-2.221-.792-.274-5.592,1.942-10.3,4.434a32.071,32.071,0,0,0-1.58,6.787,40.672,40.672,0,0,0,5.6,6.866c5.424-.6,10.385-.932,11.35-2.106,1.186-1.44,3.018-6.121,5.089-6.411a3.194,3.194,0,0,1,3.629,3.472c-.1,3.331-2.956,8.759-6.013,10.389-2.009,1.073-18.556,7.475-27.676,6.7-5.371-.457-9.5.506-13.483,4.666C3.923,66.676-.473,52.627.04,49.371M106.5,23.988c-3.98,4.16-8.112,5.123-13.485,4.669-9.117-.778-25.665,5.625-27.676,6.7-3.056,1.633-5.915,7.06-6.012,10.389a3.2,3.2,0,0,0,3.628,3.474c2.072-.29,3.9-4.971,5.09-6.414.966-1.173,5.925-1.5,11.35-2.1a40.756,40.756,0,0,1,5.6,6.863,32.06,32.06,0,0,1-1.58,6.786C78.7,56.844,73.9,59.06,73.1,58.786c-1.045-.361-5.151-1.464-5.8-2.223-1.383-1.623-.653-4.09-2.708-5.463-7.367-4.922-4.361,6.3-4.132,7.655.529,3.167,10.56,7.557,11.582,7.461A77.815,77.815,0,0,0,83.035,63.9c-.261,2.881-1.648,3.385-4.007,5.107-3.722,2.72-7.756,3.141-6.89,3.16,1.346.03-5.222-.192-6.98-2.228-2.364-2.738-5.351-4.2-6.685-1.9-1.582,2.725.833,3.788,2.276,5.688.957,1.256,1.664,2.542,2.146,2.76a20.188,20.188,0,0,0,11.4,1.558c1.935-.26,7.907-4.2,10.547-4.985.6,1.462-8.168,8.611-11.707,9.89-2.965,1.073-8.92.433-9.905,4.32-1.563,6.179,9.339,2.005,13.159,1.6,4.688-.5,11.357-8.846,13.8-11.415.442,1.529-3.039,6.142-5.893,9.942-1.714,2.277-3.4,3.319-3.322,5.247,1.058,7.189,6.365-.668,9.061-3.486a44.582,44.582,0,0,0,5.8-8.625c.928-1.883,8.286-26.45,12.086-29.7,2.594-2.211,8.156-2.881,8.428-4.612.51-3.259-3.884-17.307-9.861-22.236" transform="translate(0 0.001)" fill="#963b62"/>
          </g>
        </g>
        <g id="Grupo_1211" data-name="Grupo 1211" transform="translate(739.103 2994.474)" opacity="0.43">
          <g id="Grupo_1192-5" data-name="Grupo 1192" transform="translate(0)" clip-path="url(#clip-path-2)">
            <path id="Trazado_6011-5" data-name="Trazado 6011" d="M.04,49.371c.271-1.733,5.834-2.4,8.426-4.615,3.8-3.246,11.16-27.813,12.088-29.7a44.469,44.469,0,0,1,5.8-8.625c2.7-2.818,8-10.675,9.064-3.486C35.5,4.875,33.805,5.917,32.1,8.2c-2.855,3.8-6.336,8.412-5.894,9.94C28.644,15.568,35.315,7.22,40,6.723c3.821-.407,14.724-4.582,13.159,1.6-.984,3.886-6.939,3.247-9.907,4.32-3.536,1.279-12.309,8.431-11.707,9.893,2.641-.783,8.615-4.727,10.55-4.985a20.147,20.147,0,0,1,11.4,1.558c.482.218,1.19,1.5,2.145,2.759,1.443,1.9,3.859,2.961,2.275,5.688-1.332,2.293-4.319.836-6.683-1.9-1.758-2.038-8.325-2.258-6.983-2.23.868.019-3.167.443-6.889,3.163-2.357,1.719-3.742,2.223-4,5.1a77.917,77.917,0,0,1,10.986-2.315c1.024-.1,11.056,4.294,11.584,7.461.228,1.354,3.234,12.579-4.132,7.658-2.053-1.373-1.325-3.839-2.707-5.465-.645-.759-4.754-1.86-5.8-2.221-.792-.274-5.592,1.942-10.3,4.434a32.071,32.071,0,0,0-1.58,6.787,40.672,40.672,0,0,0,5.6,6.866c5.424-.6,10.385-.932,11.35-2.106,1.186-1.44,3.018-6.121,5.089-6.411a3.194,3.194,0,0,1,3.629,3.472c-.1,3.331-2.956,8.759-6.013,10.389-2.009,1.073-18.556,7.475-27.676,6.7-5.371-.457-9.5.506-13.483,4.666C3.923,66.676-.473,52.627.04,49.371M106.5,23.988c-3.98,4.16-8.112,5.123-13.485,4.669-9.117-.778-25.665,5.625-27.676,6.7-3.056,1.633-5.915,7.06-6.012,10.389a3.2,3.2,0,0,0,3.628,3.474c2.072-.29,3.9-4.971,5.09-6.414.966-1.173,5.925-1.5,11.35-2.1a40.756,40.756,0,0,1,5.6,6.863,32.06,32.06,0,0,1-1.58,6.786C78.7,56.844,73.9,59.06,73.1,58.786c-1.045-.361-5.151-1.464-5.8-2.223-1.383-1.623-.653-4.09-2.708-5.463-7.367-4.922-4.361,6.3-4.132,7.655.529,3.167,10.56,7.557,11.582,7.461A77.815,77.815,0,0,0,83.035,63.9c-.261,2.881-1.648,3.385-4.007,5.107-3.722,2.72-7.756,3.141-6.89,3.16,1.346.03-5.222-.192-6.98-2.228-2.364-2.738-5.351-4.2-6.685-1.9-1.582,2.725.833,3.788,2.276,5.688.957,1.256,1.664,2.542,2.146,2.76a20.188,20.188,0,0,0,11.4,1.558c1.935-.26,7.907-4.2,10.547-4.985.6,1.462-8.168,8.611-11.707,9.89-2.965,1.073-8.92.433-9.905,4.32-1.563,6.179,9.339,2.005,13.159,1.6,4.688-.5,11.357-8.846,13.8-11.415.442,1.529-3.039,6.142-5.893,9.942-1.714,2.277-3.4,3.319-3.322,5.247,1.058,7.189,6.365-.668,9.061-3.486a44.582,44.582,0,0,0,5.8-8.625c.928-1.883,8.286-26.45,12.086-29.7,2.594-2.211,8.156-2.881,8.428-4.612.51-3.259-3.884-17.307-9.861-22.236" transform="translate(0 0.001)" fill="#963b62"/>
          </g>
        </g>
        <g id="Grupo_1237" data-name="Grupo 1237" transform="translate(739.103 3219.076)" opacity="0.43">
          <g id="Grupo_1192-6" data-name="Grupo 1192" transform="translate(0)" clip-path="url(#clip-path-2)">
            <path id="Trazado_6011-6" data-name="Trazado 6011" d="M.04,49.371c.271-1.733,5.834-2.4,8.426-4.615,3.8-3.246,11.16-27.813,12.088-29.7a44.469,44.469,0,0,1,5.8-8.625c2.7-2.818,8-10.675,9.064-3.486C35.5,4.875,33.805,5.917,32.1,8.2c-2.855,3.8-6.336,8.412-5.894,9.94C28.644,15.568,35.315,7.22,40,6.723c3.821-.407,14.724-4.582,13.159,1.6-.984,3.886-6.939,3.247-9.907,4.32-3.536,1.279-12.309,8.431-11.707,9.893,2.641-.783,8.615-4.727,10.55-4.985a20.147,20.147,0,0,1,11.4,1.558c.482.218,1.19,1.5,2.145,2.759,1.443,1.9,3.859,2.961,2.275,5.688-1.332,2.293-4.319.836-6.683-1.9-1.758-2.038-8.325-2.258-6.983-2.23.868.019-3.167.443-6.889,3.163-2.357,1.719-3.742,2.223-4,5.1a77.917,77.917,0,0,1,10.986-2.315c1.024-.1,11.056,4.294,11.584,7.461.228,1.354,3.234,12.579-4.132,7.658-2.053-1.373-1.325-3.839-2.707-5.465-.645-.759-4.754-1.86-5.8-2.221-.792-.274-5.592,1.942-10.3,4.434a32.071,32.071,0,0,0-1.58,6.787,40.672,40.672,0,0,0,5.6,6.866c5.424-.6,10.385-.932,11.35-2.106,1.186-1.44,3.018-6.121,5.089-6.411a3.194,3.194,0,0,1,3.629,3.472c-.1,3.331-2.956,8.759-6.013,10.389-2.009,1.073-18.556,7.475-27.676,6.7-5.371-.457-9.5.506-13.483,4.666C3.923,66.676-.473,52.627.04,49.371M106.5,23.988c-3.98,4.16-8.112,5.123-13.485,4.669-9.117-.778-25.665,5.625-27.676,6.7-3.056,1.633-5.915,7.06-6.012,10.389a3.2,3.2,0,0,0,3.628,3.474c2.072-.29,3.9-4.971,5.09-6.414.966-1.173,5.925-1.5,11.35-2.1a40.756,40.756,0,0,1,5.6,6.863,32.06,32.06,0,0,1-1.58,6.786C78.7,56.844,73.9,59.06,73.1,58.786c-1.045-.361-5.151-1.464-5.8-2.223-1.383-1.623-.653-4.09-2.708-5.463-7.367-4.922-4.361,6.3-4.132,7.655.529,3.167,10.56,7.557,11.582,7.461A77.815,77.815,0,0,0,83.035,63.9c-.261,2.881-1.648,3.385-4.007,5.107-3.722,2.72-7.756,3.141-6.89,3.16,1.346.03-5.222-.192-6.98-2.228-2.364-2.738-5.351-4.2-6.685-1.9-1.582,2.725.833,3.788,2.276,5.688.957,1.256,1.664,2.542,2.146,2.76a20.188,20.188,0,0,0,11.4,1.558c1.935-.26,7.907-4.2,10.547-4.985.6,1.462-8.168,8.611-11.707,9.89-2.965,1.073-8.92.433-9.905,4.32-1.563,6.179,9.339,2.005,13.159,1.6,4.688-.5,11.357-8.846,13.8-11.415.442,1.529-3.039,6.142-5.893,9.942-1.714,2.277-3.4,3.319-3.322,5.247,1.058,7.189,6.365-.668,9.061-3.486a44.582,44.582,0,0,0,5.8-8.625c.928-1.883,8.286-26.45,12.086-29.7,2.594-2.211,8.156-2.881,8.428-4.612.51-3.259-3.884-17.307-9.861-22.236" transform="translate(0 0.001)" fill="#963b62"/>
          </g>
        </g>
        <g id="Grupo_1215" data-name="Grupo 1215" transform="translate(798.54 3106.775)" opacity="0.43">
          <g id="Grupo_1192-7" data-name="Grupo 1192" transform="translate(0)" clip-path="url(#clip-path-2)">
            <path id="Trazado_6011-7" data-name="Trazado 6011" d="M.04,49.371c.271-1.733,5.834-2.4,8.426-4.615,3.8-3.246,11.16-27.813,12.088-29.7a44.469,44.469,0,0,1,5.8-8.625c2.7-2.818,8-10.675,9.064-3.486C35.5,4.875,33.805,5.917,32.1,8.2c-2.855,3.8-6.336,8.412-5.894,9.94C28.644,15.568,35.315,7.22,40,6.723c3.821-.407,14.724-4.582,13.159,1.6-.984,3.886-6.939,3.247-9.907,4.32-3.536,1.279-12.309,8.431-11.707,9.893,2.641-.783,8.615-4.727,10.55-4.985a20.147,20.147,0,0,1,11.4,1.558c.482.218,1.19,1.5,2.145,2.759,1.443,1.9,3.859,2.961,2.275,5.688-1.332,2.293-4.319.836-6.683-1.9-1.758-2.038-8.325-2.258-6.983-2.23.868.019-3.167.443-6.889,3.163-2.357,1.719-3.742,2.223-4,5.1a77.917,77.917,0,0,1,10.986-2.315c1.024-.1,11.056,4.294,11.584,7.461.228,1.354,3.234,12.579-4.132,7.658-2.053-1.373-1.325-3.839-2.707-5.465-.645-.759-4.754-1.86-5.8-2.221-.792-.274-5.592,1.942-10.3,4.434a32.071,32.071,0,0,0-1.58,6.787,40.672,40.672,0,0,0,5.6,6.866c5.424-.6,10.385-.932,11.35-2.106,1.186-1.44,3.018-6.121,5.089-6.411a3.194,3.194,0,0,1,3.629,3.472c-.1,3.331-2.956,8.759-6.013,10.389-2.009,1.073-18.556,7.475-27.676,6.7-5.371-.457-9.5.506-13.483,4.666C3.923,66.676-.473,52.627.04,49.371M106.5,23.988c-3.98,4.16-8.112,5.123-13.485,4.669-9.117-.778-25.665,5.625-27.676,6.7-3.056,1.633-5.915,7.06-6.012,10.389a3.2,3.2,0,0,0,3.628,3.474c2.072-.29,3.9-4.971,5.09-6.414.966-1.173,5.925-1.5,11.35-2.1a40.756,40.756,0,0,1,5.6,6.863,32.06,32.06,0,0,1-1.58,6.786C78.7,56.844,73.9,59.06,73.1,58.786c-1.045-.361-5.151-1.464-5.8-2.223-1.383-1.623-.653-4.09-2.708-5.463-7.367-4.922-4.361,6.3-4.132,7.655.529,3.167,10.56,7.557,11.582,7.461A77.815,77.815,0,0,0,83.035,63.9c-.261,2.881-1.648,3.385-4.007,5.107-3.722,2.72-7.756,3.141-6.89,3.16,1.346.03-5.222-.192-6.98-2.228-2.364-2.738-5.351-4.2-6.685-1.9-1.582,2.725.833,3.788,2.276,5.688.957,1.256,1.664,2.542,2.146,2.76a20.188,20.188,0,0,0,11.4,1.558c1.935-.26,7.907-4.2,10.547-4.985.6,1.462-8.168,8.611-11.707,9.89-2.965,1.073-8.92.433-9.905,4.32-1.563,6.179,9.339,2.005,13.159,1.6,4.688-.5,11.357-8.846,13.8-11.415.442,1.529-3.039,6.142-5.893,9.942-1.714,2.277-3.4,3.319-3.322,5.247,1.058,7.189,6.365-.668,9.061-3.486a44.582,44.582,0,0,0,5.8-8.625c.928-1.883,8.286-26.45,12.086-29.7,2.594-2.211,8.156-2.881,8.428-4.612.51-3.259-3.884-17.307-9.861-22.236" transform="translate(0 0.001)" fill="#963b62"/>
          </g>
        </g>
        <g id="Grupo_1226" data-name="Grupo 1226" transform="translate(798.54 3331.378)" opacity="0.43">
          <g id="Grupo_1192-8" data-name="Grupo 1192" transform="translate(0)" clip-path="url(#clip-path-2)">
            <path id="Trazado_6011-8" data-name="Trazado 6011" d="M.04,49.371c.271-1.733,5.834-2.4,8.426-4.615,3.8-3.246,11.16-27.813,12.088-29.7a44.469,44.469,0,0,1,5.8-8.625c2.7-2.818,8-10.675,9.064-3.486C35.5,4.875,33.805,5.917,32.1,8.2c-2.855,3.8-6.336,8.412-5.894,9.94C28.644,15.568,35.315,7.22,40,6.723c3.821-.407,14.724-4.582,13.159,1.6-.984,3.886-6.939,3.247-9.907,4.32-3.536,1.279-12.309,8.431-11.707,9.893,2.641-.783,8.615-4.727,10.55-4.985a20.147,20.147,0,0,1,11.4,1.558c.482.218,1.19,1.5,2.145,2.759,1.443,1.9,3.859,2.961,2.275,5.688-1.332,2.293-4.319.836-6.683-1.9-1.758-2.038-8.325-2.258-6.983-2.23.868.019-3.167.443-6.889,3.163-2.357,1.719-3.742,2.223-4,5.1a77.917,77.917,0,0,1,10.986-2.315c1.024-.1,11.056,4.294,11.584,7.461.228,1.354,3.234,12.579-4.132,7.658-2.053-1.373-1.325-3.839-2.707-5.465-.645-.759-4.754-1.86-5.8-2.221-.792-.274-5.592,1.942-10.3,4.434a32.071,32.071,0,0,0-1.58,6.787,40.672,40.672,0,0,0,5.6,6.866c5.424-.6,10.385-.932,11.35-2.106,1.186-1.44,3.018-6.121,5.089-6.411a3.194,3.194,0,0,1,3.629,3.472c-.1,3.331-2.956,8.759-6.013,10.389-2.009,1.073-18.556,7.475-27.676,6.7-5.371-.457-9.5.506-13.483,4.666C3.923,66.676-.473,52.627.04,49.371M106.5,23.988c-3.98,4.16-8.112,5.123-13.485,4.669-9.117-.778-25.665,5.625-27.676,6.7-3.056,1.633-5.915,7.06-6.012,10.389a3.2,3.2,0,0,0,3.628,3.474c2.072-.29,3.9-4.971,5.09-6.414.966-1.173,5.925-1.5,11.35-2.1a40.756,40.756,0,0,1,5.6,6.863,32.06,32.06,0,0,1-1.58,6.786C78.7,56.844,73.9,59.06,73.1,58.786c-1.045-.361-5.151-1.464-5.8-2.223-1.383-1.623-.653-4.09-2.708-5.463-7.367-4.922-4.361,6.3-4.132,7.655.529,3.167,10.56,7.557,11.582,7.461A77.815,77.815,0,0,0,83.035,63.9c-.261,2.881-1.648,3.385-4.007,5.107-3.722,2.72-7.756,3.141-6.89,3.16,1.346.03-5.222-.192-6.98-2.228-2.364-2.738-5.351-4.2-6.685-1.9-1.582,2.725.833,3.788,2.276,5.688.957,1.256,1.664,2.542,2.146,2.76a20.188,20.188,0,0,0,11.4,1.558c1.935-.26,7.907-4.2,10.547-4.985.6,1.462-8.168,8.611-11.707,9.89-2.965,1.073-8.92.433-9.905,4.32-1.563,6.179,9.339,2.005,13.159,1.6,4.688-.5,11.357-8.846,13.8-11.415.442,1.529-3.039,6.142-5.893,9.942-1.714,2.277-3.4,3.319-3.322,5.247,1.058,7.189,6.365-.668,9.061-3.486a44.582,44.582,0,0,0,5.8-8.625c.928-1.883,8.286-26.45,12.086-29.7,2.594-2.211,8.156-2.881,8.428-4.612.51-3.259-3.884-17.307-9.861-22.236" transform="translate(0 0.001)" fill="#963b62"/>
          </g>
        </g>
        <g id="Grupo_1205" data-name="Grupo 1205" transform="translate(415.786 2994.474)" opacity="0.43">
          <g id="Grupo_1192-9" data-name="Grupo 1192" transform="translate(0)" clip-path="url(#clip-path-2)">
            <path id="Trazado_6011-9" data-name="Trazado 6011" d="M.04,49.371c.271-1.733,5.834-2.4,8.426-4.615,3.8-3.246,11.16-27.813,12.088-29.7a44.469,44.469,0,0,1,5.8-8.625c2.7-2.818,8-10.675,9.064-3.486C35.5,4.875,33.805,5.917,32.1,8.2c-2.855,3.8-6.336,8.412-5.894,9.94C28.644,15.568,35.315,7.22,40,6.723c3.821-.407,14.724-4.582,13.159,1.6-.984,3.886-6.939,3.247-9.907,4.32-3.536,1.279-12.309,8.431-11.707,9.893,2.641-.783,8.615-4.727,10.55-4.985a20.147,20.147,0,0,1,11.4,1.558c.482.218,1.19,1.5,2.145,2.759,1.443,1.9,3.859,2.961,2.275,5.688-1.332,2.293-4.319.836-6.683-1.9-1.758-2.038-8.325-2.258-6.983-2.23.868.019-3.167.443-6.889,3.163-2.357,1.719-3.742,2.223-4,5.1a77.917,77.917,0,0,1,10.986-2.315c1.024-.1,11.056,4.294,11.584,7.461.228,1.354,3.234,12.579-4.132,7.658-2.053-1.373-1.325-3.839-2.707-5.465-.645-.759-4.754-1.86-5.8-2.221-.792-.274-5.592,1.942-10.3,4.434a32.071,32.071,0,0,0-1.58,6.787,40.672,40.672,0,0,0,5.6,6.866c5.424-.6,10.385-.932,11.35-2.106,1.186-1.44,3.018-6.121,5.089-6.411a3.194,3.194,0,0,1,3.629,3.472c-.1,3.331-2.956,8.759-6.013,10.389-2.009,1.073-18.556,7.475-27.676,6.7-5.371-.457-9.5.506-13.483,4.666C3.923,66.676-.473,52.627.04,49.371M106.5,23.988c-3.98,4.16-8.112,5.123-13.485,4.669-9.117-.778-25.665,5.625-27.676,6.7-3.056,1.633-5.915,7.06-6.012,10.389a3.2,3.2,0,0,0,3.628,3.474c2.072-.29,3.9-4.971,5.09-6.414.966-1.173,5.925-1.5,11.35-2.1a40.756,40.756,0,0,1,5.6,6.863,32.06,32.06,0,0,1-1.58,6.786C78.7,56.844,73.9,59.06,73.1,58.786c-1.045-.361-5.151-1.464-5.8-2.223-1.383-1.623-.653-4.09-2.708-5.463-7.367-4.922-4.361,6.3-4.132,7.655.529,3.167,10.56,7.557,11.582,7.461A77.815,77.815,0,0,0,83.035,63.9c-.261,2.881-1.648,3.385-4.007,5.107-3.722,2.72-7.756,3.141-6.89,3.16,1.346.03-5.222-.192-6.98-2.228-2.364-2.738-5.351-4.2-6.685-1.9-1.582,2.725.833,3.788,2.276,5.688.957,1.256,1.664,2.542,2.146,2.76a20.188,20.188,0,0,0,11.4,1.558c1.935-.26,7.907-4.2,10.547-4.985.6,1.462-8.168,8.611-11.707,9.89-2.965,1.073-8.92.433-9.905,4.32-1.563,6.179,9.339,2.005,13.159,1.6,4.688-.5,11.357-8.846,13.8-11.415.442,1.529-3.039,6.142-5.893,9.942-1.714,2.277-3.4,3.319-3.322,5.247,1.058,7.189,6.365-.668,9.061-3.486a44.582,44.582,0,0,0,5.8-8.625c.928-1.883,8.286-26.45,12.086-29.7,2.594-2.211,8.156-2.881,8.428-4.612.51-3.259-3.884-17.307-9.861-22.236" transform="translate(0 0.001)" fill="#963b62"/>
          </g>
        </g>
        <g id="Grupo_1238" data-name="Grupo 1238" transform="translate(415.786 3219.076)" opacity="0.43">
          <g id="Grupo_1192-10" data-name="Grupo 1192" transform="translate(0)" clip-path="url(#clip-path-2)">
            <path id="Trazado_6011-10" data-name="Trazado 6011" d="M.04,49.371c.271-1.733,5.834-2.4,8.426-4.615,3.8-3.246,11.16-27.813,12.088-29.7a44.469,44.469,0,0,1,5.8-8.625c2.7-2.818,8-10.675,9.064-3.486C35.5,4.875,33.805,5.917,32.1,8.2c-2.855,3.8-6.336,8.412-5.894,9.94C28.644,15.568,35.315,7.22,40,6.723c3.821-.407,14.724-4.582,13.159,1.6-.984,3.886-6.939,3.247-9.907,4.32-3.536,1.279-12.309,8.431-11.707,9.893,2.641-.783,8.615-4.727,10.55-4.985a20.147,20.147,0,0,1,11.4,1.558c.482.218,1.19,1.5,2.145,2.759,1.443,1.9,3.859,2.961,2.275,5.688-1.332,2.293-4.319.836-6.683-1.9-1.758-2.038-8.325-2.258-6.983-2.23.868.019-3.167.443-6.889,3.163-2.357,1.719-3.742,2.223-4,5.1a77.917,77.917,0,0,1,10.986-2.315c1.024-.1,11.056,4.294,11.584,7.461.228,1.354,3.234,12.579-4.132,7.658-2.053-1.373-1.325-3.839-2.707-5.465-.645-.759-4.754-1.86-5.8-2.221-.792-.274-5.592,1.942-10.3,4.434a32.071,32.071,0,0,0-1.58,6.787,40.672,40.672,0,0,0,5.6,6.866c5.424-.6,10.385-.932,11.35-2.106,1.186-1.44,3.018-6.121,5.089-6.411a3.194,3.194,0,0,1,3.629,3.472c-.1,3.331-2.956,8.759-6.013,10.389-2.009,1.073-18.556,7.475-27.676,6.7-5.371-.457-9.5.506-13.483,4.666C3.923,66.676-.473,52.627.04,49.371M106.5,23.988c-3.98,4.16-8.112,5.123-13.485,4.669-9.117-.778-25.665,5.625-27.676,6.7-3.056,1.633-5.915,7.06-6.012,10.389a3.2,3.2,0,0,0,3.628,3.474c2.072-.29,3.9-4.971,5.09-6.414.966-1.173,5.925-1.5,11.35-2.1a40.756,40.756,0,0,1,5.6,6.863,32.06,32.06,0,0,1-1.58,6.786C78.7,56.844,73.9,59.06,73.1,58.786c-1.045-.361-5.151-1.464-5.8-2.223-1.383-1.623-.653-4.09-2.708-5.463-7.367-4.922-4.361,6.3-4.132,7.655.529,3.167,10.56,7.557,11.582,7.461A77.815,77.815,0,0,0,83.035,63.9c-.261,2.881-1.648,3.385-4.007,5.107-3.722,2.72-7.756,3.141-6.89,3.16,1.346.03-5.222-.192-6.98-2.228-2.364-2.738-5.351-4.2-6.685-1.9-1.582,2.725.833,3.788,2.276,5.688.957,1.256,1.664,2.542,2.146,2.76a20.188,20.188,0,0,0,11.4,1.558c1.935-.26,7.907-4.2,10.547-4.985.6,1.462-8.168,8.611-11.707,9.89-2.965,1.073-8.92.433-9.905,4.32-1.563,6.179,9.339,2.005,13.159,1.6,4.688-.5,11.357-8.846,13.8-11.415.442,1.529-3.039,6.142-5.893,9.942-1.714,2.277-3.4,3.319-3.322,5.247,1.058,7.189,6.365-.668,9.061-3.486a44.582,44.582,0,0,0,5.8-8.625c.928-1.883,8.286-26.45,12.086-29.7,2.594-2.211,8.156-2.881,8.428-4.612.51-3.259-3.884-17.307-9.861-22.236" transform="translate(0 0.001)" fill="#963b62"/>
          </g>
        </g>
        <g id="Grupo_1216" data-name="Grupo 1216" transform="translate(475.224 3106.775)" opacity="0.43">
          <g id="Grupo_1192-11" data-name="Grupo 1192" transform="translate(0)" clip-path="url(#clip-path-2)">
            <path id="Trazado_6011-11" data-name="Trazado 6011" d="M.04,49.371c.271-1.733,5.834-2.4,8.426-4.615,3.8-3.246,11.16-27.813,12.088-29.7a44.469,44.469,0,0,1,5.8-8.625c2.7-2.818,8-10.675,9.064-3.486C35.5,4.875,33.805,5.917,32.1,8.2c-2.855,3.8-6.336,8.412-5.894,9.94C28.644,15.568,35.315,7.22,40,6.723c3.821-.407,14.724-4.582,13.159,1.6-.984,3.886-6.939,3.247-9.907,4.32-3.536,1.279-12.309,8.431-11.707,9.893,2.641-.783,8.615-4.727,10.55-4.985a20.147,20.147,0,0,1,11.4,1.558c.482.218,1.19,1.5,2.145,2.759,1.443,1.9,3.859,2.961,2.275,5.688-1.332,2.293-4.319.836-6.683-1.9-1.758-2.038-8.325-2.258-6.983-2.23.868.019-3.167.443-6.889,3.163-2.357,1.719-3.742,2.223-4,5.1a77.917,77.917,0,0,1,10.986-2.315c1.024-.1,11.056,4.294,11.584,7.461.228,1.354,3.234,12.579-4.132,7.658-2.053-1.373-1.325-3.839-2.707-5.465-.645-.759-4.754-1.86-5.8-2.221-.792-.274-5.592,1.942-10.3,4.434a32.071,32.071,0,0,0-1.58,6.787,40.672,40.672,0,0,0,5.6,6.866c5.424-.6,10.385-.932,11.35-2.106,1.186-1.44,3.018-6.121,5.089-6.411a3.194,3.194,0,0,1,3.629,3.472c-.1,3.331-2.956,8.759-6.013,10.389-2.009,1.073-18.556,7.475-27.676,6.7-5.371-.457-9.5.506-13.483,4.666C3.923,66.676-.473,52.627.04,49.371M106.5,23.988c-3.98,4.16-8.112,5.123-13.485,4.669-9.117-.778-25.665,5.625-27.676,6.7-3.056,1.633-5.915,7.06-6.012,10.389a3.2,3.2,0,0,0,3.628,3.474c2.072-.29,3.9-4.971,5.09-6.414.966-1.173,5.925-1.5,11.35-2.1a40.756,40.756,0,0,1,5.6,6.863,32.06,32.06,0,0,1-1.58,6.786C78.7,56.844,73.9,59.06,73.1,58.786c-1.045-.361-5.151-1.464-5.8-2.223-1.383-1.623-.653-4.09-2.708-5.463-7.367-4.922-4.361,6.3-4.132,7.655.529,3.167,10.56,7.557,11.582,7.461A77.815,77.815,0,0,0,83.035,63.9c-.261,2.881-1.648,3.385-4.007,5.107-3.722,2.72-7.756,3.141-6.89,3.16,1.346.03-5.222-.192-6.98-2.228-2.364-2.738-5.351-4.2-6.685-1.9-1.582,2.725.833,3.788,2.276,5.688.957,1.256,1.664,2.542,2.146,2.76a20.188,20.188,0,0,0,11.4,1.558c1.935-.26,7.907-4.2,10.547-4.985.6,1.462-8.168,8.611-11.707,9.89-2.965,1.073-8.92.433-9.905,4.32-1.563,6.179,9.339,2.005,13.159,1.6,4.688-.5,11.357-8.846,13.8-11.415.442,1.529-3.039,6.142-5.893,9.942-1.714,2.277-3.4,3.319-3.322,5.247,1.058,7.189,6.365-.668,9.061-3.486a44.582,44.582,0,0,0,5.8-8.625c.928-1.883,8.286-26.45,12.086-29.7,2.594-2.211,8.156-2.881,8.428-4.612.51-3.259-3.884-17.307-9.861-22.236" transform="translate(0 0.001)" fill="#963b62"/>
          </g>
        </g>
        <g id="Grupo_1227" data-name="Grupo 1227" transform="translate(475.224 3331.378)" opacity="0.43">
          <g id="Grupo_1192-12" data-name="Grupo 1192" transform="translate(0)" clip-path="url(#clip-path-2)">
            <path id="Trazado_6011-12" data-name="Trazado 6011" d="M.04,49.371c.271-1.733,5.834-2.4,8.426-4.615,3.8-3.246,11.16-27.813,12.088-29.7a44.469,44.469,0,0,1,5.8-8.625c2.7-2.818,8-10.675,9.064-3.486C35.5,4.875,33.805,5.917,32.1,8.2c-2.855,3.8-6.336,8.412-5.894,9.94C28.644,15.568,35.315,7.22,40,6.723c3.821-.407,14.724-4.582,13.159,1.6-.984,3.886-6.939,3.247-9.907,4.32-3.536,1.279-12.309,8.431-11.707,9.893,2.641-.783,8.615-4.727,10.55-4.985a20.147,20.147,0,0,1,11.4,1.558c.482.218,1.19,1.5,2.145,2.759,1.443,1.9,3.859,2.961,2.275,5.688-1.332,2.293-4.319.836-6.683-1.9-1.758-2.038-8.325-2.258-6.983-2.23.868.019-3.167.443-6.889,3.163-2.357,1.719-3.742,2.223-4,5.1a77.917,77.917,0,0,1,10.986-2.315c1.024-.1,11.056,4.294,11.584,7.461.228,1.354,3.234,12.579-4.132,7.658-2.053-1.373-1.325-3.839-2.707-5.465-.645-.759-4.754-1.86-5.8-2.221-.792-.274-5.592,1.942-10.3,4.434a32.071,32.071,0,0,0-1.58,6.787,40.672,40.672,0,0,0,5.6,6.866c5.424-.6,10.385-.932,11.35-2.106,1.186-1.44,3.018-6.121,5.089-6.411a3.194,3.194,0,0,1,3.629,3.472c-.1,3.331-2.956,8.759-6.013,10.389-2.009,1.073-18.556,7.475-27.676,6.7-5.371-.457-9.5.506-13.483,4.666C3.923,66.676-.473,52.627.04,49.371M106.5,23.988c-3.98,4.16-8.112,5.123-13.485,4.669-9.117-.778-25.665,5.625-27.676,6.7-3.056,1.633-5.915,7.06-6.012,10.389a3.2,3.2,0,0,0,3.628,3.474c2.072-.29,3.9-4.971,5.09-6.414.966-1.173,5.925-1.5,11.35-2.1a40.756,40.756,0,0,1,5.6,6.863,32.06,32.06,0,0,1-1.58,6.786C78.7,56.844,73.9,59.06,73.1,58.786c-1.045-.361-5.151-1.464-5.8-2.223-1.383-1.623-.653-4.09-2.708-5.463-7.367-4.922-4.361,6.3-4.132,7.655.529,3.167,10.56,7.557,11.582,7.461A77.815,77.815,0,0,0,83.035,63.9c-.261,2.881-1.648,3.385-4.007,5.107-3.722,2.72-7.756,3.141-6.89,3.16,1.346.03-5.222-.192-6.98-2.228-2.364-2.738-5.351-4.2-6.685-1.9-1.582,2.725.833,3.788,2.276,5.688.957,1.256,1.664,2.542,2.146,2.76a20.188,20.188,0,0,0,11.4,1.558c1.935-.26,7.907-4.2,10.547-4.985.6,1.462-8.168,8.611-11.707,9.89-2.965,1.073-8.92.433-9.905,4.32-1.563,6.179,9.339,2.005,13.159,1.6,4.688-.5,11.357-8.846,13.8-11.415.442,1.529-3.039,6.142-5.893,9.942-1.714,2.277-3.4,3.319-3.322,5.247,1.058,7.189,6.365-.668,9.061-3.486a44.582,44.582,0,0,0,5.8-8.625c.928-1.883,8.286-26.45,12.086-29.7,2.594-2.211,8.156-2.881,8.428-4.612.51-3.259-3.884-17.307-9.861-22.236" transform="translate(0 0.001)" fill="#963b62"/>
          </g>
        </g>
        <g id="Grupo_1207" data-name="Grupo 1207" transform="translate(1075.647 2994.474)" opacity="0.43">
          <g id="Grupo_1192-13" data-name="Grupo 1192" transform="translate(0)" clip-path="url(#clip-path-2)">
            <path id="Trazado_6011-13" data-name="Trazado 6011" d="M.04,49.371c.271-1.733,5.834-2.4,8.426-4.615,3.8-3.246,11.16-27.813,12.088-29.7a44.469,44.469,0,0,1,5.8-8.625c2.7-2.818,8-10.675,9.064-3.486C35.5,4.875,33.805,5.917,32.1,8.2c-2.855,3.8-6.336,8.412-5.894,9.94C28.644,15.568,35.315,7.22,40,6.723c3.821-.407,14.724-4.582,13.159,1.6-.984,3.886-6.939,3.247-9.907,4.32-3.536,1.279-12.309,8.431-11.707,9.893,2.641-.783,8.615-4.727,10.55-4.985a20.147,20.147,0,0,1,11.4,1.558c.482.218,1.19,1.5,2.145,2.759,1.443,1.9,3.859,2.961,2.275,5.688-1.332,2.293-4.319.836-6.683-1.9-1.758-2.038-8.325-2.258-6.983-2.23.868.019-3.167.443-6.889,3.163-2.357,1.719-3.742,2.223-4,5.1a77.917,77.917,0,0,1,10.986-2.315c1.024-.1,11.056,4.294,11.584,7.461.228,1.354,3.234,12.579-4.132,7.658-2.053-1.373-1.325-3.839-2.707-5.465-.645-.759-4.754-1.86-5.8-2.221-.792-.274-5.592,1.942-10.3,4.434a32.071,32.071,0,0,0-1.58,6.787,40.672,40.672,0,0,0,5.6,6.866c5.424-.6,10.385-.932,11.35-2.106,1.186-1.44,3.018-6.121,5.089-6.411a3.194,3.194,0,0,1,3.629,3.472c-.1,3.331-2.956,8.759-6.013,10.389-2.009,1.073-18.556,7.475-27.676,6.7-5.371-.457-9.5.506-13.483,4.666C3.923,66.676-.473,52.627.04,49.371M106.5,23.988c-3.98,4.16-8.112,5.123-13.485,4.669-9.117-.778-25.665,5.625-27.676,6.7-3.056,1.633-5.915,7.06-6.012,10.389a3.2,3.2,0,0,0,3.628,3.474c2.072-.29,3.9-4.971,5.09-6.414.966-1.173,5.925-1.5,11.35-2.1a40.756,40.756,0,0,1,5.6,6.863,32.06,32.06,0,0,1-1.58,6.786C78.7,56.844,73.9,59.06,73.1,58.786c-1.045-.361-5.151-1.464-5.8-2.223-1.383-1.623-.653-4.09-2.708-5.463-7.367-4.922-4.361,6.3-4.132,7.655.529,3.167,10.56,7.557,11.582,7.461A77.815,77.815,0,0,0,83.035,63.9c-.261,2.881-1.648,3.385-4.007,5.107-3.722,2.72-7.756,3.141-6.89,3.16,1.346.03-5.222-.192-6.98-2.228-2.364-2.738-5.351-4.2-6.685-1.9-1.582,2.725.833,3.788,2.276,5.688.957,1.256,1.664,2.542,2.146,2.76a20.188,20.188,0,0,0,11.4,1.558c1.935-.26,7.907-4.2,10.547-4.985.6,1.462-8.168,8.611-11.707,9.89-2.965,1.073-8.92.433-9.905,4.32-1.563,6.179,9.339,2.005,13.159,1.6,4.688-.5,11.357-8.846,13.8-11.415.442,1.529-3.039,6.142-5.893,9.942-1.714,2.277-3.4,3.319-3.322,5.247,1.058,7.189,6.365-.668,9.061-3.486a44.582,44.582,0,0,0,5.8-8.625c.928-1.883,8.286-26.45,12.086-29.7,2.594-2.211,8.156-2.881,8.428-4.612.51-3.259-3.884-17.307-9.861-22.236" transform="translate(0 0.001)" fill="#963b62"/>
          </g>
        </g>
        <g id="Grupo_1239" data-name="Grupo 1239" transform="translate(1075.647 3219.076)" opacity="0.43">
          <g id="Grupo_1192-14" data-name="Grupo 1192" transform="translate(0)" clip-path="url(#clip-path-2)">
            <path id="Trazado_6011-14" data-name="Trazado 6011" d="M.04,49.371c.271-1.733,5.834-2.4,8.426-4.615,3.8-3.246,11.16-27.813,12.088-29.7a44.469,44.469,0,0,1,5.8-8.625c2.7-2.818,8-10.675,9.064-3.486C35.5,4.875,33.805,5.917,32.1,8.2c-2.855,3.8-6.336,8.412-5.894,9.94C28.644,15.568,35.315,7.22,40,6.723c3.821-.407,14.724-4.582,13.159,1.6-.984,3.886-6.939,3.247-9.907,4.32-3.536,1.279-12.309,8.431-11.707,9.893,2.641-.783,8.615-4.727,10.55-4.985a20.147,20.147,0,0,1,11.4,1.558c.482.218,1.19,1.5,2.145,2.759,1.443,1.9,3.859,2.961,2.275,5.688-1.332,2.293-4.319.836-6.683-1.9-1.758-2.038-8.325-2.258-6.983-2.23.868.019-3.167.443-6.889,3.163-2.357,1.719-3.742,2.223-4,5.1a77.917,77.917,0,0,1,10.986-2.315c1.024-.1,11.056,4.294,11.584,7.461.228,1.354,3.234,12.579-4.132,7.658-2.053-1.373-1.325-3.839-2.707-5.465-.645-.759-4.754-1.86-5.8-2.221-.792-.274-5.592,1.942-10.3,4.434a32.071,32.071,0,0,0-1.58,6.787,40.672,40.672,0,0,0,5.6,6.866c5.424-.6,10.385-.932,11.35-2.106,1.186-1.44,3.018-6.121,5.089-6.411a3.194,3.194,0,0,1,3.629,3.472c-.1,3.331-2.956,8.759-6.013,10.389-2.009,1.073-18.556,7.475-27.676,6.7-5.371-.457-9.5.506-13.483,4.666C3.923,66.676-.473,52.627.04,49.371M106.5,23.988c-3.98,4.16-8.112,5.123-13.485,4.669-9.117-.778-25.665,5.625-27.676,6.7-3.056,1.633-5.915,7.06-6.012,10.389a3.2,3.2,0,0,0,3.628,3.474c2.072-.29,3.9-4.971,5.09-6.414.966-1.173,5.925-1.5,11.35-2.1a40.756,40.756,0,0,1,5.6,6.863,32.06,32.06,0,0,1-1.58,6.786C78.7,56.844,73.9,59.06,73.1,58.786c-1.045-.361-5.151-1.464-5.8-2.223-1.383-1.623-.653-4.09-2.708-5.463-7.367-4.922-4.361,6.3-4.132,7.655.529,3.167,10.56,7.557,11.582,7.461A77.815,77.815,0,0,0,83.035,63.9c-.261,2.881-1.648,3.385-4.007,5.107-3.722,2.72-7.756,3.141-6.89,3.16,1.346.03-5.222-.192-6.98-2.228-2.364-2.738-5.351-4.2-6.685-1.9-1.582,2.725.833,3.788,2.276,5.688.957,1.256,1.664,2.542,2.146,2.76a20.188,20.188,0,0,0,11.4,1.558c1.935-.26,7.907-4.2,10.547-4.985.6,1.462-8.168,8.611-11.707,9.89-2.965,1.073-8.92.433-9.905,4.32-1.563,6.179,9.339,2.005,13.159,1.6,4.688-.5,11.357-8.846,13.8-11.415.442,1.529-3.039,6.142-5.893,9.942-1.714,2.277-3.4,3.319-3.322,5.247,1.058,7.189,6.365-.668,9.061-3.486a44.582,44.582,0,0,0,5.8-8.625c.928-1.883,8.286-26.45,12.086-29.7,2.594-2.211,8.156-2.881,8.428-4.612.51-3.259-3.884-17.307-9.861-22.236" transform="translate(0 0.001)" fill="#963b62"/>
          </g>
        </g>
        <g id="Grupo_1221" data-name="Grupo 1221" transform="translate(1135.085 3106.775)" opacity="0.43">
          <g id="Grupo_1192-15" data-name="Grupo 1192" transform="translate(0)" clip-path="url(#clip-path-2)">
            <path id="Trazado_6011-15" data-name="Trazado 6011" d="M.04,49.371c.271-1.733,5.834-2.4,8.426-4.615,3.8-3.246,11.16-27.813,12.088-29.7a44.469,44.469,0,0,1,5.8-8.625c2.7-2.818,8-10.675,9.064-3.486C35.5,4.875,33.805,5.917,32.1,8.2c-2.855,3.8-6.336,8.412-5.894,9.94C28.644,15.568,35.315,7.22,40,6.723c3.821-.407,14.724-4.582,13.159,1.6-.984,3.886-6.939,3.247-9.907,4.32-3.536,1.279-12.309,8.431-11.707,9.893,2.641-.783,8.615-4.727,10.55-4.985a20.147,20.147,0,0,1,11.4,1.558c.482.218,1.19,1.5,2.145,2.759,1.443,1.9,3.859,2.961,2.275,5.688-1.332,2.293-4.319.836-6.683-1.9-1.758-2.038-8.325-2.258-6.983-2.23.868.019-3.167.443-6.889,3.163-2.357,1.719-3.742,2.223-4,5.1a77.917,77.917,0,0,1,10.986-2.315c1.024-.1,11.056,4.294,11.584,7.461.228,1.354,3.234,12.579-4.132,7.658-2.053-1.373-1.325-3.839-2.707-5.465-.645-.759-4.754-1.86-5.8-2.221-.792-.274-5.592,1.942-10.3,4.434a32.071,32.071,0,0,0-1.58,6.787,40.672,40.672,0,0,0,5.6,6.866c5.424-.6,10.385-.932,11.35-2.106,1.186-1.44,3.018-6.121,5.089-6.411a3.194,3.194,0,0,1,3.629,3.472c-.1,3.331-2.956,8.759-6.013,10.389-2.009,1.073-18.556,7.475-27.676,6.7-5.371-.457-9.5.506-13.483,4.666C3.923,66.676-.473,52.627.04,49.371M106.5,23.988c-3.98,4.16-8.112,5.123-13.485,4.669-9.117-.778-25.665,5.625-27.676,6.7-3.056,1.633-5.915,7.06-6.012,10.389a3.2,3.2,0,0,0,3.628,3.474c2.072-.29,3.9-4.971,5.09-6.414.966-1.173,5.925-1.5,11.35-2.1a40.756,40.756,0,0,1,5.6,6.863,32.06,32.06,0,0,1-1.58,6.786C78.7,56.844,73.9,59.06,73.1,58.786c-1.045-.361-5.151-1.464-5.8-2.223-1.383-1.623-.653-4.09-2.708-5.463-7.367-4.922-4.361,6.3-4.132,7.655.529,3.167,10.56,7.557,11.582,7.461A77.815,77.815,0,0,0,83.035,63.9c-.261,2.881-1.648,3.385-4.007,5.107-3.722,2.72-7.756,3.141-6.89,3.16,1.346.03-5.222-.192-6.98-2.228-2.364-2.738-5.351-4.2-6.685-1.9-1.582,2.725.833,3.788,2.276,5.688.957,1.256,1.664,2.542,2.146,2.76a20.188,20.188,0,0,0,11.4,1.558c1.935-.26,7.907-4.2,10.547-4.985.6,1.462-8.168,8.611-11.707,9.89-2.965,1.073-8.92.433-9.905,4.32-1.563,6.179,9.339,2.005,13.159,1.6,4.688-.5,11.357-8.846,13.8-11.415.442,1.529-3.039,6.142-5.893,9.942-1.714,2.277-3.4,3.319-3.322,5.247,1.058,7.189,6.365-.668,9.061-3.486a44.582,44.582,0,0,0,5.8-8.625c.928-1.883,8.286-26.45,12.086-29.7,2.594-2.211,8.156-2.881,8.428-4.612.51-3.259-3.884-17.307-9.861-22.236" transform="translate(0 0.001)" fill="#963b62"/>
          </g>
        </g>
        <g id="Grupo_1228" data-name="Grupo 1228" transform="translate(1135.085 3331.378)" opacity="0.43">
          <g id="Grupo_1192-16" data-name="Grupo 1192" transform="translate(0)" clip-path="url(#clip-path-2)">
            <path id="Trazado_6011-16" data-name="Trazado 6011" d="M.04,49.371c.271-1.733,5.834-2.4,8.426-4.615,3.8-3.246,11.16-27.813,12.088-29.7a44.469,44.469,0,0,1,5.8-8.625c2.7-2.818,8-10.675,9.064-3.486C35.5,4.875,33.805,5.917,32.1,8.2c-2.855,3.8-6.336,8.412-5.894,9.94C28.644,15.568,35.315,7.22,40,6.723c3.821-.407,14.724-4.582,13.159,1.6-.984,3.886-6.939,3.247-9.907,4.32-3.536,1.279-12.309,8.431-11.707,9.893,2.641-.783,8.615-4.727,10.55-4.985a20.147,20.147,0,0,1,11.4,1.558c.482.218,1.19,1.5,2.145,2.759,1.443,1.9,3.859,2.961,2.275,5.688-1.332,2.293-4.319.836-6.683-1.9-1.758-2.038-8.325-2.258-6.983-2.23.868.019-3.167.443-6.889,3.163-2.357,1.719-3.742,2.223-4,5.1a77.917,77.917,0,0,1,10.986-2.315c1.024-.1,11.056,4.294,11.584,7.461.228,1.354,3.234,12.579-4.132,7.658-2.053-1.373-1.325-3.839-2.707-5.465-.645-.759-4.754-1.86-5.8-2.221-.792-.274-5.592,1.942-10.3,4.434a32.071,32.071,0,0,0-1.58,6.787,40.672,40.672,0,0,0,5.6,6.866c5.424-.6,10.385-.932,11.35-2.106,1.186-1.44,3.018-6.121,5.089-6.411a3.194,3.194,0,0,1,3.629,3.472c-.1,3.331-2.956,8.759-6.013,10.389-2.009,1.073-18.556,7.475-27.676,6.7-5.371-.457-9.5.506-13.483,4.666C3.923,66.676-.473,52.627.04,49.371M106.5,23.988c-3.98,4.16-8.112,5.123-13.485,4.669-9.117-.778-25.665,5.625-27.676,6.7-3.056,1.633-5.915,7.06-6.012,10.389a3.2,3.2,0,0,0,3.628,3.474c2.072-.29,3.9-4.971,5.09-6.414.966-1.173,5.925-1.5,11.35-2.1a40.756,40.756,0,0,1,5.6,6.863,32.06,32.06,0,0,1-1.58,6.786C78.7,56.844,73.9,59.06,73.1,58.786c-1.045-.361-5.151-1.464-5.8-2.223-1.383-1.623-.653-4.09-2.708-5.463-7.367-4.922-4.361,6.3-4.132,7.655.529,3.167,10.56,7.557,11.582,7.461A77.815,77.815,0,0,0,83.035,63.9c-.261,2.881-1.648,3.385-4.007,5.107-3.722,2.72-7.756,3.141-6.89,3.16,1.346.03-5.222-.192-6.98-2.228-2.364-2.738-5.351-4.2-6.685-1.9-1.582,2.725.833,3.788,2.276,5.688.957,1.256,1.664,2.542,2.146,2.76a20.188,20.188,0,0,0,11.4,1.558c1.935-.26,7.907-4.2,10.547-4.985.6,1.462-8.168,8.611-11.707,9.89-2.965,1.073-8.92.433-9.905,4.32-1.563,6.179,9.339,2.005,13.159,1.6,4.688-.5,11.357-8.846,13.8-11.415.442,1.529-3.039,6.142-5.893,9.942-1.714,2.277-3.4,3.319-3.322,5.247,1.058,7.189,6.365-.668,9.061-3.486a44.582,44.582,0,0,0,5.8-8.625c.928-1.883,8.286-26.45,12.086-29.7,2.594-2.211,8.156-2.881,8.428-4.612.51-3.259-3.884-17.307-9.861-22.236" transform="translate(0 0.001)" fill="#963b62"/>
          </g>
        </g>
        <g id="Grupo_1201" data-name="Grupo 1201" transform="translate(0 2977.768)" opacity="0.43">
          <g id="Grupo_1200" data-name="Grupo 1200" transform="translate(0 0)" clip-path="url(#clip-path-18)">
            <path id="Trazado_6012" data-name="Trazado 6012" d="M17.139,9.661a9.6,9.6,0,1,1,9.6,9.661,9.63,9.63,0,0,1-9.6-9.661M52.813,56.01,44.576,25.635a4.939,4.939,0,0,0-.638-1.855,3.843,3.843,0,0,0-3.49-3.12l-14.03.175-14-.173a3.837,3.837,0,0,0-3.49,3.12,4.947,4.947,0,0,0-.638,1.855L.046,57.366c-.322,2.393,1.058,4.587,3.086,4.9s3.929-1.376,4.251-3.771l7.338-21.551L5.166,81.331H15.639v26.589c0,2.419,2.228,4.381,4.971,4.381s4.971-1.962,4.971-4.381V81.331h1.7v26.589c0,2.419,2.226,4.381,4.973,4.381s4.97-1.962,4.97-4.381V81.331H47.7l-9.43-45.2L45.478,57.14c.323,2.4,2.226,4.083,4.252,3.771s3.408-2.508,3.083-4.9" transform="translate(0 -0.001)" fill="#963b62"/>
          </g>
        </g>
        <g id="Grupo_1240" data-name="Grupo 1240" transform="translate(0 3202.371)" opacity="0.43">
          <g id="Grupo_1200-2" data-name="Grupo 1200" transform="translate(0 0)" clip-path="url(#clip-path-18)">
            <path id="Trazado_6012-2" data-name="Trazado 6012" d="M17.139,9.661a9.6,9.6,0,1,1,9.6,9.661,9.63,9.63,0,0,1-9.6-9.661M52.813,56.01,44.576,25.635a4.939,4.939,0,0,0-.638-1.855,3.843,3.843,0,0,0-3.49-3.12l-14.03.175-14-.173a3.837,3.837,0,0,0-3.49,3.12,4.947,4.947,0,0,0-.638,1.855L.046,57.366c-.322,2.393,1.058,4.587,3.086,4.9s3.929-1.376,4.251-3.771l7.338-21.551L5.166,81.331H15.639v26.589c0,2.419,2.228,4.381,4.971,4.381s4.971-1.962,4.971-4.381V81.331h1.7v26.589c0,2.419,2.226,4.381,4.973,4.381s4.97-1.962,4.97-4.381V81.331H47.7l-9.43-45.2L45.478,57.14c.323,2.4,2.226,4.083,4.252,3.771s3.408-2.508,3.083-4.9" transform="translate(0 -0.001)" fill="#963b62"/>
          </g>
        </g>
        <g id="Grupo_1214" data-name="Grupo 1214" transform="translate(59.437 3090.07)" opacity="0.43">
          <g id="Grupo_1200-3" data-name="Grupo 1200" transform="translate(0 0)" clip-path="url(#clip-path-18)">
            <path id="Trazado_6012-3" data-name="Trazado 6012" d="M17.139,9.661a9.6,9.6,0,1,1,9.6,9.661,9.63,9.63,0,0,1-9.6-9.661M52.813,56.01,44.576,25.635a4.939,4.939,0,0,0-.638-1.855,3.843,3.843,0,0,0-3.49-3.12l-14.03.175-14-.173a3.837,3.837,0,0,0-3.49,3.12,4.947,4.947,0,0,0-.638,1.855L.046,57.366c-.322,2.393,1.058,4.587,3.086,4.9s3.929-1.376,4.251-3.771l7.338-21.551L5.166,81.331H15.639v26.589c0,2.419,2.228,4.381,4.971,4.381s4.971-1.962,4.971-4.381V81.331h1.7v26.589c0,2.419,2.226,4.381,4.973,4.381s4.97-1.962,4.97-4.381V81.331H47.7l-9.43-45.2L45.478,57.14c.323,2.4,2.226,4.083,4.252,3.771s3.408-2.508,3.083-4.9" transform="translate(0 -0.001)" fill="#963b62"/>
          </g>
        </g>
        <g id="Grupo_1241" data-name="Grupo 1241" transform="translate(59.437 3314.673)" opacity="0.43">
          <g id="Grupo_1200-4" data-name="Grupo 1200" transform="translate(0 0)" clip-path="url(#clip-path-18)">
            <path id="Trazado_6012-4" data-name="Trazado 6012" d="M17.139,9.661a9.6,9.6,0,1,1,9.6,9.661,9.63,9.63,0,0,1-9.6-9.661M52.813,56.01,44.576,25.635a4.939,4.939,0,0,0-.638-1.855,3.843,3.843,0,0,0-3.49-3.12l-14.03.175-14-.173a3.837,3.837,0,0,0-3.49,3.12,4.947,4.947,0,0,0-.638,1.855L.046,57.366c-.322,2.393,1.058,4.587,3.086,4.9s3.929-1.376,4.251-3.771l7.338-21.551L5.166,81.331H15.639v26.589c0,2.419,2.228,4.381,4.971,4.381s4.971-1.962,4.971-4.381V81.331h1.7v26.589c0,2.419,2.226,4.381,4.973,4.381s4.97-1.962,4.97-4.381V81.331H47.7l-9.43-45.2L45.478,57.14c.323,2.4,2.226,4.083,4.252,3.771s3.408-2.508,3.083-4.9" transform="translate(0 -0.001)" fill="#963b62"/>
          </g>
        </g>
        <g id="Grupo_1212" data-name="Grupo 1212" transform="translate(659.861 2977.768)" opacity="0.43">
          <g id="Grupo_1200-5" data-name="Grupo 1200" transform="translate(0 0)" clip-path="url(#clip-path-18)">
            <path id="Trazado_6012-5" data-name="Trazado 6012" d="M17.139,9.661a9.6,9.6,0,1,1,9.6,9.661,9.63,9.63,0,0,1-9.6-9.661M52.813,56.01,44.576,25.635a4.939,4.939,0,0,0-.638-1.855,3.843,3.843,0,0,0-3.49-3.12l-14.03.175-14-.173a3.837,3.837,0,0,0-3.49,3.12,4.947,4.947,0,0,0-.638,1.855L.046,57.366c-.322,2.393,1.058,4.587,3.086,4.9s3.929-1.376,4.251-3.771l7.338-21.551L5.166,81.331H15.639v26.589c0,2.419,2.228,4.381,4.971,4.381s4.971-1.962,4.971-4.381V81.331h1.7v26.589c0,2.419,2.226,4.381,4.973,4.381s4.97-1.962,4.97-4.381V81.331H47.7l-9.43-45.2L45.478,57.14c.323,2.4,2.226,4.083,4.252,3.771s3.408-2.508,3.083-4.9" transform="translate(0 -0.001)" fill="#963b62"/>
          </g>
        </g>
        <g id="Grupo_1242" data-name="Grupo 1242" transform="translate(659.861 3202.371)" opacity="0.43">
          <g id="Grupo_1200-6" data-name="Grupo 1200" transform="translate(0 0)" clip-path="url(#clip-path-18)">
            <path id="Trazado_6012-6" data-name="Trazado 6012" d="M17.139,9.661a9.6,9.6,0,1,1,9.6,9.661,9.63,9.63,0,0,1-9.6-9.661M52.813,56.01,44.576,25.635a4.939,4.939,0,0,0-.638-1.855,3.843,3.843,0,0,0-3.49-3.12l-14.03.175-14-.173a3.837,3.837,0,0,0-3.49,3.12,4.947,4.947,0,0,0-.638,1.855L.046,57.366c-.322,2.393,1.058,4.587,3.086,4.9s3.929-1.376,4.251-3.771l7.338-21.551L5.166,81.331H15.639v26.589c0,2.419,2.228,4.381,4.971,4.381s4.971-1.962,4.971-4.381V81.331h1.7v26.589c0,2.419,2.226,4.381,4.973,4.381s4.97-1.962,4.97-4.381V81.331H47.7l-9.43-45.2L45.478,57.14c.323,2.4,2.226,4.083,4.252,3.771s3.408-2.508,3.083-4.9" transform="translate(0 -0.001)" fill="#963b62"/>
          </g>
        </g>
        <g id="Grupo_1217" data-name="Grupo 1217" transform="translate(719.298 3090.07)" opacity="0.43">
          <g id="Grupo_1200-7" data-name="Grupo 1200" transform="translate(0 0)" clip-path="url(#clip-path-18)">
            <path id="Trazado_6012-7" data-name="Trazado 6012" d="M17.139,9.661a9.6,9.6,0,1,1,9.6,9.661,9.63,9.63,0,0,1-9.6-9.661M52.813,56.01,44.576,25.635a4.939,4.939,0,0,0-.638-1.855,3.843,3.843,0,0,0-3.49-3.12l-14.03.175-14-.173a3.837,3.837,0,0,0-3.49,3.12,4.947,4.947,0,0,0-.638,1.855L.046,57.366c-.322,2.393,1.058,4.587,3.086,4.9s3.929-1.376,4.251-3.771l7.338-21.551L5.166,81.331H15.639v26.589c0,2.419,2.228,4.381,4.971,4.381s4.971-1.962,4.971-4.381V81.331h1.7v26.589c0,2.419,2.226,4.381,4.973,4.381s4.97-1.962,4.97-4.381V81.331H47.7l-9.43-45.2L45.478,57.14c.323,2.4,2.226,4.083,4.252,3.771s3.408-2.508,3.083-4.9" transform="translate(0 -0.001)" fill="#963b62"/>
          </g>
        </g>
        <g id="Grupo_1229" data-name="Grupo 1229" transform="translate(719.298 3314.673)" opacity="0.43">
          <g id="Grupo_1200-8" data-name="Grupo 1200" transform="translate(0 0)" clip-path="url(#clip-path-18)">
            <path id="Trazado_6012-8" data-name="Trazado 6012" d="M17.139,9.661a9.6,9.6,0,1,1,9.6,9.661,9.63,9.63,0,0,1-9.6-9.661M52.813,56.01,44.576,25.635a4.939,4.939,0,0,0-.638-1.855,3.843,3.843,0,0,0-3.49-3.12l-14.03.175-14-.173a3.837,3.837,0,0,0-3.49,3.12,4.947,4.947,0,0,0-.638,1.855L.046,57.366c-.322,2.393,1.058,4.587,3.086,4.9s3.929-1.376,4.251-3.771l7.338-21.551L5.166,81.331H15.639v26.589c0,2.419,2.228,4.381,4.971,4.381s4.971-1.962,4.971-4.381V81.331h1.7v26.589c0,2.419,2.226,4.381,4.973,4.381s4.97-1.962,4.97-4.381V81.331H47.7l-9.43-45.2L45.478,57.14c.323,2.4,2.226,4.083,4.252,3.771s3.408-2.508,3.083-4.9" transform="translate(0 -0.001)" fill="#963b62"/>
          </g>
        </g>
        <g id="Grupo_1206" data-name="Grupo 1206" transform="translate(336.545 2977.768)" opacity="0.43">
          <g id="Grupo_1200-9" data-name="Grupo 1200" transform="translate(0 0)" clip-path="url(#clip-path-18)">
            <path id="Trazado_6012-9" data-name="Trazado 6012" d="M17.139,9.661a9.6,9.6,0,1,1,9.6,9.661,9.63,9.63,0,0,1-9.6-9.661M52.813,56.01,44.576,25.635a4.939,4.939,0,0,0-.638-1.855,3.843,3.843,0,0,0-3.49-3.12l-14.03.175-14-.173a3.837,3.837,0,0,0-3.49,3.12,4.947,4.947,0,0,0-.638,1.855L.046,57.366c-.322,2.393,1.058,4.587,3.086,4.9s3.929-1.376,4.251-3.771l7.338-21.551L5.166,81.331H15.639v26.589c0,2.419,2.228,4.381,4.971,4.381s4.971-1.962,4.971-4.381V81.331h1.7v26.589c0,2.419,2.226,4.381,4.973,4.381s4.97-1.962,4.97-4.381V81.331H47.7l-9.43-45.2L45.478,57.14c.323,2.4,2.226,4.083,4.252,3.771s3.408-2.508,3.083-4.9" transform="translate(0 -0.001)" fill="#963b62"/>
          </g>
        </g>
        <g id="Grupo_1243" data-name="Grupo 1243" transform="translate(336.545 3202.371)" opacity="0.43">
          <g id="Grupo_1200-10" data-name="Grupo 1200" transform="translate(0 0)" clip-path="url(#clip-path-18)">
            <path id="Trazado_6012-10" data-name="Trazado 6012" d="M17.139,9.661a9.6,9.6,0,1,1,9.6,9.661,9.63,9.63,0,0,1-9.6-9.661M52.813,56.01,44.576,25.635a4.939,4.939,0,0,0-.638-1.855,3.843,3.843,0,0,0-3.49-3.12l-14.03.175-14-.173a3.837,3.837,0,0,0-3.49,3.12,4.947,4.947,0,0,0-.638,1.855L.046,57.366c-.322,2.393,1.058,4.587,3.086,4.9s3.929-1.376,4.251-3.771l7.338-21.551L5.166,81.331H15.639v26.589c0,2.419,2.228,4.381,4.971,4.381s4.971-1.962,4.971-4.381V81.331h1.7v26.589c0,2.419,2.226,4.381,4.973,4.381s4.97-1.962,4.97-4.381V81.331H47.7l-9.43-45.2L45.478,57.14c.323,2.4,2.226,4.083,4.252,3.771s3.408-2.508,3.083-4.9" transform="translate(0 -0.001)" fill="#963b62"/>
          </g>
        </g>
        <g id="Grupo_1218" data-name="Grupo 1218" transform="translate(395.982 3090.07)" opacity="0.43">
          <g id="Grupo_1200-11" data-name="Grupo 1200" transform="translate(0 0)" clip-path="url(#clip-path-18)">
            <path id="Trazado_6012-11" data-name="Trazado 6012" d="M17.139,9.661a9.6,9.6,0,1,1,9.6,9.661,9.63,9.63,0,0,1-9.6-9.661M52.813,56.01,44.576,25.635a4.939,4.939,0,0,0-.638-1.855,3.843,3.843,0,0,0-3.49-3.12l-14.03.175-14-.173a3.837,3.837,0,0,0-3.49,3.12,4.947,4.947,0,0,0-.638,1.855L.046,57.366c-.322,2.393,1.058,4.587,3.086,4.9s3.929-1.376,4.251-3.771l7.338-21.551L5.166,81.331H15.639v26.589c0,2.419,2.228,4.381,4.971,4.381s4.971-1.962,4.971-4.381V81.331h1.7v26.589c0,2.419,2.226,4.381,4.973,4.381s4.97-1.962,4.97-4.381V81.331H47.7l-9.43-45.2L45.478,57.14c.323,2.4,2.226,4.083,4.252,3.771s3.408-2.508,3.083-4.9" transform="translate(0 -0.001)" fill="#963b62"/>
          </g>
        </g>
        <g id="Grupo_1230" data-name="Grupo 1230" transform="translate(395.982 3314.673)" opacity="0.43">
          <g id="Grupo_1200-12" data-name="Grupo 1200" transform="translate(0 0)" clip-path="url(#clip-path-18)">
            <path id="Trazado_6012-12" data-name="Trazado 6012" d="M17.139,9.661a9.6,9.6,0,1,1,9.6,9.661,9.63,9.63,0,0,1-9.6-9.661M52.813,56.01,44.576,25.635a4.939,4.939,0,0,0-.638-1.855,3.843,3.843,0,0,0-3.49-3.12l-14.03.175-14-.173a3.837,3.837,0,0,0-3.49,3.12,4.947,4.947,0,0,0-.638,1.855L.046,57.366c-.322,2.393,1.058,4.587,3.086,4.9s3.929-1.376,4.251-3.771l7.338-21.551L5.166,81.331H15.639v26.589c0,2.419,2.228,4.381,4.971,4.381s4.971-1.962,4.971-4.381V81.331h1.7v26.589c0,2.419,2.226,4.381,4.973,4.381s4.97-1.962,4.97-4.381V81.331H47.7l-9.43-45.2L45.478,57.14c.323,2.4,2.226,4.083,4.252,3.771s3.408-2.508,3.083-4.9" transform="translate(0 -0.001)" fill="#963b62"/>
          </g>
        </g>
        <g id="Grupo_1208" data-name="Grupo 1208" transform="translate(996.406 2977.768)" opacity="0.43">
          <g id="Grupo_1200-13" data-name="Grupo 1200" transform="translate(0 0)" clip-path="url(#clip-path-18)">
            <path id="Trazado_6012-13" data-name="Trazado 6012" d="M17.139,9.661a9.6,9.6,0,1,1,9.6,9.661,9.63,9.63,0,0,1-9.6-9.661M52.813,56.01,44.576,25.635a4.939,4.939,0,0,0-.638-1.855,3.843,3.843,0,0,0-3.49-3.12l-14.03.175-14-.173a3.837,3.837,0,0,0-3.49,3.12,4.947,4.947,0,0,0-.638,1.855L.046,57.366c-.322,2.393,1.058,4.587,3.086,4.9s3.929-1.376,4.251-3.771l7.338-21.551L5.166,81.331H15.639v26.589c0,2.419,2.228,4.381,4.971,4.381s4.971-1.962,4.971-4.381V81.331h1.7v26.589c0,2.419,2.226,4.381,4.973,4.381s4.97-1.962,4.97-4.381V81.331H47.7l-9.43-45.2L45.478,57.14c.323,2.4,2.226,4.083,4.252,3.771s3.408-2.508,3.083-4.9" transform="translate(0 -0.001)" fill="#963b62"/>
          </g>
        </g>
        <g id="Grupo_1244" data-name="Grupo 1244" transform="translate(996.406 3202.371)" opacity="0.43">
          <g id="Grupo_1200-14" data-name="Grupo 1200" transform="translate(0 0)" clip-path="url(#clip-path-18)">
            <path id="Trazado_6012-14" data-name="Trazado 6012" d="M17.139,9.661a9.6,9.6,0,1,1,9.6,9.661,9.63,9.63,0,0,1-9.6-9.661M52.813,56.01,44.576,25.635a4.939,4.939,0,0,0-.638-1.855,3.843,3.843,0,0,0-3.49-3.12l-14.03.175-14-.173a3.837,3.837,0,0,0-3.49,3.12,4.947,4.947,0,0,0-.638,1.855L.046,57.366c-.322,2.393,1.058,4.587,3.086,4.9s3.929-1.376,4.251-3.771l7.338-21.551L5.166,81.331H15.639v26.589c0,2.419,2.228,4.381,4.971,4.381s4.971-1.962,4.971-4.381V81.331h1.7v26.589c0,2.419,2.226,4.381,4.973,4.381s4.97-1.962,4.97-4.381V81.331H47.7l-9.43-45.2L45.478,57.14c.323,2.4,2.226,4.083,4.252,3.771s3.408-2.508,3.083-4.9" transform="translate(0 -0.001)" fill="#963b62"/>
          </g>
        </g>
        <g id="Grupo_1222" data-name="Grupo 1222" transform="translate(1055.843 3090.07)" opacity="0.43">
          <g id="Grupo_1200-15" data-name="Grupo 1200" transform="translate(0 0)" clip-path="url(#clip-path-18)">
            <path id="Trazado_6012-15" data-name="Trazado 6012" d="M17.139,9.661a9.6,9.6,0,1,1,9.6,9.661,9.63,9.63,0,0,1-9.6-9.661M52.813,56.01,44.576,25.635a4.939,4.939,0,0,0-.638-1.855,3.843,3.843,0,0,0-3.49-3.12l-14.03.175-14-.173a3.837,3.837,0,0,0-3.49,3.12,4.947,4.947,0,0,0-.638,1.855L.046,57.366c-.322,2.393,1.058,4.587,3.086,4.9s3.929-1.376,4.251-3.771l7.338-21.551L5.166,81.331H15.639v26.589c0,2.419,2.228,4.381,4.971,4.381s4.971-1.962,4.971-4.381V81.331h1.7v26.589c0,2.419,2.226,4.381,4.973,4.381s4.97-1.962,4.97-4.381V81.331H47.7l-9.43-45.2L45.478,57.14c.323,2.4,2.226,4.083,4.252,3.771s3.408-2.508,3.083-4.9" transform="translate(0 -0.001)" fill="#963b62"/>
          </g>
        </g>
        <g id="Grupo_1231" data-name="Grupo 1231" transform="translate(1055.843 3314.673)" opacity="0.43">
          <g id="Grupo_1200-16" data-name="Grupo 1200" transform="translate(0 0)" clip-path="url(#clip-path-18)">
            <path id="Trazado_6012-16" data-name="Trazado 6012" d="M17.139,9.661a9.6,9.6,0,1,1,9.6,9.661,9.63,9.63,0,0,1-9.6-9.661M52.813,56.01,44.576,25.635a4.939,4.939,0,0,0-.638-1.855,3.843,3.843,0,0,0-3.49-3.12l-14.03.175-14-.173a3.837,3.837,0,0,0-3.49,3.12,4.947,4.947,0,0,0-.638,1.855L.046,57.366c-.322,2.393,1.058,4.587,3.086,4.9s3.929-1.376,4.251-3.771l7.338-21.551L5.166,81.331H15.639v26.589c0,2.419,2.228,4.381,4.971,4.381s4.971-1.962,4.971-4.381V81.331h1.7v26.589c0,2.419,2.226,4.381,4.973,4.381s4.97-1.962,4.97-4.381V81.331H47.7l-9.43-45.2L45.478,57.14c.323,2.4,2.226,4.083,4.252,3.771s3.408-2.508,3.083-4.9" transform="translate(0 -0.001)" fill="#963b62"/>
          </g>
        </g>
        <g id="Grupo_1203" data-name="Grupo 1203" transform="translate(224.652 2977.768)" opacity="0.43">
          <g id="Grupo_1202" data-name="Grupo 1202" transform="translate(0 0)" clip-path="url(#clip-path-34)">
            <path id="Trazado_6013" data-name="Trazado 6013" d="M13.647,9.891a9.807,9.807,0,1,1,9.807,9.9,9.85,9.85,0,0,1-9.807-9.9" transform="translate(5.441 -0.001)" fill="#963b62"/>
            <path id="Trazado_6014" data-name="Trazado 6014" d="M78.987,84.866,63.9,53.811a8.732,8.732,0,0,0-.545-1.063,4.557,4.557,0,0,0-3.737-1.941h-.022V50.8l-20.86,1.993L37.2,43.631s17.43-1.69,17.479-1.7c3.066-.379,4.065-1.783,4.134-4.044a4.164,4.164,0,0,0-4-4.312L35.792,35.226l-2.078-12.4a9.415,9.415,0,1,0-18.562,3.168l5.218,31.152c1.677,5.595,5.438,7.371,13.738,6.772l21.945-2.1L69.521,89.546a5.272,5.272,0,0,0,4.739,2.978,5.183,5.183,0,0,0,2.313-.545,5.339,5.339,0,0,0,2.414-7.112" transform="translate(5.987 5.943)" fill="#963b62"/>
            <path id="Trazado_6015" data-name="Trazado 6015" d="M37.9,92.395A29.912,29.912,0,0,1,21.246,37.84l-1.481-8.866A38.276,38.276,0,0,0,37.9,100.751,37.857,37.857,0,0,0,70.88,81.319l-4.75-9.828A29.683,29.683,0,0,1,37.9,92.395" transform="translate(0 11.55)" fill="#963b62"/>
          </g>
        </g>
        <g id="Grupo_1245" data-name="Grupo 1245" transform="translate(224.652 3202.371)" opacity="0.43">
          <g id="Grupo_1202-2" data-name="Grupo 1202" transform="translate(0 0)" clip-path="url(#clip-path-34)">
            <path id="Trazado_6013-2" data-name="Trazado 6013" d="M13.647,9.891a9.807,9.807,0,1,1,9.807,9.9,9.85,9.85,0,0,1-9.807-9.9" transform="translate(5.441 -0.001)" fill="#963b62"/>
            <path id="Trazado_6014-2" data-name="Trazado 6014" d="M78.987,84.866,63.9,53.811a8.732,8.732,0,0,0-.545-1.063,4.557,4.557,0,0,0-3.737-1.941h-.022V50.8l-20.86,1.993L37.2,43.631s17.43-1.69,17.479-1.7c3.066-.379,4.065-1.783,4.134-4.044a4.164,4.164,0,0,0-4-4.312L35.792,35.226l-2.078-12.4a9.415,9.415,0,1,0-18.562,3.168l5.218,31.152c1.677,5.595,5.438,7.371,13.738,6.772l21.945-2.1L69.521,89.546a5.272,5.272,0,0,0,4.739,2.978,5.183,5.183,0,0,0,2.313-.545,5.339,5.339,0,0,0,2.414-7.112" transform="translate(5.987 5.943)" fill="#963b62"/>
            <path id="Trazado_6015-2" data-name="Trazado 6015" d="M37.9,92.395A29.912,29.912,0,0,1,21.246,37.84l-1.481-8.866A38.276,38.276,0,0,0,37.9,100.751,37.857,37.857,0,0,0,70.88,81.319l-4.75-9.828A29.683,29.683,0,0,1,37.9,92.395" transform="translate(0 11.55)" fill="#963b62"/>
          </g>
        </g>
        <g id="Grupo_1219" data-name="Grupo 1219" transform="translate(284.089 3090.07)" opacity="0.43">
          <g id="Grupo_1202-3" data-name="Grupo 1202" transform="translate(0 0)" clip-path="url(#clip-path-34)">
            <path id="Trazado_6013-3" data-name="Trazado 6013" d="M13.647,9.891a9.807,9.807,0,1,1,9.807,9.9,9.85,9.85,0,0,1-9.807-9.9" transform="translate(5.441 -0.001)" fill="#963b62"/>
            <path id="Trazado_6014-3" data-name="Trazado 6014" d="M78.987,84.866,63.9,53.811a8.732,8.732,0,0,0-.545-1.063,4.557,4.557,0,0,0-3.737-1.941h-.022V50.8l-20.86,1.993L37.2,43.631s17.43-1.69,17.479-1.7c3.066-.379,4.065-1.783,4.134-4.044a4.164,4.164,0,0,0-4-4.312L35.792,35.226l-2.078-12.4a9.415,9.415,0,1,0-18.562,3.168l5.218,31.152c1.677,5.595,5.438,7.371,13.738,6.772l21.945-2.1L69.521,89.546a5.272,5.272,0,0,0,4.739,2.978,5.183,5.183,0,0,0,2.313-.545,5.339,5.339,0,0,0,2.414-7.112" transform="translate(5.987 5.943)" fill="#963b62"/>
            <path id="Trazado_6015-3" data-name="Trazado 6015" d="M37.9,92.395A29.912,29.912,0,0,1,21.246,37.84l-1.481-8.866A38.276,38.276,0,0,0,37.9,100.751,37.857,37.857,0,0,0,70.88,81.319l-4.75-9.828A29.683,29.683,0,0,1,37.9,92.395" transform="translate(0 11.55)" fill="#963b62"/>
          </g>
        </g>
        <g id="Grupo_1232" data-name="Grupo 1232" transform="translate(284.089 3314.672)" opacity="0.43">
          <g id="Grupo_1202-4" data-name="Grupo 1202" transform="translate(0 0)" clip-path="url(#clip-path-34)">
            <path id="Trazado_6013-4" data-name="Trazado 6013" d="M13.647,9.891a9.807,9.807,0,1,1,9.807,9.9,9.85,9.85,0,0,1-9.807-9.9" transform="translate(5.441 -0.001)" fill="#963b62"/>
            <path id="Trazado_6014-4" data-name="Trazado 6014" d="M78.987,84.866,63.9,53.811a8.732,8.732,0,0,0-.545-1.063,4.557,4.557,0,0,0-3.737-1.941h-.022V50.8l-20.86,1.993L37.2,43.631s17.43-1.69,17.479-1.7c3.066-.379,4.065-1.783,4.134-4.044a4.164,4.164,0,0,0-4-4.312L35.792,35.226l-2.078-12.4a9.415,9.415,0,1,0-18.562,3.168l5.218,31.152c1.677,5.595,5.438,7.371,13.738,6.772l21.945-2.1L69.521,89.546a5.272,5.272,0,0,0,4.739,2.978,5.183,5.183,0,0,0,2.313-.545,5.339,5.339,0,0,0,2.414-7.112" transform="translate(5.987 5.943)" fill="#963b62"/>
            <path id="Trazado_6015-4" data-name="Trazado 6015" d="M37.9,92.395A29.912,29.912,0,0,1,21.246,37.84l-1.481-8.866A38.276,38.276,0,0,0,37.9,100.751,37.857,37.857,0,0,0,70.88,81.319l-4.75-9.828A29.683,29.683,0,0,1,37.9,92.395" transform="translate(0 11.55)" fill="#963b62"/>
          </g>
        </g>
        <g id="Grupo_1209" data-name="Grupo 1209" transform="translate(884.514 2977.768)" opacity="0.43">
          <g id="Grupo_1202-5" data-name="Grupo 1202" transform="translate(0 0)" clip-path="url(#clip-path-34)">
            <path id="Trazado_6013-5" data-name="Trazado 6013" d="M13.647,9.891a9.807,9.807,0,1,1,9.807,9.9,9.85,9.85,0,0,1-9.807-9.9" transform="translate(5.441 -0.001)" fill="#963b62"/>
            <path id="Trazado_6014-5" data-name="Trazado 6014" d="M78.987,84.866,63.9,53.811a8.732,8.732,0,0,0-.545-1.063,4.557,4.557,0,0,0-3.737-1.941h-.022V50.8l-20.86,1.993L37.2,43.631s17.43-1.69,17.479-1.7c3.066-.379,4.065-1.783,4.134-4.044a4.164,4.164,0,0,0-4-4.312L35.792,35.226l-2.078-12.4a9.415,9.415,0,1,0-18.562,3.168l5.218,31.152c1.677,5.595,5.438,7.371,13.738,6.772l21.945-2.1L69.521,89.546a5.272,5.272,0,0,0,4.739,2.978,5.183,5.183,0,0,0,2.313-.545,5.339,5.339,0,0,0,2.414-7.112" transform="translate(5.987 5.943)" fill="#963b62"/>
            <path id="Trazado_6015-5" data-name="Trazado 6015" d="M37.9,92.395A29.912,29.912,0,0,1,21.246,37.84l-1.481-8.866A38.276,38.276,0,0,0,37.9,100.751,37.857,37.857,0,0,0,70.88,81.319l-4.75-9.828A29.683,29.683,0,0,1,37.9,92.395" transform="translate(0 11.55)" fill="#963b62"/>
          </g>
        </g>
        <g id="Grupo_1246" data-name="Grupo 1246" transform="translate(884.514 3202.371)" opacity="0.43">
          <g id="Grupo_1202-6" data-name="Grupo 1202" transform="translate(0 0)" clip-path="url(#clip-path-34)">
            <path id="Trazado_6013-6" data-name="Trazado 6013" d="M13.647,9.891a9.807,9.807,0,1,1,9.807,9.9,9.85,9.85,0,0,1-9.807-9.9" transform="translate(5.441 -0.001)" fill="#963b62"/>
            <path id="Trazado_6014-6" data-name="Trazado 6014" d="M78.987,84.866,63.9,53.811a8.732,8.732,0,0,0-.545-1.063,4.557,4.557,0,0,0-3.737-1.941h-.022V50.8l-20.86,1.993L37.2,43.631s17.43-1.69,17.479-1.7c3.066-.379,4.065-1.783,4.134-4.044a4.164,4.164,0,0,0-4-4.312L35.792,35.226l-2.078-12.4a9.415,9.415,0,1,0-18.562,3.168l5.218,31.152c1.677,5.595,5.438,7.371,13.738,6.772l21.945-2.1L69.521,89.546a5.272,5.272,0,0,0,4.739,2.978,5.183,5.183,0,0,0,2.313-.545,5.339,5.339,0,0,0,2.414-7.112" transform="translate(5.987 5.943)" fill="#963b62"/>
            <path id="Trazado_6015-6" data-name="Trazado 6015" d="M37.9,92.395A29.912,29.912,0,0,1,21.246,37.84l-1.481-8.866A38.276,38.276,0,0,0,37.9,100.751,37.857,37.857,0,0,0,70.88,81.319l-4.75-9.828A29.683,29.683,0,0,1,37.9,92.395" transform="translate(0 11.55)" fill="#963b62"/>
          </g>
        </g>
        <g id="Grupo_1223" data-name="Grupo 1223" transform="translate(943.95 3090.07)" opacity="0.43">
          <g id="Grupo_1202-7" data-name="Grupo 1202" transform="translate(0 0)" clip-path="url(#clip-path-34)">
            <path id="Trazado_6013-7" data-name="Trazado 6013" d="M13.647,9.891a9.807,9.807,0,1,1,9.807,9.9,9.85,9.85,0,0,1-9.807-9.9" transform="translate(5.441 -0.001)" fill="#963b62"/>
            <path id="Trazado_6014-7" data-name="Trazado 6014" d="M78.987,84.866,63.9,53.811a8.732,8.732,0,0,0-.545-1.063,4.557,4.557,0,0,0-3.737-1.941h-.022V50.8l-20.86,1.993L37.2,43.631s17.43-1.69,17.479-1.7c3.066-.379,4.065-1.783,4.134-4.044a4.164,4.164,0,0,0-4-4.312L35.792,35.226l-2.078-12.4a9.415,9.415,0,1,0-18.562,3.168l5.218,31.152c1.677,5.595,5.438,7.371,13.738,6.772l21.945-2.1L69.521,89.546a5.272,5.272,0,0,0,4.739,2.978,5.183,5.183,0,0,0,2.313-.545,5.339,5.339,0,0,0,2.414-7.112" transform="translate(5.987 5.943)" fill="#963b62"/>
            <path id="Trazado_6015-7" data-name="Trazado 6015" d="M37.9,92.395A29.912,29.912,0,0,1,21.246,37.84l-1.481-8.866A38.276,38.276,0,0,0,37.9,100.751,37.857,37.857,0,0,0,70.88,81.319l-4.75-9.828A29.683,29.683,0,0,1,37.9,92.395" transform="translate(0 11.55)" fill="#963b62"/>
          </g>
        </g>
        <g id="Grupo_1233" data-name="Grupo 1233" transform="translate(943.95 3314.672)" opacity="0.43">
          <g id="Grupo_1202-8" data-name="Grupo 1202" transform="translate(0 0)" clip-path="url(#clip-path-34)">
            <path id="Trazado_6013-8" data-name="Trazado 6013" d="M13.647,9.891a9.807,9.807,0,1,1,9.807,9.9,9.85,9.85,0,0,1-9.807-9.9" transform="translate(5.441 -0.001)" fill="#963b62"/>
            <path id="Trazado_6014-8" data-name="Trazado 6014" d="M78.987,84.866,63.9,53.811a8.732,8.732,0,0,0-.545-1.063,4.557,4.557,0,0,0-3.737-1.941h-.022V50.8l-20.86,1.993L37.2,43.631s17.43-1.69,17.479-1.7c3.066-.379,4.065-1.783,4.134-4.044a4.164,4.164,0,0,0-4-4.312L35.792,35.226l-2.078-12.4a9.415,9.415,0,1,0-18.562,3.168l5.218,31.152c1.677,5.595,5.438,7.371,13.738,6.772l21.945-2.1L69.521,89.546a5.272,5.272,0,0,0,4.739,2.978,5.183,5.183,0,0,0,2.313-.545,5.339,5.339,0,0,0,2.414-7.112" transform="translate(5.987 5.943)" fill="#963b62"/>
            <path id="Trazado_6015-8" data-name="Trazado 6015" d="M37.9,92.395A29.912,29.912,0,0,1,21.246,37.84l-1.481-8.866A38.276,38.276,0,0,0,37.9,100.751,37.857,37.857,0,0,0,70.88,81.319l-4.75-9.828A29.683,29.683,0,0,1,37.9,92.395" transform="translate(0 11.55)" fill="#963b62"/>
          </g>
        </g>
        <g id="Grupo_1204" data-name="Grupo 1204" transform="translate(561.197 2977.768)" opacity="0.43">
          <g id="Grupo_1202-9" data-name="Grupo 1202" transform="translate(0 0)" clip-path="url(#clip-path-34)">
            <path id="Trazado_6013-9" data-name="Trazado 6013" d="M13.647,9.891a9.807,9.807,0,1,1,9.807,9.9,9.85,9.85,0,0,1-9.807-9.9" transform="translate(5.441 -0.001)" fill="#963b62"/>
            <path id="Trazado_6014-9" data-name="Trazado 6014" d="M78.987,84.866,63.9,53.811a8.732,8.732,0,0,0-.545-1.063,4.557,4.557,0,0,0-3.737-1.941h-.022V50.8l-20.86,1.993L37.2,43.631s17.43-1.69,17.479-1.7c3.066-.379,4.065-1.783,4.134-4.044a4.164,4.164,0,0,0-4-4.312L35.792,35.226l-2.078-12.4a9.415,9.415,0,1,0-18.562,3.168l5.218,31.152c1.677,5.595,5.438,7.371,13.738,6.772l21.945-2.1L69.521,89.546a5.272,5.272,0,0,0,4.739,2.978,5.183,5.183,0,0,0,2.313-.545,5.339,5.339,0,0,0,2.414-7.112" transform="translate(5.987 5.943)" fill="#963b62"/>
            <path id="Trazado_6015-9" data-name="Trazado 6015" d="M37.9,92.395A29.912,29.912,0,0,1,21.246,37.84l-1.481-8.866A38.276,38.276,0,0,0,37.9,100.751,37.857,37.857,0,0,0,70.88,81.319l-4.75-9.828A29.683,29.683,0,0,1,37.9,92.395" transform="translate(0 11.55)" fill="#963b62"/>
          </g>
        </g>
        <g id="Grupo_1247" data-name="Grupo 1247" transform="translate(561.197 3202.371)" opacity="0.43">
          <g id="Grupo_1202-10" data-name="Grupo 1202" transform="translate(0 0)" clip-path="url(#clip-path-34)">
            <path id="Trazado_6013-10" data-name="Trazado 6013" d="M13.647,9.891a9.807,9.807,0,1,1,9.807,9.9,9.85,9.85,0,0,1-9.807-9.9" transform="translate(5.441 -0.001)" fill="#963b62"/>
            <path id="Trazado_6014-10" data-name="Trazado 6014" d="M78.987,84.866,63.9,53.811a8.732,8.732,0,0,0-.545-1.063,4.557,4.557,0,0,0-3.737-1.941h-.022V50.8l-20.86,1.993L37.2,43.631s17.43-1.69,17.479-1.7c3.066-.379,4.065-1.783,4.134-4.044a4.164,4.164,0,0,0-4-4.312L35.792,35.226l-2.078-12.4a9.415,9.415,0,1,0-18.562,3.168l5.218,31.152c1.677,5.595,5.438,7.371,13.738,6.772l21.945-2.1L69.521,89.546a5.272,5.272,0,0,0,4.739,2.978,5.183,5.183,0,0,0,2.313-.545,5.339,5.339,0,0,0,2.414-7.112" transform="translate(5.987 5.943)" fill="#963b62"/>
            <path id="Trazado_6015-10" data-name="Trazado 6015" d="M37.9,92.395A29.912,29.912,0,0,1,21.246,37.84l-1.481-8.866A38.276,38.276,0,0,0,37.9,100.751,37.857,37.857,0,0,0,70.88,81.319l-4.75-9.828A29.683,29.683,0,0,1,37.9,92.395" transform="translate(0 11.55)" fill="#963b62"/>
          </g>
        </g>
        <g id="Grupo_1220" data-name="Grupo 1220" transform="translate(620.634 3090.07)" opacity="0.43">
          <g id="Grupo_1202-11" data-name="Grupo 1202" transform="translate(0 0)" clip-path="url(#clip-path-34)">
            <path id="Trazado_6013-11" data-name="Trazado 6013" d="M13.647,9.891a9.807,9.807,0,1,1,9.807,9.9,9.85,9.85,0,0,1-9.807-9.9" transform="translate(5.441 -0.001)" fill="#963b62"/>
            <path id="Trazado_6014-11" data-name="Trazado 6014" d="M78.987,84.866,63.9,53.811a8.732,8.732,0,0,0-.545-1.063,4.557,4.557,0,0,0-3.737-1.941h-.022V50.8l-20.86,1.993L37.2,43.631s17.43-1.69,17.479-1.7c3.066-.379,4.065-1.783,4.134-4.044a4.164,4.164,0,0,0-4-4.312L35.792,35.226l-2.078-12.4a9.415,9.415,0,1,0-18.562,3.168l5.218,31.152c1.677,5.595,5.438,7.371,13.738,6.772l21.945-2.1L69.521,89.546a5.272,5.272,0,0,0,4.739,2.978,5.183,5.183,0,0,0,2.313-.545,5.339,5.339,0,0,0,2.414-7.112" transform="translate(5.987 5.943)" fill="#963b62"/>
            <path id="Trazado_6015-11" data-name="Trazado 6015" d="M37.9,92.395A29.912,29.912,0,0,1,21.246,37.84l-1.481-8.866A38.276,38.276,0,0,0,37.9,100.751,37.857,37.857,0,0,0,70.88,81.319l-4.75-9.828A29.683,29.683,0,0,1,37.9,92.395" transform="translate(0 11.55)" fill="#963b62"/>
          </g>
        </g>
        <g id="Grupo_1234" data-name="Grupo 1234" transform="translate(620.634 3314.672)" opacity="0.43">
          <g id="Grupo_1202-12" data-name="Grupo 1202" transform="translate(0 0)" clip-path="url(#clip-path-34)">
            <path id="Trazado_6013-12" data-name="Trazado 6013" d="M13.647,9.891a9.807,9.807,0,1,1,9.807,9.9,9.85,9.85,0,0,1-9.807-9.9" transform="translate(5.441 -0.001)" fill="#963b62"/>
            <path id="Trazado_6014-12" data-name="Trazado 6014" d="M78.987,84.866,63.9,53.811a8.732,8.732,0,0,0-.545-1.063,4.557,4.557,0,0,0-3.737-1.941h-.022V50.8l-20.86,1.993L37.2,43.631s17.43-1.69,17.479-1.7c3.066-.379,4.065-1.783,4.134-4.044a4.164,4.164,0,0,0-4-4.312L35.792,35.226l-2.078-12.4a9.415,9.415,0,1,0-18.562,3.168l5.218,31.152c1.677,5.595,5.438,7.371,13.738,6.772l21.945-2.1L69.521,89.546a5.272,5.272,0,0,0,4.739,2.978,5.183,5.183,0,0,0,2.313-.545,5.339,5.339,0,0,0,2.414-7.112" transform="translate(5.987 5.943)" fill="#963b62"/>
            <path id="Trazado_6015-12" data-name="Trazado 6015" d="M37.9,92.395A29.912,29.912,0,0,1,21.246,37.84l-1.481-8.866A38.276,38.276,0,0,0,37.9,100.751,37.857,37.857,0,0,0,70.88,81.319l-4.75-9.828A29.683,29.683,0,0,1,37.9,92.395" transform="translate(0 11.55)" fill="#963b62"/>
          </g>
        </g>
        <g id="Grupo_1210" data-name="Grupo 1210" transform="translate(1221.058 2977.768)" opacity="0.43">
          <g id="Grupo_1202-13" data-name="Grupo 1202" transform="translate(0 0)" clip-path="url(#clip-path-34)">
            <path id="Trazado_6013-13" data-name="Trazado 6013" d="M13.647,9.891a9.807,9.807,0,1,1,9.807,9.9,9.85,9.85,0,0,1-9.807-9.9" transform="translate(5.441 -0.001)" fill="#963b62"/>
            <path id="Trazado_6014-13" data-name="Trazado 6014" d="M78.987,84.866,63.9,53.811a8.732,8.732,0,0,0-.545-1.063,4.557,4.557,0,0,0-3.737-1.941h-.022V50.8l-20.86,1.993L37.2,43.631s17.43-1.69,17.479-1.7c3.066-.379,4.065-1.783,4.134-4.044a4.164,4.164,0,0,0-4-4.312L35.792,35.226l-2.078-12.4a9.415,9.415,0,1,0-18.562,3.168l5.218,31.152c1.677,5.595,5.438,7.371,13.738,6.772l21.945-2.1L69.521,89.546a5.272,5.272,0,0,0,4.739,2.978,5.183,5.183,0,0,0,2.313-.545,5.339,5.339,0,0,0,2.414-7.112" transform="translate(5.987 5.943)" fill="#963b62"/>
            <path id="Trazado_6015-13" data-name="Trazado 6015" d="M37.9,92.395A29.912,29.912,0,0,1,21.246,37.84l-1.481-8.866A38.276,38.276,0,0,0,37.9,100.751,37.857,37.857,0,0,0,70.88,81.319l-4.75-9.828A29.683,29.683,0,0,1,37.9,92.395" transform="translate(0 11.55)" fill="#963b62"/>
          </g>
        </g>
        <g id="Grupo_1248" data-name="Grupo 1248" transform="translate(1221.058 3202.371)" opacity="0.43">
          <g id="Grupo_1202-14" data-name="Grupo 1202" transform="translate(0 0)" clip-path="url(#clip-path-34)">
            <path id="Trazado_6013-14" data-name="Trazado 6013" d="M13.647,9.891a9.807,9.807,0,1,1,9.807,9.9,9.85,9.85,0,0,1-9.807-9.9" transform="translate(5.441 -0.001)" fill="#963b62"/>
            <path id="Trazado_6014-14" data-name="Trazado 6014" d="M78.987,84.866,63.9,53.811a8.732,8.732,0,0,0-.545-1.063,4.557,4.557,0,0,0-3.737-1.941h-.022V50.8l-20.86,1.993L37.2,43.631s17.43-1.69,17.479-1.7c3.066-.379,4.065-1.783,4.134-4.044a4.164,4.164,0,0,0-4-4.312L35.792,35.226l-2.078-12.4a9.415,9.415,0,1,0-18.562,3.168l5.218,31.152c1.677,5.595,5.438,7.371,13.738,6.772l21.945-2.1L69.521,89.546a5.272,5.272,0,0,0,4.739,2.978,5.183,5.183,0,0,0,2.313-.545,5.339,5.339,0,0,0,2.414-7.112" transform="translate(5.987 5.943)" fill="#963b62"/>
            <path id="Trazado_6015-14" data-name="Trazado 6015" d="M37.9,92.395A29.912,29.912,0,0,1,21.246,37.84l-1.481-8.866A38.276,38.276,0,0,0,37.9,100.751,37.857,37.857,0,0,0,70.88,81.319l-4.75-9.828A29.683,29.683,0,0,1,37.9,92.395" transform="translate(0 11.55)" fill="#963b62"/>
          </g>
        </g>
        <g id="Grupo_1224" data-name="Grupo 1224" transform="translate(1280.495 3090.07)" opacity="0.43">
          <g id="Grupo_1202-15" data-name="Grupo 1202" transform="translate(0 0)" clip-path="url(#clip-path-34)">
            <path id="Trazado_6013-15" data-name="Trazado 6013" d="M13.647,9.891a9.807,9.807,0,1,1,9.807,9.9,9.85,9.85,0,0,1-9.807-9.9" transform="translate(5.441 -0.001)" fill="#963b62"/>
            <path id="Trazado_6014-15" data-name="Trazado 6014" d="M78.987,84.866,63.9,53.811a8.732,8.732,0,0,0-.545-1.063,4.557,4.557,0,0,0-3.737-1.941h-.022V50.8l-20.86,1.993L37.2,43.631s17.43-1.69,17.479-1.7c3.066-.379,4.065-1.783,4.134-4.044a4.164,4.164,0,0,0-4-4.312L35.792,35.226l-2.078-12.4a9.415,9.415,0,1,0-18.562,3.168l5.218,31.152c1.677,5.595,5.438,7.371,13.738,6.772l21.945-2.1L69.521,89.546a5.272,5.272,0,0,0,4.739,2.978,5.183,5.183,0,0,0,2.313-.545,5.339,5.339,0,0,0,2.414-7.112" transform="translate(5.987 5.943)" fill="#963b62"/>
            <path id="Trazado_6015-15" data-name="Trazado 6015" d="M37.9,92.395A29.912,29.912,0,0,1,21.246,37.84l-1.481-8.866A38.276,38.276,0,0,0,37.9,100.751,37.857,37.857,0,0,0,70.88,81.319l-4.75-9.828A29.683,29.683,0,0,1,37.9,92.395" transform="translate(0 11.55)" fill="#963b62"/>
          </g>
        </g>
        <g id="Grupo_1235" data-name="Grupo 1235" transform="translate(1280.495 3314.672)" opacity="0.43">
          <g id="Grupo_1202-16" data-name="Grupo 1202" transform="translate(0 0)" clip-path="url(#clip-path-34)">
            <path id="Trazado_6013-16" data-name="Trazado 6013" d="M13.647,9.891a9.807,9.807,0,1,1,9.807,9.9,9.85,9.85,0,0,1-9.807-9.9" transform="translate(5.441 -0.001)" fill="#963b62"/>
            <path id="Trazado_6014-16" data-name="Trazado 6014" d="M78.987,84.866,63.9,53.811a8.732,8.732,0,0,0-.545-1.063,4.557,4.557,0,0,0-3.737-1.941h-.022V50.8l-20.86,1.993L37.2,43.631s17.43-1.69,17.479-1.7c3.066-.379,4.065-1.783,4.134-4.044a4.164,4.164,0,0,0-4-4.312L35.792,35.226l-2.078-12.4a9.415,9.415,0,1,0-18.562,3.168l5.218,31.152c1.677,5.595,5.438,7.371,13.738,6.772l21.945-2.1L69.521,89.546a5.272,5.272,0,0,0,4.739,2.978,5.183,5.183,0,0,0,2.313-.545,5.339,5.339,0,0,0,2.414-7.112" transform="translate(5.987 5.943)" fill="#963b62"/>
            <path id="Trazado_6015-16" data-name="Trazado 6015" d="M37.9,92.395A29.912,29.912,0,0,1,21.246,37.84l-1.481-8.866A38.276,38.276,0,0,0,37.9,100.751,37.857,37.857,0,0,0,70.88,81.319l-4.75-9.828A29.683,29.683,0,0,1,37.9,92.395" transform="translate(0 11.55)" fill="#963b62"/>
          </g>
        </g>
      </g>
    </g>
  </g>
</svg>
