<svg id="Grupo_1295" data-name="Grupo 1295" xmlns="http://www.w3.org/2000/svg" xmlns:xlink="http://www.w3.org/1999/xlink" width="11.31" height="15.279" viewBox="0 0 11.31 15.279">
  <defs>
    <clipPath id="clip-path">
      <rect id="Rectángulo_1865" data-name="Rectángulo 1865" width="11.31" height="15.279" fill="none"/>
    </clipPath>
  </defs>
  <g id="Grupo_861" data-name="Grupo 861" clip-path="url(#clip-path)">
    <path id="Trazado_5755" data-name="Trazado 5755" d="M5.655,15.279,9.966,9.314A5.663,5.663,0,1,0,.821,8.589h0L.825,8.6a5.674,5.674,0,0,0,.521.721Z" fill="#d27028"/>
    <path id="Trazado_5756" data-name="Trazado 5756" d="M54.492,42.246,52.47,40.224v-.012h-.326a.891.891,0,1,0-.947,0H50.87v.023l-2.012,2.011.605.605,1.586-1.586,0,.008-1.325,5,1.228.326.754-2.844.754,2.844,1.228-.326-1.3-4.919,1.5,1.5Z" transform="translate(-45.995 -36.306)" fill="#fff"/>
  </g>
</svg>
