<svg id="Grupo_878" data-name="Grupo 878" xmlns="http://www.w3.org/2000/svg" width="135.252" height="13.386" viewBox="0 0 135.252 13.386">
  <g id="Grupo_227" data-name="Grupo 227" transform="translate(51.522)">
    <path id="Trazado_829" data-name="Trazado 829" d="M165.362-53.126h-.013c-.05,0-.1.013-.162.013-.275,0-.488-.15-.488-.75v-1.7c0-1.712.012-3.736.023-4.785v-.05a.909.909,0,0,0-1-1.037c-.112,0-.288.012-.413.012a.371.371,0,0,0-.387.376.321.321,0,0,0,.349.324h.025a1.544,1.544,0,0,1,.2-.013c.5,0,.5.213.5,1.062,0,.725-.012,1.612-.012,2.249,0,.162-.012.225-.037.225s-.063-.063-.125-.15a2.512,2.512,0,0,0-1.974-.9,2.8,2.8,0,0,0-2.835,2.962,2.783,2.783,0,0,0,2.837,2.985,2.6,2.6,0,0,0,2.086-1.049c.025-.025.037-.038.05-.038.037,0,.05.05.063.125a1.023,1.023,0,0,0,1.137.886c.162,0,.5-.037.5-.387A.332.332,0,0,0,165.362-53.126Zm-3.486.138a2.084,2.084,0,0,1-2.125-2.3,2.082,2.082,0,0,1,2.124-2.312,2.132,2.132,0,0,1,2.112,2.311A2.136,2.136,0,0,1,161.876-52.987Z" transform="translate(-136.129 63.556)" fill="#3a3d81"/>
    <path id="Trazado_830" data-name="Trazado 830" d="M177.963-50.566c-.5-.175-.587-.475-.587-1.387,0-.474.025-1.124.062-1.537a3.3,3.3,0,0,0,.013-.349,1.71,1.71,0,0,0-1.95-1.911c-1.074,0-2.124.538-2.124,1.012a.339.339,0,0,0,.35.338.349.349,0,0,0,.262-.125,1.969,1.969,0,0,1,1.462-.6c1.012,0,1.3.537,1.3,1.224,0,.063-.012.137-.012.2,0,.087-.05.125-.2.15a20.04,20.04,0,0,0-2.311.512,1.67,1.67,0,0,0-1.337,1.55,1.861,1.861,0,0,0,2.025,1.724,2.31,2.31,0,0,0,1.9-.963.066.066,0,0,1,.05-.037c.025,0,.037.025.05.063a1.062,1.062,0,0,0,.925.8.338.338,0,0,0,.337-.349A.317.317,0,0,0,177.963-50.566Zm-1.238-2.049c0,1.924-1.186,2.186-1.824,2.187a1.194,1.194,0,0,1-1.337-1.049c0-.875,1.037-1.124,3-1.437h.038c.087,0,.124.037.124.138Z" transform="translate(-142.259 61.045)" fill="#3a3d81"/>
    <path id="Trazado_831" data-name="Trazado 831" d="M187.031-51.866h-.05a3.43,3.43,0,0,1-.349.025c-.975,0-1-.662-1-1.636,0-.925.037-2.212.037-2.687,0-.15,0-.175.2-.175h1.1a.325.325,0,0,0,.35-.338.321.321,0,0,0-.35-.324h-1.113c-.162,0-.187,0-.188-.137,0,0,.025-1,.025-1.362a.354.354,0,0,0-.362-.387.354.354,0,0,0-.362.363v.312c0,.437-.013,1.037-.013,1.087,0,.112-.024.124-.137.124h-.725a.322.322,0,0,0-.35.325.324.324,0,0,0,.35.337h.737c.088,0,.125.012.125.137v.2c0,.612-.024,2.136-.024,2.936,0,.55,0,1.912,1.6,1.912.5,0,.8-.064.8-.388A.31.31,0,0,0,187.031-51.866Z" transform="translate(-147.054 62.431)" fill="#3a3d81"/>
    <path id="Trazado_832" data-name="Trazado 832" d="M197.39-50.571c-.5-.175-.587-.474-.587-1.387,0-.475.025-1.124.063-1.537a3.443,3.443,0,0,0,.012-.35,1.71,1.71,0,0,0-1.951-1.911c-1.074,0-2.124.538-2.124,1.013a.339.339,0,0,0,.35.337.346.346,0,0,0,.262-.125,1.972,1.972,0,0,1,1.462-.6c1.012,0,1.3.538,1.3,1.224,0,.063-.012.138-.012.2,0,.087-.05.125-.2.15a19.951,19.951,0,0,0-2.312.512,1.668,1.668,0,0,0-1.336,1.549,1.861,1.861,0,0,0,2.024,1.724,2.309,2.309,0,0,0,1.9-.963.068.068,0,0,1,.05-.037c.025,0,.037.025.05.063a1.063,1.063,0,0,0,.925.8.338.338,0,0,0,.337-.35A.317.317,0,0,0,197.39-50.571Zm-1.237-2.049c0,1.924-1.187,2.187-1.824,2.187a1.194,1.194,0,0,1-1.337-1.049c0-.875,1.037-1.125,3-1.438h.038c.087,0,.125.038.125.138Z" transform="translate(-150.841 61.047)" fill="#3a3d81"/>
    <path id="Trazado_833" data-name="Trazado 833" d="M206.7-52.922c-.387-.2-.987-.449-1.337-.612a.961.961,0,0,1-.612-.824c0-.413.362-.8,1.012-.8.075,0,1.187,0,1.187,1a.321.321,0,0,0,.35.325.308.308,0,0,0,.313-.3v-.025c-.013-.287-.013-.475-.013-.65s0-.362.013-.625v-.012a.292.292,0,0,0-.313-.3.281.281,0,0,0-.287.2c-.012.037,0,.15-.062.15a.094.094,0,0,1-.075-.025,2.009,2.009,0,0,0-1.1-.337,1.522,1.522,0,0,0-1.7,1.437,1.511,1.511,0,0,0,1.013,1.387c1.449.6,2,.9,2,1.561,0,.6-.613.962-1.249.962-.713,0-1.338-.412-1.338-.824,0-.088.025-.15.025-.238a.321.321,0,0,0-.337-.337.328.328,0,0,0-.349.325v.025c.012.3.025.487.025.674s-.012.375-.025.65v.025a.3.3,0,0,0,.325.3c.15,0,.3-.037.3-.349,0-.037.012-.063.037-.063a.159.159,0,0,1,.088.05,1.962,1.962,0,0,0,1.25.411,1.739,1.739,0,0,0,1.973-1.612A1.789,1.789,0,0,0,206.7-52.922Z" transform="translate(-155.933 61.048)" fill="#3a3d81"/>
    <path id="Trazado_834" data-name="Trazado 834" d="M218.542-53.125c-.075,0-.137.013-.187.013a.463.463,0,0,1-.362-.15,21.342,21.342,0,0,1-2.587-2.461c0-.038.025-.075.1-.125.612-.4,1.574-1.05,2.311-1.55a.6.6,0,0,1,.312-.113c.175,0,.075.012.25.012h.012a.329.329,0,0,0,.35-.325.3.3,0,0,0-.362-.325c-.325.012-.625.013-.9.013s-.563,0-.875-.012h-.025a.318.318,0,0,0-.337.325c0,.3.3.3.524.3.063,0,.088.012.088.037s-.013.037-.05.063c-1.974,1.363-2.024,1.375-2.161,1.375a.188.188,0,0,1-.213-.2s.024-2.649.024-4.261c0-.275-.088-.937-1.113-.936-.437,0-.662.037-.662.362a.34.34,0,0,0,.349.349h.287c.313.013.413.15.413.5,0,.675.013,1.512.013,2.387,0,1.524-.012,3.21-.036,4.523a.2.2,0,0,1-.212.212c-.2,0-.225-.012-.375-.012h-.012a.344.344,0,0,0-.362.35.323.323,0,0,0,.375.325c.287-.013.587-.025.9-.025s.65.012.975.025h.012a.335.335,0,0,0,.362-.338.334.334,0,0,0-.362-.337h-.013a3.213,3.213,0,0,1-.35.012.191.191,0,0,1-.212-.212c-.013-.6-.013-1-.013-1.3,0-.65.012-.761.2-.761a.446.446,0,0,1,.375.15c.387.4,1.412,1.349,2.075,2a.1.1,0,0,1,.025.05c0,.013,0,.088-.325.088a.293.293,0,0,0-.337.325.318.318,0,0,0,.337.324h.025c.287-.012.562-.025.837-.025s.575.012.9.024h.012a.334.334,0,0,0,.35-.35A.31.31,0,0,0,218.542-53.125Z" transform="translate(-159.837 63.56)" fill="#3a3d81"/>
    <path id="Trazado_835" data-name="Trazado 835" d="M230.4-51.368a.357.357,0,0,0-.25.112,2.236,2.236,0,0,1-1.811.825,2.041,2.041,0,0,1-2.1-2.2c0-.175.025-.224.15-.225.275,0,1.336.012,2.274.012.462,0,.887,0,1.174-.013.638-.025.912-.375.912-.837a2.329,2.329,0,0,0-2.462-2.049,2.857,2.857,0,0,0-2.786,3.025,2.792,2.792,0,0,0,2.825,2.948,2.51,2.51,0,0,0,2.449-1.238A.382.382,0,0,0,230.4-51.368Zm-2.1-3.748a1.569,1.569,0,0,1,1.712,1.3c0,.2-.112.338-.412.351-.35.012-1.049.012-1.7.012-1.449,0-1.562,0-1.562-.124A2.023,2.023,0,0,1,228.3-55.116Z" transform="translate(-165.503 61.041)" fill="#3a3d81"/>
    <path id="Trazado_836" data-name="Trazado 836" d="M239.916-51.877h-.05c-.125.012-.237.025-.349.025-.975,0-1-.662-1-1.637,0-.924.037-2.211.037-2.686,0-.15,0-.175.2-.175h1.1a.325.325,0,0,0,.351-.338.322.322,0,0,0-.351-.325h-1.111c-.162,0-.188,0-.188-.137,0,0,.025-1,.025-1.362a.354.354,0,0,0-.363-.386.354.354,0,0,0-.362.362v.313c0,.437-.012,1.037-.012,1.087,0,.112-.025.124-.137.124h-.725a.322.322,0,0,0-.35.325.325.325,0,0,0,.35.338h.737c.088,0,.125.012.125.137v.2c0,.612-.025,2.137-.025,2.936,0,.55,0,1.912,1.6,1.911.5,0,.8-.063.8-.387A.309.309,0,0,0,239.916-51.877Z" transform="translate(-170.417 62.436)" fill="#3a3d81"/>
    <path id="Trazado_837" data-name="Trazado 837" d="M250-51.412a.393.393,0,0,0-.325.187,1.966,1.966,0,0,1-1.6.725,2.189,2.189,0,0,1-2.174-2.323,2.209,2.209,0,0,1,2.174-2.362,1.642,1.642,0,0,1,1.274.512c.15.175.112.325.125.587a.331.331,0,0,0,.351.3.322.322,0,0,0,.362-.313v-.025c-.012-.287-.012-.487-.012-.674s0-.387.012-.65v-.025a.323.323,0,0,0-.363-.312c-.137,0-.286.062-.3.213-.012.062-.025.137-.063.137s-.037-.012-.062-.025a2.878,2.878,0,0,0-1.412-.375,2.9,2.9,0,0,0-2.811,3.062,2.841,2.841,0,0,0,2.937,2.948c1.349,0,2.286-.837,2.286-1.2A.4.4,0,0,0,250-51.412Z" transform="translate(-174.194 61.082)" fill="#3a3d81"/>
    <path id="Trazado_838" data-name="Trazado 838" d="M262.3-53.144h-.013c-.175,0-.162.012-.35.012-.15,0-.212-.088-.212-.225,0-.987-.013-2.424-.026-2.949a1.979,1.979,0,0,0-2.087-2,2.34,2.34,0,0,0-1.849.85c-.025.025-.037.037-.05.037s-.025-.025-.025-.063c0-.175.012-1.3.012-2.311q0-.375,0-.712a.872.872,0,0,0-.849-.95,2.817,2.817,0,0,0-.313-.025c-.537,0-.637.162-.637.375a.341.341,0,0,0,.349.349h.013a2.469,2.469,0,0,1,.275-.012c.325.012.425.188.425.512,0,.75.013,1.762.013,2.824,0,1.5-.012,3.073-.024,4.086a.188.188,0,0,1-.2.213c-.2,0-.237-.013-.4-.013h-.012a.344.344,0,0,0-.362.351.323.323,0,0,0,.375.324c.287-.012.6-.025.912-.026s.65.013.975.025h.012a.342.342,0,0,0,.362-.337.339.339,0,0,0-.375-.338,3.069,3.069,0,0,1-.349.013.191.191,0,0,1-.213-.213c0-.587-.012-1.137-.013-1.6s.013-.825.013-1.062a1.824,1.824,0,0,1,1.861-1.637,1.4,1.4,0,0,1,1.437,1.473c.012.238.025.825.025,1.475,0,.462-.012.937-.012,1.349a.194.194,0,0,1-.2.212c-.2,0-.213-.012-.375-.012H260.4a.344.344,0,0,0-.362.349.323.323,0,0,0,.375.325c.288-.013.587-.026.9-.026s.65.012.975.025h.012a.336.336,0,0,0,.362-.338A.335.335,0,0,0,262.3-53.144Z" transform="translate(-178.929 63.575)" fill="#3a3d81"/>
    <path id="Trazado_839" data-name="Trazado 839" d="M131.941-57.673v-6.313a1.251,1.251,0,0,0-1.249-1.249H119.268a1.25,1.25,0,0,0-1.249,1.249v8.31a1.25,1.25,0,0,0,1.249,1.249h5.395l-2.035,2.048a.311.311,0,0,0,0,.439.311.311,0,0,0,.219.09.31.31,0,0,0,.22-.092l1.912-1.925,1.912,1.925a.311.311,0,0,0,.22.092.311.311,0,0,0,.219-.09.311.311,0,0,0,0-.439L125.3-54.425h5.394a1.251,1.251,0,0,0,1.249-1.249v-1.249l3.6,2.445a.306.306,0,0,0,.174.054.311.311,0,0,0,.257-.136.311.311,0,0,0-.083-.431Zm-.62-.421L129.2-59.532a.311.311,0,0,0-.431.083.31.31,0,0,0,.083.43l2.467,1.674v1.669a.63.63,0,0,1-.629.63H119.268a.63.63,0,0,1-.63-.63v-8.31a.631.631,0,0,1,.63-.63h11.424a.631.631,0,0,1,.629.63Z" transform="translate(-118.019 65.235)" fill="#3a3d81"/>
  </g>
  <g id="Grupo_226" data-name="Grupo 226" transform="translate(0 5.584)">
    <path id="Trazado_840" data-name="Trazado 840" d="M202.516-77.71a1.834,1.834,0,0,0,.169-.822,1.523,1.523,0,0,0-.634-1.353,3.219,3.219,0,0,0-1.821-.433q-.354,0-.775.028a4.872,4.872,0,0,0-.767.106v5.373h.991v-1.919h.5a4.947,4.947,0,0,0,1.062-.1,2.281,2.281,0,0,0,.787-.318A1.418,1.418,0,0,0,202.516-77.71Zm-1.254-.071a2.437,2.437,0,0,1-1.1.2h-.48v-1.856c.162-.016.37-.024.621-.024a3.063,3.063,0,0,1,.531.044,1.352,1.352,0,0,1,.429.145.74.74,0,0,1,.283.283.9.9,0,0,1,.1.448A.777.777,0,0,1,201.261-77.781Z" transform="translate(-198.689 80.916)" fill="#3a3d81"/>
    <path id="Trazado_841" data-name="Trazado 841" d="M209.5-77.6a1.78,1.78,0,0,0-.625-.437,2.049,2.049,0,0,0-.8-.153,2.013,2.013,0,0,0-.795.153,1.82,1.82,0,0,0-.625.437,2,2,0,0,0-.41.681,2.563,2.563,0,0,0-.145.885,2.6,2.6,0,0,0,.145.889,2.032,2.032,0,0,0,.405.685,1.814,1.814,0,0,0,.621.44,1.994,1.994,0,0,0,.8.157,2.021,2.021,0,0,0,.806-.157,1.8,1.8,0,0,0,.626-.44,1.976,1.976,0,0,0,.4-.685,2.655,2.655,0,0,0,.142-.889,2.547,2.547,0,0,0-.146-.885A2.024,2.024,0,0,0,209.5-77.6Zm-.689,2.549a.857.857,0,0,1-.735.362.859.859,0,0,1-.736-.362,1.638,1.638,0,0,1-.263-.983,1.605,1.605,0,0,1,.263-.971.861.861,0,0,1,.736-.358.86.86,0,0,1,.735.358,1.6,1.6,0,0,1,.264.971A1.635,1.635,0,0,1,208.809-75.047Z" transform="translate(-201.615 80.074)" fill="#3a3d81"/>
    <path id="Trazado_842" data-name="Trazado 842" d="M213.986-75.72q.173.527.347.991t.331.826h.782q.2-.582.412-1.239t.389-1.349q.181.693.4,1.349t.421,1.239h.773q.165-.361.339-.826t.347-.991q.173-.526.347-1.109t.339-1.188h-.983q-.072.33-.166.712t-.2.779q-.106.4-.217.775c-.074.252-.145.482-.214.692q-.118-.361-.231-.747t-.212-.771q-.1-.386-.185-.751t-.157-.689h-.732q-.071.323-.162.689t-.193.751q-.1.386-.217.771t-.233.747c-.073-.21-.147-.44-.221-.692s-.145-.51-.214-.775-.134-.525-.2-.779-.119-.492-.166-.712H213.3q.165.605.339,1.188T213.986-75.72Z" transform="translate(-204.459 80.007)" fill="#3a3d81"/>
    <path id="Trazado_843" data-name="Trazado 843" d="M225.986-73.867a3.637,3.637,0,0,0,.417-.024c.136-.016.263-.035.382-.059a3.178,3.178,0,0,0,.314-.078,1.5,1.5,0,0,0,.217-.083l-.126-.779a2.586,2.586,0,0,1-.453.134,2.934,2.934,0,0,1-.633.063,1.332,1.332,0,0,1-.9-.271,1.086,1.086,0,0,1-.35-.767h2.714c0-.052.009-.111.012-.177s0-.125,0-.177a2.277,2.277,0,0,0-.476-1.573,1.691,1.691,0,0,0-1.325-.528,1.9,1.9,0,0,0-.708.138,1.772,1.772,0,0,0-.614.409,2,2,0,0,0-.429.68,2.582,2.582,0,0,0-.161.952,2.76,2.76,0,0,0,.126.854,1.835,1.835,0,0,0,.385.676,1.762,1.762,0,0,0,.661.448A2.531,2.531,0,0,0,225.986-73.867Zm-1.038-2.918a.982.982,0,0,1,.177-.307.875.875,0,0,1,.28-.216.851.851,0,0,1,.385-.083.819.819,0,0,1,.365.075.76.76,0,0,1,.26.2.893.893,0,0,1,.162.307,1.264,1.264,0,0,1,.055.373h-1.77A1.68,1.68,0,0,1,224.948-76.786Z" transform="translate(-208.633 80.074)" fill="#3a3d81"/>
    <path id="Trazado_844" data-name="Trazado 844" d="M233.747-78.116c-.084-.013-.168-.024-.252-.032s-.157-.011-.22-.011a4.27,4.27,0,0,0-.916.091,5.232,5.232,0,0,0-.689.192v3.917h.952v-3.3a2.172,2.172,0,0,1,.247-.055,1.955,1.955,0,0,1,.335-.031,2.384,2.384,0,0,1,.483.044,3.143,3.143,0,0,1,.327.082l.165-.8c-.047-.016-.11-.032-.189-.051S233.83-78.1,233.747-78.116Z" transform="translate(-211.713 80.064)" fill="#3a3d81"/>
    <path id="Trazado_845" data-name="Trazado 845" d="M237.043-74.477a1.762,1.762,0,0,0,.661.448,2.531,2.531,0,0,0,.944.161,3.636,3.636,0,0,0,.417-.024c.136-.016.263-.035.382-.059a3.18,3.18,0,0,0,.314-.078,1.5,1.5,0,0,0,.217-.083l-.126-.779a2.606,2.606,0,0,1-.452.134,2.943,2.943,0,0,1-.634.063,1.332,1.332,0,0,1-.9-.271,1.085,1.085,0,0,1-.35-.767h2.714c0-.052.009-.111.012-.177s0-.125,0-.177a2.277,2.277,0,0,0-.476-1.573,1.691,1.691,0,0,0-1.325-.528,1.894,1.894,0,0,0-.708.138,1.766,1.766,0,0,0-.614.409,2,2,0,0,0-.429.68,2.6,2.6,0,0,0-.161.952,2.76,2.76,0,0,0,.126.854A1.836,1.836,0,0,0,237.043-74.477Zm.566-2.309a.981.981,0,0,1,.177-.307.875.875,0,0,1,.28-.216.851.851,0,0,1,.385-.083.826.826,0,0,1,.366.075.759.759,0,0,1,.259.2.893.893,0,0,1,.162.307,1.263,1.263,0,0,1,.055.373h-1.77A1.641,1.641,0,0,1,237.61-76.786Z" transform="translate(-213.633 80.074)" fill="#3a3d81"/>
    <path id="Trazado_846" data-name="Trazado 846" d="M246.047-75.1a5.518,5.518,0,0,0,.9-.071,5.56,5.56,0,0,0,.712-.157v-5.978l-.952.157v1.974a2.385,2.385,0,0,0-.393-.157,1.781,1.781,0,0,0-.527-.071,1.865,1.865,0,0,0-.779.154,1.592,1.592,0,0,0-.574.436,1.945,1.945,0,0,0-.358.68,3.017,3.017,0,0,0-.122.885,2.589,2.589,0,0,0,.145.893,1.889,1.889,0,0,0,.417.676,1.816,1.816,0,0,0,.657.428A2.4,2.4,0,0,0,246.047-75.1Zm-.877-3.131a.852.852,0,0,1,.759-.354,1.309,1.309,0,0,1,.444.074,1.5,1.5,0,0,1,.335.162v2.36c-.068.016-.156.03-.264.044a3.367,3.367,0,0,1-.389.019,1.018,1.018,0,0,1-.826-.358,1.492,1.492,0,0,1-.3-.988A1.69,1.69,0,0,1,245.17-78.23Z" transform="translate(-216.565 81.306)" fill="#3a3d81"/>
    <path id="Trazado_847" data-name="Trazado 847" d="M256.721-75.1a2.4,2.4,0,0,0,.874-.149,1.792,1.792,0,0,0,.657-.433,1.922,1.922,0,0,0,.417-.68,2.587,2.587,0,0,0,.145-.893,2.988,2.988,0,0,0-.122-.877,2.016,2.016,0,0,0-.35-.68,1.521,1.521,0,0,0-.571-.436A1.875,1.875,0,0,0,257-79.4a1.872,1.872,0,0,0-.531.071,2.236,2.236,0,0,0-.4.157v-2.132l-.952.157v5.821a5.582,5.582,0,0,0,.712.157A5.518,5.518,0,0,0,256.721-75.1Zm-.66-3.257a1.348,1.348,0,0,1,.334-.157,1.357,1.357,0,0,1,.445-.071.851.851,0,0,1,.759.354,1.69,1.69,0,0,1,.24.96,1.492,1.492,0,0,1-.3.988,1.017,1.017,0,0,1-.825.358,3.371,3.371,0,0,1-.39-.019,2.624,2.624,0,0,1-.263-.044Z" transform="translate(-220.969 81.306)" fill="#3a3d81"/>
    <path id="Trazado_848" data-name="Trazado 848" d="M262.434-73.234a1.554,1.554,0,0,1-.561-.11l-.172.763a1.445,1.445,0,0,0,.327.1,2.046,2.046,0,0,0,.437.047,2.065,2.065,0,0,0,.583-.074,1.324,1.324,0,0,0,.457-.24,1.82,1.82,0,0,0,.37-.417,4.268,4.268,0,0,0,.323-.606,30.007,30.007,0,0,0,1.476-4.248h-.983q-.181.74-.4,1.53T263.82-75q-.15-.339-.3-.732t-.284-.79q-.133-.4-.249-.783t-.193-.716h-1.015a20.777,20.777,0,0,0,.738,2.171q.415,1.023.865,1.888a1.449,1.449,0,0,1-.367.547A.873.873,0,0,1,262.434-73.234Z" transform="translate(-223.573 80.007)" fill="#3a3d81"/>
  </g>
</svg>
