<svg xmlns="http://www.w3.org/2000/svg" xmlns:xlink="http://www.w3.org/1999/xlink" width="25.329" height="34.787" viewBox="0 0 25.329 34.787">
  <defs>
    <clipPath id="clip-path">
      <rect id="Rectángulo_1789" data-name="Rectángulo 1789" width="25.329" height="34.787" fill="#fafafa"/>
    </clipPath>
  </defs>
  <g id="Grupo_870" data-name="Grupo 870" transform="translate(0 0)">
    <g id="Grupo_736" data-name="Grupo 736" transform="translate(0 0)" clip-path="url(#clip-path)">
      <path id="Trazado_5581" data-name="Trazado 5581" d="M165.959,213.078c-.172.178-.338.361-.483.516H164.7c-.157-.17-.329-.361-.506-.548a.256.256,0,0,0-.332-.025.249.249,0,0,0-.01.334c.205.242.407.488.628.717a.351.351,0,0,1,.1.307q-.039.474-.078.948l.061-.012c.026.043.08.091.074.13-.041.254-.1.506-.141.76a.2.2,0,0,0,.13.233c.178.065.3-.008.33-.212q.061-.356.124-.713c.064.254.113.5.156.753a.224.224,0,0,0,.234.2.22.22,0,0,0,.2-.242c-.018-.171-.053-.341-.08-.512l-.059-.36.148-.013c-.022-.252-.051-.49-.06-.73a.854.854,0,0,1,.039-.462,7.3,7.3,0,0,1,.638-.748c.121-.135.129-.243.014-.362-.095-.1-.223-.087-.347.04" transform="translate(-150.415 -195.577)" fill="#fafafa"/>
      <path id="Trazado_5582" data-name="Trazado 5582" d="M141.334,225.8a.2.2,0,0,0,.011-.284c-.217-.269-.434-.539-.654-.805-.013-.015-.051-.013-.077-.013-.123,0-.246,0-.369,0a.128.128,0,0,0-.086.026c-.133.157-.261.317-.391.476-.1.123-.2.243-.3.369a.145.145,0,0,0,.053.233.278.278,0,0,0,.229-.034,1.747,1.747,0,0,0,.252-.265l-.04.6.112.019c-.038.233-.077.458-.112.684a.188.188,0,0,0,.14.239.2.2,0,0,0,.231-.186c.028-.181.048-.364.071-.546h.031c.009.032.019.063.025.1.031.169.063.338.091.508.02.126.116.142.207.126a.159.159,0,0,0,.138-.191c-.036-.241-.077-.481-.117-.727l.11-.023-.03-.59c.082.1.141.16.193.229a.2.2,0,0,0,.281.06" transform="translate(-128.044 -206.348)" fill="#fafafa"/>
      <path id="Trazado_5583" data-name="Trazado 5583" d="M173.781,208.524a.475.475,0,0,0,.46.485.445.445,0,0,0,.476-.464.43.43,0,0,0-.461-.471.452.452,0,0,0-.474.45" transform="translate(-159.587 -191.079)" fill="#fafafa"/>
      <path id="Trazado_5584" data-name="Trazado 5584" d="M147.4,215.714a.356.356,0,0,0,.382-.352.4.4,0,0,0-.387-.395.366.366,0,0,0-.363.387.337.337,0,0,0,.368.359" transform="translate(-135.023 -197.41)" fill="#fafafa"/>
      <path id="Trazado_5585" data-name="Trazado 5585" d="M176.208,298.214c.179-.256.336-.528.5-.8a.2.2,0,0,0,.014-.141.219.219,0,0,0-.228-.18.411.411,0,0,0-.237.155c-.161.214-.3.441-.452.664-.03.045-.05.1-.093.18a1.063,1.063,0,0,0,.181.205.227.227,0,0,0,.32-.086" transform="translate(-161.357 -272.828)" fill="#fafafa"/>
      <path id="Trazado_5586" data-name="Trazado 5586" d="M128.154,267.31c.1.09.217.166.327.249l.023-.034c.119.022.177-.045.228-.139a.2.2,0,0,0-.052-.262c-.217-.213-.437-.423-.662-.628a.251.251,0,0,0-.357.023.261.261,0,0,0,.019.349c.156.15.311.3.474.443" transform="translate(-117.182 -244.67)" fill="#fafafa"/>
      <path id="Trazado_5587" data-name="Trazado 5587" d="M74.454,229.612a.282.282,0,0,0-.113-.344c-.211-.159-.415-.327-.625-.486a1.427,1.427,0,0,0-.213-.106c-.07.054-.16.092-.2.16a.238.238,0,0,0,.058.307c.239.188.481.371.731.543a.243.243,0,0,0,.358-.075" transform="translate(-67.29 -209.998)" fill="#fafafa"/>
      <path id="Trazado_5588" data-name="Trazado 5588" d="M204.489,240.529c.065.087.1.181.174.222a.223.223,0,0,0,.288-.059c.185-.189.377-.372.577-.545.131-.114.174-.24.09-.364a.244.244,0,0,0-.375-.036c-.188.15-.368.311-.54.478a2.1,2.1,0,0,0-.213.3" transform="translate(-187.787 -220.1)" fill="#fafafa"/>
      <path id="Trazado_5589" data-name="Trazado 5589" d="M192.881,257.422a.268.268,0,0,0,.333-.1q.22-.355.433-.713c.032-.054.053-.114.1-.205a1.052,1.052,0,0,0-.175-.183.2.2,0,0,0-.281.064q-.264.4-.5.813a.278.278,0,0,0,.095.329" transform="translate(-177.019 -235.259)" fill="#fafafa"/>
      <path id="Trazado_5590" data-name="Trazado 5590" d="M111.866,253.468c.066-.028.108-.113.171-.186a.892.892,0,0,0-.139-.227c-.238-.189-.48-.374-.733-.542a.313.313,0,0,0-.253,0c-.05.022-.085.117-.1.185a.243.243,0,0,0,.132.251c.233.162.449.349.684.509a.287.287,0,0,0,.235.008" transform="translate(-101.76 -231.865)" fill="#fafafa"/>
      <path id="Trazado_5591" data-name="Trazado 5591" d="M93.108,241.5c.067-.031.106-.12.164-.192-.046-.092-.062-.185-.115-.218-.27-.166-.545-.326-.827-.47a.243.243,0,0,0-.335.113.282.282,0,0,0,.147.334c.246.139.488.287.738.418a.294.294,0,0,0,.228.015" transform="translate(-84.468 -220.944)" fill="#fafafa"/>
      <path id="Trazado_5592" data-name="Trazado 5592" d="M218.877,259.992a.674.674,0,0,0-.16.081c-.225.229-.452.458-.665.7a.219.219,0,0,0,.051.333.268.268,0,0,0,.347-.049c.052-.063.1-.128.158-.187.135-.139.274-.273.41-.411a.251.251,0,0,0,.053-.309c-.037-.067-.127-.105-.193-.156" transform="translate(-200.191 -238.757)" fill="#fafafa"/>
      <path id="Trazado_5593" data-name="Trazado 5593" d="M143.84,282.224c.154.155.3.318.467.458a.3.3,0,0,0,.244.045c.074-.025.124-.119.178-.175-.029-.09-.03-.15-.061-.182-.224-.231-.448-.463-.683-.682a.229.229,0,0,0-.322.007.209.209,0,0,0-.041.3,2.052,2.052,0,0,0,.219.227" transform="translate(-131.848 -258.623)" fill="#fafafa"/>
      <path id="Trazado_5594" data-name="Trazado 5594" d="M159.816,298.649a.279.279,0,0,0,.349.1.237.237,0,0,0,.065-.352,8.406,8.406,0,0,0-.625-.731.327.327,0,0,0-.277-.017c-.059.02-.089.125-.132.192a1.224,1.224,0,0,0,.1.186c.171.209.354.409.518.623" transform="translate(-146.193 -273.316)" fill="#fafafa"/>
      <path id="Trazado_5595" data-name="Trazado 5595" d="M102.492,272.285c.256.172.518.335.782.493a.227.227,0,0,0,.317-.085.256.256,0,0,0-.074-.34c-.238-.152-.479-.3-.721-.446-.05-.031-.107-.051-.2-.092a1.281,1.281,0,0,0-.189.183c-.082.119-.014.223.083.288" transform="translate(-94.011 -249.613)" fill="#fafafa"/>
      <path id="Trazado_5596" data-name="Trazado 5596" d="M72.6,212.847a2.535,2.535,0,0,0-.209.332.259.259,0,0,0,.083.359.273.273,0,0,0,.355-.144c.026-.049.053-.1.082-.144.1-.156.273-.145.419-.2s.2-.137.167-.313c-.022-.133-.116-.17-.242-.161-.225.07-.489.054-.654.268" transform="translate(-66.447 -195.214)" fill="#fafafa"/>
      <path id="Trazado_5597" data-name="Trazado 5597" d="M99.6,102.9a1.144,1.144,0,0,0-.316.265,4.993,4.993,0,0,0-.367.465.277.277,0,0,0,.046.367c.157.095.243.063.367-.1.151-.2.32-.383.476-.577a1.25,1.25,0,0,0,.1-.161c0-.224-.151-.338-.307-.26" transform="translate(-90.791 -94.471)" fill="#fafafa"/>
      <path id="Trazado_5598" data-name="Trazado 5598" d="M91.2,206.213c.045.128.166.166.349.106.258-.084.517-.167.773-.258.108-.038.209-.095.179-.229a.223.223,0,0,0-.312-.236c-.268.086-.536.173-.8.262a.249.249,0,0,0-.185.354" transform="translate(-83.726 -188.789)" fill="#fafafa"/>
      <path id="Trazado_5599" data-name="Trazado 5599" d="M187.1,276.584c0-.125-.036-.219-.171-.238-.188-.027-.267.029-.31.187-.074.271-.155.541-.234.811a.253.253,0,0,0,.144.328.243.243,0,0,0,.312-.159,4.794,4.794,0,0,0,.152-.457c.043-.155.072-.314.108-.472" transform="translate(-171.152 -253.77)" fill="#fafafa"/>
      <path id="Trazado_5600" data-name="Trazado 5600" d="M207.452,278.2c.11-.215.219-.431.327-.647.03-.061.055-.124.083-.186-.008-.121-.04-.215-.155-.251a.25.25,0,0,0-.308.114c-.142.255-.276.515-.394.782a.235.235,0,0,0,.119.354c.126.054.247-.006.329-.166" transform="translate(-190.064 -254.47)" fill="#fafafa"/>
      <path id="Trazado_5601" data-name="Trazado 5601" d="M112.624,195.678c-.045.15-.1.265-.281.277a.236.236,0,0,0-.151.061.417.417,0,0,0-.123.222.3.3,0,0,0,.119.208.993.993,0,0,0,.749-.233,3.018,3.018,0,0,0,.172-.434c.053-.194-.021-.353-.213-.326-.167,0-.213.027-.272.225" transform="translate(-102.915 -179.487)" fill="#fafafa"/>
      <path id="Trazado_5602" data-name="Trazado 5602" d="M184.379,121.989a.207.207,0,0,0-.152.243c.089.314.2.621.3.93a.207.207,0,0,0,.275.129c.117-.029.189-.116.181-.294-.1-.281-.193-.609-.32-.924a.218.218,0,0,0-.288-.084" transform="translate(-169.174 -112.006)" fill="#fafafa"/>
      <path id="Trazado_5603" data-name="Trazado 5603" d="M114.249,87.882c-.18.2-.364.4-.542.607a.947.947,0,0,0-.093.161.21.21,0,0,0,.16.235.3.3,0,0,0,.234-.024c.225-.213.438-.44.645-.672a.285.285,0,0,0-.039-.364.322.322,0,0,0-.364.056" transform="translate(-104.334 -80.621)" fill="#fafafa"/>
      <path id="Trazado_5604" data-name="Trazado 5604" d="M82.73,263.963c.257.1.514.2.771.305a.277.277,0,0,0,.382-.24c-.057-.067-.1-.163-.173-.2-.265-.12-.538-.224-.811-.325a.245.245,0,0,0-.35.134.27.27,0,0,0,.181.322" transform="translate(-75.797 -241.962)" fill="#fafafa"/>
      <path id="Trazado_5605" data-name="Trazado 5605" d="M143.287,321.146c.267.152.536.3.812.437a.229.229,0,0,0,.34-.226c.012-.105-.045-.173-.148-.226-.246-.127-.489-.261-.73-.4a.252.252,0,0,0-.347.081.274.274,0,0,0,.074.33" transform="translate(-131.491 -294.504)" fill="#fafafa"/>
      <path id="Trazado_5606" data-name="Trazado 5606" d="M181.52,342.834a.211.211,0,0,0,.319.05.263.263,0,0,0,.043-.368c-.156-.224-.3-.455-.463-.676a.973.973,0,0,0-.194-.159c-.211.031-.328.216-.225.388a9.08,9.08,0,0,0,.52.765" transform="translate(-166.181 -313.774)" fill="#fafafa"/>
      <path id="Trazado_5607" data-name="Trazado 5607" d="M193.22,141.849a1.122,1.122,0,0,0-.207-.153c-.233.029-.354.194-.238.358a9.523,9.523,0,0,0,.622.771.233.233,0,0,0,.33-.018.3.3,0,0,0,0-.331c-.17-.209-.334-.423-.509-.627" transform="translate(-176.989 -130.123)" fill="#fafafa"/>
      <path id="Trazado_5608" data-name="Trazado 5608" d="M228.241,167.656c-.268-.087-.538-.171-.808-.253-.036-.011-.088-.026-.111-.009-.068.049-.157.1-.181.173a.2.2,0,0,0,.127.275c.291.1.582.194.876.283a.215.215,0,0,0,.3-.224c.017-.152-.085-.208-.2-.246" transform="translate(-208.576 -153.715)" fill="#fafafa"/>
      <path id="Trazado_5609" data-name="Trazado 5609" d="M234.557,250.795a.231.231,0,0,0-.058.337.247.247,0,0,0,.315.07c.256-.1.515-.2.779-.28a.226.226,0,0,0,.178-.253.213.213,0,0,0-.239-.219,3.04,3.04,0,0,0-.976.346" transform="translate(-215.3 -229.993)" fill="#fafafa"/>
      <path id="Trazado_5610" data-name="Trazado 5610" d="M126.941,102.747a.257.257,0,0,0-.335.032c-.185.211-.372.421-.543.643-.06.077-.139.182-.052.291a1.707,1.707,0,0,0,.195.18,1.25,1.25,0,0,0,.218-.127,2.282,2.282,0,0,0,.224-.252c.121-.15.245-.3.354-.457a.219.219,0,0,0-.062-.311" transform="translate(-115.684 -94.311)" fill="#fafafa"/>
      <path id="Trazado_5611" data-name="Trazado 5611" d="M172.728,80.412a.247.247,0,0,0-.49.061c.069.3.145.608.226.91a.252.252,0,0,0,.309.163.239.239,0,0,0,.17-.268q-.105-.433-.215-.866" transform="translate(-158.166 -73.656)" fill="#fafafa"/>
      <path id="Trazado_5612" data-name="Trazado 5612" d="M249.131,173.372c-.079-.018-.158-.033-.237-.049l-.728-.153c-.044.041-.128.087-.163.157-.084.169.016.313.218.355.267.055.535.107.8.159a.259.259,0,0,0,.308-.187.264.264,0,0,0-.2-.281" transform="translate(-227.72 -159.025)" fill="#fafafa"/>
      <path id="Trazado_5613" data-name="Trazado 5613" d="M121.36,285.418a.824.824,0,0,0,.188.1c.076-.045.184-.072.206-.131a.314.314,0,0,0-.024-.268c-.2-.23-.426-.444-.649-.656a.244.244,0,0,0-.356.011.3.3,0,0,0,.035.351c.2.2.4.4.6.6" transform="translate(-110.827 -261.161)" fill="#fafafa"/>
      <path id="Trazado_5614" data-name="Trazado 5614" d="M126.644,68.17c-.1.255-.207.511-.3.771a.265.265,0,0,0,.069.335.225.225,0,0,0,.318-.045,2.413,2.413,0,0,0,.38-.978.221.221,0,0,0-.206-.246.231.231,0,0,0-.265.162" transform="translate(-116.002 -62.449)" fill="#fafafa"/>
      <path id="Trazado_5615" data-name="Trazado 5615" d="M162.489,331.419c.26.137.522.269.789.392a.271.271,0,0,0,.371-.249c-.054-.064-.1-.15-.164-.188-.248-.137-.5-.259-.759-.385a.246.246,0,0,0-.355.093.24.24,0,0,0,.118.336" transform="translate(-149.081 -303.92)" fill="#fafafa"/>
      <path id="Trazado_5616" data-name="Trazado 5616" d="M134.306,302.363a.206.206,0,0,0,.252.142c.118-.025.225-.085.219-.247-.1-.315-.195-.634-.315-.943a.221.221,0,0,0-.3-.123.244.244,0,0,0-.153.3c.092.292.193.582.294.871" transform="translate(-123.056 -276.575)" fill="#fafafa"/>
      <path id="Trazado_5617" data-name="Trazado 5617" d="M261.034,202.4c-.095.291-.17.587-.254.882.033.177.1.281.244.29a.229.229,0,0,0,.253-.176c.077-.281.149-.563.22-.845a.248.248,0,0,0-.133-.307.239.239,0,0,0-.33.156" transform="translate(-239.48 -185.711)" fill="#fafafa"/>
      <path id="Trazado_5618" data-name="Trazado 5618" d="M161.219,172.188c-.123.085-.138.23-.031.4.139.223.291.438.425.663a.229.229,0,0,0,.305.092c.072-.026.116-.126.165-.184a1.12,1.12,0,0,0-.068-.2c-.146-.236-.3-.469-.447-.7a.237.237,0,0,0-.35-.074" transform="translate(-147.958 -158.08)" fill="#fafafa"/>
      <path id="Trazado_5619" data-name="Trazado 5619" d="M88.461,142.639c-.065.3-.115.6-.168.887,0,.169.084.278.213.29a.237.237,0,0,0,.254-.209c.056-.276.106-.554.162-.83a.241.241,0,1,0-.461-.138" transform="translate(-81.081 -130.811)" fill="#fafafa"/>
      <path id="Trazado_5620" data-name="Trazado 5620" d="M198.081,318.625a.267.267,0,0,0-.182-.283.25.25,0,0,0-.315.21c-.023.286-.036.572-.054.859l-.038.016a1.045,1.045,0,0,0,.142.228c.159.151.378-.022.386-.219.012-.271.038-.541.06-.811" transform="translate(-181.361 -292.336)" fill="#fafafa"/>
      <path id="Trazado_5621" data-name="Trazado 5621" d="M209.115,157.875c-.233-.142-.463-.289-.7-.424a.265.265,0,0,0-.2-.026.292.292,0,0,0-.157.157.266.266,0,0,0,.13.316c.148.1.295.2.448.285.12.069.249.124.374.185.128-.015.217-.057.251-.171a.266.266,0,0,0-.146-.322" transform="translate(-191.051 -144.558)" fill="#fafafa"/>
      <path id="Trazado_5622" data-name="Trazado 5622" d="M227.9,209.843c-.039.266-.073.532-.11.8l.016,0c0,.041,0,.083,0,.124,0,.158.1.271.233.264a.257.257,0,0,0,.264-.256c.026-.279.043-.56.064-.84a.229.229,0,0,0-.21-.268.208.208,0,0,0-.257.175" transform="translate(-209.183 -192.541)" fill="#fafafa"/>
      <path id="Trazado_5623" data-name="Trazado 5623" d="M151.6,49.323c-.266-.059-.538-.087-.807-.132-.178-.03-.292.034-.31.184s.085.264.259.289a6.8,6.8,0,0,1,.74.144c.191.049.34-.036.341-.224,0-.15-.039-.22-.223-.261" transform="translate(-138.185 -45.166)" fill="#fafafa"/>
      <path id="Trazado_5624" data-name="Trazado 5624" d="M134.175,49.674a.634.634,0,0,0-.5.272,2.156,2.156,0,0,0-.218.464c-.086.231.008.388.221.387.138.02.2-.08.235-.188.071-.215.138-.419.389-.5.133-.042.131-.174.108-.284a.2.2,0,0,0-.23-.153" transform="translate(-122.523 -45.616)" fill="#fafafa"/>
      <path id="Trazado_5625" data-name="Trazado 5625" d="M267.569,183.031a.222.222,0,0,0,.288-.189c.029-.133.049-.268.078-.428-.039-.166-.07-.356-.13-.536a.264.264,0,0,0-.354-.172c-.121.049-.143.164-.105.339a4.716,4.716,0,0,1,.072.556,1.014,1.014,0,0,1-.028.163.257.257,0,0,0,.179.267" transform="translate(-245.494 -166.846)" fill="#fafafa"/>
      <path id="Trazado_5626" data-name="Trazado 5626" d="M84.29,164c-.079.308-.135.622-.192.9,0,.19.077.3.213.305a.228.228,0,0,0,.25-.16c.072-.3.132-.612.189-.92a.226.226,0,0,0-.2-.278.21.21,0,0,0-.262.157" transform="translate(-77.229 -150.452)" fill="#fafafa"/>
      <path id="Trazado_5627" data-name="Trazado 5627" d="M177.275,160.918c-.083-.135-.2-.2-.317-.15-.149.061-.194.162-.128.336a2.456,2.456,0,0,0,.515.8.211.211,0,0,0,.266.045c.067-.034.11-.118.158-.174a1.17,1.17,0,0,0-.074-.208c-.137-.218-.286-.429-.419-.648" transform="translate(-162.359 -147.622)" fill="#fafafa"/>
      <path id="Trazado_5628" data-name="Trazado 5628" d="M178.069,101.1a.29.29,0,0,0-.151.334c.081.285.171.567.262.848a.206.206,0,0,0,.251.145c.118-.024.226-.082.222-.245-.088-.293-.173-.586-.265-.878-.055-.174-.179-.249-.319-.2" transform="translate(-163.378 -92.827)" fill="#fafafa"/>
      <path id="Trazado_5629" data-name="Trazado 5629" d="M117.925,120.74c-.121.281-.223.571-.322.861a.252.252,0,0,0,.166.307.232.232,0,0,0,.3-.145c.057-.134.107-.271.156-.408.059-.165.114-.332.171-.5a.235.235,0,0,0-.18-.246.231.231,0,0,0-.286.13" transform="translate(-107.988 -110.748)" fill="#fafafa"/>
      <path id="Trazado_5630" data-name="Trazado 5630" d="M61.95,256.534a.227.227,0,0,0,.168.273c.276.095.554.183.832.271a.224.224,0,0,0,.308-.16.22.22,0,0,0-.165-.3l-.271-.093-.615-.2a.238.238,0,0,0-.257.212" transform="translate(-56.884 -235.386)" fill="#fafafa"/>
      <path id="Trazado_5631" data-name="Trazado 5631" d="M152.178,152.712c-.2.033-.306.143-.229.371.09.266.212.522.327.78a.222.222,0,0,0,.316.129.25.25,0,0,0,.121-.341c-.106-.25-.213-.5-.31-.755a.278.278,0,0,0-.225-.183" transform="translate(-139.515 -140.239)" fill="#fafafa"/>
      <path id="Trazado_5632" data-name="Trazado 5632" d="M200.212,298.078c.075-.287.144-.576.222-.863a.2.2,0,0,0-.129-.276c-.122-.045-.255-.031-.3.1-.109.307-.2.623-.29.936.034.164.109.269.234.289a.247.247,0,0,0,.265-.186" transform="translate(-183.4 -272.664)" fill="#fafafa"/>
      <path id="Trazado_5633" data-name="Trazado 5633" d="M231.674,190.772a.228.228,0,0,0,.327-.154c.043-.139.073-.281.1-.4a1.089,1.089,0,0,0-.24-.655.247.247,0,0,0-.349-.031.275.275,0,0,0-.014.357.625.625,0,0,1,.091.28,1.234,1.234,0,0,1-.052.311.23.23,0,0,0,.136.287" transform="translate(-212.538 -174)" fill="#fafafa"/>
      <path id="Trazado_5634" data-name="Trazado 5634" d="M111.393,142.233c.044-.042.141-.092.168-.168.1-.283.182-.575.268-.864a.236.236,0,0,0-.165-.3.245.245,0,0,0-.3.169c-.086.268-.177.535-.245.807-.057.229.047.325.273.36" transform="translate(-102.029 -129.376)" fill="#fafafa"/>
      <path id="Trazado_5635" data-name="Trazado 5635" d="M195.227,341.47a.262.262,0,0,0,.328-.218c.064-.271.112-.545.166-.818l-.025,0c0-.031,0-.062,0-.093.011-.152-.089-.192-.211-.2a.206.206,0,0,0-.257.177q-.075.41-.155.819c-.033.169.029.312.153.342" transform="translate(-179.133 -312.349)" fill="#fafafa"/>
      <path id="Trazado_5636" data-name="Trazado 5636" d="M148.706,132.047a.21.21,0,0,0-.315,0,.352.352,0,0,0-.033.318,1.122,1.122,0,0,1,.184.646c0,.175.087.283.228.287a.268.268,0,0,0,.271-.258c-.013-.143-.015-.246-.033-.346a1.071,1.071,0,0,0-.3-.647" transform="translate(-136.218 -121.196)" fill="#fafafa"/>
      <path id="Trazado_5637" data-name="Trazado 5637" d="M123.481,175.6a.433.433,0,0,0,.024-.234.21.21,0,0,0-.212-.165.232.232,0,0,0-.25.158c-.051.126-.1.254-.142.382-.059.17-.116.342-.182.539.035.057.059.139.112.175.141.1.306.084.4-.174.085-.226.169-.452.245-.681" transform="translate(-112.697 -160.893)" fill="#fafafa"/>
      <path id="Trazado_5638" data-name="Trazado 5638" d="M168.994,59.5c-.031-.194-.053-.39-.094-.582a.232.232,0,0,0-.3-.159.277.277,0,0,0-.165.266c.041.29.076.582.128.87a.212.212,0,0,0,.241.2.233.233,0,0,0,.237-.314c-.022-.093-.031-.19-.046-.285" transform="translate(-154.675 -53.949)" fill="#fafafa"/>
      <path id="Trazado_5639" data-name="Trazado 5639" d="M95.732,182.708a1.619,1.619,0,0,1-.583.522.3.3,0,0,0-.1.24.184.184,0,0,0,.212.188,1.1,1.1,0,0,0,.694-.428,2.222,2.222,0,0,0,.24-.381c-.064-.087-.106-.2-.16-.205-.1-.013-.26,0-.306.065" transform="translate(-87.289 -167.722)" fill="#fafafa"/>
      <path id="Trazado_5640" data-name="Trazado 5640" d="M92.463,121.532c-.082.311-.15.627-.224.941a.277.277,0,0,0,.231.273.243.243,0,0,0,.258-.222c.026-.133.063-.264.09-.4.034-.168.072-.336.093-.505a.179.179,0,0,0-.17-.212c-.113-.014-.242-.014-.279.124" transform="translate(-84.705 -111.486)" fill="#fafafa"/>
      <path id="Trazado_5641" data-name="Trazado 5641" d="M163.586,119.752a.223.223,0,0,0-.137.275c.074.288.162.572.253.854a.23.23,0,0,0,.243.172.219.219,0,0,0,.223-.294c-.083-.291-.167-.58-.257-.869a.225.225,0,0,0-.324-.139" transform="translate(-150.091 -109.949)" fill="#fafafa"/>
      <path id="Trazado_5642" data-name="Trazado 5642" d="M191.6,177.326a1.4,1.4,0,0,0-.225-.084c-.192-.089-.377-.192-.572-.275a.222.222,0,0,0-.291.1.213.213,0,0,0,.056.3,2.48,2.48,0,0,0,.937.411c.142.026.254-.08.288-.251a1.343,1.343,0,0,0-.192-.205" transform="translate(-174.915 -162.494)" fill="#fafafa"/>
      <path id="Trazado_5643" data-name="Trazado 5643" d="M106.813,161.62a.225.225,0,0,0-.266.193c-.045.3-.092.591-.138.887.016.154.1.28.216.279a.238.238,0,0,0,.269-.229c.037-.281.086-.561.122-.842.02-.161-.059-.28-.2-.288" transform="translate(-97.719 -148.419)" fill="#fafafa"/>
      <path id="Trazado_5644" data-name="Trazado 5644" d="M135.708,135.421c.082-.231.177-.458.277-.682a.25.25,0,0,0-.388-.316,2.215,2.215,0,0,0-.361.9c0,.191.082.3.2.313s.216-.069.268-.214" transform="translate(-124.19 -123.379)" fill="#fafafa"/>
      <path id="Trazado_5645" data-name="Trazado 5645" d="M130.442,154.6a.262.262,0,0,0-.3.18q-.122.412-.241.824a.232.232,0,0,0,.244.3.187.187,0,0,0,.221-.151c.087-.293.17-.589.241-.886a.212.212,0,0,0-.165-.272" transform="translate(-119.28 -141.971)" fill="#fafafa"/>
      <path id="Trazado_5646" data-name="Trazado 5646" d="M41.847,254.674a2.153,2.153,0,0,1,.8-.088.235.235,0,1,0,0-.467c-.093,0-.186,0-.28,0v-.013c-.173.016-.346.028-.519.049a.541.541,0,0,0-.154.059.25.25,0,0,0-.146.3.238.238,0,0,0,.3.165" transform="translate(-38.142 -233.35)" fill="#fafafa"/>
      <path id="Trazado_5647" data-name="Trazado 5647" d="M211.855,184.323q-.4-.079-.8-.169a.25.25,0,0,0-.308.148.244.244,0,0,0,.155.321c.3.067.605.119.863.168.2,0,.3-.084.314-.213a.243.243,0,0,0-.225-.256" transform="translate(-193.52 -169.106)" fill="#fafafa"/>
      <path id="Trazado_5648" data-name="Trazado 5648" d="M159.465,99.83c-.045-.244-.092-.539-.157-.829-.038-.17-.146-.226-.322-.187-.153.034-.161.16-.142.28.045.279.1.557.154.834a.239.239,0,0,0,.26.224c.12-.009.207-.123.207-.322" transform="translate(-145.863 -90.732)" fill="#fafafa"/>
      <path id="Trazado_5649" data-name="Trazado 5649" d="M170.42,140.637a.215.215,0,0,0-.248-.173c-.191-.045-.26.191-.206.345.09.257.175.515.263.772a.244.244,0,0,0,.3.184.253.253,0,0,0,.147-.338c-.086-.263-.179-.524-.26-.789" transform="translate(-156.067 -128.986)" fill="#fafafa"/>
      <path id="Trazado_5650" data-name="Trazado 5650" d="M140.026,92.762a4.6,4.6,0,0,0-.522.132.262.262,0,0,0-.16.326c.058.132.2.162.37.112a1.872,1.872,0,0,1,.433-.062c.111-.006.223.027.335.024.135,0,.189-.094.2-.221a.213.213,0,0,0-.186-.24c-.15-.029-.3-.032-.457-.046l-.01-.024" transform="translate(-127.948 -85.185)" fill="#fafafa"/>
      <path id="Trazado_5651" data-name="Trazado 5651" d="M79.2,185.111c-.06.138-.119.276-.166.418-.061.18,0,.286.188.339a2.92,2.92,0,0,0,.442.09.23.23,0,0,0,.261-.246c0-.173-.089-.243-.329-.256l.052-.165a.244.244,0,0,0-.133-.3.252.252,0,0,0-.315.115" transform="translate(-72.56 -169.87)" fill="#fafafa"/>
      <path id="Trazado_5652" data-name="Trazado 5652" d="M260.344,223.661c-.185-.032-.312.054-.32.228-.007.15,0,.3,0,.452s0,.281,0,.421c0,.179.07.242.258.24.155,0,.208-.061.209-.234,0-.27-.006-.54.01-.809.008-.14-.044-.277-.156-.3" transform="translate(-238.783 -205.387)" fill="#fafafa"/>
      <path id="Trazado_5653" data-name="Trazado 5653" d="M255.652,245.688a.224.224,0,0,0,.172.281,3.407,3.407,0,0,0,.513.071c.155.01.227-.066.224-.222s-.015-.339-.032-.507a.225.225,0,0,0-.249-.2c-.113.028-.23.071-.218.229,0,.051,0,.1,0,.172a.685.685,0,0,1-.108-.008.228.228,0,0,0-.3.183" transform="translate(-234.762 -225.088)" fill="#fafafa"/>
      <path id="Trazado_5654" data-name="Trazado 5654" d="M224.307,231.915c0-.148-.028-.3-.027-.444a.185.185,0,0,0-.148-.2c-.075-.015-.194-.013-.231.032a1.327,1.327,0,0,0-.142.342h-.084c-.18,0-.272.091-.271.256s.1.237.268.244c.112,0,.224.015.335.03a.247.247,0,0,0,.3-.257" transform="translate(-205.157 -212.37)" fill="#fafafa"/>
      <path id="Trazado_5655" data-name="Trazado 5655" d="M173.385,190.168a.256.256,0,0,0-.318-.085.246.246,0,0,0-.091.345,3.562,3.562,0,0,0,.321.405.211.211,0,0,0,.275.034.777.777,0,0,0,.155-.192,1.733,1.733,0,0,0-.1-.193c-.077-.107-.162-.208-.241-.314" transform="translate(-158.813 -174.533)" fill="#fafafa"/>
      <path id="Trazado_5656" data-name="Trazado 5656" d="M23.775,12.981A29.29,29.29,0,0,1,20.328,12a6.343,6.343,0,0,1-3.957-4.074,4.825,4.825,0,0,1,3.489-6.294,1.711,1.711,0,0,0,.722-.348.611.611,0,0,0-.107-1.05,1.585,1.585,0,0,0-.5-.163,5.846,5.846,0,0,0-2.856.282,11.315,11.315,0,0,1-5.388.815,1.635,1.635,0,0,0-1.7.98A8.976,8.976,0,0,1,7.742,4.836,5.4,5.4,0,0,0,5.783,8.257c-.32,1.766-.629,3.538-1.069,5.276A5.791,5.791,0,0,1,.323,18.1c-.216.054-.36.165-.315.394a.338.338,0,0,0,.469.264,7,7,0,0,0,1.313-.433,6.73,6.73,0,0,0,3.578-4.578c.435-1.838.778-3.7,1.126-5.556A4.422,4.422,0,0,1,8.062,5.459a10.1,10.1,0,0,0,2.565-2.984,1.223,1.223,0,0,1,1.3-.633c.42.035.84.091,1.261.1a9.239,9.239,0,0,0,2.987-.6A7.89,7.89,0,0,1,19.846.738l.321.041L19.933.9a3.419,3.419,0,0,1-.386.124,5.367,5.367,0,0,0-4.1,5.362A6.688,6.688,0,0,0,18.9,12.06a13.515,13.515,0,0,0,4.456,1.525c1.305.271,1.467.575,1.12,1.864a17.154,17.154,0,0,0-.46,2.232,20.925,20.925,0,0,0,.2,4.76c.05.514.1,1.027.144,1.541L24.257,24a2.231,2.231,0,0,0-.3-.326,9.2,9.2,0,0,0-1.523-1.064,3.1,3.1,0,0,0-4.4,2.357,11.571,11.571,0,0,0-.139,1.583,13.75,13.75,0,0,1-.926,5.027A18.636,18.636,0,0,1,15.9,33.773a.561.561,0,0,1-1.036-.037.966.966,0,0,1-.086-.692,3.5,3.5,0,0,1,.555-.98c.722-.914.612-1.572-.4-2.163a2.326,2.326,0,0,0-.326-.168c-.988-.384-1.971-.781-2.969-1.135a1.039,1.039,0,0,1-.72-.739,8.573,8.573,0,0,0-.73-1.759,7.258,7.258,0,0,0-3.407-2.884c-1.115-.5-2.278-.889-3.419-1.328l-.015.016a.216.216,0,0,0-.074-.045c-.048-.018-.093-.043-.156-.073a.686.686,0,0,1,.053-.095.228.228,0,0,0-.035-.353.224.224,0,0,0-.328.036,3.4,3.4,0,0,0-.283.434.188.188,0,0,0,.106.3c.123.055.249.1.376.152l-.037.039a3.148,3.148,0,0,0,.625.39,17.436,17.436,0,0,1,3.851,1.658,5.738,5.738,0,0,1,2.781,3.531,1.847,1.847,0,0,0,1.414,1.441A29.941,29.941,0,0,1,14.587,30.5c.648.292.641.568.224,1.138a4.725,4.725,0,0,0-.714,1.349,1.433,1.433,0,0,0,.859,1.7,1.2,1.2,0,0,0,1.581-.633,13.476,13.476,0,0,0,1.821-5.033c.16-1.114.167-2.25.26-3.375a2.7,2.7,0,0,1,1.061-2.2,2.8,2.8,0,0,1,3.369.292c.257.221.478.483.717.725a.71.71,0,0,0,1.269-.591c-.045-.569-.1-1.138-.169-1.706a15.969,15.969,0,0,1,.322-6.873c.417-1.3-.094-2-1.412-2.315" transform="translate(0 0)" fill="#fafafa"/>
    </g>
  </g>
</svg>
