<svg id="Grupo_881" data-name="Grupo 881" xmlns="http://www.w3.org/2000/svg" xmlns:xlink="http://www.w3.org/1999/xlink" width="170.902" height="18.002" viewBox="0 0 170.902 18.002">
  <defs>
    <clipPath id="clip-path">
      <rect id="Rectángulo_1679" data-name="Rectángulo 1679" width="12.546" height="18.002" fill="#3a3d81"/>
    </clipPath>
  </defs>
  <g id="Grupo_602" data-name="Grupo 602" transform="translate(0)" opacity="0.3">
    <g id="Grupo_601" data-name="Grupo 601" clip-path="url(#clip-path)">
      <path id="Trazado_1444" data-name="Trazado 1444" d="M8.04,6.474v.714c.013.007.02.013.027.013.2.014.2.013.2.209,0,.244,0,.488,0,.747h.241v.959l.245.011v.939l.235.019V10.8h.239v.962h.244v.956l.216.013v.7c.02.011.026.017.033.018.2.015.2.015.2.211,0,.244,0,.487,0,.746h.244v.958h.241v.95l.239.02v.716l.231.011v.219h-.7l-.013.246H9.255l-.02.238h-.7c-.011.018-.018.025-.018.032-.015.2-.015.2-.219.206-.079,0-.158,0-.248,0V17.53l-.217-.01v-.95l-.243-.011c0-.166,0-.325,0-.485,0-.068,0-.136,0-.2s.015-.17-.023-.221-.133-.039-.216-.059v-.7l-.235-.01v-.95H6.865v-.953l-.238-.017v-.714l-.233-.011-.011-.224H6.155v.781c0,.178.015.169-.17.167-.016,0-.032,0-.06.007v.714l-.24.012v.948l-.242.011v.946l-.241.014v.714l-.233.014v.946H4.723V18H4.276v-.229H3.32l-.014-.24H2.631c-.013-.018-.02-.024-.021-.031-.023-.186-.022-.192-.215-.2-.163-.008-.326,0-.5,0v-.239a.387.387,0,0,1,.091-.012c.1.01.133-.025.132-.127,0-.24.006-.48.01-.72,0-.031,0-.062.005-.1l.23-.013v-.946l.244-.013v-.95h.236v-.723l.214-.016v-.942l.247-.013v-.95h.239v-.719c.236-.054.238-.054.243-.321,0-.211,0-.423,0-.643l.233-.014V8.886h.244V7.928l.244-.012V7.2l.211-.015V6.233h.239V6H4.724v.236H4.507v.23h-.24v.24h-.24v.24h-.24v.24h-.24v.24h-.24v.24h-.24v.239l-.216.01v.231h-.24v.24h-.24v.24h-.24v.24h-.24v.24h-.24v.24h-.24v.237H1.2V9.357H.958v-.24H.717v-.24H.477v-.24H.237V8.4H0V8.167H.228v-.24h.24v-.24h.24v-.24h.24v-.24h.24v-.24l.22-.01V6.722h.24v-.24h.24v-.24h.24V6h.24v-.24h.24V5.52h.24V5.284l.216-.01V5.04h.24V4.8h.24v-.24h.24v-.24h.24v-.24h.24v-.24h.24V3.6h.45V3.351H4.731V3.111L4.515,3.1V2.63H4.278V1.438l.228-.012V.958l.228-.01c0-.124,0-.243,0-.362,0-.086.031-.113.113-.109.115,0,.231,0,.357,0V.234h.473L5.69,0H6.857l.015.222h.461l.012.243h.47v.48l.218.013v.465l.233.013V2.622H8.038V3.1l-.216.011v.232H7.585V3.59h.445v.24h.24v.24h.24v.24h.24v.24h.24v.24h.24v.24h.24v.239l.216.011v.23h.24v.24h.24v.24h.24v.24h.24v.24h.24v.24h.24v.239l.216.012v.23h.241v.241h.242v.241h.238l.013.238.229.011.011.228.227.011v.223h-.229v.24h-.24v.24h-.24v.24H11.6v.24h-.24v.235h-.209V9.358h-.24v-.24h-.24v-.24h-.24v-.24h-.24V8.4h-.24v-.24h-.24V7.918l-.216-.011V7.676h-.24v-.24h-.24V7.2h-.24v-.24h-.24v-.24h-.24V6.476h-.25V6.24H7.829v.233Z" fill="#3a3d81"/>
    </g>
  </g>
  <g id="Grupo_610" data-name="Grupo 610" transform="translate(39.634)" opacity="0.3">
    <g id="Grupo_601-2" data-name="Grupo 601" clip-path="url(#clip-path)">
      <path id="Trazado_1444-2" data-name="Trazado 1444" d="M8.04,6.474v.714c.013.007.02.013.027.013.2.014.2.013.2.209,0,.244,0,.488,0,.747h.241v.959l.245.011v.939l.235.019V10.8h.239v.962h.244v.956l.216.013v.7c.02.011.026.017.033.018.2.015.2.015.2.211,0,.244,0,.487,0,.746h.244v.958h.241v.95l.239.02v.716l.231.011v.219h-.7l-.013.246H9.255l-.02.238h-.7c-.011.018-.018.025-.018.032-.015.2-.015.2-.219.206-.079,0-.158,0-.248,0V17.53l-.217-.01v-.95l-.243-.011c0-.166,0-.325,0-.485,0-.068,0-.136,0-.2s.015-.17-.023-.221-.133-.039-.216-.059v-.7l-.235-.01v-.95H6.865v-.953l-.238-.017v-.714l-.233-.011-.011-.224H6.155v.781c0,.178.015.169-.17.167-.016,0-.032,0-.06.007v.714l-.24.012v.948l-.242.011v.946l-.241.014v.714l-.233.014v.946H4.723V18H4.276v-.229H3.32l-.014-.24H2.631c-.013-.018-.02-.024-.021-.031-.023-.186-.022-.192-.215-.2-.163-.008-.326,0-.5,0v-.239a.387.387,0,0,1,.091-.012c.1.01.133-.025.132-.127,0-.24.006-.48.01-.72,0-.031,0-.062.005-.1l.23-.013v-.946l.244-.013v-.95h.236v-.723l.214-.016v-.942l.247-.013v-.95h.239v-.719c.236-.054.238-.054.243-.321,0-.211,0-.423,0-.643l.233-.014V8.886h.244V7.928l.244-.012V7.2l.211-.015V6.233h.239V6H4.724v.236H4.507v.23h-.24v.24h-.24v.24h-.24v.24h-.24v.24h-.24v.24h-.24v.239l-.216.01v.231h-.24v.24h-.24v.24h-.24v.24h-.24v.24h-.24v.24h-.24v.237H1.2V9.357H.958v-.24H.717v-.24H.477v-.24H.237V8.4H0V8.167H.228v-.24h.24v-.24h.24v-.24h.24v-.24h.24v-.24l.22-.01V6.722h.24v-.24h.24v-.24h.24V6h.24v-.24h.24V5.52h.24V5.284l.216-.01V5.04h.24V4.8h.24v-.24h.24v-.24h.24v-.24h.24v-.24h.24V3.6h.45V3.351H4.731V3.111L4.515,3.1V2.63H4.278V1.438l.228-.012V.958l.228-.01c0-.124,0-.243,0-.362,0-.086.031-.113.113-.109.115,0,.231,0,.357,0V.234h.473L5.69,0H6.857l.015.222h.461l.012.243h.47v.48l.218.013v.465l.233.013V2.622H8.038V3.1l-.216.011v.232H7.585V3.59h.445v.24h.24v.24h.24v.24h.24v.24h.24v.24h.24v.24h.24v.239l.216.011v.23h.24v.24h.24v.24h.24v.24h.24v.24h.24v.24h.24v.239l.216.012v.23h.241v.241h.242v.241h.238l.013.238.229.011.011.228.227.011v.223h-.229v.24h-.24v.24h-.24v.24H11.6v.24h-.24v.235h-.209V9.358h-.24v-.24h-.24v-.24h-.24v-.24h-.24V8.4h-.24v-.24h-.24V7.918l-.216-.011V7.676h-.24v-.24h-.24V7.2h-.24v-.24h-.24v-.24h-.24V6.476h-.25V6.24H7.829v.233Z" fill="#3a3d81"/>
    </g>
  </g>
  <g id="Grupo_614" data-name="Grupo 614" transform="translate(79.221)" opacity="0.3">
    <g id="Grupo_601-3" data-name="Grupo 601" clip-path="url(#clip-path)">
      <path id="Trazado_1444-3" data-name="Trazado 1444" d="M8.04,6.474v.714c.013.007.02.013.027.013.2.014.2.013.2.209,0,.244,0,.488,0,.747h.241v.959l.245.011v.939l.235.019V10.8h.239v.962h.244v.956l.216.013v.7c.02.011.026.017.033.018.2.015.2.015.2.211,0,.244,0,.487,0,.746h.244v.958h.241v.95l.239.02v.716l.231.011v.219h-.7l-.013.246H9.255l-.02.238h-.7c-.011.018-.018.025-.018.032-.015.2-.015.2-.219.206-.079,0-.158,0-.248,0V17.53l-.217-.01v-.95l-.243-.011c0-.166,0-.325,0-.485,0-.068,0-.136,0-.2s.015-.17-.023-.221-.133-.039-.216-.059v-.7l-.235-.01v-.95H6.865v-.953l-.238-.017v-.714l-.233-.011-.011-.224H6.155v.781c0,.178.015.169-.17.167-.016,0-.032,0-.06.007v.714l-.24.012v.948l-.242.011v.946l-.241.014v.714l-.233.014v.946H4.723V18H4.276v-.229H3.32l-.014-.24H2.631c-.013-.018-.02-.024-.021-.031-.023-.186-.022-.192-.215-.2-.163-.008-.326,0-.5,0v-.239a.387.387,0,0,1,.091-.012c.1.01.133-.025.132-.127,0-.24.006-.48.01-.72,0-.031,0-.062.005-.1l.23-.013v-.946l.244-.013v-.95h.236v-.723l.214-.016v-.942l.247-.013v-.95h.239v-.719c.236-.054.238-.054.243-.321,0-.211,0-.423,0-.643l.233-.014V8.886h.244V7.928l.244-.012V7.2l.211-.015V6.233h.239V6H4.724v.236H4.507v.23h-.24v.24h-.24v.24h-.24v.24h-.24v.24h-.24v.24h-.24v.239l-.216.01v.231h-.24v.24h-.24v.24h-.24v.24h-.24v.24h-.24v.24h-.24v.237H1.2V9.357H.958v-.24H.717v-.24H.477v-.24H.237V8.4H0V8.167H.228v-.24h.24v-.24h.24v-.24h.24v-.24h.24v-.24l.22-.01V6.722h.24v-.24h.24v-.24h.24V6h.24v-.24h.24V5.52h.24V5.284l.216-.01V5.04h.24V4.8h.24v-.24h.24v-.24h.24v-.24h.24v-.24h.24V3.6h.45V3.351H4.731V3.111L4.515,3.1V2.63H4.278V1.438l.228-.012V.958l.228-.01c0-.124,0-.243,0-.362,0-.086.031-.113.113-.109.115,0,.231,0,.357,0V.234h.473L5.69,0H6.857l.015.222h.461l.012.243h.47v.48l.218.013v.465l.233.013V2.622H8.038V3.1l-.216.011v.232H7.585V3.59h.445v.24h.24v.24h.24v.24h.24v.24h.24v.24h.24v.24h.24v.239l.216.011v.23h.24v.24h.24v.24h.24v.24h.24v.24h.24v.24h.24v.239l.216.012v.23h.241v.241h.242v.241h.238l.013.238.229.011.011.228.227.011v.223h-.229v.24h-.24v.24h-.24v.24H11.6v.24h-.24v.235h-.209V9.358h-.24v-.24h-.24v-.24h-.24v-.24h-.24V8.4h-.24v-.24h-.24V7.918l-.216-.011V7.676h-.24v-.24h-.24V7.2h-.24v-.24h-.24v-.24h-.24V6.476h-.25V6.24H7.829v.233Z" fill="#3a3d81"/>
    </g>
  </g>
  <g id="Grupo_618" data-name="Grupo 618" transform="translate(138.581)" opacity="0.3">
    <g id="Grupo_601-4" data-name="Grupo 601" clip-path="url(#clip-path)">
      <path id="Trazado_1444-4" data-name="Trazado 1444" d="M8.04,6.474v.714c.013.007.02.013.027.013.2.014.2.013.2.209,0,.244,0,.488,0,.747h.241v.959l.245.011v.939l.235.019V10.8h.239v.962h.244v.956l.216.013v.7c.02.011.026.017.033.018.2.015.2.015.2.211,0,.244,0,.487,0,.746h.244v.958h.241v.95l.239.02v.716l.231.011v.219h-.7l-.013.246H9.255l-.02.238h-.7c-.011.018-.018.025-.018.032-.015.2-.015.2-.219.206-.079,0-.158,0-.248,0V17.53l-.217-.01v-.95l-.243-.011c0-.166,0-.325,0-.485,0-.068,0-.136,0-.2s.015-.17-.023-.221-.133-.039-.216-.059v-.7l-.235-.01v-.95H6.865v-.953l-.238-.017v-.714l-.233-.011-.011-.224H6.155v.781c0,.178.015.169-.17.167-.016,0-.032,0-.06.007v.714l-.24.012v.948l-.242.011v.946l-.241.014v.714l-.233.014v.946H4.723V18H4.276v-.229H3.32l-.014-.24H2.631c-.013-.018-.02-.024-.021-.031-.023-.186-.022-.192-.215-.2-.163-.008-.326,0-.5,0v-.239a.387.387,0,0,1,.091-.012c.1.01.133-.025.132-.127,0-.24.006-.48.01-.72,0-.031,0-.062.005-.1l.23-.013v-.946l.244-.013v-.95h.236v-.723l.214-.016v-.942l.247-.013v-.95h.239v-.719c.236-.054.238-.054.243-.321,0-.211,0-.423,0-.643l.233-.014V8.886h.244V7.928l.244-.012V7.2l.211-.015V6.233h.239V6H4.724v.236H4.507v.23h-.24v.24h-.24v.24h-.24v.24h-.24v.24h-.24v.24h-.24v.239l-.216.01v.231h-.24v.24h-.24v.24h-.24v.24h-.24v.24h-.24v.24h-.24v.237H1.2V9.357H.958v-.24H.717v-.24H.477v-.24H.237V8.4H0V8.167H.228v-.24h.24v-.24h.24v-.24h.24v-.24h.24v-.24l.22-.01V6.722h.24v-.24h.24v-.24h.24V6h.24v-.24h.24V5.52h.24V5.284l.216-.01V5.04h.24V4.8h.24v-.24h.24v-.24h.24v-.24h.24v-.24h.24V3.6h.45V3.351H4.731V3.111L4.515,3.1V2.63H4.278V1.438l.228-.012V.958l.228-.01c0-.124,0-.243,0-.362,0-.086.031-.113.113-.109.115,0,.231,0,.357,0V.234h.473L5.69,0H6.857l.015.222h.461l.012.243h.47v.48l.218.013v.465l.233.013V2.622H8.038V3.1l-.216.011v.232H7.585V3.59h.445v.24h.24v.24h.24v.24h.24v.24h.24v.24h.24v.24h.24v.239l.216.011v.23h.24v.24h.24v.24h.24v.24h.24v.24h.24v.24h.24v.239l.216.012v.23h.241v.241h.242v.241h.238l.013.238.229.011.011.228.227.011v.223h-.229v.24h-.24v.24h-.24v.24H11.6v.24h-.24v.235h-.209V9.358h-.24v-.24h-.24v-.24h-.24v-.24h-.24V8.4h-.24v-.24h-.24V7.918l-.216-.011V7.676h-.24v-.24h-.24V7.2h-.24v-.24h-.24v-.24h-.24V6.476h-.25V6.24H7.829v.233Z" fill="#3a3d81"/>
    </g>
  </g>
  <g id="Grupo_603" data-name="Grupo 603" transform="translate(9.9)" opacity="0.5">
    <g id="Grupo_601-5" data-name="Grupo 601" clip-path="url(#clip-path)">
      <path id="Trazado_1444-5" data-name="Trazado 1444" d="M8.04,6.474v.714c.013.007.02.013.027.013.2.014.2.013.2.209,0,.244,0,.488,0,.747h.241v.959l.245.011v.939l.235.019V10.8h.239v.962h.244v.956l.216.013v.7c.02.011.026.017.033.018.2.015.2.015.2.211,0,.244,0,.487,0,.746h.244v.958h.241v.95l.239.02v.716l.231.011v.219h-.7l-.013.246H9.255l-.02.238h-.7c-.011.018-.018.025-.018.032-.015.2-.015.2-.219.206-.079,0-.158,0-.248,0V17.53l-.217-.01v-.95l-.243-.011c0-.166,0-.325,0-.485,0-.068,0-.136,0-.2s.015-.17-.023-.221-.133-.039-.216-.059v-.7l-.235-.01v-.95H6.865v-.953l-.238-.017v-.714l-.233-.011-.011-.224H6.155v.781c0,.178.015.169-.17.167-.016,0-.032,0-.06.007v.714l-.24.012v.948l-.242.011v.946l-.241.014v.714l-.233.014v.946H4.723V18H4.276v-.229H3.32l-.014-.24H2.631c-.013-.018-.02-.024-.021-.031-.023-.186-.022-.192-.215-.2-.163-.008-.326,0-.5,0v-.239a.387.387,0,0,1,.091-.012c.1.01.133-.025.132-.127,0-.24.006-.48.01-.72,0-.031,0-.062.005-.1l.23-.013v-.946l.244-.013v-.95h.236v-.723l.214-.016v-.942l.247-.013v-.95h.239v-.719c.236-.054.238-.054.243-.321,0-.211,0-.423,0-.643l.233-.014V8.886h.244V7.928l.244-.012V7.2l.211-.015V6.233h.239V6H4.724v.236H4.507v.23h-.24v.24h-.24v.24h-.24v.24h-.24v.24h-.24v.24h-.24v.239l-.216.01v.231h-.24v.24h-.24v.24h-.24v.24h-.24v.24h-.24v.24h-.24v.237H1.2V9.357H.958v-.24H.717v-.24H.477v-.24H.237V8.4H0V8.167H.228v-.24h.24v-.24h.24v-.24h.24v-.24h.24v-.24l.22-.01V6.722h.24v-.24h.24v-.24h.24V6h.24v-.24h.24V5.52h.24V5.284l.216-.01V5.04h.24V4.8h.24v-.24h.24v-.24h.24v-.24h.24v-.24h.24V3.6h.45V3.351H4.731V3.111L4.515,3.1V2.63H4.278V1.438l.228-.012V.958l.228-.01c0-.124,0-.243,0-.362,0-.086.031-.113.113-.109.115,0,.231,0,.357,0V.234h.473L5.69,0H6.857l.015.222h.461l.012.243h.47v.48l.218.013v.465l.233.013V2.622H8.038V3.1l-.216.011v.232H7.585V3.59h.445v.24h.24v.24h.24v.24h.24v.24h.24v.24h.24v.24h.24v.239l.216.011v.23h.24v.24h.24v.24h.24v.24h.24v.24h.24v.24h.24v.239l.216.012v.23h.241v.241h.242v.241h.238l.013.238.229.011.011.228.227.011v.223h-.229v.24h-.24v.24h-.24v.24H11.6v.24h-.24v.235h-.209V9.358h-.24v-.24h-.24v-.24h-.24v-.24h-.24V8.4h-.24v-.24h-.24V7.918l-.216-.011V7.676h-.24v-.24h-.24V7.2h-.24v-.24h-.24v-.24h-.24V6.476h-.25V6.24H7.829v.233Z" fill="#3a3d81"/>
    </g>
  </g>
  <g id="Grupo_608" data-name="Grupo 608" transform="translate(49.534)" opacity="0.5">
    <g id="Grupo_601-6" data-name="Grupo 601" clip-path="url(#clip-path)">
      <path id="Trazado_1444-6" data-name="Trazado 1444" d="M8.04,6.474v.714c.013.007.02.013.027.013.2.014.2.013.2.209,0,.244,0,.488,0,.747h.241v.959l.245.011v.939l.235.019V10.8h.239v.962h.244v.956l.216.013v.7c.02.011.026.017.033.018.2.015.2.015.2.211,0,.244,0,.487,0,.746h.244v.958h.241v.95l.239.02v.716l.231.011v.219h-.7l-.013.246H9.255l-.02.238h-.7c-.011.018-.018.025-.018.032-.015.2-.015.2-.219.206-.079,0-.158,0-.248,0V17.53l-.217-.01v-.95l-.243-.011c0-.166,0-.325,0-.485,0-.068,0-.136,0-.2s.015-.17-.023-.221-.133-.039-.216-.059v-.7l-.235-.01v-.95H6.865v-.953l-.238-.017v-.714l-.233-.011-.011-.224H6.155v.781c0,.178.015.169-.17.167-.016,0-.032,0-.06.007v.714l-.24.012v.948l-.242.011v.946l-.241.014v.714l-.233.014v.946H4.723V18H4.276v-.229H3.32l-.014-.24H2.631c-.013-.018-.02-.024-.021-.031-.023-.186-.022-.192-.215-.2-.163-.008-.326,0-.5,0v-.239a.387.387,0,0,1,.091-.012c.1.01.133-.025.132-.127,0-.24.006-.48.01-.72,0-.031,0-.062.005-.1l.23-.013v-.946l.244-.013v-.95h.236v-.723l.214-.016v-.942l.247-.013v-.95h.239v-.719c.236-.054.238-.054.243-.321,0-.211,0-.423,0-.643l.233-.014V8.886h.244V7.928l.244-.012V7.2l.211-.015V6.233h.239V6H4.724v.236H4.507v.23h-.24v.24h-.24v.24h-.24v.24h-.24v.24h-.24v.24h-.24v.239l-.216.01v.231h-.24v.24h-.24v.24h-.24v.24h-.24v.24h-.24v.24h-.24v.237H1.2V9.357H.958v-.24H.717v-.24H.477v-.24H.237V8.4H0V8.167H.228v-.24h.24v-.24h.24v-.24h.24v-.24h.24v-.24l.22-.01V6.722h.24v-.24h.24v-.24h.24V6h.24v-.24h.24V5.52h.24V5.284l.216-.01V5.04h.24V4.8h.24v-.24h.24v-.24h.24v-.24h.24v-.24h.24V3.6h.45V3.351H4.731V3.111L4.515,3.1V2.63H4.278V1.438l.228-.012V.958l.228-.01c0-.124,0-.243,0-.362,0-.086.031-.113.113-.109.115,0,.231,0,.357,0V.234h.473L5.69,0H6.857l.015.222h.461l.012.243h.47v.48l.218.013v.465l.233.013V2.622H8.038V3.1l-.216.011v.232H7.585V3.59h.445v.24h.24v.24h.24v.24h.24v.24h.24v.24h.24v.24h.24v.239l.216.011v.23h.24v.24h.24v.24h.24v.24h.24v.24h.24v.24h.24v.239l.216.012v.23h.241v.241h.242v.241h.238l.013.238.229.011.011.228.227.011v.223h-.229v.24h-.24v.24h-.24v.24H11.6v.24h-.24v.235h-.209V9.358h-.24v-.24h-.24v-.24h-.24v-.24h-.24V8.4h-.24v-.24h-.24V7.918l-.216-.011V7.676h-.24v-.24h-.24V7.2h-.24v-.24h-.24v-.24h-.24V6.476h-.25V6.24H7.829v.233Z" fill="#3a3d81"/>
    </g>
  </g>
  <g id="Grupo_613" data-name="Grupo 613" transform="translate(89.121)" opacity="0.5">
    <g id="Grupo_601-7" data-name="Grupo 601" clip-path="url(#clip-path)">
      <path id="Trazado_1444-7" data-name="Trazado 1444" d="M8.04,6.474v.714c.013.007.02.013.027.013.2.014.2.013.2.209,0,.244,0,.488,0,.747h.241v.959l.245.011v.939l.235.019V10.8h.239v.962h.244v.956l.216.013v.7c.02.011.026.017.033.018.2.015.2.015.2.211,0,.244,0,.487,0,.746h.244v.958h.241v.95l.239.02v.716l.231.011v.219h-.7l-.013.246H9.255l-.02.238h-.7c-.011.018-.018.025-.018.032-.015.2-.015.2-.219.206-.079,0-.158,0-.248,0V17.53l-.217-.01v-.95l-.243-.011c0-.166,0-.325,0-.485,0-.068,0-.136,0-.2s.015-.17-.023-.221-.133-.039-.216-.059v-.7l-.235-.01v-.95H6.865v-.953l-.238-.017v-.714l-.233-.011-.011-.224H6.155v.781c0,.178.015.169-.17.167-.016,0-.032,0-.06.007v.714l-.24.012v.948l-.242.011v.946l-.241.014v.714l-.233.014v.946H4.723V18H4.276v-.229H3.32l-.014-.24H2.631c-.013-.018-.02-.024-.021-.031-.023-.186-.022-.192-.215-.2-.163-.008-.326,0-.5,0v-.239a.387.387,0,0,1,.091-.012c.1.01.133-.025.132-.127,0-.24.006-.48.01-.72,0-.031,0-.062.005-.1l.23-.013v-.946l.244-.013v-.95h.236v-.723l.214-.016v-.942l.247-.013v-.95h.239v-.719c.236-.054.238-.054.243-.321,0-.211,0-.423,0-.643l.233-.014V8.886h.244V7.928l.244-.012V7.2l.211-.015V6.233h.239V6H4.724v.236H4.507v.23h-.24v.24h-.24v.24h-.24v.24h-.24v.24h-.24v.24h-.24v.239l-.216.01v.231h-.24v.24h-.24v.24h-.24v.24h-.24v.24h-.24v.24h-.24v.237H1.2V9.357H.958v-.24H.717v-.24H.477v-.24H.237V8.4H0V8.167H.228v-.24h.24v-.24h.24v-.24h.24v-.24h.24v-.24l.22-.01V6.722h.24v-.24h.24v-.24h.24V6h.24v-.24h.24V5.52h.24V5.284l.216-.01V5.04h.24V4.8h.24v-.24h.24v-.24h.24v-.24h.24v-.24h.24V3.6h.45V3.351H4.731V3.111L4.515,3.1V2.63H4.278V1.438l.228-.012V.958l.228-.01c0-.124,0-.243,0-.362,0-.086.031-.113.113-.109.115,0,.231,0,.357,0V.234h.473L5.69,0H6.857l.015.222h.461l.012.243h.47v.48l.218.013v.465l.233.013V2.622H8.038V3.1l-.216.011v.232H7.585V3.59h.445v.24h.24v.24h.24v.24h.24v.24h.24v.24h.24v.24h.24v.239l.216.011v.23h.24v.24h.24v.24h.24v.24h.24v.24h.24v.24h.24v.239l.216.012v.23h.241v.241h.242v.241h.238l.013.238.229.011.011.228.227.011v.223h-.229v.24h-.24v.24h-.24v.24H11.6v.24h-.24v.235h-.209V9.358h-.24v-.24h-.24v-.24h-.24v-.24h-.24V8.4h-.24v-.24h-.24V7.918l-.216-.011V7.676h-.24v-.24h-.24V7.2h-.24v-.24h-.24v-.24h-.24V6.476h-.25V6.24H7.829v.233Z" fill="#3a3d81"/>
    </g>
  </g>
  <g id="Grupo_615" data-name="Grupo 615" transform="translate(148.481)" opacity="0.5">
    <g id="Grupo_601-8" data-name="Grupo 601" clip-path="url(#clip-path)">
      <path id="Trazado_1444-8" data-name="Trazado 1444" d="M8.04,6.474v.714c.013.007.02.013.027.013.2.014.2.013.2.209,0,.244,0,.488,0,.747h.241v.959l.245.011v.939l.235.019V10.8h.239v.962h.244v.956l.216.013v.7c.02.011.026.017.033.018.2.015.2.015.2.211,0,.244,0,.487,0,.746h.244v.958h.241v.95l.239.02v.716l.231.011v.219h-.7l-.013.246H9.255l-.02.238h-.7c-.011.018-.018.025-.018.032-.015.2-.015.2-.219.206-.079,0-.158,0-.248,0V17.53l-.217-.01v-.95l-.243-.011c0-.166,0-.325,0-.485,0-.068,0-.136,0-.2s.015-.17-.023-.221-.133-.039-.216-.059v-.7l-.235-.01v-.95H6.865v-.953l-.238-.017v-.714l-.233-.011-.011-.224H6.155v.781c0,.178.015.169-.17.167-.016,0-.032,0-.06.007v.714l-.24.012v.948l-.242.011v.946l-.241.014v.714l-.233.014v.946H4.723V18H4.276v-.229H3.32l-.014-.24H2.631c-.013-.018-.02-.024-.021-.031-.023-.186-.022-.192-.215-.2-.163-.008-.326,0-.5,0v-.239a.387.387,0,0,1,.091-.012c.1.01.133-.025.132-.127,0-.24.006-.48.01-.72,0-.031,0-.062.005-.1l.23-.013v-.946l.244-.013v-.95h.236v-.723l.214-.016v-.942l.247-.013v-.95h.239v-.719c.236-.054.238-.054.243-.321,0-.211,0-.423,0-.643l.233-.014V8.886h.244V7.928l.244-.012V7.2l.211-.015V6.233h.239V6H4.724v.236H4.507v.23h-.24v.24h-.24v.24h-.24v.24h-.24v.24h-.24v.24h-.24v.239l-.216.01v.231h-.24v.24h-.24v.24h-.24v.24h-.24v.24h-.24v.24h-.24v.237H1.2V9.357H.958v-.24H.717v-.24H.477v-.24H.237V8.4H0V8.167H.228v-.24h.24v-.24h.24v-.24h.24v-.24h.24v-.24l.22-.01V6.722h.24v-.24h.24v-.24h.24V6h.24v-.24h.24V5.52h.24V5.284l.216-.01V5.04h.24V4.8h.24v-.24h.24v-.24h.24v-.24h.24v-.24h.24V3.6h.45V3.351H4.731V3.111L4.515,3.1V2.63H4.278V1.438l.228-.012V.958l.228-.01c0-.124,0-.243,0-.362,0-.086.031-.113.113-.109.115,0,.231,0,.357,0V.234h.473L5.69,0H6.857l.015.222h.461l.012.243h.47v.48l.218.013v.465l.233.013V2.622H8.038V3.1l-.216.011v.232H7.585V3.59h.445v.24h.24v.24h.24v.24h.24v.24h.24v.24h.24v.24h.24v.239l.216.011v.23h.24v.24h.24v.24h.24v.24h.24v.24h.24v.24h.24v.239l.216.012v.23h.241v.241h.242v.241h.238l.013.238.229.011.011.228.227.011v.223h-.229v.24h-.24v.24h-.24v.24H11.6v.24h-.24v.235h-.209V9.358h-.24v-.24h-.24v-.24h-.24v-.24h-.24V8.4h-.24v-.24h-.24V7.918l-.216-.011V7.676h-.24v-.24h-.24V7.2h-.24v-.24h-.24v-.24h-.24V6.476h-.25V6.24H7.829v.233Z" fill="#3a3d81"/>
    </g>
  </g>
  <g id="Grupo_604" data-name="Grupo 604" transform="translate(19.775)" opacity="0.3">
    <g id="Grupo_601-9" data-name="Grupo 601" clip-path="url(#clip-path)">
      <path id="Trazado_1444-9" data-name="Trazado 1444" d="M8.04,6.474v.714c.013.007.02.013.027.013.2.014.2.013.2.209,0,.244,0,.488,0,.747h.241v.959l.245.011v.939l.235.019V10.8h.239v.962h.244v.956l.216.013v.7c.02.011.026.017.033.018.2.015.2.015.2.211,0,.244,0,.487,0,.746h.244v.958h.241v.95l.239.02v.716l.231.011v.219h-.7l-.013.246H9.255l-.02.238h-.7c-.011.018-.018.025-.018.032-.015.2-.015.2-.219.206-.079,0-.158,0-.248,0V17.53l-.217-.01v-.95l-.243-.011c0-.166,0-.325,0-.485,0-.068,0-.136,0-.2s.015-.17-.023-.221-.133-.039-.216-.059v-.7l-.235-.01v-.95H6.865v-.953l-.238-.017v-.714l-.233-.011-.011-.224H6.155v.781c0,.178.015.169-.17.167-.016,0-.032,0-.06.007v.714l-.24.012v.948l-.242.011v.946l-.241.014v.714l-.233.014v.946H4.723V18H4.276v-.229H3.32l-.014-.24H2.631c-.013-.018-.02-.024-.021-.031-.023-.186-.022-.192-.215-.2-.163-.008-.326,0-.5,0v-.239a.387.387,0,0,1,.091-.012c.1.01.133-.025.132-.127,0-.24.006-.48.01-.72,0-.031,0-.062.005-.1l.23-.013v-.946l.244-.013v-.95h.236v-.723l.214-.016v-.942l.247-.013v-.95h.239v-.719c.236-.054.238-.054.243-.321,0-.211,0-.423,0-.643l.233-.014V8.886h.244V7.928l.244-.012V7.2l.211-.015V6.233h.239V6H4.724v.236H4.507v.23h-.24v.24h-.24v.24h-.24v.24h-.24v.24h-.24v.24h-.24v.239l-.216.01v.231h-.24v.24h-.24v.24h-.24v.24h-.24v.24h-.24v.24h-.24v.237H1.2V9.357H.958v-.24H.717v-.24H.477v-.24H.237V8.4H0V8.167H.228v-.24h.24v-.24h.24v-.24h.24v-.24h.24v-.24l.22-.01V6.722h.24v-.24h.24v-.24h.24V6h.24v-.24h.24V5.52h.24V5.284l.216-.01V5.04h.24V4.8h.24v-.24h.24v-.24h.24v-.24h.24v-.24h.24V3.6h.45V3.351H4.731V3.111L4.515,3.1V2.63H4.278V1.438l.228-.012V.958l.228-.01c0-.124,0-.243,0-.362,0-.086.031-.113.113-.109.115,0,.231,0,.357,0V.234h.473L5.69,0H6.857l.015.222h.461l.012.243h.47v.48l.218.013v.465l.233.013V2.622H8.038V3.1l-.216.011v.232H7.585V3.59h.445v.24h.24v.24h.24v.24h.24v.24h.24v.24h.24v.24h.24v.239l.216.011v.23h.24v.24h.24v.24h.24v.24h.24v.24h.24v.24h.24v.239l.216.012v.23h.241v.241h.242v.241h.238l.013.238.229.011.011.228.227.011v.223h-.229v.24h-.24v.24h-.24v.24H11.6v.24h-.24v.235h-.209V9.358h-.24v-.24h-.24v-.24h-.24v-.24h-.24V8.4h-.24v-.24h-.24V7.918l-.216-.011V7.676h-.24v-.24h-.24V7.2h-.24v-.24h-.24v-.24h-.24V6.476h-.25V6.24H7.829v.233Z" fill="#3a3d81"/>
    </g>
  </g>
  <g id="Grupo_609" data-name="Grupo 609" transform="translate(59.409)" opacity="0.3">
    <g id="Grupo_601-10" data-name="Grupo 601" clip-path="url(#clip-path)">
      <path id="Trazado_1444-10" data-name="Trazado 1444" d="M8.04,6.474v.714c.013.007.02.013.027.013.2.014.2.013.2.209,0,.244,0,.488,0,.747h.241v.959l.245.011v.939l.235.019V10.8h.239v.962h.244v.956l.216.013v.7c.02.011.026.017.033.018.2.015.2.015.2.211,0,.244,0,.487,0,.746h.244v.958h.241v.95l.239.02v.716l.231.011v.219h-.7l-.013.246H9.255l-.02.238h-.7c-.011.018-.018.025-.018.032-.015.2-.015.2-.219.206-.079,0-.158,0-.248,0V17.53l-.217-.01v-.95l-.243-.011c0-.166,0-.325,0-.485,0-.068,0-.136,0-.2s.015-.17-.023-.221-.133-.039-.216-.059v-.7l-.235-.01v-.95H6.865v-.953l-.238-.017v-.714l-.233-.011-.011-.224H6.155v.781c0,.178.015.169-.17.167-.016,0-.032,0-.06.007v.714l-.24.012v.948l-.242.011v.946l-.241.014v.714l-.233.014v.946H4.723V18H4.276v-.229H3.32l-.014-.24H2.631c-.013-.018-.02-.024-.021-.031-.023-.186-.022-.192-.215-.2-.163-.008-.326,0-.5,0v-.239a.387.387,0,0,1,.091-.012c.1.01.133-.025.132-.127,0-.24.006-.48.01-.72,0-.031,0-.062.005-.1l.23-.013v-.946l.244-.013v-.95h.236v-.723l.214-.016v-.942l.247-.013v-.95h.239v-.719c.236-.054.238-.054.243-.321,0-.211,0-.423,0-.643l.233-.014V8.886h.244V7.928l.244-.012V7.2l.211-.015V6.233h.239V6H4.724v.236H4.507v.23h-.24v.24h-.24v.24h-.24v.24h-.24v.24h-.24v.24h-.24v.239l-.216.01v.231h-.24v.24h-.24v.24h-.24v.24h-.24v.24h-.24v.24h-.24v.237H1.2V9.357H.958v-.24H.717v-.24H.477v-.24H.237V8.4H0V8.167H.228v-.24h.24v-.24h.24v-.24h.24v-.24h.24v-.24l.22-.01V6.722h.24v-.24h.24v-.24h.24V6h.24v-.24h.24V5.52h.24V5.284l.216-.01V5.04h.24V4.8h.24v-.24h.24v-.24h.24v-.24h.24v-.24h.24V3.6h.45V3.351H4.731V3.111L4.515,3.1V2.63H4.278V1.438l.228-.012V.958l.228-.01c0-.124,0-.243,0-.362,0-.086.031-.113.113-.109.115,0,.231,0,.357,0V.234h.473L5.69,0H6.857l.015.222h.461l.012.243h.47v.48l.218.013v.465l.233.013V2.622H8.038V3.1l-.216.011v.232H7.585V3.59h.445v.24h.24v.24h.24v.24h.24v.24h.24v.24h.24v.24h.24v.239l.216.011v.23h.24v.24h.24v.24h.24v.24h.24v.24h.24v.24h.24v.239l.216.012v.23h.241v.241h.242v.241h.238l.013.238.229.011.011.228.227.011v.223h-.229v.24h-.24v.24h-.24v.24H11.6v.24h-.24v.235h-.209V9.358h-.24v-.24h-.24v-.24h-.24v-.24h-.24V8.4h-.24v-.24h-.24V7.918l-.216-.011V7.676h-.24v-.24h-.24V7.2h-.24v-.24h-.24v-.24h-.24V6.476h-.25V6.24H7.829v.233Z" fill="#3a3d81"/>
    </g>
  </g>
  <g id="Grupo_620" data-name="Grupo 620" transform="translate(118.769)" opacity="0.3">
    <g id="Grupo_601-11" data-name="Grupo 601" clip-path="url(#clip-path)">
      <path id="Trazado_1444-11" data-name="Trazado 1444" d="M8.04,6.474v.714c.013.007.02.013.027.013.2.014.2.013.2.209,0,.244,0,.488,0,.747h.241v.959l.245.011v.939l.235.019V10.8h.239v.962h.244v.956l.216.013v.7c.02.011.026.017.033.018.2.015.2.015.2.211,0,.244,0,.487,0,.746h.244v.958h.241v.95l.239.02v.716l.231.011v.219h-.7l-.013.246H9.255l-.02.238h-.7c-.011.018-.018.025-.018.032-.015.2-.015.2-.219.206-.079,0-.158,0-.248,0V17.53l-.217-.01v-.95l-.243-.011c0-.166,0-.325,0-.485,0-.068,0-.136,0-.2s.015-.17-.023-.221-.133-.039-.216-.059v-.7l-.235-.01v-.95H6.865v-.953l-.238-.017v-.714l-.233-.011-.011-.224H6.155v.781c0,.178.015.169-.17.167-.016,0-.032,0-.06.007v.714l-.24.012v.948l-.242.011v.946l-.241.014v.714l-.233.014v.946H4.723V18H4.276v-.229H3.32l-.014-.24H2.631c-.013-.018-.02-.024-.021-.031-.023-.186-.022-.192-.215-.2-.163-.008-.326,0-.5,0v-.239a.387.387,0,0,1,.091-.012c.1.01.133-.025.132-.127,0-.24.006-.48.01-.72,0-.031,0-.062.005-.1l.23-.013v-.946l.244-.013v-.95h.236v-.723l.214-.016v-.942l.247-.013v-.95h.239v-.719c.236-.054.238-.054.243-.321,0-.211,0-.423,0-.643l.233-.014V8.886h.244V7.928l.244-.012V7.2l.211-.015V6.233h.239V6H4.724v.236H4.507v.23h-.24v.24h-.24v.24h-.24v.24h-.24v.24h-.24v.24h-.24v.239l-.216.01v.231h-.24v.24h-.24v.24h-.24v.24h-.24v.24h-.24v.24h-.24v.237H1.2V9.357H.958v-.24H.717v-.24H.477v-.24H.237V8.4H0V8.167H.228v-.24h.24v-.24h.24v-.24h.24v-.24h.24v-.24l.22-.01V6.722h.24v-.24h.24v-.24h.24V6h.24v-.24h.24V5.52h.24V5.284l.216-.01V5.04h.24V4.8h.24v-.24h.24v-.24h.24v-.24h.24v-.24h.24V3.6h.45V3.351H4.731V3.111L4.515,3.1V2.63H4.278V1.438l.228-.012V.958l.228-.01c0-.124,0-.243,0-.362,0-.086.031-.113.113-.109.115,0,.231,0,.357,0V.234h.473L5.69,0H6.857l.015.222h.461l.012.243h.47v.48l.218.013v.465l.233.013V2.622H8.038V3.1l-.216.011v.232H7.585V3.59h.445v.24h.24v.24h.24v.24h.24v.24h.24v.24h.24v.24h.24v.239l.216.011v.23h.24v.24h.24v.24h.24v.24h.24v.24h.24v.24h.24v.239l.216.012v.23h.241v.241h.242v.241h.238l.013.238.229.011.011.228.227.011v.223h-.229v.24h-.24v.24h-.24v.24H11.6v.24h-.24v.235h-.209V9.358h-.24v-.24h-.24v-.24h-.24v-.24h-.24V8.4h-.24v-.24h-.24V7.918l-.216-.011V7.676h-.24v-.24h-.24V7.2h-.24v-.24h-.24v-.24h-.24V6.476h-.25V6.24H7.829v.233Z" fill="#3a3d81"/>
    </g>
  </g>
  <g id="Grupo_612" data-name="Grupo 612" transform="translate(98.996)" opacity="0.3">
    <g id="Grupo_601-12" data-name="Grupo 601" clip-path="url(#clip-path)">
      <path id="Trazado_1444-12" data-name="Trazado 1444" d="M8.04,6.474v.714c.013.007.02.013.027.013.2.014.2.013.2.209,0,.244,0,.488,0,.747h.241v.959l.245.011v.939l.235.019V10.8h.239v.962h.244v.956l.216.013v.7c.02.011.026.017.033.018.2.015.2.015.2.211,0,.244,0,.487,0,.746h.244v.958h.241v.95l.239.02v.716l.231.011v.219h-.7l-.013.246H9.255l-.02.238h-.7c-.011.018-.018.025-.018.032-.015.2-.015.2-.219.206-.079,0-.158,0-.248,0V17.53l-.217-.01v-.95l-.243-.011c0-.166,0-.325,0-.485,0-.068,0-.136,0-.2s.015-.17-.023-.221-.133-.039-.216-.059v-.7l-.235-.01v-.95H6.865v-.953l-.238-.017v-.714l-.233-.011-.011-.224H6.155v.781c0,.178.015.169-.17.167-.016,0-.032,0-.06.007v.714l-.24.012v.948l-.242.011v.946l-.241.014v.714l-.233.014v.946H4.723V18H4.276v-.229H3.32l-.014-.24H2.631c-.013-.018-.02-.024-.021-.031-.023-.186-.022-.192-.215-.2-.163-.008-.326,0-.5,0v-.239a.387.387,0,0,1,.091-.012c.1.01.133-.025.132-.127,0-.24.006-.48.01-.72,0-.031,0-.062.005-.1l.23-.013v-.946l.244-.013v-.95h.236v-.723l.214-.016v-.942l.247-.013v-.95h.239v-.719c.236-.054.238-.054.243-.321,0-.211,0-.423,0-.643l.233-.014V8.886h.244V7.928l.244-.012V7.2l.211-.015V6.233h.239V6H4.724v.236H4.507v.23h-.24v.24h-.24v.24h-.24v.24h-.24v.24h-.24v.24h-.24v.239l-.216.01v.231h-.24v.24h-.24v.24h-.24v.24h-.24v.24h-.24v.24h-.24v.237H1.2V9.357H.958v-.24H.717v-.24H.477v-.24H.237V8.4H0V8.167H.228v-.24h.24v-.24h.24v-.24h.24v-.24h.24v-.24l.22-.01V6.722h.24v-.24h.24v-.24h.24V6h.24v-.24h.24V5.52h.24V5.284l.216-.01V5.04h.24V4.8h.24v-.24h.24v-.24h.24v-.24h.24v-.24h.24V3.6h.45V3.351H4.731V3.111L4.515,3.1V2.63H4.278V1.438l.228-.012V.958l.228-.01c0-.124,0-.243,0-.362,0-.086.031-.113.113-.109.115,0,.231,0,.357,0V.234h.473L5.69,0H6.857l.015.222h.461l.012.243h.47v.48l.218.013v.465l.233.013V2.622H8.038V3.1l-.216.011v.232H7.585V3.59h.445v.24h.24v.24h.24v.24h.24v.24h.24v.24h.24v.24h.24v.239l.216.011v.23h.24v.24h.24v.24h.24v.24h.24v.24h.24v.24h.24v.239l.216.012v.23h.241v.241h.242v.241h.238l.013.238.229.011.011.228.227.011v.223h-.229v.24h-.24v.24h-.24v.24H11.6v.24h-.24v.235h-.209V9.358h-.24v-.24h-.24v-.24h-.24v-.24h-.24V8.4h-.24v-.24h-.24V7.918l-.216-.011V7.676h-.24v-.24h-.24V7.2h-.24v-.24h-.24v-.24h-.24V6.476h-.25V6.24H7.829v.233Z" fill="#3a3d81"/>
    </g>
  </g>
  <g id="Grupo_616" data-name="Grupo 616" transform="translate(158.356)" opacity="0.3">
    <g id="Grupo_601-13" data-name="Grupo 601" clip-path="url(#clip-path)">
      <path id="Trazado_1444-13" data-name="Trazado 1444" d="M8.04,6.474v.714c.013.007.02.013.027.013.2.014.2.013.2.209,0,.244,0,.488,0,.747h.241v.959l.245.011v.939l.235.019V10.8h.239v.962h.244v.956l.216.013v.7c.02.011.026.017.033.018.2.015.2.015.2.211,0,.244,0,.487,0,.746h.244v.958h.241v.95l.239.02v.716l.231.011v.219h-.7l-.013.246H9.255l-.02.238h-.7c-.011.018-.018.025-.018.032-.015.2-.015.2-.219.206-.079,0-.158,0-.248,0V17.53l-.217-.01v-.95l-.243-.011c0-.166,0-.325,0-.485,0-.068,0-.136,0-.2s.015-.17-.023-.221-.133-.039-.216-.059v-.7l-.235-.01v-.95H6.865v-.953l-.238-.017v-.714l-.233-.011-.011-.224H6.155v.781c0,.178.015.169-.17.167-.016,0-.032,0-.06.007v.714l-.24.012v.948l-.242.011v.946l-.241.014v.714l-.233.014v.946H4.723V18H4.276v-.229H3.32l-.014-.24H2.631c-.013-.018-.02-.024-.021-.031-.023-.186-.022-.192-.215-.2-.163-.008-.326,0-.5,0v-.239a.387.387,0,0,1,.091-.012c.1.01.133-.025.132-.127,0-.24.006-.48.01-.72,0-.031,0-.062.005-.1l.23-.013v-.946l.244-.013v-.95h.236v-.723l.214-.016v-.942l.247-.013v-.95h.239v-.719c.236-.054.238-.054.243-.321,0-.211,0-.423,0-.643l.233-.014V8.886h.244V7.928l.244-.012V7.2l.211-.015V6.233h.239V6H4.724v.236H4.507v.23h-.24v.24h-.24v.24h-.24v.24h-.24v.24h-.24v.24h-.24v.239l-.216.01v.231h-.24v.24h-.24v.24h-.24v.24h-.24v.24h-.24v.24h-.24v.237H1.2V9.357H.958v-.24H.717v-.24H.477v-.24H.237V8.4H0V8.167H.228v-.24h.24v-.24h.24v-.24h.24v-.24h.24v-.24l.22-.01V6.722h.24v-.24h.24v-.24h.24V6h.24v-.24h.24V5.52h.24V5.284l.216-.01V5.04h.24V4.8h.24v-.24h.24v-.24h.24v-.24h.24v-.24h.24V3.6h.45V3.351H4.731V3.111L4.515,3.1V2.63H4.278V1.438l.228-.012V.958l.228-.01c0-.124,0-.243,0-.362,0-.086.031-.113.113-.109.115,0,.231,0,.357,0V.234h.473L5.69,0H6.857l.015.222h.461l.012.243h.47v.48l.218.013v.465l.233.013V2.622H8.038V3.1l-.216.011v.232H7.585V3.59h.445v.24h.24v.24h.24v.24h.24v.24h.24v.24h.24v.24h.24v.239l.216.011v.23h.24v.24h.24v.24h.24v.24h.24v.24h.24v.24h.24v.239l.216.012v.23h.241v.241h.242v.241h.238l.013.238.229.011.011.228.227.011v.223h-.229v.24h-.24v.24h-.24v.24H11.6v.24h-.24v.235h-.209V9.358h-.24v-.24h-.24v-.24h-.24v-.24h-.24V8.4h-.24v-.24h-.24V7.918l-.216-.011V7.676h-.24v-.24h-.24V7.2h-.24v-.24h-.24v-.24h-.24V6.476h-.25V6.24H7.829v.233Z" fill="#3a3d81"/>
    </g>
  </g>
  <g id="Grupo_606" data-name="Grupo 606" transform="translate(29.677)" opacity="0.5">
    <g id="Grupo_601-14" data-name="Grupo 601" clip-path="url(#clip-path)">
      <path id="Trazado_1444-14" data-name="Trazado 1444" d="M8.04,6.474v.714c.013.007.02.013.027.013.2.014.2.013.2.209,0,.244,0,.488,0,.747h.241v.959l.245.011v.939l.235.019V10.8h.239v.962h.244v.956l.216.013v.7c.02.011.026.017.033.018.2.015.2.015.2.211,0,.244,0,.487,0,.746h.244v.958h.241v.95l.239.02v.716l.231.011v.219h-.7l-.013.246H9.255l-.02.238h-.7c-.011.018-.018.025-.018.032-.015.2-.015.2-.219.206-.079,0-.158,0-.248,0V17.53l-.217-.01v-.95l-.243-.011c0-.166,0-.325,0-.485,0-.068,0-.136,0-.2s.015-.17-.023-.221-.133-.039-.216-.059v-.7l-.235-.01v-.95H6.865v-.953l-.238-.017v-.714l-.233-.011-.011-.224H6.155v.781c0,.178.015.169-.17.167-.016,0-.032,0-.06.007v.714l-.24.012v.948l-.242.011v.946l-.241.014v.714l-.233.014v.946H4.723V18H4.276v-.229H3.32l-.014-.24H2.631c-.013-.018-.02-.024-.021-.031-.023-.186-.022-.192-.215-.2-.163-.008-.326,0-.5,0v-.239a.387.387,0,0,1,.091-.012c.1.01.133-.025.132-.127,0-.24.006-.48.01-.72,0-.031,0-.062.005-.1l.23-.013v-.946l.244-.013v-.95h.236v-.723l.214-.016v-.942l.247-.013v-.95h.239v-.719c.236-.054.238-.054.243-.321,0-.211,0-.423,0-.643l.233-.014V8.886h.244V7.928l.244-.012V7.2l.211-.015V6.233h.239V6H4.724v.236H4.507v.23h-.24v.24h-.24v.24h-.24v.24h-.24v.24h-.24v.24h-.24v.239l-.216.01v.231h-.24v.24h-.24v.24h-.24v.24h-.24v.24h-.24v.24h-.24v.237H1.2V9.357H.958v-.24H.717v-.24H.477v-.24H.237V8.4H0V8.167H.228v-.24h.24v-.24h.24v-.24h.24v-.24h.24v-.24l.22-.01V6.722h.24v-.24h.24v-.24h.24V6h.24v-.24h.24V5.52h.24V5.284l.216-.01V5.04h.24V4.8h.24v-.24h.24v-.24h.24v-.24h.24v-.24h.24V3.6h.45V3.351H4.731V3.111L4.515,3.1V2.63H4.278V1.438l.228-.012V.958l.228-.01c0-.124,0-.243,0-.362,0-.086.031-.113.113-.109.115,0,.231,0,.357,0V.234h.473L5.69,0H6.857l.015.222h.461l.012.243h.47v.48l.218.013v.465l.233.013V2.622H8.038V3.1l-.216.011v.232H7.585V3.59h.445v.24h.24v.24h.24v.24h.24v.24h.24v.24h.24v.24h.24v.239l.216.011v.23h.24v.24h.24v.24h.24v.24h.24v.24h.24v.24h.24v.239l.216.012v.23h.241v.241h.242v.241h.238l.013.238.229.011.011.228.227.011v.223h-.229v.24h-.24v.24h-.24v.24H11.6v.24h-.24v.235h-.209V9.358h-.24v-.24h-.24v-.24h-.24v-.24h-.24V8.4h-.24v-.24h-.24V7.918l-.216-.011V7.676h-.24v-.24h-.24V7.2h-.24v-.24h-.24v-.24h-.24V6.476h-.25V6.24H7.829v.233Z" fill="#3a3d81"/>
    </g>
  </g>
  <g id="Grupo_607" data-name="Grupo 607" transform="translate(69.311)" opacity="0.5">
    <g id="Grupo_601-15" data-name="Grupo 601" clip-path="url(#clip-path)">
      <path id="Trazado_1444-15" data-name="Trazado 1444" d="M8.04,6.474v.714c.013.007.02.013.027.013.2.014.2.013.2.209,0,.244,0,.488,0,.747h.241v.959l.245.011v.939l.235.019V10.8h.239v.962h.244v.956l.216.013v.7c.02.011.026.017.033.018.2.015.2.015.2.211,0,.244,0,.487,0,.746h.244v.958h.241v.95l.239.02v.716l.231.011v.219h-.7l-.013.246H9.255l-.02.238h-.7c-.011.018-.018.025-.018.032-.015.2-.015.2-.219.206-.079,0-.158,0-.248,0V17.53l-.217-.01v-.95l-.243-.011c0-.166,0-.325,0-.485,0-.068,0-.136,0-.2s.015-.17-.023-.221-.133-.039-.216-.059v-.7l-.235-.01v-.95H6.865v-.953l-.238-.017v-.714l-.233-.011-.011-.224H6.155v.781c0,.178.015.169-.17.167-.016,0-.032,0-.06.007v.714l-.24.012v.948l-.242.011v.946l-.241.014v.714l-.233.014v.946H4.723V18H4.276v-.229H3.32l-.014-.24H2.631c-.013-.018-.02-.024-.021-.031-.023-.186-.022-.192-.215-.2-.163-.008-.326,0-.5,0v-.239a.387.387,0,0,1,.091-.012c.1.01.133-.025.132-.127,0-.24.006-.48.01-.72,0-.031,0-.062.005-.1l.23-.013v-.946l.244-.013v-.95h.236v-.723l.214-.016v-.942l.247-.013v-.95h.239v-.719c.236-.054.238-.054.243-.321,0-.211,0-.423,0-.643l.233-.014V8.886h.244V7.928l.244-.012V7.2l.211-.015V6.233h.239V6H4.724v.236H4.507v.23h-.24v.24h-.24v.24h-.24v.24h-.24v.24h-.24v.24h-.24v.239l-.216.01v.231h-.24v.24h-.24v.24h-.24v.24h-.24v.24h-.24v.24h-.24v.237H1.2V9.357H.958v-.24H.717v-.24H.477v-.24H.237V8.4H0V8.167H.228v-.24h.24v-.24h.24v-.24h.24v-.24h.24v-.24l.22-.01V6.722h.24v-.24h.24v-.24h.24V6h.24v-.24h.24V5.52h.24V5.284l.216-.01V5.04h.24V4.8h.24v-.24h.24v-.24h.24v-.24h.24v-.24h.24V3.6h.45V3.351H4.731V3.111L4.515,3.1V2.63H4.278V1.438l.228-.012V.958l.228-.01c0-.124,0-.243,0-.362,0-.086.031-.113.113-.109.115,0,.231,0,.357,0V.234h.473L5.69,0H6.857l.015.222h.461l.012.243h.47v.48l.218.013v.465l.233.013V2.622H8.038V3.1l-.216.011v.232H7.585V3.59h.445v.24h.24v.24h.24v.24h.24v.24h.24v.24h.24v.24h.24v.239l.216.011v.23h.24v.24h.24v.24h.24v.24h.24v.24h.24v.24h.24v.239l.216.012v.23h.241v.241h.242v.241h.238l.013.238.229.011.011.228.227.011v.223h-.229v.24h-.24v.24h-.24v.24H11.6v.24h-.24v.235h-.209V9.358h-.24v-.24h-.24v-.24h-.24v-.24h-.24V8.4h-.24v-.24h-.24V7.918l-.216-.011V7.676h-.24v-.24h-.24V7.2h-.24v-.24h-.24v-.24h-.24V6.476h-.25V6.24H7.829v.233Z" fill="#3a3d81"/>
    </g>
  </g>
  <g id="Grupo_619" data-name="Grupo 619" transform="translate(128.671)" opacity="0.5">
    <g id="Grupo_601-16" data-name="Grupo 601" clip-path="url(#clip-path)">
      <path id="Trazado_1444-16" data-name="Trazado 1444" d="M8.04,6.474v.714c.013.007.02.013.027.013.2.014.2.013.2.209,0,.244,0,.488,0,.747h.241v.959l.245.011v.939l.235.019V10.8h.239v.962h.244v.956l.216.013v.7c.02.011.026.017.033.018.2.015.2.015.2.211,0,.244,0,.487,0,.746h.244v.958h.241v.95l.239.02v.716l.231.011v.219h-.7l-.013.246H9.255l-.02.238h-.7c-.011.018-.018.025-.018.032-.015.2-.015.2-.219.206-.079,0-.158,0-.248,0V17.53l-.217-.01v-.95l-.243-.011c0-.166,0-.325,0-.485,0-.068,0-.136,0-.2s.015-.17-.023-.221-.133-.039-.216-.059v-.7l-.235-.01v-.95H6.865v-.953l-.238-.017v-.714l-.233-.011-.011-.224H6.155v.781c0,.178.015.169-.17.167-.016,0-.032,0-.06.007v.714l-.24.012v.948l-.242.011v.946l-.241.014v.714l-.233.014v.946H4.723V18H4.276v-.229H3.32l-.014-.24H2.631c-.013-.018-.02-.024-.021-.031-.023-.186-.022-.192-.215-.2-.163-.008-.326,0-.5,0v-.239a.387.387,0,0,1,.091-.012c.1.01.133-.025.132-.127,0-.24.006-.48.01-.72,0-.031,0-.062.005-.1l.23-.013v-.946l.244-.013v-.95h.236v-.723l.214-.016v-.942l.247-.013v-.95h.239v-.719c.236-.054.238-.054.243-.321,0-.211,0-.423,0-.643l.233-.014V8.886h.244V7.928l.244-.012V7.2l.211-.015V6.233h.239V6H4.724v.236H4.507v.23h-.24v.24h-.24v.24h-.24v.24h-.24v.24h-.24v.24h-.24v.239l-.216.01v.231h-.24v.24h-.24v.24h-.24v.24h-.24v.24h-.24v.24h-.24v.237H1.2V9.357H.958v-.24H.717v-.24H.477v-.24H.237V8.4H0V8.167H.228v-.24h.24v-.24h.24v-.24h.24v-.24h.24v-.24l.22-.01V6.722h.24v-.24h.24v-.24h.24V6h.24v-.24h.24V5.52h.24V5.284l.216-.01V5.04h.24V4.8h.24v-.24h.24v-.24h.24v-.24h.24v-.24h.24V3.6h.45V3.351H4.731V3.111L4.515,3.1V2.63H4.278V1.438l.228-.012V.958l.228-.01c0-.124,0-.243,0-.362,0-.086.031-.113.113-.109.115,0,.231,0,.357,0V.234h.473L5.69,0H6.857l.015.222h.461l.012.243h.47v.48l.218.013v.465l.233.013V2.622H8.038V3.1l-.216.011v.232H7.585V3.59h.445v.24h.24v.24h.24v.24h.24v.24h.24v.24h.24v.24h.24v.239l.216.011v.23h.24v.24h.24v.24h.24v.24h.24v.24h.24v.24h.24v.239l.216.012v.23h.241v.241h.242v.241h.238l.013.238.229.011.011.228.227.011v.223h-.229v.24h-.24v.24h-.24v.24H11.6v.24h-.24v.235h-.209V9.358h-.24v-.24h-.24v-.24h-.24v-.24h-.24V8.4h-.24v-.24h-.24V7.918l-.216-.011V7.676h-.24v-.24h-.24V7.2h-.24v-.24h-.24v-.24h-.24V6.476h-.25V6.24H7.829v.233Z" fill="#3a3d81"/>
    </g>
  </g>
  <g id="Grupo_611" data-name="Grupo 611" transform="translate(108.899)" opacity="0.5">
    <g id="Grupo_601-17" data-name="Grupo 601" clip-path="url(#clip-path)">
      <path id="Trazado_1444-17" data-name="Trazado 1444" d="M8.04,6.474v.714c.013.007.02.013.027.013.2.014.2.013.2.209,0,.244,0,.488,0,.747h.241v.959l.245.011v.939l.235.019V10.8h.239v.962h.244v.956l.216.013v.7c.02.011.026.017.033.018.2.015.2.015.2.211,0,.244,0,.487,0,.746h.244v.958h.241v.95l.239.02v.716l.231.011v.219h-.7l-.013.246H9.255l-.02.238h-.7c-.011.018-.018.025-.018.032-.015.2-.015.2-.219.206-.079,0-.158,0-.248,0V17.53l-.217-.01v-.95l-.243-.011c0-.166,0-.325,0-.485,0-.068,0-.136,0-.2s.015-.17-.023-.221-.133-.039-.216-.059v-.7l-.235-.01v-.95H6.865v-.953l-.238-.017v-.714l-.233-.011-.011-.224H6.155v.781c0,.178.015.169-.17.167-.016,0-.032,0-.06.007v.714l-.24.012v.948l-.242.011v.946l-.241.014v.714l-.233.014v.946H4.723V18H4.276v-.229H3.32l-.014-.24H2.631c-.013-.018-.02-.024-.021-.031-.023-.186-.022-.192-.215-.2-.163-.008-.326,0-.5,0v-.239a.387.387,0,0,1,.091-.012c.1.01.133-.025.132-.127,0-.24.006-.48.01-.72,0-.031,0-.062.005-.1l.23-.013v-.946l.244-.013v-.95h.236v-.723l.214-.016v-.942l.247-.013v-.95h.239v-.719c.236-.054.238-.054.243-.321,0-.211,0-.423,0-.643l.233-.014V8.886h.244V7.928l.244-.012V7.2l.211-.015V6.233h.239V6H4.724v.236H4.507v.23h-.24v.24h-.24v.24h-.24v.24h-.24v.24h-.24v.24h-.24v.239l-.216.01v.231h-.24v.24h-.24v.24h-.24v.24h-.24v.24h-.24v.24h-.24v.237H1.2V9.357H.958v-.24H.717v-.24H.477v-.24H.237V8.4H0V8.167H.228v-.24h.24v-.24h.24v-.24h.24v-.24h.24v-.24l.22-.01V6.722h.24v-.24h.24v-.24h.24V6h.24v-.24h.24V5.52h.24V5.284l.216-.01V5.04h.24V4.8h.24v-.24h.24v-.24h.24v-.24h.24v-.24h.24V3.6h.45V3.351H4.731V3.111L4.515,3.1V2.63H4.278V1.438l.228-.012V.958l.228-.01c0-.124,0-.243,0-.362,0-.086.031-.113.113-.109.115,0,.231,0,.357,0V.234h.473L5.69,0H6.857l.015.222h.461l.012.243h.47v.48l.218.013v.465l.233.013V2.622H8.038V3.1l-.216.011v.232H7.585V3.59h.445v.24h.24v.24h.24v.24h.24v.24h.24v.24h.24v.24h.24v.239l.216.011v.23h.24v.24h.24v.24h.24v.24h.24v.24h.24v.24h.24v.239l.216.012v.23h.241v.241h.242v.241h.238l.013.238.229.011.011.228.227.011v.223h-.229v.24h-.24v.24h-.24v.24H11.6v.24h-.24v.235h-.209V9.358h-.24v-.24h-.24v-.24h-.24v-.24h-.24V8.4h-.24v-.24h-.24V7.918l-.216-.011V7.676h-.24v-.24h-.24V7.2h-.24v-.24h-.24v-.24h-.24V6.476h-.25V6.24H7.829v.233Z" fill="#3a3d81"/>
    </g>
  </g>
</svg>
