<svg xmlns="http://www.w3.org/2000/svg" xmlns:xlink="http://www.w3.org/1999/xlink" width="24.298" height="24.298" viewBox="0 0 24.298 24.298">
  <defs>
    <clipPath id="clip-path">
      <rect id="Rectángulo_2263" data-name="Rectángulo 2263" width="17.243" height="17.12" fill="#d27028"/>
    </clipPath>
  </defs>
  <g id="Grupo_1293" data-name="Grupo 1293" transform="translate(0 12.193) rotate(-45)">
    <g id="Grupo_1250" data-name="Grupo 1250" clip-path="url(#clip-path)">
      <path id="Trazado_6016" data-name="Trazado 6016" d="M3.1,0A14.567,14.567,0,0,1,17.515,15.4c-.074.931-.236,1.772-1.4,1.719-1.184-.055-1.263-.924-1.2-1.852A12.008,12.008,0,0,0,2.069,2.645C1.122,2.72.39,2.383.378,1.374.367.386,1.083,0,2.022,0c.36,0,.721,0,1.081,0" transform="translate(-0.315 -0.001)" fill="#d27028"/>
      <path id="Trazado_6017" data-name="Trazado 6017" d="M12.932,37.438c-.007.143-.021.547-.046.95-.057.91-.516,1.458-1.455,1.368-.874-.084-1.207-.681-1.117-1.526a7.2,7.2,0,0,0-.919-4.543,7.059,7.059,0,0,0-6.954-3.711C1.4,30.045.531,29.909.447,28.763c-.087-1.2.886-1.4,1.844-1.467a9.99,9.99,0,0,1,10.64,10.142" transform="translate(-0.367 -22.675)" fill="#d27028"/>
      <path id="Trazado_6018" data-name="Trazado 6018" d="M8.392,59.623a3.879,3.879,0,0,1-.039.455c-.178.966-.216,2.161-1.625,2-1.328-.152-1.121-1.2-1.039-2.183a2.728,2.728,0,0,0-3.406-3.023c-.955.194-1.662-.018-1.878-.978-.229-1.016.488-1.446,1.352-1.642a5.519,5.519,0,0,1,6.634,5.371" transform="translate(-0.302 -45.001)" fill="#d27028"/>
      <path id="Trazado_6019" data-name="Trazado 6019" d="M3.32,83.638a1.579,1.579,0,0,1-1.575,1.627A1.626,1.626,0,0,1,0,83.647a1.693,1.693,0,0,1,1.72-1.668,1.61,1.61,0,0,1,1.6,1.659" transform="translate(0 -68.16)" fill="#d27028"/>
    </g>
  </g>
</svg>
