<svg xmlns="http://www.w3.org/2000/svg" width="10.697" height="11.835" viewBox="0 0 10.697 11.835">
  <g id="Grupo_747" data-name="Grupo 747" transform="translate(0 0)">
    <path id="Trazado_5554" data-name="Trazado 5554" d="M5.463,8.368V7.9H5V7.436H4.542V6.969H4.088V6.5H3.635V6.048H3.181V5.581H2.727V5.114H2.274V4.647H1.807V4.179H1.353V3.712H.9V3.245H.446V2.778H0V0H.447V.466H.9V.933h.454v.454h.454v.467h.467v.467h.454v.467h.454v.467h.454v.467h.454v.467h.454v.467H5v.467h.467v.461h.911V5.119h.454V4.652h.454V4.185h.454V3.717H8.2V3.25h.454V2.783H9.11V2.316h.454V1.849h.454V1.382h.454V.928h.454V.461h.467V0h.443V2.783h-.451V3.25h-.467v.467h-.454v.467h-.454v.467H9.556v.467H9.1v.467H8.648v.467H8.195v.454H7.728v.467H7.274V7.44H6.82v.467H6.367v.461Z" transform="translate(2.329 11.835) rotate(-90)" fill="#f0f0f2"/>
    <path id="Trazado_5555" data-name="Trazado 5555" d="M5.463,8.368V7.9H5V7.436H4.542V6.969H4.088V6.5H3.635V6.048H3.181V5.581H2.727V5.114H2.274V4.647H1.807V4.179H1.353V3.712H.9V3.245H.446V2.778H0V0H.447V.466H.9V.933h.454v.454h.454v.467h.467v.467h.454v.467h.454v.467h.454v.467h.454v.467h.454v.467H5v.467h.467v.461h.911V5.119h.454V4.652h.454V4.185h.454V3.717H8.2V3.25h.454V2.783H9.11V2.316h.454V1.849h.454V1.382h.454V.928h.454V.461h.467V0h.443V2.783h-.451V3.25h-.467v.467h-.454v.467h-.454v.467H9.556v.467H9.1v.467H8.648v.467H8.195v.454H7.728v.467H7.274V7.44H6.82v.467H6.367v.461Z" transform="translate(0 11.835) rotate(-90)" fill="#f0f0f2"/>
  </g>
</svg>
