<svg xmlns="http://www.w3.org/2000/svg" width="17.733" height="19.321" viewBox="0 0 17.733 19.321">
  <g id="Grupo_1321" data-name="Grupo 1321" transform="translate(-446 -1122.209)">
    <path id="Rectángulo_2364" data-name="Rectángulo 2364" d="M4.433,1.773a2.663,2.663,0,0,0-2.66,2.66V13.3a2.663,2.663,0,0,0,2.66,2.66H13.3a2.663,2.663,0,0,0,2.66-2.66V4.433a2.663,2.663,0,0,0-2.66-2.66H4.433M4.433,0H13.3a4.433,4.433,0,0,1,4.433,4.433V13.3A4.433,4.433,0,0,1,13.3,17.733H4.433A4.433,4.433,0,0,1,0,13.3V4.433A4.433,4.433,0,0,1,4.433,0Z" transform="translate(446 1123.797)" fill="#451547"/>
    <path id="Trazado_6044" data-name="Trazado 6044" d="M8877.03,1128.543H8860v-1.773h17.03Z" transform="translate(-8413.614 2.567)" fill="#451547"/>
    <path id="Trazado_6045" data-name="Trazado 6045" d="M8867.412,1126.685h-1.773v-4.476h1.773Z" transform="translate(-8414.728)" fill="#451547"/>
    <path id="Trazado_6047" data-name="Trazado 6047" d="M1.773,1.713H0V0H1.773Z" transform="translate(449.48 1134.649) rotate(-90)" fill="#451547"/>
    <path id="Trazado_6053" data-name="Trazado 6053" d="M1.773,1.713H0V0H1.773Z" transform="translate(449.48 1137.553) rotate(-90)" fill="#451547"/>
    <path id="Trazado_6048" data-name="Trazado 6048" d="M1.773,1.713H0V0H1.773Z" transform="translate(452.5 1134.649) rotate(-90)" fill="#451547"/>
    <path id="Trazado_6054" data-name="Trazado 6054" d="M1.773,1.713H0V0H1.773Z" transform="translate(452.5 1137.553) rotate(-90)" fill="#451547"/>
    <path id="Trazado_6049" data-name="Trazado 6049" d="M1.773,1.713H0V0H1.773Z" transform="translate(455.52 1134.649) rotate(-90)" fill="#451547"/>
    <path id="Trazado_6052" data-name="Trazado 6052" d="M1.773,1.713H0V0H1.773Z" transform="translate(455.52 1137.553) rotate(-90)" fill="#451547"/>
    <path id="Trazado_6050" data-name="Trazado 6050" d="M1.773,1.713H0V0H1.773Z" transform="translate(458.541 1134.649) rotate(-90)" fill="#451547"/>
    <path id="Trazado_6051" data-name="Trazado 6051" d="M1.773,1.713H0V0H1.773Z" transform="translate(458.541 1137.553) rotate(-90)" fill="#451547"/>
    <path id="Trazado_6046" data-name="Trazado 6046" d="M8867.412,1126.685h-1.773v-4.476h1.773Z" transform="translate(-8408.521)" fill="#451547"/>
  </g>
</svg>
