<svg xmlns="http://www.w3.org/2000/svg" xmlns:xlink="http://www.w3.org/1999/xlink" width="497.723" height="161.055" viewBox="0 0 497.723 161.055">
  <defs>
    <clipPath id="clip-path">
      <rect id="Rectángulo_2224" data-name="Rectángulo 2224" width="161.241" height="161.055" fill="none"/>
    </clipPath>
    <clipPath id="clip-path-2">
      <rect id="Rectángulo_2227" data-name="Rectángulo 2227" width="48.966" height="71.454" fill="none"/>
    </clipPath>
  </defs>
  <g id="Grupo_1276" data-name="Grupo 1276" transform="translate(-111.138 -1218.473)">
    <g id="Grupo_1184" data-name="Grupo 1184" transform="translate(447.621 1218.473)">
      <g id="Grupo_1183" data-name="Grupo 1183" clip-path="url(#clip-path)">
        <path id="Trazado_5999" data-name="Trazado 5999" d="M228.635,187.439v6.777h4.1l-1.989,9.266-2.08.124v6.632l1.89.169,2.7,9.16h-4.588v7.018h14.406v10.526H185.7V130.659h59.662c.026.54.074,1.06.075,1.58,0,14.692-.014,29.383.036,44.075a2.537,2.537,0,0,1-1.562,2.721,18.15,18.15,0,0,0-7.227,7.189,2.251,2.251,0,0,1-2.317,1.239c-1.869-.088-3.746-.024-5.736-.024m-37.016-41.592h10.765v-6.585H191.619Zm36.972-.018h10.8v-6.547h-10.8Zm10.761,9.521H228.6v6.6h10.756ZM220.9,171.4H210.091v6.631H220.9Zm-18.43-.091c-3.486,0-6.8-.018-10.106.033a1.1,1.1,0,0,0-.775.737c-.067,1.965-.036,3.932-.036,5.908h10.917Zm-10.809,22.828h10.734v-6.6H191.659Zm29.209-6.606H210.117v6.648h10.751ZM202.415,203.68H191.636v6.541h10.779Zm18.412-64.405H210.091v6.579h10.736Zm7.809,38.74h10.743v-6.653H228.636Zm-18.63-16.087h10.857v-6.7c-3.388,0-6.648-.026-9.906.042a1.318,1.318,0,0,0-.908.91c-.088,1.862-.043,3.729-.043,5.748m-7.586-6.7c-3.416,0-6.677-.022-9.937.035-.318.005-.889.483-.9.76-.079,1.96-.042,3.925-.042,5.91H202.42Zm7.677,55.032h10.776v-6.623H210.1Zm-18.43,16.09h10.726v-6.624H191.666Zm29.227-6.591h-10.74v6.564h10.74Z" transform="translate(-125.73 -88.462)" fill="#656563"/>
        <path id="Trazado_6000" data-name="Trazado 6000" d="M108.649,35.289V148.647H81.664c0-1.138,0-2.3,0-3.456,0-3.336-.021-6.672.022-10.007a2.723,2.723,0,0,1,.473-1.615,20.655,20.655,0,0,0,4.606-12.651,41.334,41.334,0,0,0-4.508-20.88,4.978,4.978,0,0,1-.568-2.121q-.043-39.386-.025-78.772V18.067L148.4,0V35.289ZM89.6,28.117h51.026V21.537H89.6Zm.049,16.546h9.672V38.043H89.646Zm9.727,59.573H89.635v6.608h9.738ZM99.32,120.8H89.637v6.589H99.32ZM89.642,94.328h9.667V87.713H89.642ZM99.33,54.634H89.621v6.575H99.33Zm.021,16.56H89.675V77.82h9.676Z" transform="translate(-55.287)" fill="#b9b9b9"/>
        <path id="Trazado_6002" data-name="Trazado 6002" d="M359.549,332.936v16.17h-4.041V332.969c-.961-.242-1.793-.407-2.6-.661-4.849-1.535-6.976-5.233-7.425-9.945a32.207,32.207,0,0,1,5.285-21.182,15.643,15.643,0,0,1,3.143-3.428c2.468-2.031,4.956-2.1,7.262.132a25.86,25.86,0,0,1,4.663,6.086,31.689,31.689,0,0,1,3.812,16.462c-.2,6.119-2.417,11.165-10.1,12.5" transform="translate(-233.803 -200.554)" fill="#4f7435"/>
        <path id="Trazado_6003" data-name="Trazado 6003" d="M10.253,333.31c-5.1-.69-8.371-3.266-9.611-8.074A19.59,19.59,0,0,1,0,320.456a32.993,32.993,0,0,1,5.4-18.771,17.416,17.416,0,0,1,2.859-3.262c2.5-2.246,5.146-2.318,7.679-.112A17.79,17.79,0,0,1,19.29,302.2a32.581,32.581,0,0,1,5.055,18.869c-.265,7.192-3.069,10.548-10.138,12.33v16.122H10.253Z" transform="translate(0 -200.876)" fill="#81a347"/>
        <path id="Trazado_6004" data-name="Trazado 6004" d="M444.939,332.876v16.333h-3.954V333.343c-2.188-1.016-4.091-1.841-5.921-2.8a1.508,1.508,0,0,1-.462-1.379c2.7-7.31,1.971-14.6-.173-21.84a4.243,4.243,0,0,1,.507-4.057,41.113,41.113,0,0,1,3.915-5.076c2.567-2.553,5.414-2.681,7.992-.154a24.435,24.435,0,0,1,4.648,6.294,30.547,30.547,0,0,1,3.245,19.369c-.935,5.369-4.232,8.4-9.8,9.179" transform="translate(-293.936 -200.543)" fill="#81a347"/>
      </g>
    </g>
    <text id="_._" data-name="………………………………….…" transform="translate(135.621 1365.391)" fill="#b7b7b7" font-size="25" font-family="FuturaPT-Heavy, Futura PT" font-weight="800"><tspan x="0" y="0">………………………………….…</tspan></text>
    <g id="Grupo_1186" data-name="Grupo 1186" transform="translate(111.138 1291.201)">
      <g id="Grupo_1185" data-name="Grupo 1185" clip-path="url(#clip-path-2)">
        <path id="Trazado_6005" data-name="Trazado 6005" d="M.2,23.84C.139,13.421,7.611,3.756,17.921.914a24.425,24.425,0,0,1,29.493,14.77A21.757,21.757,0,0,1,47.2,32.346,67.42,67.42,0,0,1,38.88,46.814C34.731,52.439,30.4,57.929,26.147,63.478c-.362.472-.716.95-1.077,1.423-.31.406-.642.453-.966.025C18.107,57,11.572,49.475,6.375,40.961a43.875,43.875,0,0,1-5.409-11.7C.507,27.5.314,25.673,0,23.875l.2-.034m15.981,1.6a8.411,8.411,0,1,0,8.391-8.334,8.394,8.394,0,0,0-8.391,8.334" transform="translate(0 0)" fill="#c5296a"/>
      </g>
    </g>
  </g>
</svg>
