<svg xmlns="http://www.w3.org/2000/svg" width="590.921" height="787.896" viewBox="0 0 590.921 787.896">
  <g id="Grupo_666" data-name="Grupo 666" transform="translate(590.921 974.423) rotate(180)" opacity="0.4">
    <path id="Trazado_5372" data-name="Trazado 5372" d="M0,268.961l98.487,98.487V268.961Z" transform="translate(0 114.541)" fill="#81a347"/>
    <path id="Trazado_5373" data-name="Trazado 5373" d="M299.987,134.628H201.5v98.487Z" transform="translate(93.96 51.901)" fill="#81a347"/>
    <path id="Trazado_5374" data-name="Trazado 5374" d="M232.82,300.281H134.333V201.794Z" transform="translate(62.64 83.221)" fill="#81a347"/>
    <path id="Trazado_5375" data-name="Trazado 5375" d="M165.654,367.448H67.166V268.961Z" transform="translate(31.32 114.541)" fill="#81a347"/>
    <path id="Trazado_5378" data-name="Trazado 5378" d="M335.833,470.461l98.487,98.487V470.461Z" transform="translate(156.601 208.501)" fill="#81a347"/>
    <path id="Trazado_5379" data-name="Trazado 5379" d="M268.666,604.794v98.487l98.487-98.487Z" transform="translate(125.28 271.141)" fill="#81a347"/>
    <path id="Trazado_5380" data-name="Trazado 5380" d="M299.987,470.461H201.5v98.487Z" transform="translate(93.96 208.501)" fill="#81a347"/>
    <path id="Trazado_5381" data-name="Trazado 5381" d="M67.167,703.281h98.486L67.167,604.794Z" transform="translate(31.32 271.141)" fill="#81a347"/>
    <path id="Trazado_5382" data-name="Trazado 5382" d="M268.667,434.615h98.487V336.127Z" transform="translate(125.281 145.861)" fill="#81a347"/>
    <path id="Trazado_5384" data-name="Trazado 5384" d="M134.333,233.115h98.487V134.627Z" transform="translate(62.64 51.901)" fill="#963b62"/>
    <path id="Trazado_5385" data-name="Trazado 5385" d="M232.82,434.32H134.333V335.833Z" transform="translate(62.64 145.724)" fill="#963b62"/>
    <path id="Trazado_5387" data-name="Trazado 5387" d="M201.5,201.794h98.487v98.487Z" transform="translate(93.96 83.221)" fill="#963b62"/>
    <path id="Trazado_5388" data-name="Trazado 5388" d="M367.154,134.628H268.666v98.487Z" transform="translate(125.28 51.901)" fill="#963b62"/>
    <path id="Trazado_5390" data-name="Trazado 5390" d="M335.833,367.448h98.487l-98.487-98.487Z" transform="translate(156.601 114.541)" fill="#81a347"/>
    <path id="Trazado_5391" data-name="Trazado 5391" d="M0,300.281H98.487V201.795Z" transform="translate(0 83.221)" fill="#963b62"/>
    <path id="Trazado_5392" data-name="Trazado 5392" d="M201.5,537.628h98.487v98.487Z" transform="translate(93.96 239.822)" fill="#963b62"/>
    <path id="Trazado_5393" data-name="Trazado 5393" d="M268.667,537.628h98.487v98.487Z" transform="translate(125.281 239.822)" fill="#963b62"/>
    <path id="Trazado_5394" data-name="Trazado 5394" d="M165.654,537.628H67.166v98.487Z" transform="translate(31.32 239.822)" fill="#963b62"/>
    <path id="Trazado_5395" data-name="Trazado 5395" d="M134.333,604.794v98.487l98.487-98.487Z" transform="translate(62.64 271.141)" fill="#963b62"/>
    <path id="Trazado_5396" data-name="Trazado 5396" d="M299.987,501.781H201.5V403.294Z" transform="translate(93.96 177.181)" fill="#963b62"/>
    <path id="Trazado_5397" data-name="Trazado 5397" d="M134.333,568.948h98.487V470.461Z" transform="translate(62.64 208.501)" fill="#963b62"/>
    <path id="Trazado_5398" data-name="Trazado 5398" d="M367.154,403.294H268.666v98.487Z" transform="translate(125.28 177.181)" fill="#4f7435"/>
    <path id="Trazado_5399" data-name="Trazado 5399" d="M335.833,703.281h98.487l-98.487-98.487Z" transform="translate(156.601 271.141)" fill="#4f7435"/>
    <path id="Trazado_5400" data-name="Trazado 5400" d="M0,134.628l98.487,98.487V134.628Z" transform="translate(0 51.901)" fill="#4f7435"/>
    <path id="Trazado_5401" data-name="Trazado 5401" d="M335.833,134.628l98.487,98.487V134.628Z" transform="translate(156.601 51.901)" fill="#4f7435"/>
    <path id="Trazado_5404" data-name="Trazado 5404" d="M201.5,367.448h98.487V268.961Z" transform="translate(93.96 114.541)" fill="#4f7435"/>
    <path id="Trazado_5405" data-name="Trazado 5405" d="M0,470.461l98.487,98.487V470.461Z" transform="translate(0 208.501)" fill="#4f7435"/>
    <path id="Trazado_5406" data-name="Trazado 5406" d="M165.948,335.833H67.461V434.32Z" transform="translate(31.457 145.724)" fill="#4f7435"/>
    <path id="Trazado_5407" data-name="Trazado 5407" d="M201.5,703.281h98.486V604.794Z" transform="translate(93.96 271.141)" fill="#4f7435"/>
    <path id="Trazado_5408" data-name="Trazado 5408" d="M268.667,201.794h98.487v98.487Z" transform="translate(125.281 83.221)" fill="#81a347"/>
    <path id="Trazado_5409" data-name="Trazado 5409" d="M165.654,134.628H67.166v98.487Z" transform="translate(31.32 51.901)" fill="#963b62"/>
    <path id="Trazado_5412" data-name="Trazado 5412" d="M0,604.794l98.487,98.487V604.794Z" transform="translate(0 271.141)" fill="#963b62"/>
    <path id="Trazado_5413" data-name="Trazado 5413" d="M165.654,470.461H67.166v98.487Z" transform="translate(31.32 208.501)" fill="#963b62"/>
    <path id="Trazado_5414" data-name="Trazado 5414" d="M367.154,470.461H268.666v98.487Z" transform="translate(125.28 208.501)" fill="#963b62"/>
    <path id="Trazado_5415" data-name="Trazado 5415" d="M335.833,636.114h98.487V537.628Z" transform="translate(156.601 239.822)" fill="#963b62"/>
    <path id="Trazado_5416" data-name="Trazado 5416" d="M67.167,501.781h98.487V403.294Z" transform="translate(31.32 177.181)" fill="#963b62"/>
    <path id="Trazado_5417" data-name="Trazado 5417" d="M165.654,201.794H67.166v98.487Z" transform="translate(31.32 83.221)" fill="#963b62"/>
    <path id="Trazado_5418" data-name="Trazado 5418" d="M232.82,268.961H134.333v98.487Z" transform="translate(62.64 114.541)" fill="#963b62"/>
    <path id="Trazado_5419" data-name="Trazado 5419" d="M367.154,268.961H268.666v98.487Z" transform="translate(125.28 114.541)" fill="#963b62"/>
    <path id="Trazado_5423" data-name="Trazado 5423" d="M335.833,300.281h98.487V201.795Z" transform="translate(156.601 83.221)" fill="#963b62"/>
    <path id="Trazado_5424" data-name="Trazado 5424" d="M.884,335.833,99.371,434.32V335.833Z" transform="translate(0.412 145.723)" fill="#963b62"/>
    <path id="Trazado_5425" data-name="Trazado 5425" d="M335.833,403.295l98.487,98.486V403.295Z" transform="translate(156.601 177.181)" fill="#963b62"/>
    <path id="Trazado_5426" data-name="Trazado 5426" d="M335.833,336.128v98.487l98.487-98.487Z" transform="translate(156.601 145.861)" fill="#963b62"/>
    <path id="Trazado_5427" data-name="Trazado 5427" d="M300.871,335.833H202.383V434.32Z" transform="translate(94.372 145.724)" fill="#963b62"/>
    <path id="Trazado_5428" data-name="Trazado 5428" d="M0,502.075H98.487L0,403.589Z" transform="translate(0 177.319)" fill="#963b62"/>
    <path id="Trazado_5429" data-name="Trazado 5429" d="M232.82,502.076H134.333V403.589Z" transform="translate(62.64 177.318)" fill="#81a347"/>
    <path id="Trazado_5430" data-name="Trazado 5430" d="M232.82,636.115H134.333V537.627Z" transform="translate(62.64 239.821)" fill="#4f7435"/>
    <path id="Trazado_5431" data-name="Trazado 5431" d="M0,636.114H98.487V537.628Z" transform="translate(0 239.822)" fill="#81a347"/>
  </g>
</svg>
