<svg id="Grupo_1182" data-name="Grupo 1182" xmlns="http://www.w3.org/2000/svg" xmlns:xlink="http://www.w3.org/1999/xlink" width="141.736" height="103.612" viewBox="0 0 141.736 103.612">
  <defs>
    <clipPath id="clip-path">
      <rect id="Rectángulo_2223" data-name="Rectángulo 2223" width="141.736" height="103.612" fill="#3a3d81"/>
    </clipPath>
  </defs>
  <g id="Grupo_1181" data-name="Grupo 1181" clip-path="url(#clip-path)">
    <path id="Trazado_5993" data-name="Trazado 5993" d="M107.11,65.737c4.859-4.739,6.214-10.435,3.9-17.453a2.533,2.533,0,0,1,1.267-3.021,10.942,10.942,0,0,1,4.237-1.534,180.037,180.037,0,0,1,21.943-.217c6.071.43,10.092,4.643,12.394,10.092,4.3,10.169,8.346,20.441,12.464,30.684a91.69,91.69,0,0,1,3.558,9.634,2.609,2.609,0,0,1-.083,1.392A2.552,2.552,0,0,1,163.414,97a2.687,2.687,0,0,1-1.45-1.032c-3.938-7.248-7.509-14.7-11.386-21.979a2.848,2.848,0,0,0-.234-.37,2.544,2.544,0,0,0-4.569,1.342c0,.013,0,.026,0,.04-.172,8.132-.138,16.269-.189,24.4,0,.55-.025,1.1-.054,1.684a2.554,2.554,0,0,1-2.525,2.419c-3.3.036-6.458.1-9.593-.139-.983-.076-2.165-1.525-2.712-2.616-2.5-4.991-4.667-10.153-7.221-15.115-3.566-6.926-8-12.941-15.476-15.657a2.553,2.553,0,0,1-.893-4.242" transform="translate(-25.203 -10.253)" fill="#3a3d81"/>
    <path id="Trazado_5994" data-name="Trazado 5994" d="M55.87,50.217c-1.289,5.856-.241,10.176,3.549,14.344A3.614,3.614,0,0,1,58.2,70.3c-10.778,4.748-14.811,15.5-19.13,25.66-2.444,5.748-5.274,8.623-11.656,7.482a20.831,20.831,0,0,0-4.393-.2,3.213,3.213,0,0,1-3.281-3.724l4.929-30.358a7.508,7.508,0,0,0,.363-2.615A11.293,11.293,0,0,0,23.6,63.834c-.8.464-1.929.731-2.354,1.427-1.387,2.268-2.538,4.684-3.746,7.06Q11.712,83.693,5.955,95.079c-.887,1.753-1.8,3.678-4.234,2.7C-.775,96.772-.025,94.764.7,92.937Q8.205,74,15.734,55.078c3.272-8.243,9.364-12.5,18.2-12.431,5.686.043,11.387.369,17.044.945l.06.007a5.512,5.512,0,0,1,4.832,6.619" transform="translate(0 -10.109)" fill="#3a3d81"/>
    <path id="Trazado_5995" data-name="Trazado 5995" d="M94.449,123.007H71.155a2.952,2.952,0,0,1-2.951-2.982c.039-3.558.1-7.017-.118-10.458a3.65,3.65,0,0,0-.15-.8,2.931,2.931,0,0,0-4.987-1.038,5.509,5.509,0,0,0-.369.474c-2.3,3.342-4.191,6.984-6.629,10.215a3.138,3.138,0,0,1-1.25.909,2.933,2.933,0,0,1-4.038-1.958,2.375,2.375,0,0,1,.013-1.533C54.3,107.88,58,99.933,62.2,92.261c3.988-7.3,10.437-10.852,18.913-10.4,2.535.134,5.093-.085,7.618.124,5.632.468,10.6,2.834,13.366,7.706,4.932,8.7,9.272,17.733,13.629,26.739a1.894,1.894,0,0,1-.077,1.376,2.981,2.981,0,0,1-3.693,1.889,2.7,2.7,0,0,1-1.451-.837c-2.573-3.45-4.619-7.291-7.084-10.83l-.025-.036a2.937,2.937,0,0,0-5.238,1.35c0,.034-.008.067-.012.1-.378,3.522-.545,7.067-.745,10.772a2.955,2.955,0,0,1-2.947,2.795" transform="translate(-11.981 -19.394)" fill="#3a3d81"/>
    <path id="Trazado_5996" data-name="Trazado 5996" d="M144.792,14.682a14.711,14.711,0,0,1-14.8,14.76,14.97,14.97,0,0,1-14.8-14.859A14.988,14.988,0,0,1,129.9,0a14.76,14.76,0,0,1,14.892,14.68" transform="translate(-27.305 0)" fill="#3a3d81"/>
    <path id="Trazado_5997" data-name="Trazado 5997" d="M47.645,4.66A12.92,12.92,0,0,1,60.754,17.606,13.153,13.153,0,0,1,47.918,30.549,12.975,12.975,0,0,1,34.7,17.689,12.729,12.729,0,0,1,47.645,4.66" transform="translate(-8.225 -1.105)" fill="#3a3d81"/>
    <path id="Trazado_5998" data-name="Trazado 5998" d="M89.573,65.728a11.5,11.5,0,0,1-11.75-11.444,11.72,11.72,0,0,1,11.7-11.962,11.959,11.959,0,0,1,11.861,11.532A11.771,11.771,0,0,1,89.573,65.728" transform="translate(-18.447 -10.032)" fill="#3a3d81"/>
  </g>
</svg>
