<svg xmlns="http://www.w3.org/2000/svg" xmlns:xlink="http://www.w3.org/1999/xlink" width="2008.753" height="462.672" viewBox="0 0 2008.753 462.672">
  <defs>
    <clipPath id="clip-path">
      <rect id="Rectángulo_1691" data-name="Rectángulo 1691" width="2008.753" height="462.672" fill="none"/>
    </clipPath>
    <clipPath id="clip-path-2">
      <rect id="Rectángulo_1690" data-name="Rectángulo 1690" width="1375.672" height="252.776" fill="none"/>
    </clipPath>
    <clipPath id="clip-path-3">
      <rect id="Rectángulo_1685" data-name="Rectángulo 1685" width="1596.676" height="462.672" fill="none"/>
    </clipPath>
    <clipPath id="clip-path-4">
      <rect id="Rectángulo_1686" data-name="Rectángulo 1686" width="1871.396" height="462.672" fill="none"/>
    </clipPath>
    <clipPath id="clip-path-5">
      <rect id="Rectángulo_1687" data-name="Rectángulo 1687" width="1184.586" height="462.297" fill="none"/>
    </clipPath>
    <clipPath id="clip-path-6">
      <rect id="Rectángulo_1688" data-name="Rectángulo 1688" width="1425.203" height="462.672" fill="none"/>
    </clipPath>
    <clipPath id="clip-path-7">
      <rect id="Rectángulo_1689" data-name="Rectángulo 1689" width="1871.397" height="462.672" fill="none"/>
    </clipPath>
  </defs>
  <g id="Grupo_648" data-name="Grupo 648" opacity="0.35">
    <g id="Grupo_647" data-name="Grupo 647" clip-path="url(#clip-path)">
      <g id="Grupo_646" data-name="Grupo 646" transform="translate(307.582 104.772)">
        <g id="Grupo_645" data-name="Grupo 645" clip-path="url(#clip-path-2)">
          <g id="Grupo_632" data-name="Grupo 632" transform="translate(-307.582 -104.772)" opacity="0.2">
            <g id="Grupo_631" data-name="Grupo 631">
              <g id="Grupo_630" data-name="Grupo 630" clip-path="url(#clip-path-3)">
                <path id="Trazado_1451" data-name="Trazado 1451" d="M631.069,119.411H613.681V102.093H596.838v17.318H579.45v16.773h17.388V153.5h16.842V136.184h17.388Z" transform="translate(4.103 0.723)" fill="#5f2161"/>
                <path id="Trazado_1452" data-name="Trazado 1452" d="M682.325,170.457H664.937V153.14H648.094v17.318H630.706V187.23h17.388v17.318h16.842V187.23h17.388Z" transform="translate(4.466 1.084)" fill="#5f2161"/>
                <path id="Trazado_1453" data-name="Trazado 1453" d="M733.581,221.5H716.192V204.186H699.35V221.5H681.962v16.773H699.35v17.318h16.842V238.277h17.388Z" transform="translate(4.829 1.446)" fill="#5f2161"/>
                <path id="Trazado_1454" data-name="Trazado 1454" d="M784.836,272.55H767.448V255.233H750.606V272.55H733.217v16.773h17.388v17.318h16.842V289.323h17.388Z" transform="translate(5.192 1.807)" fill="#c43027"/>
                <path id="Trazado_1455" data-name="Trazado 1455" d="M836.092,323.6H818.7V306.279H801.861V323.6H784.473V340.37h17.388v17.318H818.7V340.37h17.388Z" transform="translate(5.555 2.169)" fill="#5f2161"/>
                <path id="Trazado_1456" data-name="Trazado 1456" d="M307.9,272.55H290.509V255.233H273.667V272.55H256.278v16.773h17.388v17.318h16.842V289.323H307.9Z" transform="translate(1.815 1.807)" fill="#5f2161"/>
                <path id="Trazado_1457" data-name="Trazado 1457" d="M359.153,323.6H341.765V306.279H324.922V323.6H307.534V340.37h17.388v17.318h16.842V340.37h17.388Z" transform="translate(2.178 2.169)" fill="#5f2161"/>
                <path id="Trazado_1458" data-name="Trazado 1458" d="M1278.281,119.411h-17.388V102.093h-16.843v17.318h-17.388v16.773h17.388V153.5h16.843V136.184h17.388Z" transform="translate(8.686 0.723)" fill="#5f2161"/>
                <path id="Trazado_1459" data-name="Trazado 1459" d="M1329.537,170.457h-17.388V153.14h-16.842v17.318h-17.388V187.23h17.388v17.318h16.842V187.23h17.388Z" transform="translate(9.049 1.084)" fill="#5f2161"/>
                <path id="Trazado_1460" data-name="Trazado 1460" d="M1380.793,221.5H1363.4V204.186h-16.842V221.5h-17.388v16.773h17.388v17.318H1363.4V238.277h17.388Z" transform="translate(9.411 1.446)" fill="#5f2161"/>
                <path id="Trazado_1461" data-name="Trazado 1461" d="M1432.049,272.55H1414.66V255.233h-16.842V272.55H1380.43v16.773h17.388v17.318h16.842V289.323h17.388Z" transform="translate(9.774 1.807)" fill="#5f2161"/>
                <path id="Trazado_1462" data-name="Trazado 1462" d="M1483.3,323.6h-17.388V306.279h-16.842V323.6h-17.388V340.37h17.388v17.318h16.842V340.37H1483.3Z" transform="translate(10.137 2.169)" fill="#5f2161"/>
                <path id="Trazado_1463" data-name="Trazado 1463" d="M1108.008,119.411H1090.62V102.093h-16.842v17.318h-17.388v16.773h17.388V153.5h16.842V136.184h17.388Z" transform="translate(7.48 0.723)" fill="#5f2161"/>
                <path id="Trazado_1464" data-name="Trazado 1464" d="M1159.264,170.457h-17.388V153.14h-16.842v17.318h-17.388V187.23h17.388v17.318h16.842V187.23h17.388Z" transform="translate(7.843 1.084)" fill="#5f2161"/>
                <path id="Trazado_1465" data-name="Trazado 1465" d="M1210.52,221.5h-17.388V204.186h-16.842V221.5H1158.9v16.773h17.388v17.318h16.842V238.277h17.388Z" transform="translate(8.206 1.446)" fill="#5f2161"/>
                <path id="Trazado_1466" data-name="Trazado 1466" d="M1261.775,272.55h-17.388V255.233h-16.843V272.55h-17.388v16.773h17.388v17.318h16.843V289.323h17.388Z" transform="translate(8.569 1.807)" fill="#5f2161"/>
                <path id="Trazado_1467" data-name="Trazado 1467" d="M1313.031,323.6h-17.388V306.279H1278.8V323.6h-17.388V340.37H1278.8v17.318h16.842V340.37h17.388Z" transform="translate(8.932 2.169)" fill="#5f2161"/>
              </g>
            </g>
          </g>
          <g id="Grupo_635" data-name="Grupo 635" transform="translate(-170.224 -104.772)" opacity="0.25">
            <g id="Grupo_634" data-name="Grupo 634">
              <g id="Grupo_633" data-name="Grupo 633" clip-path="url(#clip-path-4)">
                <path id="Trazado_1468" data-name="Trazado 1468" d="M733.581,119.411H716.192V102.093H699.35v17.318H681.962v16.773H699.35V153.5h16.842V136.184h17.388Z" transform="translate(-132.529 0.723)" fill="#963b62"/>
                <path id="Trazado_1469" data-name="Trazado 1469" d="M784.836,170.457H767.448V153.14H750.606v17.318H733.217V187.23h17.388v17.318h16.842V187.23h17.388Z" transform="translate(-132.166 1.084)" fill="#963b62"/>
                <path id="Trazado_1470" data-name="Trazado 1470" d="M836.092,221.5H818.7V204.186H801.861V221.5H784.473v16.773h17.388v17.318H818.7V238.277h17.388Z" transform="translate(-131.803 1.446)" fill="#963b62"/>
                <path id="Trazado_1471" data-name="Trazado 1471" d="M887.348,272.55H869.959V255.233H853.117V272.55H835.729v16.773h17.388v17.318h16.842V289.323h17.388Z" transform="translate(-131.44 1.807)" fill="#963b62"/>
                <path id="Trazado_1472" data-name="Trazado 1472" d="M938.6,323.6H921.215V306.279H904.373V323.6H886.985V340.37h17.388v17.318h16.842V340.37H938.6Z" transform="translate(-131.077 2.169)" fill="#963b62"/>
                <path id="Trazado_1473" data-name="Trazado 1473" d="M835.223,119.411H817.835V102.093H800.993v17.318H783.6v16.773h17.388V153.5h16.842V136.184h17.388Z" transform="translate(-131.809 0.723)" fill="#963b62"/>
                <path id="Trazado_1474" data-name="Trazado 1474" d="M886.479,170.457H869.091V153.14H852.248v17.318H834.86V187.23h17.388v17.318h16.842V187.23h17.388Z" transform="translate(-131.446 1.084)" fill="#963b62"/>
                <path id="Trazado_1475" data-name="Trazado 1475" d="M937.735,221.5H920.346V204.186H903.5V221.5H886.116v16.773H903.5v17.318h16.842V238.277h17.388Z" transform="translate(-131.083 1.446)" fill="#963b62"/>
                <path id="Trazado_1476" data-name="Trazado 1476" d="M988.991,272.55H971.6V255.233H954.76V272.55H937.372v16.773H954.76v17.318H971.6V289.323h17.388Z" transform="translate(-130.72 1.807)" fill="#963b62"/>
                <path id="Trazado_1477" data-name="Trazado 1477" d="M1040.246,323.6h-17.388V306.279h-16.842V323.6H988.627V340.37h17.388v17.318h16.842V340.37h17.388Z" transform="translate(-130.358 2.169)" fill="#963b62"/>
                <path id="Trazado_1478" data-name="Trazado 1478" d="M1312.162,119.411h-17.388V102.093h-16.842v17.318h-17.388v16.773h17.388V153.5h16.842V136.184h17.388Z" transform="translate(-128.432 0.723)" fill="#963b62"/>
                <path id="Trazado_1479" data-name="Trazado 1479" d="M1363.418,170.457H1346.03V153.14h-16.842v17.318H1311.8V187.23h17.388v17.318h16.842V187.23h17.388Z" transform="translate(-128.069 1.084)" fill="#963b62"/>
                <path id="Trazado_1480" data-name="Trazado 1480" d="M1414.674,221.5h-17.388V204.186h-16.843V221.5h-17.388v16.773h17.388v17.318h16.843V238.277h17.388Z" transform="translate(-127.706 1.446)" fill="#963b62"/>
                <path id="Trazado_1481" data-name="Trazado 1481" d="M1465.929,272.55h-17.388V255.233H1431.7V272.55h-17.388v16.773H1431.7v17.318h16.842V289.323h17.388Z" transform="translate(-127.343 1.807)" fill="#963b62"/>
                <path id="Trazado_1482" data-name="Trazado 1482" d="M1517.185,323.6H1499.8V306.279h-16.842V323.6h-17.388V340.37h17.388v17.318H1499.8V340.37h17.388Z" transform="translate(-126.98 2.169)" fill="#963b62"/>
                <path id="Trazado_1483" data-name="Trazado 1483" d="M341.778,170.457H324.39V153.14H307.548v17.318H290.159V187.23h17.388v17.318H324.39V187.23h17.388Z" transform="translate(-135.303 1.084)" fill="#963b62"/>
                <path id="Trazado_1484" data-name="Trazado 1484" d="M393.034,221.5H375.646V204.186H358.8V221.5H341.415v16.773H358.8v17.318h16.842V238.277h17.388Z" transform="translate(-134.94 1.446)" fill="#963b62"/>
                <path id="Trazado_1485" data-name="Trazado 1485" d="M444.29,272.55H426.9V255.233H410.059V272.55H392.671v16.773h17.388v17.318H426.9V289.323H444.29Z" transform="translate(-134.577 1.807)" fill="#963b62"/>
                <path id="Trazado_1486" data-name="Trazado 1486" d="M495.546,323.6H478.157V306.279H461.315V323.6H443.927V340.37h17.388v17.318h16.842V340.37h17.388Z" transform="translate(-134.214 2.169)" fill="#963b62"/>
                <path id="Trazado_1487" data-name="Trazado 1487" d="M1687.459,119.411H1670.07V102.093h-16.843v17.318H1635.84v16.773h17.388V153.5h16.843V136.184h17.388Z" transform="translate(-125.775 0.723)" fill="#963b62"/>
              </g>
            </g>
          </g>
          <g id="Grupo_638" data-name="Grupo 638" transform="translate(104.861 -104.443)" opacity="0.74">
            <g id="Grupo_637" data-name="Grupo 637" transform="translate(0 0)">
              <g id="Grupo_636" data-name="Grupo 636" clip-path="url(#clip-path-5)">
                <path id="Trazado_1488" data-name="Trazado 1488" d="M1262.161,170.643h-17.388V153.326h-16.842v17.318h-17.388v16.773h17.388v17.318h16.842V187.416h17.388Z" transform="translate(-403.871 0.757)" fill="#c43027"/>
                <path id="Trazado_1489" data-name="Trazado 1489" d="M1484.161,323.643h-17.388V306.326h-16.842v17.318h-17.388v16.773h17.388v17.318h16.842V340.416h17.388Z" transform="translate(-402.299 1.841)" fill="#c43027"/>
                <path id="Trazado_1490" data-name="Trazado 1490" d="M989.161,272.643H971.773V255.326H954.931v17.318H937.542v16.773h17.388v17.318h16.842V289.416h17.388Z" transform="translate(-405.804 1.48)" fill="#c43027"/>
                <path id="Trazado_1491" data-name="Trazado 1491" d="M1586.161,119.643h-17.388V102.326h-16.843v17.318h-17.388v16.773h17.388v17.318h16.843V136.416h17.388Z" transform="translate(-401.577 0.396)" fill="#c43027"/>
                <path id="Trazado_1492" data-name="Trazado 1492" d="M599.161,323.643H581.773V306.326H564.931v17.318H547.542v16.773h17.388v17.318h16.842V340.416h17.388Z" transform="translate(-408.566 1.841)" fill="#c43027"/>
                <path id="Trazado_1493" data-name="Trazado 1493" d="M785.161,170.643H767.773V153.326H750.931v17.318H733.542v16.773h17.388v17.318h16.842V187.416h17.388Z" transform="translate(-407.249 0.757)" fill="#c43027"/>
                <path id="Trazado_1494" data-name="Trazado 1494" d="M461.161,119.643H443.773V102.326H426.931v17.318H409.542v16.773h17.388v17.318h16.842V136.416h17.388Z" transform="translate(-409.543 0.396)" fill="#c43027"/>
              </g>
            </g>
          </g>
          <g id="Grupo_641" data-name="Grupo 641" transform="translate(104.493 -104.772)" opacity="0.29">
            <g id="Grupo_640" data-name="Grupo 640">
              <g id="Grupo_639" data-name="Grupo 639" clip-path="url(#clip-path-6)">
                <path id="Trazado_1495" data-name="Trazado 1495" d="M1517.185,119.411H1499.8V102.093h-16.842v17.318h-17.388v16.773h17.388V153.5H1499.8V136.184h17.388Z" transform="translate(-401.697 0.723)" fill="#c43027"/>
                <path id="Trazado_1496" data-name="Trazado 1496" d="M1568.441,170.457h-17.388V153.14H1534.21v17.318h-17.388V187.23h17.388v17.318h16.842V187.23h17.388Z" transform="translate(-401.334 1.084)" fill="#c43027"/>
                <path id="Trazado_1497" data-name="Trazado 1497" d="M1619.7,221.5h-17.388V204.186h-16.842V221.5h-17.388v16.773h17.388v17.318h16.842V238.277H1619.7Z" transform="translate(-400.971 1.446)" fill="#c43027"/>
                <path id="Trazado_1498" data-name="Trazado 1498" d="M1670.953,272.55h-17.388V255.233h-16.842V272.55h-17.388v16.773h17.388v17.318h16.842V289.323h17.388Z" transform="translate(-400.608 1.807)" fill="#c43027"/>
                <path id="Trazado_1499" data-name="Trazado 1499" d="M1722.208,323.6H1704.82V306.279h-16.842V323.6h-17.388V340.37h17.388v17.318h16.842V340.37h17.388Z" transform="translate(-400.246 2.169)" fill="#c43027"/>
                <path id="Trazado_1500" data-name="Trazado 1500" d="M563.307,119.411H545.919V102.093H529.077v17.318H511.688v16.773h17.388V153.5h16.842V136.184h17.388Z" transform="translate(-408.451 0.723)" fill="#c43027"/>
                <path id="Trazado_1501" data-name="Trazado 1501" d="M614.563,170.457H597.175V153.14H580.332v17.318H562.944V187.23h17.388v17.318h16.842V187.23h17.388Z" transform="translate(-408.088 1.084)" fill="#c43027"/>
                <path id="Trazado_1502" data-name="Trazado 1502" d="M665.819,221.5H648.43V204.186H631.588V221.5H614.2v16.773h17.388v17.318H648.43V238.277h17.388Z" transform="translate(-407.725 1.446)" fill="#c43027"/>
                <path id="Trazado_1503" data-name="Trazado 1503" d="M717.075,272.55H699.686V255.233H682.844V272.55H665.456v16.773h17.388v17.318h16.842V289.323h17.388Z" transform="translate(-407.362 1.807)" fill="#c43027"/>
                <path id="Trazado_1504" data-name="Trazado 1504" d="M768.33,323.6H750.942V306.279H734.1V323.6H716.711V340.37H734.1v17.318h16.842V340.37H768.33Z" transform="translate(-406.999 2.169)" fill="#c43027"/>
                <path id="Trazado_1505" data-name="Trazado 1505" d="M1210.52,119.411h-17.388V102.093h-16.842v17.318H1158.9v16.773h17.388V153.5h16.842V136.184h17.388Z" transform="translate(-403.869 0.723)" fill="#c43027"/>
                <path id="Trazado_1506" data-name="Trazado 1506" d="M1261.775,170.457h-17.388V153.14h-16.843v17.318h-17.388V187.23h17.388v17.318h16.843V187.23h17.388Z" transform="translate(-403.505 1.084)" fill="#c43027"/>
                <path id="Trazado_1507" data-name="Trazado 1507" d="M1313.031,221.5h-17.388V204.186H1278.8V221.5h-17.388v16.773H1278.8v17.318h16.842V238.277h17.388Z" transform="translate(-403.142 1.446)" fill="#c43027"/>
                <path id="Trazado_1508" data-name="Trazado 1508" d="M1364.287,272.55H1346.9V255.233h-16.842V272.55h-17.388v16.773h17.388v17.318H1346.9V289.323h17.388Z" transform="translate(-402.78 1.807)" fill="#c43027"/>
                <path id="Trazado_1509" data-name="Trazado 1509" d="M1415.543,323.6h-17.389V306.279h-16.842V323.6h-17.388V340.37h17.388v17.318h16.842V340.37h17.389Z" transform="translate(-402.417 2.169)" fill="#c43027"/>
                <path id="Trazado_1510" data-name="Trazado 1510" d="M937.735,119.411H920.346V102.093H903.5v17.318H886.116v16.773H903.5V153.5h16.842V136.184h17.388Z" transform="translate(-405.8 0.723)" fill="#c43027"/>
                <path id="Trazado_1511" data-name="Trazado 1511" d="M988.991,170.457H971.6V153.14H954.76v17.318H937.372V187.23H954.76v17.318H971.6V187.23h17.388Z" transform="translate(-405.437 1.084)" fill="#c43027"/>
                <path id="Trazado_1512" data-name="Trazado 1512" d="M1040.246,221.5h-17.388V204.186h-16.842V221.5H988.627v16.773h17.388v17.318h16.842V238.277h17.388Z" transform="translate(-405.074 1.446)" fill="#c43027"/>
                <path id="Trazado_1513" data-name="Trazado 1513" d="M1091.5,272.55h-17.388V255.233h-16.842V272.55h-17.388v16.773h17.388v17.318h16.842V289.323H1091.5Z" transform="translate(-404.711 1.807)" fill="#c43027"/>
                <path id="Trazado_1514" data-name="Trazado 1514" d="M1142.758,323.6h-17.388V306.279h-16.842V323.6h-17.388V340.37h17.388v17.318h16.842V340.37h17.388Z" transform="translate(-404.348 2.169)" fill="#c43027"/>
              </g>
            </g>
          </g>
          <g id="Grupo_644" data-name="Grupo 644" transform="translate(-273.461 -104.772)" opacity="0.15">
            <g id="Grupo_643" data-name="Grupo 643">
              <g id="Grupo_642" data-name="Grupo 642" clip-path="url(#clip-path-7)">
                <path id="Trazado_1515" data-name="Trazado 1515" d="M341.778,272.55H324.39V255.233H307.548V272.55H290.159v16.773h17.388v17.318H324.39V289.323h17.388Z" transform="translate(-32.066 1.807)" fill="#c5296a"/>
                <path id="Trazado_1516" data-name="Trazado 1516" d="M393.034,323.6H375.646V306.279H358.8V323.6H341.415V340.37H358.8v17.318h16.842V340.37h17.388Z" transform="translate(-31.703 2.169)" fill="#c5296a"/>
                <path id="Trazado_1517" data-name="Trazado 1517" d="M1040.246,119.411h-17.388V102.093h-16.842v17.318H988.627v16.773h17.388V153.5h16.842V136.184h17.388Z" transform="translate(-27.121 0.723)" fill="#c5296a"/>
                <path id="Trazado_1518" data-name="Trazado 1518" d="M1091.5,170.457h-17.388V153.14h-16.842v17.318h-17.388V187.23h17.388v17.318h16.842V187.23H1091.5Z" transform="translate(-26.758 1.084)" fill="#c5296a"/>
                <path id="Trazado_1519" data-name="Trazado 1519" d="M1142.758,221.5h-17.388V204.186h-16.842V221.5h-17.388v16.773h17.388v17.318h16.842V238.277h17.388Z" transform="translate(-26.395 1.446)" fill="#c5296a"/>
                <path id="Trazado_1520" data-name="Trazado 1520" d="M1194.014,272.55h-17.388V255.233h-16.842V272.55h-17.388v16.773h17.388v17.318h16.842V289.323h17.388Z" transform="translate(-26.032 1.807)" fill="#c5296a"/>
                <path id="Trazado_1521" data-name="Trazado 1521" d="M1245.269,323.6h-17.388V306.279h-16.842V323.6H1193.65V340.37h17.388v17.318h16.842V340.37h17.388Z" transform="translate(-25.669 2.169)" fill="#c43027"/>
                <path id="Trazado_1522" data-name="Trazado 1522" d="M460.8,119.411H443.408V102.093H426.565v17.318H409.177v16.773h17.388V153.5h16.842V136.184H460.8Z" transform="translate(-31.224 0.723)" fill="#c5296a"/>
                <path id="Trazado_1523" data-name="Trazado 1523" d="M512.052,170.457H494.663V153.14H477.821v17.318H460.433V187.23h17.388v17.318h16.842V187.23h17.388Z" transform="translate(-30.861 1.084)" fill="#c5296a"/>
                <path id="Trazado_1524" data-name="Trazado 1524" d="M563.307,221.5H545.919V204.186H529.077V221.5H511.688v16.773h17.388v17.318h16.842V238.277h17.388Z" transform="translate(-30.498 1.446)" fill="#c5296a"/>
                <path id="Trazado_1525" data-name="Trazado 1525" d="M614.563,272.55H597.175V255.233H580.332V272.55H562.944v16.773h17.388v17.318h16.842V289.323h17.388Z" transform="translate(-30.135 1.807)" fill="#c5296a"/>
                <path id="Trazado_1526" data-name="Trazado 1526" d="M665.819,323.6H648.43V306.279H631.588V323.6H614.2V340.37h17.388v17.318H648.43V340.37h17.388Z" transform="translate(-29.772 2.169)" fill="#c5296a"/>
                <path id="Trazado_1527" data-name="Trazado 1527" d="M801.342,119.411H783.954V102.093H767.112v17.318H749.724v16.773h17.388V153.5h16.842V136.184h17.388Z" transform="translate(-28.812 0.723)" fill="#c5296a"/>
                <path id="Trazado_1528" data-name="Trazado 1528" d="M852.6,170.457H835.21V153.14H818.367v17.318H800.979V187.23h17.388v17.318H835.21V187.23H852.6Z" transform="translate(-28.449 1.084)" fill="#c5296a"/>
                <path id="Trazado_1529" data-name="Trazado 1529" d="M903.854,221.5H886.466V204.186H869.623V221.5H852.235v16.773h17.388v17.318h16.842V238.277h17.388Z" transform="translate(-28.086 1.446)" fill="#c5296a"/>
                <path id="Trazado_1530" data-name="Trazado 1530" d="M955.11,272.55H937.721V255.233H920.879V272.55H903.491v16.773h17.388v17.318h16.842V289.323H955.11Z" transform="translate(-27.723 1.807)" fill="#c5296a"/>
                <path id="Trazado_1531" data-name="Trazado 1531" d="M1006.365,323.6H988.977V306.279H972.135V323.6H954.746V340.37h17.388v17.318h16.842V340.37h17.388Z" transform="translate(-27.361 2.169)" fill="#c5296a"/>
                <path id="Trazado_1532" data-name="Trazado 1532" d="M393.034,119.411H375.646V102.093H358.8v17.318H341.415v16.773H358.8V153.5h16.842V136.184h17.388Z" transform="translate(-31.703 0.723)" fill="#c5296a"/>
                <path id="Trazado_1533" data-name="Trazado 1533" d="M444.29,170.457H426.9V153.14H410.059v17.318H392.671V187.23h17.388v17.318H426.9V187.23H444.29Z" transform="translate(-31.34 1.084)" fill="#c43027"/>
                <path id="Trazado_1534" data-name="Trazado 1534" d="M495.546,221.5H478.157V204.186H461.315V221.5H443.927v16.773h17.388v17.318h16.842V238.277h17.388Z" transform="translate(-30.977 1.446)" fill="#c43027"/>
                <path id="Trazado_1535" data-name="Trazado 1535" d="M546.8,272.55H529.413V255.233H512.571V272.55H495.182v16.773h17.388v17.318h16.842V289.323H546.8Z" transform="translate(-30.615 1.807)" fill="#c5296a"/>
                <path id="Trazado_1536" data-name="Trazado 1536" d="M598.057,323.6H580.669V306.279H563.826V323.6H546.438V340.37h17.388v17.318h16.842V340.37h17.388Z" transform="translate(-30.252 2.169)" fill="#c43027"/>
                <path id="Trazado_1537" data-name="Trazado 1537" d="M1414.674,119.411h-17.388V102.093h-16.843v17.318h-17.388v16.773h17.388V153.5h16.843V136.184h17.388Z" transform="translate(-24.469 0.723)" fill="#c5296a"/>
                <path id="Trazado_1538" data-name="Trazado 1538" d="M1465.929,170.457h-17.388V153.14H1431.7v17.318h-17.388V187.23H1431.7v17.318h16.842V187.23h17.388Z" transform="translate(-24.106 1.084)" fill="#c5296a"/>
                <path id="Trazado_1539" data-name="Trazado 1539" d="M1517.185,221.5H1499.8V204.186h-16.842V221.5h-17.388v16.773h17.388v17.318H1499.8V238.277h17.388Z" transform="translate(-23.744 1.446)" fill="#c5296a"/>
                <path id="Trazado_1540" data-name="Trazado 1540" d="M1568.441,272.55h-17.388V255.233H1534.21V272.55h-17.388v16.773h17.388v17.318h16.842V289.323h17.388Z" transform="translate(-23.381 1.807)" fill="#c5296a"/>
                <path id="Trazado_1541" data-name="Trazado 1541" d="M1619.7,323.6h-17.388V306.279h-16.842V323.6h-17.388V340.37h17.388v17.318h16.842V340.37H1619.7Z" transform="translate(-23.018 2.169)" fill="#c5296a"/>
                <path id="Trazado_1542" data-name="Trazado 1542" d="M1584.947,119.411h-17.389V102.093h-16.842v17.318h-17.388v16.773h17.388V153.5h16.842V136.184h17.389Z" transform="translate(-23.264 0.723)" fill="#c5296a"/>
                <path id="Trazado_1543" data-name="Trazado 1543" d="M1636.2,170.457h-17.388V153.14h-16.842v17.318h-17.388V187.23h17.388v17.318h16.842V187.23H1636.2Z" transform="translate(-22.901 1.084)" fill="#c5296a"/>
                <path id="Trazado_1544" data-name="Trazado 1544" d="M1687.459,221.5H1670.07V204.186h-16.843V221.5H1635.84v16.773h17.388v17.318h16.843V238.277h17.388Z" transform="translate(-22.538 1.446)" fill="#c5296a"/>
              </g>
            </g>
          </g>
        </g>
      </g>
    </g>
  </g>
</svg>
