<svg xmlns="http://www.w3.org/2000/svg" xmlns:xlink="http://www.w3.org/1999/xlink" width="311" height="303" viewBox="0 0 311 303">
  <defs>
    <clipPath id="clip-path">
      <rect id="Rect치ngulo_2238" data-name="Rect치ngulo 2238" width="311" height="303" transform="translate(372 1440)" fill="#fff" stroke="#707070" stroke-width="1"/>
    </clipPath>
  </defs>
  <g id="Enmascarar_grupo_55" data-name="Enmascarar grupo 55" transform="translate(-372 -1440)" clip-path="url(#clip-path)">
    <g id="Grupo_1189" data-name="Grupo 1189" transform="translate(1038.912 3412.189) rotate(-180)">
      <path id="Trazado_6007" data-name="Trazado 6007" d="M445.527,306.247a69.915,69.915,0,0,1-45.94-87.428L439.253,91.311a46.507,46.507,0,0,0-88.816-27.629L345.2,80.5a52.366,52.366,0,0,1-65.483,34.409l-34.907-10.859a25.855,25.855,0,0,0-32.331,16.988,75.765,75.765,0,0,1-94.744,49.785l-116.4-36.21L9.2,109.331l116.4,36.21A49.255,49.255,0,0,0,187.2,113.177a52.366,52.366,0,0,1,65.483-34.409l34.908,10.859a25.854,25.854,0,0,0,32.33-16.988l5.234-16.823A72.988,72.988,0,1,1,464.539,99.177L424.874,226.685a43.354,43.354,0,1,0,82.794,25.755l18.05-58.022A52.366,52.366,0,0,1,591.2,160.01L693.24,191.752l-7.866,25.286L583.335,185.3A25.853,25.853,0,0,0,551,202.285l-18.05,58.022a69.914,69.914,0,0,1-87.427,45.94" transform="translate(493.309 2159.191) rotate(-106)" fill="#818184" opacity="0.708"/>
      <path id="Trazado_6009" data-name="Trazado 6009" d="M460.465,299.6a.757.757,0,0,1,.393-1.46,55.743,55.743,0,0,0,12.5,1.392.757.757,0,0,1,0,1.513,57.306,57.306,0,0,1-12.842-1.429l-.058-.016m-12.039-4.195a.8.8,0,0,1-.1-.04,57.122,57.122,0,0,1-10.943-6.873.757.757,0,0,1,.945-1.182A55.66,55.66,0,0,0,448.976,294a.756.756,0,0,1-.551,1.4m37.381,4.125a.756.756,0,0,1,.052-1.46,56.107,56.107,0,0,0,11.852-4.225.757.757,0,0,1,.665,1.36,57.692,57.692,0,0,1-12.173,4.338.763.763,0,0,1-.4-.014M428.636,279.59a.752.752,0,0,1-.368-.252,57.722,57.722,0,0,1-6.838-10.963.757.757,0,0,1,1.366-.652,56.155,56.155,0,0,0,6.658,10.675.756.756,0,0,1-.819,1.192m79.938,8.812a.757.757,0,0,1-.25-1.31,55.746,55.746,0,0,0,8.829-8.955.757.757,0,0,1,1.191.934,57.235,57.235,0,0,1-9.069,9.2.757.757,0,0,1-.7.133m-90.852-31.683a.757.757,0,0,1-.514-.558,57.119,57.119,0,0,1-1.379-12.852.757.757,0,0,1,1.513.011,55.6,55.6,0,0,0,1.342,12.511.757.757,0,0,1-.962.888M128.369,163.025l-.415-.129a.757.757,0,1,1,.449-1.445l.416.129a62.136,62.136,0,0,0,11.921,2.463.757.757,0,1,1-.157,1.506,63.742,63.742,0,0,1-12.213-2.523m-12.62-3.926-12.205-3.8a.757.757,0,1,1,.45-1.445l12.2,3.8a.757.757,0,1,1-.449,1.445m-24.41-7.593-12.205-3.8a.757.757,0,1,1,.449-1.445l12.205,3.8a.757.757,0,1,1-.449,1.445m-24.409-7.593-12.206-3.8a.757.757,0,0,1,.449-1.445l12.205,3.8a.757.757,0,0,1-.449,1.445m-24.411-7.593-12.2-3.8a.757.757,0,1,1,.449-1.445l12.205,3.8a.757.757,0,0,1-.45,1.445m110.675,29.224a.757.757,0,0,1,.148-1.475,61.667,61.667,0,0,0,12.343-2.551.756.756,0,1,1,.455,1.443,63.176,63.176,0,0,1-12.645,2.614.751.751,0,0,1-.3-.03M524.2,268.465a.81.81,0,0,1-.1-.038.756.756,0,0,1-.365-1.006,56.546,56.546,0,0,0,2.771-7.155L528,255.494a.757.757,0,1,1,1.445.449l-1.484,4.773a58.143,58.143,0,0,1-2.845,7.347.757.757,0,0,1-.91.4M177.4,157.9a.757.757,0,0,1-.145-1.382,62.146,62.146,0,0,0,10.318-7.236.756.756,0,1,1,.99,1.144,63.6,63.6,0,0,1-10.569,7.413.75.75,0,0,1-.594.062M417.89,231.378a.756.756,0,0,1-.511-.9c.3-1.283.658-2.573,1.052-3.837l2.629-8.453a.757.757,0,0,1,1.445.449l-2.63,8.453c-.383,1.231-.727,2.488-1.024,3.737a.757.757,0,0,1-.911.561c-.017,0-.034-.009-.051-.014m-221.312-90.1a.74.74,0,0,1-.235-.121.756.756,0,0,1-.142-1.06,61.441,61.441,0,0,0,6.57-10.752.756.756,0,0,1,1.365.652,62.872,62.872,0,0,1-6.732,11.016.755.755,0,0,1-.825.264M532.291,244.236a.757.757,0,0,1-.5-.947l3.8-12.205a.757.757,0,0,1,1.445.45l-3.8,12.2a.757.757,0,0,1-.947.5m-106.936-37.3a.757.757,0,0,1-.5-.947l3.8-12.205a.757.757,0,1,1,1.445.449l-3.8,12.205a.757.757,0,0,1-.947.5M207.8,118.473a.723.723,0,0,1-.068-.024.758.758,0,0,1-.407-.99,39.534,39.534,0,0,1,6.883-10.994.757.757,0,1,1,1.133,1,38.024,38.024,0,0,0-6.619,10.574.757.757,0,0,1-.922.432M539.884,219.826a.757.757,0,0,1-.5-.947l3.8-12.205a.757.757,0,0,1,1.445.449l-3.8,12.205a.757.757,0,0,1-.947.5m-106.936-37.3a.757.757,0,0,1-.5-.947l3.8-12.205a.757.757,0,0,1,1.445.449l-3.8,12.205a.757.757,0,0,1-.947.5M224.418,99.657a.757.757,0,0,1-.151-1.379,39.888,39.888,0,0,1,12.147-4.535.757.757,0,0,1,.292,1.485,38.366,38.366,0,0,0-11.687,4.363.754.754,0,0,1-.6.066M548.26,195.723a.714.714,0,0,1-.145-.062.756.756,0,0,1-.292-1.029,39.539,39.539,0,0,1,8.091-10.138.757.757,0,1,1,1.012,1.125,37.991,37.991,0,0,0-7.782,9.751.756.756,0,0,1-.884.353M440.542,158.114a.757.757,0,0,1-.5-.947l3.8-12.205a.757.757,0,0,1,1.445.449l-3.8,12.205a.757.757,0,0,1-.947.5M249.05,94.831a.757.757,0,0,1,.328-1.472,40.327,40.327,0,0,1,6.516,1.447l5.942,1.849a.756.756,0,1,1-.449,1.444l-5.943-1.848a38.7,38.7,0,0,0-6.269-1.393.843.843,0,0,1-.124-.027M285.8,105.694l-12.2-3.8a.757.757,0,0,1,.449-1.445l12.205,3.8a.757.757,0,1,1-.449,1.445m12.389,3.005a.757.757,0,0,1,.3-1.475,37.987,37.987,0,0,0,12.447-.836.757.757,0,0,1,.347,1.473,39.493,39.493,0,0,1-12.941.869.713.713,0,0,1-.152-.03m24.441-5.742a.756.756,0,0,1-.175-1.364,38.23,38.23,0,0,0,9.374-8.227.757.757,0,1,1,1.171.959,39.75,39.75,0,0,1-9.745,8.551.753.753,0,0,1-.625.08m244.282,75.958a.757.757,0,0,1-.075-1.418,39.75,39.75,0,0,1,12.581-3.132.757.757,0,0,1,.121,1.509,38.214,38.214,0,0,0-12.1,3.013.758.758,0,0,1-.524.028M448.135,133.7a.757.757,0,0,1-.5-.947l3.8-12.205a.757.757,0,0,1,1.445.449l-3.8,12.205a.756.756,0,0,1-.947.5m143.789,43.214a.757.757,0,0,1,.411-1.456c.691.176,1.391.373,2.08.587l10.18,3.166a.757.757,0,1,1-.45,1.445l-10.18-3.166c-.663-.207-1.336-.4-2-.565l-.04-.011m85.452,26.522-12.206-3.8a.757.757,0,0,1,.449-1.445l12.205,3.8a.757.757,0,0,1-.449,1.445m-24.411-7.593-12.2-3.8a.757.757,0,0,1,.449-1.445l12.205,3.8a.757.757,0,1,1-.449,1.445m-24.41-7.593-12.2-3.8a.757.757,0,0,1,.451-1.445l12.2,3.8a.757.757,0,0,1-.45,1.445M338.53,83.543l-.042-.014a.757.757,0,0,1-.443-.974c.256-.685.5-1.388.716-2.09l3.128-10.054a.757.757,0,1,1,1.445.449l-3.128,10.054c-.227.729-.477,1.46-.744,2.171a.756.756,0,0,1-.932.458m117.2,25.752a.756.756,0,0,1-.5-.947l2.865-9.21c.306-.984.589-1.985.843-2.98a.757.757,0,1,1,1.466.374c-.26,1.019-.551,2.047-.864,3.055l-2.865,9.21a.756.756,0,0,1-.947.5M346.435,59.242a.713.713,0,0,1-.067-.024.757.757,0,0,1-.407-.99,60.406,60.406,0,0,1,6.226-11.321.757.757,0,0,1,1.24.868,58.823,58.823,0,0,0-6.07,11.035.756.756,0,0,1-.922.431m114.833,25.2a.758.758,0,0,1-.531-.75,58.75,58.75,0,0,0-.9-12.559.756.756,0,1,1,1.488-.269,60.192,60.192,0,0,1,.928,12.883.757.757,0,0,1-.783.729.744.744,0,0,1-.2-.033M360.975,38.459a.757.757,0,0,1-.288-1.279,60.762,60.762,0,0,1,10.372-7.7.757.757,0,0,1,.767,1.3,59.259,59.259,0,0,0-10.113,7.506.757.757,0,0,1-.738.166M456.751,59.49a.752.752,0,0,1-.474-.433A59.476,59.476,0,0,0,450.248,48a.756.756,0,1,1,1.244-.861,60.945,60.945,0,0,1,6.184,11.339.757.757,0,0,1-.924,1.012m-73.917-33.9a.757.757,0,0,1-.014-1.441,60.594,60.594,0,0,1,12.623-2.722.757.757,0,0,1,.159,1.5A59.043,59.043,0,0,0,383.3,25.585a.758.758,0,0,1-.462,0m59.472,13.048a.747.747,0,0,1-.291-.169,58.762,58.762,0,0,0-10.074-7.559.756.756,0,1,1,.772-1.3,60.183,60.183,0,0,1,10.334,7.754.757.757,0,0,1-.742,1.275m-34.256-15.7a.757.757,0,0,1,.309-1.475,60.971,60.971,0,0,1,11.374,2.381c.4.133.827.262,1.238.4a.756.756,0,0,1,.477.957.767.767,0,0,1-.957.478q-.6-.2-1.2-.387l-.006,0a59.4,59.4,0,0,0-11.091-2.321.791.791,0,0,1-.142-.03" transform="translate(491.258 2166.981) rotate(-106)" fill="#fff"/>
      <path id="Trazado_6010" data-name="Trazado 6010" d="M908.162,268.56l-6.141-1.91a.757.757,0,1,1,.449-1.445l6.141,1.91a.757.757,0,1,1-.449,1.445" transform="translate(492.711 2387.272) rotate(-106)" fill="#fff"/>
      <rect id="Rect치ngulo_2237" data-name="Rect치ngulo 2237" width="693.926" height="311.715" transform="translate(494.272 2158.577) rotate(-106)" fill="none"/>
    </g>
  </g>
</svg>
