<svg xmlns="http://www.w3.org/2000/svg" width="132.932" height="103.612" viewBox="0 0 132.932 103.612">
  <g id="Grupo_795" data-name="Grupo 795" transform="translate(-460.198 -1307.177)">
    <path id="Trazado_188" data-name="Trazado 188" d="M0,0V96.13L96.859,0Z" transform="translate(497 1410.789) rotate(-90)" fill="#c5296a" opacity="0.4"/>
    <path id="Trazado_1445" data-name="Trazado 1445" d="M46.275,37.478v4.111c.077.039.114.073.155.076,1.132.078,1.151.077,1.167,1.2.02,1.4,0,2.808,0,4.3h1.39v5.521l1.412.065v5.4l1.352.108V62.39h1.378v5.537h1.4v5.5l1.24.072v4.025c.113.062.15.1.19.1,1.124.085,1.148.084,1.169,1.216.026,1.4.006,2.805.006,4.292h1.4v5.512H59.93v5.467l1.375.114v4.123l1.329.061v1.261H58.616c-.027.5-.049.9-.077,1.414H53.268c-.043.5-.077.9-.117,1.37H49.113c-.062.106-.1.143-.1.182-.087,1.137-.086,1.142-1.263,1.184-.455.015-.911,0-1.429,0v-2.711l-1.251-.059V95.588l-1.4-.064c0-.958,0-1.873,0-2.789,0-.392.007-.784-.008-1.175-.017-.436.089-.981-.131-1.273-.194-.256-.765-.226-1.246-.34V85.9l-1.353-.06v-5.47h-1.42V74.883l-1.37-.1V70.675L36.8,70.612c-.02-.428-.04-.833-.061-1.29H35.426v4.493c0,1.025.085.973-.979.964-.091,0-.183.02-.347.038v4.109l-1.38.067V84.45l-1.391.061v5.445l-1.386.081v4.109l-1.343.083v5.446H27.183v4.12H24.613v-1.317h-5.5c-.03-.507-.053-.912-.081-1.383H15.141c-.074-.1-.116-.139-.121-.178-.131-1.071-.129-1.1-1.24-1.158-.936-.047-1.876-.01-2.852-.01V98.375a2.229,2.229,0,0,1,.526-.07c.559.059.767-.142.758-.731-.018-1.38.035-2.761.06-4.142,0-.179.018-.357.029-.57l1.326-.076V87.344l1.4-.073V81.805h1.359V77.646l1.232-.093V72.13l1.419-.073V66.592h1.373V62.454c1.36-.312,1.372-.311,1.4-1.849.019-1.217,0-2.434,0-3.7l1.342-.078V51.365h1.4V45.85l1.4-.069V41.674l1.212-.084v-5.5h1.378V34.748H27.191v1.36H25.938v1.323H24.555v1.383H23.172V40.2H21.788v1.383H20.406v1.383H19.022v1.383H17.639v1.375l-1.244.06v1.331H15.013V48.5H13.629v1.383H12.246v1.383H10.863v1.383H9.48v1.383H8.1v1.367h-1.2V54.076H5.511V52.693H4.128V51.31H2.746V49.926H1.362V48.543H0V47.225H1.312V45.843H2.695V44.46H4.078V43.077H5.46V41.694H6.843V40.313l1.268-.059V38.905H9.494V37.522h1.383V36.139h1.383V34.756h1.383V33.374h1.383V31.991h1.383V30.629l1.245-.059V29.225h1.382V27.843h1.383V26.46H21.8V25.077h1.383V23.694h1.383V22.311H25.95V20.927h2.592V19.5h-1.31V18.126l-1.246-.056V15.354H24.623V8.495l1.31-.067V5.733l1.311-.06c0-.714.024-1.4-.008-2.081-.023-.494.176-.65.649-.629.662.028,1.327.007,2.055.007V1.565h2.72c.032-.492.058-.895.088-1.346h6.719c.027.4.052.788.085,1.277H42.2c.025.507.045.911.069,1.4h2.7V5.654l1.257.075V8.4l1.341.072V15.31H46.261v2.752l-1.244.061V19.46H43.654v1.424h2.559v1.384H47.6v1.383H48.98v1.383h1.383v1.383h1.383V27.8H53.13v1.383h1.383v1.377l1.245.062v1.326h1.383v1.383h1.383v1.383h1.383V36.1H61.29v1.383h1.383v1.383h1.383v1.377l1.246.066V41.63H66.69v1.385h1.391V44.4h1.367c.027.483.049.905.075,1.367l1.318.066c.02.425.039.83.062,1.313l1.307.064v1.282H70.894v1.383H69.511v1.383H68.128v1.383H66.745v1.383H65.362V55.38h-1.2v-1.3H62.777V52.694H61.393V51.311H60.011V49.928H58.627V48.545H57.244V47.162H55.861V45.793l-1.245-.066V44.4H53.234V43.013H51.85V41.63H50.468V40.247H49.084V38.864H47.7V37.491H46.262V36.135h-1.2v1.343Z" transform="translate(460.198 1306.958)" fill="#3a3c6a"/>
  </g>
</svg>
