<svg xmlns="http://www.w3.org/2000/svg" width="364.947" height="103.612" viewBox="0 0 364.947 103.612">
  <g id="Grupo_1180" data-name="Grupo 1180" transform="translate(-200.993 -958.388)">
    <path id="Trazado_1445" data-name="Trazado 1445" d="M46.275,37.478v4.111c.077.039.114.073.155.076,1.132.078,1.151.077,1.167,1.2.02,1.4,0,2.808,0,4.3h1.39v5.521l1.412.065v5.4l1.352.108V62.39h1.378v5.537h1.4v5.5l1.24.072v4.025c.113.062.15.1.19.1,1.124.085,1.148.084,1.169,1.216.026,1.4.006,2.805.006,4.292h1.4v5.512H59.93v5.467l1.375.114v4.123l1.329.061v1.261H58.616c-.027.5-.049.9-.077,1.414H53.268c-.043.5-.077.9-.117,1.37H49.113c-.062.106-.1.143-.1.182-.087,1.137-.086,1.142-1.263,1.184-.455.015-.911,0-1.429,0v-2.711l-1.251-.059V95.588l-1.4-.064c0-.958,0-1.873,0-2.789,0-.392.007-.784-.008-1.175-.017-.436.089-.981-.131-1.273-.194-.256-.765-.226-1.246-.34V85.9l-1.353-.06v-5.47h-1.42V74.883l-1.37-.1V70.675L36.8,70.612c-.02-.428-.04-.833-.061-1.29H35.426v4.493c0,1.025.085.973-.979.964-.091,0-.183.02-.347.038v4.109l-1.38.067V84.45l-1.391.061v5.445l-1.386.081v4.109l-1.343.083v5.446H27.183v4.12H24.613v-1.317h-5.5c-.03-.507-.053-.912-.081-1.383H15.141c-.074-.1-.116-.139-.121-.178-.131-1.071-.129-1.1-1.24-1.158-.936-.047-1.876-.01-2.852-.01V98.375a2.229,2.229,0,0,1,.526-.07c.559.059.767-.142.758-.731-.018-1.38.035-2.761.06-4.142,0-.179.018-.357.029-.57l1.326-.076V87.344l1.4-.073V81.805h1.359V77.646l1.232-.093V72.13l1.419-.073V66.592h1.373V62.454c1.36-.312,1.372-.311,1.4-1.849.019-1.217,0-2.434,0-3.7l1.342-.078V51.365h1.4V45.85l1.4-.069V41.674l1.212-.084v-5.5h1.378V34.748H27.191v1.36H25.938v1.323H24.555v1.383H23.172V40.2H21.788v1.383H20.406v1.383H19.022v1.383H17.639v1.375l-1.244.06v1.331H15.013V48.5H13.629v1.383H12.246v1.383H10.863v1.383H9.48v1.383H8.1v1.367h-1.2V54.076H5.511V52.693H4.128V51.31H2.746V49.926H1.362V48.543H0V47.225H1.312V45.843H2.695V44.46H4.078V43.077H5.46V41.694H6.843V40.313l1.268-.059V38.905H9.494V37.522h1.383V36.139h1.383V34.756h1.383V33.374h1.383V31.991h1.383V30.629l1.245-.059V29.225h1.382V27.843h1.383V26.46H21.8V25.077h1.383V23.694h1.383V22.311H25.95V20.927h2.592V19.5h-1.31V18.126l-1.246-.056V15.354H24.623V8.495l1.31-.067V5.733l1.311-.06c0-.714.024-1.4-.008-2.081-.023-.494.176-.65.649-.629.662.028,1.327.007,2.055.007V1.565h2.72c.032-.492.058-.895.088-1.346h6.719c.027.4.052.788.085,1.277H42.2c.025.507.045.911.069,1.4h2.7V5.654l1.257.075V8.4l1.341.072V15.31H46.261v2.752l-1.244.061V19.46H43.654v1.424h2.559v1.384H47.6v1.383H48.98v1.383h1.383v1.383h1.383V27.8H53.13v1.383h1.383v1.377l1.245.062v1.326h1.383v1.383h1.383v1.383h1.383V36.1H61.29v1.383h1.383v1.383h1.383v1.377l1.246.066V41.63H66.69v1.385h1.391V44.4h1.367c.027.483.049.905.075,1.367l1.318.066c.02.425.039.83.062,1.313l1.307.064v1.282H70.894v1.383H69.511v1.383H68.128v1.383H66.745v1.383H65.362V55.38h-1.2v-1.3H62.777V52.694H61.393V51.311H60.011V49.928H58.627V48.545H57.244V47.162H55.861V45.793l-1.245-.066V44.4H53.234V43.013H51.85V41.63H50.468V40.247H49.084V38.864H47.7V37.491H46.262V36.135h-1.2v1.343Z" transform="translate(259.73 958.169)" fill="#3a3d81"/>
    <path id="Trazado_5991" data-name="Trazado 5991" d="M46.275,37.478v4.111c.077.039.114.073.155.076,1.132.078,1.151.077,1.167,1.2.02,1.4,0,2.808,0,4.3h1.39v5.521l1.412.065v5.4l1.352.108V62.39h1.378v5.537h1.4v5.5l1.24.072v4.025c.113.062.15.1.19.1,1.124.085,1.148.084,1.169,1.216.026,1.4.006,2.805.006,4.292h1.4v5.512H59.93v5.467l1.375.114v4.123l1.329.061v1.261H58.616c-.027.5-.049.9-.077,1.414H53.268c-.043.5-.077.9-.117,1.37H49.113c-.062.106-.1.143-.1.182-.087,1.137-.086,1.142-1.263,1.184-.455.015-.911,0-1.429,0v-2.711l-1.251-.059V95.588l-1.4-.064c0-.958,0-1.873,0-2.789,0-.392.007-.784-.008-1.175-.017-.436.089-.981-.131-1.273-.194-.256-.765-.226-1.246-.34V85.9l-1.353-.06v-5.47h-1.42V74.883l-1.37-.1V70.675L36.8,70.612c-.02-.428-.04-.833-.061-1.29H35.426v4.493c0,1.025.085.973-.979.964-.091,0-.183.02-.347.038v4.109l-1.38.067V84.45l-1.391.061v5.445l-1.386.081v4.109l-1.343.083v5.446H27.183v4.12H24.613v-1.317h-5.5c-.03-.507-.053-.912-.081-1.383H15.141c-.074-.1-.116-.139-.121-.178-.131-1.071-.129-1.1-1.24-1.158-.936-.047-1.876-.01-2.852-.01V98.375a2.229,2.229,0,0,1,.526-.07c.559.059.767-.142.758-.731-.018-1.38.035-2.761.06-4.142,0-.179.018-.357.029-.57l1.326-.076V87.344l1.4-.073V81.805h1.359V77.646l1.232-.093V72.13l1.419-.073V66.592h1.373V62.454c1.36-.312,1.372-.311,1.4-1.849.019-1.217,0-2.434,0-3.7l1.342-.078V51.365h1.4V45.85l1.4-.069V41.674l1.212-.084v-5.5h1.378V34.748H27.191v1.36H25.938v1.323H24.555v1.383H23.172V40.2H21.788v1.383H20.406v1.383H19.022v1.383H17.639v1.375l-1.244.06v1.331H15.013V48.5H13.629v1.383H12.246v1.383H10.863v1.383H9.48v1.383H8.1v1.367h-1.2V54.076H5.511V52.693H4.128V51.31H2.746V49.926H1.362V48.543H0V47.225H1.312V45.843H2.695V44.46H4.078V43.077H5.46V41.694H6.843V40.313l1.268-.059V38.905H9.494V37.522h1.383V36.139h1.383V34.756h1.383V33.374h1.383V31.991h1.383V30.629l1.245-.059V29.225h1.382V27.843h1.383V26.46H21.8V25.077h1.383V23.694h1.383V22.311H25.95V20.927h2.592V19.5h-1.31V18.126l-1.246-.056V15.354H24.623V8.495l1.31-.067V5.733l1.311-.06c0-.714.024-1.4-.008-2.081-.023-.494.176-.65.649-.629.662.028,1.327.007,2.055.007V1.565h2.72c.032-.492.058-.895.088-1.346h6.719c.027.4.052.788.085,1.277H42.2c.025.507.045.911.069,1.4h2.7V5.654l1.257.075V8.4l1.341.072V15.31H46.261v2.752l-1.244.061V19.46H43.654v1.424h2.559v1.384H47.6v1.383H48.98v1.383h1.383v1.383h1.383V27.8H53.13v1.383h1.383v1.377l1.245.062v1.326h1.383v1.383h1.383v1.383h1.383V36.1H61.29v1.383h1.383v1.383h1.383v1.377l1.246.066V41.63H66.69v1.385h1.391V44.4h1.367c.027.483.049.905.075,1.367l1.318.066c.02.425.039.83.062,1.313l1.307.064v1.282H70.894v1.383H69.511v1.383H68.128v1.383H66.745v1.383H65.362V55.38h-1.2v-1.3H62.777V52.694H61.393V51.311H60.011V49.928H58.627V48.545H57.244V47.162H55.861V45.793l-1.245-.066V44.4H53.234V43.013H51.85V41.63H50.468V40.247H49.084V38.864H47.7V37.491H46.262V36.135h-1.2v1.343Z" transform="translate(493.73 958.169)" fill="#3a3d81"/>
    <path id="Trazado_5988" data-name="Trazado 5988" d="M46.275,37.478v4.111c.077.039.114.073.155.076,1.132.078,1.151.077,1.167,1.2.02,1.4,0,2.808,0,4.3h1.39v5.521l1.412.065v5.4l1.352.108V62.39h1.378v5.537h1.4v5.5l1.24.072v4.025c.113.062.15.1.19.1,1.124.085,1.148.084,1.169,1.216.026,1.4.006,2.805.006,4.292h1.4v5.512H59.93v5.467l1.375.114v4.123l1.329.061v1.261H58.616c-.027.5-.049.9-.077,1.414H53.268c-.043.5-.077.9-.117,1.37H49.113c-.062.106-.1.143-.1.182-.087,1.137-.086,1.142-1.263,1.184-.455.015-.911,0-1.429,0v-2.711l-1.251-.059V95.588l-1.4-.064c0-.958,0-1.873,0-2.789,0-.392.007-.784-.008-1.175-.017-.436.089-.981-.131-1.273-.194-.256-.765-.226-1.246-.34V85.9l-1.353-.06v-5.47h-1.42V74.883l-1.37-.1V70.675L36.8,70.612c-.02-.428-.04-.833-.061-1.29H35.426v4.493c0,1.025.085.973-.979.964-.091,0-.183.02-.347.038v4.109l-1.38.067V84.45l-1.391.061v5.445l-1.386.081v4.109l-1.343.083v5.446H27.183v4.12H24.613v-1.317h-5.5c-.03-.507-.053-.912-.081-1.383H15.141c-.074-.1-.116-.139-.121-.178-.131-1.071-.129-1.1-1.24-1.158-.936-.047-1.876-.01-2.852-.01V98.375a2.229,2.229,0,0,1,.526-.07c.559.059.767-.142.758-.731-.018-1.38.035-2.761.06-4.142,0-.179.018-.357.029-.57l1.326-.076V87.344l1.4-.073V81.805h1.359V77.646l1.232-.093V72.13l1.419-.073V66.592h1.373V62.454c1.36-.312,1.372-.311,1.4-1.849.019-1.217,0-2.434,0-3.7l1.342-.078V51.365h1.4V45.85l1.4-.069V41.674l1.212-.084v-5.5h1.378V34.748H27.191v1.36H25.938v1.323H24.555v1.383H23.172V40.2H21.788v1.383H20.406v1.383H19.022v1.383H17.639v1.375l-1.244.06v1.331H15.013V48.5H13.629v1.383H12.246v1.383H10.863v1.383H9.48v1.383H8.1v1.367h-1.2V54.076H5.511V52.693H4.128V51.31H2.746V49.926H1.362V48.543H0V47.225H1.312V45.843H2.695V44.46H4.078V43.077H5.46V41.694H6.843V40.313l1.268-.059V38.905H9.494V37.522h1.383V36.139h1.383V34.756h1.383V33.374h1.383V31.991h1.383V30.629l1.245-.059V29.225h1.382V27.843h1.383V26.46H21.8V25.077h1.383V23.694h1.383V22.311H25.95V20.927h2.592V19.5h-1.31V18.126l-1.246-.056V15.354H24.623V8.495l1.31-.067V5.733l1.311-.06c0-.714.024-1.4-.008-2.081-.023-.494.176-.65.649-.629.662.028,1.327.007,2.055.007V1.565h2.72c.032-.492.058-.895.088-1.346h6.719c.027.4.052.788.085,1.277H42.2c.025.507.045.911.069,1.4h2.7V5.654l1.257.075V8.4l1.341.072V15.31H46.261v2.752l-1.244.061V19.46H43.654v1.424h2.559v1.384H47.6v1.383H48.98v1.383h1.383v1.383h1.383V27.8H53.13v1.383h1.383v1.377l1.245.062v1.326h1.383v1.383h1.383v1.383h1.383V36.1H61.29v1.383h1.383v1.383h1.383v1.377l1.246.066V41.63H66.69v1.385h1.391V44.4h1.367c.027.483.049.905.075,1.367l1.318.066c.02.425.039.83.062,1.313l1.307.064v1.282H70.894v1.383H69.511v1.383H68.128v1.383H66.745v1.383H65.362V55.38h-1.2v-1.3H62.777V52.694H61.393V51.311H60.011V49.928H58.627V48.545H57.244V47.162H55.861V45.793l-1.245-.066V44.4H53.234V43.013H51.85V41.63H50.468V40.247H49.084V38.864H47.7V37.491H46.262V36.135h-1.2v1.343Z" transform="translate(376.73 958.169)" fill="#3a3d81"/>
    <path id="Trazado_1446" data-name="Trazado 1446" d="M172.656,37.879V40.6h1.328V44.58l1.33.106v2.678h1.345v2.71h1.377v4l1.352.109v2.666l1.212.064v2.658h1.356V63.59l1.342.073v2.685h1.374v2.713h1.377v4.016l1.3.078v1.3H183.4c-.033.481-.061.876-.092,1.319h-1.284v5.446l1.3.065c0,.868-.009,1.7,0,2.526.009.7.081,1.4.052,2.093-.024.567.171.79.731.721a2.9,2.9,0,0,1,.536.043v4.057h1.368v5.421h1.338v1.3l-1.283.056v1.311h-5.4c-.027.491-.049.887-.076,1.379h-5.172c-.037.485-.067.879-.1,1.307H171.34V98.86L170.1,98.8V93.467l-1.338-.075V89.363L167.43,89.3V83.954h-1.369V79.93h-2.684c-.032.442-.06.817-.091,1.238h-3.864V79.9h-1.4V82.54h-1.361v5.422h-1.372v4c-.107.069-.141.109-.18.113-1.045.118-1.09.116-1.128,1.213-.047,1.369-.012,2.741-.012,4.152l-1.363.068v4.025H148.79c-.045,0-.09-.009-.135-.012-1.22-.056-1.22-.056-1.337-1.339h-4.043c-.03-.442-.056-.817-.089-1.3h-5.174c-.026-.494-.047-.89-.072-1.355l-1.252-.066v-2.63h1.3V89.448l1.335-.067V85.351l1.337-.081V79.947l1.36-.07V75.816h-2.654V74.462h-2.684c0-1.266-.011-2.474.019-3.68,0-.109.261-.27.422-.3a4.766,4.766,0,0,1,.866-.014V67.751l1.346-.059v-2.65l1.354-.059V62.329l1.34-.071V58.272l1.23-.063V55.544h1.354v-2.71h1.372V50.113l1.3-.077V46.085l1.394-.072V43.367l1.354-.066V40.658l1.373-.072v-4.01h1.158V35.2h-1.2v1.32h-1.358v1.33h-1.354v1.355H147.3v1.354h-1.354v1.354h-1.355V43.27h-1.354V44.6l-1.218.058v1.315h-1.354v1.354h-1.354v1.354h-1.354v1.355H136.6v1.354h-1.354v1.354h-1.354v1.333H132.74V52.775h-1.378V51.42h-1.355V50.066h-1.354V48.712H127.3V47.357h-1.329V44.711h1.309V43.373l1.345-.06c.02-.436.038-.834.059-1.292h1.3V40.663h1.355c.023-.471.043-.884.066-1.341l1.294-.066c.021-.412.041-.808.065-1.28l1.092-.069c.044-.078.081-.115.084-.154.084-1.132.082-1.187,1.639-1.245.727-.027,1.1-.145,1-.962-.058-.5.388-.383.68-.4.335-.017.747.06.668-.481-.11-.748.241-.96.913-.868a2.2,2.2,0,0,0,.415-.035c.027-.39.055-.784.088-1.255l1.283-.09c.03-.428.058-.823.089-1.263l1.281-.079c.023-.411.045-.807.07-1.272l1.156-.076c.025-.434.049-.831.075-1.278l1.287-.067c.019-.408.038-.8.061-1.285l1.3-.063c.02-.426.038-.823.059-1.292l1.3-.061c.022-.436.041-.833.064-1.291h1.3V23.032h1.362V21.675h1.36V20.3h2.546V18.928h-1.272V17.573l-1.243-.06V14.841H150.1V6.775h1.287V4.08l1.218-.064v-1.3h1.354v-1.4H156.6L156.7,0h9.276c.035.423.067.815.106,1.287h2.591V2.665h1.355V4.009l1.22.061V6.728h1.324V14.8l-1.289.062V17.5l-1.218.068v1.289l-1.332.062v1.368h2.533c.029.448.052.824.081,1.272l1.287.1c.027.409.052.785.078,1.191a.875.875,0,0,0,.309.089c.729-.084,1.179.095,1.051.964-.016.108.209.341.349.366a5.8,5.8,0,0,0,1.4.116c.664-.049.917.2.828.846a2.437,2.437,0,0,0,.033.456c.4.036.919-.066,1.154.146s.177.737.265,1.221l1.243.062c.019.419.038.816.059,1.286l1.169.055c.019.43.038.828.059,1.309h1.294c.022.479.041.877.064,1.357h1.294c.022.479.04.877.062,1.356h1.295l.062,1.355H186c.021.478.039.877.06,1.332h1.3v1.354h1.357v1.347l1.219.066v1.317h1.378v1.355h1.354v1.354h1.354V43.32h1.354v1.355h1.331v2.648h-1.294v1.355h-1.355v1.355H192.7v1.355h-1.355v1.355h-1.355v1.324h-1.179V52.781h-1.353V51.426H186.1V50.072H184.75V48.717h-1.355V47.364h-1.354V46.01h-1.354V44.671l-1.218-.064V43.3h-1.354V41.947H176.76V40.594h-1.354V39.24h-1.354V37.893h-1.41V36.545h-1.317v1.334Z" transform="translate(75.024 958.388)" fill="#3a3d81"/>
    <path id="Trazado_5992" data-name="Trazado 5992" d="M172.656,37.879V40.6h1.328V44.58l1.33.106v2.678h1.345v2.71h1.377v4l1.352.109v2.666l1.212.064v2.658h1.356V63.59l1.342.073v2.685h1.374v2.713h1.377v4.016l1.3.078v1.3H183.4c-.033.481-.061.876-.092,1.319h-1.284v5.446l1.3.065c0,.868-.009,1.7,0,2.526.009.7.081,1.4.052,2.093-.024.567.171.79.731.721a2.9,2.9,0,0,1,.536.043v4.057h1.368v5.421h1.338v1.3l-1.283.056v1.311h-5.4c-.027.491-.049.887-.076,1.379h-5.172c-.037.485-.067.879-.1,1.307H171.34V98.86L170.1,98.8V93.467l-1.338-.075V89.363L167.43,89.3V83.954h-1.369V79.93h-2.684c-.032.442-.06.817-.091,1.238h-3.864V79.9h-1.4V82.54h-1.361v5.422h-1.372v4c-.107.069-.141.109-.18.113-1.045.118-1.09.116-1.128,1.213-.047,1.369-.012,2.741-.012,4.152l-1.363.068v4.025H148.79c-.045,0-.09-.009-.135-.012-1.22-.056-1.22-.056-1.337-1.339h-4.043c-.03-.442-.056-.817-.089-1.3h-5.174c-.026-.494-.047-.89-.072-1.355l-1.252-.066v-2.63h1.3V89.448l1.335-.067V85.351l1.337-.081V79.947l1.36-.07V75.816h-2.654V74.462h-2.684c0-1.266-.011-2.474.019-3.68,0-.109.261-.27.422-.3a4.766,4.766,0,0,1,.866-.014V67.751l1.346-.059v-2.65l1.354-.059V62.329l1.34-.071V58.272l1.23-.063V55.544h1.354v-2.71h1.372V50.113l1.3-.077V46.085l1.394-.072V43.367l1.354-.066V40.658l1.373-.072v-4.01h1.158V35.2h-1.2v1.32h-1.358v1.33h-1.354v1.355H147.3v1.354h-1.354v1.354h-1.355V43.27h-1.354V44.6l-1.218.058v1.315h-1.354v1.354h-1.354v1.354h-1.354v1.355H136.6v1.354h-1.354v1.354h-1.354v1.333H132.74V52.775h-1.378V51.42h-1.355V50.066h-1.354V48.712H127.3V47.357h-1.329V44.711h1.309V43.373l1.345-.06c.02-.436.038-.834.059-1.292h1.3V40.663h1.355c.023-.471.043-.884.066-1.341l1.294-.066c.021-.412.041-.808.065-1.28l1.092-.069c.044-.078.081-.115.084-.154.084-1.132.082-1.187,1.639-1.245.727-.027,1.1-.145,1-.962-.058-.5.388-.383.68-.4.335-.017.747.06.668-.481-.11-.748.241-.96.913-.868a2.2,2.2,0,0,0,.415-.035c.027-.39.055-.784.088-1.255l1.283-.09c.03-.428.058-.823.089-1.263l1.281-.079c.023-.411.045-.807.07-1.272l1.156-.076c.025-.434.049-.831.075-1.278l1.287-.067c.019-.408.038-.8.061-1.285l1.3-.063c.02-.426.038-.823.059-1.292l1.3-.061c.022-.436.041-.833.064-1.291h1.3V23.032h1.362V21.675h1.36V20.3h2.546V18.928h-1.272V17.573l-1.243-.06V14.841H150.1V6.775h1.287V4.08l1.218-.064v-1.3h1.354v-1.4H156.6L156.7,0h9.276c.035.423.067.815.106,1.287h2.591V2.665h1.355V4.009l1.22.061V6.728h1.324V14.8l-1.289.062V17.5l-1.218.068v1.289l-1.332.062v1.368h2.533c.029.448.052.824.081,1.272l1.287.1c.027.409.052.785.078,1.191a.875.875,0,0,0,.309.089c.729-.084,1.179.095,1.051.964-.016.108.209.341.349.366a5.8,5.8,0,0,0,1.4.116c.664-.049.917.2.828.846a2.437,2.437,0,0,0,.033.456c.4.036.919-.066,1.154.146s.177.737.265,1.221l1.243.062c.019.419.038.816.059,1.286l1.169.055c.019.43.038.828.059,1.309h1.294c.022.479.041.877.064,1.357h1.294c.022.479.04.877.062,1.356h1.295l.062,1.355H186c.021.478.039.877.06,1.332h1.3v1.354h1.357v1.347l1.219.066v1.317h1.378v1.355h1.354v1.354h1.354V43.32h1.354v1.355h1.331v2.648h-1.294v1.355h-1.355v1.355H192.7v1.355h-1.355v1.355h-1.355v1.324h-1.179V52.781h-1.353V51.426H186.1V50.072H184.75V48.717h-1.355V47.364h-1.354V46.01h-1.354V44.671l-1.218-.064V43.3h-1.354V41.947H176.76V40.594h-1.354V39.24h-1.354V37.893h-1.41V36.545h-1.317v1.334Z" transform="translate(309.024 958.388)" fill="#3a3d81"/>
    <path id="Trazado_5989" data-name="Trazado 5989" d="M172.656,37.879V40.6h1.328V44.58l1.33.106v2.678h1.345v2.71h1.377v4l1.352.109v2.666l1.212.064v2.658h1.356V63.59l1.342.073v2.685h1.374v2.713h1.377v4.016l1.3.078v1.3H183.4c-.033.481-.061.876-.092,1.319h-1.284v5.446l1.3.065c0,.868-.009,1.7,0,2.526.009.7.081,1.4.052,2.093-.024.567.171.79.731.721a2.9,2.9,0,0,1,.536.043v4.057h1.368v5.421h1.338v1.3l-1.283.056v1.311h-5.4c-.027.491-.049.887-.076,1.379h-5.172c-.037.485-.067.879-.1,1.307H171.34V98.86L170.1,98.8V93.467l-1.338-.075V89.363L167.43,89.3V83.954h-1.369V79.93h-2.684c-.032.442-.06.817-.091,1.238h-3.864V79.9h-1.4V82.54h-1.361v5.422h-1.372v4c-.107.069-.141.109-.18.113-1.045.118-1.09.116-1.128,1.213-.047,1.369-.012,2.741-.012,4.152l-1.363.068v4.025H148.79c-.045,0-.09-.009-.135-.012-1.22-.056-1.22-.056-1.337-1.339h-4.043c-.03-.442-.056-.817-.089-1.3h-5.174c-.026-.494-.047-.89-.072-1.355l-1.252-.066v-2.63h1.3V89.448l1.335-.067V85.351l1.337-.081V79.947l1.36-.07V75.816h-2.654V74.462h-2.684c0-1.266-.011-2.474.019-3.68,0-.109.261-.27.422-.3a4.766,4.766,0,0,1,.866-.014V67.751l1.346-.059v-2.65l1.354-.059V62.329l1.34-.071V58.272l1.23-.063V55.544h1.354v-2.71h1.372V50.113l1.3-.077V46.085l1.394-.072V43.367l1.354-.066V40.658l1.373-.072v-4.01h1.158V35.2h-1.2v1.32h-1.358v1.33h-1.354v1.355H147.3v1.354h-1.354v1.354h-1.355V43.27h-1.354V44.6l-1.218.058v1.315h-1.354v1.354h-1.354v1.354h-1.354v1.355H136.6v1.354h-1.354v1.354h-1.354v1.333H132.74V52.775h-1.378V51.42h-1.355V50.066h-1.354V48.712H127.3V47.357h-1.329V44.711h1.309V43.373l1.345-.06c.02-.436.038-.834.059-1.292h1.3V40.663h1.355c.023-.471.043-.884.066-1.341l1.294-.066c.021-.412.041-.808.065-1.28l1.092-.069c.044-.078.081-.115.084-.154.084-1.132.082-1.187,1.639-1.245.727-.027,1.1-.145,1-.962-.058-.5.388-.383.68-.4.335-.017.747.06.668-.481-.11-.748.241-.96.913-.868a2.2,2.2,0,0,0,.415-.035c.027-.39.055-.784.088-1.255l1.283-.09c.03-.428.058-.823.089-1.263l1.281-.079c.023-.411.045-.807.07-1.272l1.156-.076c.025-.434.049-.831.075-1.278l1.287-.067c.019-.408.038-.8.061-1.285l1.3-.063c.02-.426.038-.823.059-1.292l1.3-.061c.022-.436.041-.833.064-1.291h1.3V23.032h1.362V21.675h1.36V20.3h2.546V18.928h-1.272V17.573l-1.243-.06V14.841H150.1V6.775h1.287V4.08l1.218-.064v-1.3h1.354v-1.4H156.6L156.7,0h9.276c.035.423.067.815.106,1.287h2.591V2.665h1.355V4.009l1.22.061V6.728h1.324V14.8l-1.289.062V17.5l-1.218.068v1.289l-1.332.062v1.368h2.533c.029.448.052.824.081,1.272l1.287.1c.027.409.052.785.078,1.191a.875.875,0,0,0,.309.089c.729-.084,1.179.095,1.051.964-.016.108.209.341.349.366a5.8,5.8,0,0,0,1.4.116c.664-.049.917.2.828.846a2.437,2.437,0,0,0,.033.456c.4.036.919-.066,1.154.146s.177.737.265,1.221l1.243.062c.019.419.038.816.059,1.286l1.169.055c.019.43.038.828.059,1.309h1.294c.022.479.041.877.064,1.357h1.294c.022.479.04.877.062,1.356h1.295l.062,1.355H186c.021.478.039.877.06,1.332h1.3v1.354h1.357v1.347l1.219.066v1.317h1.378v1.355h1.354v1.354h1.354V43.32h1.354v1.355h1.331v2.648h-1.294v1.355h-1.355v1.355H192.7v1.355h-1.355v1.355h-1.355v1.324h-1.179V52.781h-1.353V51.426H186.1V50.072H184.75V48.717h-1.355V47.364h-1.354V46.01h-1.354V44.671l-1.218-.064V43.3h-1.354V41.947H176.76V40.594h-1.354V39.24h-1.354V37.893h-1.41V36.545h-1.317v1.334Z" transform="translate(192.024 958.388)" fill="#3a3d81"/>
  </g>
</svg>
