<svg xmlns="http://www.w3.org/2000/svg" xmlns:xlink="http://www.w3.org/1999/xlink" width="803.588" height="119.119" viewBox="0 0 803.588 119.119">
  <defs>
    <clipPath id="clip-path">
      <rect id="Rect치ngulo_1679" data-name="Rect치ngulo 1679" width="83.017" height="119.119" fill="#3a3c6a"/>
    </clipPath>
    <clipPath id="clip-path-4">
      <rect id="Rect치ngulo_1679-4" data-name="Rect치ngulo 1679" width="83.017" height="119.119" fill="#d27028"/>
    </clipPath>
  </defs>
  <g id="Grupo_798" data-name="Grupo 798" transform="translate(-446.207 -3034.183)">
    <g id="Grupo_602" data-name="Grupo 602" transform="translate(446.207 3034.183)" opacity="0.3">
      <g id="Grupo_601" data-name="Grupo 601" clip-path="url(#clip-path)">
        <path id="Trazado_1444" data-name="Trazado 1444" d="M53.2,42.835v4.726c.088.045.132.084.178.087,1.3.09,1.324.088,1.342,1.383.023,1.613,0,3.228,0,4.94h1.6v6.347l1.623.075v6.213l1.555.124v4.745h1.584v6.366H62.7v6.326l1.426.083v4.628c.13.071.173.113.218.117,1.292.1,1.32.1,1.344,1.4.03,1.612.007,3.225.007,4.935h1.612v6.337H68.9v6.285l1.58.131v4.74l1.528.07v1.45H67.389c-.031.573-.057,1.037-.089,1.625H61.24c-.049.578-.088,1.038-.134,1.575H56.464c-.072.122-.117.164-.12.209-.1,1.307-.1,1.313-1.452,1.361-.523.018-1.047,0-1.642,0V116l-1.438-.068v-6.287l-1.605-.073c0-1.1,0-2.154,0-3.206,0-.451.009-.9-.009-1.351-.02-.5.1-1.128-.151-1.463-.223-.294-.879-.26-1.432-.391V98.5l-1.556-.069V92.142H45.424v-6.3l-1.575-.112V81l-1.542-.073c-.023-.492-.046-.958-.07-1.483H40.728V84.61c0,1.179.1,1.118-1.126,1.108-.1,0-.21.023-.4.044v4.723l-1.587.077v6.275l-1.6.07v6.26l-1.594.093v4.724l-1.544.1v6.261H31.251v4.737H28.3v-1.514H21.97c-.034-.583-.061-1.048-.093-1.59h-4.47c-.085-.12-.134-.159-.139-.2-.151-1.231-.149-1.267-1.425-1.332-1.076-.054-2.157-.011-3.279-.011v-1.579a2.56,2.56,0,0,1,.605-.08c.643.068.881-.163.872-.84-.021-1.587.04-3.174.069-4.762,0-.206.021-.41.033-.656l1.525-.087v-6.257l1.614-.084V93.8h1.563V89.015l1.416-.107V82.674l1.632-.084V76.307H23.47V71.549c1.563-.358,1.578-.358,1.606-2.125.022-1.4,0-2.8,0-4.256l1.543-.09V58.8h1.614v-6.34l1.613-.079V47.659l1.393-.1v-6.32h1.584V39.7H31.26V41.26H29.82v1.521H28.23v1.59H26.64v1.59h-1.59v1.59H23.46v1.59h-1.59v1.59h-1.59v1.58l-1.43.069v1.531H17.26V55.5h-1.59v1.59h-1.59v1.59h-1.59v1.59H10.9v1.59H9.309v1.571H7.925V61.917H6.336v-1.59H4.746v-1.59H3.157v-1.59H1.566v-1.59H0V54.041H1.508V52.452H3.1v-1.59h1.59v-1.59h1.59v-1.59h1.59V46.094l1.457-.068v-1.55h1.59v-1.59H12.5V41.3h1.59v-1.59h1.59v-1.59h1.59v-1.59h1.59V34.962l1.431-.068V33.348h1.589v-1.59h1.59v-1.59h1.59v-1.59h1.59v-1.59h1.59V25.4h1.59V23.807h2.98V22.171H31.308V20.587l-1.432-.065V17.4H28.308V9.515l1.506-.078v-3.1l1.507-.069c0-.821.027-1.608-.009-2.393-.026-.568.2-.747.746-.723.761.033,1.526.009,2.362.009V1.547h3.127c.037-.565.067-1.028.1-1.547h7.725c.031.464.06.905.1,1.468h3.048c.028.583.051,1.048.079,1.606h3.108V6.248l1.445.086V9.41l1.541.083V17.35H53.185v3.164l-1.43.07v1.537H50.188v1.637h2.942v1.591H54.72v1.59h1.59v1.59H57.9v1.59h1.59v1.59h1.59V33.3h1.59v1.583l1.431.072v1.524h1.59v1.59h1.59v1.59h1.59v1.59h1.59v1.59h1.59v1.59h1.59v1.583l1.432.076v1.521h1.6V49.2h1.6v1.595h1.572c.031.555.057,1.041.086,1.572l1.515.075c.023.489.045.955.071,1.51l1.5.074V55.5H81.5v1.59h-1.59v1.59h-1.59v1.59h-1.59v1.59h-1.59v1.558H73.76v-1.5H72.172v-1.59h-1.59v-1.59h-1.59v-1.59H67.4v-1.59h-1.59v-1.59h-1.59V52.4L62.79,52.32V50.789H61.2V49.2H59.61v-1.59h-1.59v-1.59H56.43v-1.59h-1.59V42.85H53.186V41.292H51.8v1.543Z" fill="#3a3c6a"/>
      </g>
    </g>
    <g id="Grupo_610" data-name="Grupo 610" transform="translate(708.463 3034.183)" opacity="0.3">
      <g id="Grupo_601-2" data-name="Grupo 601" clip-path="url(#clip-path)">
        <path id="Trazado_1444-2" data-name="Trazado 1444" d="M53.2,42.835v4.726c.088.045.132.084.178.087,1.3.09,1.324.088,1.342,1.383.023,1.613,0,3.228,0,4.94h1.6v6.347l1.623.075v6.213l1.555.124v4.745h1.584v6.366H62.7v6.326l1.426.083v4.628c.13.071.173.113.218.117,1.292.1,1.32.1,1.344,1.4.03,1.612.007,3.225.007,4.935h1.612v6.337H68.9v6.285l1.58.131v4.74l1.528.07v1.45H67.389c-.031.573-.057,1.037-.089,1.625H61.24c-.049.578-.088,1.038-.134,1.575H56.464c-.072.122-.117.164-.12.209-.1,1.307-.1,1.313-1.452,1.361-.523.018-1.047,0-1.642,0V116l-1.438-.068v-6.287l-1.605-.073c0-1.1,0-2.154,0-3.206,0-.451.009-.9-.009-1.351-.02-.5.1-1.128-.151-1.463-.223-.294-.879-.26-1.432-.391V98.5l-1.556-.069V92.142H45.424v-6.3l-1.575-.112V81l-1.542-.073c-.023-.492-.046-.958-.07-1.483H40.728V84.61c0,1.179.1,1.118-1.126,1.108-.1,0-.21.023-.4.044v4.723l-1.587.077v6.275l-1.6.07v6.26l-1.594.093v4.724l-1.544.1v6.261H31.251v4.737H28.3v-1.514H21.97c-.034-.583-.061-1.048-.093-1.59h-4.47c-.085-.12-.134-.159-.139-.2-.151-1.231-.149-1.267-1.425-1.332-1.076-.054-2.157-.011-3.279-.011v-1.579a2.56,2.56,0,0,1,.605-.08c.643.068.881-.163.872-.84-.021-1.587.04-3.174.069-4.762,0-.206.021-.41.033-.656l1.525-.087v-6.257l1.614-.084V93.8h1.563V89.015l1.416-.107V82.674l1.632-.084V76.307H23.47V71.549c1.563-.358,1.578-.358,1.606-2.125.022-1.4,0-2.8,0-4.256l1.543-.09V58.8h1.614v-6.34l1.613-.079V47.659l1.393-.1v-6.32h1.584V39.7H31.26V41.26H29.82v1.521H28.23v1.59H26.64v1.59h-1.59v1.59H23.46v1.59h-1.59v1.59h-1.59v1.58l-1.43.069v1.531H17.26V55.5h-1.59v1.59h-1.59v1.59h-1.59v1.59H10.9v1.59H9.309v1.571H7.925V61.917H6.336v-1.59H4.746v-1.59H3.157v-1.59H1.566v-1.59H0V54.041H1.508V52.452H3.1v-1.59h1.59v-1.59h1.59v-1.59h1.59V46.094l1.457-.068v-1.55h1.59v-1.59H12.5V41.3h1.59v-1.59h1.59v-1.59h1.59v-1.59h1.59V34.962l1.431-.068V33.348h1.589v-1.59h1.59v-1.59h1.59v-1.59h1.59v-1.59h1.59V25.4h1.59V23.807h2.98V22.171H31.308V20.587l-1.432-.065V17.4H28.308V9.515l1.506-.078v-3.1l1.507-.069c0-.821.027-1.608-.009-2.393-.026-.568.2-.747.746-.723.761.033,1.526.009,2.362.009V1.547h3.127c.037-.565.067-1.028.1-1.547h7.725c.031.464.06.905.1,1.468h3.048c.028.583.051,1.048.079,1.606h3.108V6.248l1.445.086V9.41l1.541.083V17.35H53.185v3.164l-1.43.07v1.537H50.188v1.637h2.942v1.591H54.72v1.59h1.59v1.59H57.9v1.59h1.59v1.59h1.59V33.3h1.59v1.583l1.431.072v1.524h1.59v1.59h1.59v1.59h1.59v1.59h1.59v1.59h1.59v1.59h1.59v1.583l1.432.076v1.521h1.6V49.2h1.6v1.595h1.572c.031.555.057,1.041.086,1.572l1.515.075c.023.489.045.955.071,1.51l1.5.074V55.5H81.5v1.59h-1.59v1.59h-1.59v1.59h-1.59v1.59h-1.59v1.558H73.76v-1.5H72.172v-1.59h-1.59v-1.59h-1.59v-1.59H67.4v-1.59h-1.59v-1.59h-1.59V52.4L62.79,52.32V50.789H61.2V49.2H59.61v-1.59h-1.59v-1.59H56.43v-1.59h-1.59V42.85H53.186V41.292H51.8v1.543Z" fill="#3a3c6a"/>
      </g>
    </g>
    <g id="Grupo_614" data-name="Grupo 614" transform="translate(970.407 3034.183)" opacity="0.3">
      <g id="Grupo_601-3" data-name="Grupo 601" clip-path="url(#clip-path)">
        <path id="Trazado_1444-3" data-name="Trazado 1444" d="M53.2,42.835v4.726c.088.045.132.084.178.087,1.3.09,1.324.088,1.342,1.383.023,1.613,0,3.228,0,4.94h1.6v6.347l1.623.075v6.213l1.555.124v4.745h1.584v6.366H62.7v6.326l1.426.083v4.628c.13.071.173.113.218.117,1.292.1,1.32.1,1.344,1.4.03,1.612.007,3.225.007,4.935h1.612v6.337H68.9v6.285l1.58.131v4.74l1.528.07v1.45H67.389c-.031.573-.057,1.037-.089,1.625H61.24c-.049.578-.088,1.038-.134,1.575H56.464c-.072.122-.117.164-.12.209-.1,1.307-.1,1.313-1.452,1.361-.523.018-1.047,0-1.642,0V116l-1.438-.068v-6.287l-1.605-.073c0-1.1,0-2.154,0-3.206,0-.451.009-.9-.009-1.351-.02-.5.1-1.128-.151-1.463-.223-.294-.879-.26-1.432-.391V98.5l-1.556-.069V92.142H45.424v-6.3l-1.575-.112V81l-1.542-.073c-.023-.492-.046-.958-.07-1.483H40.728V84.61c0,1.179.1,1.118-1.126,1.108-.1,0-.21.023-.4.044v4.723l-1.587.077v6.275l-1.6.07v6.26l-1.594.093v4.724l-1.544.1v6.261H31.251v4.737H28.3v-1.514H21.97c-.034-.583-.061-1.048-.093-1.59h-4.47c-.085-.12-.134-.159-.139-.2-.151-1.231-.149-1.267-1.425-1.332-1.076-.054-2.157-.011-3.279-.011v-1.579a2.56,2.56,0,0,1,.605-.08c.643.068.881-.163.872-.84-.021-1.587.04-3.174.069-4.762,0-.206.021-.41.033-.656l1.525-.087v-6.257l1.614-.084V93.8h1.563V89.015l1.416-.107V82.674l1.632-.084V76.307H23.47V71.549c1.563-.358,1.578-.358,1.606-2.125.022-1.4,0-2.8,0-4.256l1.543-.09V58.8h1.614v-6.34l1.613-.079V47.659l1.393-.1v-6.32h1.584V39.7H31.26V41.26H29.82v1.521H28.23v1.59H26.64v1.59h-1.59v1.59H23.46v1.59h-1.59v1.59h-1.59v1.58l-1.43.069v1.531H17.26V55.5h-1.59v1.59h-1.59v1.59h-1.59v1.59H10.9v1.59H9.309v1.571H7.925V61.917H6.336v-1.59H4.746v-1.59H3.157v-1.59H1.566v-1.59H0V54.041H1.508V52.452H3.1v-1.59h1.59v-1.59h1.59v-1.59h1.59V46.094l1.457-.068v-1.55h1.59v-1.59H12.5V41.3h1.59v-1.59h1.59v-1.59h1.59v-1.59h1.59V34.962l1.431-.068V33.348h1.589v-1.59h1.59v-1.59h1.59v-1.59h1.59v-1.59h1.59V25.4h1.59V23.807h2.98V22.171H31.308V20.587l-1.432-.065V17.4H28.308V9.515l1.506-.078v-3.1l1.507-.069c0-.821.027-1.608-.009-2.393-.026-.568.2-.747.746-.723.761.033,1.526.009,2.362.009V1.547h3.127c.037-.565.067-1.028.1-1.547h7.725c.031.464.06.905.1,1.468h3.048c.028.583.051,1.048.079,1.606h3.108V6.248l1.445.086V9.41l1.541.083V17.35H53.185v3.164l-1.43.07v1.537H50.188v1.637h2.942v1.591H54.72v1.59h1.59v1.59H57.9v1.59h1.59v1.59h1.59V33.3h1.59v1.583l1.431.072v1.524h1.59v1.59h1.59v1.59h1.59v1.59h1.59v1.59h1.59v1.59h1.59v1.583l1.432.076v1.521h1.6V49.2h1.6v1.595h1.572c.031.555.057,1.041.086,1.572l1.515.075c.023.489.045.955.071,1.51l1.5.074V55.5H81.5v1.59h-1.59v1.59h-1.59v1.59h-1.59v1.59h-1.59v1.558H73.76v-1.5H72.172v-1.59h-1.59v-1.59h-1.59v-1.59H67.4v-1.59h-1.59v-1.59h-1.59V52.4L62.79,52.32V50.789H61.2V49.2H59.61v-1.59h-1.59v-1.59H56.43v-1.59h-1.59V42.85H53.186V41.292H51.8v1.543Z" fill="#3a3c6a"/>
      </g>
    </g>
    <g id="Grupo_603" data-name="Grupo 603" transform="translate(511.713 3034.183)" opacity="0.3">
      <g id="Grupo_601-4" data-name="Grupo 601" clip-path="url(#clip-path-4)">
        <path id="Trazado_1444-4" data-name="Trazado 1444" d="M53.2,42.835v4.726c.088.045.132.084.178.087,1.3.09,1.324.088,1.342,1.383.023,1.613,0,3.228,0,4.94h1.6v6.347l1.623.075v6.213l1.555.124v4.745h1.584v6.366H62.7v6.326l1.426.083v4.628c.13.071.173.113.218.117,1.292.1,1.32.1,1.344,1.4.03,1.612.007,3.225.007,4.935h1.612v6.337H68.9v6.285l1.58.131v4.74l1.528.07v1.45H67.389c-.031.573-.057,1.037-.089,1.625H61.24c-.049.578-.088,1.038-.134,1.575H56.464c-.072.122-.117.164-.12.209-.1,1.307-.1,1.313-1.452,1.361-.523.018-1.047,0-1.642,0V116l-1.438-.068v-6.287l-1.605-.073c0-1.1,0-2.154,0-3.206,0-.451.009-.9-.009-1.351-.02-.5.1-1.128-.151-1.463-.223-.294-.879-.26-1.432-.391V98.5l-1.556-.069V92.142H45.424v-6.3l-1.575-.112V81l-1.542-.073c-.023-.492-.046-.958-.07-1.483H40.728V84.61c0,1.179.1,1.118-1.126,1.108-.1,0-.21.023-.4.044v4.723l-1.587.077v6.275l-1.6.07v6.26l-1.594.093v4.724l-1.544.1v6.261H31.251v4.737H28.3v-1.514H21.97c-.034-.583-.061-1.048-.093-1.59h-4.47c-.085-.12-.134-.159-.139-.2-.151-1.231-.149-1.267-1.425-1.332-1.076-.054-2.157-.011-3.279-.011v-1.579a2.56,2.56,0,0,1,.605-.08c.643.068.881-.163.872-.84-.021-1.587.04-3.174.069-4.762,0-.206.021-.41.033-.656l1.525-.087v-6.257l1.614-.084V93.8h1.563V89.015l1.416-.107V82.674l1.632-.084V76.307H23.47V71.549c1.563-.358,1.578-.358,1.606-2.125.022-1.4,0-2.8,0-4.256l1.543-.09V58.8h1.614v-6.34l1.613-.079V47.659l1.393-.1v-6.32h1.584V39.7H31.26V41.26H29.82v1.521H28.23v1.59H26.64v1.59h-1.59v1.59H23.46v1.59h-1.59v1.59h-1.59v1.58l-1.43.069v1.531H17.26V55.5h-1.59v1.59h-1.59v1.59h-1.59v1.59H10.9v1.59H9.309v1.571H7.925V61.917H6.336v-1.59H4.746v-1.59H3.157v-1.59H1.566v-1.59H0V54.041H1.508V52.452H3.1v-1.59h1.59v-1.59h1.59v-1.59h1.59V46.094l1.457-.068v-1.55h1.59v-1.59H12.5V41.3h1.59v-1.59h1.59v-1.59h1.59v-1.59h1.59V34.962l1.431-.068V33.348h1.589v-1.59h1.59v-1.59h1.59v-1.59h1.59v-1.59h1.59V25.4h1.59V23.807h2.98V22.171H31.308V20.587l-1.432-.065V17.4H28.308V9.515l1.506-.078v-3.1l1.507-.069c0-.821.027-1.608-.009-2.393-.026-.568.2-.747.746-.723.761.033,1.526.009,2.362.009V1.547h3.127c.037-.565.067-1.028.1-1.547h7.725c.031.464.06.905.1,1.468h3.048c.028.583.051,1.048.079,1.606h3.108V6.248l1.445.086V9.41l1.541.083V17.35H53.185v3.164l-1.43.07v1.537H50.188v1.637h2.942v1.591H54.72v1.59h1.59v1.59H57.9v1.59h1.59v1.59h1.59V33.3h1.59v1.583l1.431.072v1.524h1.59v1.59h1.59v1.59h1.59v1.59h1.59v1.59h1.59v1.59h1.59v1.583l1.432.076v1.521h1.6V49.2h1.6v1.595h1.572c.031.555.057,1.041.086,1.572l1.515.075c.023.489.045.955.071,1.51l1.5.074V55.5H81.5v1.59h-1.59v1.59h-1.59v1.59h-1.59v1.59h-1.59v1.558H73.76v-1.5H72.172v-1.59h-1.59v-1.59h-1.59v-1.59H67.4v-1.59h-1.59v-1.59h-1.59V52.4L62.79,52.32V50.789H61.2V49.2H59.61v-1.59h-1.59v-1.59H56.43v-1.59h-1.59V42.85H53.186V41.292H51.8v1.543Z" fill="#d27028"/>
      </g>
    </g>
    <g id="Grupo_608" data-name="Grupo 608" transform="translate(773.969 3034.183)" opacity="0.3">
      <g id="Grupo_601-5" data-name="Grupo 601" clip-path="url(#clip-path-4)">
        <path id="Trazado_1444-5" data-name="Trazado 1444" d="M53.2,42.835v4.726c.088.045.132.084.178.087,1.3.09,1.324.088,1.342,1.383.023,1.613,0,3.228,0,4.94h1.6v6.347l1.623.075v6.213l1.555.124v4.745h1.584v6.366H62.7v6.326l1.426.083v4.628c.13.071.173.113.218.117,1.292.1,1.32.1,1.344,1.4.03,1.612.007,3.225.007,4.935h1.612v6.337H68.9v6.285l1.58.131v4.74l1.528.07v1.45H67.389c-.031.573-.057,1.037-.089,1.625H61.24c-.049.578-.088,1.038-.134,1.575H56.464c-.072.122-.117.164-.12.209-.1,1.307-.1,1.313-1.452,1.361-.523.018-1.047,0-1.642,0V116l-1.438-.068v-6.287l-1.605-.073c0-1.1,0-2.154,0-3.206,0-.451.009-.9-.009-1.351-.02-.5.1-1.128-.151-1.463-.223-.294-.879-.26-1.432-.391V98.5l-1.556-.069V92.142H45.424v-6.3l-1.575-.112V81l-1.542-.073c-.023-.492-.046-.958-.07-1.483H40.728V84.61c0,1.179.1,1.118-1.126,1.108-.1,0-.21.023-.4.044v4.723l-1.587.077v6.275l-1.6.07v6.26l-1.594.093v4.724l-1.544.1v6.261H31.251v4.737H28.3v-1.514H21.97c-.034-.583-.061-1.048-.093-1.59h-4.47c-.085-.12-.134-.159-.139-.2-.151-1.231-.149-1.267-1.425-1.332-1.076-.054-2.157-.011-3.279-.011v-1.579a2.56,2.56,0,0,1,.605-.08c.643.068.881-.163.872-.84-.021-1.587.04-3.174.069-4.762,0-.206.021-.41.033-.656l1.525-.087v-6.257l1.614-.084V93.8h1.563V89.015l1.416-.107V82.674l1.632-.084V76.307H23.47V71.549c1.563-.358,1.578-.358,1.606-2.125.022-1.4,0-2.8,0-4.256l1.543-.09V58.8h1.614v-6.34l1.613-.079V47.659l1.393-.1v-6.32h1.584V39.7H31.26V41.26H29.82v1.521H28.23v1.59H26.64v1.59h-1.59v1.59H23.46v1.59h-1.59v1.59h-1.59v1.58l-1.43.069v1.531H17.26V55.5h-1.59v1.59h-1.59v1.59h-1.59v1.59H10.9v1.59H9.309v1.571H7.925V61.917H6.336v-1.59H4.746v-1.59H3.157v-1.59H1.566v-1.59H0V54.041H1.508V52.452H3.1v-1.59h1.59v-1.59h1.59v-1.59h1.59V46.094l1.457-.068v-1.55h1.59v-1.59H12.5V41.3h1.59v-1.59h1.59v-1.59h1.59v-1.59h1.59V34.962l1.431-.068V33.348h1.589v-1.59h1.59v-1.59h1.59v-1.59h1.59v-1.59h1.59V25.4h1.59V23.807h2.98V22.171H31.308V20.587l-1.432-.065V17.4H28.308V9.515l1.506-.078v-3.1l1.507-.069c0-.821.027-1.608-.009-2.393-.026-.568.2-.747.746-.723.761.033,1.526.009,2.362.009V1.547h3.127c.037-.565.067-1.028.1-1.547h7.725c.031.464.06.905.1,1.468h3.048c.028.583.051,1.048.079,1.606h3.108V6.248l1.445.086V9.41l1.541.083V17.35H53.185v3.164l-1.43.07v1.537H50.188v1.637h2.942v1.591H54.72v1.59h1.59v1.59H57.9v1.59h1.59v1.59h1.59V33.3h1.59v1.583l1.431.072v1.524h1.59v1.59h1.59v1.59h1.59v1.59h1.59v1.59h1.59v1.59h1.59v1.583l1.432.076v1.521h1.6V49.2h1.6v1.595h1.572c.031.555.057,1.041.086,1.572l1.515.075c.023.489.045.955.071,1.51l1.5.074V55.5H81.5v1.59h-1.59v1.59h-1.59v1.59h-1.59v1.59h-1.59v1.558H73.76v-1.5H72.172v-1.59h-1.59v-1.59h-1.59v-1.59H67.4v-1.59h-1.59v-1.59h-1.59V52.4L62.79,52.32V50.789H61.2V49.2H59.61v-1.59h-1.59v-1.59H56.43v-1.59h-1.59V42.85H53.186V41.292H51.8v1.543Z" fill="#d27028"/>
      </g>
    </g>
    <g id="Grupo_613" data-name="Grupo 613" transform="translate(1035.913 3034.183)" opacity="0.3">
      <g id="Grupo_601-6" data-name="Grupo 601" clip-path="url(#clip-path-4)">
        <path id="Trazado_1444-6" data-name="Trazado 1444" d="M53.2,42.835v4.726c.088.045.132.084.178.087,1.3.09,1.324.088,1.342,1.383.023,1.613,0,3.228,0,4.94h1.6v6.347l1.623.075v6.213l1.555.124v4.745h1.584v6.366H62.7v6.326l1.426.083v4.628c.13.071.173.113.218.117,1.292.1,1.32.1,1.344,1.4.03,1.612.007,3.225.007,4.935h1.612v6.337H68.9v6.285l1.58.131v4.74l1.528.07v1.45H67.389c-.031.573-.057,1.037-.089,1.625H61.24c-.049.578-.088,1.038-.134,1.575H56.464c-.072.122-.117.164-.12.209-.1,1.307-.1,1.313-1.452,1.361-.523.018-1.047,0-1.642,0V116l-1.438-.068v-6.287l-1.605-.073c0-1.1,0-2.154,0-3.206,0-.451.009-.9-.009-1.351-.02-.5.1-1.128-.151-1.463-.223-.294-.879-.26-1.432-.391V98.5l-1.556-.069V92.142H45.424v-6.3l-1.575-.112V81l-1.542-.073c-.023-.492-.046-.958-.07-1.483H40.728V84.61c0,1.179.1,1.118-1.126,1.108-.1,0-.21.023-.4.044v4.723l-1.587.077v6.275l-1.6.07v6.26l-1.594.093v4.724l-1.544.1v6.261H31.251v4.737H28.3v-1.514H21.97c-.034-.583-.061-1.048-.093-1.59h-4.47c-.085-.12-.134-.159-.139-.2-.151-1.231-.149-1.267-1.425-1.332-1.076-.054-2.157-.011-3.279-.011v-1.579a2.56,2.56,0,0,1,.605-.08c.643.068.881-.163.872-.84-.021-1.587.04-3.174.069-4.762,0-.206.021-.41.033-.656l1.525-.087v-6.257l1.614-.084V93.8h1.563V89.015l1.416-.107V82.674l1.632-.084V76.307H23.47V71.549c1.563-.358,1.578-.358,1.606-2.125.022-1.4,0-2.8,0-4.256l1.543-.09V58.8h1.614v-6.34l1.613-.079V47.659l1.393-.1v-6.32h1.584V39.7H31.26V41.26H29.82v1.521H28.23v1.59H26.64v1.59h-1.59v1.59H23.46v1.59h-1.59v1.59h-1.59v1.58l-1.43.069v1.531H17.26V55.5h-1.59v1.59h-1.59v1.59h-1.59v1.59H10.9v1.59H9.309v1.571H7.925V61.917H6.336v-1.59H4.746v-1.59H3.157v-1.59H1.566v-1.59H0V54.041H1.508V52.452H3.1v-1.59h1.59v-1.59h1.59v-1.59h1.59V46.094l1.457-.068v-1.55h1.59v-1.59H12.5V41.3h1.59v-1.59h1.59v-1.59h1.59v-1.59h1.59V34.962l1.431-.068V33.348h1.589v-1.59h1.59v-1.59h1.59v-1.59h1.59v-1.59h1.59V25.4h1.59V23.807h2.98V22.171H31.308V20.587l-1.432-.065V17.4H28.308V9.515l1.506-.078v-3.1l1.507-.069c0-.821.027-1.608-.009-2.393-.026-.568.2-.747.746-.723.761.033,1.526.009,2.362.009V1.547h3.127c.037-.565.067-1.028.1-1.547h7.725c.031.464.06.905.1,1.468h3.048c.028.583.051,1.048.079,1.606h3.108V6.248l1.445.086V9.41l1.541.083V17.35H53.185v3.164l-1.43.07v1.537H50.188v1.637h2.942v1.591H54.72v1.59h1.59v1.59H57.9v1.59h1.59v1.59h1.59V33.3h1.59v1.583l1.431.072v1.524h1.59v1.59h1.59v1.59h1.59v1.59h1.59v1.59h1.59v1.59h1.59v1.583l1.432.076v1.521h1.6V49.2h1.6v1.595h1.572c.031.555.057,1.041.086,1.572l1.515.075c.023.489.045.955.071,1.51l1.5.074V55.5H81.5v1.59h-1.59v1.59h-1.59v1.59h-1.59v1.59h-1.59v1.558H73.76v-1.5H72.172v-1.59h-1.59v-1.59h-1.59v-1.59H67.4v-1.59h-1.59v-1.59h-1.59V52.4L62.79,52.32V50.789H61.2V49.2H59.61v-1.59h-1.59v-1.59H56.43v-1.59h-1.59V42.85H53.186V41.292H51.8v1.543Z" fill="#d27028"/>
      </g>
    </g>
    <g id="Grupo_604" data-name="Grupo 604" transform="translate(577.055 3034.183)" opacity="0.3">
      <g id="Grupo_601-7" data-name="Grupo 601" clip-path="url(#clip-path)">
        <path id="Trazado_1444-7" data-name="Trazado 1444" d="M53.2,42.835v4.726c.088.045.132.084.178.087,1.3.09,1.324.088,1.342,1.383.023,1.613,0,3.228,0,4.94h1.6v6.347l1.623.075v6.213l1.555.124v4.745h1.584v6.366H62.7v6.326l1.426.083v4.628c.13.071.173.113.218.117,1.292.1,1.32.1,1.344,1.4.03,1.612.007,3.225.007,4.935h1.612v6.337H68.9v6.285l1.58.131v4.74l1.528.07v1.45H67.389c-.031.573-.057,1.037-.089,1.625H61.24c-.049.578-.088,1.038-.134,1.575H56.464c-.072.122-.117.164-.12.209-.1,1.307-.1,1.313-1.452,1.361-.523.018-1.047,0-1.642,0V116l-1.438-.068v-6.287l-1.605-.073c0-1.1,0-2.154,0-3.206,0-.451.009-.9-.009-1.351-.02-.5.1-1.128-.151-1.463-.223-.294-.879-.26-1.432-.391V98.5l-1.556-.069V92.142H45.424v-6.3l-1.575-.112V81l-1.542-.073c-.023-.492-.046-.958-.07-1.483H40.728V84.61c0,1.179.1,1.118-1.126,1.108-.1,0-.21.023-.4.044v4.723l-1.587.077v6.275l-1.6.07v6.26l-1.594.093v4.724l-1.544.1v6.261H31.251v4.737H28.3v-1.514H21.97c-.034-.583-.061-1.048-.093-1.59h-4.47c-.085-.12-.134-.159-.139-.2-.151-1.231-.149-1.267-1.425-1.332-1.076-.054-2.157-.011-3.279-.011v-1.579a2.56,2.56,0,0,1,.605-.08c.643.068.881-.163.872-.84-.021-1.587.04-3.174.069-4.762,0-.206.021-.41.033-.656l1.525-.087v-6.257l1.614-.084V93.8h1.563V89.015l1.416-.107V82.674l1.632-.084V76.307H23.47V71.549c1.563-.358,1.578-.358,1.606-2.125.022-1.4,0-2.8,0-4.256l1.543-.09V58.8h1.614v-6.34l1.613-.079V47.659l1.393-.1v-6.32h1.584V39.7H31.26V41.26H29.82v1.521H28.23v1.59H26.64v1.59h-1.59v1.59H23.46v1.59h-1.59v1.59h-1.59v1.58l-1.43.069v1.531H17.26V55.5h-1.59v1.59h-1.59v1.59h-1.59v1.59H10.9v1.59H9.309v1.571H7.925V61.917H6.336v-1.59H4.746v-1.59H3.157v-1.59H1.566v-1.59H0V54.041H1.508V52.452H3.1v-1.59h1.59v-1.59h1.59v-1.59h1.59V46.094l1.457-.068v-1.55h1.59v-1.59H12.5V41.3h1.59v-1.59h1.59v-1.59h1.59v-1.59h1.59V34.962l1.431-.068V33.348h1.589v-1.59h1.59v-1.59h1.59v-1.59h1.59v-1.59h1.59V25.4h1.59V23.807h2.98V22.171H31.308V20.587l-1.432-.065V17.4H28.308V9.515l1.506-.078v-3.1l1.507-.069c0-.821.027-1.608-.009-2.393-.026-.568.2-.747.746-.723.761.033,1.526.009,2.362.009V1.547h3.127c.037-.565.067-1.028.1-1.547h7.725c.031.464.06.905.1,1.468h3.048c.028.583.051,1.048.079,1.606h3.108V6.248l1.445.086V9.41l1.541.083V17.35H53.185v3.164l-1.43.07v1.537H50.188v1.637h2.942v1.591H54.72v1.59h1.59v1.59H57.9v1.59h1.59v1.59h1.59V33.3h1.59v1.583l1.431.072v1.524h1.59v1.59h1.59v1.59h1.59v1.59h1.59v1.59h1.59v1.59h1.59v1.583l1.432.076v1.521h1.6V49.2h1.6v1.595h1.572c.031.555.057,1.041.086,1.572l1.515.075c.023.489.045.955.071,1.51l1.5.074V55.5H81.5v1.59h-1.59v1.59h-1.59v1.59h-1.59v1.59h-1.59v1.558H73.76v-1.5H72.172v-1.59h-1.59v-1.59h-1.59v-1.59H67.4v-1.59h-1.59v-1.59h-1.59V52.4L62.79,52.32V50.789H61.2V49.2H59.61v-1.59h-1.59v-1.59H56.43v-1.59h-1.59V42.85H53.186V41.292H51.8v1.543Z" fill="#3a3c6a"/>
      </g>
    </g>
    <g id="Grupo_609" data-name="Grupo 609" transform="translate(839.311 3034.183)" opacity="0.3">
      <g id="Grupo_601-8" data-name="Grupo 601" clip-path="url(#clip-path)">
        <path id="Trazado_1444-8" data-name="Trazado 1444" d="M53.2,42.835v4.726c.088.045.132.084.178.087,1.3.09,1.324.088,1.342,1.383.023,1.613,0,3.228,0,4.94h1.6v6.347l1.623.075v6.213l1.555.124v4.745h1.584v6.366H62.7v6.326l1.426.083v4.628c.13.071.173.113.218.117,1.292.1,1.32.1,1.344,1.4.03,1.612.007,3.225.007,4.935h1.612v6.337H68.9v6.285l1.58.131v4.74l1.528.07v1.45H67.389c-.031.573-.057,1.037-.089,1.625H61.24c-.049.578-.088,1.038-.134,1.575H56.464c-.072.122-.117.164-.12.209-.1,1.307-.1,1.313-1.452,1.361-.523.018-1.047,0-1.642,0V116l-1.438-.068v-6.287l-1.605-.073c0-1.1,0-2.154,0-3.206,0-.451.009-.9-.009-1.351-.02-.5.1-1.128-.151-1.463-.223-.294-.879-.26-1.432-.391V98.5l-1.556-.069V92.142H45.424v-6.3l-1.575-.112V81l-1.542-.073c-.023-.492-.046-.958-.07-1.483H40.728V84.61c0,1.179.1,1.118-1.126,1.108-.1,0-.21.023-.4.044v4.723l-1.587.077v6.275l-1.6.07v6.26l-1.594.093v4.724l-1.544.1v6.261H31.251v4.737H28.3v-1.514H21.97c-.034-.583-.061-1.048-.093-1.59h-4.47c-.085-.12-.134-.159-.139-.2-.151-1.231-.149-1.267-1.425-1.332-1.076-.054-2.157-.011-3.279-.011v-1.579a2.56,2.56,0,0,1,.605-.08c.643.068.881-.163.872-.84-.021-1.587.04-3.174.069-4.762,0-.206.021-.41.033-.656l1.525-.087v-6.257l1.614-.084V93.8h1.563V89.015l1.416-.107V82.674l1.632-.084V76.307H23.47V71.549c1.563-.358,1.578-.358,1.606-2.125.022-1.4,0-2.8,0-4.256l1.543-.09V58.8h1.614v-6.34l1.613-.079V47.659l1.393-.1v-6.32h1.584V39.7H31.26V41.26H29.82v1.521H28.23v1.59H26.64v1.59h-1.59v1.59H23.46v1.59h-1.59v1.59h-1.59v1.58l-1.43.069v1.531H17.26V55.5h-1.59v1.59h-1.59v1.59h-1.59v1.59H10.9v1.59H9.309v1.571H7.925V61.917H6.336v-1.59H4.746v-1.59H3.157v-1.59H1.566v-1.59H0V54.041H1.508V52.452H3.1v-1.59h1.59v-1.59h1.59v-1.59h1.59V46.094l1.457-.068v-1.55h1.59v-1.59H12.5V41.3h1.59v-1.59h1.59v-1.59h1.59v-1.59h1.59V34.962l1.431-.068V33.348h1.589v-1.59h1.59v-1.59h1.59v-1.59h1.59v-1.59h1.59V25.4h1.59V23.807h2.98V22.171H31.308V20.587l-1.432-.065V17.4H28.308V9.515l1.506-.078v-3.1l1.507-.069c0-.821.027-1.608-.009-2.393-.026-.568.2-.747.746-.723.761.033,1.526.009,2.362.009V1.547h3.127c.037-.565.067-1.028.1-1.547h7.725c.031.464.06.905.1,1.468h3.048c.028.583.051,1.048.079,1.606h3.108V6.248l1.445.086V9.41l1.541.083V17.35H53.185v3.164l-1.43.07v1.537H50.188v1.637h2.942v1.591H54.72v1.59h1.59v1.59H57.9v1.59h1.59v1.59h1.59V33.3h1.59v1.583l1.431.072v1.524h1.59v1.59h1.59v1.59h1.59v1.59h1.59v1.59h1.59v1.59h1.59v1.583l1.432.076v1.521h1.6V49.2h1.6v1.595h1.572c.031.555.057,1.041.086,1.572l1.515.075c.023.489.045.955.071,1.51l1.5.074V55.5H81.5v1.59h-1.59v1.59h-1.59v1.59h-1.59v1.59h-1.59v1.558H73.76v-1.5H72.172v-1.59h-1.59v-1.59h-1.59v-1.59H67.4v-1.59h-1.59v-1.59h-1.59V52.4L62.79,52.32V50.789H61.2V49.2H59.61v-1.59h-1.59v-1.59H56.43v-1.59h-1.59V42.85H53.186V41.292H51.8v1.543Z" fill="#3a3c6a"/>
      </g>
    </g>
    <g id="Grupo_612" data-name="Grupo 612" transform="translate(1101.255 3034.183)" opacity="0.3">
      <g id="Grupo_601-9" data-name="Grupo 601" clip-path="url(#clip-path)">
        <path id="Trazado_1444-9" data-name="Trazado 1444" d="M53.2,42.835v4.726c.088.045.132.084.178.087,1.3.09,1.324.088,1.342,1.383.023,1.613,0,3.228,0,4.94h1.6v6.347l1.623.075v6.213l1.555.124v4.745h1.584v6.366H62.7v6.326l1.426.083v4.628c.13.071.173.113.218.117,1.292.1,1.32.1,1.344,1.4.03,1.612.007,3.225.007,4.935h1.612v6.337H68.9v6.285l1.58.131v4.74l1.528.07v1.45H67.389c-.031.573-.057,1.037-.089,1.625H61.24c-.049.578-.088,1.038-.134,1.575H56.464c-.072.122-.117.164-.12.209-.1,1.307-.1,1.313-1.452,1.361-.523.018-1.047,0-1.642,0V116l-1.438-.068v-6.287l-1.605-.073c0-1.1,0-2.154,0-3.206,0-.451.009-.9-.009-1.351-.02-.5.1-1.128-.151-1.463-.223-.294-.879-.26-1.432-.391V98.5l-1.556-.069V92.142H45.424v-6.3l-1.575-.112V81l-1.542-.073c-.023-.492-.046-.958-.07-1.483H40.728V84.61c0,1.179.1,1.118-1.126,1.108-.1,0-.21.023-.4.044v4.723l-1.587.077v6.275l-1.6.07v6.26l-1.594.093v4.724l-1.544.1v6.261H31.251v4.737H28.3v-1.514H21.97c-.034-.583-.061-1.048-.093-1.59h-4.47c-.085-.12-.134-.159-.139-.2-.151-1.231-.149-1.267-1.425-1.332-1.076-.054-2.157-.011-3.279-.011v-1.579a2.56,2.56,0,0,1,.605-.08c.643.068.881-.163.872-.84-.021-1.587.04-3.174.069-4.762,0-.206.021-.41.033-.656l1.525-.087v-6.257l1.614-.084V93.8h1.563V89.015l1.416-.107V82.674l1.632-.084V76.307H23.47V71.549c1.563-.358,1.578-.358,1.606-2.125.022-1.4,0-2.8,0-4.256l1.543-.09V58.8h1.614v-6.34l1.613-.079V47.659l1.393-.1v-6.32h1.584V39.7H31.26V41.26H29.82v1.521H28.23v1.59H26.64v1.59h-1.59v1.59H23.46v1.59h-1.59v1.59h-1.59v1.58l-1.43.069v1.531H17.26V55.5h-1.59v1.59h-1.59v1.59h-1.59v1.59H10.9v1.59H9.309v1.571H7.925V61.917H6.336v-1.59H4.746v-1.59H3.157v-1.59H1.566v-1.59H0V54.041H1.508V52.452H3.1v-1.59h1.59v-1.59h1.59v-1.59h1.59V46.094l1.457-.068v-1.55h1.59v-1.59H12.5V41.3h1.59v-1.59h1.59v-1.59h1.59v-1.59h1.59V34.962l1.431-.068V33.348h1.589v-1.59h1.59v-1.59h1.59v-1.59h1.59v-1.59h1.59V25.4h1.59V23.807h2.98V22.171H31.308V20.587l-1.432-.065V17.4H28.308V9.515l1.506-.078v-3.1l1.507-.069c0-.821.027-1.608-.009-2.393-.026-.568.2-.747.746-.723.761.033,1.526.009,2.362.009V1.547h3.127c.037-.565.067-1.028.1-1.547h7.725c.031.464.06.905.1,1.468h3.048c.028.583.051,1.048.079,1.606h3.108V6.248l1.445.086V9.41l1.541.083V17.35H53.185v3.164l-1.43.07v1.537H50.188v1.637h2.942v1.591H54.72v1.59h1.59v1.59H57.9v1.59h1.59v1.59h1.59V33.3h1.59v1.583l1.431.072v1.524h1.59v1.59h1.59v1.59h1.59v1.59h1.59v1.59h1.59v1.59h1.59v1.583l1.432.076v1.521h1.6V49.2h1.6v1.595h1.572c.031.555.057,1.041.086,1.572l1.515.075c.023.489.045.955.071,1.51l1.5.074V55.5H81.5v1.59h-1.59v1.59h-1.59v1.59h-1.59v1.59h-1.59v1.558H73.76v-1.5H72.172v-1.59h-1.59v-1.59h-1.59v-1.59H67.4v-1.59h-1.59v-1.59h-1.59V52.4L62.79,52.32V50.789H61.2V49.2H59.61v-1.59h-1.59v-1.59H56.43v-1.59h-1.59V42.85H53.186V41.292H51.8v1.543Z" fill="#3a3c6a"/>
      </g>
    </g>
    <g id="Grupo_606" data-name="Grupo 606" transform="translate(642.577 3034.183)" opacity="0.3">
      <g id="Grupo_601-10" data-name="Grupo 601" clip-path="url(#clip-path-4)">
        <path id="Trazado_1444-10" data-name="Trazado 1444" d="M53.2,42.835v4.726c.088.045.132.084.178.087,1.3.09,1.324.088,1.342,1.383.023,1.613,0,3.228,0,4.94h1.6v6.347l1.623.075v6.213l1.555.124v4.745h1.584v6.366H62.7v6.326l1.426.083v4.628c.13.071.173.113.218.117,1.292.1,1.32.1,1.344,1.4.03,1.612.007,3.225.007,4.935h1.612v6.337H68.9v6.285l1.58.131v4.74l1.528.07v1.45H67.389c-.031.573-.057,1.037-.089,1.625H61.24c-.049.578-.088,1.038-.134,1.575H56.464c-.072.122-.117.164-.12.209-.1,1.307-.1,1.313-1.452,1.361-.523.018-1.047,0-1.642,0V116l-1.438-.068v-6.287l-1.605-.073c0-1.1,0-2.154,0-3.206,0-.451.009-.9-.009-1.351-.02-.5.1-1.128-.151-1.463-.223-.294-.879-.26-1.432-.391V98.5l-1.556-.069V92.142H45.424v-6.3l-1.575-.112V81l-1.542-.073c-.023-.492-.046-.958-.07-1.483H40.728V84.61c0,1.179.1,1.118-1.126,1.108-.1,0-.21.023-.4.044v4.723l-1.587.077v6.275l-1.6.07v6.26l-1.594.093v4.724l-1.544.1v6.261H31.251v4.737H28.3v-1.514H21.97c-.034-.583-.061-1.048-.093-1.59h-4.47c-.085-.12-.134-.159-.139-.2-.151-1.231-.149-1.267-1.425-1.332-1.076-.054-2.157-.011-3.279-.011v-1.579a2.56,2.56,0,0,1,.605-.08c.643.068.881-.163.872-.84-.021-1.587.04-3.174.069-4.762,0-.206.021-.41.033-.656l1.525-.087v-6.257l1.614-.084V93.8h1.563V89.015l1.416-.107V82.674l1.632-.084V76.307H23.47V71.549c1.563-.358,1.578-.358,1.606-2.125.022-1.4,0-2.8,0-4.256l1.543-.09V58.8h1.614v-6.34l1.613-.079V47.659l1.393-.1v-6.32h1.584V39.7H31.26V41.26H29.82v1.521H28.23v1.59H26.64v1.59h-1.59v1.59H23.46v1.59h-1.59v1.59h-1.59v1.58l-1.43.069v1.531H17.26V55.5h-1.59v1.59h-1.59v1.59h-1.59v1.59H10.9v1.59H9.309v1.571H7.925V61.917H6.336v-1.59H4.746v-1.59H3.157v-1.59H1.566v-1.59H0V54.041H1.508V52.452H3.1v-1.59h1.59v-1.59h1.59v-1.59h1.59V46.094l1.457-.068v-1.55h1.59v-1.59H12.5V41.3h1.59v-1.59h1.59v-1.59h1.59v-1.59h1.59V34.962l1.431-.068V33.348h1.589v-1.59h1.59v-1.59h1.59v-1.59h1.59v-1.59h1.59V25.4h1.59V23.807h2.98V22.171H31.308V20.587l-1.432-.065V17.4H28.308V9.515l1.506-.078v-3.1l1.507-.069c0-.821.027-1.608-.009-2.393-.026-.568.2-.747.746-.723.761.033,1.526.009,2.362.009V1.547h3.127c.037-.565.067-1.028.1-1.547h7.725c.031.464.06.905.1,1.468h3.048c.028.583.051,1.048.079,1.606h3.108V6.248l1.445.086V9.41l1.541.083V17.35H53.185v3.164l-1.43.07v1.537H50.188v1.637h2.942v1.591H54.72v1.59h1.59v1.59H57.9v1.59h1.59v1.59h1.59V33.3h1.59v1.583l1.431.072v1.524h1.59v1.59h1.59v1.59h1.59v1.59h1.59v1.59h1.59v1.59h1.59v1.583l1.432.076v1.521h1.6V49.2h1.6v1.595h1.572c.031.555.057,1.041.086,1.572l1.515.075c.023.489.045.955.071,1.51l1.5.074V55.5H81.5v1.59h-1.59v1.59h-1.59v1.59h-1.59v1.59h-1.59v1.558H73.76v-1.5H72.172v-1.59h-1.59v-1.59h-1.59v-1.59H67.4v-1.59h-1.59v-1.59h-1.59V52.4L62.79,52.32V50.789H61.2V49.2H59.61v-1.59h-1.59v-1.59H56.43v-1.59h-1.59V42.85H53.186V41.292H51.8v1.543Z" fill="#d27028"/>
      </g>
    </g>
    <g id="Grupo_607" data-name="Grupo 607" transform="translate(904.833 3034.183)" opacity="0.3">
      <g id="Grupo_601-11" data-name="Grupo 601" clip-path="url(#clip-path-4)">
        <path id="Trazado_1444-11" data-name="Trazado 1444" d="M53.2,42.835v4.726c.088.045.132.084.178.087,1.3.09,1.324.088,1.342,1.383.023,1.613,0,3.228,0,4.94h1.6v6.347l1.623.075v6.213l1.555.124v4.745h1.584v6.366H62.7v6.326l1.426.083v4.628c.13.071.173.113.218.117,1.292.1,1.32.1,1.344,1.4.03,1.612.007,3.225.007,4.935h1.612v6.337H68.9v6.285l1.58.131v4.74l1.528.07v1.45H67.389c-.031.573-.057,1.037-.089,1.625H61.24c-.049.578-.088,1.038-.134,1.575H56.464c-.072.122-.117.164-.12.209-.1,1.307-.1,1.313-1.452,1.361-.523.018-1.047,0-1.642,0V116l-1.438-.068v-6.287l-1.605-.073c0-1.1,0-2.154,0-3.206,0-.451.009-.9-.009-1.351-.02-.5.1-1.128-.151-1.463-.223-.294-.879-.26-1.432-.391V98.5l-1.556-.069V92.142H45.424v-6.3l-1.575-.112V81l-1.542-.073c-.023-.492-.046-.958-.07-1.483H40.728V84.61c0,1.179.1,1.118-1.126,1.108-.1,0-.21.023-.4.044v4.723l-1.587.077v6.275l-1.6.07v6.26l-1.594.093v4.724l-1.544.1v6.261H31.251v4.737H28.3v-1.514H21.97c-.034-.583-.061-1.048-.093-1.59h-4.47c-.085-.12-.134-.159-.139-.2-.151-1.231-.149-1.267-1.425-1.332-1.076-.054-2.157-.011-3.279-.011v-1.579a2.56,2.56,0,0,1,.605-.08c.643.068.881-.163.872-.84-.021-1.587.04-3.174.069-4.762,0-.206.021-.41.033-.656l1.525-.087v-6.257l1.614-.084V93.8h1.563V89.015l1.416-.107V82.674l1.632-.084V76.307H23.47V71.549c1.563-.358,1.578-.358,1.606-2.125.022-1.4,0-2.8,0-4.256l1.543-.09V58.8h1.614v-6.34l1.613-.079V47.659l1.393-.1v-6.32h1.584V39.7H31.26V41.26H29.82v1.521H28.23v1.59H26.64v1.59h-1.59v1.59H23.46v1.59h-1.59v1.59h-1.59v1.58l-1.43.069v1.531H17.26V55.5h-1.59v1.59h-1.59v1.59h-1.59v1.59H10.9v1.59H9.309v1.571H7.925V61.917H6.336v-1.59H4.746v-1.59H3.157v-1.59H1.566v-1.59H0V54.041H1.508V52.452H3.1v-1.59h1.59v-1.59h1.59v-1.59h1.59V46.094l1.457-.068v-1.55h1.59v-1.59H12.5V41.3h1.59v-1.59h1.59v-1.59h1.59v-1.59h1.59V34.962l1.431-.068V33.348h1.589v-1.59h1.59v-1.59h1.59v-1.59h1.59v-1.59h1.59V25.4h1.59V23.807h2.98V22.171H31.308V20.587l-1.432-.065V17.4H28.308V9.515l1.506-.078v-3.1l1.507-.069c0-.821.027-1.608-.009-2.393-.026-.568.2-.747.746-.723.761.033,1.526.009,2.362.009V1.547h3.127c.037-.565.067-1.028.1-1.547h7.725c.031.464.06.905.1,1.468h3.048c.028.583.051,1.048.079,1.606h3.108V6.248l1.445.086V9.41l1.541.083V17.35H53.185v3.164l-1.43.07v1.537H50.188v1.637h2.942v1.591H54.72v1.59h1.59v1.59H57.9v1.59h1.59v1.59h1.59V33.3h1.59v1.583l1.431.072v1.524h1.59v1.59h1.59v1.59h1.59v1.59h1.59v1.59h1.59v1.59h1.59v1.583l1.432.076v1.521h1.6V49.2h1.6v1.595h1.572c.031.555.057,1.041.086,1.572l1.515.075c.023.489.045.955.071,1.51l1.5.074V55.5H81.5v1.59h-1.59v1.59h-1.59v1.59h-1.59v1.59h-1.59v1.558H73.76v-1.5H72.172v-1.59h-1.59v-1.59h-1.59v-1.59H67.4v-1.59h-1.59v-1.59h-1.59V52.4L62.79,52.32V50.789H61.2V49.2H59.61v-1.59h-1.59v-1.59H56.43v-1.59h-1.59V42.85H53.186V41.292H51.8v1.543Z" fill="#d27028"/>
      </g>
    </g>
    <g id="Grupo_611" data-name="Grupo 611" transform="translate(1166.777 3034.183)" opacity="0.3">
      <g id="Grupo_601-12" data-name="Grupo 601" clip-path="url(#clip-path-4)">
        <path id="Trazado_1444-12" data-name="Trazado 1444" d="M53.2,42.835v4.726c.088.045.132.084.178.087,1.3.09,1.324.088,1.342,1.383.023,1.613,0,3.228,0,4.94h1.6v6.347l1.623.075v6.213l1.555.124v4.745h1.584v6.366H62.7v6.326l1.426.083v4.628c.13.071.173.113.218.117,1.292.1,1.32.1,1.344,1.4.03,1.612.007,3.225.007,4.935h1.612v6.337H68.9v6.285l1.58.131v4.74l1.528.07v1.45H67.389c-.031.573-.057,1.037-.089,1.625H61.24c-.049.578-.088,1.038-.134,1.575H56.464c-.072.122-.117.164-.12.209-.1,1.307-.1,1.313-1.452,1.361-.523.018-1.047,0-1.642,0V116l-1.438-.068v-6.287l-1.605-.073c0-1.1,0-2.154,0-3.206,0-.451.009-.9-.009-1.351-.02-.5.1-1.128-.151-1.463-.223-.294-.879-.26-1.432-.391V98.5l-1.556-.069V92.142H45.424v-6.3l-1.575-.112V81l-1.542-.073c-.023-.492-.046-.958-.07-1.483H40.728V84.61c0,1.179.1,1.118-1.126,1.108-.1,0-.21.023-.4.044v4.723l-1.587.077v6.275l-1.6.07v6.26l-1.594.093v4.724l-1.544.1v6.261H31.251v4.737H28.3v-1.514H21.97c-.034-.583-.061-1.048-.093-1.59h-4.47c-.085-.12-.134-.159-.139-.2-.151-1.231-.149-1.267-1.425-1.332-1.076-.054-2.157-.011-3.279-.011v-1.579a2.56,2.56,0,0,1,.605-.08c.643.068.881-.163.872-.84-.021-1.587.04-3.174.069-4.762,0-.206.021-.41.033-.656l1.525-.087v-6.257l1.614-.084V93.8h1.563V89.015l1.416-.107V82.674l1.632-.084V76.307H23.47V71.549c1.563-.358,1.578-.358,1.606-2.125.022-1.4,0-2.8,0-4.256l1.543-.09V58.8h1.614v-6.34l1.613-.079V47.659l1.393-.1v-6.32h1.584V39.7H31.26V41.26H29.82v1.521H28.23v1.59H26.64v1.59h-1.59v1.59H23.46v1.59h-1.59v1.59h-1.59v1.58l-1.43.069v1.531H17.26V55.5h-1.59v1.59h-1.59v1.59h-1.59v1.59H10.9v1.59H9.309v1.571H7.925V61.917H6.336v-1.59H4.746v-1.59H3.157v-1.59H1.566v-1.59H0V54.041H1.508V52.452H3.1v-1.59h1.59v-1.59h1.59v-1.59h1.59V46.094l1.457-.068v-1.55h1.59v-1.59H12.5V41.3h1.59v-1.59h1.59v-1.59h1.59v-1.59h1.59V34.962l1.431-.068V33.348h1.589v-1.59h1.59v-1.59h1.59v-1.59h1.59v-1.59h1.59V25.4h1.59V23.807h2.98V22.171H31.308V20.587l-1.432-.065V17.4H28.308V9.515l1.506-.078v-3.1l1.507-.069c0-.821.027-1.608-.009-2.393-.026-.568.2-.747.746-.723.761.033,1.526.009,2.362.009V1.547h3.127c.037-.565.067-1.028.1-1.547h7.725c.031.464.06.905.1,1.468h3.048c.028.583.051,1.048.079,1.606h3.108V6.248l1.445.086V9.41l1.541.083V17.35H53.185v3.164l-1.43.07v1.537H50.188v1.637h2.942v1.591H54.72v1.59h1.59v1.59H57.9v1.59h1.59v1.59h1.59V33.3h1.59v1.583l1.431.072v1.524h1.59v1.59h1.59v1.59h1.59v1.59h1.59v1.59h1.59v1.59h1.59v1.583l1.432.076v1.521h1.6V49.2h1.6v1.595h1.572c.031.555.057,1.041.086,1.572l1.515.075c.023.489.045.955.071,1.51l1.5.074V55.5H81.5v1.59h-1.59v1.59h-1.59v1.59h-1.59v1.59h-1.59v1.558H73.76v-1.5H72.172v-1.59h-1.59v-1.59h-1.59v-1.59H67.4v-1.59h-1.59v-1.59h-1.59V52.4L62.79,52.32V50.789H61.2V49.2H59.61v-1.59h-1.59v-1.59H56.43v-1.59h-1.59V42.85H53.186V41.292H51.8v1.543Z" fill="#d27028"/>
      </g>
    </g>
  </g>
</svg>
