<svg xmlns="http://www.w3.org/2000/svg" xmlns:xlink="http://www.w3.org/1999/xlink" width="559.98" height="58.986" viewBox="0 0 559.98 58.986">
  <defs>
    <clipPath id="clip-path">
      <rect id="Rectángulo_1679" data-name="Rectángulo 1679" width="41.109" height="58.986" fill="#f0f0f2"/>
    </clipPath>
  </defs>
  <g id="Grupo_698" data-name="Grupo 698" transform="translate(-403 -872.014)">
    <g id="Grupo_602" data-name="Grupo 602" transform="translate(403 872.014)" opacity="0.3">
      <g id="Grupo_601" data-name="Grupo 601" clip-path="url(#clip-path)">
        <path id="Trazado_1444" data-name="Trazado 1444" d="M26.345,21.212v2.34c.044.022.065.042.088.043.645.044.655.044.665.685.011.8,0,1.6,0,2.446h.791v3.143l.8.037v3.077l.77.062v2.35h.784v3.152h.8v3.133l.706.041v2.291c.064.035.086.056.108.058.64.048.654.048.665.692.015.8,0,1.6,0,2.444h.8v3.138h.789v3.112l.783.065v2.347l.757.035v.718H33.37c-.015.284-.028.514-.044.8h-3c-.024.286-.044.514-.067.78h-2.3c-.036.061-.058.081-.059.1-.049.647-.049.65-.719.674-.259.009-.518,0-.813,0V57.44l-.712-.033V54.294l-.795-.036c0-.545,0-1.066,0-1.588,0-.223,0-.446,0-.669-.01-.248.051-.559-.075-.725-.11-.145-.435-.129-.709-.194V48.776l-.77-.034V45.628h-.809V42.506l-.78-.055V40.11l-.764-.036c-.012-.244-.023-.474-.035-.734h-.747V41.9c0,.584.048.554-.558.549-.052,0-.1.011-.2.022v2.339l-.786.038v3.107l-.792.035v3.1l-.789.046v2.339l-.765.047v3.1h-.806v2.346H14.012v-.75H10.879c-.017-.289-.03-.519-.046-.788H8.62c-.042-.06-.066-.079-.069-.1-.075-.61-.074-.628-.706-.659-.533-.027-1.068-.006-1.624-.006V55.88a1.268,1.268,0,0,1,.3-.04c.318.034.436-.081.432-.416-.01-.786.02-1.572.034-2.358,0-.1.01-.2.017-.325l.755-.043V49.6l.8-.042V46.447h.774V44.079l.7-.053V40.939l.808-.042V37.786h.782V35.43c.774-.178.781-.177.8-1.052.011-.693,0-1.386,0-2.107l.764-.044V29.117h.8V25.978l.8-.039V23.6l.69-.048V20.423h.784v-.766H15.48v.774h-.713v.753h-.787v.788h-.788v.788H12.4v.788h-.787v.787h-.788v.787h-.788V25.9l-.708.034V26.7H8.547v.787H7.759v.787H6.972v.788H6.184v.788H5.4v.787H4.61v.778H3.924v-.751H3.137v-.787H2.35v-.788H1.563V28.3H.776v-.787H0v-.751H.747v-.787h.788v-.788h.787V24.4h.787v-.787H3.9v-.786l.722-.034v-.767H5.4v-.788h.787v-.787h.787v-.787h.788v-.787h.787v-.787h.787v-.775l.709-.034v-.765h.787v-.787h.788v-.787h.787v-.787H13.2v-.788h.787v-.787h.788v-.788h1.476v-.81H15.5v-.784l-.709-.032V8.616h-.776v-3.9l.746-.038V3.139L15.51,3.1c0-.406.013-.8,0-1.185-.013-.281.1-.37.369-.358.377.016.755,0,1.17,0v-.8h1.548c.018-.28.033-.509.05-.766h3.825c.015.23.03.448.048.727h1.51c.014.288.025.519.039.8H25.6V3.094l.716.043V4.66l.763.041V8.591h-.747v1.567l-.708.035v.761h-.776v.81h1.457v.788H27.1v.788h.788v.787h.788v.788h.787V15.7h.788v.787h.788v.784l.709.036v.755h.787v.788h.787v.788H34.1v.788h.788v.787h.788V22h.787v.784l.709.038v.753h.79v.788h.792v.79h.778c.015.275.028.515.043.778l.75.037c.011.242.022.473.035.748l.744.037v.73H40.36v.787h-.788v.787h-.787v.788H38v.787h-.788V31.4h-.685v-.742h-.786v-.788h-.788v-.787h-.787V28.3h-.788v-.787h-.788v-.788H31.8v-.779l-.709-.037V25.15h-.787v-.788h-.788v-.787h-.787v-.788h-.788V22h-.787v-.782h-.819v-.772h-.685v.764Z" fill="#f0f0f2"/>
      </g>
    </g>
    <g id="Grupo_610" data-name="Grupo 610" transform="translate(532.866 872.014)" opacity="0.3">
      <g id="Grupo_601-2" data-name="Grupo 601" clip-path="url(#clip-path)">
        <path id="Trazado_1444-2" data-name="Trazado 1444" d="M26.345,21.212v2.34c.044.022.065.042.088.043.645.044.655.044.665.685.011.8,0,1.6,0,2.446h.791v3.143l.8.037v3.077l.77.062v2.35h.784v3.152h.8v3.133l.706.041v2.291c.064.035.086.056.108.058.64.048.654.048.665.692.015.8,0,1.6,0,2.444h.8v3.138h.789v3.112l.783.065v2.347l.757.035v.718H33.37c-.015.284-.028.514-.044.8h-3c-.024.286-.044.514-.067.78h-2.3c-.036.061-.058.081-.059.1-.049.647-.049.65-.719.674-.259.009-.518,0-.813,0V57.44l-.712-.033V54.294l-.795-.036c0-.545,0-1.066,0-1.588,0-.223,0-.446,0-.669-.01-.248.051-.559-.075-.725-.11-.145-.435-.129-.709-.194V48.776l-.77-.034V45.628h-.809V42.506l-.78-.055V40.11l-.764-.036c-.012-.244-.023-.474-.035-.734h-.747V41.9c0,.584.048.554-.558.549-.052,0-.1.011-.2.022v2.339l-.786.038v3.107l-.792.035v3.1l-.789.046v2.339l-.765.047v3.1h-.806v2.346H14.012v-.75H10.879c-.017-.289-.03-.519-.046-.788H8.62c-.042-.06-.066-.079-.069-.1-.075-.61-.074-.628-.706-.659-.533-.027-1.068-.006-1.624-.006V55.88a1.268,1.268,0,0,1,.3-.04c.318.034.436-.081.432-.416-.01-.786.02-1.572.034-2.358,0-.1.01-.2.017-.325l.755-.043V49.6l.8-.042V46.447h.774V44.079l.7-.053V40.939l.808-.042V37.786h.782V35.43c.774-.178.781-.177.8-1.052.011-.693,0-1.386,0-2.107l.764-.044V29.117h.8V25.978l.8-.039V23.6l.69-.048V20.423h.784v-.766H15.48v.774h-.713v.753h-.787v.788h-.788v.788H12.4v.788h-.787v.787h-.788v.787h-.788V25.9l-.708.034V26.7H8.547v.787H7.759v.787H6.972v.788H6.184v.788H5.4v.787H4.61v.778H3.924v-.751H3.137v-.787H2.35v-.788H1.563V28.3H.776v-.787H0v-.751H.747v-.787h.788v-.788h.787V24.4h.787v-.787H3.9v-.786l.722-.034v-.767H5.4v-.788h.787v-.787h.787v-.787h.788v-.787h.787v-.787h.787v-.775l.709-.034v-.765h.787v-.787h.788v-.787h.787v-.787H13.2v-.788h.787v-.787h.788v-.788h1.476v-.81H15.5v-.784l-.709-.032V8.616h-.776v-3.9l.746-.038V3.139L15.51,3.1c0-.406.013-.8,0-1.185-.013-.281.1-.37.369-.358.377.016.755,0,1.17,0v-.8h1.548c.018-.28.033-.509.05-.766h3.825c.015.23.03.448.048.727h1.51c.014.288.025.519.039.8H25.6V3.094l.716.043V4.66l.763.041V8.591h-.747v1.567l-.708.035v.761h-.776v.81h1.457v.788H27.1v.788h.788v.787h.788v.788h.787V15.7h.788v.787h.788v.784l.709.036v.755h.787v.788h.787v.788H34.1v.788h.788v.787h.788V22h.787v.784l.709.038v.753h.79v.788h.792v.79h.778c.015.275.028.515.043.778l.75.037c.011.242.022.473.035.748l.744.037v.73H40.36v.787h-.788v.787h-.787v.788H38v.787h-.788V31.4h-.685v-.742h-.786v-.788h-.788v-.787h-.787V28.3h-.788v-.787h-.788v-.788H31.8v-.779l-.709-.037V25.15h-.787v-.788h-.788v-.787h-.787v-.788h-.788V22h-.787v-.782h-.819v-.772h-.685v.764Z" fill="#f0f0f2"/>
      </g>
    </g>
    <g id="Grupo_614" data-name="Grupo 614" transform="translate(662.578 872.014)" opacity="0.3">
      <g id="Grupo_601-3" data-name="Grupo 601" clip-path="url(#clip-path)">
        <path id="Trazado_1444-3" data-name="Trazado 1444" d="M26.345,21.212v2.34c.044.022.065.042.088.043.645.044.655.044.665.685.011.8,0,1.6,0,2.446h.791v3.143l.8.037v3.077l.77.062v2.35h.784v3.152h.8v3.133l.706.041v2.291c.064.035.086.056.108.058.64.048.654.048.665.692.015.8,0,1.6,0,2.444h.8v3.138h.789v3.112l.783.065v2.347l.757.035v.718H33.37c-.015.284-.028.514-.044.8h-3c-.024.286-.044.514-.067.78h-2.3c-.036.061-.058.081-.059.1-.049.647-.049.65-.719.674-.259.009-.518,0-.813,0V57.44l-.712-.033V54.294l-.795-.036c0-.545,0-1.066,0-1.588,0-.223,0-.446,0-.669-.01-.248.051-.559-.075-.725-.11-.145-.435-.129-.709-.194V48.776l-.77-.034V45.628h-.809V42.506l-.78-.055V40.11l-.764-.036c-.012-.244-.023-.474-.035-.734h-.747V41.9c0,.584.048.554-.558.549-.052,0-.1.011-.2.022v2.339l-.786.038v3.107l-.792.035v3.1l-.789.046v2.339l-.765.047v3.1h-.806v2.346H14.012v-.75H10.879c-.017-.289-.03-.519-.046-.788H8.62c-.042-.06-.066-.079-.069-.1-.075-.61-.074-.628-.706-.659-.533-.027-1.068-.006-1.624-.006V55.88a1.268,1.268,0,0,1,.3-.04c.318.034.436-.081.432-.416-.01-.786.02-1.572.034-2.358,0-.1.01-.2.017-.325l.755-.043V49.6l.8-.042V46.447h.774V44.079l.7-.053V40.939l.808-.042V37.786h.782V35.43c.774-.178.781-.177.8-1.052.011-.693,0-1.386,0-2.107l.764-.044V29.117h.8V25.978l.8-.039V23.6l.69-.048V20.423h.784v-.766H15.48v.774h-.713v.753h-.787v.788h-.788v.788H12.4v.788h-.787v.787h-.788v.787h-.788V25.9l-.708.034V26.7H8.547v.787H7.759v.787H6.972v.788H6.184v.788H5.4v.787H4.61v.778H3.924v-.751H3.137v-.787H2.35v-.788H1.563V28.3H.776v-.787H0v-.751H.747v-.787h.788v-.788h.787V24.4h.787v-.787H3.9v-.786l.722-.034v-.767H5.4v-.788h.787v-.787h.787v-.787h.788v-.787h.787v-.787h.787v-.775l.709-.034v-.765h.787v-.787h.788v-.787h.787v-.787H13.2v-.788h.787v-.787h.788v-.788h1.476v-.81H15.5v-.784l-.709-.032V8.616h-.776v-3.9l.746-.038V3.139L15.51,3.1c0-.406.013-.8,0-1.185-.013-.281.1-.37.369-.358.377.016.755,0,1.17,0v-.8h1.548c.018-.28.033-.509.05-.766h3.825c.015.23.03.448.048.727h1.51c.014.288.025.519.039.8H25.6V3.094l.716.043V4.66l.763.041V8.591h-.747v1.567l-.708.035v.761h-.776v.81h1.457v.788H27.1v.788h.788v.787h.788v.788h.787V15.7h.788v.787h.788v.784l.709.036v.755h.787v.788h.787v.788H34.1v.788h.788v.787h.788V22h.787v.784l.709.038v.753h.79v.788h.792v.79h.778c.015.275.028.515.043.778l.75.037c.011.242.022.473.035.748l.744.037v.73H40.36v.787h-.788v.787h-.787v.788H38v.787h-.788V31.4h-.685v-.742h-.786v-.788h-.788v-.787h-.787V28.3h-.788v-.787h-.788v-.788H31.8v-.779l-.709-.037V25.15h-.787v-.788h-.788v-.787h-.787v-.788h-.788V22h-.787v-.782h-.819v-.772h-.685v.764Z" fill="#f0f0f2"/>
      </g>
    </g>
    <g id="Grupo_618" data-name="Grupo 618" transform="translate(857.076 872.014)" opacity="0.3">
      <g id="Grupo_601-4" data-name="Grupo 601" clip-path="url(#clip-path)">
        <path id="Trazado_1444-4" data-name="Trazado 1444" d="M26.345,21.212v2.34c.044.022.065.042.088.043.645.044.655.044.665.685.011.8,0,1.6,0,2.446h.791v3.143l.8.037v3.077l.77.062v2.35h.784v3.152h.8v3.133l.706.041v2.291c.064.035.086.056.108.058.64.048.654.048.665.692.015.8,0,1.6,0,2.444h.8v3.138h.789v3.112l.783.065v2.347l.757.035v.718H33.37c-.015.284-.028.514-.044.8h-3c-.024.286-.044.514-.067.78h-2.3c-.036.061-.058.081-.059.1-.049.647-.049.65-.719.674-.259.009-.518,0-.813,0V57.44l-.712-.033V54.294l-.795-.036c0-.545,0-1.066,0-1.588,0-.223,0-.446,0-.669-.01-.248.051-.559-.075-.725-.11-.145-.435-.129-.709-.194V48.776l-.77-.034V45.628h-.809V42.506l-.78-.055V40.11l-.764-.036c-.012-.244-.023-.474-.035-.734h-.747V41.9c0,.584.048.554-.558.549-.052,0-.1.011-.2.022v2.339l-.786.038v3.107l-.792.035v3.1l-.789.046v2.339l-.765.047v3.1h-.806v2.346H14.012v-.75H10.879c-.017-.289-.03-.519-.046-.788H8.62c-.042-.06-.066-.079-.069-.1-.075-.61-.074-.628-.706-.659-.533-.027-1.068-.006-1.624-.006V55.88a1.268,1.268,0,0,1,.3-.04c.318.034.436-.081.432-.416-.01-.786.02-1.572.034-2.358,0-.1.01-.2.017-.325l.755-.043V49.6l.8-.042V46.447h.774V44.079l.7-.053V40.939l.808-.042V37.786h.782V35.43c.774-.178.781-.177.8-1.052.011-.693,0-1.386,0-2.107l.764-.044V29.117h.8V25.978l.8-.039V23.6l.69-.048V20.423h.784v-.766H15.48v.774h-.713v.753h-.787v.788h-.788v.788H12.4v.788h-.787v.787h-.788v.787h-.788V25.9l-.708.034V26.7H8.547v.787H7.759v.787H6.972v.788H6.184v.788H5.4v.787H4.61v.778H3.924v-.751H3.137v-.787H2.35v-.788H1.563V28.3H.776v-.787H0v-.751H.747v-.787h.788v-.788h.787V24.4h.787v-.787H3.9v-.786l.722-.034v-.767H5.4v-.788h.787v-.787h.787v-.787h.788v-.787h.787v-.787h.787v-.775l.709-.034v-.765h.787v-.787h.788v-.787h.787v-.787H13.2v-.788h.787v-.787h.788v-.788h1.476v-.81H15.5v-.784l-.709-.032V8.616h-.776v-3.9l.746-.038V3.139L15.51,3.1c0-.406.013-.8,0-1.185-.013-.281.1-.37.369-.358.377.016.755,0,1.17,0v-.8h1.548c.018-.28.033-.509.05-.766h3.825c.015.23.03.448.048.727h1.51c.014.288.025.519.039.8H25.6V3.094l.716.043V4.66l.763.041V8.591h-.747v1.567l-.708.035v.761h-.776v.81h1.457v.788H27.1v.788h.788v.787h.788v.788h.787V15.7h.788v.787h.788v.784l.709.036v.755h.787v.788h.787v.788H34.1v.788h.788v.787h.788V22h.787v.784l.709.038v.753h.79v.788h.792v.79h.778c.015.275.028.515.043.778l.75.037c.011.242.022.473.035.748l.744.037v.73H40.36v.787h-.788v.787h-.787v.788H38v.787h-.788V31.4h-.685v-.742h-.786v-.788h-.788v-.787h-.787V28.3h-.788v-.787h-.788v-.788H31.8v-.779l-.709-.037V25.15h-.787v-.788h-.788v-.787h-.787v-.788h-.788V22h-.787v-.782h-.819v-.772h-.685v.764Z" fill="#f0f0f2"/>
      </g>
    </g>
    <g id="Grupo_603" data-name="Grupo 603" transform="translate(435.438 872.014)" opacity="0.3">
      <g id="Grupo_601-5" data-name="Grupo 601" clip-path="url(#clip-path)">
        <path id="Trazado_1444-5" data-name="Trazado 1444" d="M26.345,21.212v2.34c.044.022.065.042.088.043.645.044.655.044.665.685.011.8,0,1.6,0,2.446h.791v3.143l.8.037v3.077l.77.062v2.35h.784v3.152h.8v3.133l.706.041v2.291c.064.035.086.056.108.058.64.048.654.048.665.692.015.8,0,1.6,0,2.444h.8v3.138h.789v3.112l.783.065v2.347l.757.035v.718H33.37c-.015.284-.028.514-.044.8h-3c-.024.286-.044.514-.067.78h-2.3c-.036.061-.058.081-.059.1-.049.647-.049.65-.719.674-.259.009-.518,0-.813,0V57.44l-.712-.033V54.294l-.795-.036c0-.545,0-1.066,0-1.588,0-.223,0-.446,0-.669-.01-.248.051-.559-.075-.725-.11-.145-.435-.129-.709-.194V48.776l-.77-.034V45.628h-.809V42.506l-.78-.055V40.11l-.764-.036c-.012-.244-.023-.474-.035-.734h-.747V41.9c0,.584.048.554-.558.549-.052,0-.1.011-.2.022v2.339l-.786.038v3.107l-.792.035v3.1l-.789.046v2.339l-.765.047v3.1h-.806v2.346H14.012v-.75H10.879c-.017-.289-.03-.519-.046-.788H8.62c-.042-.06-.066-.079-.069-.1-.075-.61-.074-.628-.706-.659-.533-.027-1.068-.006-1.624-.006V55.88a1.268,1.268,0,0,1,.3-.04c.318.034.436-.081.432-.416-.01-.786.02-1.572.034-2.358,0-.1.01-.2.017-.325l.755-.043V49.6l.8-.042V46.447h.774V44.079l.7-.053V40.939l.808-.042V37.786h.782V35.43c.774-.178.781-.177.8-1.052.011-.693,0-1.386,0-2.107l.764-.044V29.117h.8V25.978l.8-.039V23.6l.69-.048V20.423h.784v-.766H15.48v.774h-.713v.753h-.787v.788h-.788v.788H12.4v.788h-.787v.787h-.788v.787h-.788V25.9l-.708.034V26.7H8.547v.787H7.759v.787H6.972v.788H6.184v.788H5.4v.787H4.61v.778H3.924v-.751H3.137v-.787H2.35v-.788H1.563V28.3H.776v-.787H0v-.751H.747v-.787h.788v-.788h.787V24.4h.787v-.787H3.9v-.786l.722-.034v-.767H5.4v-.788h.787v-.787h.787v-.787h.788v-.787h.787v-.787h.787v-.775l.709-.034v-.765h.787v-.787h.788v-.787h.787v-.787H13.2v-.788h.787v-.787h.788v-.788h1.476v-.81H15.5v-.784l-.709-.032V8.616h-.776v-3.9l.746-.038V3.139L15.51,3.1c0-.406.013-.8,0-1.185-.013-.281.1-.37.369-.358.377.016.755,0,1.17,0v-.8h1.548c.018-.28.033-.509.05-.766h3.825c.015.23.03.448.048.727h1.51c.014.288.025.519.039.8H25.6V3.094l.716.043V4.66l.763.041V8.591h-.747v1.567l-.708.035v.761h-.776v.81h1.457v.788H27.1v.788h.788v.787h.788v.788h.787V15.7h.788v.787h.788v.784l.709.036v.755h.787v.788h.787v.788H34.1v.788h.788v.787h.788V22h.787v.784l.709.038v.753h.79v.788h.792v.79h.778c.015.275.028.515.043.778l.75.037c.011.242.022.473.035.748l.744.037v.73H40.36v.787h-.788v.787h-.787v.788H38v.787h-.788V31.4h-.685v-.742h-.786v-.788h-.788v-.787h-.787V28.3h-.788v-.787h-.788v-.788H31.8v-.779l-.709-.037V25.15h-.787v-.788h-.788v-.787h-.787v-.788h-.788V22h-.787v-.782h-.819v-.772h-.685v.764Z" fill="#f0f0f2"/>
      </g>
    </g>
    <g id="Grupo_608" data-name="Grupo 608" transform="translate(565.304 872.014)" opacity="0.3">
      <g id="Grupo_601-6" data-name="Grupo 601" clip-path="url(#clip-path)">
        <path id="Trazado_1444-6" data-name="Trazado 1444" d="M26.345,21.212v2.34c.044.022.065.042.088.043.645.044.655.044.665.685.011.8,0,1.6,0,2.446h.791v3.143l.8.037v3.077l.77.062v2.35h.784v3.152h.8v3.133l.706.041v2.291c.064.035.086.056.108.058.64.048.654.048.665.692.015.8,0,1.6,0,2.444h.8v3.138h.789v3.112l.783.065v2.347l.757.035v.718H33.37c-.015.284-.028.514-.044.8h-3c-.024.286-.044.514-.067.78h-2.3c-.036.061-.058.081-.059.1-.049.647-.049.65-.719.674-.259.009-.518,0-.813,0V57.44l-.712-.033V54.294l-.795-.036c0-.545,0-1.066,0-1.588,0-.223,0-.446,0-.669-.01-.248.051-.559-.075-.725-.11-.145-.435-.129-.709-.194V48.776l-.77-.034V45.628h-.809V42.506l-.78-.055V40.11l-.764-.036c-.012-.244-.023-.474-.035-.734h-.747V41.9c0,.584.048.554-.558.549-.052,0-.1.011-.2.022v2.339l-.786.038v3.107l-.792.035v3.1l-.789.046v2.339l-.765.047v3.1h-.806v2.346H14.012v-.75H10.879c-.017-.289-.03-.519-.046-.788H8.62c-.042-.06-.066-.079-.069-.1-.075-.61-.074-.628-.706-.659-.533-.027-1.068-.006-1.624-.006V55.88a1.268,1.268,0,0,1,.3-.04c.318.034.436-.081.432-.416-.01-.786.02-1.572.034-2.358,0-.1.01-.2.017-.325l.755-.043V49.6l.8-.042V46.447h.774V44.079l.7-.053V40.939l.808-.042V37.786h.782V35.43c.774-.178.781-.177.8-1.052.011-.693,0-1.386,0-2.107l.764-.044V29.117h.8V25.978l.8-.039V23.6l.69-.048V20.423h.784v-.766H15.48v.774h-.713v.753h-.787v.788h-.788v.788H12.4v.788h-.787v.787h-.788v.787h-.788V25.9l-.708.034V26.7H8.547v.787H7.759v.787H6.972v.788H6.184v.788H5.4v.787H4.61v.778H3.924v-.751H3.137v-.787H2.35v-.788H1.563V28.3H.776v-.787H0v-.751H.747v-.787h.788v-.788h.787V24.4h.787v-.787H3.9v-.786l.722-.034v-.767H5.4v-.788h.787v-.787h.787v-.787h.788v-.787h.787v-.787h.787v-.775l.709-.034v-.765h.787v-.787h.788v-.787h.787v-.787H13.2v-.788h.787v-.787h.788v-.788h1.476v-.81H15.5v-.784l-.709-.032V8.616h-.776v-3.9l.746-.038V3.139L15.51,3.1c0-.406.013-.8,0-1.185-.013-.281.1-.37.369-.358.377.016.755,0,1.17,0v-.8h1.548c.018-.28.033-.509.05-.766h3.825c.015.23.03.448.048.727h1.51c.014.288.025.519.039.8H25.6V3.094l.716.043V4.66l.763.041V8.591h-.747v1.567l-.708.035v.761h-.776v.81h1.457v.788H27.1v.788h.788v.787h.788v.788h.787V15.7h.788v.787h.788v.784l.709.036v.755h.787v.788h.787v.788H34.1v.788h.788v.787h.788V22h.787v.784l.709.038v.753h.79v.788h.792v.79h.778c.015.275.028.515.043.778l.75.037c.011.242.022.473.035.748l.744.037v.73H40.36v.787h-.788v.787h-.787v.788H38v.787h-.788V31.4h-.685v-.742h-.786v-.788h-.788v-.787h-.787V28.3h-.788v-.787h-.788v-.788H31.8v-.779l-.709-.037V25.15h-.787v-.788h-.788v-.787h-.787v-.788h-.788V22h-.787v-.782h-.819v-.772h-.685v.764Z" fill="#f0f0f2"/>
      </g>
    </g>
    <g id="Grupo_613" data-name="Grupo 613" transform="translate(695.016 872.014)" opacity="0.3">
      <g id="Grupo_601-7" data-name="Grupo 601" clip-path="url(#clip-path)">
        <path id="Trazado_1444-7" data-name="Trazado 1444" d="M26.345,21.212v2.34c.044.022.065.042.088.043.645.044.655.044.665.685.011.8,0,1.6,0,2.446h.791v3.143l.8.037v3.077l.77.062v2.35h.784v3.152h.8v3.133l.706.041v2.291c.064.035.086.056.108.058.64.048.654.048.665.692.015.8,0,1.6,0,2.444h.8v3.138h.789v3.112l.783.065v2.347l.757.035v.718H33.37c-.015.284-.028.514-.044.8h-3c-.024.286-.044.514-.067.78h-2.3c-.036.061-.058.081-.059.1-.049.647-.049.65-.719.674-.259.009-.518,0-.813,0V57.44l-.712-.033V54.294l-.795-.036c0-.545,0-1.066,0-1.588,0-.223,0-.446,0-.669-.01-.248.051-.559-.075-.725-.11-.145-.435-.129-.709-.194V48.776l-.77-.034V45.628h-.809V42.506l-.78-.055V40.11l-.764-.036c-.012-.244-.023-.474-.035-.734h-.747V41.9c0,.584.048.554-.558.549-.052,0-.1.011-.2.022v2.339l-.786.038v3.107l-.792.035v3.1l-.789.046v2.339l-.765.047v3.1h-.806v2.346H14.012v-.75H10.879c-.017-.289-.03-.519-.046-.788H8.62c-.042-.06-.066-.079-.069-.1-.075-.61-.074-.628-.706-.659-.533-.027-1.068-.006-1.624-.006V55.88a1.268,1.268,0,0,1,.3-.04c.318.034.436-.081.432-.416-.01-.786.02-1.572.034-2.358,0-.1.01-.2.017-.325l.755-.043V49.6l.8-.042V46.447h.774V44.079l.7-.053V40.939l.808-.042V37.786h.782V35.43c.774-.178.781-.177.8-1.052.011-.693,0-1.386,0-2.107l.764-.044V29.117h.8V25.978l.8-.039V23.6l.69-.048V20.423h.784v-.766H15.48v.774h-.713v.753h-.787v.788h-.788v.788H12.4v.788h-.787v.787h-.788v.787h-.788V25.9l-.708.034V26.7H8.547v.787H7.759v.787H6.972v.788H6.184v.788H5.4v.787H4.61v.778H3.924v-.751H3.137v-.787H2.35v-.788H1.563V28.3H.776v-.787H0v-.751H.747v-.787h.788v-.788h.787V24.4h.787v-.787H3.9v-.786l.722-.034v-.767H5.4v-.788h.787v-.787h.787v-.787h.788v-.787h.787v-.787h.787v-.775l.709-.034v-.765h.787v-.787h.788v-.787h.787v-.787H13.2v-.788h.787v-.787h.788v-.788h1.476v-.81H15.5v-.784l-.709-.032V8.616h-.776v-3.9l.746-.038V3.139L15.51,3.1c0-.406.013-.8,0-1.185-.013-.281.1-.37.369-.358.377.016.755,0,1.17,0v-.8h1.548c.018-.28.033-.509.05-.766h3.825c.015.23.03.448.048.727h1.51c.014.288.025.519.039.8H25.6V3.094l.716.043V4.66l.763.041V8.591h-.747v1.567l-.708.035v.761h-.776v.81h1.457v.788H27.1v.788h.788v.787h.788v.788h.787V15.7h.788v.787h.788v.784l.709.036v.755h.787v.788h.787v.788H34.1v.788h.788v.787h.788V22h.787v.784l.709.038v.753h.79v.788h.792v.79h.778c.015.275.028.515.043.778l.75.037c.011.242.022.473.035.748l.744.037v.73H40.36v.787h-.788v.787h-.787v.788H38v.787h-.788V31.4h-.685v-.742h-.786v-.788h-.788v-.787h-.787V28.3h-.788v-.787h-.788v-.788H31.8v-.779l-.709-.037V25.15h-.787v-.788h-.788v-.787h-.787v-.788h-.788V22h-.787v-.782h-.819v-.772h-.685v.764Z" fill="#f0f0f2"/>
      </g>
    </g>
    <g id="Grupo_615" data-name="Grupo 615" transform="translate(889.514 872.014)" opacity="0.3">
      <g id="Grupo_601-8" data-name="Grupo 601" clip-path="url(#clip-path)">
        <path id="Trazado_1444-8" data-name="Trazado 1444" d="M26.345,21.212v2.34c.044.022.065.042.088.043.645.044.655.044.665.685.011.8,0,1.6,0,2.446h.791v3.143l.8.037v3.077l.77.062v2.35h.784v3.152h.8v3.133l.706.041v2.291c.064.035.086.056.108.058.64.048.654.048.665.692.015.8,0,1.6,0,2.444h.8v3.138h.789v3.112l.783.065v2.347l.757.035v.718H33.37c-.015.284-.028.514-.044.8h-3c-.024.286-.044.514-.067.78h-2.3c-.036.061-.058.081-.059.1-.049.647-.049.65-.719.674-.259.009-.518,0-.813,0V57.44l-.712-.033V54.294l-.795-.036c0-.545,0-1.066,0-1.588,0-.223,0-.446,0-.669-.01-.248.051-.559-.075-.725-.11-.145-.435-.129-.709-.194V48.776l-.77-.034V45.628h-.809V42.506l-.78-.055V40.11l-.764-.036c-.012-.244-.023-.474-.035-.734h-.747V41.9c0,.584.048.554-.558.549-.052,0-.1.011-.2.022v2.339l-.786.038v3.107l-.792.035v3.1l-.789.046v2.339l-.765.047v3.1h-.806v2.346H14.012v-.75H10.879c-.017-.289-.03-.519-.046-.788H8.62c-.042-.06-.066-.079-.069-.1-.075-.61-.074-.628-.706-.659-.533-.027-1.068-.006-1.624-.006V55.88a1.268,1.268,0,0,1,.3-.04c.318.034.436-.081.432-.416-.01-.786.02-1.572.034-2.358,0-.1.01-.2.017-.325l.755-.043V49.6l.8-.042V46.447h.774V44.079l.7-.053V40.939l.808-.042V37.786h.782V35.43c.774-.178.781-.177.8-1.052.011-.693,0-1.386,0-2.107l.764-.044V29.117h.8V25.978l.8-.039V23.6l.69-.048V20.423h.784v-.766H15.48v.774h-.713v.753h-.787v.788h-.788v.788H12.4v.788h-.787v.787h-.788v.787h-.788V25.9l-.708.034V26.7H8.547v.787H7.759v.787H6.972v.788H6.184v.788H5.4v.787H4.61v.778H3.924v-.751H3.137v-.787H2.35v-.788H1.563V28.3H.776v-.787H0v-.751H.747v-.787h.788v-.788h.787V24.4h.787v-.787H3.9v-.786l.722-.034v-.767H5.4v-.788h.787v-.787h.787v-.787h.788v-.787h.787v-.787h.787v-.775l.709-.034v-.765h.787v-.787h.788v-.787h.787v-.787H13.2v-.788h.787v-.787h.788v-.788h1.476v-.81H15.5v-.784l-.709-.032V8.616h-.776v-3.9l.746-.038V3.139L15.51,3.1c0-.406.013-.8,0-1.185-.013-.281.1-.37.369-.358.377.016.755,0,1.17,0v-.8h1.548c.018-.28.033-.509.05-.766h3.825c.015.23.03.448.048.727h1.51c.014.288.025.519.039.8H25.6V3.094l.716.043V4.66l.763.041V8.591h-.747v1.567l-.708.035v.761h-.776v.81h1.457v.788H27.1v.788h.788v.787h.788v.788h.787V15.7h.788v.787h.788v.784l.709.036v.755h.787v.788h.787v.788H34.1v.788h.788v.787h.788V22h.787v.784l.709.038v.753h.79v.788h.792v.79h.778c.015.275.028.515.043.778l.75.037c.011.242.022.473.035.748l.744.037v.73H40.36v.787h-.788v.787h-.787v.788H38v.787h-.788V31.4h-.685v-.742h-.786v-.788h-.788v-.787h-.787V28.3h-.788v-.787h-.788v-.788H31.8v-.779l-.709-.037V25.15h-.787v-.788h-.788v-.787h-.787v-.788h-.788V22h-.787v-.782h-.819v-.772h-.685v.764Z" fill="#f0f0f2"/>
      </g>
    </g>
    <g id="Grupo_604" data-name="Grupo 604" transform="translate(467.795 872.014)" opacity="0.3">
      <g id="Grupo_601-9" data-name="Grupo 601" clip-path="url(#clip-path)">
        <path id="Trazado_1444-9" data-name="Trazado 1444" d="M26.345,21.212v2.34c.044.022.065.042.088.043.645.044.655.044.665.685.011.8,0,1.6,0,2.446h.791v3.143l.8.037v3.077l.77.062v2.35h.784v3.152h.8v3.133l.706.041v2.291c.064.035.086.056.108.058.64.048.654.048.665.692.015.8,0,1.6,0,2.444h.8v3.138h.789v3.112l.783.065v2.347l.757.035v.718H33.37c-.015.284-.028.514-.044.8h-3c-.024.286-.044.514-.067.78h-2.3c-.036.061-.058.081-.059.1-.049.647-.049.65-.719.674-.259.009-.518,0-.813,0V57.44l-.712-.033V54.294l-.795-.036c0-.545,0-1.066,0-1.588,0-.223,0-.446,0-.669-.01-.248.051-.559-.075-.725-.11-.145-.435-.129-.709-.194V48.776l-.77-.034V45.628h-.809V42.506l-.78-.055V40.11l-.764-.036c-.012-.244-.023-.474-.035-.734h-.747V41.9c0,.584.048.554-.558.549-.052,0-.1.011-.2.022v2.339l-.786.038v3.107l-.792.035v3.1l-.789.046v2.339l-.765.047v3.1h-.806v2.346H14.012v-.75H10.879c-.017-.289-.03-.519-.046-.788H8.62c-.042-.06-.066-.079-.069-.1-.075-.61-.074-.628-.706-.659-.533-.027-1.068-.006-1.624-.006V55.88a1.268,1.268,0,0,1,.3-.04c.318.034.436-.081.432-.416-.01-.786.02-1.572.034-2.358,0-.1.01-.2.017-.325l.755-.043V49.6l.8-.042V46.447h.774V44.079l.7-.053V40.939l.808-.042V37.786h.782V35.43c.774-.178.781-.177.8-1.052.011-.693,0-1.386,0-2.107l.764-.044V29.117h.8V25.978l.8-.039V23.6l.69-.048V20.423h.784v-.766H15.48v.774h-.713v.753h-.787v.788h-.788v.788H12.4v.788h-.787v.787h-.788v.787h-.788V25.9l-.708.034V26.7H8.547v.787H7.759v.787H6.972v.788H6.184v.788H5.4v.787H4.61v.778H3.924v-.751H3.137v-.787H2.35v-.788H1.563V28.3H.776v-.787H0v-.751H.747v-.787h.788v-.788h.787V24.4h.787v-.787H3.9v-.786l.722-.034v-.767H5.4v-.788h.787v-.787h.787v-.787h.788v-.787h.787v-.787h.787v-.775l.709-.034v-.765h.787v-.787h.788v-.787h.787v-.787H13.2v-.788h.787v-.787h.788v-.788h1.476v-.81H15.5v-.784l-.709-.032V8.616h-.776v-3.9l.746-.038V3.139L15.51,3.1c0-.406.013-.8,0-1.185-.013-.281.1-.37.369-.358.377.016.755,0,1.17,0v-.8h1.548c.018-.28.033-.509.05-.766h3.825c.015.23.03.448.048.727h1.51c.014.288.025.519.039.8H25.6V3.094l.716.043V4.66l.763.041V8.591h-.747v1.567l-.708.035v.761h-.776v.81h1.457v.788H27.1v.788h.788v.787h.788v.788h.787V15.7h.788v.787h.788v.784l.709.036v.755h.787v.788h.787v.788H34.1v.788h.788v.787h.788V22h.787v.784l.709.038v.753h.79v.788h.792v.79h.778c.015.275.028.515.043.778l.75.037c.011.242.022.473.035.748l.744.037v.73H40.36v.787h-.788v.787h-.787v.788H38v.787h-.788V31.4h-.685v-.742h-.786v-.788h-.788v-.787h-.787V28.3h-.788v-.787h-.788v-.788H31.8v-.779l-.709-.037V25.15h-.787v-.788h-.788v-.787h-.787v-.788h-.788V22h-.787v-.782h-.819v-.772h-.685v.764Z" fill="#f0f0f2"/>
      </g>
    </g>
    <g id="Grupo_609" data-name="Grupo 609" transform="translate(597.661 872.014)" opacity="0.3">
      <g id="Grupo_601-10" data-name="Grupo 601" clip-path="url(#clip-path)">
        <path id="Trazado_1444-10" data-name="Trazado 1444" d="M26.345,21.212v2.34c.044.022.065.042.088.043.645.044.655.044.665.685.011.8,0,1.6,0,2.446h.791v3.143l.8.037v3.077l.77.062v2.35h.784v3.152h.8v3.133l.706.041v2.291c.064.035.086.056.108.058.64.048.654.048.665.692.015.8,0,1.6,0,2.444h.8v3.138h.789v3.112l.783.065v2.347l.757.035v.718H33.37c-.015.284-.028.514-.044.8h-3c-.024.286-.044.514-.067.78h-2.3c-.036.061-.058.081-.059.1-.049.647-.049.65-.719.674-.259.009-.518,0-.813,0V57.44l-.712-.033V54.294l-.795-.036c0-.545,0-1.066,0-1.588,0-.223,0-.446,0-.669-.01-.248.051-.559-.075-.725-.11-.145-.435-.129-.709-.194V48.776l-.77-.034V45.628h-.809V42.506l-.78-.055V40.11l-.764-.036c-.012-.244-.023-.474-.035-.734h-.747V41.9c0,.584.048.554-.558.549-.052,0-.1.011-.2.022v2.339l-.786.038v3.107l-.792.035v3.1l-.789.046v2.339l-.765.047v3.1h-.806v2.346H14.012v-.75H10.879c-.017-.289-.03-.519-.046-.788H8.62c-.042-.06-.066-.079-.069-.1-.075-.61-.074-.628-.706-.659-.533-.027-1.068-.006-1.624-.006V55.88a1.268,1.268,0,0,1,.3-.04c.318.034.436-.081.432-.416-.01-.786.02-1.572.034-2.358,0-.1.01-.2.017-.325l.755-.043V49.6l.8-.042V46.447h.774V44.079l.7-.053V40.939l.808-.042V37.786h.782V35.43c.774-.178.781-.177.8-1.052.011-.693,0-1.386,0-2.107l.764-.044V29.117h.8V25.978l.8-.039V23.6l.69-.048V20.423h.784v-.766H15.48v.774h-.713v.753h-.787v.788h-.788v.788H12.4v.788h-.787v.787h-.788v.787h-.788V25.9l-.708.034V26.7H8.547v.787H7.759v.787H6.972v.788H6.184v.788H5.4v.787H4.61v.778H3.924v-.751H3.137v-.787H2.35v-.788H1.563V28.3H.776v-.787H0v-.751H.747v-.787h.788v-.788h.787V24.4h.787v-.787H3.9v-.786l.722-.034v-.767H5.4v-.788h.787v-.787h.787v-.787h.788v-.787h.787v-.787h.787v-.775l.709-.034v-.765h.787v-.787h.788v-.787h.787v-.787H13.2v-.788h.787v-.787h.788v-.788h1.476v-.81H15.5v-.784l-.709-.032V8.616h-.776v-3.9l.746-.038V3.139L15.51,3.1c0-.406.013-.8,0-1.185-.013-.281.1-.37.369-.358.377.016.755,0,1.17,0v-.8h1.548c.018-.28.033-.509.05-.766h3.825c.015.23.03.448.048.727h1.51c.014.288.025.519.039.8H25.6V3.094l.716.043V4.66l.763.041V8.591h-.747v1.567l-.708.035v.761h-.776v.81h1.457v.788H27.1v.788h.788v.787h.788v.788h.787V15.7h.788v.787h.788v.784l.709.036v.755h.787v.788h.787v.788H34.1v.788h.788v.787h.788V22h.787v.784l.709.038v.753h.79v.788h.792v.79h.778c.015.275.028.515.043.778l.75.037c.011.242.022.473.035.748l.744.037v.73H40.36v.787h-.788v.787h-.787v.788H38v.787h-.788V31.4h-.685v-.742h-.786v-.788h-.788v-.787h-.787V28.3h-.788v-.787h-.788v-.788H31.8v-.779l-.709-.037V25.15h-.787v-.788h-.788v-.787h-.787v-.788h-.788V22h-.787v-.782h-.819v-.772h-.685v.764Z" fill="#f0f0f2"/>
      </g>
    </g>
    <g id="Grupo_620" data-name="Grupo 620" transform="translate(792.159 872.014)" opacity="0.3">
      <g id="Grupo_601-11" data-name="Grupo 601" clip-path="url(#clip-path)">
        <path id="Trazado_1444-11" data-name="Trazado 1444" d="M26.345,21.212v2.34c.044.022.065.042.088.043.645.044.655.044.665.685.011.8,0,1.6,0,2.446h.791v3.143l.8.037v3.077l.77.062v2.35h.784v3.152h.8v3.133l.706.041v2.291c.064.035.086.056.108.058.64.048.654.048.665.692.015.8,0,1.6,0,2.444h.8v3.138h.789v3.112l.783.065v2.347l.757.035v.718H33.37c-.015.284-.028.514-.044.8h-3c-.024.286-.044.514-.067.78h-2.3c-.036.061-.058.081-.059.1-.049.647-.049.65-.719.674-.259.009-.518,0-.813,0V57.44l-.712-.033V54.294l-.795-.036c0-.545,0-1.066,0-1.588,0-.223,0-.446,0-.669-.01-.248.051-.559-.075-.725-.11-.145-.435-.129-.709-.194V48.776l-.77-.034V45.628h-.809V42.506l-.78-.055V40.11l-.764-.036c-.012-.244-.023-.474-.035-.734h-.747V41.9c0,.584.048.554-.558.549-.052,0-.1.011-.2.022v2.339l-.786.038v3.107l-.792.035v3.1l-.789.046v2.339l-.765.047v3.1h-.806v2.346H14.012v-.75H10.879c-.017-.289-.03-.519-.046-.788H8.62c-.042-.06-.066-.079-.069-.1-.075-.61-.074-.628-.706-.659-.533-.027-1.068-.006-1.624-.006V55.88a1.268,1.268,0,0,1,.3-.04c.318.034.436-.081.432-.416-.01-.786.02-1.572.034-2.358,0-.1.01-.2.017-.325l.755-.043V49.6l.8-.042V46.447h.774V44.079l.7-.053V40.939l.808-.042V37.786h.782V35.43c.774-.178.781-.177.8-1.052.011-.693,0-1.386,0-2.107l.764-.044V29.117h.8V25.978l.8-.039V23.6l.69-.048V20.423h.784v-.766H15.48v.774h-.713v.753h-.787v.788h-.788v.788H12.4v.788h-.787v.787h-.788v.787h-.788V25.9l-.708.034V26.7H8.547v.787H7.759v.787H6.972v.788H6.184v.788H5.4v.787H4.61v.778H3.924v-.751H3.137v-.787H2.35v-.788H1.563V28.3H.776v-.787H0v-.751H.747v-.787h.788v-.788h.787V24.4h.787v-.787H3.9v-.786l.722-.034v-.767H5.4v-.788h.787v-.787h.787v-.787h.788v-.787h.787v-.787h.787v-.775l.709-.034v-.765h.787v-.787h.788v-.787h.787v-.787H13.2v-.788h.787v-.787h.788v-.788h1.476v-.81H15.5v-.784l-.709-.032V8.616h-.776v-3.9l.746-.038V3.139L15.51,3.1c0-.406.013-.8,0-1.185-.013-.281.1-.37.369-.358.377.016.755,0,1.17,0v-.8h1.548c.018-.28.033-.509.05-.766h3.825c.015.23.03.448.048.727h1.51c.014.288.025.519.039.8H25.6V3.094l.716.043V4.66l.763.041V8.591h-.747v1.567l-.708.035v.761h-.776v.81h1.457v.788H27.1v.788h.788v.787h.788v.788h.787V15.7h.788v.787h.788v.784l.709.036v.755h.787v.788h.787v.788H34.1v.788h.788v.787h.788V22h.787v.784l.709.038v.753h.79v.788h.792v.79h.778c.015.275.028.515.043.778l.75.037c.011.242.022.473.035.748l.744.037v.73H40.36v.787h-.788v.787h-.787v.788H38v.787h-.788V31.4h-.685v-.742h-.786v-.788h-.788v-.787h-.787V28.3h-.788v-.787h-.788v-.788H31.8v-.779l-.709-.037V25.15h-.787v-.788h-.788v-.787h-.787v-.788h-.788V22h-.787v-.782h-.819v-.772h-.685v.764Z" fill="#f0f0f2"/>
      </g>
    </g>
    <g id="Grupo_612" data-name="Grupo 612" transform="translate(727.373 872.014)" opacity="0.3">
      <g id="Grupo_601-12" data-name="Grupo 601" clip-path="url(#clip-path)">
        <path id="Trazado_1444-12" data-name="Trazado 1444" d="M26.345,21.212v2.34c.044.022.065.042.088.043.645.044.655.044.665.685.011.8,0,1.6,0,2.446h.791v3.143l.8.037v3.077l.77.062v2.35h.784v3.152h.8v3.133l.706.041v2.291c.064.035.086.056.108.058.64.048.654.048.665.692.015.8,0,1.6,0,2.444h.8v3.138h.789v3.112l.783.065v2.347l.757.035v.718H33.37c-.015.284-.028.514-.044.8h-3c-.024.286-.044.514-.067.78h-2.3c-.036.061-.058.081-.059.1-.049.647-.049.65-.719.674-.259.009-.518,0-.813,0V57.44l-.712-.033V54.294l-.795-.036c0-.545,0-1.066,0-1.588,0-.223,0-.446,0-.669-.01-.248.051-.559-.075-.725-.11-.145-.435-.129-.709-.194V48.776l-.77-.034V45.628h-.809V42.506l-.78-.055V40.11l-.764-.036c-.012-.244-.023-.474-.035-.734h-.747V41.9c0,.584.048.554-.558.549-.052,0-.1.011-.2.022v2.339l-.786.038v3.107l-.792.035v3.1l-.789.046v2.339l-.765.047v3.1h-.806v2.346H14.012v-.75H10.879c-.017-.289-.03-.519-.046-.788H8.62c-.042-.06-.066-.079-.069-.1-.075-.61-.074-.628-.706-.659-.533-.027-1.068-.006-1.624-.006V55.88a1.268,1.268,0,0,1,.3-.04c.318.034.436-.081.432-.416-.01-.786.02-1.572.034-2.358,0-.1.01-.2.017-.325l.755-.043V49.6l.8-.042V46.447h.774V44.079l.7-.053V40.939l.808-.042V37.786h.782V35.43c.774-.178.781-.177.8-1.052.011-.693,0-1.386,0-2.107l.764-.044V29.117h.8V25.978l.8-.039V23.6l.69-.048V20.423h.784v-.766H15.48v.774h-.713v.753h-.787v.788h-.788v.788H12.4v.788h-.787v.787h-.788v.787h-.788V25.9l-.708.034V26.7H8.547v.787H7.759v.787H6.972v.788H6.184v.788H5.4v.787H4.61v.778H3.924v-.751H3.137v-.787H2.35v-.788H1.563V28.3H.776v-.787H0v-.751H.747v-.787h.788v-.788h.787V24.4h.787v-.787H3.9v-.786l.722-.034v-.767H5.4v-.788h.787v-.787h.787v-.787h.788v-.787h.787v-.787h.787v-.775l.709-.034v-.765h.787v-.787h.788v-.787h.787v-.787H13.2v-.788h.787v-.787h.788v-.788h1.476v-.81H15.5v-.784l-.709-.032V8.616h-.776v-3.9l.746-.038V3.139L15.51,3.1c0-.406.013-.8,0-1.185-.013-.281.1-.37.369-.358.377.016.755,0,1.17,0v-.8h1.548c.018-.28.033-.509.05-.766h3.825c.015.23.03.448.048.727h1.51c.014.288.025.519.039.8H25.6V3.094l.716.043V4.66l.763.041V8.591h-.747v1.567l-.708.035v.761h-.776v.81h1.457v.788H27.1v.788h.788v.787h.788v.788h.787V15.7h.788v.787h.788v.784l.709.036v.755h.787v.788h.787v.788H34.1v.788h.788v.787h.788V22h.787v.784l.709.038v.753h.79v.788h.792v.79h.778c.015.275.028.515.043.778l.75.037c.011.242.022.473.035.748l.744.037v.73H40.36v.787h-.788v.787h-.787v.788H38v.787h-.788V31.4h-.685v-.742h-.786v-.788h-.788v-.787h-.787V28.3h-.788v-.787h-.788v-.788H31.8v-.779l-.709-.037V25.15h-.787v-.788h-.788v-.787h-.787v-.788h-.788V22h-.787v-.782h-.819v-.772h-.685v.764Z" fill="#f0f0f2"/>
      </g>
    </g>
    <g id="Grupo_616" data-name="Grupo 616" transform="translate(921.87 872.014)" opacity="0.3">
      <g id="Grupo_601-13" data-name="Grupo 601" clip-path="url(#clip-path)">
        <path id="Trazado_1444-13" data-name="Trazado 1444" d="M26.345,21.212v2.34c.044.022.065.042.088.043.645.044.655.044.665.685.011.8,0,1.6,0,2.446h.791v3.143l.8.037v3.077l.77.062v2.35h.784v3.152h.8v3.133l.706.041v2.291c.064.035.086.056.108.058.64.048.654.048.665.692.015.8,0,1.6,0,2.444h.8v3.138h.789v3.112l.783.065v2.347l.757.035v.718H33.37c-.015.284-.028.514-.044.8h-3c-.024.286-.044.514-.067.78h-2.3c-.036.061-.058.081-.059.1-.049.647-.049.65-.719.674-.259.009-.518,0-.813,0V57.44l-.712-.033V54.294l-.795-.036c0-.545,0-1.066,0-1.588,0-.223,0-.446,0-.669-.01-.248.051-.559-.075-.725-.11-.145-.435-.129-.709-.194V48.776l-.77-.034V45.628h-.809V42.506l-.78-.055V40.11l-.764-.036c-.012-.244-.023-.474-.035-.734h-.747V41.9c0,.584.048.554-.558.549-.052,0-.1.011-.2.022v2.339l-.786.038v3.107l-.792.035v3.1l-.789.046v2.339l-.765.047v3.1h-.806v2.346H14.012v-.75H10.879c-.017-.289-.03-.519-.046-.788H8.62c-.042-.06-.066-.079-.069-.1-.075-.61-.074-.628-.706-.659-.533-.027-1.068-.006-1.624-.006V55.88a1.268,1.268,0,0,1,.3-.04c.318.034.436-.081.432-.416-.01-.786.02-1.572.034-2.358,0-.1.01-.2.017-.325l.755-.043V49.6l.8-.042V46.447h.774V44.079l.7-.053V40.939l.808-.042V37.786h.782V35.43c.774-.178.781-.177.8-1.052.011-.693,0-1.386,0-2.107l.764-.044V29.117h.8V25.978l.8-.039V23.6l.69-.048V20.423h.784v-.766H15.48v.774h-.713v.753h-.787v.788h-.788v.788H12.4v.788h-.787v.787h-.788v.787h-.788V25.9l-.708.034V26.7H8.547v.787H7.759v.787H6.972v.788H6.184v.788H5.4v.787H4.61v.778H3.924v-.751H3.137v-.787H2.35v-.788H1.563V28.3H.776v-.787H0v-.751H.747v-.787h.788v-.788h.787V24.4h.787v-.787H3.9v-.786l.722-.034v-.767H5.4v-.788h.787v-.787h.787v-.787h.788v-.787h.787v-.787h.787v-.775l.709-.034v-.765h.787v-.787h.788v-.787h.787v-.787H13.2v-.788h.787v-.787h.788v-.788h1.476v-.81H15.5v-.784l-.709-.032V8.616h-.776v-3.9l.746-.038V3.139L15.51,3.1c0-.406.013-.8,0-1.185-.013-.281.1-.37.369-.358.377.016.755,0,1.17,0v-.8h1.548c.018-.28.033-.509.05-.766h3.825c.015.23.03.448.048.727h1.51c.014.288.025.519.039.8H25.6V3.094l.716.043V4.66l.763.041V8.591h-.747v1.567l-.708.035v.761h-.776v.81h1.457v.788H27.1v.788h.788v.787h.788v.788h.787V15.7h.788v.787h.788v.784l.709.036v.755h.787v.788h.787v.788H34.1v.788h.788v.787h.788V22h.787v.784l.709.038v.753h.79v.788h.792v.79h.778c.015.275.028.515.043.778l.75.037c.011.242.022.473.035.748l.744.037v.73H40.36v.787h-.788v.787h-.787v.788H38v.787h-.788V31.4h-.685v-.742h-.786v-.788h-.788v-.787h-.787V28.3h-.788v-.787h-.788v-.788H31.8v-.779l-.709-.037V25.15h-.787v-.788h-.788v-.787h-.787v-.788h-.788V22h-.787v-.782h-.819v-.772h-.685v.764Z" fill="#f0f0f2"/>
      </g>
    </g>
    <g id="Grupo_606" data-name="Grupo 606" transform="translate(500.24 872.014)" opacity="0.3">
      <g id="Grupo_601-14" data-name="Grupo 601" clip-path="url(#clip-path)">
        <path id="Trazado_1444-14" data-name="Trazado 1444" d="M26.345,21.212v2.34c.044.022.065.042.088.043.645.044.655.044.665.685.011.8,0,1.6,0,2.446h.791v3.143l.8.037v3.077l.77.062v2.35h.784v3.152h.8v3.133l.706.041v2.291c.064.035.086.056.108.058.64.048.654.048.665.692.015.8,0,1.6,0,2.444h.8v3.138h.789v3.112l.783.065v2.347l.757.035v.718H33.37c-.015.284-.028.514-.044.8h-3c-.024.286-.044.514-.067.78h-2.3c-.036.061-.058.081-.059.1-.049.647-.049.65-.719.674-.259.009-.518,0-.813,0V57.44l-.712-.033V54.294l-.795-.036c0-.545,0-1.066,0-1.588,0-.223,0-.446,0-.669-.01-.248.051-.559-.075-.725-.11-.145-.435-.129-.709-.194V48.776l-.77-.034V45.628h-.809V42.506l-.78-.055V40.11l-.764-.036c-.012-.244-.023-.474-.035-.734h-.747V41.9c0,.584.048.554-.558.549-.052,0-.1.011-.2.022v2.339l-.786.038v3.107l-.792.035v3.1l-.789.046v2.339l-.765.047v3.1h-.806v2.346H14.012v-.75H10.879c-.017-.289-.03-.519-.046-.788H8.62c-.042-.06-.066-.079-.069-.1-.075-.61-.074-.628-.706-.659-.533-.027-1.068-.006-1.624-.006V55.88a1.268,1.268,0,0,1,.3-.04c.318.034.436-.081.432-.416-.01-.786.02-1.572.034-2.358,0-.1.01-.2.017-.325l.755-.043V49.6l.8-.042V46.447h.774V44.079l.7-.053V40.939l.808-.042V37.786h.782V35.43c.774-.178.781-.177.8-1.052.011-.693,0-1.386,0-2.107l.764-.044V29.117h.8V25.978l.8-.039V23.6l.69-.048V20.423h.784v-.766H15.48v.774h-.713v.753h-.787v.788h-.788v.788H12.4v.788h-.787v.787h-.788v.787h-.788V25.9l-.708.034V26.7H8.547v.787H7.759v.787H6.972v.788H6.184v.788H5.4v.787H4.61v.778H3.924v-.751H3.137v-.787H2.35v-.788H1.563V28.3H.776v-.787H0v-.751H.747v-.787h.788v-.788h.787V24.4h.787v-.787H3.9v-.786l.722-.034v-.767H5.4v-.788h.787v-.787h.787v-.787h.788v-.787h.787v-.787h.787v-.775l.709-.034v-.765h.787v-.787h.788v-.787h.787v-.787H13.2v-.788h.787v-.787h.788v-.788h1.476v-.81H15.5v-.784l-.709-.032V8.616h-.776v-3.9l.746-.038V3.139L15.51,3.1c0-.406.013-.8,0-1.185-.013-.281.1-.37.369-.358.377.016.755,0,1.17,0v-.8h1.548c.018-.28.033-.509.05-.766h3.825c.015.23.03.448.048.727h1.51c.014.288.025.519.039.8H25.6V3.094l.716.043V4.66l.763.041V8.591h-.747v1.567l-.708.035v.761h-.776v.81h1.457v.788H27.1v.788h.788v.787h.788v.788h.787V15.7h.788v.787h.788v.784l.709.036v.755h.787v.788h.787v.788H34.1v.788h.788v.787h.788V22h.787v.784l.709.038v.753h.79v.788h.792v.79h.778c.015.275.028.515.043.778l.75.037c.011.242.022.473.035.748l.744.037v.73H40.36v.787h-.788v.787h-.787v.788H38v.787h-.788V31.4h-.685v-.742h-.786v-.788h-.788v-.787h-.787V28.3h-.788v-.787h-.788v-.788H31.8v-.779l-.709-.037V25.15h-.787v-.788h-.788v-.787h-.787v-.788h-.788V22h-.787v-.782h-.819v-.772h-.685v.764Z" fill="#f0f0f2"/>
      </g>
    </g>
    <g id="Grupo_607" data-name="Grupo 607" transform="translate(630.106 872.014)" opacity="0.3">
      <g id="Grupo_601-15" data-name="Grupo 601" clip-path="url(#clip-path)">
        <path id="Trazado_1444-15" data-name="Trazado 1444" d="M26.345,21.212v2.34c.044.022.065.042.088.043.645.044.655.044.665.685.011.8,0,1.6,0,2.446h.791v3.143l.8.037v3.077l.77.062v2.35h.784v3.152h.8v3.133l.706.041v2.291c.064.035.086.056.108.058.64.048.654.048.665.692.015.8,0,1.6,0,2.444h.8v3.138h.789v3.112l.783.065v2.347l.757.035v.718H33.37c-.015.284-.028.514-.044.8h-3c-.024.286-.044.514-.067.78h-2.3c-.036.061-.058.081-.059.1-.049.647-.049.65-.719.674-.259.009-.518,0-.813,0V57.44l-.712-.033V54.294l-.795-.036c0-.545,0-1.066,0-1.588,0-.223,0-.446,0-.669-.01-.248.051-.559-.075-.725-.11-.145-.435-.129-.709-.194V48.776l-.77-.034V45.628h-.809V42.506l-.78-.055V40.11l-.764-.036c-.012-.244-.023-.474-.035-.734h-.747V41.9c0,.584.048.554-.558.549-.052,0-.1.011-.2.022v2.339l-.786.038v3.107l-.792.035v3.1l-.789.046v2.339l-.765.047v3.1h-.806v2.346H14.012v-.75H10.879c-.017-.289-.03-.519-.046-.788H8.62c-.042-.06-.066-.079-.069-.1-.075-.61-.074-.628-.706-.659-.533-.027-1.068-.006-1.624-.006V55.88a1.268,1.268,0,0,1,.3-.04c.318.034.436-.081.432-.416-.01-.786.02-1.572.034-2.358,0-.1.01-.2.017-.325l.755-.043V49.6l.8-.042V46.447h.774V44.079l.7-.053V40.939l.808-.042V37.786h.782V35.43c.774-.178.781-.177.8-1.052.011-.693,0-1.386,0-2.107l.764-.044V29.117h.8V25.978l.8-.039V23.6l.69-.048V20.423h.784v-.766H15.48v.774h-.713v.753h-.787v.788h-.788v.788H12.4v.788h-.787v.787h-.788v.787h-.788V25.9l-.708.034V26.7H8.547v.787H7.759v.787H6.972v.788H6.184v.788H5.4v.787H4.61v.778H3.924v-.751H3.137v-.787H2.35v-.788H1.563V28.3H.776v-.787H0v-.751H.747v-.787h.788v-.788h.787V24.4h.787v-.787H3.9v-.786l.722-.034v-.767H5.4v-.788h.787v-.787h.787v-.787h.788v-.787h.787v-.787h.787v-.775l.709-.034v-.765h.787v-.787h.788v-.787h.787v-.787H13.2v-.788h.787v-.787h.788v-.788h1.476v-.81H15.5v-.784l-.709-.032V8.616h-.776v-3.9l.746-.038V3.139L15.51,3.1c0-.406.013-.8,0-1.185-.013-.281.1-.37.369-.358.377.016.755,0,1.17,0v-.8h1.548c.018-.28.033-.509.05-.766h3.825c.015.23.03.448.048.727h1.51c.014.288.025.519.039.8H25.6V3.094l.716.043V4.66l.763.041V8.591h-.747v1.567l-.708.035v.761h-.776v.81h1.457v.788H27.1v.788h.788v.787h.788v.788h.787V15.7h.788v.787h.788v.784l.709.036v.755h.787v.788h.787v.788H34.1v.788h.788v.787h.788V22h.787v.784l.709.038v.753h.79v.788h.792v.79h.778c.015.275.028.515.043.778l.75.037c.011.242.022.473.035.748l.744.037v.73H40.36v.787h-.788v.787h-.787v.788H38v.787h-.788V31.4h-.685v-.742h-.786v-.788h-.788v-.787h-.787V28.3h-.788v-.787h-.788v-.788H31.8v-.779l-.709-.037V25.15h-.787v-.788h-.788v-.787h-.787v-.788h-.788V22h-.787v-.782h-.819v-.772h-.685v.764Z" fill="#f0f0f2"/>
      </g>
    </g>
    <g id="Grupo_619" data-name="Grupo 619" transform="translate(824.604 872.014)" opacity="0.3">
      <g id="Grupo_601-16" data-name="Grupo 601" clip-path="url(#clip-path)">
        <path id="Trazado_1444-16" data-name="Trazado 1444" d="M26.345,21.212v2.34c.044.022.065.042.088.043.645.044.655.044.665.685.011.8,0,1.6,0,2.446h.791v3.143l.8.037v3.077l.77.062v2.35h.784v3.152h.8v3.133l.706.041v2.291c.064.035.086.056.108.058.64.048.654.048.665.692.015.8,0,1.6,0,2.444h.8v3.138h.789v3.112l.783.065v2.347l.757.035v.718H33.37c-.015.284-.028.514-.044.8h-3c-.024.286-.044.514-.067.78h-2.3c-.036.061-.058.081-.059.1-.049.647-.049.65-.719.674-.259.009-.518,0-.813,0V57.44l-.712-.033V54.294l-.795-.036c0-.545,0-1.066,0-1.588,0-.223,0-.446,0-.669-.01-.248.051-.559-.075-.725-.11-.145-.435-.129-.709-.194V48.776l-.77-.034V45.628h-.809V42.506l-.78-.055V40.11l-.764-.036c-.012-.244-.023-.474-.035-.734h-.747V41.9c0,.584.048.554-.558.549-.052,0-.1.011-.2.022v2.339l-.786.038v3.107l-.792.035v3.1l-.789.046v2.339l-.765.047v3.1h-.806v2.346H14.012v-.75H10.879c-.017-.289-.03-.519-.046-.788H8.62c-.042-.06-.066-.079-.069-.1-.075-.61-.074-.628-.706-.659-.533-.027-1.068-.006-1.624-.006V55.88a1.268,1.268,0,0,1,.3-.04c.318.034.436-.081.432-.416-.01-.786.02-1.572.034-2.358,0-.1.01-.2.017-.325l.755-.043V49.6l.8-.042V46.447h.774V44.079l.7-.053V40.939l.808-.042V37.786h.782V35.43c.774-.178.781-.177.8-1.052.011-.693,0-1.386,0-2.107l.764-.044V29.117h.8V25.978l.8-.039V23.6l.69-.048V20.423h.784v-.766H15.48v.774h-.713v.753h-.787v.788h-.788v.788H12.4v.788h-.787v.787h-.788v.787h-.788V25.9l-.708.034V26.7H8.547v.787H7.759v.787H6.972v.788H6.184v.788H5.4v.787H4.61v.778H3.924v-.751H3.137v-.787H2.35v-.788H1.563V28.3H.776v-.787H0v-.751H.747v-.787h.788v-.788h.787V24.4h.787v-.787H3.9v-.786l.722-.034v-.767H5.4v-.788h.787v-.787h.787v-.787h.788v-.787h.787v-.787h.787v-.775l.709-.034v-.765h.787v-.787h.788v-.787h.787v-.787H13.2v-.788h.787v-.787h.788v-.788h1.476v-.81H15.5v-.784l-.709-.032V8.616h-.776v-3.9l.746-.038V3.139L15.51,3.1c0-.406.013-.8,0-1.185-.013-.281.1-.37.369-.358.377.016.755,0,1.17,0v-.8h1.548c.018-.28.033-.509.05-.766h3.825c.015.23.03.448.048.727h1.51c.014.288.025.519.039.8H25.6V3.094l.716.043V4.66l.763.041V8.591h-.747v1.567l-.708.035v.761h-.776v.81h1.457v.788H27.1v.788h.788v.787h.788v.788h.787V15.7h.788v.787h.788v.784l.709.036v.755h.787v.788h.787v.788H34.1v.788h.788v.787h.788V22h.787v.784l.709.038v.753h.79v.788h.792v.79h.778c.015.275.028.515.043.778l.75.037c.011.242.022.473.035.748l.744.037v.73H40.36v.787h-.788v.787h-.787v.788H38v.787h-.788V31.4h-.685v-.742h-.786v-.788h-.788v-.787h-.787V28.3h-.788v-.787h-.788v-.788H31.8v-.779l-.709-.037V25.15h-.787v-.788h-.788v-.787h-.787v-.788h-.788V22h-.787v-.782h-.819v-.772h-.685v.764Z" fill="#f0f0f2"/>
      </g>
    </g>
    <g id="Grupo_611" data-name="Grupo 611" transform="translate(759.818 872.014)" opacity="0.3">
      <g id="Grupo_601-17" data-name="Grupo 601" clip-path="url(#clip-path)">
        <path id="Trazado_1444-17" data-name="Trazado 1444" d="M26.345,21.212v2.34c.044.022.065.042.088.043.645.044.655.044.665.685.011.8,0,1.6,0,2.446h.791v3.143l.8.037v3.077l.77.062v2.35h.784v3.152h.8v3.133l.706.041v2.291c.064.035.086.056.108.058.64.048.654.048.665.692.015.8,0,1.6,0,2.444h.8v3.138h.789v3.112l.783.065v2.347l.757.035v.718H33.37c-.015.284-.028.514-.044.8h-3c-.024.286-.044.514-.067.78h-2.3c-.036.061-.058.081-.059.1-.049.647-.049.65-.719.674-.259.009-.518,0-.813,0V57.44l-.712-.033V54.294l-.795-.036c0-.545,0-1.066,0-1.588,0-.223,0-.446,0-.669-.01-.248.051-.559-.075-.725-.11-.145-.435-.129-.709-.194V48.776l-.77-.034V45.628h-.809V42.506l-.78-.055V40.11l-.764-.036c-.012-.244-.023-.474-.035-.734h-.747V41.9c0,.584.048.554-.558.549-.052,0-.1.011-.2.022v2.339l-.786.038v3.107l-.792.035v3.1l-.789.046v2.339l-.765.047v3.1h-.806v2.346H14.012v-.75H10.879c-.017-.289-.03-.519-.046-.788H8.62c-.042-.06-.066-.079-.069-.1-.075-.61-.074-.628-.706-.659-.533-.027-1.068-.006-1.624-.006V55.88a1.268,1.268,0,0,1,.3-.04c.318.034.436-.081.432-.416-.01-.786.02-1.572.034-2.358,0-.1.01-.2.017-.325l.755-.043V49.6l.8-.042V46.447h.774V44.079l.7-.053V40.939l.808-.042V37.786h.782V35.43c.774-.178.781-.177.8-1.052.011-.693,0-1.386,0-2.107l.764-.044V29.117h.8V25.978l.8-.039V23.6l.69-.048V20.423h.784v-.766H15.48v.774h-.713v.753h-.787v.788h-.788v.788H12.4v.788h-.787v.787h-.788v.787h-.788V25.9l-.708.034V26.7H8.547v.787H7.759v.787H6.972v.788H6.184v.788H5.4v.787H4.61v.778H3.924v-.751H3.137v-.787H2.35v-.788H1.563V28.3H.776v-.787H0v-.751H.747v-.787h.788v-.788h.787V24.4h.787v-.787H3.9v-.786l.722-.034v-.767H5.4v-.788h.787v-.787h.787v-.787h.788v-.787h.787v-.787h.787v-.775l.709-.034v-.765h.787v-.787h.788v-.787h.787v-.787H13.2v-.788h.787v-.787h.788v-.788h1.476v-.81H15.5v-.784l-.709-.032V8.616h-.776v-3.9l.746-.038V3.139L15.51,3.1c0-.406.013-.8,0-1.185-.013-.281.1-.37.369-.358.377.016.755,0,1.17,0v-.8h1.548c.018-.28.033-.509.05-.766h3.825c.015.23.03.448.048.727h1.51c.014.288.025.519.039.8H25.6V3.094l.716.043V4.66l.763.041V8.591h-.747v1.567l-.708.035v.761h-.776v.81h1.457v.788H27.1v.788h.788v.787h.788v.788h.787V15.7h.788v.787h.788v.784l.709.036v.755h.787v.788h.787v.788H34.1v.788h.788v.787h.788V22h.787v.784l.709.038v.753h.79v.788h.792v.79h.778c.015.275.028.515.043.778l.75.037c.011.242.022.473.035.748l.744.037v.73H40.36v.787h-.788v.787h-.787v.788H38v.787h-.788V31.4h-.685v-.742h-.786v-.788h-.788v-.787h-.787V28.3h-.788v-.787h-.788v-.788H31.8v-.779l-.709-.037V25.15h-.787v-.788h-.788v-.787h-.787v-.788h-.788V22h-.787v-.782h-.819v-.772h-.685v.764Z" fill="#f0f0f2"/>
      </g>
    </g>
  </g>
</svg>
