<svg xmlns="http://www.w3.org/2000/svg" width="347.844" height="364.505" viewBox="0 0 347.844 364.505">
  <g id="Grupo_654" data-name="Grupo 654" transform="translate(-819.071 -399.17)">
    <path id="Trazado_179" data-name="Trazado 179" d="M837.068,283.333c.829-2.186,1.607-4.394,2.513-6.549,1.131-2.695,6.086-3.229,9.168-1.062a66.439,66.439,0,0,0,6.107,4.147,19.367,19.367,0,0,0,4.983,1.622c1.607.367,2.683-.258,3.5-1.89a36.238,36.238,0,0,1,4.032-6.173c.534-.678,2.428-1.3,2.617-1.066,2.054,2.532,4.9.42,7.212,1.343.637.253,1.735-.653,2.625-1.028a16.677,16.677,0,0,1-.955,2.361c-1.508,2.564-3.082,5.082-4.863,7.993l17.871,4.374-.722.569c.542,1.08.863,2.388,1.682,3.184a19.25,19.25,0,0,0,3.691,2.293q-1.225,5.335-2.45,10.669c3,4.75-.03,8.493-2.067,12.4l-2.128,4.745-2.927.545c-.347-2.623-1.791-3.817-4.248-3.123-2.232.63-3.545-.208-4.043-2.187-.789-3.153-1.879-6.3-.884-9.671a6.1,6.1,0,0,0-.008-3.33c-.8-2.606-2.107-3.59-5.367-2.974-3.032.572-6.421-.714-9.651-1.215-2.419-.378-4.67-1.544-4.755-4.057-.1-2.878-2.309-3.06-3.866-4.158a28.715,28.715,0,0,1-2.488-1.522c-3.544-3.088-3.525-3.11-6.286-.361-.635-.391-1.3-.746-1.9-1.183C841.317,286.479,839.2,284.9,837.068,283.333Z" transform="translate(197.683 235.357)" fill="#f0f0f2" stroke="#fff" stroke-width="1" opacity="0.5"/>
    <path id="Trazado_180" data-name="Trazado 180" d="M966.621,373.466a30.426,30.426,0,0,1-2.036,4.983c-1.11,1.777-2.233,3.306.271,5.026l-3.107,2.493c-1.026-.2-2.624-.918-2.98-.52-1.659,1.851-2.625.65-3.916-.363-1.565-1.229-3.069-2.928-5.483-1.453-.369.226-1.636-.274-1.906-.76-1.334-2.413-2.356-5-3.724-7.386a13.351,13.351,0,0,0-3.1-3.7c-1.855-1.5-4.009-2.619-5.918-4.057-.383-.288-.239-1.275-.337-1.941,4.181.373,7.3-1.381,9.651-4.754,1.015-1.455,2.071-2.885,3.18-4.271.791-.991,1.7-1.89,2.555-2.829,2.047-.028,4.106-.211,6.134-.034a28.708,28.708,0,0,1,4.53,1.113c1.573,1.839,2.865,4.346,5.979,2.479,1.137,2.65,2.378,5.038.905,8.266C966.3,367.971,966.8,370.873,966.621,373.466Z" transform="translate(190.64 229.457)" fill="#f0f0f2" stroke="#fff" stroke-width="1" opacity="0.5"/>
    <path id="Trazado_181" data-name="Trazado 181" d="M899.409,291.768a19.233,19.233,0,0,1-3.691-2.294c-.819-.8-1.141-2.1-1.683-3.184l.724-.569-17.871-4.374c1.781-2.914,3.358-5.434,4.862-7.992a16.785,16.785,0,0,0,.954-2.361l2.455-1.093c.212.133.544.226.679.442,2.959,4.747,3.22,4.864,8.427,3.5a2.244,2.244,0,0,0,1.027-.513c1.191-1.238.367-7.811-1.078-8.783-.243-.164-.538-.252-.793-.4-4.922-2.861-4.892-9.275.046-12.232,1.583-.948,3.137-1.937,4.7-2.906-1.187,3.2-2.338,6.409-3.582,9.576-.547,1.4-.422,2.007,1.07,2.98,3.121,2.036,5.806,4.719,8.787,6.988A6.065,6.065,0,0,0,907.925,270c3.236-.138,6.347,3.587,4.845,6.456-.88,1.682-2.646,2.881-3.912,4.384a13.324,13.324,0,0,0-1.745,2.779c-.689,1.432-1.237,2.926-1.845,4.393Q902.341,289.889,899.409,291.768Z" transform="translate(194.801 237.043)" fill="#f0f0f2" stroke="#fff" stroke-width="1" opacity="0.5"/>
    <path id="Trazado_182" data-name="Trazado 182" d="M967.374,355.635c-3.109,1.867-4.406-.639-5.979-2.478-.4-.636-.657-1.617-1.225-1.856a24.821,24.821,0,0,1-11.807-9.422l1.979-5.73-2.627-1.391,5.94-5.342c.79.664,1.933,1.175,2.3,2.022.794,1.843,1.6,1.753,3.1.8,2.317-1.472,4.789-2.7,7.2-4.028.453.009,1-.147,1.342.054,2.093,1.237,4.131,2.568,6.2,3.846,3.456,2.127,3.96,6.132,1,9.161-2.044,2.1-2.229,4.168-.091,6.947Z" transform="translate(189.675 231.315)" fill="#f0f0f2" stroke="#fff" stroke-width="1" opacity="0.5"/>
    <path id="Trazado_183" data-name="Trazado 183" d="M905.546,326.936c2.031.093,3.806,2.612,6.055.634.363.83,1.229,1.858,1,2.462-.822,2.147.378,2.466,1.961,2.974,1.885.6,3.492,1.526,4.212,3.748.69,2.13,2.051,4.032,2.96,6.1.705,1.608,1.167,3.321,1.735,4.988a59.948,59.948,0,0,1-1.324,6.875,66.791,66.791,0,0,1-2.844,6.7l-10.048-.569c-.726-.721-1.631-2.171-2.151-2.044-2.968.722-2.891-2.006-4.062-3.267-.276-.3-.39-1.127-.528-1.115-3.258.289-2.649-2.527-3.439-4.207a12.285,12.285,0,0,0,1.789-1.323c1.384-1.455,4.569-1.518,4.128-4.293-.486-3.069,2.23-5.464.98-8.839C905,333.132,905.628,329.9,905.546,326.936Z" transform="translate(193.196 231.403)" fill="#f0f0f2" stroke="#fff" stroke-width="1" opacity="0.5"/>
    <path id="Trazado_184" data-name="Trazado 184" d="M904.3,326.8c.083,2.966-.548,6.2.427,8.832,1.247,3.374-1.469,5.771-.98,8.838.44,2.776-2.744,2.838-4.128,4.294a12.35,12.35,0,0,1-1.789,1.322l-2.311,1.763c-4.745.993-7.58-2.235-10.7-4.839-1.12-2.438-2.24-4.876-2.912-6.334l1.041-4.392c.86-1.173,1.708-2.357,2.585-3.518.611-.806,1.85-1.628,1.791-2.361-.2-2.427.956-3.763,2.875-4.773l2.926-.544,6.609,1.187Z" transform="translate(194.438 231.537)" fill="#f0f0f2" stroke="#fff" stroke-width="1" opacity="0.5"/>
    <path id="Trazado_185" data-name="Trazado 185" d="M924.442,347.766c-.571-1.667-1.032-3.38-1.735-4.988-.9-2.071-2.27-3.974-2.959-6.1-.721-2.223-2.329-3.144-4.213-3.749-1.584-.508-2.781-.83-1.96-2.974.231-.6-.635-1.63-1-2.462a.611.611,0,0,1,.378.055,36.019,36.019,0,0,1,4.848-1.3c2.338-.3,4.712-.3,7.07-.428-.068.993-.135,1.985-.195,2.861l8.672-.41c-1.838,2.391-1.229,4.591.444,6.781a18.609,18.609,0,0,1,1.4,2.546q.543,3.26,1.088,6.518c-1.155-.965-2.324-1.913-3.461-2.9-.754-.659-1.464-1.375-1.75-1.645-1.981,2.45-3.582,4.388-5.127,6.369A11.623,11.623,0,0,0,925,347.7,3.179,3.179,0,0,0,924.442,347.766Z" transform="translate(192.218 231.484)" fill="#f0f0f2" stroke="#fff" stroke-width="1" opacity="0.5"/>
    <path id="Trazado_186" data-name="Trazado 186" d="M965.606,327.378c-2.405,1.329-4.878,2.556-7.2,4.028-1.5.954-2.311,1.044-3.1-.8-.364-.846-1.507-1.357-2.3-2.02l-5.416-3.22c-2.927,2.165-5.851.128-8.8-.259l1.149-1.577c.481-.316,1.3-.56,1.386-.959.528-2.481,2.29-2.725,4.373-2.894a27.114,27.114,0,0,0,4.531-1.136c2.171.487,4.023.96,6.246-.814,2.355-1.885,4.714-1.418,5.674,1.39S964.441,324.627,965.606,327.378Z" transform="translate(190.321 232.152)" fill="#f0f0f2" stroke="#fff" stroke-width="1" opacity="0.5"/>
    <path id="Trazado_187" data-name="Trazado 187" d="M938.429,325.769c2.949.387,5.873,2.423,8.8.259l5.416,3.219-5.94,5.342-7.3.714-.307.77L942.563,339a11.858,11.858,0,0,1-5.827-1.415,18.746,18.746,0,0,0-1.4-2.546c-1.672-2.186-2.282-4.39-.444-6.782l3.544-1.968C938.433,326.119,938.431,325.944,938.429,325.769Z" transform="translate(190.685 231.488)" fill="#f0f0f2" stroke="#fff" stroke-width="1" opacity="0.5"/>
    <path id="Trazado_188" data-name="Trazado 188" d="M796.092,167.719l-.557-.894Z" transform="translate(200.689 242.991)" fill="#f0f0f2" stroke="#fff" stroke-width="1" opacity="0.5"/>
    <path id="Trazado_189" data-name="Trazado 189" d="M650.634,368.837q-1.646-1.8-3.3-3.6a1.015,1.015,0,0,0-.459-.355c-2.483-.443-4.97-.864-7.458-1.291-.769-1.287-1.537-2.573-2.312-3.872,1.75-1.352,1.23-2.4-.532-3.311a4.659,4.659,0,0,1-.849-.731l4.456-2.941-.417-.765c-.439-.048-1.018-.3-1.295-.114-3.51,2.386-6.567,2.4-9.14-1.416-.28-.416-1.206-.393-1.836-.575l-.5-1.206c-.358-1.864.586-1.424,1.81-1.251a4.762,4.762,0,0,0,2.838-.844c.3-.179.048-1.25.048-1.459h-4.1l.109-.528,4.8-2.539-.452-.575h-5.03c-1.216.151-3.14-.118-3.517.528-1.282,2.177-1.773.733-2.55-.209-1-1.215-2.044-2.4-3.068-3.6-3.116-2.327-6.225-4.631-10.5-4.012-.383.056-.88-.685-1.326-1.056-1.529-1.742-1.189-3.256.56-4.6l3.567-5.468c3.347-2.3,5.128-5.7,6.576-9.333l4.719-4.587c1.76-.97,4.218-1.516,5.121-3,1.552-2.558,4-3.658,6.259-4.762,1.865-.909,4.364-.518,6.581-.7q-.79,2.46-1.583,4.922l.936.687c1.018-1.828,1.955-3.1,4.079-1.6,1.282.9,3.15.98,5.157,1.536l-.6-2.805.528-.52a13.273,13.273,0,0,1,1.659,1.553c.649.843,1.159,1.794,1.729,2.7.578,2.224.432,3.723-2.578,3.059-.643-.141-1.483.615-2.233.958l.2.747h7.1q-.458-2.726-.915-5.453.245-.723.491-1.446l1.292.809c.509.678.939,1.86,1.543,1.96,2.3.378,2.691,1.405,1.536,3.584,1.039-.25,2.093-.477,2.437-1.1a2.51,2.51,0,0,0-.392-2.272c-1.1-1.272-1-2.237.226-3.238A8.557,8.557,0,0,0,662,306.561a2.751,2.751,0,0,0,2.329.065,36.132,36.132,0,0,0,3.52-3.248c3.551,3.109,4.187,7.1,4.945,11.036l.967-.3V308l3.23,2.534-1.381,1.745.586.69,5.042-3.77-2.338-2.013c-.417-3.129.075-5.786,4.449-6.6-2.857-1.259-2.98-2.606-1.735-4.308.636-.868,1.127-1.842,1.712-2.749,1.063-1.645.221-2.3-1.324-2.6q-.582-2.528-1.165-5.057c3.859-.135,2.187-3.167,1.879-4.572-.7-3.14.326-5.493,1.908-7.975a55.22,55.22,0,0,0,2.736-5.571c.364-.743.768-1.467,1.155-2.2.4,4.134.955,8.259,1.157,12.4.3,6.064,2.287,11.171,6.979,15.261,2.312,2.016,1.695,4.454-.817,5.915a10.783,10.783,0,0,0-2.216,2.469c.905.77,1.73,2.048,2.736,2.213a7.1,7.1,0,0,1,5.778,4.482,69.057,69.057,0,0,1,3.545,10.266c.767,3.214.707,6.617,1.275,9.889.562,3.243,1.281,6.163-.963,9.364-1.35,1.929-1.145,4.948-1.637,7.477l.931.8c1.37-.648,2.945-1.056,4.062-2a53.763,53.763,0,0,0,4.6-4.91c.472-.706,2.887.145,1.612-2.021-.1-.168.35-.921.642-.99a1.66,1.66,0,0,1,1.37.323c1.592,1.693,1.769.523,1.885-.867q1-1.025,2.009-2.057c-.376-.626-.747-1.25-1.25-2.093l5.029-1.182c-.088,2.808-.157,5.616-.272,8.422-.071,1.749-.213,3.5-.325,5.244q.017,8.589.032,17.178c-.166,2.427-.331,4.854-.523,7.681a10.791,10.791,0,0,1-3.194-.046c-4.524-1.469-5.947-8.38-12.172-7-.194.043-.465-.269-.054-.013-3.361,1.65-6.184,3.409-9.251,4.454-4.793,1.633-8.88,3.478-7.7,9.707.031.168-.144.365-.18.557q-1.844,9.811-3.678,19.624c-1.805-.2-3.93-.853-3.113,3.079-3.89-3.747-9.07-4.925-11.618-10.18-1-.477-2.607-1.322-4.275-2.024-3.438-1.446-4.87-4.617-5.825-7.7a6.64,6.64,0,0,0-4.577-4.557c-2.609-.75-3.42-2.695-4.416-4.5C653.213,368.548,652.226,368.228,650.634,368.837Z" transform="translate(214.471 235.846)" fill="#f0f0f2" stroke="#fff" stroke-width="1" opacity="0.5"/>
    <path id="Trazado_190" data-name="Trazado 190" d="M680.362,214.1c2-2.979,1.448-5.187-1.723-7.286.351-.728.711-1.474,1.069-2.22l3.913-2.356c.573.089.661-.377.86-.788,1.6-3.324,1.574-3.313-1.836-4.291a23.92,23.92,0,0,1-3.243-1.5l2.249-1.735c-.939.358-2.338.44-2.745,1.118-2.746,4.525-5.307,9.159-7.826,13.813-.162.3.519,1.056.806,1.6-.614,1.168-1.55,2.276-1.779,3.515-.546,2.957-1.126,5.745-3.858,7.609-.552.377-.611,1.475-.9,2.24-.126,1.331-.066,3.762-.41,3.821-2.934.5-2.8,3.063-3.712,4.9,1.364,1.029,2.778,2,4.072,3.109a16.79,16.79,0,0,1,1.869,2.254l4.85,3.361-1.72-4.3,4.544,1.325c1.96-.508,4.093-1,6.182-1.635a14.257,14.257,0,0,0,2.388-1.233c-.377-.591-.778-1.168-1.116-1.78a2.777,2.777,0,0,1-.253-.726c1.648-1.845,2.842-3.87,4.611-4.992,2.361-1.5,2.356-3.595,2.649-5.812.068-.515.653-.961,1-1.439Z" transform="translate(210.409 241.029)" fill="#f0f0f2" stroke="#fff" stroke-width="1" opacity="0.5"/>
    <path id="Trazado_191" data-name="Trazado 191" d="M924.6,539.436c-2.771-1.154-6.055.75-8.774-1.825-1-.942-3.268-1.019-4.7,1.155-2.386,3.619-6.218,2.413-9.678,2.139a5.946,5.946,0,0,0-2.2-.1c-2.427.824-4.191-.21-6.224-1.436-3.62-2.187-7.482-4.088-11.977-3.357-1.576.256-4.816-2.111-5.521-4.128-.931-2.666-2.667-3.031-5.224-1.718-3.631,1.866-7.454,3.358-10.791,4.832.078-3.027.141-5.844.233-8.661.042-1.3.112-2.6.226-3.888.068-.77.5-1.587.338-2.286-1.171-5.108.652-9.041,4-12.9,2.7-3.118,2.391-7.338,1.668-11.235a3.042,3.042,0,0,0-2.441-1.583,22.793,22.793,0,0,0-6.307,1.121c-3.029,1.044-5.439.09-7.616-1.8a27.526,27.526,0,0,0-12.269-6.636c-.706-.15-1.754-1.235-1.723-1.839.143-2.778-1.237-3.747-4.33-4.3,1.3-1.377,2.606-2.744,3.887-4.136.326-.353.875-1.05.8-1.144-1.967-2.33-.031-3.361,1.417-4.611.14-.122-.121-.712-.2-1.083.6-.123,1.21-.21,1.8-.377.857-.249,1.7-.561,2.544-.845-2.01-1.16-3.858-2.054-5.454-.1l-1.236-.15-1.056-4.5,1.7-.587c.109.776.218,1.552.306,2.192,1.592-.706,2.839-1.727,4.049-1.687a28.66,28.66,0,0,1,5.731,1.311l1.848,2.455,1.826-6.314,3.495-2.552,2.9-1.357,1.213,1.766v.553c-3.3.669-4.158,1.93-3.575,5.046a15.336,15.336,0,0,1,.036,2.736c-.714,1.056-2.063,2.141-2.015,3.16.113,2.385-1.263,2.456-2.916,2.965-4.891,1.508-5.806,6.042-7.529,9.6,4.733,3.369,8.586,1.783,12.717-.7,2.357-1.419,5.457-2.377,8.211-.115,4.985,4.094,9.819,8.326,15.557,11.474,4.7,2.579,9.157,5.3,14.845,4.511,1.321-.185,2.726.348,4.088.326,4.478-.069,8.954-.238,13.429-.371l1.076.011,2.464,2.09c1.83,2.115,3.781,3.536,6.947,3.349,3.149-.187,3.633.838,3.3,4.034a7.867,7.867,0,0,0,.436,2.247c-2.953.62-3.881,1.869-3.045,4.944.409,1.508,1.594,2.808,2.427,4.2.829,1.885,1.686,3.755,2.457,5.661a2.275,2.275,0,0,1,.107,1.587c-1.028,2.278-1.379,4.271,1.508,5.479.155.065-.036.954-.066,1.461-.322.478-.94.971-.912,1.428C926.51,536.776,926.244,538.359,924.6,539.436Z" transform="translate(198.102 221.953)" fill="#f0f0f2" stroke="#fff" stroke-width="1" opacity="0.5"/>
    <path id="Trazado_192" data-name="Trazado 192" d="M929.934,403.837l-.419,5.349.628.083-1.412,2.715c-.043.488-.125.976-.122,1.463.032,3.658-.057,7.324.2,10.966.075,1.056,1.164,2.036,1.789,3.055l2.843,1.632c.241,1,.221,2.187.772,2.966,1.474,2.087,1.047,3.555-.691,5.291-.972.97-1.241,2.644-1.827,4q-.335,2.855-.673,5.71l-4.707,10.984c-.8,1.427-3.934.245-3.47,3.1a8.162,8.162,0,0,1-1.8-1.4c-1.1-1.508-1.7-3.777-3.146-4.574-4.725-2.6-8.618-7.047-14.609-7.068-.377,0-.755-.56-1.126-.869q-3-2.509-6-5.023c3.845-3.673,2.915-9.029,4.666-13.568-.545-.483-1.476-.942-1.809-1.672-.848-1.862-3.361-3.375-1.286-5.967,2.438-3.048,2.186-3.514-.671-6.282-1.365-1.321-2.111-3.26-3.25-4.839-1.37-1.9-2.859-3.72-4.3-5.575l.6-2.327c.376-1.741,1.48-3.725.99-5.172-.984-2.907.874-4.287,2.224-6,1.207-1.526,2.635-2.876,3.966-4.3,2.3,2.955,5.478,3.314,8.88,3.016a9.732,9.732,0,0,1,.765,1.6c1.021,3.724,2.493,6.878,7.185,6.792.493-.009,1.02,1.024,1.508,1.594,2.7,3.153,6.218,5.821,10.94,3.87C927.478,403.006,928.8,403.659,929.934,403.837Zm-29.86,3.514h4.591l-1.466-2.083,2.9.824c-.108-.989-.194-1.788-.281-2.589-1.392-.86-2.139-2.181-3.149-3.254a5.906,5.906,0,0,0-2.773-1.762,3.864,3.864,0,0,0-2.065.48l-.97,4.085,1.45,2.575-3.016.242,1.591,1.421,3.264-1.065c-.026.432-.055.863-.073,1.127Z" transform="translate(193.887 227.092)" fill="#f0f0f2" stroke="#fff" stroke-width="1" opacity="0.5"/>
    <path id="Trazado_193" data-name="Trazado 193" d="M931.22,402.172c-1.131-.179-2.458-.829-3.361-.459-4.723,1.951-8.243-.717-10.941-3.87-.488-.569-1.014-1.6-1.508-1.594-4.691.086-6.164-3.069-7.185-6.792a9.667,9.667,0,0,0-.764-1.6c1.577-3.083,3.274-6.108,4.689-9.265.981-2.186.1-3.851-1.951-5.179a8.713,8.713,0,0,1-2.287-3.016c-1.714-2.923.542-4.8,1.932-6.9l10.047.569a25.285,25.285,0,0,0,2.729.4c2.639.109,5.284.144,7.925.208l1.874,1.81c.1.664-.047,1.652.337,1.94,1.909,1.438,4.063,2.564,5.918,4.057a13.358,13.358,0,0,1,3.1,3.7c1.367,2.39,2.39,4.977,3.724,7.386.27.486,1.537.984,1.906.76,2.413-1.476,3.92.226,5.483,1.453,1.29,1.012,2.261,2.212,3.915.363.356-.4,1.954.318,2.981.52-.9,1.837-1.365,4.116-4.1,4.133a21.161,21.161,0,0,0-2.052-1.131c-.9-.377-1.993-1.091-2.73-.845a11.755,11.755,0,0,0-3.541,2.314c-.418.348-.484,1.119-.709,1.7l-6.425,3.347c-.255.134-.6.211-.747.422C937.434,399.519,934.219,400.684,931.22,402.172Z" transform="translate(192.6 228.757)" fill="#f0f0f2" stroke="#fff" stroke-width="1"/>
    <path id="Trazado_194" data-name="Trazado 194" d="M894.589,445.453l6,5.023c.37.31.75.868,1.127.87,5.992.02,9.885,4.463,14.608,7.068,1.445.8,2.043,3.067,3.147,4.574a8.135,8.135,0,0,0,1.8,1.4c1.972,2.035.7,4.361.546,6.569a25.681,25.681,0,0,1-.6,3.156c-3.286-1.583-7.877,0-10.12-4.013a27.118,27.118,0,0,1-2.564-6.046c-1.393-5.132-3.338-6.143-8.56-4.965a13.752,13.752,0,0,1-6.787-.448c-4.614-1.433-9.037-.361-13.43.57-2.011.425-5.981.431-6.379-1.217-.781-3.225-3.463-4.26-5.617-5.965l1.717-4.147c.335-1.574,1.037-3.178.914-4.716a42.524,42.524,0,0,0-1.479-6.473l4.784-4.854,2.414-.5c.768.654,1.814,1.161,2.261,1.99,2.236,4.163,3.23,4.671,7.277,3.371.949,2.111,1.827,4.165,2.781,6.183C890.263,446.753,890.378,446.784,894.589,445.453Z" transform="translate(195.461 223.847)" fill="#f0f0f2" stroke="#fff" stroke-width="1" opacity="0.5"/>
    <path id="Trazado_195" data-name="Trazado 195" d="M867.114,453.645c2.154,1.7,4.836,2.739,5.617,5.965.4,1.648,4.368,1.642,6.379,1.217,4.393-.93,8.816-2,13.43-.57a13.754,13.754,0,0,0,6.786.448c5.223-1.178,7.167-.167,8.56,4.965a27.111,27.111,0,0,0,2.564,6.046c2.243,4.008,6.835,2.429,10.12,4.013q-1.179,3.74-2.358,7.478-1.559,4.135-3.115,8.27c-1.467-1.154-2.925-2.326-4.409-3.462-2.764-2.111-5.553-4.2-8.314-6.314a16.059,16.059,0,0,1-3.533-2.962c-.775-1.091-.884-2.653-1.4-4.4-4.4,1.277-6.716-2.09-9.741-4.409a17.714,17.714,0,0,0-7.856-3.55c-3.172-.453-6.551.759-9.791.536-2.155-.151-5.892-1.339-6.027-2.42-.436-3.522-3.048-3.78-5.181-4.945V459a15.033,15.033,0,0,0,2.5-1.132C863.313,456.517,865.2,455.059,867.114,453.645Z" transform="translate(196.107 222.233)" fill="#f0f0f2" stroke="#fff" stroke-width="1" opacity="0.5"/>
    <path id="Trazado_196" data-name="Trazado 196" d="M785.618,467c-1.321-.749-2.912-1.239-3.917-2.291a33.817,33.817,0,0,0-17.3-9.551c-1.15-.27-2.743-1.578-2.9-2.6-.415-2.706-2.23-3.191-4.279-3.674,1.491-2.526,3.9-3.591,6.557-4.565,5-1.83,10.694-2.518,13.945-7.63-1.155-1.481-1.547-2.66.878-3.026,5.1-.772,10.2-1.59,15.3-2.39,2.423,1.429,5.367,2.023,6.5,5.327.371,1.088,2.68,2.433,3.75,2.179,2.4-.57,4.031.377,5.806,1.452-1.383,1.177-2.809,2.311-4.13,3.554-.512.48-1.138,1.25-1.077,1.817s.863,1.123,1.441,1.546c1.521,1.114,3.132,2.1,4.639,3.235,1.721,1.291,3.368,2.679,5.053,4.024-.119.916.1,2.308-.411,2.668-2.782,1.961-1.046,3.5.189,5.215a9.126,9.126,0,0,1,.829,2.049,11.007,11.007,0,0,0-10.1,3.442,6.957,6.957,0,0,1-7.563,2.148C794.463,468.8,790.024,467.965,785.618,467Z" transform="translate(203.462 223.852)" fill="#f0f0f2" stroke="#fff" stroke-width="1" opacity="0.5"/>
    <path id="Trazado_197" data-name="Trazado 197" d="M820.911,466.151a9.134,9.134,0,0,0-.83-2.048c-1.235-1.716-2.97-3.252-.189-5.216.512-.36.293-1.753.411-2.669l5.4.664c1.969,2.349,3.1,5.55,6.518,6.428l.631.646q.527,2.25,1.056,4.5-2.5-1.572-4.987-3.146c-.8-.506-1.6-1.018-2.661-1.692C825.244,466.461,823.632,467.718,820.911,466.151Z" transform="translate(199.034 222.047)" fill="#f0f0f2" stroke="#fff" stroke-width="1" opacity="0.5"/>
    <path id="Trazado_198" data-name="Trazado 198" d="M836.446,469.479c1.6-1.96,3.445-1.064,5.456.095-.848.286-1.688.6-2.546.846-.585.17-1.2.256-1.8.377Z" transform="translate(197.728 221.17)" fill="#f0f0f2" stroke="#fff" stroke-width="1" opacity="0.5"/>
    <path id="Trazado_199" data-name="Trazado 199" d="M732.62,265.734c2.875-.8,5.752-1.583,8.622-2.4a16.124,16.124,0,0,0,1.567-.617c3.706,2.275,3.468-2.579,4.774-2.7-.1-1.786-.176-3.2-.271-4.618-.1-1.514-.226-3.026-.336-4.539,3.846-.8,6.7.719,9.51,3.335,1.3,1.214,3.764,1.185,5.929,1.781,1.634-1.24,3.313-3.872,6.033-1.043,2.957-1.2,5.484.186,8.144,1.184.543.2,1.659-.621,2.277-1.214a36.273,36.273,0,0,0,2.746-3.338c.735,1.075,1.135,1.6,1.473,2.166,1.1,1.845,2.3,3.041,4.788,2.044,2.026-.812,3.731.279,4.584,2.168.377.841.064,2,.064,3.468.98,1.488,2.305,3.422,3.543,5.409.354.568.807,1.437.61,1.924-1.251,3.092,1.131,5.168,2.187,7.48.773,1.69,2.546,2.97,4,4.286,1.715,1.544,3.544,1.328,5.682.5,5.925-2.307,11.784-2.186,17.3,1.4-.107,1.237-.786,3.064-.222,3.61,2.639,2.557,1.212,3.349-1.017,5.168-1.653,1.349-1.951,4.358-2.852,6.626-.414.07-.946.341-1.22.178-2.145-1.275-4.1-3-6.393-3.852-1.816-.679-4.016-.334-6.045-.443-2.086,1.141-4.166,2.293-6.263,3.414-.5.27-1.068.425-1.6.654-3.648,1.588-7.652,2.672-10.845,4.91-3.609,2.529-7.175,4.619-11.565,5.07-2.765.285-5.589.185-8.311.678-3.374.611-6,4.124-10.041,2.553-.578-.226-1.573.663-2.391,1-.538.22-1.369.7-1.617.5-3.45-2.773-4.909,1.168-7.226,2.1-.8.324-1.436,1.185-2.237,1.343-.722.144-2.067-.118-2.274-.584-1-2.241-1.7-4.612-2.542-7.038l-2.022,2.544c-.558-.343-1.432-.564-1.622-1.05-1.3-3.378-2.181-6.953-3.771-10.18-1.2-2.442,2.285-5.739-1.6-7.483-.156-.07-.005-.754-.057-1.14-.211-1.646-.458-3.289-.668-4.936-.179-1.4-.678-2.885-.408-4.2.523-2.5,1.536-4.891,2.257-7.354a2.372,2.372,0,0,0-.089-1.848c-1.6-1.914-1.595-3.675.026-5.555C733.366,266.923,732.84,266.2,732.62,265.734Z" transform="translate(205.362 236.925)" fill="#f0f0f2" stroke="#fff" stroke-width="1" opacity="0.5"/>
    <path id="Trazado_200" data-name="Trazado 200" d="M828.834,300.226c.9-2.269,1.2-5.278,2.851-6.627,2.23-1.818,3.656-2.611,1.017-5.168-.563-.546.115-2.373.226-3.61l3.547-.628c2.128,1.567,4.249,3.146,6.39,4.695.6.437,1.266.791,1.9,1.185a5.836,5.836,0,0,1-1.577,5.628c-1.885,2.093-.938,4.318.83,5.437,2.809,1.778,3.289,4.006,2.463,7.444a31.952,31.952,0,0,1,5.266,1.16c2.37.951,5.225,1.253,6.567,3.936.672,1.347,1.26,2.736,1.915,4.171l-2.023,1.734,1.315,1.928c2.315-1.627,4.147-.7,4.722,1.583a58.533,58.533,0,0,1,1.093,9c.022.243-.634.549-.975.825-2.488.829-4.972,1.664-7.465,2.478-3.388,1.1-7.013,1.629-9.53-1.258-2.288-2.626-4.595-5.594-4.4-9.551a2.667,2.667,0,0,0-.615-1.583c-3.984-5.128-3.121-10.892-2.413-16.748-1.3-.193-2.572-.443-1.891-2.552.138-.429-1.106-1.58-1.918-1.972a23.624,23.624,0,0,0-3.933-1.172l.2-.325Z" transform="translate(198.279 234.497)" fill="#f0f0f2" stroke="#fff" stroke-width="1" opacity="0.5"/>
    <path id="Trazado_201" data-name="Trazado 201" d="M767.486,186.466a15.391,15.391,0,0,0-.439-2.839,38.243,38.243,0,0,0-1.654-3.633c-1.729-2.345-3.057-4.764-2.877-7.888.075-1.333-.705-2.715-1.1-4.072l-2.333-1.462c.241-1.583.468-3.07.754-4.964.734.539,1.769.9,2.075,1.595,1.216,2.734,3.506,4.537,5.38,6.7l.668-1.2-.13-.114c-2.247-1.714-4.276-3.57-4.393-6.787a10.483,10.483,0,0,1-1.408-.325c-2.369-.89-4.143-1.121-3.385,2.451.13.613-.633,1.417-1.275,2.728-.114-1.95-.184-3.132-.255-4.374-1.376.15-2.329.275-3.286.31a6.161,6.161,0,0,1-.215-1.07c.326-1.475,1.235-3.176.781-4.349-.316-.818-2.557-1.364-3.837-1.207-1.438.173-2.765,1.272-4.139,1.968l-4.16,1.056,1.408,1.871m0,0,2.249,10.148,1.088-.534.226,2.144.691,3.76,2.229,6.068h0l.629.878.536,6.606c.195,3.482.521,6.964.54,10.448.012,2.477-.389,4.956-.6,7.434-.179,2.064-.328,4.132-.544,6.191-.617,5.9-1.3,11.787-1.885,17.687-.405,4.095-.69,8.2-1.029,12.3,3.846-.8,6.7.719,9.51,3.336,1.3,1.213,3.764,1.184,5.93,1.781,1.634-1.241,3.312-3.873,6.032-1.044,2.957-1.2,5.484.185,8.144,1.184.545.205,1.659-.62,2.278-1.214a36.25,36.25,0,0,0,2.746-3.338c.736,1.075,1.135,1.6,1.473,2.166,1.1,1.845,2.3,3.041,4.786,2.045,2.027-.812,3.732.279,4.584,2.168.377.841.064,2,.064,3.469.98,1.487,2.305,3.421,3.541,5.408.353.568.806,1.437.609,1.924-1.252,3.092,1.132,5.168,2.187,7.481.772,1.689,2.543,2.969,4,4.285,1.714,1.545,3.543,1.328,5.682.5,5.925-2.307,11.783-2.186,17.3,1.4l3.547-.629c.83-2.187,1.606-4.394,2.512-6.548,1.131-2.7,6.087-3.23,9.168-1.063A66.41,66.41,0,0,0,848,271.447a19.361,19.361,0,0,0,4.984,1.622c1.606.367,2.684-.258,3.5-1.89a36.3,36.3,0,0,1,4.031-6.173c.534-.678,2.429-1.3,2.618-1.066,2.054,2.531,4.9.42,7.212,1.343.637.253,1.735-.653,2.625-1.027l2.454-1.093c.212.132.544.225.679.441,2.96,4.747,3.221,4.864,8.427,3.5a2.238,2.238,0,0,0,1.026-.512c1.191-1.238.367-7.811-1.077-8.784-.244-.163-.538-.251-.794-.4-4.921-2.861-4.892-9.274.046-12.231,1.584-.948,3.138-1.938,4.706-2.907l.571-1.114a42.719,42.719,0,0,1-2.851-5.57c-.373-1.056.085-2.419.207-3.64.075-.717.218-1.426.331-2.138-1.66-1.806-2.414-5.232-6.134-3.393-.323.16-.9-.277-1.386-.353-3.287-.523-6.577-1.023-9.866-1.531-1.984,1.624-3.792,3.569-6,4.777-1.874,1.024-4.213,1.195-6.347,1.743-2.933.311-5.865.635-8.8.92-.361.034-.811-.305-1.1-.186-3.637,1.508-7.253,3.065-10.875,4.61,1,3.616,1.033,8.068,3.255,10.621,2.479,2.845,1.147,6.313,3.218,8.823a11.254,11.254,0,0,1,.994,2.509l-6.722-1.4-.377-1.154c-2.581,2.372-5.106,4.809-7.757,7.1-2.56,2.211-5.651,1.032-8.09.205-3.046-1.033-5.616-3.406-8.486-5.032-2.089-1.185-4.368-2.029-6.489-3.161-1-.533-2.42-1.25-2.625-2.122-1.432-6.107-6.517-7.942-11.4-9.8-1.508-.575-2.325-.957-2.574-2.575-.123-.805-.877-1.5-1.282-2.28-.346-.671-.98-1.492-.824-2.069.572-2.149.836-4.839,2.277-6.2,3.133-2.961.79-5.443-.6-7.169a22.314,22.314,0,0,1-4.011-7.345,10.218,10.218,0,0,0-7.89-7.294c-3.679-.882-6.184-6.008-5.7-10.247.125-1.1-.628-2.308-1.029-3.448-.272-.773-1.1-1.715-.873-2.235,1.067-2.466-.2-4.053-1.71-5.64" transform="translate(204.544 243.779)" fill="#f0f0f2" stroke="#fff" stroke-width="1" opacity="0.5"/>
    <path id="Trazado_202" data-name="Trazado 202" d="M751.952,210.471q.033-8.94.066-17.882c.194,3.482.52,6.965.539,10.448C752.571,205.514,752.172,207.993,751.952,210.471Z" transform="translate(203.843 241.126)" fill="#f0f0f2" stroke="#fff" stroke-width="1" opacity="0.5"/>
    <path id="Trazado_203" data-name="Trazado 203" d="M865.4,333.215c.341-.277,1-.583.975-.829a58.519,58.519,0,0,0-1.093-9c-.579-2.288-2.408-3.213-4.723-1.583l-1.314-1.928,2.023-1.734c-.655-1.433-1.241-2.824-1.915-4.17-1.341-2.684-4.2-2.985-6.567-3.937a31.832,31.832,0,0,0-5.266-1.16c.829-3.438.347-5.665-2.464-7.444-1.767-1.119-2.714-3.345-.829-5.437a5.837,5.837,0,0,0,1.577-5.624c2.762-2.751,2.741-2.728,6.285.36.724.63,1.7.962,2.489,1.522,1.557,1.1,3.77,1.282,3.866,4.158.084,2.513,2.338,3.681,4.755,4.057,3.226.5,6.616,1.788,9.651,1.215,3.261-.616,4.567.368,5.367,2.974a6.1,6.1,0,0,1,.011,3.332c-.994,3.375.1,6.519.884,9.672.5,1.982,1.81,2.82,4.044,2.186,2.458-.694,3.9.5,4.249,3.123-1.917,1.009-3.071,2.346-2.874,4.772.058.733-1.18,1.556-1.791,2.362-.878,1.16-1.725,2.343-2.584,3.519l-7.636,2.455c-.746.165-1.487.363-2.239.489C868.579,336.856,865.633,334.81,865.4,333.215Z" transform="translate(197.24 234.195)" fill="#f0f0f2" stroke="#fff" stroke-width="1" opacity="0.5"/>
    <path id="Trazado_204" data-name="Trazado 204" d="M947.723,342.95a24.776,24.776,0,0,0,11.806,9.421c.569.238.824,1.22,1.225,1.856a28.7,28.7,0,0,0-4.531-1.114c-2.029-.177-4.088.006-6.134.033a7.131,7.131,0,0,0-2.022.185c-1.9.754-4.034,2.639-5.52,2.2-1.564-.464-2.489-3.1-3.686-4.788a11.7,11.7,0,0,0,1.335-2.367,14.913,14.913,0,0,0,.3-2.955Z" transform="translate(190.316 230.244)" fill="#f0f0f2" stroke="#fff" stroke-width="1" opacity="0.5"/>
    <path id="Trazado_205" data-name="Trazado 205" d="M938.39,351.348c1.2,1.687,2.122,4.324,3.686,4.787,1.485.441,3.624-1.443,5.519-2.2a7.135,7.135,0,0,1,2.022-.185c-.855.941-1.763,1.839-2.555,2.83-1.107,1.386-2.164,2.814-3.179,4.271-2.349,3.373-5.469,5.128-9.652,4.754l-1.873-1.81a21.6,21.6,0,0,0,3.021-7.7Z" transform="translate(190.786 229.636)" fill="#f0f0f2" stroke="#fff" stroke-width="1" opacity="0.5"/>
    <path id="Trazado_206" data-name="Trazado 206" d="M947.586,342.395l-7.226,2.467-2.307-.062q-.544-3.26-1.088-6.518a11.894,11.894,0,0,0,5.828,1.415l-3.463-2.932.307-.77,7.3-.714,2.628,1.391Z" transform="translate(190.453 230.799)" fill="#f0f0f2" stroke="#fff" stroke-width="1" opacity="0.5"/>
    <path id="Trazado_207" data-name="Trazado 207" d="M909.069,362.672c-1.391,2.093-3.646,3.973-1.931,6.895a8.7,8.7,0,0,0,2.286,3.016c2.052,1.328,2.934,2.991,1.952,5.179-1.417,3.154-3.112,6.184-4.689,9.265-3.4.3-6.583-.061-8.881-3.017q0-2.88,0-5.761l2.6-2.256c-.631-2.862-1.068-4.844-1.5-6.827a20.391,20.391,0,0,1,.336-3.9c1.026-3.668,2.186-7.257-1.933-9.926-.405-.263-.493-1.015-.728-1.541l2.311-1.763c.788,1.68.18,4.5,3.438,4.207.136-.012.25.818.528,1.115,1.172,1.261,1.094,3.989,4.062,3.267C907.44,360.5,908.344,361.951,909.069,362.672Z" transform="translate(193.376 229.587)" fill="#f0f0f2" stroke="#fff" stroke-width="1" opacity="0.5"/>
    <path id="Trazado_208" data-name="Trazado 208" d="M934.551,355.96a21.611,21.611,0,0,1-3.02,7.7c-2.639-.063-5.286-.1-7.926-.208a25.309,25.309,0,0,1-2.729-.4,67.074,67.074,0,0,0,2.844-6.7,59.894,59.894,0,0,0,1.324-6.875,3.135,3.135,0,0,1,.558-.07c1.625,1.832,2.591,4.355,5.806,4.338C932.451,353.737,933.5,355.18,934.551,355.96Z" transform="translate(191.617 229.777)" fill="#f0f0f2" stroke="#fff" stroke-width="1" opacity="0.5"/>
    <path id="Trazado_209" data-name="Trazado 209" d="M894.464,353.562c.236.528.323,1.282.729,1.541,4.116,2.67,2.959,6.259,1.933,9.927a20.405,20.405,0,0,0-.336,3.9c-.836.7-1.68,1.387-2.506,2.1-1.207,1.033-2.618,3.122-3.544,2.921-2.329-.506-2.95.92-4.014,2.148-1.708,1.976-3.478,3.9-5.806,6.494-.767-3.009-.94-5.354-1.979-7.217-.8-1.439-2.639-2.35-4.137-3.313a1.854,1.854,0,0,0-1.678.638,48.317,48.317,0,0,0-1.863,4.57l-2.865-1.219a7.4,7.4,0,0,1-.408-1.621c-.055-2.251.561-4.739-.207-6.695a5.648,5.648,0,0,1,.545-5.391c4.731,1.041,9.432,2.171,13.112-2.532a5.832,5.832,0,0,0,1.357-5.6c-.407-1.649.594-3.647.966-5.489C886.884,351.327,889.72,354.554,894.464,353.562Z" transform="translate(195.493 229.826)" fill="#f0f0f2" stroke="#fff" stroke-width="1" opacity="0.5"/>
    <path id="Trazado_210" data-name="Trazado 210" d="M883.83,347.886c-.372,1.842-1.375,3.84-.965,5.489a5.829,5.829,0,0,1-1.357,5.6c-3.681,4.7-8.382,3.573-13.112,2.532a19.492,19.492,0,0,1-.174-3.068c.163-1.746.512-3.475.782-5.21.555-.77,1.154-1.508,1.659-2.314,1.947-3.116,7.013-5.237,3.289-10.211-.129-.172.237-.715.373-1.085l7.637-2.455c-.279,1.177-.559,2.356-1.042,4.39C881.59,343.01,882.71,345.448,883.83,347.886Z" transform="translate(195.429 230.663)" fill="#f0f0f2" stroke="#fff" stroke-width="1" opacity="0.5"/>
    <path id="Trazado_211" data-name="Trazado 211" d="M934.92,355.326c-1.048-.78-2.1-2.224-3.145-2.219-3.215.018-4.182-2.505-5.806-4.338a11.484,11.484,0,0,1,.95-1.76c1.546-1.981,3.146-3.921,5.127-6.369.286.269.993.985,1.75,1.645,1.135.989,2.305,1.937,3.46,2.9l2.307.062a15.074,15.074,0,0,1-.3,2.956,11.772,11.772,0,0,1-1.336,2.367Z" transform="translate(191.249 230.411)" fill="#f0f0f2" stroke="#fff" stroke-width="1" opacity="0.5"/>
    <path id="Trazado_212" data-name="Trazado 212" d="M736.515,314.183l2.022-2.544c.842,2.426,1.546,4.8,2.541,7.039.208.467,1.552.727,2.274.583.8-.158,1.436-1.019,2.238-1.342,2.316-.934,3.775-4.874,7.225-2.1.247.2,1.08-.283,1.617-.5.818-.335,1.81-1.224,2.392-1,4.042,1.572,6.666-1.942,10.04-2.553,2.722-.493,5.545-.394,8.312-.678,4.389-.453,7.955-2.542,11.565-5.07,3.193-2.238,7.2-3.322,10.844-4.91.528-.225,1.092-.383,1.6-.653,2.1-1.122,4.176-2.273,6.259-3.414-.89,4.252-2.79,5.739-6.882,5.929a24.57,24.57,0,0,0-6.019,1.254,2.254,2.254,0,0,0-1.152,1.879c1.1,3.887-.959,6.046-3.9,7.912a3.029,3.029,0,0,0-1.047,1.878c-.6,3.255-.932,3.393-3.984,2.5-.653-.19-1.659.829-2.5,1.289l3.376,4.393,2.005-.548c2.108,1.907,4.637,3.176,5.412,5.137,1.2,3.031,3.064,3.492,5.706,3.318.332,1.735.237,3.873,3.1,3.242a11.131,11.131,0,0,1,.507,1.43c-.4.359-1.056.661-1.144,1.086-.472,2.209-.679,4.479-1.224,6.667A24.581,24.581,0,0,1,796,348.3c-2.509-.062-3.976,1.461-3.624,3.853a59.407,59.407,0,0,0-1.734,7.4c-.381,3.485-1.609,5.187-5.086,4.969a32.7,32.7,0,0,1-7.836-1.805c-2.093-.678-8.029.628-8.672,2.535-.722,2.154-3.921,4-1.141,6.872.4.408-.226,1.694-.169,2.56.2,3.058.151,6.2.868,9.138.523,2.134.188,3.249-1.764,3.839-2.795.844-5.627,1.563-8.533,2.359,2.1,3.132-1.913,1.635-2.8,2.3.547,1.649,1.6,3.147,1.332,4.362a4.981,4.981,0,0,1-5.135,4.213,63.233,63.233,0,0,0-8.889,1.554c-5.283,1.027-10.561,2.087-15.841,3.134-.411-3.041-3.212-6.828-4.419-7.14-3.052,1.2-5.256,2.079-7.468,2.934-.453.175-1.1.113-1.381.417-1.575,1.685-2.785,4.235-5.765,1.821a42.638,42.638,0,0,0-3.183,3.226c-2.041-1.659-.586-3.306,1.1-4.934L703.4,398c-3.052,4.606-6,1.514-8.986.383q1.837-9.812,3.678-19.624c.035-.192.211-.389.179-.557-1.182-6.229,2.9-8.074,7.7-9.707,3.066-1.045,5.89-2.8,9.25-4.454-.411-.256-.139.057.055.013,6.223-1.385,7.645,5.526,12.171,7a10.818,10.818,0,0,0,3.194.046c.192-2.827.357-5.254.524-7.681a6.293,6.293,0,0,0,.62-1.835q.081-6.762,0-13.523a6.023,6.023,0,0,0-.651-1.82c.11-1.748.253-3.494.325-5.244.116-2.805.184-5.614.272-8.422.93-1.961,1.35-4.62,2.89-5.731,3.7-2.674,1.922-5.1,1.156-7.672Z" transform="translate(208.007 233.567)" fill="#f0f0f2" stroke="#fff" stroke-width="1" opacity="0.5"/>
    <path id="Trazado_213" data-name="Trazado 213" d="M729.526,409.894c5.278-1.047,10.557-2.108,15.841-3.135a62.926,62.926,0,0,1,8.889-1.552,4.985,4.985,0,0,0,5.136-4.213c.263-1.214-.786-2.714-1.332-4.362.887-.669,4.9.829,2.8-2.3,2.906-.8,5.739-1.515,8.533-2.359,1.953-.591,2.288-1.706,1.764-3.84-.719-2.94-.666-6.079-.868-9.138-.057-.865.565-2.151.169-2.559-2.779-2.865.419-4.719,1.141-6.872.638-1.907,6.574-3.211,8.671-2.535a32.753,32.753,0,0,0,7.834,1.805c3.478.219,4.706-1.485,5.086-4.97a58.725,58.725,0,0,1,1.735-7.4c.361.243,1.006.453,1.039.734.328,2.847,1.291,4.763,4.693,3.7.193-.06.5.246.754.382.242.98.467,1.971.731,2.95.528,1.965,1.082,3.925,1.625,5.888-2.953.641-3.261,2.159-3.261,5.248,0,3.2-2.186,6.525-3.933,9.489-.34.577-3.061-.25-4.694-.43-.564,4.6.61,6.547,4.776,7.751a2.065,2.065,0,0,1,1.056.9c1.433,2.394.554,8.346-1.485,10.148-3.154,2.79-6.329,5.553-9.458,8.295,2.275,3.3,3.935,5.7,2.042,8.719a4,4,0,0,0,1.626,1.32c2.391.722,3.059,2.54,1.462,4.321-5.1.8-10.193,1.618-15.3,2.389-2.424.367-2.032,1.547-.878,3.027-3.25,5.112-8.949,5.8-13.946,7.63-2.657.973-5.065,2.036-6.557,4.564-2.6,1.837-4.985,2.422-7.824.029-1.367-1.153-2.01-1.64-1.583-3.615a6.95,6.95,0,0,0-2.706-6.752c-2.74-2.242-5.882-3.992-8.667-6.184-1.012-.8-1.5-2.257-2.232-3.415.98-.61,1.961-1.207,2.926-1.835.515-.336,1.428-.771,1.4-1.094a7.139,7.139,0,0,0-.9-2.865,3.326,3.326,0,0,0-1.721-1.357C730.713,415.349,729.94,412.759,729.526,409.894Z" transform="translate(205.466 229.267)" fill="#f0f0f2" stroke="#fff" stroke-width="1" opacity="0.5"/>
    <path id="Trazado_214" data-name="Trazado 214" d="M736.565,309.236l-.738,4.984c.766,2.571,2.543,5-1.157,7.67-1.539,1.113-1.96,3.775-2.89,5.731l-5.03,1.183c.5.842.877,1.467,1.25,2.092q-1,1.032-2.009,2.057a7.173,7.173,0,0,1-1.352.075c-.809-.1-1.728-.615-2.37-.364-.573.226-.893,1.222-1.214,1.928a13.963,13.963,0,0,0-.575,1.917,53.765,53.765,0,0,1-4.6,4.91,17.95,17.95,0,0,1-4.062,2l-.931-.8c.493-2.529.287-5.548,1.637-7.477,2.24-3.2,1.525-6.12.963-9.363-.568-3.275-.508-6.676-1.275-9.89a69.175,69.175,0,0,0-3.544-10.266,7.1,7.1,0,0,0-5.778-4.482c-1.006-.165-1.829-1.444-2.736-2.213a10.764,10.764,0,0,1,2.216-2.469c2.512-1.461,3.129-3.9.817-5.914-4.692-4.091-6.683-9.2-6.978-15.262-.2-4.143-.759-8.267-1.157-12.4q.01-1.135.022-2.273v-.725c1.457-4.449,2.924-8.9,4.363-13.352.269-.829.81-1.821.579-2.528-1.691-5.175.179-9.611,2.613-13.976a3.2,3.2,0,0,0,.2-.86l1.627-.491c.883,2.753,1.282,5.637,2.71,7.853.905,1.4,3.351,1.814,5.107,2.672.144,1.918.194,3.85.457,5.751.311,2.235,3.37,4.663,6.283,5.149-.257,1.1-.865,2.262-.655,3.261.158.748,1.366,1.274,2.2,1.981-.521,2.568,2.1,5.2,5.646,5.151.15,2.317.838,4.241,3.818,3.645.219.462.746,1.19.611,1.346-1.62,1.879-1.629,3.641-.026,5.555a2.377,2.377,0,0,1,.09,1.848c-.721,2.463-1.735,4.855-2.257,7.354-.275,1.314.225,2.8.407,4.2.21,1.647.456,3.289.669,4.936.05.389-.1,1.07.057,1.14,3.887,1.744.4,5.041,1.6,7.483,1.587,3.23,2.463,6.8,3.77,10.18C735.13,308.672,736.007,308.892,736.565,309.236Z" transform="translate(207.961 238.514)" fill="#f0f0f2" stroke="#fff" stroke-width="1" opacity="0.5"/>
    <path id="Trazado_215" data-name="Trazado 215" d="M734,350.075a6.018,6.018,0,0,1,.651,1.819q.083,6.761,0,13.523a6.3,6.3,0,0,1-.62,1.835Q734.02,358.662,734,350.075Z" transform="translate(205.142 229.729)" fill="#f0f0f2" stroke="#fff" stroke-width="1" opacity="0.5"/>
    <path id="Trazado_216" data-name="Trazado 216" d="M722.464,344.618a13.976,13.976,0,0,1,.575-1.918c.322-.705.641-1.7,1.214-1.927.642-.252,1.562.26,2.37.363a7.164,7.164,0,0,0,1.352-.075c-.118,1.389-.3,2.559-1.885.866a1.662,1.662,0,0,0-1.369-.324c-.293.07-.741.823-.643.991C725.352,344.762,722.936,343.911,722.464,344.618Z" transform="translate(205.977 230.407)" fill="#f0f0f2" stroke="#fff" stroke-width="1" opacity="0.5"/>
    <g id="Grupo_28" data-name="Grupo 28" transform="translate(917.246 404.62)" opacity="0.5">
      <path id="Trazado_217" data-name="Trazado 217" d="M740.056,235.447c-.658-2.973-.116-5.5.726-8.35.7-2.361-.2-5.165-.2-7.772a39.165,39.165,0,0,1,.6-4.563,9.481,9.481,0,0,0,.071-2.121c-.047-.456-.643-1.069-.5-1.3,1.779-2.825-.566-5.036-1-7.521a5.154,5.154,0,0,1,.141-2.262c1.092-3.695,2.263-7.365,3.445-11.182-7.307-.879-7.307-.879-7.437-4.1l-5.887-5.957-1.666-1.15c-.413,1.185-.839,2.413-1.267,3.64l-.6-.753a27.44,27.44,0,0,0-.649-2.877c-.753.378-2.488-2.5-3.242-2.122-.231-1.386.429.489.311-.9-.186-2.18-.591-4.11-3.4-4.2l1.842-2.97a.379.379,0,0,0,.238-.168c-.377-1.237-.75-2.475-1.206-3.976a4.046,4.046,0,0,0,.829-1.062,16.978,16.978,0,0,0,.649-2.365,13.324,13.324,0,0,0-2.406-.188,4.756,4.756,0,0,0-1.489.722l-5.083,2.986.017.023-.018-.023c-1.022.972-2.044,1.945-2.481,2.362.947,3.031,1.682,5.379,2.417,7.727,0,.2.009.4.014.6l1.181-.666c-.039-.194-.068-.4-.092-.6.024.2.053.406.092.6l4.355,1.849.589-.665q.779,2.091,1.556,4.184l.632,2.865c1.064,2.826,3.735,5.58.431,8.6-.242.222-.692.218-1.045.319-.064.485.057,1.181-.22,1.424-3.354,2.949-2.474,7.56-4.392,11.065a2.688,2.688,0,0,0-.116,1.748c.981,4.166-1.044,7.532-3.04,10.783-3.369,5.493-3.083,10.786,1.147,16.106.108.135-.338.712-.528,1.083.145,1.918.195,3.85.458,5.75.311,2.236,3.37,4.664,6.283,5.15-.257,1.1-.865,2.262-.656,3.26.158.749,1.366,1.275,2.2,1.982-.52,2.568,2.106,5.2,5.646,5.151.151,2.316.838,4.241,3.819,3.645,2.873-.8,5.75-1.583,8.621-2.4a16.105,16.105,0,0,0,1.567-.617c.093-3.2.416-6.424.217-9.611A72.834,72.834,0,0,0,740.056,235.447Z" transform="translate(-710.395 -161.224)" fill="#f0f0f2" stroke="#fff" stroke-width="1"/>
      <path id="Trazado_218" data-name="Trazado 218" d="M735.809,181.957l-.12-.762-3.54.036-.6.536,5.887,5.956C737.776,185.551,737.524,183.547,735.809,181.957Z" transform="translate(-711.926 -162.669)" fill="#f0f0f2" stroke="#fff" stroke-width="1"/>
    </g>
    <path id="Trazado_219" data-name="Trazado 219" d="M695.069,262.32v0Z" transform="translate(207.96 236.08)" fill="#f0f0f2" stroke="#fff" stroke-width="1" opacity="0.5"/>
    <path id="Trazado_220" data-name="Trazado 220" d="M700.164,228.742c-.539-.206-1.1-.636-1.615-.583-3.091.331-4.54-1.282-5.533-3.992-.266-.725-1.912-.945-2.924-1.4-.348.478-.933.924-1,1.439-.293,2.218-.288,4.313-2.65,5.812-1.767,1.123-2.962,3.147-4.61,4.992a2.768,2.768,0,0,0,.253.726c.339.612.739,1.189,1.116,1.78a14.26,14.26,0,0,1-2.388,1.233c-2.093.633-4.223,1.126-6.183,1.634l-4.544-1.325,1.72,4.3L666.954,240a25.2,25.2,0,0,0-.019,3.736,25.215,25.215,0,0,1,.019-3.736,16.742,16.742,0,0,0-1.87-2.255c-1.29-1.113-2.7-2.081-4.072-3.109.075.584.372,1.591.19,1.686-3.595,1.893-3.092,5.288-2.43,8.123.923,3.941,2.7,7.683,4.11,11.51l2.325,5.971q.529,2.393,1.056,4.787v3.843c3.469-.183,2.87-4.3,5.3-5.686a55.566,55.566,0,0,1,5.744,5.523,4.2,4.2,0,0,1,.386,3.881c-.908,1.408-1.259,2.282-.483,3.9.456.95-.131,2.4-.249,3.627a27.1,27.1,0,0,0,2.947.649c1.592.18,3.2.226,4.8.327,3.86-.135,2.187-3.167,1.879-4.571-.695-3.141.327-5.494,1.909-7.975a55.53,55.53,0,0,0,2.736-5.572c.364-.742.768-1.466,1.155-2.2l.022-2.273v-.725c1.457-4.449,2.924-8.9,4.363-13.352.268-.829.809-1.821.578-2.528-1.69-5.174.179-9.611,2.614-13.976A3.211,3.211,0,0,0,700.164,228.742Z" transform="translate(210.621 238.942)" fill="#f0f0f2" stroke="#fff" stroke-width="1" opacity="0.5"/>
    <path id="Trazado_221" data-name="Trazado 221" d="M718.3,180.756q-.776-2.091-1.556-4.184l-.588.665-4.356-1.848-1.181.665c-.006.148-.008.3-.007.444m0,0c0-.15,0-.3.007-.444,0-.2-.008-.4-.014-.6-1.164-1.455-2.338-2.9-3.489-4.365-1.043-1.329-1.833-3.347-3.162-3.8-.968-.328-2.632,1.4-3.986,2.213l.528.528c1.344-1.34,2.488-1.986,3.4-1.932-.913-.055-2.06.592-3.4,1.932l-.528-.528a12.256,12.256,0,0,1-2.192,3.533l-.117-.015c.02.027.045.049.065.076a28.376,28.376,0,0,1-2.058,2.111,39.628,39.628,0,0,0-3.912,4.993c-.425.425-.845,1.207-1.276,1.214-2.186.031-2.941,1.449-3.051,3.2a17.2,17.2,0,0,0,.6,3.811l-1.85.623L683.006,192l-2.25,1.735a23.939,23.939,0,0,0,3.243,1.5c3.41.98,3.432.967,1.836,4.291-.2.412-.286.877-.859.788l-3.913,2.356-1.069,2.221c3.167,2.1,3.726,4.306,1.722,7.286l9.941,6.581c1.012.452,2.658.673,2.923,1.4.994,2.714,2.439,4.324,5.534,3.992.512-.055,1.075.377,1.614.583l1.628-.492c.883,2.754,1.282,5.637,2.71,7.853.9,1.405,3.351,1.815,5.105,2.672.188-.37.634-.945.528-1.082-4.23-5.319-4.517-10.613-1.147-16.105,2-3.254,4.02-6.62,3.04-10.784a2.686,2.686,0,0,1,.115-1.748c1.919-3.5,1.04-8.116,4.393-11.064.276-.244.155-.94.22-1.425.353-.1.8-.1,1.046-.318,3.305-3.028.632-5.779-.432-8.606q-.316-1.433-.631-2.865" transform="translate(209.051 242.96)" fill="#f0f0f2" stroke="#fff" stroke-width="1" opacity="0.5"/>
    <path id="Trazado_222" data-name="Trazado 222" d="M910.45,499.255c-4.477.132-8.952.3-13.429.371-1.363.02-2.767-.511-4.088-.327-5.688.789-10.144-1.932-14.845-4.511-5.738-3.148-10.571-7.381-15.557-11.474-2.754-2.262-5.854-1.3-8.212.115-4.13,2.488-7.984,4.071-12.717.7,1.721-3.562,2.639-8.1,7.529-9.6,1.652-.508,3.029-.58,2.915-2.965-.049-1.019,1.3-2.1,2.015-3.16,2.991,3.619,3.172,3.582,8,2.088a3.755,3.755,0,0,1,3.158.8,23.87,23.87,0,0,1,3.253,4.621c1.4,2.329,3.033,3.944,6.1,3.846a16.081,16.081,0,0,1,5.311,1.174c4.645,1.526,9.243,3.192,13.875,4.762,1.723.584,3.637.789,5.184,1.659a22.443,22.443,0,0,1,3.976,3.55c1.124,1.067,2.272,2.119,3.3,3.274C907.678,495.822,909.043,497.557,910.45,499.255Z" transform="translate(197.355 221.165)" fill="#f0f0f2" stroke="#fff" stroke-width="1" opacity="0.5"/>
    <path id="Trazado_223" data-name="Trazado 223" d="M911.406,498.648c-1.407-1.7-2.773-3.432-4.236-5.079-1.028-1.156-2.176-2.208-3.3-3.274a22.381,22.381,0,0,0-3.976-3.55c-1.547-.873-3.46-1.077-5.185-1.659-4.63-1.571-9.227-3.236-13.874-4.763a16.136,16.136,0,0,0-5.312-1.173c-3.066.1-4.695-1.517-6.1-3.846a23.821,23.821,0,0,0-3.253-4.622,3.758,3.758,0,0,0-3.157-.8c-4.826,1.494-5.008,1.531-8-2.088a15.4,15.4,0,0,0-.035-2.737c-.583-3.115.271-4.373,3.575-5.045,2.133,1.163,4.744,1.421,5.181,4.944.134,1.082,3.871,2.271,6.027,2.419,3.242.226,6.62-.987,9.791-.536a17.7,17.7,0,0,1,7.855,3.55c3.026,2.32,5.339,5.686,9.742,4.409.52,1.748.629,3.311,1.4,4.4a16.065,16.065,0,0,0,3.533,2.962c2.761,2.118,5.55,4.2,8.314,6.314,1.484,1.135,2.94,2.308,4.409,3.463q-1.167,3.359-2.33,6.721Z" transform="translate(196.399 221.772)" fill="#f0f0f2" stroke="#fff" stroke-width="1" opacity="0.5"/>
    <path id="Trazado_224" data-name="Trazado 224" d="M833.928,462.983l-.631-.646c.277-2.205.593-4.407.813-6.619a24.531,24.531,0,0,1,.176-3.778,44.755,44.755,0,0,1,1.944-5.013l9.454-4.155,2.322.029.679.684.644,1.583c-.641,1-1.07,2.288-1.96,2.929-2.249,1.612-2.346,3.94-.068,5.408.747.481,1.686,1.187,1.854,1.942.482,2.176,1.679,2.859,3.727,2.454l-3.495,2.552-1.825,6.313c-1-1.334-1.427-1.894-1.848-2.456l-5.173-2.253.19-.679-5.1,1.117Z" transform="translate(197.956 223.02)" fill="#f0f0f2" stroke="#fff" stroke-width="1" opacity="0.5"/>
    <path id="Trazado_225" data-name="Trazado 225" d="M866.7,453.239c-1.916,1.414-3.8,2.872-5.763,4.218a14.987,14.987,0,0,1-2.5,1.131l-1.213-1.765c-.725-1.069-2.129-2.2-2.036-3.192.2-2.213-.29-3.807-2.066-5.057,1.247-.166,2.661-.794,3.711-.415,3.51,1.27,6.89,2.74,10.538.475.185-.114.693.289,1.05.453Z" transform="translate(196.521 222.639)" fill="#f0f0f2" stroke="#fff" stroke-width="1" opacity="0.5"/>
    <path id="Trazado_226" data-name="Trazado 226" d="M852.646,448.376c1.774,1.25,2.267,2.843,2.064,5.057-.091.993,1.313,2.123,2.036,3.191l-2.9,1.357c-2.047.405-3.242-.277-3.727-2.454-.168-.753-1.108-1.46-1.853-1.942-2.278-1.467-2.181-3.795.067-5.408.9-.641,1.323-1.933,1.96-2.929Q851.47,446.814,852.646,448.376Z" transform="translate(196.993 222.84)" fill="#f0f0f2" stroke="#fff" stroke-width="1" opacity="0.5"/>
    <path id="Trazado_227" data-name="Trazado 227" d="M835.811,463.84l5.1-1.117-.19.679,5.173,2.252a28.922,28.922,0,0,0-5.731-1.31c-1.211-.04-2.457.981-4.049,1.688C836.026,465.393,835.918,464.615,835.811,463.84Z" transform="translate(197.774 221.576)" fill="#f0f0f2" stroke="#fff" stroke-width="1" opacity="0.5"/>
    <path id="Trazado_228" data-name="Trazado 228" d="M895.241,443.6c-4.213,1.331-4.326,1.3-6.16-2.575-.953-2.015-1.832-4.065-2.781-6.184-4.048,1.3-5.041.793-7.277-3.371-.445-.829-1.492-1.336-2.262-1.99.336-.693.653-1.4,1.012-2.077,1.534-2.908,3.242-5.677,6.224-7.36,3.37-1.905,3.985-3.179,3.452-7.229a2.134,2.134,0,0,1-.009-.591c.339-2.282-.138-4.19-2.394-5.3l3.55-1.236c1.438,1.855,2.926,3.673,4.3,5.576,1.138,1.58,1.885,3.518,3.25,4.839,2.859,2.768,3.109,3.233.67,6.281-2.075,2.593.439,4.106,1.286,5.967.333.731,1.264,1.19,1.81,1.673C898.156,434.568,899.084,439.924,895.241,443.6Z" transform="translate(194.81 225.704)" fill="#f0f0f2" stroke="#fff" stroke-width="1" opacity="0.5"/>
    <path id="Trazado_229" data-name="Trazado 229" d="M887.683,404.994l-3.549,1.235c-.8.5-1.936.805-2.354,1.527-2.9,5.007-7.088,6.441-12.5,4.889-.075-3.434-1.407-6.465-3.027-9.4a13.38,13.38,0,0,1-1.246-2.538c-.411-1.607-2.015-3.492.7-4.658a8.592,8.592,0,0,0,1.557.633c4.072.8,8.137,1.651,12.235,2.291a16.849,16.849,0,0,0,3.989-.314l2.329,2.789,2.463,1.22Z" transform="translate(195.722 226.402)" fill="#f0f0f2" stroke="#fff" stroke-width="1" opacity="0.5"/>
    <path id="Trazado_230" data-name="Trazado 230" d="M889.908,401.526l-2.461-1.219c-.093-3.967,1.4-7.986-.623-11.914-.384-.747.032-2.171.51-3.047,2.087-3.833,6.134-4.071,9.758-5.052q0,2.88,0,5.762c-1.33,1.428-2.759,2.778-3.965,4.3-1.351,1.709-3.21,3.092-2.225,6C891.388,397.8,890.29,399.786,889.908,401.526Z" transform="translate(194.093 227.542)" fill="#f0f0f2" stroke="#fff" stroke-width="1" opacity="0.5"/>
    <path id="Trazado_231" data-name="Trazado 231" d="M900.526,408.286c.018-.264.046-.695.076-1.126l-3.263,1.066-1.591-1.422,3.017-.242c-.687-1.219-1.248-2.216-1.45-2.575l.97-4.085a3.866,3.866,0,0,1,2.065-.481,5.9,5.9,0,0,1,2.773,1.763c1.01,1.073,1.757,2.394,3.149,3.254.087.8.174,1.6.281,2.589l-2.9-.824,1.467,2.083Z" transform="translate(193.436 226.158)" fill="#f0f0f2" stroke="#fff" stroke-width="1" opacity="0.5"/>
    <path id="Trazado_232" data-name="Trazado 232" d="M869.633,413.438c5.411,1.554,9.6.12,12.5-4.888.418-.722,1.552-1.029,2.354-1.527,2.255,1.108,2.734,3.017,2.393,5.3a2.182,2.182,0,0,0,.01.591c.533,4.05-.082,5.324-3.453,7.229-2.979,1.684-4.689,4.449-6.224,7.36-.359.679-.679,1.383-1.012,2.077l-2.413.5c-.566-2.318-.946-4.714-3.809-5.531-.385-.11-.534-1.236-.689-1.915a18.356,18.356,0,0,1-.251-2.036Q869.337,417.018,869.633,413.438Z" transform="translate(195.369 225.607)" fill="#f0f0f2" stroke="#fff" stroke-width="1" opacity="0.5"/>
    <path id="Trazado_233" data-name="Trazado 233" d="M867.84,421.578a18.815,18.815,0,0,0,.252,2.035c.156.679.3,1.805.689,1.916,2.865.817,3.243,3.214,3.809,5.531l-4.784,4.853-3.45-.616-3.085-5.572-7.069-1.094-1.716-3.468a9.572,9.572,0,0,0,2.8-.519c2.3-1.212,4.488-2.62,6.921-4.072C863.63,423.115,865.686,422.671,867.84,421.578Z" transform="translate(196.567 224.627)" fill="#f0f0f2" stroke="#fff" stroke-width="1" opacity="0.5"/>
    <path id="Trazado_234" data-name="Trazado 234" d="M864.169,436.448q1.726.306,3.45.615a42.682,42.682,0,0,1,1.479,6.473c.123,1.539-.579,3.143-.914,4.716-.358-.162-.865-.567-1.05-.453-3.65,2.263-7.029.795-10.539-.475-1.05-.377-2.465.249-3.71.415l-2.352-3.126-.643-1.583c4.109-1.408,8.249-2.734,12.3-4.289C863.021,438.416,863.52,437.232,864.169,436.448Z" transform="translate(196.755 223.478)" fill="#f0f0f2" stroke="#fff" stroke-width="1" opacity="0.5"/>
    <path id="Trazado_235" data-name="Trazado 235" d="M796.361,426.93c1.6-1.781.929-3.6-1.462-4.322a4,4,0,0,1-1.626-1.319c1.893-3.02.233-5.422-2.042-8.719,3.129-2.743,6.3-5.5,9.458-8.295,2.036-1.8,2.917-7.754,1.485-10.148a2.066,2.066,0,0,0-1.056-.9c-4.166-1.207-5.34-3.156-4.776-7.751,1.632.18,4.353,1.007,4.694.43,1.748-2.965,3.932-6.289,3.933-9.489,0-3.088.308-4.607,3.261-5.247,3.89,2.094,3.317,6.119,4.051,9.549a2.714,2.714,0,0,1-.71,1.86c-1.237,1.558-2.772,2.908-3.838,4.566-1.233,1.917.65,9.388,2.739,11.445,2.143,2.111,4.7,3.873,6.527,6.216,2.8,3.6,9.152,4.9,7.616,11.448a21.753,21.753,0,0,0-.164,4.275c-.761,3.066-2.386,5.128-5.536,4.736v5.214a10.249,10.249,0,0,0-2.927,1.313,43.421,43.421,0,0,0-3.571,4.094c-1.777-1.076-3.412-2.022-5.806-1.453-1.07.254-3.379-1.091-3.75-2.18C801.728,428.953,798.784,428.358,796.361,426.93Z" transform="translate(201 228.202)" fill="#f0f0f2" stroke="#fff" stroke-width="1" opacity="0.5"/>
    <path id="Trazado_236" data-name="Trazado 236" d="M813.662,440.515a43.249,43.249,0,0,1,3.569-4.093,10.258,10.258,0,0,1,2.927-1.314c.091.279.159.792.276.8,3.975.4,4.986,3.824,6.962,6.914,1.136-1.117,2.845-2.012,3.154-3.256.721-2.9,2.865-2.632,4.01-1.5,2.173,2.146,4.582,1.87,7.057,1.774,1.824-.071,2.573.568,2.269,2.377l-9.455,4.154a14.023,14.023,0,0,0-2.467-1.154c-.7-.179-1.9-.283-2.17.091a57.081,57.081,0,0,0-4.143,6.628,12,12,0,0,0-.672,3.417l-5.4-.664c-1.68-1.346-3.327-2.734-5.052-4.024-1.509-1.131-3.118-2.121-4.639-3.235-.578-.423-1.38-.98-1.441-1.546s.564-1.337,1.076-1.817C810.854,442.825,812.279,441.694,813.662,440.515Z" transform="translate(199.754 223.574)" fill="#f0f0f2" stroke="#fff" stroke-width="1" opacity="0.5"/>
    <path id="Trazado_237" data-name="Trazado 237" d="M826.272,456.131a11.943,11.943,0,0,1,.671-3.417,57.185,57.185,0,0,1,4.143-6.628c.269-.373,1.474-.271,2.17-.09a13.954,13.954,0,0,1,2.467,1.154,44.7,44.7,0,0,0-1.943,5.013,24.523,24.523,0,0,0-.177,3.778c-.22,2.211-.536,4.413-.812,6.619C829.372,461.681,828.241,458.478,826.272,456.131Z" transform="translate(198.464 222.798)" fill="#f0f0f2" stroke="#fff" stroke-width="1" opacity="0.5"/>
    <path id="Trazado_238" data-name="Trazado 238" d="M803.135,331.979c-2.639.172-4.506-.289-5.7-3.317-.776-1.961-3.305-3.23-5.412-5.137l-2.005.548-3.377-4.394c.844-.461,1.851-1.479,2.5-1.288,3.054.891,3.382.754,3.985-2.5a3.027,3.027,0,0,1,1.047-1.878c2.937-1.866,4.992-4.025,3.9-7.912a2.254,2.254,0,0,1,1.152-1.878,24.591,24.591,0,0,1,6.018-1.255c4.09-.187,5.993-1.675,6.883-5.928,2.03.11,4.23-.236,6.046.443,2.289.857,4.248,2.578,6.392,3.853.274.163.806-.109,1.219-.179h3.567l-.2.326a23.615,23.615,0,0,1,3.933,1.171c.813.393,2.057,1.544,1.918,1.973-.678,2.111.592,2.359,1.891,2.551-.71,5.856-1.572,11.624,2.413,16.748a2.669,2.669,0,0,1,.615,1.583c-.2,3.958,2.111,6.926,4.4,9.552,2.515,2.887,6.143,2.363,9.531,1.258,2.493-.814,4.977-1.651,7.464-2.478.235,1.6,3.183,3.643,4.877,3.358.754-.126,1.493-.324,2.238-.489-.135.37-.5.913-.373,1.085,3.724,4.977-1.342,7.1-3.289,10.211-.5.8-1.1,1.544-1.659,2.315-2.4.1-3.943.754-4.017,3.742-.068,2.69-3.415,4.977-6.636,5.21a9.709,9.709,0,0,1-4.483-6.8c-.033-.212-.446-.357-.667-.549a14.907,14.907,0,0,1-4.558-6.259,19.083,19.083,0,0,0-3.393-5.82c-1.152-1.343-2.948-2.156-4.512-3.114-.778-.476-2.144-.528-2.439-1.156-1.038-2.2-2.572-1.973-4.443-1.523-.882.211-2.4.3-2.741-.185-2.146-3.053-4.025-6.293-6.04-9.44-.371-.58-.885-1.315-1.467-1.467a29.9,29.9,0,0,0-5.612-.976,3.09,3.09,0,0,0-2.163,1.146C807.6,326.024,805.391,329.019,803.135,331.979Z" transform="translate(201.333 233.567)" fill="#f0f0f2" stroke="#fff" stroke-width="1" opacity="0.5"/>
    <path id="Trazado_239" data-name="Trazado 239" d="M746.732,176.8l-.691-3.758c-.044.961-.048,1.926-.184,2.873-.016.109-.763.113-1.172.166-.58-4.16-2.823-7.023-6.491-7.961-.768-.5-1.81-.811-2.324-1.489.006-.781.036-1.563.015-2.343-.023-.88-.092-1.76-.14-2.64a25.233,25.233,0,0,0-3.286.553c-1.263.378-2.464.977-3.69,1.479h0l-1.913-1.709c-.177.393-.468.825-.7,1.236h0a1.617,1.617,0,0,0-.316,1.177c.762,2.245,1.885,4.368,2.865,6.537-.518,2.675,2.121,1.892,3.149,2.875l.461-.561,2.822,7.112c.039-.042.084-.087.132-.133l.125.327c1.715,1.591,1.967,3.6,1.63,5.767.13,3.219.13,3.219,7.437,4.1-1.184,3.816-2.353,7.488-3.445,11.182a5.14,5.14,0,0,0-.141,2.262c.433,2.488,2.778,4.7,1,7.521-.145.23.453.842.5,1.3a9.5,9.5,0,0,1-.071,2.121,39.086,39.086,0,0,0-.6,4.563c-.005,2.607.9,5.411.2,7.772-.841,2.846-1.383,5.377-.725,8.351a72.945,72.945,0,0,1,1.483,11.186c.2,3.187-.124,6.405-.217,9.611,3.7,2.275,3.468-2.579,4.774-2.7-.1-1.786-.176-3.2-.272-4.618-.1-1.515-.226-3.026-.335-4.539.339-4.1.624-8.209,1.029-12.3.583-5.9,1.266-11.789,1.885-17.686.216-2.059.365-4.127.544-6.191q.033-8.94.066-17.882-.267-3.3-.536-6.606l-.63-.878-2.229-6.068" transform="translate(205.734 243.366)" fill="#f0f0f2" stroke="#fff" stroke-width="1" opacity="0.5"/>
    <path id="Trazado_240" data-name="Trazado 240" d="M843.965,255.949c-2.071-2.512-.739-5.979-3.219-8.823-2.221-2.55-2.255-7.006-3.254-10.621-2.193.464-4.393,2.107-6.568-.044-1.865-1.148-3.661-2.438-5.616-3.4-2.1-1.034-4.346-1.756-6.522-2.631a3.476,3.476,0,0,1-1.262-.66c-1.9-2.048-5.215-3.187-4.477-6.967a1.875,1.875,0,0,0-.6-1.31c-3.6-3.782-5.851-8.137-5.87-13.472-1.149-1.48-2.38-2.906-3.423-4.458a43.821,43.821,0,0,1-2.13-3.939,8.945,8.945,0,0,1-.863-2.161c-.453-3.722-1.089-7.263-3.265-10.564-1.126-1.709-1.1-4.243-1.376-6.431-.289-2.313-.169-4.681-.5-6.987-.308-2.169-.967-4.288-1.471-6.429l-.557-.9v-.07l-.847-1.49-.935-.99c-.714-.412-1.479-1.213-2.132-1.131-.724.091-1.344.991-2.01,1.539l-.6.56h0l.6-.56c-.971-2.391-4.373-2.941-4.575-5.957a10.63,10.63,0,0,0-1.286-.05c-2.651-1.7-3.478,1.74-5.456,1.932-1.535-.263-3.318-2.5-4.541-.007-1.326,2.7-3.562,5.354-2.059,8.775l.129.114-.673,1.2c-1.873-2.162-4.164-3.967-5.379-6.7-.307-.689-1.342-1.056-2.076-1.595-.289,1.893-.516,3.382-.754,4.964l2.332,1.462c.391,1.357,1.172,2.739,1.1,4.071-.179,3.124,1.149,5.544,2.879,7.889a38.265,38.265,0,0,1,1.654,3.633,15.371,15.371,0,0,1,.439,2.839c1.508,1.587,2.776,3.174,1.711,5.639-.226.519.6,1.463.872,2.236.4,1.141,1.155,2.35,1.029,3.447-.484,4.24,2.023,9.365,5.7,10.247A10.219,10.219,0,0,1,786,215.446a22.323,22.323,0,0,0,4.011,7.344c1.388,1.725,3.73,4.209.6,7.169-1.442,1.363-1.7,4.054-2.277,6.2-.15.578.478,1.4.825,2.069.4.78,1.156,1.475,1.282,2.281.249,1.617,1.063,2,2.573,2.575,4.885,1.863,9.967,3.7,11.4,9.8.2.874,1.628,1.59,2.624,2.123,2.121,1.131,4.4,1.976,6.49,3.16,2.87,1.627,5.442,4,8.486,5.032,2.439.83,5.531,2.006,8.09-.2,2.651-2.29,5.177-4.728,7.757-7.1l.377,1.155,6.721,1.4A11.483,11.483,0,0,0,843.965,255.949Z" transform="translate(203.232 243.664)" fill="#f0f0f2" stroke="#fff" stroke-width="1" opacity="0.5"/>
    <path id="Trazado_241" data-name="Trazado 241" d="M896,379.585c-3.624.98-7.671,1.215-9.759,5.052-.478.877-.893,2.3-.509,3.047,2.021,3.931.528,7.95.623,11.914q-1.166-1.4-2.331-2.8a52.862,52.862,0,0,1-2.925-4.463,7.483,7.483,0,0,0-4.5-3.516,7.013,7.013,0,0,1-3.572-3.387c-.893-2.019-1.008-4.379-1.455-6.595a48.683,48.683,0,0,1,1.864-4.57,1.853,1.853,0,0,1,1.679-.638c1.5.963,3.335,1.873,4.137,3.313,1.039,1.862,1.211,4.208,1.979,7.217,2.325-2.595,4.094-4.518,5.806-6.494,1.064-1.228,1.685-2.656,4.014-2.148.925.2,2.337-1.886,3.545-2.921.829-.711,1.669-1.4,2.505-2.1l1.5,6.827Z" transform="translate(195.186 228.25)" fill="#f0f0f2" stroke="#fff" stroke-width="1" opacity="0.5"/>
    <path id="Trazado_242" data-name="Trazado 242" d="M857.252,363.435c3.219-.234,6.566-2.519,6.636-5.209.075-2.987,1.612-3.642,4.017-3.742-.271,1.734-.619,3.463-.782,5.21a19.464,19.464,0,0,0,.174,3.068,5.647,5.647,0,0,0-.545,5.392c.767,1.955.151,4.443.207,6.694a7.436,7.436,0,0,0,.407,1.622,31.5,31.5,0,0,0-2.224,3.762,28.423,28.423,0,0,0-1.061,3.987c-.013.05-.174.062-.266.09l-5.957,2.2-1.485-6.376c-1.987-1.022-4.216-2.622-3.07-5.482,1.045-2.61.116-5.992,3.035-7.923.372-.247.214-1.294.3-1.971Z" transform="translate(196.53 229.41)" fill="#f0f0f2" stroke="#fff" stroke-width="1" opacity="0.5"/>
    <path id="Trazado_243" data-name="Trazado 243" d="M864.542,386.019c.092-.03.252-.042.265-.091a28.466,28.466,0,0,1,1.062-3.987,31.463,31.463,0,0,1,2.224-3.762l2.865,1.219c.446,2.216.561,4.578,1.455,6.594a7.011,7.011,0,0,0,3.572,3.387c1.975.75,3.494,1.609,4.5,3.516a52.911,52.911,0,0,0,2.926,4.463,16.748,16.748,0,0,1-3.989.318c-4.1-.64-8.163-1.489-12.234-2.292a8.661,8.661,0,0,1-1.557-.632,4.628,4.628,0,0,0-.723-1.192c-1.855-1.616-2.733-3.242-.646-5.389C864.663,387.755,864.464,386.752,864.542,386.019Z" transform="translate(195.803 227.695)" fill="#f0f0f2" stroke="#fff" stroke-width="1" opacity="0.5"/>
    <path id="Trazado_244" data-name="Trazado 244" d="M852.8,363.463c-.088.679.071,1.725-.3,1.971-2.918,1.93-1.99,5.313-3.035,7.924-1.145,2.859,1.083,4.459,3.071,5.481l1.485,6.377q-1.531,7.774-3.06,15.547l-1.768,1.691c-2.262-.453-2.083-2.244-2.118-3.9a14.127,14.127,0,0,0,.018-2.544c-.6-2.843-1.386-5.649-1.983-8.494-.285-1.351-.266-2.794-2.3-2.358-3.991,1.143-5,.237-4.505-3.675.367-2.937.386-5.917.56-8.876-3.695-.6-4.5.191-6.887,6.984a8.928,8.928,0,0,1-2.282-1.46,24.507,24.507,0,0,1-3.345-4.826c-.9-1.906-2.154-2.338-4.109-2.366a5.509,5.509,0,0,1-3.592-1.48,56.433,56.433,0,0,1-4.819-6.3c-1.81-2.564-5.24-1.449-7.327-3.329-.254-.135-.56-.441-.754-.381-3.4,1.064-4.365-.854-4.692-3.7-.033-.28-.679-.491-1.039-.733-.351-2.391,1.114-3.915,3.623-3.853a24.575,24.575,0,0,0,1.7-3.9c.544-2.187.754-4.458,1.224-6.667.091-.425.748-.727,1.145-1.085,2.729-.806,6.12.493,8.167-2.676.254-.394,1.644-.055,2.507-.056-.531,1.672.821,1.066,1.544,1.373,1.118.474,2.876,1.028,3.05,1.831.507,2.338.191,4.848.528,7.239.244,1.709.567,3.787,1.66,4.917a66.508,66.508,0,0,0,7.955,6.5,3.658,3.658,0,0,0,2.373.622c1.777-.183,3.925-1.391,5.177-.742,1.2.621,1.456,3.059,2.233,4.953a4.283,4.283,0,0,1,1.056-.044C846.911,363.859,849.848,364.887,852.8,363.463Z" transform="translate(200.368 230.701)" fill="#f0f0f2" stroke="#fff" stroke-width="1" opacity="0.5"/>
    <path id="Trazado_245" data-name="Trazado 245" d="M853.123,362.543c-2.952,1.423-5.889.4-8.834-.03a4.331,4.331,0,0,0-1.056.044c-.775-1.894-1.034-4.332-2.233-4.954-1.251-.647-3.4.559-5.176.742a3.656,3.656,0,0,1-2.373-.622,66.455,66.455,0,0,1-7.956-6.5c-1.1-1.132-1.418-3.209-1.659-4.918-.342-2.394-.024-4.9-.528-7.238-.175-.8-1.933-1.358-3.05-1.831-.723-.307-2.075.3-1.544-1.373-.865,0-2.254-.339-2.508.056-2.047,3.167-5.438,1.87-8.166,2.676a11.02,11.02,0,0,0-.508-1.433c-2.864.632-2.767-1.508-3.1-3.242,2.252-2.96,4.461-5.957,6.794-8.851a3.091,3.091,0,0,1,2.164-1.145,29.908,29.908,0,0,1,5.612.975c.581.151,1.094.887,1.466,1.467,2.015,3.148,3.893,6.389,6.04,9.441.34.483,1.86.4,2.741.185,1.871-.453,3.405-.679,4.443,1.523.3.625,1.66.678,2.439,1.156,1.565.958,3.36,1.771,4.512,3.114a19.066,19.066,0,0,1,3.393,5.82,14.922,14.922,0,0,0,4.558,6.259c.222.193.635.338.668.55a9.708,9.708,0,0,0,4.482,6.8Q853.43,361.884,853.123,362.543Z" transform="translate(200.045 231.621)" fill="#f0f0f2" stroke="#fff" stroke-width="1" opacity="0.5"/>
    <path id="Trazado_246" data-name="Trazado 246" d="M807.015,361.646c2.087,1.88,5.515.763,7.327,3.329a56.637,56.637,0,0,0,4.819,6.3,5.511,5.511,0,0,0,3.592,1.48c1.955.032,3.206.461,4.109,2.366a24.52,24.52,0,0,0,3.345,4.826,9.038,9.038,0,0,0,2.283,1.46c2.383-6.794,3.19-7.581,6.887-6.984-.174,2.959-.194,5.94-.561,8.876-.489,3.913.515,4.818,4.5,3.675q.235,1.244.474,2.489c-1.274,1.33-2.648,2.581-3.795,4.012-1.161,1.449-2.586,2.951-3.027,4.654a48.507,48.507,0,0,0-1.777,11.028,6.452,6.452,0,0,1-3.492,5.9c-.7,1.816-1.146,2.973-1.592,4.129l-4.52.661a21.82,21.82,0,0,1,.164-4.276c1.536-6.548-4.812-7.848-7.616-11.448-1.826-2.343-4.383-4.107-6.527-6.216-2.089-2.057-3.971-9.529-2.739-11.445,1.066-1.659,2.6-3.007,3.838-4.566a2.714,2.714,0,0,0,.71-1.86c-.736-3.43-.16-7.455-4.051-9.55-.544-1.96-1.1-3.92-1.625-5.887C807.483,363.617,807.257,362.629,807.015,361.646Z" transform="translate(199.858 228.891)" fill="#f0f0f2" stroke="#fff" stroke-width="1" opacity="0.5"/>
    <path id="Trazado_247" data-name="Trazado 247" d="M826.606,424.332l4.52-.661c.018.882.048,1.765.053,2.648.028,5.2,6.485,9.346,10.8,6.5a10.628,10.628,0,0,1,6.9-2.025q-.882,5.313-1.763,10.626l-2.321-.028c.3-1.81-.445-2.447-2.268-2.377-2.476.1-4.884.372-7.057-1.775-1.143-1.131-3.29-1.4-4.01,1.5-.308,1.244-2.018,2.139-3.154,3.256-1.977-3.092-2.988-6.515-6.962-6.915-.119-.012-.186-.528-.277-.8v-5.215C824.223,429.461,825.847,427.4,826.606,424.332Z" transform="translate(198.841 224.402)" fill="#f0f0f2" stroke="#fff" stroke-width="1" opacity="0.5"/>
    <path id="Trazado_248" data-name="Trazado 248" d="M849.155,441.823q.881-5.314,1.762-10.627l3.043-1.937,7.07,1.1,3.085,5.572c-.649.786-1.148,1.969-1.979,2.288-4.051,1.557-8.193,2.882-12.3,4.289Z" transform="translate(196.808 223.998)" fill="#f0f0f2" stroke="#fff" stroke-width="1" opacity="0.5"/>
    <path id="Trazado_249" data-name="Trazado 249" d="M852.764,407.315l1.769-1.692c1.763,3.527,3.894,4.323,5.973,2.313,1.495-1.444,3.113-2.761,4.674-4.134,1.621,2.941,2.952,5.968,3.027,9.4q-.3,3.58-.595,7.159c-2.154,1.094-4.209,1.537-5.635-1-2.433,1.45-4.625,2.859-6.921,4.071a9.536,9.536,0,0,1-2.8.519,4.137,4.137,0,0,0-.71-.923c-2.248-1.632-3.057-3.468-1.114-5.918,1.607-2.028,1.672-4.382,1.152-6.8Q852.173,408.808,852.764,407.315Z" transform="translate(196.795 225.84)" fill="#f0f0f2" stroke="#fff" stroke-width="1" opacity="0.5"/>
    <path id="Trazado_250" data-name="Trazado 250" d="M865.586,402.56c-1.563,1.373-3.182,2.689-4.675,4.134-2.078,2.01-4.208,1.213-5.972-2.314q1.529-7.771,3.059-15.547l5.957-2.2c-.075.734.122,1.735-.282,2.153-2.087,2.149-1.207,3.771.646,5.389a4.627,4.627,0,0,1,.723,1.192c-2.714,1.166-1.112,3.051-.7,4.659A13.339,13.339,0,0,0,865.586,402.56Z" transform="translate(196.39 227.083)" fill="#f0f0f2" stroke="#fff" stroke-width="1" opacity="0.5"/>
    <path id="Trazado_251" data-name="Trazado 251" d="M850.324,409.424c.519,2.422.453,4.775-1.151,6.8-1.943,2.453-1.131,4.287,1.114,5.919a4.138,4.138,0,0,1,.711.923l1.716,3.468q-1.522.966-3.043,1.935a10.639,10.639,0,0,0-6.9,2.026c-4.316,2.848-10.773-1.292-10.8-6.5,0-.883-.035-1.766-.053-2.648l1.591-4.13a6.452,6.452,0,0,0,3.491-5.9,48.494,48.494,0,0,1,1.776-11.029c.441-1.7,1.866-3.206,3.026-4.655,1.147-1.432,2.521-2.683,3.8-4.012a11.282,11.282,0,0,1-.181,3.318c-1.212,3.288-2.639,6.5-3.981,9.738Zm-2.7,12.233-3.869-.206c-1.748,2.622-1.748,2.622-.309,3.778Z" transform="translate(198.056 226.721)" fill="#f0f0f2" stroke="#fff" stroke-width="1" opacity="0.5"/>
    <path id="Trazado_252" data-name="Trazado 252" d="M851.067,409.223l-8.89-4.737c1.344-3.243,2.77-6.451,3.98-9.739a11.247,11.247,0,0,0,.182-3.317q-.238-1.244-.475-2.489c2.031-.436,2.014,1.007,2.3,2.358.6,2.845,1.379,5.65,1.983,8.493a14.071,14.071,0,0,1-.018,2.545c.035,1.653-.142,3.444,2.118,3.9Q851.656,407.729,851.067,409.223Z" transform="translate(197.313 226.921)" fill="#f0f0f2" stroke="#fff" stroke-width="1" opacity="0.5"/>
    <path id="Trazado_253" data-name="Trazado 253" d="M848.446,423.982l-4.177,3.572c-1.439-1.156-1.439-1.156.309-3.778Z" transform="translate(197.237 224.395)" fill="#f0f0f2" stroke="#fff" stroke-width="1" opacity="0.5"/>
  </g>
</svg>
