<svg xmlns="http://www.w3.org/2000/svg" width="683" height="171.089" viewBox="0 0 683 171.089">
  <g id="Grupo_1266" data-name="Grupo 1266" transform="translate(0 -3830.48)" opacity="0.38">
    <path id="Trazado_5373" data-name="Trazado 5373" d="M85.483,0H0V85.483Z" transform="translate(682.999 3915.962) rotate(90)" fill="#81a347" opacity="0.607"/>
    <path id="Trazado_5374" data-name="Trazado 5374" d="M85.483,85.483H0V0Z" transform="translate(596.517 3830.48) rotate(90)" fill="#81a347" opacity="0.607"/>
    <path id="Trazado_5380" data-name="Trazado 5380" d="M85.483,0H0V85.483Z" transform="translate(256.202 3915.962) rotate(90)" fill="#81a347" opacity="0.607"/>
    <path id="Trazado_5384" data-name="Trazado 5384" d="M0,85.483H85.483V0Z" transform="translate(683 3830.48) rotate(90)" fill="#4f7435" opacity="0.607"/>
    <path id="Trazado_5385" data-name="Trazado 5385" d="M85.483,85.483H0V0Z" transform="translate(425.89 3830.48) rotate(90)" fill="#4f7435" opacity="0.607"/>
    <path id="Trazado_5387" data-name="Trazado 5387" d="M0,0H85.483V85.483Z" transform="translate(597.517 3915.963) rotate(90)" fill="#4f7435" opacity="0.607"/>
    <path id="Trazado_5392" data-name="Trazado 5392" d="M0,0H85.483V85.483Z" transform="translate(170.965 3915.963) rotate(90)" fill="#4f7435" opacity="0.607"/>
    <path id="Trazado_5395" data-name="Trazado 5395" d="M0,0V85.483L85.483,0Z" transform="translate(85.482 3830.48) rotate(90)" fill="#4f7435" opacity="0.607"/>
    <path id="Trazado_5396" data-name="Trazado 5396" d="M85.483,85.483H0V0Z" transform="translate(340.57 3915.962) rotate(90)" fill="#4f7435" opacity="0.607"/>
    <path id="Trazado_5397" data-name="Trazado 5397" d="M0,85.483H85.483V0Z" transform="translate(256.202 3830.48) rotate(90)" fill="#4f7435" opacity="0.607"/>
    <path id="Trazado_5404" data-name="Trazado 5404" d="M0,85.483H85.483V0Z" transform="translate(511.007 3915.963) rotate(90)" fill="#4f7435" opacity="0.607"/>
    <path id="Trazado_5407" data-name="Trazado 5407" d="M0,85.483H85.482V0Z" transform="translate(85.482 3915.963) rotate(90)" fill="#4f7435" opacity="0.607"/>
    <path id="Trazado_5418" data-name="Trazado 5418" d="M85.483,0H0V85.483Z" transform="translate(512.28 3830.48) rotate(90)" fill="#4f7435" opacity="0.607"/>
    <path id="Trazado_5427" data-name="Trazado 5427" d="M85.483,0H0V85.483Z" transform="translate(426.304 3916.087) rotate(90)" fill="#4f7435" opacity="0.607"/>
    <path id="Trazado_5429" data-name="Trazado 5429" d="M85.483,85.483H0V0Z" transform="translate(341.187 3830.48) rotate(90)" fill="#81a347" opacity="0.607"/>
    <path id="Trazado_5430" data-name="Trazado 5430" d="M85.483,85.483H0V0Z" transform="translate(170.965 3830.48) rotate(90)" fill="#4f7435" opacity="0.607"/>
  </g>
</svg>
