<svg xmlns="http://www.w3.org/2000/svg" xmlns:xlink="http://www.w3.org/1999/xlink" width="141.109" height="141.109" viewBox="0 0 141.109 141.109">
  <defs>
    <clipPath id="clip-path">
      <rect id="Rectángulo_2263" data-name="Rectángulo 2263" width="100.138" height="99.421" fill="#d27028"/>
    </clipPath>
  </defs>
  <g id="Grupo_1251" data-name="Grupo 1251" transform="translate(0 70.808) rotate(-45)">
    <g id="Grupo_1250" data-name="Grupo 1250" clip-path="url(#clip-path)">
      <path id="Trazado_6016" data-name="Trazado 6016" d="M16.2,0c48.023.085,87.448,42.28,83.7,89.423-.431,5.407-1.372,10.292-8.139,9.981-6.877-.317-7.332-5.368-6.994-10.755,2.577-41.18-32.685-76.591-74.571-73.292C4.7,15.793.446,13.836.379,7.976.314,2.238,4.472-.031,9.923,0c2.093.013,4.187,0,6.28,0" transform="translate(-0.008 0)" fill="#d27028"/>
      <path id="Trazado_6017" data-name="Trazado 6017" d="M72.975,86.314c-.039.828-.122,3.175-.269,5.518-.332,5.283-3,8.466-8.451,7.944-5.078-.488-7.012-3.954-6.488-8.863,1-9.36-.536-18.287-5.339-26.38-9.062-15.27-22.61-22.742-40.387-21.551C6.035,43.384.958,42.6.473,35.936c-.5-6.946,5.144-8.122,10.711-8.517,33.322-2.366,61.564,23.856,61.79,58.9" transform="translate(-0.009 -0.582)" fill="#d27028"/>
      <path id="Trazado_6018" data-name="Trazado 6018" d="M46.993,86.075a22.522,22.522,0,0,1-.228,2.641c-1.035,5.612-1.252,12.548-9.435,11.61-7.714-.884-6.511-6.977-6.032-12.675.991-11.807-8.14-19.913-19.781-17.555-5.548,1.124-9.649-.1-10.9-5.678-1.328-5.9,2.832-8.4,7.854-9.537,19.3-4.39,38.344,10.82,38.527,31.194" transform="translate(-0.008 -1.156)" fill="#d27028"/>
      <path id="Trazado_6019" data-name="Trazado 6019" d="M19.283,91.639c-.467,5.559-3.33,9.022-9.145,9.45A9.444,9.444,0,0,1,0,91.689C-.026,86.47,4.81,81.557,9.986,82c5.634.483,8.86,3.7,9.3,9.637" transform="translate(0 -1.751)" fill="#d27028"/>
    </g>
  </g>
</svg>
