<svg xmlns="http://www.w3.org/2000/svg" width="131.459" height="101.794" viewBox="0 0 131.459 101.794">
  <g id="Grupo_794" data-name="Grupo 794" transform="translate(-199.967 -1307.177)">
    <path id="Trazado_187" data-name="Trazado 187" d="M0,0V96.13L96.859,0Z" transform="translate(235.296 1408.971) rotate(-90)" fill="#c5296a" opacity="0.4"/>
    <path id="Trazado_1446" data-name="Trazado 1446" d="M172.656,37.879V40.6h1.328V44.58l1.33.106v2.678h1.345v2.71h1.377v4l1.352.109v2.666l1.212.064v2.658h1.356V63.59l1.342.073v2.685h1.374v2.713h1.377v4.016l1.3.078v1.3H183.4c-.033.481-.061.876-.092,1.319h-1.284v5.446l1.3.065c0,.868-.009,1.7,0,2.526.009.7.081,1.4.052,2.093-.024.567.171.79.731.721a2.9,2.9,0,0,1,.536.043v4.057h1.368v5.421h1.338v1.3l-1.283.056v1.311h-5.4c-.027.491-.049.887-.076,1.379h-5.172c-.037.485-.067.879-.1,1.307H171.34V98.86L170.1,98.8V93.467l-1.338-.075V89.363L167.43,89.3V83.954h-1.369V79.93h-2.684c-.032.442-.06.817-.091,1.238h-3.864V79.9h-1.4V82.54h-1.361v5.422h-1.372v4c-.107.069-.141.109-.18.113-1.045.118-1.09.116-1.128,1.213-.047,1.369-.012,2.741-.012,4.152l-1.363.068v4.025H148.79c-.045,0-.09-.009-.135-.012-1.22-.056-1.22-.056-1.337-1.339h-4.043c-.03-.442-.056-.817-.089-1.3h-5.174c-.026-.494-.047-.89-.072-1.355l-1.252-.066v-2.63h1.3V89.448l1.335-.067V85.351l1.337-.081V79.947l1.36-.07V75.816h-2.654V74.462h-2.684c0-1.266-.011-2.474.019-3.68,0-.109.261-.27.422-.3a4.766,4.766,0,0,1,.866-.014V67.751l1.346-.059v-2.65l1.354-.059V62.329l1.34-.071V58.272l1.23-.063V55.544h1.354v-2.71h1.372V50.113l1.3-.077V46.085l1.394-.072V43.367l1.354-.066V40.658l1.373-.072v-4.01h1.158V35.2h-1.2v1.32h-1.358v1.33h-1.354v1.355H147.3v1.354h-1.354v1.354h-1.355V43.27h-1.354V44.6l-1.218.058v1.315h-1.354v1.354h-1.354v1.354h-1.354v1.355H136.6v1.354h-1.354v1.354h-1.354v1.333H132.74V52.775h-1.378V51.42h-1.355V50.066h-1.354V48.712H127.3V47.357h-1.329V44.711h1.309V43.373l1.345-.06c.02-.436.038-.834.059-1.292h1.3V40.663h1.355c.023-.471.043-.884.066-1.341l1.294-.066c.021-.412.041-.808.065-1.28l1.092-.069c.044-.078.081-.115.084-.154.084-1.132.082-1.187,1.639-1.245.727-.027,1.1-.145,1-.962-.058-.5.388-.383.68-.4.335-.017.747.06.668-.481-.11-.748.241-.96.913-.868a2.2,2.2,0,0,0,.415-.035c.027-.39.055-.784.088-1.255l1.283-.09c.03-.428.058-.823.089-1.263l1.281-.079c.023-.411.045-.807.07-1.272l1.156-.076c.025-.434.049-.831.075-1.278l1.287-.067c.019-.408.038-.8.061-1.285l1.3-.063c.02-.426.038-.823.059-1.292l1.3-.061c.022-.436.041-.833.064-1.291h1.3V23.032h1.362V21.675h1.36V20.3h2.546V18.928h-1.272V17.573l-1.243-.06V14.841H150.1V6.775h1.287V4.08l1.218-.064v-1.3h1.354v-1.4H156.6L156.7,0h9.276c.035.423.067.815.106,1.287h2.591V2.665h1.355V4.009l1.22.061V6.728h1.324V14.8l-1.289.062V17.5l-1.218.068v1.289l-1.332.062v1.368h2.533c.029.448.052.824.081,1.272l1.287.1c.027.409.052.785.078,1.191a.875.875,0,0,0,.309.089c.729-.084,1.179.095,1.051.964-.016.108.209.341.349.366a5.8,5.8,0,0,0,1.4.116c.664-.049.917.2.828.846a2.437,2.437,0,0,0,.033.456c.4.036.919-.066,1.154.146s.177.737.265,1.221l1.243.062c.019.419.038.816.059,1.286l1.169.055c.019.43.038.828.059,1.309h1.294c.022.479.041.877.064,1.357h1.294c.022.479.04.877.062,1.356h1.295l.062,1.355H186c.021.478.039.877.06,1.332h1.3v1.354h1.357v1.347l1.219.066v1.317h1.378v1.355h1.354v1.354h1.354V43.32h1.354v1.355h1.331v2.648h-1.294v1.355h-1.355v1.355H192.7v1.355h-1.355v1.355h-1.355v1.324h-1.179V52.781h-1.353V51.426H186.1V50.072H184.75V48.717h-1.355V47.364h-1.354V46.01h-1.354V44.671l-1.218-.064V43.3h-1.354V41.947H176.76V40.594h-1.354V39.24h-1.354V37.893h-1.41V36.545h-1.317v1.334Z" transform="translate(73.998 1307.177)" fill="#3a3c6a"/>
  </g>
</svg>
