<svg xmlns="http://www.w3.org/2000/svg" width="5.032" height="5.568" viewBox="0 0 5.032 5.568">
  <g id="Grupo_712" data-name="Grupo 712" transform="translate(0 0)">
    <path id="Trazado_5554" data-name="Trazado 5554" d="M2.57,3.937V3.718H2.35V3.5H2.137v-.22H1.923v-.22H1.71V2.845H1.5v-.22H1.283v-.22H1.07v-.22H.85v-.22H.636v-.22H.423v-.22H.21v-.22H0V0H.21V.219H.424v.22H.637V.652H.85v.22h.22v.22h.213v.22H1.5v.22H1.71v.22h.213v.22h.213v.22h.213v.22h.22v.217H3V2.408h.213v-.22h.213v-.22h.213v-.22h.22v-.22h.213v-.22h.213V1.09H4.5V.87h.213V.65h.213V.437h.213V.217h.22V0h.209V1.309H5.355v.22h-.22v.22H4.922v.22H4.709v.22H4.5v.22H4.282v.22H4.068v.22H3.855v.213h-.22v.22H3.422V3.5H3.208v.22H2.995v.217Z" transform="translate(1.095 5.568) rotate(-90)" fill="#fafafa"/>
    <path id="Trazado_5555" data-name="Trazado 5555" d="M2.57,3.937V3.718H2.35V3.5H2.137v-.22H1.923v-.22H1.71V2.845H1.5v-.22H1.283v-.22H1.07v-.22H.85v-.22H.636v-.22H.423v-.22H.21v-.22H0V0H.21V.219H.424v.22H.637V.652H.85v.22h.22v.22h.213v.22H1.5v.22H1.71v.22h.213v.22h.213v.22h.213v.22h.22v.217H3V2.408h.213v-.22h.213v-.22h.213v-.22h.22v-.22h.213v-.22h.213V1.09H4.5V.87h.213V.65h.213V.437h.213V.217h.22V0h.209V1.309H5.355v.22h-.22v.22H4.922v.22H4.709v.22H4.5v.22H4.282v.22H4.068v.22H3.855v.213h-.22v.22H3.422V3.5H3.208v.22H2.995v.217Z" transform="translate(0 5.568) rotate(-90)" fill="#fafafa"/>
  </g>
</svg>
