<svg id="Grupo_875" data-name="Grupo 875" xmlns="http://www.w3.org/2000/svg" width="6.99" height="7.734" viewBox="0 0 6.99 7.734">
  <path id="Trazado_5554" data-name="Trazado 5554" d="M3.57,5.469v-.3H3.265V4.859h-.3V4.554h-.3V4.249h-.3v-.3h-.3V3.647h-.3V3.342h-.3V3.036H1.181V2.731h-.3V2.426h-.3V2.121h-.3V1.816H0V0H.292V.3h.3V.61h.3v.3h.3v.305h.305v.305h.3v.305h.3v.305h.3v.305h.3v.305h.3v.305h.3v.305h.305v.3h.6v-.3h.3V3.04h.3V2.735h.3V2.429h.305V2.124h.3V1.819h.3V1.514h.3V1.208h.3V.9h.3v-.3h.3V.3h.305V0h.29V1.818H7.439v.305H7.134v.305h-.3v.305h-.3v.305h-.3v.305h-.3V3.65h-.3v.305h-.3v.3H5.05v.305h-.3v.305h-.3v.305h-.3v.3Z" transform="translate(1.522 7.734) rotate(-90)" fill="#f0f0f2"/>
  <path id="Trazado_5555" data-name="Trazado 5555" d="M3.57,5.469v-.3H3.265V4.859h-.3V4.554h-.3V4.249h-.3v-.3h-.3V3.647h-.3V3.342h-.3V3.036H1.181V2.731h-.3V2.426h-.3V2.121h-.3V1.816H0V0H.292V.3h.3V.61h.3v.3h.3v.305h.305v.305h.3v.305h.3v.305h.3v.305h.3v.305h.3v.305h.3v.305h.305v.3h.6v-.3h.3V3.04h.3V2.735h.3V2.429h.305V2.124h.3V1.819h.3V1.514h.3V1.208h.3V.9h.3v-.3h.3V.3h.305V0h.29V1.818H7.439v.305H7.134v.305h-.3v.305h-.3v.305h-.3v.305h-.3V3.65h-.3v.305h-.3v.3H5.05v.305h-.3v.305h-.3v.305h-.3v.3Z" transform="translate(0 7.734) rotate(-90)" fill="#f0f0f2"/>
</svg>
