<svg id="Grupo_712" data-name="Grupo 712" xmlns="http://www.w3.org/2000/svg" width="9.776" height="10.817" viewBox="0 0 9.776 10.817">
  <path id="Trazado_5554" data-name="Trazado 5554" d="M4.993,0V.425H4.566V.852H4.151v.427H3.737v.427H3.322v.415H2.907v.427H2.493v.427H2.078V3.4H1.651v.427H1.237v.427H.822v.427H.407v.427H0V7.647H.408V7.222H.823V6.8h.415V6.381h.415V5.954h.427V5.527h.415V5.1h.415V4.673h.415V4.246h.415V3.819h.415V3.393h.415V2.966h.427V2.545h.833V2.97h.415V3.4h.415v.427H7.07v.427H7.5v.427h.415V5.1h.415v.427h.415v.427h.415v.427H9.57V6.8h.415v.427h.427v.421h.405V5.1H10.4V4.678H9.978V4.251H9.563V3.824H9.148V3.4H8.734V2.97H8.319V2.543H7.9V2.117H7.49V1.7H7.063V1.275H6.648V.848H6.233V.421H5.819V0Z" transform="translate(0 10.817) rotate(-90)" fill="#fafafa"/>
  <path id="Trazado_5555" data-name="Trazado 5555" d="M4.993,0V.425H4.566V.852H4.151v.427H3.737v.427H3.322v.415H2.907v.427H2.493v.427H2.078V3.4H1.651v.427H1.237v.427H.822v.427H.407v.427H0V7.647H.408V7.222H.823V6.8h.415V6.381h.415V5.954h.427V5.527h.415V5.1h.415V4.673h.415V4.246h.415V3.819h.415V3.393h.415V2.966h.427V2.545h.833V2.97h.415V3.4h.415v.427H7.07v.427H7.5v.427h.415V5.1h.415v.427h.415v.427h.415v.427H9.57V6.8h.415v.427h.427v.421h.405V5.1H10.4V4.678H9.978V4.251H9.563V3.824H9.148V3.4H8.734V2.97H8.319V2.543H7.9V2.117H7.49V1.7H7.063V1.275H6.648V.848H6.233V.421H5.819V0Z" transform="translate(2.128 10.817) rotate(-90)" fill="#fafafa"/>
</svg>
