<svg xmlns="http://www.w3.org/2000/svg" xmlns:xlink="http://www.w3.org/1999/xlink" width="243.453" height="298.564" viewBox="0 0 243.453 298.564">
  <defs>
    <clipPath id="clip-path">
      <rect id="Rectángulo_2305" data-name="Rectángulo 2305" width="243.453" height="298.564" transform="translate(1122.547 11339.483)" fill="#f0f0f2"/>
    </clipPath>
  </defs>
  <g id="Enmascarar_grupo_57" data-name="Enmascarar grupo 57" transform="translate(-1122.547 -11339.483)" clip-path="url(#clip-path)">
    <g id="Grupo_1093" data-name="Grupo 1093" transform="translate(1122.547 11335.819)">
      <rect id="Rectángulo_1714" data-name="Rectángulo 1714" width="23.64" height="107.108" transform="translate(196.426 197.502) rotate(-45)" fill="#81a347"/>
      <path id="Trazado_5448" data-name="Trazado 5448" d="M195.307,346.767l47.141,48.006h33.432l-63.857-64.72Z" transform="translate(1.12 1.892)" fill="#81a347"/>
      <rect id="Rectángulo_1715" data-name="Rectángulo 1715" width="23.64" height="107.108" transform="translate(196.426 45.947) rotate(-45)" fill="#81a347"/>
      <rect id="Rectángulo_1716" data-name="Rectángulo 1716" width="23.64" height="107.108" transform="translate(163.104 197.502) rotate(-45)" fill="#c5296a"/>
      <rect id="Rectángulo_1717" data-name="Rectángulo 1717" width="107.108" height="23.64" transform="translate(213.087 332.514) rotate(-45)" fill="#c5296a"/>
      <path id="Trazado_5449" data-name="Trazado 5449" d="M162.177,346.767l47.141,48.006H242.74l-47.192-48.055-16.655-16.665Z" transform="translate(0.93 1.892)" fill="#c5296a"/>
      <path id="Trazado_5450" data-name="Trazado 5450" d="M273.747,1.345,228.592,46.51,211.877,29.794,240.316,1.345h33.431Z" transform="translate(1.215 0.008)" fill="#c5296a"/>
      <rect id="Rectángulo_1718" data-name="Rectángulo 1718" width="23.64" height="107.108" transform="translate(163.104 45.947) rotate(-45)" fill="#c5296a"/>
      <rect id="Rectángulo_1719" data-name="Rectángulo 1719" width="107.108" height="23.64" transform="translate(213.087 180.959) rotate(-45)" fill="#c5296a"/>
      <rect id="Rectángulo_1720" data-name="Rectángulo 1720" width="23.64" height="107.108" transform="translate(229.749 197.502) rotate(-45)" fill="#3a3c6a"/>
      <rect id="Rectángulo_1721" data-name="Rectángulo 1721" width="107.108" height="23.64" transform="translate(179.765 332.514) rotate(-45)" fill="#3a3c6a"/>
      <path id="Trazado_5451" data-name="Trazado 5451" d="M228.5,346.717l-.06.049,47.141,48.006h33.431l-63.856-64.72Z" transform="translate(1.31 1.892)" fill="#3a3c6a"/>
      <path id="Trazado_5452" data-name="Trazado 5452" d="M195.453,46.509,178.737,29.794,207.186,1.345h33.32Z" transform="translate(1.025 0.008)" fill="#3a3c6a"/>
      <rect id="Rectángulo_1722" data-name="Rectángulo 1722" width="23.64" height="107.109" transform="translate(229.749 45.948) rotate(-45)" fill="#3a3c6a"/>
      <rect id="Rectángulo_1723" data-name="Rectángulo 1723" width="107.108" height="23.64" transform="translate(179.765 180.959) rotate(-45)" fill="#3a3c6a"/>
      <rect id="Rectángulo_1724" data-name="Rectángulo 1724" width="23.64" height="107.108" transform="translate(33.322 229.842) rotate(-45)" fill="#81a347"/>
      <path id="Trazado_5453" data-name="Trazado 5453" d="M33.133,378.922l14.45,15.314h33.43L49.848,362.208Z" transform="translate(0.19 2.076)" fill="#81a347"/>
      <rect id="Rectángulo_1725" data-name="Rectángulo 1725" width="23.64" height="107.108" transform="translate(33.322 78.287) rotate(-45)" fill="#81a347"/>
      <rect id="Rectángulo_1726" data-name="Rectángulo 1726" width="23.639" height="107.109" transform="translate(0 229.841) rotate(-45)" fill="#c5296a"/>
      <rect id="Rectángulo_1727" data-name="Rectángulo 1727" width="107.108" height="23.64" transform="translate(49.983 364.854) rotate(-45)" fill="#c5296a"/>
      <path id="Trazado_5454" data-name="Trazado 5454" d="M0,378.922l14.45,15.314H47.873l-14.5-15.364L16.718,362.208Z" transform="translate(0 2.076)" fill="#c5296a"/>
      <path id="Trazado_5455" data-name="Trazado 5455" d="M144.263,1,66.418,78.851,49.7,62.135,110.833,1h33.431Z" transform="translate(0.285 0.006)" fill="#c5296a"/>
      <rect id="Rectángulo_1728" data-name="Rectángulo 1728" width="23.64" height="107.109" transform="translate(0 78.287) rotate(-45)" fill="#c5296a"/>
      <rect id="Rectángulo_1729" data-name="Rectángulo 1729" width="107.108" height="23.64" transform="translate(49.983 213.299) rotate(-45)" fill="#c5296a"/>
      <rect id="Rectángulo_1730" data-name="Rectángulo 1730" width="23.64" height="107.108" transform="translate(66.645 229.842) rotate(-45)" fill="#3a3c6a"/>
      <rect id="Rectángulo_1731" data-name="Rectángulo 1731" width="107.108" height="23.64" transform="translate(16.661 364.854) rotate(-45)" fill="#3a3c6a"/>
      <path id="Trazado_5456" data-name="Trazado 5456" d="M66.323,378.872l-.06.049,14.449,15.315h33.432l-31.166-32.03Z" transform="translate(0.38 2.076)" fill="#3a3c6a"/>
      <path id="Trazado_5457" data-name="Trazado 5457" d="M33.278,78.851,16.563,62.136,77.7,1h33.32Z" transform="translate(0.095 0.006)" fill="#3a3c6a"/>
      <rect id="Rectángulo_1732" data-name="Rectángulo 1732" width="23.64" height="107.108" transform="translate(66.645 78.287) rotate(-45)" fill="#3a3c6a"/>
      <rect id="Rectángulo_1733" data-name="Rectángulo 1733" width="107.108" height="23.64" transform="translate(16.661 213.299) rotate(-45)" fill="#3a3c6a"/>
      <rect id="Rectángulo_1734" data-name="Rectángulo 1734" width="23.64" height="107.108" transform="translate(115.177 212.969) rotate(-45)" fill="#81a347"/>
      <path id="Trazado_5458" data-name="Trazado 5458" d="M114.521,362.146,146.5,394.128h33.43l-48.7-48.7Z" transform="translate(0.657 1.98)" fill="#81a347"/>
      <rect id="Rectángulo_1735" data-name="Rectángulo 1735" width="23.64" height="107.108" transform="translate(115.177 61.414) rotate(-45)" fill="#81a347"/>
      <rect id="Rectángulo_1736" data-name="Rectángulo 1736" width="23.64" height="107.108" transform="translate(81.855 212.969) rotate(-45)" fill="#c5296a"/>
      <rect id="Rectángulo_1737" data-name="Rectángulo 1737" width="107.108" height="23.64" transform="translate(131.838 347.981) rotate(-45)" fill="#c5296a"/>
      <path id="Trazado_5459" data-name="Trazado 5459" d="M81.392,362.146l31.982,31.982h33.419L114.761,362.1,98.106,345.431Z" transform="translate(0.467 1.98)" fill="#c5296a"/>
      <path id="Trazado_5460" data-name="Trazado 5460" d="M176.349,0,131.091,45.269l16.714,16.715L209.78,0Z" transform="translate(0.751 0)" fill="#c5296a"/>
      <rect id="Rectángulo_1738" data-name="Rectángulo 1738" width="23.64" height="107.108" transform="translate(81.855 61.414) rotate(-45)" fill="#c5296a"/>
      <rect id="Rectángulo_1739" data-name="Rectángulo 1739" width="107.108" height="23.64" transform="translate(131.838 196.426) rotate(-45)" fill="#c5296a"/>
      <rect id="Rectángulo_1740" data-name="Rectángulo 1740" width="23.64" height="107.108" transform="translate(148.499 212.969) rotate(-45)" fill="#3a3c6a"/>
      <rect id="Rectángulo_1741" data-name="Rectángulo 1741" width="107.108" height="23.64" transform="translate(98.516 347.981) rotate(-45)" fill="#3a3c6a"/>
      <path id="Trazado_5461" data-name="Trazado 5461" d="M147.711,362.1l-.059.05,31.981,31.982h33.431l-48.7-48.7Z" transform="translate(0.846 1.98)" fill="#3a3c6a"/>
      <path id="Trazado_5462" data-name="Trazado 5462" d="M143.219,0,97.951,45.269l16.715,16.715L176.539,0Z" transform="translate(0.562 0)" fill="#3a3c6a"/>
      <rect id="Rectángulo_1742" data-name="Rectángulo 1742" width="23.64" height="107.108" transform="translate(148.499 61.414) rotate(-45)" fill="#3a3c6a"/>
      <rect id="Rectángulo_1743" data-name="Rectángulo 1743" width="107.108" height="23.64" transform="translate(98.516 196.426) rotate(-45)" fill="#3a3c6a"/>
    </g>
  </g>
</svg>
