<svg xmlns="http://www.w3.org/2000/svg" width="320.365" height="395.527" viewBox="0 0 320.365 395.527">
  <g id="Grupo_675" data-name="Grupo 675" transform="translate(0 1.124)">
    <rect id="Rectángulo_1714" data-name="Rectángulo 1714" width="23.505" height="106.498" transform="translate(195.307 196.376) rotate(-45)" fill="#466226"/>
    <path id="Trazado_5448" data-name="Trazado 5448" d="M195.307,346.672,242.179,394.4H275.42l-63.493-64.351Z" fill="#466226"/>
    <rect id="Rectángulo_1715" data-name="Rectángulo 1715" width="23.505" height="106.498" transform="translate(195.307 45.685) rotate(-45)" fill="#466226"/>
    <rect id="Rectángulo_1716" data-name="Rectángulo 1716" width="23.505" height="106.498" transform="translate(162.174 196.376) rotate(-45)" fill="#789232"/>
    <rect id="Rectángulo_1717" data-name="Rectángulo 1717" width="106.498" height="23.505" transform="translate(211.873 330.619) rotate(-45)" fill="#789232"/>
    <path id="Trazado_5449" data-name="Trazado 5449" d="M162.177,346.672,209.049,394.4H242.28l-46.923-47.781-16.56-16.57Z" fill="#789232"/>
    <path id="Trazado_5450" data-name="Trazado 5450" d="M273.394,1.345,228.5,46.252l-16.62-16.62L240.154,1.345h33.24Z" fill="#789232"/>
    <rect id="Rectángulo_1718" data-name="Rectángulo 1718" width="23.505" height="106.498" transform="translate(162.174 45.685) rotate(-45)" fill="#789232"/>
    <rect id="Rectángulo_1719" data-name="Rectángulo 1719" width="106.498" height="23.505" transform="translate(211.873 179.928) rotate(-45)" fill="#789232"/>
    <rect id="Rectángulo_1720" data-name="Rectángulo 1720" width="23.505" height="106.498" transform="translate(228.439 196.376) rotate(-45)" fill="#262e58"/>
    <rect id="Rectángulo_1721" data-name="Rectángulo 1721" width="106.498" height="23.505" transform="translate(178.741 330.619) rotate(-45)" fill="#262e58"/>
    <path id="Trazado_5451" data-name="Trazado 5451" d="M228.5,346.622l-.06.049L275.309,394.4h33.24l-63.492-64.351Z" fill="#262e58"/>
    <path id="Trazado_5452" data-name="Trazado 5452" d="M196.271,48.72,178.737,31.187,208.579,1.345H243.53Z" transform="translate(-0.895 -2.468)" fill="#262e58"/>
    <rect id="Rectángulo_1722" data-name="Rectángulo 1722" width="23.505" height="106.498" transform="translate(228.439 45.686) rotate(-45)" fill="#262e58"/>
    <rect id="Rectángulo_1723" data-name="Rectángulo 1723" width="106.498" height="23.505" transform="translate(178.741 179.928) rotate(-45)" fill="#262e58"/>
    <rect id="Rectángulo_1724" data-name="Rectángulo 1724" width="23.505" height="106.498" transform="translate(33.132 228.532) rotate(-45)" fill="#466226"/>
    <path id="Trazado_5453" data-name="Trazado 5453" d="M33.133,378.827,47.5,394.054H80.74L49.753,362.208Z" fill="#466226"/>
    <rect id="Rectángulo_1725" data-name="Rectángulo 1725" width="23.505" height="106.498" transform="translate(33.132 77.841) rotate(-45)" fill="#466226"/>
    <rect id="Rectángulo_1726" data-name="Rectángulo 1726" width="23.505" height="106.498" transform="translate(0 228.531) rotate(-45)" fill="#789232"/>
    <rect id="Rectángulo_1727" data-name="Rectángulo 1727" width="106.498" height="23.505" transform="translate(49.699 362.774) rotate(-45)" fill="#789232"/>
    <path id="Trazado_5454" data-name="Trazado 5454" d="M0,378.827l14.368,15.227H47.6L33.183,378.778l-16.56-16.57Z" fill="#789232"/>
    <path id="Trazado_5455" data-name="Trazado 5455" d="M143.724,1l-77.4,77.411L49.7,61.787,110.484,1h33.24Z" fill="#789232"/>
    <rect id="Rectángulo_1728" data-name="Rectángulo 1728" width="23.505" height="106.498" transform="translate(0 77.841) rotate(-45)" fill="#789232"/>
    <rect id="Rectángulo_1729" data-name="Rectángulo 1729" width="106.498" height="23.505" transform="translate(49.698 212.083) rotate(-45)" fill="#789232"/>
    <rect id="Rectángulo_1730" data-name="Rectángulo 1730" width="23.505" height="106.498" transform="translate(66.265 228.532) rotate(-45)" fill="#262e58"/>
    <rect id="Rectángulo_1731" data-name="Rectángulo 1731" width="106.498" height="23.505" transform="translate(16.566 362.774) rotate(-45)" fill="#262e58"/>
    <path id="Trazado_5456" data-name="Trazado 5456" d="M66.323,378.777l-.06.049L80.63,394.054h33.241L82.883,362.207Z" fill="#262e58"/>
    <path id="Trazado_5457" data-name="Trazado 5457" d="M33.183,78.407l-16.62-16.62L77.354,1h33.13Z" fill="#262e58"/>
    <rect id="Rectángulo_1732" data-name="Rectángulo 1732" width="23.505" height="106.498" transform="translate(66.265 77.841) rotate(-45)" fill="#262e58"/>
    <rect id="Rectángulo_1733" data-name="Rectángulo 1733" width="106.498" height="23.505" transform="translate(16.566 212.083) rotate(-45)" fill="#262e58"/>
    <rect id="Rectángulo_1734" data-name="Rectángulo 1734" width="23.505" height="106.498" transform="translate(114.521 211.755) rotate(-45)" fill="#466226"/>
    <path id="Trazado_5458" data-name="Trazado 5458" d="M114.521,362.051l31.8,31.8H179.56l-48.42-48.42Z" fill="#466226"/>
    <rect id="Rectángulo_1735" data-name="Rectángulo 1735" width="23.505" height="106.498" transform="translate(114.521 61.064) rotate(-45)" fill="#466226"/>
    <rect id="Rectángulo_1736" data-name="Rectángulo 1736" width="23.505" height="106.498" transform="translate(81.388 211.755) rotate(-45)" fill="#789232"/>
    <rect id="Rectángulo_1737" data-name="Rectángulo 1737" width="106.498" height="23.505" transform="translate(131.087 345.997) rotate(-45)" fill="#789232"/>
    <path id="Trazado_5459" data-name="Trazado 5459" d="M81.392,362.051l31.8,31.8h33.229L114.571,362l-16.56-16.57Z" fill="#789232"/>
    <path id="Trazado_5460" data-name="Trazado 5460" d="M176.091,0l-45,45.01,16.619,16.62L209.331,0Z" fill="#789232"/>
    <rect id="Rectángulo_1738" data-name="Rectángulo 1738" width="23.505" height="106.498" transform="translate(81.388 61.064) rotate(-45)" fill="#789232"/>
    <rect id="Rectángulo_1739" data-name="Rectángulo 1739" width="106.498" height="23.505" transform="translate(131.087 195.306) rotate(-45)" fill="#789232"/>
    <rect id="Rectángulo_1740" data-name="Rectángulo 1740" width="23.505" height="106.498" transform="translate(147.653 211.755) rotate(-45)" fill="#262e58"/>
    <rect id="Rectángulo_1741" data-name="Rectángulo 1741" width="106.498" height="23.505" transform="translate(97.954 345.997) rotate(-45)" fill="#262e58"/>
    <path id="Trazado_5461" data-name="Trazado 5461" d="M147.711,362l-.059.05,31.8,31.8h33.24l-48.42-48.42Z" fill="#262e58"/>
    <path id="Trazado_5462" data-name="Trazado 5462" d="M142.961,0l-45.01,45.01,16.62,16.62L176.091,0Z" fill="#262e58"/>
    <rect id="Rectángulo_1742" data-name="Rectángulo 1742" width="23.505" height="106.498" transform="translate(147.653 61.064) rotate(-45)" fill="#262e58"/>
    <rect id="Rectángulo_1743" data-name="Rectángulo 1743" width="106.498" height="23.505" transform="translate(97.954 195.306) rotate(-45)" fill="#262e58"/>
  </g>
</svg>
