<svg id="Grupo_737" data-name="Grupo 737" xmlns="http://www.w3.org/2000/svg" xmlns:xlink="http://www.w3.org/1999/xlink" width="60.353" height="82.889" viewBox="0 0 60.353 82.889">
  <defs>
    <clipPath id="clip-path">
      <rect id="Rectángulo_1789" data-name="Rectángulo 1789" width="60.353" height="82.889" fill="#fafafa"/>
    </clipPath>
  </defs>
  <g id="Grupo_736" data-name="Grupo 736" clip-path="url(#clip-path)">
    <path id="Trazado_5581" data-name="Trazado 5581" d="M168.954,213.225c-.41.424-.806.86-1.15,1.23h-1.85c-.373-.406-.784-.86-1.2-1.3a.61.61,0,0,0-.79-.061.593.593,0,0,0-.025.8c.489.577.971,1.164,1.5,1.708a.837.837,0,0,1,.228.73q-.094,1.13-.186,2.26l.146-.028c.062.1.191.218.176.309-.1.606-.246,1.2-.336,1.812a.476.476,0,0,0,.309.555c.424.156.7-.019.786-.5q.145-.849.294-1.7c.153.606.269,1.2.371,1.794a.533.533,0,0,0,.558.472.525.525,0,0,0,.48-.577c-.042-.409-.125-.813-.191-1.219-.046-.282-.092-.563-.141-.857l.354-.03c-.052-.6-.122-1.168-.144-1.739a2.034,2.034,0,0,1,.092-1.1,17.407,17.407,0,0,1,1.519-1.781c.288-.322.308-.579.034-.863-.226-.234-.532-.208-.826.1" transform="translate(-131.916 -171.523)" fill="#fafafa"/>
    <path id="Trazado_5582" data-name="Trazado 5582" d="M143.963,227.331a.478.478,0,0,0,.026-.677c-.517-.642-1.034-1.283-1.558-1.919-.03-.036-.121-.031-.184-.031-.293,0-.586-.005-.879,0a.3.3,0,0,0-.2.061c-.317.373-.623.756-.932,1.135-.238.292-.484.579-.711.879a.346.346,0,0,0,.127.555.664.664,0,0,0,.545-.081,4.165,4.165,0,0,0,.6-.632l-.1,1.433.268.046c-.091.555-.184,1.091-.267,1.63a.447.447,0,0,0,.333.569.466.466,0,0,0,.55-.443c.067-.432.114-.867.169-1.3l.073,0c.02.076.046.151.061.228.074.4.151.806.216,1.211.048.3.277.338.494.3a.379.379,0,0,0,.329-.455c-.086-.573-.183-1.145-.278-1.733l.262-.055c-.023-.456-.046-.9-.072-1.406.2.23.335.382.461.545a.488.488,0,0,0,.669.144" transform="translate(-112.296 -180.969)" fill="#fafafa"/>
    <path id="Trazado_5583" data-name="Trazado 5583" d="M173.781,209.146a1.132,1.132,0,0,0,1.1,1.156,1.061,1.061,0,0,0,1.133-1.106,1.025,1.025,0,0,0-1.1-1.123,1.076,1.076,0,0,0-1.13,1.072" transform="translate(-139.96 -167.578)" fill="#fafafa"/>
    <path id="Trazado_5584" data-name="Trazado 5584" d="M147.91,216.746a.849.849,0,0,0,.911-.838.949.949,0,0,0-.923-.94.873.873,0,0,0-.865.923.8.8,0,0,0,.877.855" transform="translate(-118.417 -173.131)" fill="#fafafa"/>
    <path id="Trazado_5585" data-name="Trazado 5585" d="M176.9,299.762c.426-.61.8-1.258,1.181-1.9a.472.472,0,0,0,.034-.337.522.522,0,0,0-.543-.429.98.98,0,0,0-.566.37c-.383.509-.724,1.05-1.077,1.582-.071.107-.12.23-.221.428a2.533,2.533,0,0,0,.431.489.54.54,0,0,0,.761-.2" transform="translate(-141.512 -239.273)" fill="#fafafa"/>
    <path id="Trazado_5586" data-name="Trazado 5586" d="M128.915,268.525c.244.215.518.4.779.592l.054-.082c.283.052.422-.107.543-.332a.48.48,0,0,0-.123-.623c-.518-.507-1.042-1.008-1.577-1.5a.6.6,0,0,0-.85.055.623.623,0,0,0,.045.831c.371.357.741.716,1.128,1.055" transform="translate(-102.77 -214.578)" fill="#fafafa"/>
    <path id="Trazado_5587" data-name="Trazado 5587" d="M76.085,230.906a.673.673,0,0,0-.269-.82c-.5-.378-.988-.778-1.49-1.157a3.4,3.4,0,0,0-.507-.253c-.166.129-.382.22-.468.381a.567.567,0,0,0,.138.732c.568.447,1.146.885,1.742,1.294a.579.579,0,0,0,.854-.178" transform="translate(-59.014 -184.171)" fill="#fafafa"/>
    <path id="Trazado_5588" data-name="Trazado 5588" d="M204.489,241.708c.156.207.249.431.415.529a.531.531,0,0,0,.687-.14c.44-.451.9-.886,1.374-1.3.312-.271.414-.573.214-.867a.581.581,0,0,0-.894-.086c-.447.358-.878.74-1.288,1.14a5.017,5.017,0,0,0-.509.725" transform="translate(-164.691 -193.03)" fill="#fafafa"/>
    <path id="Trazado_5589" data-name="Trazado 5589" d="M193.043,259.136a.639.639,0,0,0,.794-.248q.523-.845,1.032-1.7c.076-.128.127-.271.228-.49a2.5,2.5,0,0,0-.416-.436.471.471,0,0,0-.669.151q-.629.947-1.195,1.936a.663.663,0,0,0,.226.785" transform="translate(-155.248 -206.324)" fill="#fafafa"/>
    <path id="Trazado_5590" data-name="Trazado 5590" d="M113.325,254.824c.157-.066.257-.269.408-.443a2.126,2.126,0,0,0-.332-.54c-.567-.451-1.144-.892-1.748-1.291a.745.745,0,0,0-.6,0c-.12.052-.2.279-.229.441a.579.579,0,0,0,.315.6c.556.385,1.07.831,1.629,1.213a.685.685,0,0,0,.561.019" transform="translate(-89.245 -203.348)" fill="#fafafa"/>
    <path id="Trazado_5591" data-name="Trazado 5591" d="M94.667,242.757c.159-.074.253-.286.392-.457-.11-.218-.148-.441-.274-.519-.643-.4-1.3-.776-1.97-1.119a.58.58,0,0,0-.8.269.673.673,0,0,0,.351.8c.586.331,1.162.684,1.758.995a.7.7,0,0,0,.543.035" transform="translate(-74.079 -193.771)" fill="#fafafa"/>
    <path id="Trazado_5592" data-name="Trazado 5592" d="M220.1,259.992a1.6,1.6,0,0,0-.381.194c-.536.546-1.076,1.09-1.584,1.663a.522.522,0,0,0,.121.793.638.638,0,0,0,.826-.116c.124-.149.241-.306.376-.445.321-.331.653-.651.976-.98a.6.6,0,0,0,.126-.737c-.089-.16-.3-.25-.46-.372" transform="translate(-175.57 -209.392)" fill="#fafafa"/>
    <path id="Trazado_5593" data-name="Trazado 5593" d="M144.208,283.051c.367.368.716.757,1.112,1.091a.7.7,0,0,0,.581.107c.175-.06.3-.282.423-.417-.068-.214-.071-.358-.144-.433-.533-.551-1.067-1.1-1.628-1.624a.546.546,0,0,0-.767.017.5.5,0,0,0-.1.718,4.9,4.9,0,0,0,.522.541" transform="translate(-115.632 -226.815)" fill="#fafafa"/>
    <path id="Trazado_5594" data-name="Trazado 5594" d="M160.672,300.063a.664.664,0,0,0,.832.237.564.564,0,0,0,.154-.84,20.016,20.016,0,0,0-1.488-1.743.779.779,0,0,0-.66-.04c-.14.049-.212.3-.314.457a2.92,2.92,0,0,0,.243.444c.407.5.843.975,1.234,1.485" transform="translate(-128.213 -239.701)" fill="#fafafa"/>
    <path id="Trazado_5595" data-name="Trazado 5595" d="M102.658,272.936c.609.409,1.233.8,1.863,1.175a.54.54,0,0,0,.755-.2.609.609,0,0,0-.177-.811c-.567-.363-1.142-.713-1.717-1.063-.12-.073-.256-.121-.471-.22a3.06,3.06,0,0,0-.449.435c-.2.284-.034.532.2.687" transform="translate(-82.449 -218.913)" fill="#fafafa"/>
    <path id="Trazado_5596" data-name="Trazado 5596" d="M72.946,213.219a6.042,6.042,0,0,0-.5.791.616.616,0,0,0,.2.856.65.65,0,0,0,.846-.343c.062-.117.127-.232.2-.344.23-.372.65-.346,1-.471s.467-.326.4-.746c-.053-.316-.277-.4-.578-.383-.537.168-1.165.128-1.559.639" transform="translate(-58.274 -171.205)" fill="#fafafa"/>
    <path id="Trazado_5597" data-name="Trazado 5597" d="M100.61,102.932a2.725,2.725,0,0,0-.754.63,11.893,11.893,0,0,0-.875,1.109.661.661,0,0,0,.11.874c.373.226.578.15.874-.236.361-.471.762-.912,1.135-1.374a2.98,2.98,0,0,0,.242-.385c-.009-.534-.359-.805-.732-.619" transform="translate(-79.625 -82.852)" fill="#fafafa"/>
    <path id="Trazado_5598" data-name="Trazado 5598" d="M91.227,207.087c.108.306.395.4.831.253.615-.2,1.231-.4,1.841-.614.256-.091.5-.226.427-.545a.531.531,0,0,0-.743-.563c-.639.206-1.278.412-1.914.624a.592.592,0,0,0-.442.844" transform="translate(-73.429 -165.57)" fill="#fafafa"/>
    <path id="Trazado_5599" data-name="Trazado 5599" d="M188.112,276.922c0-.3-.087-.521-.406-.566-.447-.063-.636.07-.738.445-.177.647-.37,1.289-.559,1.932a.6.6,0,0,0,.343.782.58.58,0,0,0,.742-.38,11.441,11.441,0,0,0,.361-1.089c.1-.37.172-.749.256-1.124" transform="translate(-150.102 -222.559)" fill="#fafafa"/>
    <path id="Trazado_5600" data-name="Trazado 5600" d="M208.12,279.72c.263-.512.521-1.026.778-1.541.072-.145.132-.3.2-.444-.018-.289-.1-.512-.37-.6a.6.6,0,0,0-.733.272c-.338.607-.657,1.228-.939,1.863a.561.561,0,0,0,.282.843c.3.128.588-.013.785-.4" transform="translate(-166.689 -223.173)" fill="#fafafa"/>
    <path id="Trazado_5601" data-name="Trazado 5601" d="M113.392,195.994c-.107.358-.247.632-.67.661a.562.562,0,0,0-.359.146.992.992,0,0,0-.294.528.719.719,0,0,0,.283.5,2.366,2.366,0,0,0,1.785-.555,7.191,7.191,0,0,0,.411-1.034c.126-.462-.051-.842-.508-.777-.4,0-.508.065-.648.536" transform="translate(-90.258 -157.412)" fill="#fafafa"/>
    <path id="Trazado_5602" data-name="Trazado 5602" d="M184.6,122.016a.492.492,0,0,0-.362.58c.212.747.474,1.48.724,2.217a.493.493,0,0,0,.655.307c.279-.07.451-.277.432-.7-.227-.67-.459-1.451-.763-2.2a.52.52,0,0,0-.686-.2" transform="translate(-148.367 -98.231)" fill="#fafafa"/>
    <path id="Trazado_5603" data-name="Trazado 5603" d="M115.127,88.009c-.43.483-.868.958-1.292,1.445a2.256,2.256,0,0,0-.222.384.5.5,0,0,0,.38.561.717.717,0,0,0,.557-.056c.536-.509,1.044-1.049,1.536-1.6a.679.679,0,0,0-.092-.867.768.768,0,0,0-.868.134" transform="translate(-91.502 -70.705)" fill="#fafafa"/>
    <path id="Trazado_5604" data-name="Trazado 5604" d="M83,264.628c.612.245,1.226.484,1.838.727a.66.66,0,0,0,.909-.571c-.135-.16-.239-.388-.412-.466-.632-.287-1.283-.533-1.933-.776a.583.583,0,0,0-.833.319.643.643,0,0,0,.431.766" transform="translate(-66.475 -212.203)" fill="#fafafa"/>
    <path id="Trazado_5605" data-name="Trazado 5605" d="M143.427,321.766c.637.362,1.276.722,1.934,1.042a.545.545,0,0,0,.809-.539c.03-.25-.107-.411-.353-.537-.587-.3-1.165-.621-1.74-.945a.6.6,0,0,0-.826.192.653.653,0,0,0,.175.787" transform="translate(-115.319 -258.283)" fill="#fafafa"/>
    <path id="Trazado_5606" data-name="Trazado 5606" d="M182.292,344.428a.5.5,0,0,0,.76.119.627.627,0,0,0,.1-.876c-.371-.535-.721-1.084-1.1-1.61a2.326,2.326,0,0,0-.462-.378c-.5.073-.781.514-.536.924a21.634,21.634,0,0,0,1.239,1.822" transform="translate(-145.743 -275.183)" fill="#fafafa"/>
    <path id="Trazado_5607" data-name="Trazado 5607" d="M193.9,142.061a2.675,2.675,0,0,0-.493-.365c-.555.069-.843.463-.567.853a22.713,22.713,0,0,0,1.481,1.836.555.555,0,0,0,.786-.043.708.708,0,0,0,0-.788c-.4-.5-.795-1.007-1.212-1.494" transform="translate(-155.221 -114.119)" fill="#fafafa"/>
    <path id="Trazado_5608" data-name="Trazado 5608" d="M229.782,168.029c-.64-.207-1.282-.406-1.924-.6-.085-.026-.209-.061-.264-.022-.163.117-.374.244-.431.413a.479.479,0,0,0,.3.656c.693.233,1.388.463,2.087.675a.512.512,0,0,0,.713-.533c.041-.362-.2-.5-.483-.586" transform="translate(-182.923 -134.809)" fill="#fafafa"/>
    <path id="Trazado_5609" data-name="Trazado 5609" d="M234.707,251.273a.551.551,0,0,0-.138.8.589.589,0,0,0,.75.166c.611-.244,1.228-.48,1.857-.669a.538.538,0,0,0,.425-.6.507.507,0,0,0-.569-.523,7.245,7.245,0,0,0-2.325.825" transform="translate(-188.82 -201.706)" fill="#fafafa"/>
    <path id="Trazado_5610" data-name="Trazado 5610" d="M128.281,102.813a.611.611,0,0,0-.8.077c-.44.5-.885,1-1.295,1.532-.143.184-.331.433-.125.693a4.073,4.073,0,0,0,.465.429,2.981,2.981,0,0,0,.521-.3,5.444,5.444,0,0,0,.534-.6c.288-.358.583-.712.844-1.089a.522.522,0,0,0-.147-.74" transform="translate(-101.456 -82.711)" fill="#fafafa"/>
    <path id="Trazado_5611" data-name="Trazado 5611" d="M173.411,80.694a.589.589,0,0,0-1.167.145c.164.727.345,1.449.539,2.168a.6.6,0,0,0,.735.389.569.569,0,0,0,.4-.64q-.251-1.033-.512-2.063" transform="translate(-138.713 -64.598)" fill="#fafafa"/>
    <path id="Trazado_5612" data-name="Trazado 5612" d="M250.732,173.652c-.187-.044-.376-.078-.564-.118l-1.734-.365c-.106.1-.3.207-.388.374-.2.4.038.747.52.847.636.132,1.274.254,1.912.378a.617.617,0,0,0,.734-.445.63.63,0,0,0-.48-.67" transform="translate(-199.713 -139.467)" fill="#fafafa"/>
    <path id="Trazado_5613" data-name="Trazado 5613" d="M122.3,286.84a1.964,1.964,0,0,0,.449.231c.181-.107.438-.171.491-.311a.749.749,0,0,0-.058-.638c-.484-.548-1.015-1.057-1.546-1.562a.582.582,0,0,0-.848.026.722.722,0,0,0,.083.836c.474.475.945.954,1.43,1.418" transform="translate(-97.196 -229.041)" fill="#fafafa"/>
    <path id="Trazado_5614" data-name="Trazado 5614" d="M127.093,68.4c-.246.609-.493,1.218-.706,1.838a.632.632,0,0,0,.164.8.535.535,0,0,0,.758-.107,5.751,5.751,0,0,0,.906-2.33.527.527,0,0,0-.491-.586.551.551,0,0,0-.631.386" transform="translate(-101.735 -54.768)" fill="#fafafa"/>
    <path id="Trazado_5615" data-name="Trazado 5615" d="M162.694,332.064c.619.325,1.244.641,1.879.933a.646.646,0,0,0,.885-.593c-.128-.152-.228-.357-.391-.447-.591-.327-1.2-.617-1.808-.916a.587.587,0,0,0-.847.222.571.571,0,0,0,.282.8" transform="translate(-130.746 -266.541)" fill="#fafafa"/>
    <path id="Trazado_5616" data-name="Trazado 5616" d="M134.728,304.007a.492.492,0,0,0,.6.339c.282-.059.536-.2.522-.589-.246-.75-.464-1.511-.751-2.246a.527.527,0,0,0-.707-.294.582.582,0,0,0-.365.714c.22.7.46,1.386.7,2.076" transform="translate(-107.921 -242.56)" fill="#fafafa"/>
    <path id="Trazado_5617" data-name="Trazado 5617" d="M261.385,202.644c-.226.692-.406,1.4-.605,2.1.079.422.243.669.58.692a.547.547,0,0,0,.6-.418c.183-.669.356-1.341.525-2.014a.591.591,0,0,0-.317-.732.57.57,0,0,0-.786.371" transform="translate(-210.027 -162.871)" fill="#fafafa"/>
    <path id="Trazado_5618" data-name="Trazado 5618" d="M161.361,172.255c-.292.2-.328.549-.073.957.331.531.694,1.043,1.014,1.581a.545.545,0,0,0,.727.219c.171-.063.277-.3.394-.439a2.664,2.664,0,0,0-.163-.469c-.348-.562-.707-1.117-1.065-1.674a.564.564,0,0,0-.834-.175" transform="translate(-129.76 -138.638)" fill="#fafafa"/>
    <path id="Trazado_5619" data-name="Trazado 5619" d="M88.693,142.906c-.155.716-.275,1.44-.4,2.114,0,.4.2.662.507.691a.565.565,0,0,0,.606-.5c.134-.658.251-1.32.385-1.979a.575.575,0,1,0-1.1-.329" transform="translate(-71.109 -114.723)" fill="#fafafa"/>
    <path id="Trazado_5620" data-name="Trazado 5620" d="M198.9,319.022a.636.636,0,0,0-.433-.674.6.6,0,0,0-.751.5c-.054.681-.087,1.364-.128,2.046l-.091.039a2.5,2.5,0,0,0,.339.544c.378.359.9-.053.921-.521.028-.645.091-1.289.144-1.933" transform="translate(-159.056 -256.382)" fill="#fafafa"/>
    <path id="Trazado_5621" data-name="Trazado 5621" d="M210.6,158.512c-.555-.337-1.1-.69-1.667-1.011a.632.632,0,0,0-.478-.061.7.7,0,0,0-.373.373.633.633,0,0,0,.311.753c.353.231.7.469,1.068.68.286.165.593.295.891.44.306-.035.518-.135.6-.407a.634.634,0,0,0-.348-.767" transform="translate(-167.554 -126.779)" fill="#fafafa"/>
    <path id="Trazado_5622" data-name="Trazado 5622" d="M228.05,210.087c-.093.633-.175,1.268-.262,1.9l.038,0c0,.1,0,.2,0,.3.007.377.232.646.554.63a.613.613,0,0,0,.63-.609c.063-.666.1-1.334.152-2a.546.546,0,0,0-.5-.639.5.5,0,0,0-.613.416" transform="translate(-183.456 -168.861)" fill="#fafafa"/>
    <path id="Trazado_5623" data-name="Trazado 5623" d="M153.145,49.516c-.633-.141-1.283-.206-1.924-.315-.423-.072-.695.08-.739.439-.048.392.2.63.618.689a16.2,16.2,0,0,1,1.764.343c.455.117.81-.086.811-.534,0-.358-.093-.524-.531-.621" transform="translate(-121.19 -39.611)" fill="#fafafa"/>
    <path id="Trazado_5624" data-name="Trazado 5624" d="M135.217,49.675a1.51,1.51,0,0,0-1.2.649,5.136,5.136,0,0,0-.52,1.1c-.2.549.018.924.527.922.328.048.475-.19.56-.447.169-.511.329-1,.926-1.186.318-.1.313-.414.258-.676a.465.465,0,0,0-.549-.365" transform="translate(-107.454 -40.006)" fill="#fafafa"/>
    <path id="Trazado_5625" data-name="Trazado 5625" d="M267.9,184.892a.528.528,0,0,0,.686-.451c.069-.317.117-.638.185-1.02-.093-.4-.167-.847-.309-1.278a.628.628,0,0,0-.843-.409c-.287.117-.341.391-.251.808a11.232,11.232,0,0,1,.171,1.324,2.4,2.4,0,0,1-.066.389.613.613,0,0,0,.427.637" transform="translate(-215.301 -146.326)" fill="#fafafa"/>
    <path id="Trazado_5626" data-name="Trazado 5626" d="M84.556,164.223c-.188.733-.321,1.481-.457,2.134-.006.452.183.717.508.728a.543.543,0,0,0,.6-.382c.171-.726.315-1.458.45-2.192a.538.538,0,0,0-.472-.662.5.5,0,0,0-.625.374" transform="translate(-67.731 -131.948)" fill="#fafafa"/>
    <path id="Trazado_5627" data-name="Trazado 5627" d="M177.932,161.149c-.2-.323-.47-.476-.756-.358-.355.146-.462.387-.306.8a5.852,5.852,0,0,0,1.227,1.9.5.5,0,0,0,.633.107c.161-.081.262-.281.377-.414a2.8,2.8,0,0,0-.175-.495c-.327-.519-.681-1.021-1-1.545" transform="translate(-142.391 -129.466)" fill="#fafafa"/>
    <path id="Trazado_5628" data-name="Trazado 5628" d="M178.291,101.113a.692.692,0,0,0-.36.8c.192.679.407,1.351.625,2.022a.491.491,0,0,0,.6.346c.28-.057.538-.2.528-.583-.209-.7-.412-1.4-.631-2.092-.13-.414-.427-.593-.76-.488" transform="translate(-143.284 -81.411)" fill="#fafafa"/>
    <path id="Trazado_5629" data-name="Trazado 5629" d="M118.386,120.936c-.287.671-.532,1.36-.768,2.051a.6.6,0,0,0,.4.731.553.553,0,0,0,.7-.346c.136-.319.255-.646.372-.973.141-.394.272-.791.407-1.186a.559.559,0,0,0-.43-.586.551.551,0,0,0-.681.309" transform="translate(-94.706 -97.128)" fill="#fafafa"/>
    <path id="Trazado_5630" data-name="Trazado 5630" d="M61.959,256.828a.541.541,0,0,0,.4.651c.657.225,1.319.437,1.982.645a.533.533,0,0,0,.734-.38.524.524,0,0,0-.393-.711q-.322-.113-.646-.221l-1.465-.488a.567.567,0,0,0-.612.5" transform="translate(-49.888 -206.436)" fill="#fafafa"/>
    <path id="Trazado_5631" data-name="Trazado 5631" d="M152.53,152.712c-.481.079-.729.34-.545.885.214.635.506,1.244.779,1.857a.53.53,0,0,0,.753.307.6.6,0,0,0,.288-.814c-.253-.6-.507-1.193-.739-1.8a.664.664,0,0,0-.536-.437" transform="translate(-122.356 -122.991)" fill="#fafafa"/>
    <path id="Trazado_5632" data-name="Trazado 5632" d="M200.9,299.685c.178-.685.344-1.373.529-2.056a.482.482,0,0,0-.308-.658c-.291-.108-.608-.075-.719.239-.26.733-.465,1.485-.692,2.229.08.391.26.641.558.688a.59.59,0,0,0,.632-.442" transform="translate(-160.844 -239.129)" fill="#fafafa"/>
    <path id="Trazado_5633" data-name="Trazado 5633" d="M232,192.563a.544.544,0,0,0,.779-.368c.1-.33.174-.67.244-.945a2.6,2.6,0,0,0-.573-1.561.589.589,0,0,0-.832-.074.656.656,0,0,0-.034.851,1.489,1.489,0,0,1,.216.668,2.932,2.932,0,0,1-.125.742.549.549,0,0,0,.324.685" transform="translate(-186.398 -152.6)" fill="#fafafa"/>
    <path id="Trazado_5634" data-name="Trazado 5634" d="M111.792,144.1c.1-.1.336-.22.4-.4.243-.675.434-1.37.639-2.059a.562.562,0,0,0-.394-.727.585.585,0,0,0-.712.4c-.205.638-.421,1.274-.583,1.924-.136.546.111.775.651.859" transform="translate(-89.481 -113.464)" fill="#fafafa"/>
    <path id="Trazado_5635" data-name="Trazado 5635" d="M195.45,343.323a.625.625,0,0,0,.782-.519c.152-.645.266-1.3.4-1.949l-.059-.011c0-.074,0-.149,0-.223.026-.363-.213-.459-.5-.486a.491.491,0,0,0-.612.422q-.18.976-.369,1.951c-.079.4.069.742.364.815" transform="translate(-157.102 -273.934)" fill="#fafafa"/>
    <path id="Trazado_5636" data-name="Trazado 5636" d="M149.222,132.146a.5.5,0,0,0-.75,0,.84.84,0,0,0-.078.759,2.674,2.674,0,0,1,.438,1.54c0,.417.207.675.542.683a.638.638,0,0,0,.646-.614c-.031-.342-.036-.586-.079-.824a2.552,2.552,0,0,0-.72-1.541" transform="translate(-119.465 -106.291)" fill="#fafafa"/>
    <path id="Trazado_5637" data-name="Trazado 5637" d="M124.534,176.154a1.032,1.032,0,0,0,.058-.558.5.5,0,0,0-.5-.392.554.554,0,0,0-.6.376c-.122.3-.232.6-.338.91-.142.406-.275.815-.433,1.284.083.137.14.331.268.418.337.227.73.2.963-.415.2-.538.4-1.077.583-1.623" transform="translate(-98.836 -141.105)" fill="#fafafa"/>
    <path id="Trazado_5638" data-name="Trazado 5638" d="M169.771,60.534c-.073-.463-.125-.93-.225-1.387a.552.552,0,0,0-.717-.379.659.659,0,0,0-.394.634c.1.692.181,1.387.3,2.074a.505.505,0,0,0,.575.485.554.554,0,0,0,.565-.748c-.052-.222-.074-.452-.11-.678" transform="translate(-135.651 -47.313)" fill="#fafafa"/>
    <path id="Trazado_5639" data-name="Trazado 5639" d="M96.671,182.8a3.858,3.858,0,0,1-1.388,1.244.716.716,0,0,0-.23.571.438.438,0,0,0,.505.447,2.616,2.616,0,0,0,1.654-1.02,5.3,5.3,0,0,0,.571-.907c-.153-.207-.251-.472-.382-.489-.24-.031-.619,0-.729.154" transform="translate(-76.553 -147.094)" fill="#fafafa"/>
    <path id="Trazado_5640" data-name="Trazado 5640" d="M92.772,121.712c-.2.742-.358,1.494-.533,2.241a.66.66,0,0,0,.551.65.58.58,0,0,0,.614-.53c.061-.318.149-.63.214-.947.082-.4.171-.8.222-1.2a.427.427,0,0,0-.405-.506c-.269-.034-.577-.034-.664.3" transform="translate(-74.287 -97.774)" fill="#fafafa"/>
    <path id="Trazado_5641" data-name="Trazado 5641" d="M163.788,119.784a.532.532,0,0,0-.327.654c.176.685.386,1.362.6,2.036a.549.549,0,0,0,.579.41.521.521,0,0,0,.531-.7c-.2-.692-.4-1.383-.613-2.07a.537.537,0,0,0-.772-.331" transform="translate(-131.631 -96.427)" fill="#fafafa"/>
    <path id="Trazado_5642" data-name="Trazado 5642" d="M193.159,177.85a3.329,3.329,0,0,0-.537-.2c-.457-.213-.9-.458-1.363-.655a.529.529,0,0,0-.694.245.507.507,0,0,0,.133.719,5.907,5.907,0,0,0,2.234.979c.338.062.6-.19.685-.6a3.2,3.2,0,0,0-.457-.489" transform="translate(-153.402 -142.509)" fill="#fafafa"/>
    <path id="Trazado_5643" data-name="Trazado 5643" d="M107.371,161.621a.536.536,0,0,0-.633.461c-.107.7-.219,1.408-.329,2.113.039.368.233.668.515.665a.567.567,0,0,0,.641-.546c.089-.67.205-1.336.29-2.007.048-.385-.141-.668-.485-.685" transform="translate(-85.7 -130.165)" fill="#fafafa"/>
    <path id="Trazado_5644" data-name="Trazado 5644" d="M136.36,136.9c.2-.55.423-1.091.659-1.625a.6.6,0,0,0-.924-.753,5.277,5.277,0,0,0-.859,2.143c0,.456.2.7.485.746s.515-.164.639-.511" transform="translate(-108.916 -108.205)" fill="#fafafa"/>
    <path id="Trazado_5645" data-name="Trazado 5645" d="M131.206,154.609a.623.623,0,0,0-.715.429q-.29.981-.575,1.964a.554.554,0,0,0,.581.725.445.445,0,0,0,.527-.359c.208-.7.406-1.4.575-2.112a.5.5,0,0,0-.393-.648" transform="translate(-104.61 -124.51)" fill="#fafafa"/>
    <path id="Trazado_5646" data-name="Trazado 5646" d="M42.279,255.461a5.129,5.129,0,0,1,1.91-.21.561.561,0,1,0-.011-1.114c-.222,0-.444,0-.666,0,0-.01,0-.021,0-.031-.412.037-.825.066-1.236.117a1.289,1.289,0,0,0-.366.14.6.6,0,0,0-.347.706.567.567,0,0,0,.719.393" transform="translate(-33.451 -204.651)" fill="#fafafa"/>
    <path id="Trazado_5647" data-name="Trazado 5647" d="M213.406,184.568q-.955-.189-1.906-.4a.6.6,0,0,0-.733.353.581.581,0,0,0,.37.765c.717.16,1.443.283,2.057.4.467,0,.718-.2.748-.506a.58.58,0,0,0-.535-.61" transform="translate(-169.72 -148.308)" fill="#fafafa"/>
    <path id="Trazado_5648" data-name="Trazado 5648" d="M160.335,101.252c-.108-.582-.22-1.284-.375-1.976-.09-.4-.348-.539-.768-.446-.366.081-.384.382-.338.668.108.665.237,1.326.367,1.987a.571.571,0,0,0,.619.533c.287-.021.493-.292.494-.767" transform="translate(-127.923 -79.573)" fill="#fafafa"/>
    <path id="Trazado_5649" data-name="Trazado 5649" d="M171.072,140.885a.513.513,0,0,0-.59-.413c-.455-.106-.62.455-.491.823.214.611.416,1.226.627,1.839a.582.582,0,0,0,.723.437.6.6,0,0,0,.351-.806c-.2-.627-.427-1.249-.62-1.88" transform="translate(-136.873 -113.122)" fill="#fafafa"/>
    <path id="Trazado_5650" data-name="Trazado 5650" d="M140.991,92.762a10.96,10.96,0,0,0-1.245.315.625.625,0,0,0-.382.776c.139.315.482.385.881.266a4.461,4.461,0,0,1,1.032-.147c.264-.014.532.063.8.057.321-.008.45-.225.469-.526a.507.507,0,0,0-.442-.573c-.357-.068-.725-.076-1.088-.11l-.023-.057" transform="translate(-112.212 -74.709)" fill="#fafafa"/>
    <path id="Trazado_5651" data-name="Trazado 5651" d="M79.465,185.294c-.143.328-.283.658-.4,1-.144.43-.007.682.448.809a6.96,6.96,0,0,0,1.053.214.547.547,0,0,0,.621-.586c0-.411-.212-.58-.783-.609.045-.141.085-.267.125-.393a.581.581,0,0,0-.316-.706.6.6,0,0,0-.751.274" transform="translate(-63.636 -148.978)" fill="#fafafa"/>
    <path id="Trazado_5652" data-name="Trazado 5652" d="M260.792,223.67c-.442-.076-.743.129-.763.543-.017.358,0,.718,0,1.077,0,.334,0,.669,0,1,0,.427.167.576.615.571.37,0,.5-.145.5-.557,0-.643-.014-1.288.024-1.929.02-.333-.1-.661-.372-.707" transform="translate(-209.415 -180.127)" fill="#fafafa"/>
    <path id="Trazado_5653" data-name="Trazado 5653" d="M255.665,246.491a.534.534,0,0,0,.41.669,8.123,8.123,0,0,0,1.224.169c.37.023.541-.158.534-.53-.008-.4-.036-.807-.075-1.208a.536.536,0,0,0-.592-.473c-.27.068-.549.169-.519.546.01.121,0,.244,0,.409a1.623,1.623,0,0,1-.258-.018.543.543,0,0,0-.725.435" transform="translate(-205.889 -197.405)" fill="#fafafa"/>
    <path id="Trazado_5654" data-name="Trazado 5654" d="M225.555,232.823c-.01-.353-.066-.706-.065-1.058a.441.441,0,0,0-.352-.485c-.178-.036-.462-.032-.55.076a3.162,3.162,0,0,0-.339.816c-.008,0-.1,0-.2,0-.429.009-.648.216-.645.609,0,.365.23.564.639.581.267.011.534.036.8.072a.588.588,0,0,0,.715-.612" transform="translate(-179.925 -186.251)" fill="#fafafa"/>
    <path id="Trazado_5655" data-name="Trazado 5655" d="M174,190.324a.611.611,0,0,0-.758-.2.586.586,0,0,0-.216.822,8.492,8.492,0,0,0,.765.966.5.5,0,0,0,.656.081,1.853,1.853,0,0,0,.37-.458,4.121,4.121,0,0,0-.242-.459c-.183-.255-.386-.5-.574-.748" transform="translate(-139.281 -153.067)" fill="#fafafa"/>
    <path id="Trazado_5656" data-name="Trazado 5656" d="M56.651,30.931A69.79,69.79,0,0,1,48.439,28.6a15.115,15.115,0,0,1-9.428-9.708c-2.365-7.072,2.314-13.9,8.314-15a4.077,4.077,0,0,0,1.721-.829,1.456,1.456,0,0,0-.255-2.5A3.778,3.778,0,0,0,47.6.173,13.93,13.93,0,0,0,40.8.846C36.621,2.2,32.478,3.524,27.957,2.788c-1.79-.291-3.175.759-4.049,2.335a21.389,21.389,0,0,1-5.46,6.4,12.857,12.857,0,0,0-4.669,8.153c-.761,4.207-1.5,8.43-2.546,12.571C9.833,37.783,6.54,41.7.769,43.132c-.516.128-.857.393-.75.938a.8.8,0,0,0,1.118.629,16.678,16.678,0,0,0,3.128-1.031,16.035,16.035,0,0,0,8.525-10.909c1.037-4.38,1.854-8.814,2.684-13.239a10.538,10.538,0,0,1,3.736-6.513A24.067,24.067,0,0,0,25.323,5.9a2.914,2.914,0,0,1,3.109-1.508c1,.083,2,.218,3,.243a22.014,22.014,0,0,0,7.118-1.419c2.843-.888,5.658-1.957,8.734-1.455l.765.1-.556.294a8.147,8.147,0,0,1-.919.3c-5.687,1.133-10,6.871-9.779,12.776.222,6,3.215,10.421,8.236,13.514,3.251,2,6.924,2.867,10.617,3.633,3.11.645,3.5,1.371,2.669,4.441a40.875,40.875,0,0,0-1.1,5.318c-.5,3.8.112,7.569.481,11.342.12,1.224.23,2.448.344,3.672l-.25.051a5.318,5.318,0,0,0-.714-.777,21.925,21.925,0,0,0-3.63-2.536,7.383,7.383,0,0,0-10.478,5.616,27.571,27.571,0,0,0-.331,3.773,32.764,32.764,0,0,1-2.206,11.979,44.408,44.408,0,0,1-2.565,5.227,1.336,1.336,0,0,1-2.467-.087,2.3,2.3,0,0,1-.2-1.649A8.342,8.342,0,0,1,36.528,76.4c1.719-2.178,1.459-3.746-.95-5.155a5.543,5.543,0,0,0-.777-.4c-2.354-.914-4.7-1.86-7.075-2.705a2.477,2.477,0,0,1-1.715-1.761,20.427,20.427,0,0,0-1.74-4.192,17.3,17.3,0,0,0-8.118-6.871C13.5,54.13,10.726,53.2,8.006,52.152l-.036.038a.516.516,0,0,0-.176-.107c-.114-.043-.222-.1-.371-.173a1.635,1.635,0,0,1,.127-.226.542.542,0,0,0-.084-.841.534.534,0,0,0-.781.086,8.106,8.106,0,0,0-.674,1.035.447.447,0,0,0,.251.709c.294.132.594.25.9.361l-.089.092a7.5,7.5,0,0,0,1.49.928A41.547,41.547,0,0,1,17.736,58c3.188,2.022,5.746,4.616,6.626,8.413a4.4,4.4,0,0,0,3.37,3.434,71.342,71.342,0,0,1,7.028,2.816c1.544.7,1.529,1.353.534,2.711a11.26,11.26,0,0,0-1.7,3.214,3.414,3.414,0,0,0,2.046,4.058c1.5.586,2.8.1,3.766-1.508A32.111,32.111,0,0,0,43.742,69.15c.381-2.655.4-5.361.62-8.041.171-2.056.684-3.971,2.527-5.237a6.659,6.659,0,0,1,8.029.7c.611.527,1.139,1.151,1.708,1.727a1.692,1.692,0,0,0,3.024-1.407c-.106-1.357-.246-2.712-.4-4.064-.641-5.5-.972-10.961.768-16.377.993-3.089-.224-4.761-3.364-5.517" transform="translate(0 0)" fill="#fafafa"/>
  </g>
</svg>
