<svg xmlns="http://www.w3.org/2000/svg" xmlns:xlink="http://www.w3.org/1999/xlink" width="1366" height="351.39" viewBox="0 0 1366 351.39">
  <defs>
    <clipPath id="clip-path">
      <rect id="Rectángulo_2390" data-name="Rectángulo 2390" width="1366" height="351.39" transform="translate(11383 -516.005)" fill="#451547"/>
    </clipPath>
    <clipPath id="clip-path-2">
      <rect id="Rectángulo_2388" data-name="Rectángulo 2388" width="514.064" height="468.771" fill="none" stroke="#5f2161" stroke-width="1"/>
    </clipPath>
  </defs>
  <g id="Enmascarar_grupo_74" data-name="Enmascarar grupo 74" transform="translate(-11383 516.005)" clip-path="url(#clip-path)">
    <rect id="Rectángulo_2387" data-name="Rectángulo 2387" width="1366" height="351.39" transform="translate(11383 -516.005)" fill="#451547"/>
    <g id="Grupo_1342" data-name="Grupo 1342" transform="translate(11383 -633.385)">
      <g id="Grupo_1341" data-name="Grupo 1341" clip-path="url(#clip-path-2)">
        <path id="Trazado_6048" data-name="Trazado 6048" d="M514.064,468.771V390.642h-43.1" transform="translate(-470.962)" fill="none" stroke="#5f2161" stroke-width="4.381"/>
        <path id="Trazado_6049" data-name="Trazado 6049" d="M514.063,468.771V390.642H435.935V312.514H357.807V234.385H313.245" transform="translate(-313.244)" fill="none" stroke="#5f2161" stroke-width="4.381"/>
        <path id="Trazado_6050" data-name="Trazado 6050" d="M514.063,468.771V390.642H435.934V312.514H357.806V234.385H279.677V156.257H201.549V78.128H156.987" transform="translate(-156.987)" fill="none" stroke="#5f2161" stroke-width="4.381"/>
        <path id="Trazado_6051" data-name="Trazado 6051" d="M392.833,468.771V390.642H314.7V312.514H236.576V234.385H158.447V156.257H80.319V78.128H2.191V0" transform="translate(119.04)" fill="none" stroke="#5f2161" stroke-width="4.381"/>
      </g>
    </g>
    <g id="Grupo_1343" data-name="Grupo 1343" transform="translate(12234.936 -633.385)">
      <g id="Grupo_1341-2" data-name="Grupo 1341" clip-path="url(#clip-path-2)">
        <path id="Trazado_6048-2" data-name="Trazado 6048" d="M470.962,468.771V390.642h43.1" transform="translate(0)" fill="none" stroke="#5f2161" stroke-width="4.381"/>
        <path id="Trazado_6049-2" data-name="Trazado 6049" d="M313.245,468.771V390.642h78.129V312.514H469.5V234.385h44.562" transform="translate(0)" fill="none" stroke="#5f2161" stroke-width="4.381"/>
        <path id="Trazado_6050-2" data-name="Trazado 6050" d="M156.987,468.771V390.642h78.129V312.514h78.128V234.385h78.129V156.257H469.5V78.128h44.562" transform="translate(0)" fill="none" stroke="#5f2161" stroke-width="4.381"/>
        <path id="Trazado_6051-2" data-name="Trazado 6051" d="M2.191,468.771V390.642H80.32V312.514h78.128V234.385h78.129V156.257H314.7V78.128h78.129V0" transform="translate(0)" fill="none" stroke="#5f2161" stroke-width="4.381"/>
      </g>
    </g>
  </g>
</svg>
