<svg xmlns="http://www.w3.org/2000/svg" xmlns:xlink="http://www.w3.org/1999/xlink" width="408.878" height="102.296" viewBox="0 0 408.878 102.296">
  <defs>
    <clipPath id="clip-path">
      <rect id="Rectángulo_1679" data-name="Rectángulo 1679" width="71.293" height="102.296" fill="#fafafa"/>
    </clipPath>
  </defs>
  <g id="Grupo_900" data-name="Grupo 900" transform="translate(-872.976 -3071.204)">
    <g id="Grupo_602" data-name="Grupo 602" transform="translate(872.976 3071.204)" opacity="0.3">
      <g id="Grupo_601" data-name="Grupo 601" clip-path="url(#clip-path)">
        <path id="Trazado_1444" data-name="Trazado 1444" d="M45.687,36.786v4.059c.076.038.113.072.153.075,1.118.077,1.137.076,1.153,1.187.02,1.385,0,2.772,0,4.242h1.372V51.8l1.394.064V57.2l1.335.107v4.075h1.36v5.467h1.386V72.28l1.225.071v3.974c.112.061.148.1.188.1,1.11.084,1.134.082,1.154,1.2.026,1.384.006,2.769.006,4.238H57.8v5.442h1.368v5.4l1.357.112v4.07l1.312.06v1.245H57.871c-.027.492-.049.891-.076,1.4h-5.2c-.042.5-.076.892-.115,1.353H48.489c-.062.105-.1.141-.1.18-.086,1.123-.085,1.128-1.247,1.168-.449.015-.9,0-1.41,0V99.614l-1.235-.058v-5.4l-1.379-.063c0-.946,0-1.85,0-2.754,0-.387.007-.774-.008-1.161-.017-.43.088-.969-.129-1.256-.191-.252-.755-.223-1.23-.336v-4l-1.336-.059v-5.4h-1.4V73.715l-1.353-.1V69.56L36.332,69.5c-.02-.423-.039-.823-.06-1.274h-1.3V72.66c0,1.012.084.96-.967.952-.09,0-.18.02-.343.038v4.056l-1.363.066v5.389l-1.373.06V88.6l-1.369.08v4.056l-1.326.082v5.376h-1.4v4.068H24.3v-1.3H18.867c-.029-.5-.053-.9-.08-1.366H14.948c-.073-.1-.115-.137-.12-.175C14.7,98.361,14.7,98.33,13.6,98.275c-.924-.046-1.853-.01-2.816-.01V96.909a2.2,2.2,0,0,1,.52-.069c.552.059.757-.14.749-.721-.018-1.363.034-2.726.059-4.089,0-.177.018-.352.029-.563l1.31-.075V86.018l1.386-.072v-5.4h1.342V76.443l1.216-.092V71l1.4-.072v-5.4h1.355V61.444c1.343-.308,1.355-.307,1.379-1.825.019-1.2,0-2.4,0-3.654l1.325-.077V50.5h1.386V45.052l1.385-.068V40.928l1.2-.082V35.419h1.36V34.091H26.845v1.343H25.608V36.74H24.243v1.366H22.877v1.366H21.512v1.366H20.146V42.2H18.781v1.365H17.415v1.357l-1.228.059V46.3H14.822v1.365H13.456v1.365H12.09v1.366H10.725V51.76H9.359v1.365H7.994v1.349H6.806v-1.3H5.441V51.807H4.076V50.441H2.711V49.076H1.345V47.711H0v-1.3H1.295V45.044H2.661V43.679H4.026V42.313H5.391V40.948H6.756V39.584l1.252-.059V38.195H9.373V36.829h1.365V35.464H12.1V34.1h1.366V32.733h1.365V31.368H16.2V30.024l1.229-.059V28.638h1.365V27.273h1.366V25.908h1.365V24.542H22.89V23.177h1.365V21.811H25.62V20.444H28.18v-1.4H26.886v-1.36l-1.23-.056V14.942H24.31V8.171L25.6,8.1V5.444L26.9,5.384c0-.7.023-1.381-.008-2.055-.023-.488.174-.641.641-.621.654.028,1.31.007,2.029.007V1.329h2.685C32.276.843,32.3.445,32.331,0h6.634c.026.4.051.778.084,1.261h2.618c.024.5.044.9.068,1.379H44.4V5.366l1.241.074V8.081l1.324.071V14.9H45.673v2.717l-1.228.06V19H43.1V20.4h2.526v1.366h1.366v1.366h1.366V24.5h1.366v1.366h1.365v1.366h1.366V28.6H53.82v1.36l1.229.062v1.309h1.365v1.366H57.78v1.366h1.366v1.366h1.366v1.365h1.366v1.365h1.365v1.359l1.23.065v1.306h1.371v1.367h1.373v1.369h1.35c.026.476.049.894.074,1.35l1.3.065c.02.42.038.82.061,1.3l1.291.064v1.266h-1.3v1.365H68.628v1.365H67.263v1.366H65.9v1.365H64.532v1.338H63.343V53.174H61.979V51.808H60.613V50.443H59.248V49.077H57.882V47.712H56.517V46.347H55.151V45l-1.229-.065V43.616H52.557V42.25H51.192V40.885H49.826V39.52H48.461V38.154H47.1V36.8H45.675V35.46H44.487v1.325Z" fill="#fafafa"/>
      </g>
    </g>
    <g id="Grupo_610" data-name="Grupo 610" transform="translate(1098.191 3071.204)" opacity="0.3">
      <g id="Grupo_601-2" data-name="Grupo 601" clip-path="url(#clip-path)">
        <path id="Trazado_1444-2" data-name="Trazado 1444" d="M45.687,36.786v4.059c.076.038.113.072.153.075,1.118.077,1.137.076,1.153,1.187.02,1.385,0,2.772,0,4.242h1.372V51.8l1.394.064V57.2l1.335.107v4.075h1.36v5.467h1.386V72.28l1.225.071v3.974c.112.061.148.1.188.1,1.11.084,1.134.082,1.154,1.2.026,1.384.006,2.769.006,4.238H57.8v5.442h1.368v5.4l1.357.112v4.07l1.312.06v1.245H57.871c-.027.492-.049.891-.076,1.4h-5.2c-.042.5-.076.892-.115,1.353H48.489c-.062.105-.1.141-.1.18-.086,1.123-.085,1.128-1.247,1.168-.449.015-.9,0-1.41,0V99.614l-1.235-.058v-5.4l-1.379-.063c0-.946,0-1.85,0-2.754,0-.387.007-.774-.008-1.161-.017-.43.088-.969-.129-1.256-.191-.252-.755-.223-1.23-.336v-4l-1.336-.059v-5.4h-1.4V73.715l-1.353-.1V69.56L36.332,69.5c-.02-.423-.039-.823-.06-1.274h-1.3V72.66c0,1.012.084.96-.967.952-.09,0-.18.02-.343.038v4.056l-1.363.066v5.389l-1.373.06V88.6l-1.369.08v4.056l-1.326.082v5.376h-1.4v4.068H24.3v-1.3H18.867c-.029-.5-.053-.9-.08-1.366H14.948c-.073-.1-.115-.137-.12-.175C14.7,98.361,14.7,98.33,13.6,98.275c-.924-.046-1.853-.01-2.816-.01V96.909a2.2,2.2,0,0,1,.52-.069c.552.059.757-.14.749-.721-.018-1.363.034-2.726.059-4.089,0-.177.018-.352.029-.563l1.31-.075V86.018l1.386-.072v-5.4h1.342V76.443l1.216-.092V71l1.4-.072v-5.4h1.355V61.444c1.343-.308,1.355-.307,1.379-1.825.019-1.2,0-2.4,0-3.654l1.325-.077V50.5h1.386V45.052l1.385-.068V40.928l1.2-.082V35.419h1.36V34.091H26.845v1.343H25.608V36.74H24.243v1.366H22.877v1.366H21.512v1.366H20.146V42.2H18.781v1.365H17.415v1.357l-1.228.059V46.3H14.822v1.365H13.456v1.365H12.09v1.366H10.725V51.76H9.359v1.365H7.994v1.349H6.806v-1.3H5.441V51.807H4.076V50.441H2.711V49.076H1.345V47.711H0v-1.3H1.295V45.044H2.661V43.679H4.026V42.313H5.391V40.948H6.756V39.584l1.252-.059V38.195H9.373V36.829h1.365V35.464H12.1V34.1h1.366V32.733h1.365V31.368H16.2V30.024l1.229-.059V28.638h1.365V27.273h1.366V25.908h1.365V24.542H22.89V23.177h1.365V21.811H25.62V20.444H28.18v-1.4H26.886v-1.36l-1.23-.056V14.942H24.31V8.171L25.6,8.1V5.444L26.9,5.384c0-.7.023-1.381-.008-2.055-.023-.488.174-.641.641-.621.654.028,1.31.007,2.029.007V1.329h2.685C32.276.843,32.3.445,32.331,0h6.634c.026.4.051.778.084,1.261h2.618c.024.5.044.9.068,1.379H44.4V5.366l1.241.074V8.081l1.324.071V14.9H45.673v2.717l-1.228.06V19H43.1V20.4h2.526v1.366h1.366v1.366h1.366V24.5h1.366v1.366h1.365v1.366h1.366V28.6H53.82v1.36l1.229.062v1.309h1.365v1.366H57.78v1.366h1.366v1.366h1.366v1.365h1.366v1.365h1.365v1.359l1.23.065v1.306h1.371v1.367h1.373v1.369h1.35c.026.476.049.894.074,1.35l1.3.065c.02.42.038.82.061,1.3l1.291.064v1.266h-1.3v1.365H68.628v1.365H67.263v1.366H65.9v1.365H64.532v1.338H63.343V53.174H61.979V51.808H60.613V50.443H59.248V49.077H57.882V47.712H56.517V46.347H55.151V45l-1.229-.065V43.616H52.557V42.25H51.192V40.885H49.826V39.52H48.461V38.154H47.1V36.8H45.675V35.46H44.487v1.325Z" fill="#fafafa"/>
      </g>
    </g>
    <g id="Grupo_603" data-name="Grupo 603" transform="translate(929.23 3071.204)" opacity="0.3">
      <g id="Grupo_601-3" data-name="Grupo 601" clip-path="url(#clip-path)">
        <path id="Trazado_1444-3" data-name="Trazado 1444" d="M45.687,36.786v4.059c.076.038.113.072.153.075,1.118.077,1.137.076,1.153,1.187.02,1.385,0,2.772,0,4.242h1.372V51.8l1.394.064V57.2l1.335.107v4.075h1.36v5.467h1.386V72.28l1.225.071v3.974c.112.061.148.1.188.1,1.11.084,1.134.082,1.154,1.2.026,1.384.006,2.769.006,4.238H57.8v5.442h1.368v5.4l1.357.112v4.07l1.312.06v1.245H57.871c-.027.492-.049.891-.076,1.4h-5.2c-.042.5-.076.892-.115,1.353H48.489c-.062.105-.1.141-.1.18-.086,1.123-.085,1.128-1.247,1.168-.449.015-.9,0-1.41,0V99.614l-1.235-.058v-5.4l-1.379-.063c0-.946,0-1.85,0-2.754,0-.387.007-.774-.008-1.161-.017-.43.088-.969-.129-1.256-.191-.252-.755-.223-1.23-.336v-4l-1.336-.059v-5.4h-1.4V73.715l-1.353-.1V69.56L36.332,69.5c-.02-.423-.039-.823-.06-1.274h-1.3V72.66c0,1.012.084.96-.967.952-.09,0-.18.02-.343.038v4.056l-1.363.066v5.389l-1.373.06V88.6l-1.369.08v4.056l-1.326.082v5.376h-1.4v4.068H24.3v-1.3H18.867c-.029-.5-.053-.9-.08-1.366H14.948c-.073-.1-.115-.137-.12-.175C14.7,98.361,14.7,98.33,13.6,98.275c-.924-.046-1.853-.01-2.816-.01V96.909a2.2,2.2,0,0,1,.52-.069c.552.059.757-.14.749-.721-.018-1.363.034-2.726.059-4.089,0-.177.018-.352.029-.563l1.31-.075V86.018l1.386-.072v-5.4h1.342V76.443l1.216-.092V71l1.4-.072v-5.4h1.355V61.444c1.343-.308,1.355-.307,1.379-1.825.019-1.2,0-2.4,0-3.654l1.325-.077V50.5h1.386V45.052l1.385-.068V40.928l1.2-.082V35.419h1.36V34.091H26.845v1.343H25.608V36.74H24.243v1.366H22.877v1.366H21.512v1.366H20.146V42.2H18.781v1.365H17.415v1.357l-1.228.059V46.3H14.822v1.365H13.456v1.365H12.09v1.366H10.725V51.76H9.359v1.365H7.994v1.349H6.806v-1.3H5.441V51.807H4.076V50.441H2.711V49.076H1.345V47.711H0v-1.3H1.295V45.044H2.661V43.679H4.026V42.313H5.391V40.948H6.756V39.584l1.252-.059V38.195H9.373V36.829h1.365V35.464H12.1V34.1h1.366V32.733h1.365V31.368H16.2V30.024l1.229-.059V28.638h1.365V27.273h1.366V25.908h1.365V24.542H22.89V23.177h1.365V21.811H25.62V20.444H28.18v-1.4H26.886v-1.36l-1.23-.056V14.942H24.31V8.171L25.6,8.1V5.444L26.9,5.384c0-.7.023-1.381-.008-2.055-.023-.488.174-.641.641-.621.654.028,1.31.007,2.029.007V1.329h2.685C32.276.843,32.3.445,32.331,0h6.634c.026.4.051.778.084,1.261h2.618c.024.5.044.9.068,1.379H44.4V5.366l1.241.074V8.081l1.324.071V14.9H45.673v2.717l-1.228.06V19H43.1V20.4h2.526v1.366h1.366v1.366h1.366V24.5h1.366v1.366h1.365v1.366h1.366V28.6H53.82v1.36l1.229.062v1.309h1.365v1.366H57.78v1.366h1.366v1.366h1.366v1.365h1.366v1.365h1.365v1.359l1.23.065v1.306h1.371v1.367h1.373v1.369h1.35c.026.476.049.894.074,1.35l1.3.065c.02.42.038.82.061,1.3l1.291.064v1.266h-1.3v1.365H68.628v1.365H67.263v1.366H65.9v1.365H64.532v1.338H63.343V53.174H61.979V51.808H60.613V50.443H59.248V49.077H57.882V47.712H56.517V46.347H55.151V45l-1.229-.065V43.616H52.557V42.25H51.192V40.885H49.826V39.52H48.461V38.154H47.1V36.8H45.675V35.46H44.487v1.325Z" fill="#fafafa"/>
      </g>
    </g>
    <g id="Grupo_608" data-name="Grupo 608" transform="translate(1154.447 3071.204)" opacity="0.3">
      <g id="Grupo_601-4" data-name="Grupo 601" clip-path="url(#clip-path)">
        <path id="Trazado_1444-4" data-name="Trazado 1444" d="M45.687,36.786v4.059c.076.038.113.072.153.075,1.118.077,1.137.076,1.153,1.187.02,1.385,0,2.772,0,4.242h1.372V51.8l1.394.064V57.2l1.335.107v4.075h1.36v5.467h1.386V72.28l1.225.071v3.974c.112.061.148.1.188.1,1.11.084,1.134.082,1.154,1.2.026,1.384.006,2.769.006,4.238H57.8v5.442h1.368v5.4l1.357.112v4.07l1.312.06v1.245H57.871c-.027.492-.049.891-.076,1.4h-5.2c-.042.5-.076.892-.115,1.353H48.489c-.062.105-.1.141-.1.18-.086,1.123-.085,1.128-1.247,1.168-.449.015-.9,0-1.41,0V99.614l-1.235-.058v-5.4l-1.379-.063c0-.946,0-1.85,0-2.754,0-.387.007-.774-.008-1.161-.017-.43.088-.969-.129-1.256-.191-.252-.755-.223-1.23-.336v-4l-1.336-.059v-5.4h-1.4V73.715l-1.353-.1V69.56L36.332,69.5c-.02-.423-.039-.823-.06-1.274h-1.3V72.66c0,1.012.084.96-.967.952-.09,0-.18.02-.343.038v4.056l-1.363.066v5.389l-1.373.06V88.6l-1.369.08v4.056l-1.326.082v5.376h-1.4v4.068H24.3v-1.3H18.867c-.029-.5-.053-.9-.08-1.366H14.948c-.073-.1-.115-.137-.12-.175C14.7,98.361,14.7,98.33,13.6,98.275c-.924-.046-1.853-.01-2.816-.01V96.909a2.2,2.2,0,0,1,.52-.069c.552.059.757-.14.749-.721-.018-1.363.034-2.726.059-4.089,0-.177.018-.352.029-.563l1.31-.075V86.018l1.386-.072v-5.4h1.342V76.443l1.216-.092V71l1.4-.072v-5.4h1.355V61.444c1.343-.308,1.355-.307,1.379-1.825.019-1.2,0-2.4,0-3.654l1.325-.077V50.5h1.386V45.052l1.385-.068V40.928l1.2-.082V35.419h1.36V34.091H26.845v1.343H25.608V36.74H24.243v1.366H22.877v1.366H21.512v1.366H20.146V42.2H18.781v1.365H17.415v1.357l-1.228.059V46.3H14.822v1.365H13.456v1.365H12.09v1.366H10.725V51.76H9.359v1.365H7.994v1.349H6.806v-1.3H5.441V51.807H4.076V50.441H2.711V49.076H1.345V47.711H0v-1.3H1.295V45.044H2.661V43.679H4.026V42.313H5.391V40.948H6.756V39.584l1.252-.059V38.195H9.373V36.829h1.365V35.464H12.1V34.1h1.366V32.733h1.365V31.368H16.2V30.024l1.229-.059V28.638h1.365V27.273h1.366V25.908h1.365V24.542H22.89V23.177h1.365V21.811H25.62V20.444H28.18v-1.4H26.886v-1.36l-1.23-.056V14.942H24.31V8.171L25.6,8.1V5.444L26.9,5.384c0-.7.023-1.381-.008-2.055-.023-.488.174-.641.641-.621.654.028,1.31.007,2.029.007V1.329h2.685C32.276.843,32.3.445,32.331,0h6.634c.026.4.051.778.084,1.261h2.618c.024.5.044.9.068,1.379H44.4V5.366l1.241.074V8.081l1.324.071V14.9H45.673v2.717l-1.228.06V19H43.1V20.4h2.526v1.366h1.366v1.366h1.366V24.5h1.366v1.366h1.365v1.366h1.366V28.6H53.82v1.36l1.229.062v1.309h1.365v1.366H57.78v1.366h1.366v1.366h1.366v1.365h1.366v1.365h1.365v1.359l1.23.065v1.306h1.371v1.367h1.373v1.369h1.35c.026.476.049.894.074,1.35l1.3.065c.02.42.038.82.061,1.3l1.291.064v1.266h-1.3v1.365H68.628v1.365H67.263v1.366H65.9v1.365H64.532v1.338H63.343V53.174H61.979V51.808H60.613V50.443H59.248V49.077H57.882V47.712H56.517V46.347H55.151V45l-1.229-.065V43.616H52.557V42.25H51.192V40.885H49.826V39.52H48.461V38.154H47.1V36.8H45.675V35.46H44.487v1.325Z" fill="#fafafa"/>
      </g>
    </g>
    <g id="Grupo_604" data-name="Grupo 604" transform="translate(985.345 3071.204)" opacity="0.3">
      <g id="Grupo_601-5" data-name="Grupo 601" clip-path="url(#clip-path)">
        <path id="Trazado_1444-5" data-name="Trazado 1444" d="M45.687,36.786v4.059c.076.038.113.072.153.075,1.118.077,1.137.076,1.153,1.187.02,1.385,0,2.772,0,4.242h1.372V51.8l1.394.064V57.2l1.335.107v4.075h1.36v5.467h1.386V72.28l1.225.071v3.974c.112.061.148.1.188.1,1.11.084,1.134.082,1.154,1.2.026,1.384.006,2.769.006,4.238H57.8v5.442h1.368v5.4l1.357.112v4.07l1.312.06v1.245H57.871c-.027.492-.049.891-.076,1.4h-5.2c-.042.5-.076.892-.115,1.353H48.489c-.062.105-.1.141-.1.18-.086,1.123-.085,1.128-1.247,1.168-.449.015-.9,0-1.41,0V99.614l-1.235-.058v-5.4l-1.379-.063c0-.946,0-1.85,0-2.754,0-.387.007-.774-.008-1.161-.017-.43.088-.969-.129-1.256-.191-.252-.755-.223-1.23-.336v-4l-1.336-.059v-5.4h-1.4V73.715l-1.353-.1V69.56L36.332,69.5c-.02-.423-.039-.823-.06-1.274h-1.3V72.66c0,1.012.084.96-.967.952-.09,0-.18.02-.343.038v4.056l-1.363.066v5.389l-1.373.06V88.6l-1.369.08v4.056l-1.326.082v5.376h-1.4v4.068H24.3v-1.3H18.867c-.029-.5-.053-.9-.08-1.366H14.948c-.073-.1-.115-.137-.12-.175C14.7,98.361,14.7,98.33,13.6,98.275c-.924-.046-1.853-.01-2.816-.01V96.909a2.2,2.2,0,0,1,.52-.069c.552.059.757-.14.749-.721-.018-1.363.034-2.726.059-4.089,0-.177.018-.352.029-.563l1.31-.075V86.018l1.386-.072v-5.4h1.342V76.443l1.216-.092V71l1.4-.072v-5.4h1.355V61.444c1.343-.308,1.355-.307,1.379-1.825.019-1.2,0-2.4,0-3.654l1.325-.077V50.5h1.386V45.052l1.385-.068V40.928l1.2-.082V35.419h1.36V34.091H26.845v1.343H25.608V36.74H24.243v1.366H22.877v1.366H21.512v1.366H20.146V42.2H18.781v1.365H17.415v1.357l-1.228.059V46.3H14.822v1.365H13.456v1.365H12.09v1.366H10.725V51.76H9.359v1.365H7.994v1.349H6.806v-1.3H5.441V51.807H4.076V50.441H2.711V49.076H1.345V47.711H0v-1.3H1.295V45.044H2.661V43.679H4.026V42.313H5.391V40.948H6.756V39.584l1.252-.059V38.195H9.373V36.829h1.365V35.464H12.1V34.1h1.366V32.733h1.365V31.368H16.2V30.024l1.229-.059V28.638h1.365V27.273h1.366V25.908h1.365V24.542H22.89V23.177h1.365V21.811H25.62V20.444H28.18v-1.4H26.886v-1.36l-1.23-.056V14.942H24.31V8.171L25.6,8.1V5.444L26.9,5.384c0-.7.023-1.381-.008-2.055-.023-.488.174-.641.641-.621.654.028,1.31.007,2.029.007V1.329h2.685C32.276.843,32.3.445,32.331,0h6.634c.026.4.051.778.084,1.261h2.618c.024.5.044.9.068,1.379H44.4V5.366l1.241.074V8.081l1.324.071V14.9H45.673v2.717l-1.228.06V19H43.1V20.4h2.526v1.366h1.366v1.366h1.366V24.5h1.366v1.366h1.365v1.366h1.366V28.6H53.82v1.36l1.229.062v1.309h1.365v1.366H57.78v1.366h1.366v1.366h1.366v1.365h1.366v1.365h1.365v1.359l1.23.065v1.306h1.371v1.367h1.373v1.369h1.35c.026.476.049.894.074,1.35l1.3.065c.02.42.038.82.061,1.3l1.291.064v1.266h-1.3v1.365H68.628v1.365H67.263v1.366H65.9v1.365H64.532v1.338H63.343V53.174H61.979V51.808H60.613V50.443H59.248V49.077H57.882V47.712H56.517V46.347H55.151V45l-1.229-.065V43.616H52.557V42.25H51.192V40.885H49.826V39.52H48.461V38.154H47.1V36.8H45.675V35.46H44.487v1.325Z" fill="#fafafa"/>
      </g>
    </g>
    <g id="Grupo_609" data-name="Grupo 609" transform="translate(1210.561 3071.204)" opacity="0.3">
      <g id="Grupo_601-6" data-name="Grupo 601" clip-path="url(#clip-path)">
        <path id="Trazado_1444-6" data-name="Trazado 1444" d="M45.687,36.786v4.059c.076.038.113.072.153.075,1.118.077,1.137.076,1.153,1.187.02,1.385,0,2.772,0,4.242h1.372V51.8l1.394.064V57.2l1.335.107v4.075h1.36v5.467h1.386V72.28l1.225.071v3.974c.112.061.148.1.188.1,1.11.084,1.134.082,1.154,1.2.026,1.384.006,2.769.006,4.238H57.8v5.442h1.368v5.4l1.357.112v4.07l1.312.06v1.245H57.871c-.027.492-.049.891-.076,1.4h-5.2c-.042.5-.076.892-.115,1.353H48.489c-.062.105-.1.141-.1.18-.086,1.123-.085,1.128-1.247,1.168-.449.015-.9,0-1.41,0V99.614l-1.235-.058v-5.4l-1.379-.063c0-.946,0-1.85,0-2.754,0-.387.007-.774-.008-1.161-.017-.43.088-.969-.129-1.256-.191-.252-.755-.223-1.23-.336v-4l-1.336-.059v-5.4h-1.4V73.715l-1.353-.1V69.56L36.332,69.5c-.02-.423-.039-.823-.06-1.274h-1.3V72.66c0,1.012.084.96-.967.952-.09,0-.18.02-.343.038v4.056l-1.363.066v5.389l-1.373.06V88.6l-1.369.08v4.056l-1.326.082v5.376h-1.4v4.068H24.3v-1.3H18.867c-.029-.5-.053-.9-.08-1.366H14.948c-.073-.1-.115-.137-.12-.175C14.7,98.361,14.7,98.33,13.6,98.275c-.924-.046-1.853-.01-2.816-.01V96.909a2.2,2.2,0,0,1,.52-.069c.552.059.757-.14.749-.721-.018-1.363.034-2.726.059-4.089,0-.177.018-.352.029-.563l1.31-.075V86.018l1.386-.072v-5.4h1.342V76.443l1.216-.092V71l1.4-.072v-5.4h1.355V61.444c1.343-.308,1.355-.307,1.379-1.825.019-1.2,0-2.4,0-3.654l1.325-.077V50.5h1.386V45.052l1.385-.068V40.928l1.2-.082V35.419h1.36V34.091H26.845v1.343H25.608V36.74H24.243v1.366H22.877v1.366H21.512v1.366H20.146V42.2H18.781v1.365H17.415v1.357l-1.228.059V46.3H14.822v1.365H13.456v1.365H12.09v1.366H10.725V51.76H9.359v1.365H7.994v1.349H6.806v-1.3H5.441V51.807H4.076V50.441H2.711V49.076H1.345V47.711H0v-1.3H1.295V45.044H2.661V43.679H4.026V42.313H5.391V40.948H6.756V39.584l1.252-.059V38.195H9.373V36.829h1.365V35.464H12.1V34.1h1.366V32.733h1.365V31.368H16.2V30.024l1.229-.059V28.638h1.365V27.273h1.366V25.908h1.365V24.542H22.89V23.177h1.365V21.811H25.62V20.444H28.18v-1.4H26.886v-1.36l-1.23-.056V14.942H24.31V8.171L25.6,8.1V5.444L26.9,5.384c0-.7.023-1.381-.008-2.055-.023-.488.174-.641.641-.621.654.028,1.31.007,2.029.007V1.329h2.685C32.276.843,32.3.445,32.331,0h6.634c.026.4.051.778.084,1.261h2.618c.024.5.044.9.068,1.379H44.4V5.366l1.241.074V8.081l1.324.071V14.9H45.673v2.717l-1.228.06V19H43.1V20.4h2.526v1.366h1.366v1.366h1.366V24.5h1.366v1.366h1.365v1.366h1.366V28.6H53.82v1.36l1.229.062v1.309h1.365v1.366H57.78v1.366h1.366v1.366h1.366v1.365h1.366v1.365h1.365v1.359l1.23.065v1.306h1.371v1.367h1.373v1.369h1.35c.026.476.049.894.074,1.35l1.3.065c.02.42.038.82.061,1.3l1.291.064v1.266h-1.3v1.365H68.628v1.365H67.263v1.366H65.9v1.365H64.532v1.338H63.343V53.174H61.979V51.808H60.613V50.443H59.248V49.077H57.882V47.712H56.517V46.347H55.151V45l-1.229-.065V43.616H52.557V42.25H51.192V40.885H49.826V39.52H48.461V38.154H47.1V36.8H45.675V35.46H44.487v1.325Z" fill="#fafafa"/>
      </g>
    </g>
    <g id="Grupo_606" data-name="Grupo 606" transform="translate(1041.612 3071.204)" opacity="0.3">
      <g id="Grupo_601-7" data-name="Grupo 601" clip-path="url(#clip-path)">
        <path id="Trazado_1444-7" data-name="Trazado 1444" d="M45.687,36.786v4.059c.076.038.113.072.153.075,1.118.077,1.137.076,1.153,1.187.02,1.385,0,2.772,0,4.242h1.372V51.8l1.394.064V57.2l1.335.107v4.075h1.36v5.467h1.386V72.28l1.225.071v3.974c.112.061.148.1.188.1,1.11.084,1.134.082,1.154,1.2.026,1.384.006,2.769.006,4.238H57.8v5.442h1.368v5.4l1.357.112v4.07l1.312.06v1.245H57.871c-.027.492-.049.891-.076,1.4h-5.2c-.042.5-.076.892-.115,1.353H48.489c-.062.105-.1.141-.1.18-.086,1.123-.085,1.128-1.247,1.168-.449.015-.9,0-1.41,0V99.614l-1.235-.058v-5.4l-1.379-.063c0-.946,0-1.85,0-2.754,0-.387.007-.774-.008-1.161-.017-.43.088-.969-.129-1.256-.191-.252-.755-.223-1.23-.336v-4l-1.336-.059v-5.4h-1.4V73.715l-1.353-.1V69.56L36.332,69.5c-.02-.423-.039-.823-.06-1.274h-1.3V72.66c0,1.012.084.96-.967.952-.09,0-.18.02-.343.038v4.056l-1.363.066v5.389l-1.373.06V88.6l-1.369.08v4.056l-1.326.082v5.376h-1.4v4.068H24.3v-1.3H18.867c-.029-.5-.053-.9-.08-1.366H14.948c-.073-.1-.115-.137-.12-.175C14.7,98.361,14.7,98.33,13.6,98.275c-.924-.046-1.853-.01-2.816-.01V96.909a2.2,2.2,0,0,1,.52-.069c.552.059.757-.14.749-.721-.018-1.363.034-2.726.059-4.089,0-.177.018-.352.029-.563l1.31-.075V86.018l1.386-.072v-5.4h1.342V76.443l1.216-.092V71l1.4-.072v-5.4h1.355V61.444c1.343-.308,1.355-.307,1.379-1.825.019-1.2,0-2.4,0-3.654l1.325-.077V50.5h1.386V45.052l1.385-.068V40.928l1.2-.082V35.419h1.36V34.091H26.845v1.343H25.608V36.74H24.243v1.366H22.877v1.366H21.512v1.366H20.146V42.2H18.781v1.365H17.415v1.357l-1.228.059V46.3H14.822v1.365H13.456v1.365H12.09v1.366H10.725V51.76H9.359v1.365H7.994v1.349H6.806v-1.3H5.441V51.807H4.076V50.441H2.711V49.076H1.345V47.711H0v-1.3H1.295V45.044H2.661V43.679H4.026V42.313H5.391V40.948H6.756V39.584l1.252-.059V38.195H9.373V36.829h1.365V35.464H12.1V34.1h1.366V32.733h1.365V31.368H16.2V30.024l1.229-.059V28.638h1.365V27.273h1.366V25.908h1.365V24.542H22.89V23.177h1.365V21.811H25.62V20.444H28.18v-1.4H26.886v-1.36l-1.23-.056V14.942H24.31V8.171L25.6,8.1V5.444L26.9,5.384c0-.7.023-1.381-.008-2.055-.023-.488.174-.641.641-.621.654.028,1.31.007,2.029.007V1.329h2.685C32.276.843,32.3.445,32.331,0h6.634c.026.4.051.778.084,1.261h2.618c.024.5.044.9.068,1.379H44.4V5.366l1.241.074V8.081l1.324.071V14.9H45.673v2.717l-1.228.06V19H43.1V20.4h2.526v1.366h1.366v1.366h1.366V24.5h1.366v1.366h1.365v1.366h1.366V28.6H53.82v1.36l1.229.062v1.309h1.365v1.366H57.78v1.366h1.366v1.366h1.366v1.365h1.366v1.365h1.365v1.359l1.23.065v1.306h1.371v1.367h1.373v1.369h1.35c.026.476.049.894.074,1.35l1.3.065c.02.42.038.82.061,1.3l1.291.064v1.266h-1.3v1.365H68.628v1.365H67.263v1.366H65.9v1.365H64.532v1.338H63.343V53.174H61.979V51.808H60.613V50.443H59.248V49.077H57.882V47.712H56.517V46.347H55.151V45l-1.229-.065V43.616H52.557V42.25H51.192V40.885H49.826V39.52H48.461V38.154H47.1V36.8H45.675V35.46H44.487v1.325Z" fill="#fafafa"/>
      </g>
    </g>
  </g>
</svg>
