<svg xmlns="http://www.w3.org/2000/svg" xmlns:xlink="http://www.w3.org/1999/xlink" width="817" height="86.06" viewBox="0 0 817 86.06">
  <defs>
    <clipPath id="clip-path">
      <rect id="Rect치ngulo_1679" data-name="Rect치ngulo 1679" width="59.978" height="86.06" fill="#3a3c6a"/>
    </clipPath>
    <clipPath id="clip-path-5">
      <rect id="Rect치ngulo_1679-5" data-name="Rect치ngulo 1679" width="59.978" height="86.06" fill="#c5296a"/>
    </clipPath>
  </defs>
  <g id="Grupo_698" data-name="Grupo 698" transform="translate(-403 -872.014)" opacity="0.82">
    <g id="Grupo_602" data-name="Grupo 602" transform="translate(403 872.014)" opacity="0.3">
      <g id="Grupo_601" data-name="Grupo 601" clip-path="url(#clip-path)">
        <path id="Trazado_1444" data-name="Trazado 1444" d="M38.436,30.947v3.415c.064.032.1.061.128.063.94.065.956.064.97,1,.016,1.165,0,2.332,0,3.569h1.154v4.586l1.173.054v4.489l1.123.09v3.428h1.144v4.6H45.3v4.57l1.03.06v3.343c.094.051.125.082.158.084.934.07.954.069.971,1.01.022,1.164.005,2.33.005,3.565h1.165v4.578h1.151V77.99l1.142.095v3.424l1.1.05v1.048H48.686c-.023.414-.041.749-.064,1.174H44.244c-.035.418-.064.75-.1,1.138H40.793c-.052.088-.084.119-.086.151-.072.944-.071.949-1.049.983-.378.013-.756,0-1.187,0V83.8l-1.039-.049V79.213l-1.16-.053c0-.8,0-1.556,0-2.317,0-.326.006-.651-.007-.976-.014-.362.074-.815-.109-1.057-.161-.212-.635-.188-1.035-.283V71.164L34,71.114V66.57h-1.18V62.016l-1.138-.081V58.52l-1.114-.052c-.017-.356-.033-.692-.051-1.071h-1.09v3.732c0,.851.07.808-.813.8-.076,0-.152.016-.288.032v3.413l-1.146.056v4.533l-1.155.051v4.523L24.87,74.6v3.413l-1.116.069v4.523H22.578V86.03H20.444V84.936H15.873c-.025-.421-.044-.757-.067-1.149h-3.23c-.061-.087-.1-.115-.1-.147-.109-.89-.107-.916-1.03-.962-.777-.039-1.559-.008-2.369-.008V81.528a1.85,1.85,0,0,1,.437-.058c.465.049.637-.118.63-.607-.015-1.146.029-2.293.05-3.44,0-.149.015-.3.024-.474l1.1-.063V72.366l1.166-.061v-4.54h1.129V64.311l1.023-.077v-4.5l1.179-.061v-4.54h1.14V51.692c1.129-.259,1.14-.258,1.16-1.535.016-1.011,0-2.022,0-3.074l1.115-.065V42.482H20.4V37.9l1.165-.057V34.432l1.007-.069V29.8h1.144V28.68H22.585V29.81H21.544v1.1H20.4v1.149H19.246v1.149H18.1v1.149H16.949V35.5H15.8v1.148H14.651v1.142l-1.033.05V38.95H12.47V40.1H11.321v1.148H10.172V42.4H9.022v1.149H7.874v1.148H6.726v1.135h-1v-1.1H4.578V43.585H3.429V42.436H2.281V41.287H1.132V40.138H0v-1.1H1.089V37.9H2.238V36.746H3.387V35.6H4.535V34.449H5.684V33.3l1.053-.049v-1.12H7.885V30.984H9.034V29.835h1.148V28.687h1.149V27.538H12.48V26.39h1.148V25.259l1.034-.049V24.093H15.81V22.944h1.149V21.8h1.148V20.647h1.149V19.5h1.148V18.35h1.149V17.2h2.153V16.018H22.619V14.873l-1.035-.047V12.571H20.452v-5.7l1.088-.056V4.58l1.089-.05c0-.593.02-1.162-.007-1.729-.019-.411.146-.54.539-.523.55.024,1.1.006,1.707.006V1.118h2.259C27.153.709,27.175.375,27.2,0h5.581c.022.336.043.654.07,1.061h2.2c.021.421.037.757.057,1.16h2.246V4.514l1.044.062V6.8l1.114.06v5.676H38.424V14.82l-1.033.051v1.11H36.259v1.182h2.125v1.15h1.15v1.149h1.149v1.148h1.149V21.76H42.98v1.149h1.149v1.148h1.149V25.2l1.034.052v1.1h1.149V27.5h1.148v1.149h1.149V29.8h1.149V30.95h1.149V32.1H53.2v1.143l1.035.055v1.1h1.153v1.15h1.155V36.7h1.136c.022.4.041.752.062,1.136l1.095.054c.016.353.032.69.051,1.091l1.086.053V40.1H58.885v1.148H57.736v1.148H56.587v1.149H55.439v1.149H54.29v1.125h-1V44.735H52.142V43.586H50.993V42.437H49.845V41.288H48.7V40.14H47.547V38.991H46.4V37.854L45.364,37.8V36.694H44.216V35.545H43.067V34.4H41.918V33.247H40.769V32.1H39.621V30.958h-1.2V29.832h-1v1.115Z" fill="#3a3c6a"/>
      </g>
    </g>
    <g id="Grupo_610" data-name="Grupo 610" transform="translate(592.472 872.014)" opacity="0.3">
      <g id="Grupo_601-2" data-name="Grupo 601" clip-path="url(#clip-path)">
        <path id="Trazado_1444-2" data-name="Trazado 1444" d="M38.436,30.947v3.415c.064.032.1.061.128.063.94.065.956.064.97,1,.016,1.165,0,2.332,0,3.569h1.154v4.586l1.173.054v4.489l1.123.09v3.428h1.144v4.6H45.3v4.57l1.03.06v3.343c.094.051.125.082.158.084.934.07.954.069.971,1.01.022,1.164.005,2.33.005,3.565h1.165v4.578h1.151V77.99l1.142.095v3.424l1.1.05v1.048H48.686c-.023.414-.041.749-.064,1.174H44.244c-.035.418-.064.75-.1,1.138H40.793c-.052.088-.084.119-.086.151-.072.944-.071.949-1.049.983-.378.013-.756,0-1.187,0V83.8l-1.039-.049V79.213l-1.16-.053c0-.8,0-1.556,0-2.317,0-.326.006-.651-.007-.976-.014-.362.074-.815-.109-1.057-.161-.212-.635-.188-1.035-.283V71.164L34,71.114V66.57h-1.18V62.016l-1.138-.081V58.52l-1.114-.052c-.017-.356-.033-.692-.051-1.071h-1.09v3.732c0,.851.07.808-.813.8-.076,0-.152.016-.288.032v3.413l-1.146.056v4.533l-1.155.051v4.523L24.87,74.6v3.413l-1.116.069v4.523H22.578V86.03H20.444V84.936H15.873c-.025-.421-.044-.757-.067-1.149h-3.23c-.061-.087-.1-.115-.1-.147-.109-.89-.107-.916-1.03-.962-.777-.039-1.559-.008-2.369-.008V81.528a1.85,1.85,0,0,1,.437-.058c.465.049.637-.118.63-.607-.015-1.146.029-2.293.05-3.44,0-.149.015-.3.024-.474l1.1-.063V72.366l1.166-.061v-4.54h1.129V64.311l1.023-.077v-4.5l1.179-.061v-4.54h1.14V51.692c1.129-.259,1.14-.258,1.16-1.535.016-1.011,0-2.022,0-3.074l1.115-.065V42.482H20.4V37.9l1.165-.057V34.432l1.007-.069V29.8h1.144V28.68H22.585V29.81H21.544v1.1H20.4v1.149H19.246v1.149H18.1v1.149H16.949V35.5H15.8v1.148H14.651v1.142l-1.033.05V38.95H12.47V40.1H11.321v1.148H10.172V42.4H9.022v1.149H7.874v1.148H6.726v1.135h-1v-1.1H4.578V43.585H3.429V42.436H2.281V41.287H1.132V40.138H0v-1.1H1.089V37.9H2.238V36.746H3.387V35.6H4.535V34.449H5.684V33.3l1.053-.049v-1.12H7.885V30.984H9.034V29.835h1.148V28.687h1.149V27.538H12.48V26.39h1.148V25.259l1.034-.049V24.093H15.81V22.944h1.149V21.8h1.148V20.647h1.149V19.5h1.148V18.35h1.149V17.2h2.153V16.018H22.619V14.873l-1.035-.047V12.571H20.452v-5.7l1.088-.056V4.58l1.089-.05c0-.593.02-1.162-.007-1.729-.019-.411.146-.54.539-.523.55.024,1.1.006,1.707.006V1.118h2.259C27.153.709,27.175.375,27.2,0h5.581c.022.336.043.654.07,1.061h2.2c.021.421.037.757.057,1.16h2.246V4.514l1.044.062V6.8l1.114.06v5.676H38.424V14.82l-1.033.051v1.11H36.259v1.182h2.125v1.15h1.15v1.149h1.149v1.148h1.149V21.76H42.98v1.149h1.149v1.148h1.149V25.2l1.034.052v1.1h1.149V27.5h1.148v1.149h1.149V29.8h1.149V30.95h1.149V32.1H53.2v1.143l1.035.055v1.1h1.153v1.15h1.155V36.7h1.136c.022.4.041.752.062,1.136l1.095.054c.016.353.032.69.051,1.091l1.086.053V40.1H58.885v1.148H57.736v1.148H56.587v1.149H55.439v1.149H54.29v1.125h-1V44.735H52.142V43.586H50.993V42.437H49.845V41.288H48.7V40.14H47.547V38.991H46.4V37.854L45.364,37.8V36.694H44.216V35.545H43.067V34.4H41.918V33.247H40.769V32.1H39.621V30.958h-1.2V29.832h-1v1.115Z" fill="#3a3c6a"/>
      </g>
    </g>
    <g id="Grupo_614" data-name="Grupo 614" transform="translate(781.719 872.014)" opacity="0.3">
      <g id="Grupo_601-3" data-name="Grupo 601" clip-path="url(#clip-path)">
        <path id="Trazado_1444-3" data-name="Trazado 1444" d="M38.436,30.947v3.415c.064.032.1.061.128.063.94.065.956.064.97,1,.016,1.165,0,2.332,0,3.569h1.154v4.586l1.173.054v4.489l1.123.09v3.428h1.144v4.6H45.3v4.57l1.03.06v3.343c.094.051.125.082.158.084.934.07.954.069.971,1.01.022,1.164.005,2.33.005,3.565h1.165v4.578h1.151V77.99l1.142.095v3.424l1.1.05v1.048H48.686c-.023.414-.041.749-.064,1.174H44.244c-.035.418-.064.75-.1,1.138H40.793c-.052.088-.084.119-.086.151-.072.944-.071.949-1.049.983-.378.013-.756,0-1.187,0V83.8l-1.039-.049V79.213l-1.16-.053c0-.8,0-1.556,0-2.317,0-.326.006-.651-.007-.976-.014-.362.074-.815-.109-1.057-.161-.212-.635-.188-1.035-.283V71.164L34,71.114V66.57h-1.18V62.016l-1.138-.081V58.52l-1.114-.052c-.017-.356-.033-.692-.051-1.071h-1.09v3.732c0,.851.07.808-.813.8-.076,0-.152.016-.288.032v3.413l-1.146.056v4.533l-1.155.051v4.523L24.87,74.6v3.413l-1.116.069v4.523H22.578V86.03H20.444V84.936H15.873c-.025-.421-.044-.757-.067-1.149h-3.23c-.061-.087-.1-.115-.1-.147-.109-.89-.107-.916-1.03-.962-.777-.039-1.559-.008-2.369-.008V81.528a1.85,1.85,0,0,1,.437-.058c.465.049.637-.118.63-.607-.015-1.146.029-2.293.05-3.44,0-.149.015-.3.024-.474l1.1-.063V72.366l1.166-.061v-4.54h1.129V64.311l1.023-.077v-4.5l1.179-.061v-4.54h1.14V51.692c1.129-.259,1.14-.258,1.16-1.535.016-1.011,0-2.022,0-3.074l1.115-.065V42.482H20.4V37.9l1.165-.057V34.432l1.007-.069V29.8h1.144V28.68H22.585V29.81H21.544v1.1H20.4v1.149H19.246v1.149H18.1v1.149H16.949V35.5H15.8v1.148H14.651v1.142l-1.033.05V38.95H12.47V40.1H11.321v1.148H10.172V42.4H9.022v1.149H7.874v1.148H6.726v1.135h-1v-1.1H4.578V43.585H3.429V42.436H2.281V41.287H1.132V40.138H0v-1.1H1.089V37.9H2.238V36.746H3.387V35.6H4.535V34.449H5.684V33.3l1.053-.049v-1.12H7.885V30.984H9.034V29.835h1.148V28.687h1.149V27.538H12.48V26.39h1.148V25.259l1.034-.049V24.093H15.81V22.944h1.149V21.8h1.148V20.647h1.149V19.5h1.148V18.35h1.149V17.2h2.153V16.018H22.619V14.873l-1.035-.047V12.571H20.452v-5.7l1.088-.056V4.58l1.089-.05c0-.593.02-1.162-.007-1.729-.019-.411.146-.54.539-.523.55.024,1.1.006,1.707.006V1.118h2.259C27.153.709,27.175.375,27.2,0h5.581c.022.336.043.654.07,1.061h2.2c.021.421.037.757.057,1.16h2.246V4.514l1.044.062V6.8l1.114.06v5.676H38.424V14.82l-1.033.051v1.11H36.259v1.182h2.125v1.15h1.15v1.149h1.149v1.148h1.149V21.76H42.98v1.149h1.149v1.148h1.149V25.2l1.034.052v1.1h1.149V27.5h1.148v1.149h1.149V29.8h1.149V30.95h1.149V32.1H53.2v1.143l1.035.055v1.1h1.153v1.15h1.155V36.7h1.136c.022.4.041.752.062,1.136l1.095.054c.016.353.032.69.051,1.091l1.086.053V40.1H58.885v1.148H57.736v1.148H56.587v1.149H55.439v1.149H54.29v1.125h-1V44.735H52.142V43.586H50.993V42.437H49.845V41.288H48.7V40.14H47.547V38.991H46.4V37.854L45.364,37.8V36.694H44.216V35.545H43.067V34.4H41.918V33.247H40.769V32.1H39.621V30.958h-1.2V29.832h-1v1.115Z" fill="#3a3c6a"/>
      </g>
    </g>
    <g id="Grupo_618" data-name="Grupo 618" transform="translate(1065.488 872.014)" opacity="0.3">
      <g id="Grupo_601-4" data-name="Grupo 601" clip-path="url(#clip-path)">
        <path id="Trazado_1444-4" data-name="Trazado 1444" d="M38.436,30.947v3.415c.064.032.1.061.128.063.94.065.956.064.97,1,.016,1.165,0,2.332,0,3.569h1.154v4.586l1.173.054v4.489l1.123.09v3.428h1.144v4.6H45.3v4.57l1.03.06v3.343c.094.051.125.082.158.084.934.07.954.069.971,1.01.022,1.164.005,2.33.005,3.565h1.165v4.578h1.151V77.99l1.142.095v3.424l1.1.05v1.048H48.686c-.023.414-.041.749-.064,1.174H44.244c-.035.418-.064.75-.1,1.138H40.793c-.052.088-.084.119-.086.151-.072.944-.071.949-1.049.983-.378.013-.756,0-1.187,0V83.8l-1.039-.049V79.213l-1.16-.053c0-.8,0-1.556,0-2.317,0-.326.006-.651-.007-.976-.014-.362.074-.815-.109-1.057-.161-.212-.635-.188-1.035-.283V71.164L34,71.114V66.57h-1.18V62.016l-1.138-.081V58.52l-1.114-.052c-.017-.356-.033-.692-.051-1.071h-1.09v3.732c0,.851.07.808-.813.8-.076,0-.152.016-.288.032v3.413l-1.146.056v4.533l-1.155.051v4.523L24.87,74.6v3.413l-1.116.069v4.523H22.578V86.03H20.444V84.936H15.873c-.025-.421-.044-.757-.067-1.149h-3.23c-.061-.087-.1-.115-.1-.147-.109-.89-.107-.916-1.03-.962-.777-.039-1.559-.008-2.369-.008V81.528a1.85,1.85,0,0,1,.437-.058c.465.049.637-.118.63-.607-.015-1.146.029-2.293.05-3.44,0-.149.015-.3.024-.474l1.1-.063V72.366l1.166-.061v-4.54h1.129V64.311l1.023-.077v-4.5l1.179-.061v-4.54h1.14V51.692c1.129-.259,1.14-.258,1.16-1.535.016-1.011,0-2.022,0-3.074l1.115-.065V42.482H20.4V37.9l1.165-.057V34.432l1.007-.069V29.8h1.144V28.68H22.585V29.81H21.544v1.1H20.4v1.149H19.246v1.149H18.1v1.149H16.949V35.5H15.8v1.148H14.651v1.142l-1.033.05V38.95H12.47V40.1H11.321v1.148H10.172V42.4H9.022v1.149H7.874v1.148H6.726v1.135h-1v-1.1H4.578V43.585H3.429V42.436H2.281V41.287H1.132V40.138H0v-1.1H1.089V37.9H2.238V36.746H3.387V35.6H4.535V34.449H5.684V33.3l1.053-.049v-1.12H7.885V30.984H9.034V29.835h1.148V28.687h1.149V27.538H12.48V26.39h1.148V25.259l1.034-.049V24.093H15.81V22.944h1.149V21.8h1.148V20.647h1.149V19.5h1.148V18.35h1.149V17.2h2.153V16.018H22.619V14.873l-1.035-.047V12.571H20.452v-5.7l1.088-.056V4.58l1.089-.05c0-.593.02-1.162-.007-1.729-.019-.411.146-.54.539-.523.55.024,1.1.006,1.707.006V1.118h2.259C27.153.709,27.175.375,27.2,0h5.581c.022.336.043.654.07,1.061h2.2c.021.421.037.757.057,1.16h2.246V4.514l1.044.062V6.8l1.114.06v5.676H38.424V14.82l-1.033.051v1.11H36.259v1.182h2.125v1.15h1.15v1.149h1.149v1.148h1.149V21.76H42.98v1.149h1.149v1.148h1.149V25.2l1.034.052v1.1h1.149V27.5h1.148v1.149h1.149V29.8h1.149V30.95h1.149V32.1H53.2v1.143l1.035.055v1.1h1.153v1.15h1.155V36.7h1.136c.022.4.041.752.062,1.136l1.095.054c.016.353.032.69.051,1.091l1.086.053V40.1H58.885v1.148H57.736v1.148H56.587v1.149H55.439v1.149H54.29v1.125h-1V44.735H52.142V43.586H50.993V42.437H49.845V41.288H48.7V40.14H47.547V38.991H46.4V37.854L45.364,37.8V36.694H44.216V35.545H43.067V34.4H41.918V33.247H40.769V32.1H39.621V30.958h-1.2V29.832h-1v1.115Z" fill="#3a3c6a"/>
      </g>
    </g>
    <g id="Grupo_603" data-name="Grupo 603" transform="translate(450.326 872.014)" opacity="0.3">
      <g id="Grupo_601-5" data-name="Grupo 601" clip-path="url(#clip-path-5)">
        <path id="Trazado_1444-5" data-name="Trazado 1444" d="M38.436,30.947v3.415c.064.032.1.061.128.063.94.065.956.064.97,1,.016,1.165,0,2.332,0,3.569h1.154v4.586l1.173.054v4.489l1.123.09v3.428h1.144v4.6H45.3v4.57l1.03.06v3.343c.094.051.125.082.158.084.934.07.954.069.971,1.01.022,1.164.005,2.33.005,3.565h1.165v4.578h1.151V77.99l1.142.095v3.424l1.1.05v1.048H48.686c-.023.414-.041.749-.064,1.174H44.244c-.035.418-.064.75-.1,1.138H40.793c-.052.088-.084.119-.086.151-.072.944-.071.949-1.049.983-.378.013-.756,0-1.187,0V83.8l-1.039-.049V79.213l-1.16-.053c0-.8,0-1.556,0-2.317,0-.326.006-.651-.007-.976-.014-.362.074-.815-.109-1.057-.161-.212-.635-.188-1.035-.283V71.164L34,71.114V66.57h-1.18V62.016l-1.138-.081V58.52l-1.114-.052c-.017-.356-.033-.692-.051-1.071h-1.09v3.732c0,.851.07.808-.813.8-.076,0-.152.016-.288.032v3.413l-1.146.056v4.533l-1.155.051v4.523L24.87,74.6v3.413l-1.116.069v4.523H22.578V86.03H20.444V84.936H15.873c-.025-.421-.044-.757-.067-1.149h-3.23c-.061-.087-.1-.115-.1-.147-.109-.89-.107-.916-1.03-.962-.777-.039-1.559-.008-2.369-.008V81.528a1.85,1.85,0,0,1,.437-.058c.465.049.637-.118.63-.607-.015-1.146.029-2.293.05-3.44,0-.149.015-.3.024-.474l1.1-.063V72.366l1.166-.061v-4.54h1.129V64.311l1.023-.077v-4.5l1.179-.061v-4.54h1.14V51.692c1.129-.259,1.14-.258,1.16-1.535.016-1.011,0-2.022,0-3.074l1.115-.065V42.482H20.4V37.9l1.165-.057V34.432l1.007-.069V29.8h1.144V28.68H22.585V29.81H21.544v1.1H20.4v1.149H19.246v1.149H18.1v1.149H16.949V35.5H15.8v1.148H14.651v1.142l-1.033.05V38.95H12.47V40.1H11.321v1.148H10.172V42.4H9.022v1.149H7.874v1.148H6.726v1.135h-1v-1.1H4.578V43.585H3.429V42.436H2.281V41.287H1.132V40.138H0v-1.1H1.089V37.9H2.238V36.746H3.387V35.6H4.535V34.449H5.684V33.3l1.053-.049v-1.12H7.885V30.984H9.034V29.835h1.148V28.687h1.149V27.538H12.48V26.39h1.148V25.259l1.034-.049V24.093H15.81V22.944h1.149V21.8h1.148V20.647h1.149V19.5h1.148V18.35h1.149V17.2h2.153V16.018H22.619V14.873l-1.035-.047V12.571H20.452v-5.7l1.088-.056V4.58l1.089-.05c0-.593.02-1.162-.007-1.729-.019-.411.146-.54.539-.523.55.024,1.1.006,1.707.006V1.118h2.259C27.153.709,27.175.375,27.2,0h5.581c.022.336.043.654.07,1.061h2.2c.021.421.037.757.057,1.16h2.246V4.514l1.044.062V6.8l1.114.06v5.676H38.424V14.82l-1.033.051v1.11H36.259v1.182h2.125v1.15h1.15v1.149h1.149v1.148h1.149V21.76H42.98v1.149h1.149v1.148h1.149V25.2l1.034.052v1.1h1.149V27.5h1.148v1.149h1.149V29.8h1.149V30.95h1.149V32.1H53.2v1.143l1.035.055v1.1h1.153v1.15h1.155V36.7h1.136c.022.4.041.752.062,1.136l1.095.054c.016.353.032.69.051,1.091l1.086.053V40.1H58.885v1.148H57.736v1.148H56.587v1.149H55.439v1.149H54.29v1.125h-1V44.735H52.142V43.586H50.993V42.437H49.845V41.288H48.7V40.14H47.547V38.991H46.4V37.854L45.364,37.8V36.694H44.216V35.545H43.067V34.4H41.918V33.247H40.769V32.1H39.621V30.958h-1.2V29.832h-1v1.115Z" fill="#c5296a"/>
      </g>
    </g>
    <g id="Grupo_608" data-name="Grupo 608" transform="translate(639.799 872.014)" opacity="0.3">
      <g id="Grupo_601-6" data-name="Grupo 601" clip-path="url(#clip-path-5)">
        <path id="Trazado_1444-6" data-name="Trazado 1444" d="M38.436,30.947v3.415c.064.032.1.061.128.063.94.065.956.064.97,1,.016,1.165,0,2.332,0,3.569h1.154v4.586l1.173.054v4.489l1.123.09v3.428h1.144v4.6H45.3v4.57l1.03.06v3.343c.094.051.125.082.158.084.934.07.954.069.971,1.01.022,1.164.005,2.33.005,3.565h1.165v4.578h1.151V77.99l1.142.095v3.424l1.1.05v1.048H48.686c-.023.414-.041.749-.064,1.174H44.244c-.035.418-.064.75-.1,1.138H40.793c-.052.088-.084.119-.086.151-.072.944-.071.949-1.049.983-.378.013-.756,0-1.187,0V83.8l-1.039-.049V79.213l-1.16-.053c0-.8,0-1.556,0-2.317,0-.326.006-.651-.007-.976-.014-.362.074-.815-.109-1.057-.161-.212-.635-.188-1.035-.283V71.164L34,71.114V66.57h-1.18V62.016l-1.138-.081V58.52l-1.114-.052c-.017-.356-.033-.692-.051-1.071h-1.09v3.732c0,.851.07.808-.813.8-.076,0-.152.016-.288.032v3.413l-1.146.056v4.533l-1.155.051v4.523L24.87,74.6v3.413l-1.116.069v4.523H22.578V86.03H20.444V84.936H15.873c-.025-.421-.044-.757-.067-1.149h-3.23c-.061-.087-.1-.115-.1-.147-.109-.89-.107-.916-1.03-.962-.777-.039-1.559-.008-2.369-.008V81.528a1.85,1.85,0,0,1,.437-.058c.465.049.637-.118.63-.607-.015-1.146.029-2.293.05-3.44,0-.149.015-.3.024-.474l1.1-.063V72.366l1.166-.061v-4.54h1.129V64.311l1.023-.077v-4.5l1.179-.061v-4.54h1.14V51.692c1.129-.259,1.14-.258,1.16-1.535.016-1.011,0-2.022,0-3.074l1.115-.065V42.482H20.4V37.9l1.165-.057V34.432l1.007-.069V29.8h1.144V28.68H22.585V29.81H21.544v1.1H20.4v1.149H19.246v1.149H18.1v1.149H16.949V35.5H15.8v1.148H14.651v1.142l-1.033.05V38.95H12.47V40.1H11.321v1.148H10.172V42.4H9.022v1.149H7.874v1.148H6.726v1.135h-1v-1.1H4.578V43.585H3.429V42.436H2.281V41.287H1.132V40.138H0v-1.1H1.089V37.9H2.238V36.746H3.387V35.6H4.535V34.449H5.684V33.3l1.053-.049v-1.12H7.885V30.984H9.034V29.835h1.148V28.687h1.149V27.538H12.48V26.39h1.148V25.259l1.034-.049V24.093H15.81V22.944h1.149V21.8h1.148V20.647h1.149V19.5h1.148V18.35h1.149V17.2h2.153V16.018H22.619V14.873l-1.035-.047V12.571H20.452v-5.7l1.088-.056V4.58l1.089-.05c0-.593.02-1.162-.007-1.729-.019-.411.146-.54.539-.523.55.024,1.1.006,1.707.006V1.118h2.259C27.153.709,27.175.375,27.2,0h5.581c.022.336.043.654.07,1.061h2.2c.021.421.037.757.057,1.16h2.246V4.514l1.044.062V6.8l1.114.06v5.676H38.424V14.82l-1.033.051v1.11H36.259v1.182h2.125v1.15h1.15v1.149h1.149v1.148h1.149V21.76H42.98v1.149h1.149v1.148h1.149V25.2l1.034.052v1.1h1.149V27.5h1.148v1.149h1.149V29.8h1.149V30.95h1.149V32.1H53.2v1.143l1.035.055v1.1h1.153v1.15h1.155V36.7h1.136c.022.4.041.752.062,1.136l1.095.054c.016.353.032.69.051,1.091l1.086.053V40.1H58.885v1.148H57.736v1.148H56.587v1.149H55.439v1.149H54.29v1.125h-1V44.735H52.142V43.586H50.993V42.437H49.845V41.288H48.7V40.14H47.547V38.991H46.4V37.854L45.364,37.8V36.694H44.216V35.545H43.067V34.4H41.918V33.247H40.769V32.1H39.621V30.958h-1.2V29.832h-1v1.115Z" fill="#c5296a"/>
      </g>
    </g>
    <g id="Grupo_613" data-name="Grupo 613" transform="translate(829.045 872.014)" opacity="0.3">
      <g id="Grupo_601-7" data-name="Grupo 601" clip-path="url(#clip-path-5)">
        <path id="Trazado_1444-7" data-name="Trazado 1444" d="M38.436,30.947v3.415c.064.032.1.061.128.063.94.065.956.064.97,1,.016,1.165,0,2.332,0,3.569h1.154v4.586l1.173.054v4.489l1.123.09v3.428h1.144v4.6H45.3v4.57l1.03.06v3.343c.094.051.125.082.158.084.934.07.954.069.971,1.01.022,1.164.005,2.33.005,3.565h1.165v4.578h1.151V77.99l1.142.095v3.424l1.1.05v1.048H48.686c-.023.414-.041.749-.064,1.174H44.244c-.035.418-.064.75-.1,1.138H40.793c-.052.088-.084.119-.086.151-.072.944-.071.949-1.049.983-.378.013-.756,0-1.187,0V83.8l-1.039-.049V79.213l-1.16-.053c0-.8,0-1.556,0-2.317,0-.326.006-.651-.007-.976-.014-.362.074-.815-.109-1.057-.161-.212-.635-.188-1.035-.283V71.164L34,71.114V66.57h-1.18V62.016l-1.138-.081V58.52l-1.114-.052c-.017-.356-.033-.692-.051-1.071h-1.09v3.732c0,.851.07.808-.813.8-.076,0-.152.016-.288.032v3.413l-1.146.056v4.533l-1.155.051v4.523L24.87,74.6v3.413l-1.116.069v4.523H22.578V86.03H20.444V84.936H15.873c-.025-.421-.044-.757-.067-1.149h-3.23c-.061-.087-.1-.115-.1-.147-.109-.89-.107-.916-1.03-.962-.777-.039-1.559-.008-2.369-.008V81.528a1.85,1.85,0,0,1,.437-.058c.465.049.637-.118.63-.607-.015-1.146.029-2.293.05-3.44,0-.149.015-.3.024-.474l1.1-.063V72.366l1.166-.061v-4.54h1.129V64.311l1.023-.077v-4.5l1.179-.061v-4.54h1.14V51.692c1.129-.259,1.14-.258,1.16-1.535.016-1.011,0-2.022,0-3.074l1.115-.065V42.482H20.4V37.9l1.165-.057V34.432l1.007-.069V29.8h1.144V28.68H22.585V29.81H21.544v1.1H20.4v1.149H19.246v1.149H18.1v1.149H16.949V35.5H15.8v1.148H14.651v1.142l-1.033.05V38.95H12.47V40.1H11.321v1.148H10.172V42.4H9.022v1.149H7.874v1.148H6.726v1.135h-1v-1.1H4.578V43.585H3.429V42.436H2.281V41.287H1.132V40.138H0v-1.1H1.089V37.9H2.238V36.746H3.387V35.6H4.535V34.449H5.684V33.3l1.053-.049v-1.12H7.885V30.984H9.034V29.835h1.148V28.687h1.149V27.538H12.48V26.39h1.148V25.259l1.034-.049V24.093H15.81V22.944h1.149V21.8h1.148V20.647h1.149V19.5h1.148V18.35h1.149V17.2h2.153V16.018H22.619V14.873l-1.035-.047V12.571H20.452v-5.7l1.088-.056V4.58l1.089-.05c0-.593.02-1.162-.007-1.729-.019-.411.146-.54.539-.523.55.024,1.1.006,1.707.006V1.118h2.259C27.153.709,27.175.375,27.2,0h5.581c.022.336.043.654.07,1.061h2.2c.021.421.037.757.057,1.16h2.246V4.514l1.044.062V6.8l1.114.06v5.676H38.424V14.82l-1.033.051v1.11H36.259v1.182h2.125v1.15h1.15v1.149h1.149v1.148h1.149V21.76H42.98v1.149h1.149v1.148h1.149V25.2l1.034.052v1.1h1.149V27.5h1.148v1.149h1.149V29.8h1.149V30.95h1.149V32.1H53.2v1.143l1.035.055v1.1h1.153v1.15h1.155V36.7h1.136c.022.4.041.752.062,1.136l1.095.054c.016.353.032.69.051,1.091l1.086.053V40.1H58.885v1.148H57.736v1.148H56.587v1.149H55.439v1.149H54.29v1.125h-1V44.735H52.142V43.586H50.993V42.437H49.845V41.288H48.7V40.14H47.547V38.991H46.4V37.854L45.364,37.8V36.694H44.216V35.545H43.067V34.4H41.918V33.247H40.769V32.1H39.621V30.958h-1.2V29.832h-1v1.115Z" fill="#c5296a"/>
      </g>
    </g>
    <g id="Grupo_615" data-name="Grupo 615" transform="translate(1112.815 872.014)" opacity="0.3">
      <g id="Grupo_601-8" data-name="Grupo 601" clip-path="url(#clip-path-5)">
        <path id="Trazado_1444-8" data-name="Trazado 1444" d="M38.436,30.947v3.415c.064.032.1.061.128.063.94.065.956.064.97,1,.016,1.165,0,2.332,0,3.569h1.154v4.586l1.173.054v4.489l1.123.09v3.428h1.144v4.6H45.3v4.57l1.03.06v3.343c.094.051.125.082.158.084.934.07.954.069.971,1.01.022,1.164.005,2.33.005,3.565h1.165v4.578h1.151V77.99l1.142.095v3.424l1.1.05v1.048H48.686c-.023.414-.041.749-.064,1.174H44.244c-.035.418-.064.75-.1,1.138H40.793c-.052.088-.084.119-.086.151-.072.944-.071.949-1.049.983-.378.013-.756,0-1.187,0V83.8l-1.039-.049V79.213l-1.16-.053c0-.8,0-1.556,0-2.317,0-.326.006-.651-.007-.976-.014-.362.074-.815-.109-1.057-.161-.212-.635-.188-1.035-.283V71.164L34,71.114V66.57h-1.18V62.016l-1.138-.081V58.52l-1.114-.052c-.017-.356-.033-.692-.051-1.071h-1.09v3.732c0,.851.07.808-.813.8-.076,0-.152.016-.288.032v3.413l-1.146.056v4.533l-1.155.051v4.523L24.87,74.6v3.413l-1.116.069v4.523H22.578V86.03H20.444V84.936H15.873c-.025-.421-.044-.757-.067-1.149h-3.23c-.061-.087-.1-.115-.1-.147-.109-.89-.107-.916-1.03-.962-.777-.039-1.559-.008-2.369-.008V81.528a1.85,1.85,0,0,1,.437-.058c.465.049.637-.118.63-.607-.015-1.146.029-2.293.05-3.44,0-.149.015-.3.024-.474l1.1-.063V72.366l1.166-.061v-4.54h1.129V64.311l1.023-.077v-4.5l1.179-.061v-4.54h1.14V51.692c1.129-.259,1.14-.258,1.16-1.535.016-1.011,0-2.022,0-3.074l1.115-.065V42.482H20.4V37.9l1.165-.057V34.432l1.007-.069V29.8h1.144V28.68H22.585V29.81H21.544v1.1H20.4v1.149H19.246v1.149H18.1v1.149H16.949V35.5H15.8v1.148H14.651v1.142l-1.033.05V38.95H12.47V40.1H11.321v1.148H10.172V42.4H9.022v1.149H7.874v1.148H6.726v1.135h-1v-1.1H4.578V43.585H3.429V42.436H2.281V41.287H1.132V40.138H0v-1.1H1.089V37.9H2.238V36.746H3.387V35.6H4.535V34.449H5.684V33.3l1.053-.049v-1.12H7.885V30.984H9.034V29.835h1.148V28.687h1.149V27.538H12.48V26.39h1.148V25.259l1.034-.049V24.093H15.81V22.944h1.149V21.8h1.148V20.647h1.149V19.5h1.148V18.35h1.149V17.2h2.153V16.018H22.619V14.873l-1.035-.047V12.571H20.452v-5.7l1.088-.056V4.58l1.089-.05c0-.593.02-1.162-.007-1.729-.019-.411.146-.54.539-.523.55.024,1.1.006,1.707.006V1.118h2.259C27.153.709,27.175.375,27.2,0h5.581c.022.336.043.654.07,1.061h2.2c.021.421.037.757.057,1.16h2.246V4.514l1.044.062V6.8l1.114.06v5.676H38.424V14.82l-1.033.051v1.11H36.259v1.182h2.125v1.15h1.15v1.149h1.149v1.148h1.149V21.76H42.98v1.149h1.149v1.148h1.149V25.2l1.034.052v1.1h1.149V27.5h1.148v1.149h1.149V29.8h1.149V30.95h1.149V32.1H53.2v1.143l1.035.055v1.1h1.153v1.15h1.155V36.7h1.136c.022.4.041.752.062,1.136l1.095.054c.016.353.032.69.051,1.091l1.086.053V40.1H58.885v1.148H57.736v1.148H56.587v1.149H55.439v1.149H54.29v1.125h-1V44.735H52.142V43.586H50.993V42.437H49.845V41.288H48.7V40.14H47.547V38.991H46.4V37.854L45.364,37.8V36.694H44.216V35.545H43.067V34.4H41.918V33.247H40.769V32.1H39.621V30.958h-1.2V29.832h-1v1.115Z" fill="#c5296a"/>
      </g>
    </g>
    <g id="Grupo_604" data-name="Grupo 604" transform="translate(497.534 872.014)" opacity="0.3">
      <g id="Grupo_601-9" data-name="Grupo 601" clip-path="url(#clip-path)">
        <path id="Trazado_1444-9" data-name="Trazado 1444" d="M38.436,30.947v3.415c.064.032.1.061.128.063.94.065.956.064.97,1,.016,1.165,0,2.332,0,3.569h1.154v4.586l1.173.054v4.489l1.123.09v3.428h1.144v4.6H45.3v4.57l1.03.06v3.343c.094.051.125.082.158.084.934.07.954.069.971,1.01.022,1.164.005,2.33.005,3.565h1.165v4.578h1.151V77.99l1.142.095v3.424l1.1.05v1.048H48.686c-.023.414-.041.749-.064,1.174H44.244c-.035.418-.064.75-.1,1.138H40.793c-.052.088-.084.119-.086.151-.072.944-.071.949-1.049.983-.378.013-.756,0-1.187,0V83.8l-1.039-.049V79.213l-1.16-.053c0-.8,0-1.556,0-2.317,0-.326.006-.651-.007-.976-.014-.362.074-.815-.109-1.057-.161-.212-.635-.188-1.035-.283V71.164L34,71.114V66.57h-1.18V62.016l-1.138-.081V58.52l-1.114-.052c-.017-.356-.033-.692-.051-1.071h-1.09v3.732c0,.851.07.808-.813.8-.076,0-.152.016-.288.032v3.413l-1.146.056v4.533l-1.155.051v4.523L24.87,74.6v3.413l-1.116.069v4.523H22.578V86.03H20.444V84.936H15.873c-.025-.421-.044-.757-.067-1.149h-3.23c-.061-.087-.1-.115-.1-.147-.109-.89-.107-.916-1.03-.962-.777-.039-1.559-.008-2.369-.008V81.528a1.85,1.85,0,0,1,.437-.058c.465.049.637-.118.63-.607-.015-1.146.029-2.293.05-3.44,0-.149.015-.3.024-.474l1.1-.063V72.366l1.166-.061v-4.54h1.129V64.311l1.023-.077v-4.5l1.179-.061v-4.54h1.14V51.692c1.129-.259,1.14-.258,1.16-1.535.016-1.011,0-2.022,0-3.074l1.115-.065V42.482H20.4V37.9l1.165-.057V34.432l1.007-.069V29.8h1.144V28.68H22.585V29.81H21.544v1.1H20.4v1.149H19.246v1.149H18.1v1.149H16.949V35.5H15.8v1.148H14.651v1.142l-1.033.05V38.95H12.47V40.1H11.321v1.148H10.172V42.4H9.022v1.149H7.874v1.148H6.726v1.135h-1v-1.1H4.578V43.585H3.429V42.436H2.281V41.287H1.132V40.138H0v-1.1H1.089V37.9H2.238V36.746H3.387V35.6H4.535V34.449H5.684V33.3l1.053-.049v-1.12H7.885V30.984H9.034V29.835h1.148V28.687h1.149V27.538H12.48V26.39h1.148V25.259l1.034-.049V24.093H15.81V22.944h1.149V21.8h1.148V20.647h1.149V19.5h1.148V18.35h1.149V17.2h2.153V16.018H22.619V14.873l-1.035-.047V12.571H20.452v-5.7l1.088-.056V4.58l1.089-.05c0-.593.02-1.162-.007-1.729-.019-.411.146-.54.539-.523.55.024,1.1.006,1.707.006V1.118h2.259C27.153.709,27.175.375,27.2,0h5.581c.022.336.043.654.07,1.061h2.2c.021.421.037.757.057,1.16h2.246V4.514l1.044.062V6.8l1.114.06v5.676H38.424V14.82l-1.033.051v1.11H36.259v1.182h2.125v1.15h1.15v1.149h1.149v1.148h1.149V21.76H42.98v1.149h1.149v1.148h1.149V25.2l1.034.052v1.1h1.149V27.5h1.148v1.149h1.149V29.8h1.149V30.95h1.149V32.1H53.2v1.143l1.035.055v1.1h1.153v1.15h1.155V36.7h1.136c.022.4.041.752.062,1.136l1.095.054c.016.353.032.69.051,1.091l1.086.053V40.1H58.885v1.148H57.736v1.148H56.587v1.149H55.439v1.149H54.29v1.125h-1V44.735H52.142V43.586H50.993V42.437H49.845V41.288H48.7V40.14H47.547V38.991H46.4V37.854L45.364,37.8V36.694H44.216V35.545H43.067V34.4H41.918V33.247H40.769V32.1H39.621V30.958h-1.2V29.832h-1v1.115Z" fill="#3a3c6a"/>
      </g>
    </g>
    <g id="Grupo_609" data-name="Grupo 609" transform="translate(687.006 872.014)" opacity="0.3">
      <g id="Grupo_601-10" data-name="Grupo 601" clip-path="url(#clip-path)">
        <path id="Trazado_1444-10" data-name="Trazado 1444" d="M38.436,30.947v3.415c.064.032.1.061.128.063.94.065.956.064.97,1,.016,1.165,0,2.332,0,3.569h1.154v4.586l1.173.054v4.489l1.123.09v3.428h1.144v4.6H45.3v4.57l1.03.06v3.343c.094.051.125.082.158.084.934.07.954.069.971,1.01.022,1.164.005,2.33.005,3.565h1.165v4.578h1.151V77.99l1.142.095v3.424l1.1.05v1.048H48.686c-.023.414-.041.749-.064,1.174H44.244c-.035.418-.064.75-.1,1.138H40.793c-.052.088-.084.119-.086.151-.072.944-.071.949-1.049.983-.378.013-.756,0-1.187,0V83.8l-1.039-.049V79.213l-1.16-.053c0-.8,0-1.556,0-2.317,0-.326.006-.651-.007-.976-.014-.362.074-.815-.109-1.057-.161-.212-.635-.188-1.035-.283V71.164L34,71.114V66.57h-1.18V62.016l-1.138-.081V58.52l-1.114-.052c-.017-.356-.033-.692-.051-1.071h-1.09v3.732c0,.851.07.808-.813.8-.076,0-.152.016-.288.032v3.413l-1.146.056v4.533l-1.155.051v4.523L24.87,74.6v3.413l-1.116.069v4.523H22.578V86.03H20.444V84.936H15.873c-.025-.421-.044-.757-.067-1.149h-3.23c-.061-.087-.1-.115-.1-.147-.109-.89-.107-.916-1.03-.962-.777-.039-1.559-.008-2.369-.008V81.528a1.85,1.85,0,0,1,.437-.058c.465.049.637-.118.63-.607-.015-1.146.029-2.293.05-3.44,0-.149.015-.3.024-.474l1.1-.063V72.366l1.166-.061v-4.54h1.129V64.311l1.023-.077v-4.5l1.179-.061v-4.54h1.14V51.692c1.129-.259,1.14-.258,1.16-1.535.016-1.011,0-2.022,0-3.074l1.115-.065V42.482H20.4V37.9l1.165-.057V34.432l1.007-.069V29.8h1.144V28.68H22.585V29.81H21.544v1.1H20.4v1.149H19.246v1.149H18.1v1.149H16.949V35.5H15.8v1.148H14.651v1.142l-1.033.05V38.95H12.47V40.1H11.321v1.148H10.172V42.4H9.022v1.149H7.874v1.148H6.726v1.135h-1v-1.1H4.578V43.585H3.429V42.436H2.281V41.287H1.132V40.138H0v-1.1H1.089V37.9H2.238V36.746H3.387V35.6H4.535V34.449H5.684V33.3l1.053-.049v-1.12H7.885V30.984H9.034V29.835h1.148V28.687h1.149V27.538H12.48V26.39h1.148V25.259l1.034-.049V24.093H15.81V22.944h1.149V21.8h1.148V20.647h1.149V19.5h1.148V18.35h1.149V17.2h2.153V16.018H22.619V14.873l-1.035-.047V12.571H20.452v-5.7l1.088-.056V4.58l1.089-.05c0-.593.02-1.162-.007-1.729-.019-.411.146-.54.539-.523.55.024,1.1.006,1.707.006V1.118h2.259C27.153.709,27.175.375,27.2,0h5.581c.022.336.043.654.07,1.061h2.2c.021.421.037.757.057,1.16h2.246V4.514l1.044.062V6.8l1.114.06v5.676H38.424V14.82l-1.033.051v1.11H36.259v1.182h2.125v1.15h1.15v1.149h1.149v1.148h1.149V21.76H42.98v1.149h1.149v1.148h1.149V25.2l1.034.052v1.1h1.149V27.5h1.148v1.149h1.149V29.8h1.149V30.95h1.149V32.1H53.2v1.143l1.035.055v1.1h1.153v1.15h1.155V36.7h1.136c.022.4.041.752.062,1.136l1.095.054c.016.353.032.69.051,1.091l1.086.053V40.1H58.885v1.148H57.736v1.148H56.587v1.149H55.439v1.149H54.29v1.125h-1V44.735H52.142V43.586H50.993V42.437H49.845V41.288H48.7V40.14H47.547V38.991H46.4V37.854L45.364,37.8V36.694H44.216V35.545H43.067V34.4H41.918V33.247H40.769V32.1H39.621V30.958h-1.2V29.832h-1v1.115Z" fill="#3a3c6a"/>
      </g>
    </g>
    <g id="Grupo_620" data-name="Grupo 620" transform="translate(970.775 872.014)" opacity="0.3">
      <g id="Grupo_601-11" data-name="Grupo 601" clip-path="url(#clip-path)">
        <path id="Trazado_1444-11" data-name="Trazado 1444" d="M38.436,30.947v3.415c.064.032.1.061.128.063.94.065.956.064.97,1,.016,1.165,0,2.332,0,3.569h1.154v4.586l1.173.054v4.489l1.123.09v3.428h1.144v4.6H45.3v4.57l1.03.06v3.343c.094.051.125.082.158.084.934.07.954.069.971,1.01.022,1.164.005,2.33.005,3.565h1.165v4.578h1.151V77.99l1.142.095v3.424l1.1.05v1.048H48.686c-.023.414-.041.749-.064,1.174H44.244c-.035.418-.064.75-.1,1.138H40.793c-.052.088-.084.119-.086.151-.072.944-.071.949-1.049.983-.378.013-.756,0-1.187,0V83.8l-1.039-.049V79.213l-1.16-.053c0-.8,0-1.556,0-2.317,0-.326.006-.651-.007-.976-.014-.362.074-.815-.109-1.057-.161-.212-.635-.188-1.035-.283V71.164L34,71.114V66.57h-1.18V62.016l-1.138-.081V58.52l-1.114-.052c-.017-.356-.033-.692-.051-1.071h-1.09v3.732c0,.851.07.808-.813.8-.076,0-.152.016-.288.032v3.413l-1.146.056v4.533l-1.155.051v4.523L24.87,74.6v3.413l-1.116.069v4.523H22.578V86.03H20.444V84.936H15.873c-.025-.421-.044-.757-.067-1.149h-3.23c-.061-.087-.1-.115-.1-.147-.109-.89-.107-.916-1.03-.962-.777-.039-1.559-.008-2.369-.008V81.528a1.85,1.85,0,0,1,.437-.058c.465.049.637-.118.63-.607-.015-1.146.029-2.293.05-3.44,0-.149.015-.3.024-.474l1.1-.063V72.366l1.166-.061v-4.54h1.129V64.311l1.023-.077v-4.5l1.179-.061v-4.54h1.14V51.692c1.129-.259,1.14-.258,1.16-1.535.016-1.011,0-2.022,0-3.074l1.115-.065V42.482H20.4V37.9l1.165-.057V34.432l1.007-.069V29.8h1.144V28.68H22.585V29.81H21.544v1.1H20.4v1.149H19.246v1.149H18.1v1.149H16.949V35.5H15.8v1.148H14.651v1.142l-1.033.05V38.95H12.47V40.1H11.321v1.148H10.172V42.4H9.022v1.149H7.874v1.148H6.726v1.135h-1v-1.1H4.578V43.585H3.429V42.436H2.281V41.287H1.132V40.138H0v-1.1H1.089V37.9H2.238V36.746H3.387V35.6H4.535V34.449H5.684V33.3l1.053-.049v-1.12H7.885V30.984H9.034V29.835h1.148V28.687h1.149V27.538H12.48V26.39h1.148V25.259l1.034-.049V24.093H15.81V22.944h1.149V21.8h1.148V20.647h1.149V19.5h1.148V18.35h1.149V17.2h2.153V16.018H22.619V14.873l-1.035-.047V12.571H20.452v-5.7l1.088-.056V4.58l1.089-.05c0-.593.02-1.162-.007-1.729-.019-.411.146-.54.539-.523.55.024,1.1.006,1.707.006V1.118h2.259C27.153.709,27.175.375,27.2,0h5.581c.022.336.043.654.07,1.061h2.2c.021.421.037.757.057,1.16h2.246V4.514l1.044.062V6.8l1.114.06v5.676H38.424V14.82l-1.033.051v1.11H36.259v1.182h2.125v1.15h1.15v1.149h1.149v1.148h1.149V21.76H42.98v1.149h1.149v1.148h1.149V25.2l1.034.052v1.1h1.149V27.5h1.148v1.149h1.149V29.8h1.149V30.95h1.149V32.1H53.2v1.143l1.035.055v1.1h1.153v1.15h1.155V36.7h1.136c.022.4.041.752.062,1.136l1.095.054c.016.353.032.69.051,1.091l1.086.053V40.1H58.885v1.148H57.736v1.148H56.587v1.149H55.439v1.149H54.29v1.125h-1V44.735H52.142V43.586H50.993V42.437H49.845V41.288H48.7V40.14H47.547V38.991H46.4V37.854L45.364,37.8V36.694H44.216V35.545H43.067V34.4H41.918V33.247H40.769V32.1H39.621V30.958h-1.2V29.832h-1v1.115Z" fill="#3a3c6a"/>
      </g>
    </g>
    <g id="Grupo_612" data-name="Grupo 612" transform="translate(876.254 872.014)" opacity="0.3">
      <g id="Grupo_601-12" data-name="Grupo 601" clip-path="url(#clip-path)">
        <path id="Trazado_1444-12" data-name="Trazado 1444" d="M38.436,30.947v3.415c.064.032.1.061.128.063.94.065.956.064.97,1,.016,1.165,0,2.332,0,3.569h1.154v4.586l1.173.054v4.489l1.123.09v3.428h1.144v4.6H45.3v4.57l1.03.06v3.343c.094.051.125.082.158.084.934.07.954.069.971,1.01.022,1.164.005,2.33.005,3.565h1.165v4.578h1.151V77.99l1.142.095v3.424l1.1.05v1.048H48.686c-.023.414-.041.749-.064,1.174H44.244c-.035.418-.064.75-.1,1.138H40.793c-.052.088-.084.119-.086.151-.072.944-.071.949-1.049.983-.378.013-.756,0-1.187,0V83.8l-1.039-.049V79.213l-1.16-.053c0-.8,0-1.556,0-2.317,0-.326.006-.651-.007-.976-.014-.362.074-.815-.109-1.057-.161-.212-.635-.188-1.035-.283V71.164L34,71.114V66.57h-1.18V62.016l-1.138-.081V58.52l-1.114-.052c-.017-.356-.033-.692-.051-1.071h-1.09v3.732c0,.851.07.808-.813.8-.076,0-.152.016-.288.032v3.413l-1.146.056v4.533l-1.155.051v4.523L24.87,74.6v3.413l-1.116.069v4.523H22.578V86.03H20.444V84.936H15.873c-.025-.421-.044-.757-.067-1.149h-3.23c-.061-.087-.1-.115-.1-.147-.109-.89-.107-.916-1.03-.962-.777-.039-1.559-.008-2.369-.008V81.528a1.85,1.85,0,0,1,.437-.058c.465.049.637-.118.63-.607-.015-1.146.029-2.293.05-3.44,0-.149.015-.3.024-.474l1.1-.063V72.366l1.166-.061v-4.54h1.129V64.311l1.023-.077v-4.5l1.179-.061v-4.54h1.14V51.692c1.129-.259,1.14-.258,1.16-1.535.016-1.011,0-2.022,0-3.074l1.115-.065V42.482H20.4V37.9l1.165-.057V34.432l1.007-.069V29.8h1.144V28.68H22.585V29.81H21.544v1.1H20.4v1.149H19.246v1.149H18.1v1.149H16.949V35.5H15.8v1.148H14.651v1.142l-1.033.05V38.95H12.47V40.1H11.321v1.148H10.172V42.4H9.022v1.149H7.874v1.148H6.726v1.135h-1v-1.1H4.578V43.585H3.429V42.436H2.281V41.287H1.132V40.138H0v-1.1H1.089V37.9H2.238V36.746H3.387V35.6H4.535V34.449H5.684V33.3l1.053-.049v-1.12H7.885V30.984H9.034V29.835h1.148V28.687h1.149V27.538H12.48V26.39h1.148V25.259l1.034-.049V24.093H15.81V22.944h1.149V21.8h1.148V20.647h1.149V19.5h1.148V18.35h1.149V17.2h2.153V16.018H22.619V14.873l-1.035-.047V12.571H20.452v-5.7l1.088-.056V4.58l1.089-.05c0-.593.02-1.162-.007-1.729-.019-.411.146-.54.539-.523.55.024,1.1.006,1.707.006V1.118h2.259C27.153.709,27.175.375,27.2,0h5.581c.022.336.043.654.07,1.061h2.2c.021.421.037.757.057,1.16h2.246V4.514l1.044.062V6.8l1.114.06v5.676H38.424V14.82l-1.033.051v1.11H36.259v1.182h2.125v1.15h1.15v1.149h1.149v1.148h1.149V21.76H42.98v1.149h1.149v1.148h1.149V25.2l1.034.052v1.1h1.149V27.5h1.148v1.149h1.149V29.8h1.149V30.95h1.149V32.1H53.2v1.143l1.035.055v1.1h1.153v1.15h1.155V36.7h1.136c.022.4.041.752.062,1.136l1.095.054c.016.353.032.69.051,1.091l1.086.053V40.1H58.885v1.148H57.736v1.148H56.587v1.149H55.439v1.149H54.29v1.125h-1V44.735H52.142V43.586H50.993V42.437H49.845V41.288H48.7V40.14H47.547V38.991H46.4V37.854L45.364,37.8V36.694H44.216V35.545H43.067V34.4H41.918V33.247H40.769V32.1H39.621V30.958h-1.2V29.832h-1v1.115Z" fill="#3a3c6a"/>
      </g>
    </g>
    <g id="Grupo_616" data-name="Grupo 616" transform="translate(1160.022 872.014)" opacity="0.3">
      <g id="Grupo_601-13" data-name="Grupo 601" clip-path="url(#clip-path)">
        <path id="Trazado_1444-13" data-name="Trazado 1444" d="M38.436,30.947v3.415c.064.032.1.061.128.063.94.065.956.064.97,1,.016,1.165,0,2.332,0,3.569h1.154v4.586l1.173.054v4.489l1.123.09v3.428h1.144v4.6H45.3v4.57l1.03.06v3.343c.094.051.125.082.158.084.934.07.954.069.971,1.01.022,1.164.005,2.33.005,3.565h1.165v4.578h1.151V77.99l1.142.095v3.424l1.1.05v1.048H48.686c-.023.414-.041.749-.064,1.174H44.244c-.035.418-.064.75-.1,1.138H40.793c-.052.088-.084.119-.086.151-.072.944-.071.949-1.049.983-.378.013-.756,0-1.187,0V83.8l-1.039-.049V79.213l-1.16-.053c0-.8,0-1.556,0-2.317,0-.326.006-.651-.007-.976-.014-.362.074-.815-.109-1.057-.161-.212-.635-.188-1.035-.283V71.164L34,71.114V66.57h-1.18V62.016l-1.138-.081V58.52l-1.114-.052c-.017-.356-.033-.692-.051-1.071h-1.09v3.732c0,.851.07.808-.813.8-.076,0-.152.016-.288.032v3.413l-1.146.056v4.533l-1.155.051v4.523L24.87,74.6v3.413l-1.116.069v4.523H22.578V86.03H20.444V84.936H15.873c-.025-.421-.044-.757-.067-1.149h-3.23c-.061-.087-.1-.115-.1-.147-.109-.89-.107-.916-1.03-.962-.777-.039-1.559-.008-2.369-.008V81.528a1.85,1.85,0,0,1,.437-.058c.465.049.637-.118.63-.607-.015-1.146.029-2.293.05-3.44,0-.149.015-.3.024-.474l1.1-.063V72.366l1.166-.061v-4.54h1.129V64.311l1.023-.077v-4.5l1.179-.061v-4.54h1.14V51.692c1.129-.259,1.14-.258,1.16-1.535.016-1.011,0-2.022,0-3.074l1.115-.065V42.482H20.4V37.9l1.165-.057V34.432l1.007-.069V29.8h1.144V28.68H22.585V29.81H21.544v1.1H20.4v1.149H19.246v1.149H18.1v1.149H16.949V35.5H15.8v1.148H14.651v1.142l-1.033.05V38.95H12.47V40.1H11.321v1.148H10.172V42.4H9.022v1.149H7.874v1.148H6.726v1.135h-1v-1.1H4.578V43.585H3.429V42.436H2.281V41.287H1.132V40.138H0v-1.1H1.089V37.9H2.238V36.746H3.387V35.6H4.535V34.449H5.684V33.3l1.053-.049v-1.12H7.885V30.984H9.034V29.835h1.148V28.687h1.149V27.538H12.48V26.39h1.148V25.259l1.034-.049V24.093H15.81V22.944h1.149V21.8h1.148V20.647h1.149V19.5h1.148V18.35h1.149V17.2h2.153V16.018H22.619V14.873l-1.035-.047V12.571H20.452v-5.7l1.088-.056V4.58l1.089-.05c0-.593.02-1.162-.007-1.729-.019-.411.146-.54.539-.523.55.024,1.1.006,1.707.006V1.118h2.259C27.153.709,27.175.375,27.2,0h5.581c.022.336.043.654.07,1.061h2.2c.021.421.037.757.057,1.16h2.246V4.514l1.044.062V6.8l1.114.06v5.676H38.424V14.82l-1.033.051v1.11H36.259v1.182h2.125v1.15h1.15v1.149h1.149v1.148h1.149V21.76H42.98v1.149h1.149v1.148h1.149V25.2l1.034.052v1.1h1.149V27.5h1.148v1.149h1.149V29.8h1.149V30.95h1.149V32.1H53.2v1.143l1.035.055v1.1h1.153v1.15h1.155V36.7h1.136c.022.4.041.752.062,1.136l1.095.054c.016.353.032.69.051,1.091l1.086.053V40.1H58.885v1.148H57.736v1.148H56.587v1.149H55.439v1.149H54.29v1.125h-1V44.735H52.142V43.586H50.993V42.437H49.845V41.288H48.7V40.14H47.547V38.991H46.4V37.854L45.364,37.8V36.694H44.216V35.545H43.067V34.4H41.918V33.247H40.769V32.1H39.621V30.958h-1.2V29.832h-1v1.115Z" fill="#3a3c6a"/>
      </g>
    </g>
    <g id="Grupo_606" data-name="Grupo 606" transform="translate(544.872 872.014)" opacity="0.3">
      <g id="Grupo_601-14" data-name="Grupo 601" clip-path="url(#clip-path-5)">
        <path id="Trazado_1444-14" data-name="Trazado 1444" d="M38.436,30.947v3.415c.064.032.1.061.128.063.94.065.956.064.97,1,.016,1.165,0,2.332,0,3.569h1.154v4.586l1.173.054v4.489l1.123.09v3.428h1.144v4.6H45.3v4.57l1.03.06v3.343c.094.051.125.082.158.084.934.07.954.069.971,1.01.022,1.164.005,2.33.005,3.565h1.165v4.578h1.151V77.99l1.142.095v3.424l1.1.05v1.048H48.686c-.023.414-.041.749-.064,1.174H44.244c-.035.418-.064.75-.1,1.138H40.793c-.052.088-.084.119-.086.151-.072.944-.071.949-1.049.983-.378.013-.756,0-1.187,0V83.8l-1.039-.049V79.213l-1.16-.053c0-.8,0-1.556,0-2.317,0-.326.006-.651-.007-.976-.014-.362.074-.815-.109-1.057-.161-.212-.635-.188-1.035-.283V71.164L34,71.114V66.57h-1.18V62.016l-1.138-.081V58.52l-1.114-.052c-.017-.356-.033-.692-.051-1.071h-1.09v3.732c0,.851.07.808-.813.8-.076,0-.152.016-.288.032v3.413l-1.146.056v4.533l-1.155.051v4.523L24.87,74.6v3.413l-1.116.069v4.523H22.578V86.03H20.444V84.936H15.873c-.025-.421-.044-.757-.067-1.149h-3.23c-.061-.087-.1-.115-.1-.147-.109-.89-.107-.916-1.03-.962-.777-.039-1.559-.008-2.369-.008V81.528a1.85,1.85,0,0,1,.437-.058c.465.049.637-.118.63-.607-.015-1.146.029-2.293.05-3.44,0-.149.015-.3.024-.474l1.1-.063V72.366l1.166-.061v-4.54h1.129V64.311l1.023-.077v-4.5l1.179-.061v-4.54h1.14V51.692c1.129-.259,1.14-.258,1.16-1.535.016-1.011,0-2.022,0-3.074l1.115-.065V42.482H20.4V37.9l1.165-.057V34.432l1.007-.069V29.8h1.144V28.68H22.585V29.81H21.544v1.1H20.4v1.149H19.246v1.149H18.1v1.149H16.949V35.5H15.8v1.148H14.651v1.142l-1.033.05V38.95H12.47V40.1H11.321v1.148H10.172V42.4H9.022v1.149H7.874v1.148H6.726v1.135h-1v-1.1H4.578V43.585H3.429V42.436H2.281V41.287H1.132V40.138H0v-1.1H1.089V37.9H2.238V36.746H3.387V35.6H4.535V34.449H5.684V33.3l1.053-.049v-1.12H7.885V30.984H9.034V29.835h1.148V28.687h1.149V27.538H12.48V26.39h1.148V25.259l1.034-.049V24.093H15.81V22.944h1.149V21.8h1.148V20.647h1.149V19.5h1.148V18.35h1.149V17.2h2.153V16.018H22.619V14.873l-1.035-.047V12.571H20.452v-5.7l1.088-.056V4.58l1.089-.05c0-.593.02-1.162-.007-1.729-.019-.411.146-.54.539-.523.55.024,1.1.006,1.707.006V1.118h2.259C27.153.709,27.175.375,27.2,0h5.581c.022.336.043.654.07,1.061h2.2c.021.421.037.757.057,1.16h2.246V4.514l1.044.062V6.8l1.114.06v5.676H38.424V14.82l-1.033.051v1.11H36.259v1.182h2.125v1.15h1.15v1.149h1.149v1.148h1.149V21.76H42.98v1.149h1.149v1.148h1.149V25.2l1.034.052v1.1h1.149V27.5h1.148v1.149h1.149V29.8h1.149V30.95h1.149V32.1H53.2v1.143l1.035.055v1.1h1.153v1.15h1.155V36.7h1.136c.022.4.041.752.062,1.136l1.095.054c.016.353.032.69.051,1.091l1.086.053V40.1H58.885v1.148H57.736v1.148H56.587v1.149H55.439v1.149H54.29v1.125h-1V44.735H52.142V43.586H50.993V42.437H49.845V41.288H48.7V40.14H47.547V38.991H46.4V37.854L45.364,37.8V36.694H44.216V35.545H43.067V34.4H41.918V33.247H40.769V32.1H39.621V30.958h-1.2V29.832h-1v1.115Z" fill="#c5296a"/>
      </g>
    </g>
    <g id="Grupo_607" data-name="Grupo 607" transform="translate(734.344 872.014)" opacity="0.3">
      <g id="Grupo_601-15" data-name="Grupo 601" clip-path="url(#clip-path-5)">
        <path id="Trazado_1444-15" data-name="Trazado 1444" d="M38.436,30.947v3.415c.064.032.1.061.128.063.94.065.956.064.97,1,.016,1.165,0,2.332,0,3.569h1.154v4.586l1.173.054v4.489l1.123.09v3.428h1.144v4.6H45.3v4.57l1.03.06v3.343c.094.051.125.082.158.084.934.07.954.069.971,1.01.022,1.164.005,2.33.005,3.565h1.165v4.578h1.151V77.99l1.142.095v3.424l1.1.05v1.048H48.686c-.023.414-.041.749-.064,1.174H44.244c-.035.418-.064.75-.1,1.138H40.793c-.052.088-.084.119-.086.151-.072.944-.071.949-1.049.983-.378.013-.756,0-1.187,0V83.8l-1.039-.049V79.213l-1.16-.053c0-.8,0-1.556,0-2.317,0-.326.006-.651-.007-.976-.014-.362.074-.815-.109-1.057-.161-.212-.635-.188-1.035-.283V71.164L34,71.114V66.57h-1.18V62.016l-1.138-.081V58.52l-1.114-.052c-.017-.356-.033-.692-.051-1.071h-1.09v3.732c0,.851.07.808-.813.8-.076,0-.152.016-.288.032v3.413l-1.146.056v4.533l-1.155.051v4.523L24.87,74.6v3.413l-1.116.069v4.523H22.578V86.03H20.444V84.936H15.873c-.025-.421-.044-.757-.067-1.149h-3.23c-.061-.087-.1-.115-.1-.147-.109-.89-.107-.916-1.03-.962-.777-.039-1.559-.008-2.369-.008V81.528a1.85,1.85,0,0,1,.437-.058c.465.049.637-.118.63-.607-.015-1.146.029-2.293.05-3.44,0-.149.015-.3.024-.474l1.1-.063V72.366l1.166-.061v-4.54h1.129V64.311l1.023-.077v-4.5l1.179-.061v-4.54h1.14V51.692c1.129-.259,1.14-.258,1.16-1.535.016-1.011,0-2.022,0-3.074l1.115-.065V42.482H20.4V37.9l1.165-.057V34.432l1.007-.069V29.8h1.144V28.68H22.585V29.81H21.544v1.1H20.4v1.149H19.246v1.149H18.1v1.149H16.949V35.5H15.8v1.148H14.651v1.142l-1.033.05V38.95H12.47V40.1H11.321v1.148H10.172V42.4H9.022v1.149H7.874v1.148H6.726v1.135h-1v-1.1H4.578V43.585H3.429V42.436H2.281V41.287H1.132V40.138H0v-1.1H1.089V37.9H2.238V36.746H3.387V35.6H4.535V34.449H5.684V33.3l1.053-.049v-1.12H7.885V30.984H9.034V29.835h1.148V28.687h1.149V27.538H12.48V26.39h1.148V25.259l1.034-.049V24.093H15.81V22.944h1.149V21.8h1.148V20.647h1.149V19.5h1.148V18.35h1.149V17.2h2.153V16.018H22.619V14.873l-1.035-.047V12.571H20.452v-5.7l1.088-.056V4.58l1.089-.05c0-.593.02-1.162-.007-1.729-.019-.411.146-.54.539-.523.55.024,1.1.006,1.707.006V1.118h2.259C27.153.709,27.175.375,27.2,0h5.581c.022.336.043.654.07,1.061h2.2c.021.421.037.757.057,1.16h2.246V4.514l1.044.062V6.8l1.114.06v5.676H38.424V14.82l-1.033.051v1.11H36.259v1.182h2.125v1.15h1.15v1.149h1.149v1.148h1.149V21.76H42.98v1.149h1.149v1.148h1.149V25.2l1.034.052v1.1h1.149V27.5h1.148v1.149h1.149V29.8h1.149V30.95h1.149V32.1H53.2v1.143l1.035.055v1.1h1.153v1.15h1.155V36.7h1.136c.022.4.041.752.062,1.136l1.095.054c.016.353.032.69.051,1.091l1.086.053V40.1H58.885v1.148H57.736v1.148H56.587v1.149H55.439v1.149H54.29v1.125h-1V44.735H52.142V43.586H50.993V42.437H49.845V41.288H48.7V40.14H47.547V38.991H46.4V37.854L45.364,37.8V36.694H44.216V35.545H43.067V34.4H41.918V33.247H40.769V32.1H39.621V30.958h-1.2V29.832h-1v1.115Z" fill="#c5296a"/>
      </g>
    </g>
    <g id="Grupo_619" data-name="Grupo 619" transform="translate(1018.113 872.014)" opacity="0.3">
      <g id="Grupo_601-16" data-name="Grupo 601" clip-path="url(#clip-path-5)">
        <path id="Trazado_1444-16" data-name="Trazado 1444" d="M38.436,30.947v3.415c.064.032.1.061.128.063.94.065.956.064.97,1,.016,1.165,0,2.332,0,3.569h1.154v4.586l1.173.054v4.489l1.123.09v3.428h1.144v4.6H45.3v4.57l1.03.06v3.343c.094.051.125.082.158.084.934.07.954.069.971,1.01.022,1.164.005,2.33.005,3.565h1.165v4.578h1.151V77.99l1.142.095v3.424l1.1.05v1.048H48.686c-.023.414-.041.749-.064,1.174H44.244c-.035.418-.064.75-.1,1.138H40.793c-.052.088-.084.119-.086.151-.072.944-.071.949-1.049.983-.378.013-.756,0-1.187,0V83.8l-1.039-.049V79.213l-1.16-.053c0-.8,0-1.556,0-2.317,0-.326.006-.651-.007-.976-.014-.362.074-.815-.109-1.057-.161-.212-.635-.188-1.035-.283V71.164L34,71.114V66.57h-1.18V62.016l-1.138-.081V58.52l-1.114-.052c-.017-.356-.033-.692-.051-1.071h-1.09v3.732c0,.851.07.808-.813.8-.076,0-.152.016-.288.032v3.413l-1.146.056v4.533l-1.155.051v4.523L24.87,74.6v3.413l-1.116.069v4.523H22.578V86.03H20.444V84.936H15.873c-.025-.421-.044-.757-.067-1.149h-3.23c-.061-.087-.1-.115-.1-.147-.109-.89-.107-.916-1.03-.962-.777-.039-1.559-.008-2.369-.008V81.528a1.85,1.85,0,0,1,.437-.058c.465.049.637-.118.63-.607-.015-1.146.029-2.293.05-3.44,0-.149.015-.3.024-.474l1.1-.063V72.366l1.166-.061v-4.54h1.129V64.311l1.023-.077v-4.5l1.179-.061v-4.54h1.14V51.692c1.129-.259,1.14-.258,1.16-1.535.016-1.011,0-2.022,0-3.074l1.115-.065V42.482H20.4V37.9l1.165-.057V34.432l1.007-.069V29.8h1.144V28.68H22.585V29.81H21.544v1.1H20.4v1.149H19.246v1.149H18.1v1.149H16.949V35.5H15.8v1.148H14.651v1.142l-1.033.05V38.95H12.47V40.1H11.321v1.148H10.172V42.4H9.022v1.149H7.874v1.148H6.726v1.135h-1v-1.1H4.578V43.585H3.429V42.436H2.281V41.287H1.132V40.138H0v-1.1H1.089V37.9H2.238V36.746H3.387V35.6H4.535V34.449H5.684V33.3l1.053-.049v-1.12H7.885V30.984H9.034V29.835h1.148V28.687h1.149V27.538H12.48V26.39h1.148V25.259l1.034-.049V24.093H15.81V22.944h1.149V21.8h1.148V20.647h1.149V19.5h1.148V18.35h1.149V17.2h2.153V16.018H22.619V14.873l-1.035-.047V12.571H20.452v-5.7l1.088-.056V4.58l1.089-.05c0-.593.02-1.162-.007-1.729-.019-.411.146-.54.539-.523.55.024,1.1.006,1.707.006V1.118h2.259C27.153.709,27.175.375,27.2,0h5.581c.022.336.043.654.07,1.061h2.2c.021.421.037.757.057,1.16h2.246V4.514l1.044.062V6.8l1.114.06v5.676H38.424V14.82l-1.033.051v1.11H36.259v1.182h2.125v1.15h1.15v1.149h1.149v1.148h1.149V21.76H42.98v1.149h1.149v1.148h1.149V25.2l1.034.052v1.1h1.149V27.5h1.148v1.149h1.149V29.8h1.149V30.95h1.149V32.1H53.2v1.143l1.035.055v1.1h1.153v1.15h1.155V36.7h1.136c.022.4.041.752.062,1.136l1.095.054c.016.353.032.69.051,1.091l1.086.053V40.1H58.885v1.148H57.736v1.148H56.587v1.149H55.439v1.149H54.29v1.125h-1V44.735H52.142V43.586H50.993V42.437H49.845V41.288H48.7V40.14H47.547V38.991H46.4V37.854L45.364,37.8V36.694H44.216V35.545H43.067V34.4H41.918V33.247H40.769V32.1H39.621V30.958h-1.2V29.832h-1v1.115Z" fill="#c5296a"/>
      </g>
    </g>
    <g id="Grupo_611" data-name="Grupo 611" transform="translate(923.591 872.014)" opacity="0.3">
      <g id="Grupo_601-17" data-name="Grupo 601" clip-path="url(#clip-path-5)">
        <path id="Trazado_1444-17" data-name="Trazado 1444" d="M38.436,30.947v3.415c.064.032.1.061.128.063.94.065.956.064.97,1,.016,1.165,0,2.332,0,3.569h1.154v4.586l1.173.054v4.489l1.123.09v3.428h1.144v4.6H45.3v4.57l1.03.06v3.343c.094.051.125.082.158.084.934.07.954.069.971,1.01.022,1.164.005,2.33.005,3.565h1.165v4.578h1.151V77.99l1.142.095v3.424l1.1.05v1.048H48.686c-.023.414-.041.749-.064,1.174H44.244c-.035.418-.064.75-.1,1.138H40.793c-.052.088-.084.119-.086.151-.072.944-.071.949-1.049.983-.378.013-.756,0-1.187,0V83.8l-1.039-.049V79.213l-1.16-.053c0-.8,0-1.556,0-2.317,0-.326.006-.651-.007-.976-.014-.362.074-.815-.109-1.057-.161-.212-.635-.188-1.035-.283V71.164L34,71.114V66.57h-1.18V62.016l-1.138-.081V58.52l-1.114-.052c-.017-.356-.033-.692-.051-1.071h-1.09v3.732c0,.851.07.808-.813.8-.076,0-.152.016-.288.032v3.413l-1.146.056v4.533l-1.155.051v4.523L24.87,74.6v3.413l-1.116.069v4.523H22.578V86.03H20.444V84.936H15.873c-.025-.421-.044-.757-.067-1.149h-3.23c-.061-.087-.1-.115-.1-.147-.109-.89-.107-.916-1.03-.962-.777-.039-1.559-.008-2.369-.008V81.528a1.85,1.85,0,0,1,.437-.058c.465.049.637-.118.63-.607-.015-1.146.029-2.293.05-3.44,0-.149.015-.3.024-.474l1.1-.063V72.366l1.166-.061v-4.54h1.129V64.311l1.023-.077v-4.5l1.179-.061v-4.54h1.14V51.692c1.129-.259,1.14-.258,1.16-1.535.016-1.011,0-2.022,0-3.074l1.115-.065V42.482H20.4V37.9l1.165-.057V34.432l1.007-.069V29.8h1.144V28.68H22.585V29.81H21.544v1.1H20.4v1.149H19.246v1.149H18.1v1.149H16.949V35.5H15.8v1.148H14.651v1.142l-1.033.05V38.95H12.47V40.1H11.321v1.148H10.172V42.4H9.022v1.149H7.874v1.148H6.726v1.135h-1v-1.1H4.578V43.585H3.429V42.436H2.281V41.287H1.132V40.138H0v-1.1H1.089V37.9H2.238V36.746H3.387V35.6H4.535V34.449H5.684V33.3l1.053-.049v-1.12H7.885V30.984H9.034V29.835h1.148V28.687h1.149V27.538H12.48V26.39h1.148V25.259l1.034-.049V24.093H15.81V22.944h1.149V21.8h1.148V20.647h1.149V19.5h1.148V18.35h1.149V17.2h2.153V16.018H22.619V14.873l-1.035-.047V12.571H20.452v-5.7l1.088-.056V4.58l1.089-.05c0-.593.02-1.162-.007-1.729-.019-.411.146-.54.539-.523.55.024,1.1.006,1.707.006V1.118h2.259C27.153.709,27.175.375,27.2,0h5.581c.022.336.043.654.07,1.061h2.2c.021.421.037.757.057,1.16h2.246V4.514l1.044.062V6.8l1.114.06v5.676H38.424V14.82l-1.033.051v1.11H36.259v1.182h2.125v1.15h1.15v1.149h1.149v1.148h1.149V21.76H42.98v1.149h1.149v1.148h1.149V25.2l1.034.052v1.1h1.149V27.5h1.148v1.149h1.149V29.8h1.149V30.95h1.149V32.1H53.2v1.143l1.035.055v1.1h1.153v1.15h1.155V36.7h1.136c.022.4.041.752.062,1.136l1.095.054c.016.353.032.69.051,1.091l1.086.053V40.1H58.885v1.148H57.736v1.148H56.587v1.149H55.439v1.149H54.29v1.125h-1V44.735H52.142V43.586H50.993V42.437H49.845V41.288H48.7V40.14H47.547V38.991H46.4V37.854L45.364,37.8V36.694H44.216V35.545H43.067V34.4H41.918V33.247H40.769V32.1H39.621V30.958h-1.2V29.832h-1v1.115Z" fill="#c5296a"/>
      </g>
    </g>
  </g>
</svg>
